<svg id="Laag_1" data-name="Laag 1" xmlns="http://www.w3.org/2000/svg" xmlns:xlink="http://www.w3.org/1999/xlink" viewBox="0 0 1282 799.96"><defs><style>.cls-1{fill:none;}.cls-2{fill:#bae1f7;}.cls-3{clip-path:url(#clip-path);}.cls-4{fill:url(#Naamloos_verloop);}.cls-5{clip-path:url(#clip-path-2);}.cls-6{fill:url(#Naamloos_verloop_2);}.cls-7{clip-path:url(#clip-path-3);}.cls-8{fill:url(#Naamloos_verloop_3);}.cls-9{clip-path:url(#clip-path-4);}.cls-10{fill:url(#Naamloos_verloop_4);}.cls-11{clip-path:url(#clip-path-5);}.cls-12{fill:url(#Naamloos_verloop_5);}.cls-13{clip-path:url(#clip-path-6);}.cls-14{fill:url(#Naamloos_verloop_6);}.cls-15{clip-path:url(#clip-path-7);}.cls-16{fill:url(#Naamloos_verloop_7);}.cls-17{clip-path:url(#clip-path-8);}.cls-18{fill:url(#Naamloos_verloop_8);}.cls-19{clip-path:url(#clip-path-9);}.cls-20{fill:url(#Naamloos_verloop_9);}.cls-21{clip-path:url(#clip-path-10);}.cls-22{fill:url(#Naamloos_verloop_10);}.cls-23{clip-path:url(#clip-path-11);}.cls-24{fill:url(#Naamloos_verloop_11);}.cls-25{clip-path:url(#clip-path-12);}.cls-26{fill:url(#Naamloos_verloop_12);}.cls-27{clip-path:url(#clip-path-13);}.cls-28{fill:url(#Naamloos_verloop_13);}.cls-29{clip-path:url(#clip-path-14);}.cls-30{fill:url(#Naamloos_verloop_14);}</style><clipPath id="clip-path" transform="translate(0 0)"><path class="cls-1" d="M965.21,130.07a54,54,0,1,0,48.64-30.48,54,54,0,0,0-48.64,30.48"/></clipPath><linearGradient id="Naamloos_verloop" y1="799.99" x2="1" y2="799.99" gradientTransform="matrix(-136.03, 0, 0, 136.03, 1074.59, -108666.48)" gradientUnits="userSpaceOnUse"><stop offset="0" stop-color="#f8e4b4"/><stop offset="0.42" stop-color="#f8e4b4"/><stop offset="0.75" stop-color="#ffe194"/><stop offset="1" stop-color="#ffe194"/></linearGradient><clipPath id="clip-path-2" transform="translate(0 0)"><path class="cls-1" d="M211.79,369.56c0,16.32,9.23,29.92,21.47,33a.89.89,0,0,1,.42,1.5l-2.19,2.19a.89.89,0,0,0,.63,1.52h11.22a.89.89,0,0,0,.63-1.52l-1.92-1.91a.89.89,0,0,1,.46-1.5c12.84-2.44,22.68-16.4,22.68-33.25,0-18.57-12-33.63-26.71-33.63S211.79,351,211.79,369.56"/></clipPath><linearGradient id="Naamloos_verloop_2" y1="799.96" x2="1" y2="799.96" gradientTransform="matrix(-86.45, 0, 0, 86.45, 281.81, -68781.91)" gradientUnits="userSpaceOnUse"><stop offset="0" stop-color="#ffe194"/><stop offset="0.3" stop-color="#fdd254"/><stop offset="0.56" stop-color="#fcc51a"/><stop offset="1" stop-color="#fcc51a"/></linearGradient><clipPath id="clip-path-3" transform="translate(0 0)"><path class="cls-1" d="M920.79,466.28c0,16.32,9.23,29.92,21.47,33a.89.89,0,0,1,.42,1.5l-2.19,2.19a.89.89,0,0,0,.63,1.52h11.22a.89.89,0,0,0,.63-1.52L951.06,501a.89.89,0,0,1,.46-1.51c12.84-2.44,22.68-16.4,22.68-33.25,0-18.57-12-33.63-26.71-33.63s-26.71,15.06-26.71,33.63"/></clipPath><linearGradient id="Naamloos_verloop_3" y1="799.96" y2="799.96" gradientTransform="matrix(-86.45, 0, 0, 86.45, 990.79, -68685.19)" xlink:href="#Naamloos_verloop_2"/><clipPath id="clip-path-4" transform="translate(0 0)"><path class="cls-1" d="M542.79,383.28c0,16.32,9.23,29.92,21.47,33a.89.89,0,0,1,.42,1.5l-2.19,2.19a.89.89,0,0,0,.63,1.52h11.22a.89.89,0,0,0,.63-1.52L573.06,418a.89.89,0,0,1,.46-1.5c12.84-2.44,22.68-16.4,22.68-33.25,0-18.57-12-33.63-26.71-33.63s-26.71,15.06-26.71,33.63"/></clipPath><linearGradient id="Naamloos_verloop_4" y1="799.96" y2="799.96" gradientTransform="matrix(-86.45, 0, 0, 86.45, 612.76, -68768.19)" xlink:href="#Naamloos_verloop_2"/><clipPath id="clip-path-5" transform="translate(0 0)"><path class="cls-1" d="M133.44,419.32c0,16.32,9.23,29.92,21.47,33a.89.89,0,0,1,.42,1.5L153.15,456a.89.89,0,0,0,.63,1.52H165a.89.89,0,0,0,.63-1.52l-1.91-1.91a.89.89,0,0,1,.46-1.51c12.84-2.44,22.68-16.4,22.68-33.25,0-18.57-12-33.63-26.71-33.63s-26.71,15.06-26.71,33.63"/></clipPath><linearGradient id="Naamloos_verloop_5" y1="799.96" x2="1" y2="799.96" gradientTransform="matrix(-140.65, 0, 0, 140.65, 231.46, -112090.05)" gradientUnits="userSpaceOnUse"><stop offset="0" stop-color="#4084c5"/><stop offset="0.2" stop-color="#4084c5"/><stop offset="0.56" stop-color="#3255a3"/><stop offset="1" stop-color="#3255a3"/></linearGradient><clipPath id="clip-path-6" transform="translate(0 0)"><path class="cls-1" d="M612.44,491.28c0,16.32,9.23,29.92,21.47,33a.89.89,0,0,1,.42,1.5l-2.19,2.19a.89.89,0,0,0,.63,1.52H644a.89.89,0,0,0,.63-1.52L642.71,526a.89.89,0,0,1,.46-1.5c12.84-2.44,22.68-16.4,22.68-33.25,0-18.57-12-33.63-26.71-33.63s-26.71,15.06-26.71,33.63"/></clipPath><linearGradient id="Naamloos_verloop_6" y1="799.96" y2="799.96" gradientTransform="matrix(-140.65, 0, 0, 140.65, 710.43, -112018.09)" xlink:href="#Naamloos_verloop_5"/><clipPath id="clip-path-7" transform="translate(0 0)"><path class="cls-1" d="M1054.44,405.28c0,16.85,9.84,30.8,22.68,33.25a.89.89,0,0,1,.46,1.5l-1.92,1.92a.89.89,0,0,0,.63,1.52h11.22a.89.89,0,0,0,.63-1.52l-2.19-2.19a.89.89,0,0,1,.42-1.5c12.24-3.07,21.47-16.67,21.47-33,0-18.57-12-33.63-26.7-33.63s-26.71,15.06-26.71,33.63"/></clipPath><linearGradient id="Naamloos_verloop_7" y1="799.95" y2="799.95" gradientTransform="matrix(0, 114.55, 114.55, 0, -90552.62, 350.46)" xlink:href="#Naamloos_verloop_5"/><clipPath id="clip-path-8" transform="translate(0 0)"><path class="cls-1" d="M700.67,430.32c0,16.85,9.84,30.8,22.68,33.25a.89.89,0,0,1,.46,1.51L721.9,467a.89.89,0,0,0,.63,1.52h11.22a.89.89,0,0,0,.63-1.52l-2.19-2.19a.89.89,0,0,1,.42-1.5c12.24-3.06,21.47-16.67,21.47-33,0-18.57-12-33.63-26.71-33.63s-26.71,15.06-26.71,33.63"/></clipPath><linearGradient id="Naamloos_verloop_8" y1="799.98" x2="1" y2="799.98" gradientTransform="matrix(-71.98, 0, 0, 71.98, 771.34, -57146.18)" gradientUnits="userSpaceOnUse"><stop offset="0" stop-color="#e57a96"/><stop offset="0.56" stop-color="#e94b6e"/><stop offset="1" stop-color="#e94b6e"/></linearGradient><clipPath id="clip-path-9" transform="translate(0 0)"><path class="cls-1" d="M349.67,444.28c0,16.85,9.84,30.81,22.68,33.25a.89.89,0,0,1,.46,1.51l-1.91,1.91a.89.89,0,0,0,.63,1.52h11.22a.89.89,0,0,0,.63-1.52l-2.19-2.19a.89.89,0,0,1,.42-1.5c12.24-3.06,21.47-16.67,21.47-33,0-18.57-12-33.63-26.71-33.63s-26.71,15.06-26.71,33.63"/></clipPath><linearGradient id="Naamloos_verloop_9" y1="799.98" y2="799.98" gradientTransform="matrix(-71.98, 0, 0, 71.98, 420.34, -57132.22)" xlink:href="#Naamloos_verloop_8"/><clipPath id="clip-path-10" transform="translate(0 0)"><path class="cls-1" d="M816.67,491.28c0,16.85,9.84,30.81,22.68,33.25a.89.89,0,0,1,.46,1.5l-1.92,1.92a.89.89,0,0,0,.63,1.52h11.22a.89.89,0,0,0,.63-1.52l-2.19-2.19a.89.89,0,0,1,.42-1.5c12.24-3.06,21.47-16.67,21.47-33,0-18.57-12-33.63-26.71-33.63s-26.71,15.06-26.71,33.63"/></clipPath><linearGradient id="Naamloos_verloop_10" y1="799.98" y2="799.98" gradientTransform="matrix(-71.98, 0, 0, 71.98, 887.33, -57085.22)" xlink:href="#Naamloos_verloop_8"/><clipPath id="clip-path-11" transform="translate(0 0)"><path class="cls-1" d="M64.79,516.32c0,16.85,9.84,30.81,22.68,33.25a.89.89,0,0,1,.46,1.51L86,553a.89.89,0,0,0,.63,1.52H97.87A.89.89,0,0,0,98.5,553l-2.19-2.19a.89.89,0,0,1,.42-1.5c12.24-3.07,21.47-16.67,21.47-33,0-18.57-12-33.63-26.71-33.63s-26.71,15.06-26.71,33.63"/></clipPath><linearGradient id="Naamloos_verloop_11" y1="799.98" x2="1" y2="799.98" gradientTransform="matrix(-67.05, 0, 0, 67.05, 134.35, -53121.98)" gradientUnits="userSpaceOnUse"><stop offset="0" stop-color="#de6b80"/><stop offset="1" stop-color="#b5467e"/></linearGradient><clipPath id="clip-path-12" transform="translate(0 0)"><path class="cls-1" d="M464.79,491.28c0,16.85,9.84,30.81,22.68,33.25a.89.89,0,0,1,.46,1.5L486,527.95a.89.89,0,0,0,.63,1.52h11.22a.89.89,0,0,0,.63-1.52l-2.19-2.19a.89.89,0,0,1,.42-1.5c12.24-3.06,21.47-16.67,21.47-33,0-18.57-12-33.63-26.71-33.63s-26.71,15.06-26.71,33.63"/></clipPath><linearGradient id="Naamloos_verloop_12" y1="799.98" y2="799.98" gradientTransform="matrix(-67.05, 0, 0, 67.05, 534.36, -53147.02)" xlink:href="#Naamloos_verloop_11"/><clipPath id="clip-path-13" transform="translate(0 0)"><path class="cls-1" d="M803.79,369.28c0,16.85,9.84,30.8,22.68,33.25a.89.89,0,0,1,.46,1.5L825,405.95a.89.89,0,0,0,.63,1.52h11.22a.89.89,0,0,0,.63-1.52l-2.19-2.19a.89.89,0,0,1,.42-1.5c12.24-3.07,21.47-16.67,21.47-33,0-18.57-12-33.63-26.71-33.63s-26.71,15.06-26.71,33.63"/></clipPath><linearGradient id="Naamloos_verloop_13" y1="799.98" y2="799.98" gradientTransform="matrix(-67.05, 0, 0, 67.05, 873.35, -53269.02)" xlink:href="#Naamloos_verloop_11"/><clipPath id="clip-path-14" transform="translate(0 0)"><path class="cls-1" d="M1163.79,369.28c0,16.32,9.23,29.92,21.47,33a.89.89,0,0,1,.42,1.5l-2.19,2.19a.89.89,0,0,0,.63,1.52h11.22a.89.89,0,0,0,.63-1.52l-1.92-1.92a.89.89,0,0,1,.46-1.5c12.84-2.44,22.68-16.4,22.68-33.25,0-18.57-12-33.63-26.71-33.63s-26.71,15.06-26.71,33.63"/></clipPath><linearGradient id="Naamloos_verloop_14" y1="799.98" y2="799.98" gradientTransform="translate(54831.07 328.71) rotate(90) scale(67.05)" xlink:href="#Naamloos_verloop_11"/></defs><title>background_image_scene5</title><rect class="cls-2" width="1282" height="799.96"/><g class="cls-3"><rect class="cls-4" x="938.45" y="84.6" width="150.72" height="145.58" transform="translate(-3.37 291.27) rotate(-16.32)"/></g><g class="cls-5"><rect class="cls-6" x="199.02" y="327.97" width="78.95" height="87.74" transform="translate(-135.84 137.29) rotate(-25.25)"/></g><g class="cls-7"><rect class="cls-8" x="908.02" y="424.69" width="78.95" height="87.74" transform="translate(-109.34 449) rotate(-25.25)"/></g><g class="cls-9"><rect class="cls-10" x="530.02" y="341.69" width="78.95" height="87.74" transform="translate(-110.06 279.81) rotate(-25.25)"/></g><g class="cls-11"><rect class="cls-12" x="121.09" y="377.91" width="78.12" height="87.39" transform="translate(-158.45 102.4) rotate(-24.15)"/></g><g class="cls-13"><rect class="cls-14" x="600.09" y="449.87" width="78.12" height="87.39" transform="translate(-145.97 304.63) rotate(-24.15)"/></g><g class="cls-15"><rect class="cls-16" x="1040.58" y="363.27" width="81.14" height="88.58" transform="translate(-63.75 563.13) rotate(-28.39)"/></g><g class="cls-17"><rect class="cls-18" x="682.82" y="388.73" width="89.11" height="87.75" transform="translate(-80.76 683.86) rotate(-48.01)"/></g><g class="cls-19"><rect class="cls-20" x="331.82" y="402.68" width="89.11" height="87.75" transform="translate(-207.33 427.59) rotate(-48.01)"/></g><g class="cls-21"><rect class="cls-22" x="798.82" y="449.69" width="89.11" height="87.75" transform="translate(-87.67 790.26) rotate(-48.01)"/></g><g class="cls-23"><rect class="cls-24" x="46.76" y="475.51" width="89.49" height="86.17" transform="translate(-374.93 274.14) rotate(-52.33)"/></g><g class="cls-25"><rect class="cls-26" x="446.75" y="450.47" width="89.49" height="86.17" transform="translate(-199.53 581.04) rotate(-52.33)"/></g><g class="cls-27"><rect class="cls-28" x="785.76" y="328.47" width="89.49" height="86.17" transform="translate(28.9 801.93) rotate(-52.33)"/></g><g class="cls-29"><rect class="cls-30" x="1147.42" y="326.81" width="86.17" height="89.49" transform="translate(21.07 804.89) rotate(-37.67)"/></g></svg>