<svg id="Laag_1" data-name="Laag 1" xmlns="http://www.w3.org/2000/svg" viewBox="0 0 912.19 322.36"><defs><style>.cls-1{fill:#231f20;}.cls-2{fill:#00a651;}</style></defs><title>background_image_scene7_2</title><path class="cls-1" d="M181.3,213.39h9v57.46h-9Z" transform="translate(-177.45 -212.22)"/><path class="cls-1" d="M210.38,222.23V237.6h21.74v9H210.38v24.35h-9V213.25h34.22v9Z" transform="translate(-177.45 -212.22)"/><path class="cls-1" d="M259.43,213.39h9.73l10.66,35.47,13.15-33h.36l13.15,33,10.62-35.43h9.73l-18.25,58h-.82L293,236.74l-14.51,34.65h-.82Z" transform="translate(-177.45 -212.22)"/><path class="cls-1" d="M342.23,222.27V237H364v9H342.23v15.9h25.2v9H333.21V213.39h34.22v8.88Z" transform="translate(-177.45 -212.22)"/><path class="cls-1" d="M395.45,242.16a30,30,0,0,1,29.66-29.76c7.45.11,14.33,3.28,20,8.77l-5.24,7.09c-4-4-9.27-6.7-14.9-6.7-10.41,0-20.35,9.13-20.35,20.64s10.09,20.53,20.39,20.53c5.88,0,10.94-2.92,14.9-6.84l5.2,7.27c-5,4.88-11.26,8.63-19.82,8.63A29.91,29.91,0,0,1,395.45,242.16Z" transform="translate(-177.45 -212.22)"/><path class="cls-1" d="M488.41,262.12h-27.2l-3.92,8.73h-9.77l27-58.64h.53l27,58.64h-9.77Zm-3.49-7.73-10.09-22.46-10.12,22.46Z" transform="translate(-177.45 -212.22)"/><path class="cls-1" d="M554.67,213.25v58.6h-.43L517.5,233.46v37.46h-9V212.4h.46l36.68,38.32V213.25Z" transform="translate(-177.45 -212.22)"/><path class="cls-1" d="M633.31,213.25v58.6h-.43l-36.75-38.39v37.46h-9V212.4h.46l36.68,38.32V213.25Z" transform="translate(-177.45 -212.22)"/><path class="cls-1" d="M641.61,242.19a29.71,29.71,0,1,1,29.66,29.58A29.81,29.81,0,0,1,641.61,242.19Zm50.29-.07a20.6,20.6,0,1,0-20.64,20.53A20.7,20.7,0,0,0,691.91,242.12Z" transform="translate(-177.45 -212.22)"/><path class="cls-1" d="M742.53,222.34h-15.4v48.51h-9.05V222.34h-15.4v-8.95h39.85Z" transform="translate(-177.45 -212.22)"/><path class="cls-1" d="M768.33,242.16A30,30,0,0,1,798,212.4c7.45.11,14.33,3.28,20,8.77l-5.24,7.09c-4-4-9.27-6.7-14.9-6.7-10.41,0-20.35,9.13-20.35,20.64s10.09,20.53,20.39,20.53c5.88,0,10.94-2.92,14.9-6.84l5.2,7.27c-5,4.88-11.26,8.63-19.82,8.63A29.91,29.91,0,0,1,768.33,242.16Z" transform="translate(-177.45 -212.22)"/><path class="cls-1" d="M868,213.39v57.46h-9V246.58H834.1v24.27h-9V213.39h9v24.24H859V213.39Z" transform="translate(-177.45 -212.22)"/><path class="cls-1" d="M915.22,262.12H888l-3.92,8.73h-9.77l27-58.64h.53l27,58.64h-9.77Zm-3.49-7.73-10.09-22.46-10.12,22.46Z" transform="translate(-177.45 -212.22)"/><path class="cls-1" d="M981.49,213.25v58.6h-.43l-36.75-38.39v37.46h-9V212.4h.46l36.68,38.32V213.25Z" transform="translate(-177.45 -212.22)"/><path class="cls-1" d="M1047.11,244c0,17.07-12.4,27.84-27.34,27.84a29.69,29.69,0,1,1-.32-59.38,32.07,32.07,0,0,1,20.92,8.8l-5,7.49c-4.49-4.42-10.55-7.2-16-7.2A20.72,20.72,0,0,0,999,242.19c0,11.26,8.95,20.53,21.21,20.53,9.87,0,17.29-6,17.29-14.79v-.18h-17.79v-8.27h27.2A42.57,42.57,0,0,1,1047.11,244Z" transform="translate(-177.45 -212.22)"/><path class="cls-1" d="M1064.43,222.27V237h21.74v9h-21.74v15.9h25.2v9h-34.22V213.39h34.22v8.88Z" transform="translate(-177.45 -212.22)"/><path class="cls-1" d="M217.3,309.94H201.9v48.51h-9.05V309.94h-15.4V301H217.3Z" transform="translate(-177.45 -212.22)"/><path class="cls-1" d="M267.34,301v57.46h-9V334.18H233.45v24.27h-9V301h9v24.24h24.88V301Z" transform="translate(-177.45 -212.22)"/><path class="cls-1" d="M314.57,349.72h-27.2l-3.92,8.73h-9.77l27-58.64h.53l27,58.64h-9.77ZM311.08,342,301,319.53,290.87,342Z" transform="translate(-177.45 -212.22)"/><path class="cls-1" d="M363.56,309.94h-15.4v48.51h-9.05V309.94h-15.4V301h39.85Z" transform="translate(-177.45 -212.22)"/><path class="cls-1" d="M392.11,301h19.21c11.12,0,20.21,8.52,20.21,19,0,10.23-9.09,18.57-20.21,18.57H401.13v19.93h-9Zm30.4,18.89c0-5.49-5-9.94-11.19-9.94H401.13v19.64l10.19,0C417.49,329.65,422.52,325.27,422.52,319.88Z" transform="translate(-177.45 -212.22)"/><path class="cls-1" d="M447.72,309.87v14.72h21.74v9H447.72v15.9h25.2v9H438.7V301h34.22v8.88Z" transform="translate(-177.45 -212.22)"/><path class="cls-1" d="M479.55,329.79a29.71,29.71,0,1,1,29.66,29.58A29.81,29.81,0,0,1,479.55,329.79Zm50.29-.07a20.6,20.6,0,1,0-20.64,20.53A20.7,20.7,0,0,0,529.84,329.72Z" transform="translate(-177.45 -212.22)"/><path class="cls-1" d="M547.24,301h19.21c11.12,0,20.21,8.52,20.21,19,0,10.23-9.09,18.57-20.21,18.57H556.25v19.93h-9Zm30.4,18.89c0-5.49-5-9.94-11.19-9.94H556.25v19.64l10.19,0C572.62,329.65,577.64,325.27,577.64,319.88Z" transform="translate(-177.45 -212.22)"/><path class="cls-1" d="M628.47,349.47v9H593.82V301h9v48.48Z" transform="translate(-177.45 -212.22)"/><path class="cls-1" d="M644.69,309.87v14.72h21.74v9H644.69v15.9h25.2v9H635.67V301h34.22v8.88Z" transform="translate(-177.45 -212.22)"/><path class="cls-1" d="M735.3,349.47v9H700.65V301h9v48.48Z" transform="translate(-177.45 -212.22)"/><path class="cls-1" d="M742.5,301h9v57.46h-9Z" transform="translate(-177.45 -212.22)"/><path class="cls-1" d="M798.57,309.94h-15.4v48.51h-9.05V309.94h-15.4V301h39.85Z" transform="translate(-177.45 -212.22)"/><path class="cls-1" d="M841.73,309.94h-15.4v48.51h-9.05V309.94h-15.4V301h39.85Z" transform="translate(-177.45 -212.22)"/><path class="cls-1" d="M857.91,309.87v14.72h21.74v9H857.91v15.9h25.2v9H848.9V301h34.22v8.88Z" transform="translate(-177.45 -212.22)"/><path class="cls-1" d="M924.07,358.45,908.6,336.21h-7.06v22.24h-9l0-57.46h17.86c10.69,0,19.46,8.23,19.46,18.46a16.82,16.82,0,0,1-11.37,16l16.72,23Zm-13.51-29.73a9.81,9.81,0,0,0,9.94-9.48c0-5.35-4.6-9.3-9.94-9.3h-9.05v18.78Z" transform="translate(-177.45 -212.22)"/><path class="cls-1" d="M940,369.93a7,7,0,0,0,6.59-7.27,4.5,4.5,0,0,0-.61-2.74,5.46,5.46,0,0,1-5.42-5.52A6.36,6.36,0,0,1,947,348c3.6,0,6.67,3,6.67,9.13,0,7.81-4.38,14.47-10.34,14.47C941.21,371.6,940,370.46,940,369.93Z" transform="translate(-177.45 -212.22)"/><path class="cls-1" d="M980,301h9.73l10.66,35.47,13.15-33h.36l13.15,33L1037.67,301h9.73l-18.25,58h-.82l-14.72-34.65L999.1,359h-.82Z" transform="translate(-177.45 -212.22)"/><path class="cls-1" d="M1062.8,309.87v14.72h21.74v9H1062.8v15.9H1088v9h-34.22V301H1088v8.88Z" transform="translate(-177.45 -212.22)"/><path class="cls-1" d="M224.18,388.59v57.46h-9V421.78H190.28v24.27h-9V388.59h9v24.24h24.88V388.59Z" transform="translate(-177.45 -212.22)"/><path class="cls-1" d="M271.41,437.32h-27.2l-3.92,8.73h-9.77l27-58.64h.53l27,58.64h-9.77Zm-3.49-7.73-10.09-22.46L247.7,429.58Z" transform="translate(-177.45 -212.22)"/><path class="cls-1" d="M326.07,388.59l-26.52,58.64h-.61l-26.41-58.64h9.59l17.11,38.89,17.18-38.89Z" transform="translate(-177.45 -212.22)"/><path class="cls-1" d="M341.47,397.47v14.72h21.74v9H341.47v15.9h25.2v9H332.45V388.59h34.22v8.88Z" transform="translate(-177.45 -212.22)"/><path class="cls-1" d="M433.43,397.54H418v48.51H409V397.54h-15.4v-8.95h39.85Z" transform="translate(-177.45 -212.22)"/><path class="cls-1" d="M435,417.39A29.71,29.71,0,1,1,464.66,447,29.81,29.81,0,0,1,435,417.39Zm50.29-.07a20.6,20.6,0,1,0-20.64,20.53A20.7,20.7,0,0,0,485.3,417.32Z" transform="translate(-177.45 -212.22)"/><path class="cls-1" d="M521.34,417.36A30,30,0,0,1,551,387.59c7.45.11,14.33,3.28,20,8.77l-5.24,7.09c-4-4-9.27-6.7-14.9-6.7-10.41,0-20.35,9.13-20.35,20.64s10.09,20.53,20.39,20.53c5.88,0,10.94-2.92,14.9-6.84l5.2,7.27c-5,4.88-11.26,8.63-19.82,8.63A29.91,29.91,0,0,1,521.34,417.36Z" transform="translate(-177.45 -212.22)"/><path class="cls-1" d="M621,388.59v57.46h-9V421.78H587.1v24.27h-9V388.59h9v24.24H612V388.59Z" transform="translate(-177.45 -212.22)"/><path class="cls-1" d="M668.23,437.32H641l-3.92,8.73h-9.77l27-58.64h.54l27,58.64h-9.77Zm-3.49-7.73-10.09-22.46-10.12,22.46Z" transform="translate(-177.45 -212.22)"/><path class="cls-1" d="M734.49,388.45V447h-.43l-36.75-38.39v37.46h-9V387.59h.46l36.68,38.32V388.45Z" transform="translate(-177.45 -212.22)"/><path class="cls-1" d="M800.11,419.18c0,17.07-12.4,27.84-27.34,27.84a29.69,29.69,0,1,1-.32-59.38,32.07,32.07,0,0,1,20.92,8.8l-5,7.49c-4.49-4.42-10.55-7.2-16-7.2A20.72,20.72,0,0,0,752,417.39c0,11.26,8.95,20.53,21.21,20.53,9.87,0,17.29-6,17.29-14.79V423H772.67v-8.27h27.2A42.6,42.6,0,0,1,800.11,419.18Z" transform="translate(-177.45 -212.22)"/><path class="cls-1" d="M817.44,397.47v14.72h21.74v9H817.44v15.9h25.2v9H808.42V388.59h34.22v8.88Z" transform="translate(-177.45 -212.22)"/><path class="cls-2" d="M868.66,388.59h9.73L889,424.06l13.15-33h.36l13.15,33,10.62-35.43h9.73l-18.25,58H917l-14.72-34.65-14.51,34.65h-.82Z" transform="translate(-177.45 -212.22)"/><path class="cls-2" d="M985.32,388.59v57.46h-9V421.78H951.43v24.27h-9V388.59h9v24.24h24.88V388.59Z" transform="translate(-177.45 -212.22)"/><path class="cls-2" d="M1032.55,437.32h-27.2l-3.92,8.73h-9.77l27-58.64h.54l27,58.64h-9.77Zm-3.49-7.73L1019,407.13l-10.12,22.46Z" transform="translate(-177.45 -212.22)"/><path class="cls-2" d="M1081.54,397.54h-15.4v48.51h-9.05V397.54h-15.4v-8.95h39.85Z" transform="translate(-177.45 -212.22)"/><path class="cls-1" d="M181.3,476.19h19.21c11.12,0,20.21,8.52,20.21,19,0,10.23-9.09,18.57-20.21,18.57H190.32v19.93h-9Zm30.4,18.89c0-5.49-5-9.94-11.19-9.94H190.32v19.64l10.19,0C206.68,504.85,211.7,500.47,211.7,495.08Z" transform="translate(-177.45 -212.22)"/><path class="cls-1" d="M236.9,485.07v14.72h21.74v9H236.9v15.9h25.2v9H227.88V476.19H262.1v8.88Z" transform="translate(-177.45 -212.22)"/><path class="cls-1" d="M268.73,505a29.71,29.71,0,1,1,29.66,29.58A29.81,29.81,0,0,1,268.73,505Zm50.29-.07a20.6,20.6,0,1,0-20.64,20.53A20.7,20.7,0,0,0,319,504.92Z" transform="translate(-177.45 -212.22)"/><path class="cls-1" d="M336.42,476.19h19.21c11.12,0,20.21,8.52,20.21,19,0,10.23-9.09,18.57-20.21,18.57H345.44v19.93h-9Zm30.4,18.89c0-5.49-5-9.94-11.19-9.94H345.44v19.64l10.19,0C361.8,504.85,366.83,500.47,366.83,495.08Z" transform="translate(-177.45 -212.22)"/><path class="cls-1" d="M417.66,524.67v9H383V476.19h9v48.48Z" transform="translate(-177.45 -212.22)"/><path class="cls-1" d="M433.87,485.07v14.72h21.74v9H433.87v15.9h25.2v9H424.86V476.19h34.22v8.88Z" transform="translate(-177.45 -212.22)"/><path class="cls-1" d="M524.48,524.67v9H489.84V476.19h9v48.48Z" transform="translate(-177.45 -212.22)"/><path class="cls-1" d="M531.68,476.19h9v57.46h-9Z" transform="translate(-177.45 -212.22)"/><path class="cls-1" d="M587.75,485.14h-15.4v48.51H563.3V485.14H547.9v-8.95h39.85Z" transform="translate(-177.45 -212.22)"/><path class="cls-1" d="M630.92,485.14h-15.4v48.51h-9.05V485.14h-15.4v-8.95h39.85Z" transform="translate(-177.45 -212.22)"/><path class="cls-1" d="M647.1,485.07v14.72h21.74v9H647.1v15.9h25.2v9H638.08V476.19H672.3v8.88Z" transform="translate(-177.45 -212.22)"/><path class="cls-1" d="M713.26,533.65l-15.47-22.24h-7.06v22.24h-9l0-57.46h17.86c10.69,0,19.46,8.23,19.46,18.46a16.82,16.82,0,0,1-11.37,16l16.72,23Zm-13.51-29.73a9.81,9.81,0,0,0,9.94-9.48c0-5.35-4.6-9.3-9.94-9.3h-9.05v18.78Z" transform="translate(-177.45 -212.22)"/></svg>