<svg id="Laag_1" data-name="Laag 1" xmlns="http://www.w3.org/2000/svg" xmlns:xlink="http://www.w3.org/1999/xlink" viewBox="0 0 1365.66 907.54"><defs><style>.cls-1{fill:none;}.cls-2{clip-path:url(#clip-path);}.cls-3{fill:#b8e2fd;}.cls-4{clip-path:url(#clip-path-2);}.cls-5{fill:url(#Naamloos_verloop);}.cls-6{clip-path:url(#clip-path-3);}.cls-7{fill:url(#Naamloos_verloop_2);}.cls-8{opacity:0.06;}.cls-9{clip-path:url(#clip-path-5);}.cls-10{clip-path:url(#clip-path-6);}.cls-11{clip-path:url(#clip-path-7);}.cls-12{clip-path:url(#clip-path-8);}.cls-13{clip-path:url(#clip-path-9);}.cls-14{clip-path:url(#clip-path-10);}.cls-15{clip-path:url(#clip-path-11);}.cls-16{fill:url(#Naamloos_verloop_3);}.cls-17{clip-path:url(#clip-path-12);}.cls-18{fill:url(#Naamloos_verloop_4);}.cls-19{clip-path:url(#clip-path-13);}.cls-20{fill:url(#Naamloos_verloop_5);}.cls-21{clip-path:url(#clip-path-14);}.cls-22{fill:url(#Naamloos_verloop_6);}.cls-23{clip-path:url(#clip-path-15);}.cls-24{fill:url(#Naamloos_verloop_7);}.cls-25{clip-path:url(#clip-path-16);}.cls-26{fill:url(#Naamloos_verloop_8);}.cls-27{clip-path:url(#clip-path-17);}.cls-28{fill:url(#Naamloos_verloop_9);}.cls-29{clip-path:url(#clip-path-18);}.cls-30{fill:url(#Naamloos_verloop_10);}.cls-31{clip-path:url(#clip-path-19);}.cls-32{fill:url(#Naamloos_verloop_11);}.cls-33{clip-path:url(#clip-path-20);}.cls-34{fill:url(#Naamloos_verloop_12);}.cls-35{clip-path:url(#clip-path-21);}.cls-36{fill:url(#Naamloos_verloop_13);}.cls-37{clip-path:url(#clip-path-22);}.cls-38{fill:url(#Naamloos_verloop_14);}.cls-39{clip-path:url(#clip-path-23);}.cls-40{fill:url(#Naamloos_verloop_15);}.cls-41{clip-path:url(#clip-path-24);}.cls-42{fill:url(#Naamloos_verloop_16);}.cls-43{clip-path:url(#clip-path-25);}.cls-44{fill:url(#Naamloos_verloop_17);}.cls-45{clip-path:url(#clip-path-26);}.cls-46{fill:url(#Naamloos_verloop_18);}.cls-47{clip-path:url(#clip-path-27);}.cls-48{fill:url(#Naamloos_verloop_19);}.cls-49{clip-path:url(#clip-path-28);}.cls-50{fill:url(#Naamloos_verloop_20);}.cls-51{clip-path:url(#clip-path-29);}.cls-52{fill:url(#Naamloos_verloop_21);}.cls-53{fill:#5a4190;}.cls-54{clip-path:url(#clip-path-31);}.cls-55{fill:url(#Naamloos_verloop_22);}.cls-56{clip-path:url(#clip-path-32);}.cls-57{fill:url(#Naamloos_verloop_23);}.cls-58{clip-path:url(#clip-path-33);}.cls-59{fill:url(#Naamloos_verloop_24);}.cls-60{clip-path:url(#clip-path-34);}.cls-61{fill:url(#Naamloos_verloop_25);}.cls-62{clip-path:url(#clip-path-35);}.cls-63{fill:url(#Naamloos_verloop_26);}.cls-64{clip-path:url(#clip-path-36);}.cls-65{fill:url(#Naamloos_verloop_27);}.cls-66{clip-path:url(#clip-path-37);}.cls-67{fill:url(#Naamloos_verloop_28);}.cls-68{clip-path:url(#clip-path-39);}.cls-69{fill:url(#Naamloos_verloop_29);}.cls-70{clip-path:url(#clip-path-40);}.cls-71{fill:url(#Naamloos_verloop_30);}.cls-72{fill:#656565;}.cls-73{clip-path:url(#clip-path-42);}.cls-74{fill:url(#Naamloos_verloop_31);}.cls-75{clip-path:url(#clip-path-44);}.cls-76{fill:url(#Naamloos_verloop_32);}.cls-77{clip-path:url(#clip-path-45);}.cls-78{fill:url(#Naamloos_verloop_33);}.cls-79{clip-path:url(#clip-path-46);}.cls-80{fill:url(#Naamloos_verloop_34);}.cls-81{clip-path:url(#clip-path-47);}.cls-82{fill:url(#Naamloos_verloop_35);}.cls-83{clip-path:url(#clip-path-48);}.cls-84{fill:url(#Naamloos_verloop_36);}.cls-85{clip-path:url(#clip-path-49);}.cls-86{fill:url(#Naamloos_verloop_37);}.cls-87{clip-path:url(#clip-path-50);}.cls-88{fill:url(#Naamloos_verloop_38);}.cls-89{clip-path:url(#clip-path-51);}.cls-90{fill:url(#Naamloos_verloop_39);}.cls-91{clip-path:url(#clip-path-52);}.cls-92{fill:url(#Naamloos_verloop_40);}.cls-93{opacity:0.21;}.cls-94{clip-path:url(#clip-path-54);}.cls-95{fill:#fff;}.cls-96{clip-path:url(#clip-path-55);}.cls-97{fill:url(#Naamloos_verloop_41);}.cls-98{clip-path:url(#clip-path-56);}.cls-99{fill:url(#Naamloos_verloop_42);}.cls-100{clip-path:url(#clip-path-57);}.cls-101{fill:url(#Naamloos_verloop_43);}.cls-102{clip-path:url(#clip-path-58);}.cls-103{fill:url(#Naamloos_verloop_44);}.cls-104{clip-path:url(#clip-path-59);}.cls-105{fill:url(#Naamloos_verloop_45);}.cls-106{clip-path:url(#clip-path-60);}.cls-107{fill:url(#Naamloos_verloop_46);}.cls-108{fill:#b4467e;}.cls-109{clip-path:url(#clip-path-62);}.cls-110{fill:url(#Naamloos_verloop_47);}.cls-111{clip-path:url(#clip-path-63);}.cls-112{fill:url(#Naamloos_verloop_48);}.cls-113{clip-path:url(#clip-path-65);}.cls-114{fill:url(#Naamloos_verloop_49);}.cls-115{clip-path:url(#clip-path-66);}.cls-116{fill:url(#Naamloos_verloop_50);}.cls-117{clip-path:url(#clip-path-67);}.cls-118{fill:url(#Naamloos_verloop_51);}.cls-119{clip-path:url(#clip-path-68);}.cls-120{fill:url(#Naamloos_verloop_52);}.cls-121{clip-path:url(#clip-path-70);}.cls-122{fill:url(#Naamloos_verloop_53);}</style><clipPath id="clip-path" transform="translate(3.17 93.34)"><rect class="cls-1" width="1282" height="802.84"/></clipPath><clipPath id="clip-path-2" transform="translate(3.17 93.34)"><path class="cls-1" d="M1253.16,551.41q-19.42,2.69-39,5l-1.9.23q-18.94,2.27-38.15,4.2-15.91,1.6-32,3-7.29.63-14.6,1.19l-2.72.21s0,0,0,0c-23.73,1.81-47.61,3.16-71.48,4-26.5.91-53,1.19-79.27.68-4.68-.08-9.33-.19-14-.33q-23.26-.69-46.53-1.26-16.78-.41-33.57-.75-65.58-1.33-131.24-1.8-9-.09-17.9-.13l-17.9-.13-25.06-.1q-55-.21-109.93,0-9.48,0-19,.06a1.92,1.92,0,0,0-.34,0c-5.59,0-11.2,0-16.8,0h-2.5L397.84,566l-5.15,0-7,0-9.28,0h0l-29.7.12-10.13,0-10.17,0-6.35,0-32.21.12-5.73,0h-3.75l-41.13.15L158,566.9l-121.45.45L0,567.49V801.88H1281.45V547.29q-14.09,2.15-28.29,4.12"/></clipPath><linearGradient id="Naamloos_verloop" y1="802.84" x2="1" y2="802.84" gradientTransform="matrix(1282, 0, 0, -1282, 2.63, 1030010.09)" gradientUnits="userSpaceOnUse"><stop offset="0" stop-color="#098949"/><stop offset="0.49" stop-color="#01693b"/><stop offset="1" stop-color="#01693b"/></linearGradient><clipPath id="clip-path-3" transform="translate(3.17 93.34)"><path class="cls-1" d="M0,801.88H1281.45V637l-51.82-.19-52.94-.19-36.51-.13-32.14-.12-120.49-.45-58.28-.21-14-.05-25.92-.1h0l-11.78,0-4.54,0-5.16,0-141.63-.53h-2.5c-5.6,0-11.22,0-16.82,0a1.93,1.93,0,0,0-.34,0q-9.49,0-19-.06-55-.13-110.05,0l-25.09.11q-9,0-17.92.12t-17.92.13c-70.58.56-141.13,1.71-211.59,3.81q-7,.21-14,.34c-26.31.5-52.84.23-79.36-.69-23.9-.84-47.81-2.19-71.56-4,0,0,0,0,0,0-.91-.06-1.81-.13-2.72-.21-28.57-2.2-56.93-5-84.81-8.35l-1.9-.23q-19.65-2.34-39.08-5Q5.79,620,0,619.19Z"/></clipPath><linearGradient id="Naamloos_verloop_2" y1="802.84" x2="1" y2="802.84" gradientTransform="matrix(0, 91.78, 91.78, 0, -73043.03, 635.87)" gradientUnits="userSpaceOnUse"><stop offset="0" stop-color="#c4d142"/><stop offset="0.06" stop-color="#c4d142"/><stop offset="0.79" stop-color="#8fa82e"/><stop offset="1" stop-color="#8fa82e"/></linearGradient><clipPath id="clip-path-5" transform="translate(3.17 93.34)"><rect class="cls-1" x="774.11" y="680.79" width="264.46" height="36.36"/></clipPath><clipPath id="clip-path-6" transform="translate(3.17 93.34)"><rect class="cls-1" x="972.45" y="710.54" width="309" height="36.36"/></clipPath><clipPath id="clip-path-7" transform="translate(3.17 93.34)"><rect class="cls-1" x="1122.87" y="717.15" width="61.15" height="19.83"/></clipPath><clipPath id="clip-path-8" transform="translate(3.17 93.34)"><rect class="cls-1" x="865.02" y="687.4" width="61.16" height="19.83"/></clipPath><clipPath id="clip-path-9" transform="translate(3.17 93.34)"><rect class="cls-1" x="263.36" y="586.57" width="67.77" height="19.84"/></clipPath><clipPath id="clip-path-10" transform="translate(3.17 93.34)"><rect class="cls-1" x="121.22" y="584.92" width="357.02" height="42.98"/></clipPath><clipPath id="clip-path-11" transform="translate(3.17 93.34)"><path class="cls-1" d="M297.77,132.77,281,595.27a5.11,5.11,0,0,0,5.11,5.3h29.67a5.11,5.11,0,0,0,5.11-5.26L307.73,132.77Z"/></clipPath><linearGradient id="Naamloos_verloop_3" y1="802.81" x2="1" y2="802.81" gradientTransform="matrix(-252.84, 0, 0, 252.84, 245.48, -202616.63)" gradientUnits="userSpaceOnUse"><stop offset="0" stop-color="#daae82"/><stop offset="0.21" stop-color="#daae82"/><stop offset="0.45" stop-color="#ca986c"/><stop offset="1" stop-color="#ca986c"/></linearGradient><clipPath id="clip-path-12" transform="translate(3.17 93.34)"><path class="cls-1" d="M296.48,113.65,232.72,289.24l-66.06,181.9a5.07,5.07,0,0,0,4.76,6.8h255.7a7.83,7.83,0,0,0,7.36-10.5l-64.71-178.2L306,113.65a5.06,5.06,0,0,0-9.52,0"/></clipPath><linearGradient id="Naamloos_verloop_4" y1="803.02" x2="1" y2="803.02" gradientTransform="matrix(0, 296.45, 296.45, 0, -237757.22, 201.16)" gradientUnits="userSpaceOnUse"><stop offset="0" stop-color="#018a3b"/><stop offset="0.11" stop-color="#018a3b"/><stop offset="0.68" stop-color="#01693b"/><stop offset="1" stop-color="#01693b"/></linearGradient><clipPath id="clip-path-13" transform="translate(3.17 93.34)"><path class="cls-1" d="M893,188,875.6,694a5.46,5.46,0,0,0,5.29,5.8h30.71a5.46,5.46,0,0,0,5.29-5.75L903.31,188Z"/></clipPath><linearGradient id="Naamloos_verloop_5" y1="802.84" x2="1" y2="802.84" gradientTransform="matrix(0, 329.4, 329.4, 0, -263560.28, 443.57)" gradientUnits="userSpaceOnUse"><stop offset="0" stop-color="#daae82"/><stop offset="0.47" stop-color="#daae82"/><stop offset="0.76" stop-color="#ca986c"/><stop offset="1" stop-color="#ca986c"/></linearGradient><clipPath id="clip-path-14" transform="translate(3.17 93.34)"><path class="cls-1" d="M875.34,0c-33,47.26-59.26,127.81-59.26,232.7,0,160.19,18.9,266.82,65.69,282.05a38.65,38.65,0,0,0,12.07,1.89A48.51,48.51,0,0,0,912,512.89c34.21-13.79,69.79-65.12,89.65-143.81,9.87-39.12,15.85-85,15.85-136.38q0-10.63-.1-20.94c0-1,0-2,0-3.05q-.18-16.42-.61-31.95C1014.62,99,1007.43,38.47,993,0Z"/></clipPath><linearGradient id="Naamloos_verloop_6" y1="802.88" x2="1" y2="802.88" gradientTransform="matrix(0, -283.19, -283.19, 0, 228285.72, 314.04)" gradientUnits="userSpaceOnUse"><stop offset="0" stop-color="#99b814"/><stop offset="0.24" stop-color="#99b814"/><stop offset="0.37" stop-color="#9ebb12"/><stop offset="0.53" stop-color="#acc30d"/><stop offset="0.7" stop-color="#c3cf04"/><stop offset="0.76" stop-color="#cdd500"/><stop offset="1" stop-color="#cdd500"/></linearGradient><clipPath id="clip-path-15" transform="translate(3.17 93.34)"><path class="cls-1" d="M1080.49,95.07c0,44.81,29.06,81.14,64.91,81.14s64.91-36.33,64.91-81.14-29.06-81.14-64.91-81.14-64.91,36.33-64.91,81.14"/></clipPath><linearGradient id="Naamloos_verloop_7" y1="802.84" x2="1" y2="802.84" gradientTransform="matrix(-160.11, 0, 0, 160.11, 1226.72, -128451.69)" gradientUnits="userSpaceOnUse"><stop offset="0" stop-color="#c4d142"/><stop offset="0.11" stop-color="#c4d142"/><stop offset="0.68" stop-color="#8fa82e"/><stop offset="1" stop-color="#8fa82e"/></linearGradient><clipPath id="clip-path-16" transform="translate(3.17 93.34)"><path class="cls-1" d="M1015.57,192.44c0,44.81,29.06,81.14,64.91,81.14s64.91-36.33,64.91-81.14-29.06-81.14-64.91-81.14-64.91,36.33-64.91,81.14"/></clipPath><linearGradient id="Naamloos_verloop_8" y1="802.84" x2="1" y2="802.84" gradientTransform="matrix(222.88, 0, 0, -222.88, 973.57, 179131.39)" gradientUnits="userSpaceOnUse"><stop offset="0" stop-color="#9b9e24"/><stop offset="0.24" stop-color="#9b9e24"/><stop offset="0.76" stop-color="#baba20"/><stop offset="1" stop-color="#baba20"/></linearGradient><clipPath id="clip-path-17" transform="translate(3.17 93.34)"><path class="cls-1" d="M1209.94,86.2c-10.78,9.49-19.57,23.52-25.2,40.34a136.66,136.66,0,0,0-6.8,38.76c0,1.62-.08,3.26-.08,4.9,0,33.22,11.09,62.55,28,80.12,10.48,10.88,23.2,17.25,36.9,17.25a43.76,43.76,0,0,0,5.85-.39c12.24-1.64,23.5-8.38,32.83-18.78V92c-10.81-12-24.19-19.17-38.68-19.17-12,0-23.21,4.87-32.84,13.37"/></clipPath><linearGradient id="Naamloos_verloop_9" y1="802.78" x2="1" y2="802.78" gradientTransform="matrix(-168.75, 0, 0, 168.75, 1337.88, -135299)" gradientUnits="userSpaceOnUse"><stop offset="0" stop-color="#c5cd03"/><stop offset="0.24" stop-color="#c5cd03"/><stop offset="0.76" stop-color="#a7ad1a"/><stop offset="1" stop-color="#a7ad1a"/></linearGradient><clipPath id="clip-path-18" transform="translate(3.17 93.34)"><path class="cls-1" d="M1151.6,210.33l-5.94,216a5.84,5.84,0,0,1-8.78,4.86c-60.83-35-88.86-92.74-88.86-92.74l-8.94,3.54,10.74,30.73c24.68,50.81,71.57,81.75,88.91,91.89a11.62,11.62,0,0,1,5.76,10.34l-6.62,247.17a5.51,5.51,0,0,0,5.34,5.82h31.06a5.52,5.52,0,0,0,5.36-5.87l-8.52-247.44a10.26,10.26,0,0,1,5.07-9.21c17.38-10.18,41.71-26,42.23-35V415.58s-20.51,19.76-38.23,33a6.34,6.34,0,0,1-10.14-4.85l-8-233.4Z"/></clipPath><linearGradient id="Naamloos_verloop_10" y1="802.84" y2="802.84" gradientTransform="matrix(0, 237.01, 237.01, 0, -189151.35, 419.41)" xlink:href="#Naamloos_verloop_5"/><clipPath id="clip-path-19" transform="translate(3.17 93.34)"><path class="cls-1" d="M950.66,289.81c0,44.81,29.06,81.14,64.91,81.14s64.91-36.33,64.91-81.14-29.06-81.14-64.91-81.14S950.66,245,950.66,289.81"/></clipPath><linearGradient id="Naamloos_verloop_11" y1="802.84" x2="1" y2="802.84" gradientTransform="matrix(-260.46, 0, 0, 260.46, 1167.16, -208814.75)" gradientUnits="userSpaceOnUse"><stop offset="0" stop-color="#c9db46"/><stop offset="0.31" stop-color="#c9db46"/><stop offset="0.44" stop-color="#c4d644"/><stop offset="0.59" stop-color="#b4c93e"/><stop offset="0.76" stop-color="#9bb333"/><stop offset="0.83" stop-color="#8fa82e"/><stop offset="1" stop-color="#8fa82e"/></linearGradient><clipPath id="clip-path-20" transform="translate(3.17 93.34)"><path class="cls-1" d="M1054,259.08c0,77.88,43.59,141,97.37,141s97.37-63.14,97.37-141-43.59-141-97.37-141S1054,181.2,1054,259.08"/></clipPath><linearGradient id="Naamloos_verloop_12" y1="802.84" y2="802.84" gradientTransform="matrix(-221.2, 0, 0, 221.2, 1272.93, -177328.87)" xlink:href="#Naamloos_verloop_7"/><clipPath id="clip-path-21" transform="translate(3.17 93.34)"><path class="cls-1" d="M1242.92,210.81a59.53,59.53,0,0,0-14.48,104.42,59.45,59.45,0,0,0,34.61,11.1,59.22,59.22,0,0,0,18.4-2.91,4.52,4.52,0,0,0,.49-.16l-.49-.38V210.23a59.72,59.72,0,0,0-38.53.58"/></clipPath><linearGradient id="Naamloos_verloop_13" y1="802.78" x2="1" y2="802.78" gradientTransform="matrix(-147.71, 0, 0, 147.71, 1331.81, -118315.43)" gradientUnits="userSpaceOnUse"><stop offset="0" stop-color="#b3c63e"/><stop offset="0.11" stop-color="#b3c63e"/><stop offset="0.3" stop-color="#acc13b"/><stop offset="0.57" stop-color="#9ab133"/><stop offset="0.69" stop-color="#8fa82e"/><stop offset="1" stop-color="#8fa82e"/></linearGradient><clipPath id="clip-path-22" transform="translate(3.17 93.34)"><path class="cls-1" d="M1241.73,311.85a53,53,0,0,0-13.29,3.38c-23.17,9.15-39.77,34-39.77,63.16a74.78,74.78,0,0,0,.74,10.57,69.69,69.69,0,0,0,17.32,37.45,60.31,60.31,0,0,0,9.84,8.69,54,54,0,0,0,64.88-1.2V323.42a4.52,4.52,0,0,0,.49-.16l-.49-.38a54.71,54.71,0,0,0-33.27-11.43,51.21,51.21,0,0,0-6.45.4"/></clipPath><linearGradient id="Naamloos_verloop_14" y1="802.81" x2="1" y2="802.81" gradientTransform="matrix(-180.89, 0, 0, 180.89, 1335.82, -144841.9)" gradientUnits="userSpaceOnUse"><stop offset="0" stop-color="#e2b634"/><stop offset="0.27" stop-color="#c1b032"/><stop offset="0.56" stop-color="#a6ac30"/><stop offset="0.81" stop-color="#95a92e"/><stop offset="1" stop-color="#8fa82e"/></linearGradient><clipPath id="clip-path-23" transform="translate(3.17 93.34)"><path class="cls-1" d="M295.36,525.86a52.08,52.08,0,0,0,11.37,79.54,51.22,51.22,0,0,0,14,6h26.15l.18,0a52.15,52.15,0,0,0,37.82-40.2,52.83,52.83,0,0,0,1-10.17,52.09,52.09,0,0,0-90.56-35.09"/></clipPath><linearGradient id="Naamloos_verloop_15" y1="802.84" x2="1" y2="802.84" gradientTransform="matrix(104.13, 0, 0, -104.13, 284.96, 84254.76)" gradientUnits="userSpaceOnUse"><stop offset="0" stop-color="#c5cd03"/><stop offset="0.26" stop-color="#c5cd03"/><stop offset="0.98" stop-color="#969618"/><stop offset="1" stop-color="#969618"/></linearGradient><clipPath id="clip-path-24" transform="translate(3.17 93.34)"><path class="cls-1" d="M237.16,568.39a44.83,44.83,0,0,0,27.45,41.21,41.71,41.71,0,0,0,5.14,1.77h24s0,0,0,0a.23.23,0,0,0,.1,0,43.8,43.8,0,0,0,12.91-6,44.56,44.56,0,0,0,19.69-37,44,44,0,0,0-3-16,44.63,44.63,0,0,0-86.28,16"/></clipPath><linearGradient id="Naamloos_verloop_16" y1="802.84" x2="1" y2="802.84" gradientTransform="matrix(89.26, 0, 0, -89.26, 240.33, 72319.17)" gradientUnits="userSpaceOnUse"><stop offset="0" stop-color="#8fa82e"/><stop offset="0.16" stop-color="#8fa82e"/><stop offset="1" stop-color="#748727"/><stop offset="1" stop-color="#748727"/></linearGradient><clipPath id="clip-path-25" transform="translate(3.17 93.34)"><path class="cls-1" d="M207.41,598.14a29.54,29.54,0,0,0,3.11,13.22h53.29c.3-.58.56-1.17.81-1.77a29.75,29.75,0,0,0-1.42-25.87,29.76,29.76,0,0,0-55.78,14.41"/></clipPath><linearGradient id="Naamloos_verloop_17" y1="802.84" y2="802.84" gradientTransform="matrix(59.5, 0, 0, -59.5, 210.58, 48455.38)" xlink:href="#Naamloos_verloop_14"/><clipPath id="clip-path-26" transform="translate(3.17 93.34)"><path class="cls-1" d="M263.2,583.73a22.31,22.31,0,0,0-12.51,16.63,21.19,21.19,0,0,0-.3,3.57,22.11,22.11,0,0,0,1.27,7.44h42.08a22.33,22.33,0,0,0-30.55-27.64"/></clipPath><linearGradient id="Naamloos_verloop_18" x1="0" y1="802.84" x2="1" y2="802.84" gradientTransform="matrix(44.63, 0, 0, -44.63, 253.56, 36518.95)" xlink:href="#Naamloos_verloop_15"/><clipPath id="clip-path-27" transform="translate(3.17 93.34)"><path class="cls-1" d="M283.4,573.83a36.91,36.91,0,0,0-2.78,9.24,37.76,37.76,0,0,0-.48,6,37,37,0,0,0,7.44,22.31h6.17s0,0,0,0a.23.23,0,0,0,.1,0h53.26l0,0a37.18,37.18,0,0,0-23.67-58.94,35.53,35.53,0,0,0-6.12-.51,37.14,37.14,0,0,0-33.93,22"/></clipPath><linearGradient id="Naamloos_verloop_19" y1="802.84" y2="802.84" gradientTransform="matrix(74.38, 0, 0, -74.38, 283.31, 60390.18)" xlink:href="#Naamloos_verloop_14"/><clipPath id="clip-path-28" transform="translate(3.17 93.34)"><path class="cls-1" d="M350.95,573.15a29.71,29.71,0,0,0-7.31,38.21h51.5a29.74,29.74,0,0,0-44.2-38.21"/></clipPath><linearGradient id="Naamloos_verloop_20" x1="0" y1="802.84" x2="1" y2="802.84" gradientTransform="matrix(59.5, 0, 0, -59.5, 342.81, 48454.56)" xlink:href="#Naamloos_verloop_16"/><clipPath id="clip-path-29" transform="translate(3.17 93.34)"><path class="cls-1" d="M384.27,611.36H414a14.88,14.88,0,0,0-29.75,0"/></clipPath><linearGradient id="Naamloos_verloop_21" y1="802.84" y2="802.84" gradientTransform="matrix(29.75, 0, 0, -29.75, 387.44, 24583.35)" xlink:href="#Naamloos_verloop_7"/><clipPath id="clip-path-31" transform="translate(3.17 93.34)"><path class="cls-1" d="M926.64,684.41l-.68,2.18a2.83,2.83,0,0,1-2.1,1.78L918,689.81a3.52,3.52,0,0,0-.8.3l-3.6,1.92a3.79,3.79,0,0,1-2.62.31l-1.9-.46a3.38,3.38,0,0,0-3.78,1.45L900.9,702a2,2,0,0,0,.07,2l7.89,13.35a3.43,3.43,0,0,0,3.82,1.3,18.13,18.13,0,0,0,10.85-7.79,3.23,3.23,0,0,1,2.61-1.44c4-.22,13.52-.82,18.25-1.72a2.55,2.55,0,0,0,2.33-2.86l-2.12-9.5a2.07,2.07,0,0,1,.34-1.65l4.23-6.12c1.08-1.57-.18-3.51-2.4-3.69L930,682.53h-.33a3.07,3.07,0,0,0-3,1.89"/></clipPath><linearGradient id="Naamloos_verloop_22" y1="802.84" x2="1" y2="802.84" gradientTransform="matrix(48.89, 0, 0, -48.89, 903.84, 40047.58)" gradientUnits="userSpaceOnUse"><stop offset="0" stop-color="#864490"/><stop offset="1" stop-color="#6c4490"/></linearGradient><clipPath id="clip-path-32" transform="translate(3.17 93.34)"><path class="cls-1" d="M899.59,698.89l-2,1.62c-2,1.62,2,15.63,2,15.63l8.91-4.9c-10.18-5.84-.53-14.77-2.33-15.61a1.36,1.36,0,0,0-.57-.11c-2.08,0-6,3.36-6,3.36"/></clipPath><linearGradient id="Naamloos_verloop_23" y1="802.84" y2="802.84" gradientTransform="matrix(11.49, 0, 0, -11.49, 900.18, 10021.11)" xlink:href="#Naamloos_verloop_22"/><clipPath id="clip-path-33" transform="translate(3.17 93.34)"><path class="cls-1" d="M912.06,698.17c-3,5.26,5.6,18.45,5.6,18.45s5.91-10.76,1.14-15.17-2.2-9.13-2.2-9.13-1.51.6-4.53,5.85"/></clipPath><linearGradient id="Naamloos_verloop_24" y1="802.84" x2="1" y2="802.84" gradientTransform="matrix(9.24, 0, 0, -9.24, 914.59, 8213.18)" gradientUnits="userSpaceOnUse"><stop offset="0" stop-color="#b5477e"/><stop offset="1" stop-color="#b4467e"/></linearGradient><clipPath id="clip-path-34" transform="translate(3.17 93.34)"><path class="cls-1" d="M891,710.21c0,6.45,6.41,11.68,14.32,11.68s14.32-5.23,14.32-11.68-6.41-11.68-14.32-11.68S891,703.76,891,710.21"/></clipPath><linearGradient id="Naamloos_verloop_25" y1="802.84" x2="1" y2="802.84" gradientTransform="matrix(28.63, 0, 0, -28.63, 894.14, 23792.63)" gradientUnits="userSpaceOnUse"><stop offset="0" stop-color="#cad1d6"/><stop offset="1" stop-color="#ebebeb"/></linearGradient><clipPath id="clip-path-35" transform="translate(3.17 93.34)"><path class="cls-1" d="M893.24,710.21c0,5.43,5.39,9.82,12,9.82s12-4.4,12-9.82-5.39-9.83-12-9.83-12,4.4-12,9.83"/></clipPath><linearGradient id="Naamloos_verloop_26" y1="802.84" x2="1" y2="802.84" gradientTransform="matrix(-24.09, 0, 0, 24.09, 920.5, -18537.48)" gradientUnits="userSpaceOnUse"><stop offset="0" stop-color="#d7d7d7"/><stop offset="1" stop-color="#aeb9bf"/></linearGradient><clipPath id="clip-path-36" transform="translate(3.17 93.34)"><path class="cls-1" d="M923.36,699.24c6.34,2.19,4.05,4.61,4.05,4.61,6.41.55,16.21-2.58,21.2-5.15,4.05-2.09,4-3.67,4-3.67s-35.58,2-29.24,4.22"/></clipPath><linearGradient id="Naamloos_verloop_27" y1="802.83" y2="802.83" gradientTransform="matrix(30, 0, 0, -30, 925.77, 24877.03)" xlink:href="#Naamloos_verloop_24"/><clipPath id="clip-path-37" transform="translate(3.17 93.34)"><path class="cls-1" d="M913.89,696.42c-.67.16.17.16,1.85.06a5.1,5.1,0,0,0-1.12-.14,3.11,3.11,0,0,0-.73.08m31-9.53c-8.41,2.95-22.11-3.24-22.11-3.24l-.33,6.74c2.15,2,8.6,3.81,12.67,4,3.18.14-13.38,1.75-19.35,2.11,3,.69,6.68,3.69,6.68,3.69l.94-.93a2.71,2.71,0,0,1,3.18-.2,32.79,32.79,0,0,0,5.49,3.2c2.55,1,14.57-5.15,20.57-5.69s0-14.26,0-14.26.66,1.65-7.75,4.6"/></clipPath><linearGradient id="Naamloos_verloop_28" y1="802.83" x2="1" y2="802.83" gradientTransform="matrix(41.61, 0, 0, -41.61, 916.83, 34192.98)" gradientUnits="userSpaceOnUse"><stop offset="0" stop-color="#de6b80"/><stop offset="1" stop-color="#b4467e"/></linearGradient><clipPath id="clip-path-39" transform="translate(3.17 93.34)"><path class="cls-1" d="M922.41,682.3c0,3.58,6.76,6.48,15.09,6.48s15.09-2.9,15.09-6.48-6.76-6.48-15.09-6.48-15.09,2.9-15.09,6.48"/></clipPath><linearGradient id="Naamloos_verloop_29" x1="0" y1="802.84" x2="1" y2="802.84" gradientTransform="matrix(0, 12.96, 12.96, 0, -9466.68, 769.16)" xlink:href="#Naamloos_verloop_25"/><clipPath id="clip-path-40" transform="translate(3.17 93.34)"><path class="cls-1" d="M924.81,682.3c0,3,5.69,5.45,12.7,5.45s12.7-2.44,12.7-5.45-5.69-5.45-12.7-5.45-12.7,2.44-12.7,5.45"/></clipPath><linearGradient id="Naamloos_verloop_30" x1="0" y1="802.84" x2="1" y2="802.84" gradientTransform="matrix(0, -10.91, -10.91, 0, 9696.53, 781.09)" xlink:href="#Naamloos_verloop_26"/><clipPath id="clip-path-42" transform="translate(3.17 93.34)"><path class="cls-1" d="M933.68,679.85a2.31,2.31,0,0,0,1.65,2.77,2.84,2.84,0,0,0,2,.05c1.87.67,3.56.69,3.82,0s-1-1.79-2.86-2.54a2.85,2.85,0,0,0-1.51-1.27,3.08,3.08,0,0,0-1.09-.2,2,2,0,0,0-2,1.18"/></clipPath><linearGradient id="Naamloos_verloop_31" x1="0" y1="802.83" x2="1" y2="802.83" gradientTransform="matrix(0, 4.52, 4.52, 0, -2684.46, 772.01)" xlink:href="#Naamloos_verloop_25"/><clipPath id="clip-path-44" transform="translate(3.17 93.34)"><polygon class="cls-1" points="1071.56 727.56 1079.12 714.79 1064.73 711.88 1071.56 727.56"/></clipPath><linearGradient id="Naamloos_verloop_32" y1="802.84" x2="1" y2="802.84" gradientTransform="matrix(14.39, 0, 0, -14.39, 1067.9, 12368.64)" gradientUnits="userSpaceOnUse"><stop offset="0" stop-color="#466aab"/><stop offset="1" stop-color="#4997b7"/></linearGradient><clipPath id="clip-path-45" transform="translate(3.17 93.34)"><polygon class="cls-1" points="1069.13 724.96 1075.41 714.48 1065.36 712.83 1069.13 724.96"/></clipPath><linearGradient id="Naamloos_verloop_33" y1="802.84" x2="1" y2="802.84" gradientTransform="matrix(10.05, 0, 0, -10.05, 1068.53, 8881.25)" gradientUnits="userSpaceOnUse"><stop offset="0" stop-color="#5fd1c8"/><stop offset="0" stop-color="#5fd1c8"/><stop offset="1" stop-color="#4997b7"/></linearGradient><clipPath id="clip-path-46" transform="translate(3.17 93.34)"><path class="cls-1" d="M1061.21,709.72l-14.58,6.15,7.55,22.85,12.25,1,.94-23.81-3.54-5.36a2.14,2.14,0,0,0-2.61-.79"/></clipPath><linearGradient id="Naamloos_verloop_34" x1="0" y1="802.85" x2="1" y2="802.85" gradientTransform="matrix(0, -20.73, -20.73, 0, 17703.86, 734.84)" xlink:href="#Naamloos_verloop_32"/><clipPath id="clip-path-47" transform="translate(3.17 93.34)"><polygon class="cls-1" points="1049.29 719.08 1050.2 739.25 1072.86 737.3 1081.42 715.87 1049.29 719.08"/></clipPath><linearGradient id="Naamloos_verloop_35" x1="0" y1="802.83" x2="1" y2="802.83" gradientTransform="matrix(0, 29.77, 29.77, 0, -22838.56, 709.8)" xlink:href="#Naamloos_verloop_32"/><clipPath id="clip-path-48" transform="translate(3.17 93.34)"><path class="cls-1" d="M1060.68,713.93l-16,3.55,2.35,6.83,9.09,8.64,16.69,4.35-.35-11.19-10.05-11.59a1.83,1.83,0,0,0-1.39-.63,1.88,1.88,0,0,0-.4,0"/></clipPath><linearGradient id="Naamloos_verloop_36" y1="802.84" x2="1" y2="802.84" gradientTransform="matrix(-28.14, 0, 0, 28.14, 1076.03, -21770.62)" xlink:href="#Naamloos_verloop_33"/><clipPath id="clip-path-49" transform="translate(3.17 93.34)"><path class="cls-1" d="M1042.43,713.43l2.89,25.82h12.29c2.7-9.1-10.91-22.93-11.92-24.55a3.14,3.14,0,0,0-2.74-1.3,3.65,3.65,0,0,0-.52,0"/></clipPath><linearGradient id="Naamloos_verloop_37" x1="0" y1="802.79" x2="1" y2="802.79" gradientTransform="matrix(15.77, 0, 0, -15.77, 1038.53, 13386.53)" xlink:href="#Naamloos_verloop_32"/><clipPath id="clip-path-50" transform="translate(3.17 93.34)"><path class="cls-1" d="M1079.85,713.81,1064,716.19l2,7.36-5.68.41-6.94-4.71-.49,2.56,5.9,10.58,4.14,4.1,4.82,4.94,11.47,5.33c1.83.85,6.21-4.67,9.77-12.33s5-14.57,3.12-15.42l-10.73-5a2.69,2.69,0,0,0-1.53-.22"/></clipPath><linearGradient id="Naamloos_verloop_38" y1="802.72" x2="1" y2="802.72" gradientTransform="matrix(30.6, 0, 0, -30.6, 1061.31, 25293.38)" xlink:href="#Naamloos_verloop_33"/><clipPath id="clip-path-51" transform="translate(3.17 93.34)"><path class="cls-1" d="M1028.94,715.87l-12.09,15.3,12.09,15.3h20.64c6.8-3.14,8.07-5.59,8-7.22,0-2.25-2.6-2.68-5.11-6.74-2.4-3.88-1.53-5.85-3.41-10.24a24.25,24.25,0,0,0-6.67-8.84Z"/></clipPath><linearGradient id="Naamloos_verloop_39" y1="802.84" x2="1" y2="802.84" gradientTransform="matrix(0, -33.04, -33.04, 0, 27564.33, 839.8)" xlink:href="#Naamloos_verloop_33"/><clipPath id="clip-path-52" transform="translate(3.17 93.34)"><path class="cls-1" d="M1016.85,731.17l12.09,15.3s4.1-4,4.1-15.3-4.1-15.3-4.1-15.3Z"/></clipPath><linearGradient id="Naamloos_verloop_40" y1="802.84" x2="1" y2="802.84" gradientTransform="matrix(0, -30.6, -30.6, 0, 25594.44, 839.8)" xlink:href="#Naamloos_verloop_33"/><clipPath id="clip-path-54" transform="translate(3.17 93.34)"><rect class="cls-1" x="1016.85" y="715.87" width="16.19" height="30.6"/></clipPath><clipPath id="clip-path-55" transform="translate(3.17 93.34)"><path class="cls-1" d="M1013.13,724.1v14.13h7.07c.92,0,1.66-3.16,1.66-7.07s-.74-7.07-1.66-7.07Z"/></clipPath><linearGradient id="Naamloos_verloop_41" x1="0" y1="802.84" x2="1" y2="802.84" gradientTransform="matrix(0, -14.13, -14.13, 0, 12366.46, 831.57)" xlink:href="#Naamloos_verloop_26"/><clipPath id="clip-path-56" transform="translate(3.17 93.34)"><path class="cls-1" d="M1011.47,731.17c0,3.9.74,7.07,1.66,7.07s1.66-3.16,1.66-7.07-.74-7.07-1.66-7.07-1.66,3.16-1.66,7.07"/></clipPath><linearGradient id="Naamloos_verloop_42" x1="0" y1="802.84" x2="1" y2="802.84" gradientTransform="matrix(0, 14.13, 14.13, 0, -10329.5, 817.44)" xlink:href="#Naamloos_verloop_26"/><clipPath id="clip-path-57" transform="translate(3.17 93.34)"><path class="cls-1" d="M1078.38,729.12c-4,7.45-4,15.2,0,17.31s10.41-2.21,14.37-9.66,4-15.2,0-17.31a4.71,4.71,0,0,0-2.24-.54c-3.87,0-8.85,4-12.13,10.19"/></clipPath><linearGradient id="Naamloos_verloop_43" x1="0" y1="802.85" x2="1" y2="802.85" gradientTransform="matrix(-30.55, 0, 0, 69.26, 1101.49, -54871.53)" xlink:href="#Naamloos_verloop_32"/><clipPath id="clip-path-58" transform="translate(3.17 93.34)"><path class="cls-1" d="M1079.08,729.5c-3.58,6.72-3.57,13.72,0,15.63s9.39-2,13-8.72,3.57-13.72,0-15.63a4.25,4.25,0,0,0-2-.48c-3.49,0-8,3.63-11,9.2"/></clipPath><linearGradient id="Naamloos_verloop_44" x1="0" y1="802.82" x2="1" y2="802.82" gradientTransform="matrix(35.46, 0, -26.85, -29.94, 22630.12, 24862.64)" xlink:href="#Naamloos_verloop_32"/><clipPath id="clip-path-59" transform="translate(3.17 93.34)"><path class="cls-1" d="M1174.41,698.63c-2.62,1.71-.15,10.7,3.37,16.77s10.07,12.72,12.84,11.31,1.76-11.36-2.73-18.45c-3.36-5.31-9.2-9.94-12.31-9.94a2.11,2.11,0,0,0-1.17.31"/></clipPath><linearGradient id="Naamloos_verloop_45" x1="0" y1="802.81" x2="1" y2="802.81" gradientTransform="matrix(18.87, 0, 0, -18.87, 1176.49, 15953.81)" xlink:href="#Naamloos_verloop_25"/><clipPath id="clip-path-60" transform="translate(3.17 93.34)"><path class="cls-1" d="M1168.25,711.31l-7.38-1.94-14.52,4.94v25.46a10,10,0,0,0,6.77,0l5.3-3,6,3.58,7.38-3.15,8.34.54L1190,727l-15.87-28.48Z"/></clipPath><linearGradient id="Naamloos_verloop_46" y1="802.83" y2="802.83" gradientTransform="matrix(43.69, 0, 0, -43.69, 1149.53, 35887.6)" xlink:href="#Naamloos_verloop_22"/><clipPath id="clip-path-62" transform="translate(3.17 93.34)"><path class="cls-1" d="M1146.35,714.32l2.6,26c11.66-13.07,0-28.3,0-28.3Z"/></clipPath><linearGradient id="Naamloos_verloop_47" y1="802.84" y2="802.84" gradientTransform="matrix(7.78, 0, 0, -7.78, 1149.53, 7069.47)" xlink:href="#Naamloos_verloop_22"/><clipPath id="clip-path-63" transform="translate(3.17 93.34)"><path class="cls-1" d="M1140.89,727c0,7,2.45,12.73,5.46,12.73s5.47-5.7,5.47-12.73-2.45-12.73-5.47-12.73-5.46,5.7-5.46,12.73"/></clipPath><linearGradient id="Naamloos_verloop_48" x1="0" y1="802.84" x2="1" y2="802.84" gradientTransform="matrix(10.93, 0, 0, -10.93, 1144.06, 9597.45)" xlink:href="#Naamloos_verloop_25"/><clipPath id="clip-path-65" transform="translate(3.17 93.34)"><path class="cls-1" d="M1177.39,707.58h-10.08l-1.44,10.62s-7.2-9-9-10.44-10.51,6.56-10.51,6.56a8.28,8.28,0,0,1,5,1.72c3,2.45,2.89,6.68,2.83,10a24.93,24.93,0,0,1-3,11.19l6.79-6.91,4.32,10.06,10-6.77,5.1,1.3L1190,727c1.62-25.61-15.87-28.48-15.87-28.48Z"/></clipPath><linearGradient id="Naamloos_verloop_49" y1="802.84" y2="802.84" gradientTransform="matrix(43.79, 0, 0, -43.79, 1149.53, 35972.61)" xlink:href="#Naamloos_verloop_28"/><clipPath id="clip-path-66" transform="translate(3.17 93.34)"><path class="cls-1" d="M1183.94,709.2a22.31,22.31,0,0,1,1.23,13.9c.41-.62,4.53-7.11,1.62-14.57a16,16,0,0,0-12.61-10,22.35,22.35,0,0,1,9.76,10.63"/></clipPath><linearGradient id="Naamloos_verloop_50" x1="0" y1="802.84" x2="1" y2="802.84" gradientTransform="matrix(13.64, 0, 0, -13.64, 1177.35, 11753.14)" xlink:href="#Naamloos_verloop_25"/><clipPath id="clip-path-67" transform="translate(3.17 93.34)"><path class="cls-1" d="M1175.28,723.1a94.87,94.87,0,0,1-10.89,0s8.71,5.28,11.85,3.8a5.18,5.18,0,0,0,2.9-4.86s-.48.66-3.87,1.06"/></clipPath><linearGradient id="Naamloos_verloop_51" y1="802.8" y2="802.8" gradientTransform="matrix(14.76, 0, 0, -14.76, 1167.57, 12668.19)" xlink:href="#Naamloos_verloop_22"/><clipPath id="clip-path-68" transform="translate(3.17 93.34)"><path class="cls-1" d="M1141.76,727c0,5.92,2.06,10.71,4.6,10.71S1151,733,1151,727s-2.06-10.71-4.6-10.71-4.6,4.79-4.6,10.71"/></clipPath><linearGradient id="Naamloos_verloop_52" x1="0" y1="802.84" x2="1" y2="802.84" gradientTransform="matrix(-9.2, 0, 0, 9.2, 1154.13, -6563.89)" xlink:href="#Naamloos_verloop_26"/><clipPath id="clip-path-70" transform="translate(3.17 93.34)"><path class="cls-1" d="M1144.54,726.41a2.4,2.4,0,0,0-1.07,1.27,1.74,1.74,0,1,0,3.16,1.2,2.39,2.39,0,0,0,0-1.66c.57-1.58.58-3,0-3.22a.43.43,0,0,0-.16,0c-.57,0-1.41,1-2,2.44"/></clipPath><linearGradient id="Naamloos_verloop_53" x1="0" y1="802.81" x2="1" y2="802.81" gradientTransform="matrix(3.81, 0, 0, -3.81, 1146.46, 3877.65)" xlink:href="#Naamloos_verloop_25"/></defs><title>background_image_scene9</title><g class="cls-2"><rect class="cls-3" x="3.17" y="93.34" width="1281.45" height="801.88"/><g class="cls-4"><rect class="cls-5" x="3.17" y="640.63" width="1281.45" height="254.59"/></g><g class="cls-6"><rect class="cls-7" x="-0.85" y="613.03" width="1283.15" height="195" transform="translate(-3.63 99.53) rotate(-0.55)"/></g><g class="cls-2"><g class="cls-8"><g class="cls-9"><path d="M1038.57,699c0,10-59.2,18.18-132.23,18.18S774.11,709,774.11,699s59.2-18.18,132.23-18.18,132.23,8.14,132.23,18.18" transform="translate(3.17 93.34)"/></g></g><g class="cls-8"><g class="cls-10"><path d="M1281.45,716.31v24.82c-32.58,3.55-79,5.77-130.49,5.77-23.34,0-45.62-.46-66-1.29h0l-2.71-.11H1082l-2.22-.1h0l-2.74-.12-1.09,0h0q-11.35-.54-21.79-1.22c-8.06-.54-15.68-1.13-22.77-1.79q-3.18-.29-6.21-.59h0c-32.51-3.3-52.64-7.86-52.64-12.9,0-5.47,23.71-10.37,61.23-13.71h0c2.86-.25,5.81-.5,8.83-.73l.78-.06,1.82-.14h0q3.39-.25,6.91-.5,6.34-.42,13.06-.8h.2l3-.16h0c21.14-1.13,44.79-1.84,69.86-2q6.28,0,12.68,0h8.66l6,0h3l6.94.09,3.73.06h.78l1,0h0l3.58.06,2.92.06h.43l1.45,0h0c35.95.79,67.83,2.7,92.07,5.34" transform="translate(3.17 93.34)"/></g></g><g class="cls-8"><g class="cls-11"><path d="M1184,727.07c0,5.48-13.69,9.92-30.58,9.92s-30.58-4.44-30.58-9.92,13.69-9.92,30.58-9.92,30.58,4.44,30.58,9.92" transform="translate(3.17 93.34)"/></g></g><g class="cls-8"><g class="cls-12"><path d="M926.17,697.31c0,5.48-13.69,9.92-30.58,9.92S865,702.79,865,697.31s13.69-9.92,30.58-9.92,30.58,4.44,30.58,9.92" transform="translate(3.17 93.34)"/></g></g><g class="cls-8"><g class="cls-13"><path d="M331.13,596.49c0,5.48-15.17,9.92-33.88,9.92s-33.88-4.44-33.88-9.92,15.17-9.92,33.88-9.92,33.88,4.44,33.88,9.92" transform="translate(3.17 93.34)"/></g></g><g class="cls-8"><g class="cls-14"><path d="M478.24,606.41c0,11.87-79.92,21.49-178.51,21.49s-178.51-9.62-178.51-21.49,79.92-21.49,178.51-21.49,178.51,9.62,178.51,21.49" transform="translate(3.17 93.34)"/></g></g></g><g class="cls-15"><rect class="cls-16" x="66.45" y="338.92" width="468.86" height="55.49" transform="translate(-72.34 748.62) rotate(-88.11)"/></g><g class="cls-17"><rect class="cls-18" x="86.82" y="66.14" width="428.16" height="455.97" transform="matrix(0.84, -0.55, 0.55, 0.84, -108.87, 306.65)"/></g><g class="cls-19"><rect class="cls-20" x="878.66" y="281.3" width="41.48" height="511.82"/></g><g class="cls-21"><rect class="cls-22" x="646.27" y="30.48" width="541.05" height="455.69" transform="translate(193.59 967.79) rotate(-56.04)"/></g><g class="cls-23"><rect class="cls-24" x="1041.61" y="-7.29" width="207.58" height="204.72" transform="translate(319.46 984.37) rotate(-48.58)"/></g><g class="cls-25"><rect class="cls-26" x="977.13" y="93.96" width="206.71" height="196.96" transform="translate(337.5 1090.6) rotate(-57.26)"/></g><g class="cls-27"><rect class="cls-28" x="1119.36" y="78.57" width="220.58" height="183.26" transform="translate(502.35 1267.24) rotate(-61.83)"/></g><g class="cls-29"><rect class="cls-30" x="1042.26" y="303.66" width="179.34" height="517.65"/></g><g class="cls-31"><rect class="cls-32" x="911.81" y="189.81" width="207.52" height="200" transform="translate(192.26 1040.65) rotate(-54.43)"/></g><g class="cls-33"><rect class="cls-34" x="986" y="120.27" width="330.83" height="277.62" transform="translate(526.48 1351.6) rotate(-70.53)"/></g><g class="cls-35"><rect class="cls-36" x="1172.84" y="208.04" width="139.81" height="117.56" transform="translate(529.12 1409.84) rotate(-67.79)"/></g><g class="cls-37"><rect class="cls-38" x="1158.25" y="315.39" width="154.12" height="126" transform="translate(540.12 1558.68) rotate(-74.31)"/></g><g class="cls-39"><rect class="cls-40" x="284.96" y="602.22" width="104.13" height="102.48"/></g><g class="cls-41"><rect class="cls-42" x="240.33" y="617.1" width="89.26" height="87.64"/></g><g class="cls-43"><rect class="cls-44" x="210.58" y="661.73" width="59.5" height="42.97"/></g><g class="cls-45"><rect class="cls-46" x="253.56" y="674.95" width="44.63" height="29.75"/></g><g class="cls-47"><rect class="cls-48" x="283.31" y="645.2" width="74.38" height="59.54"/></g><g class="cls-49"><rect class="cls-50" x="342.81" y="660.07" width="59.5" height="44.63"/></g><g class="cls-51"><rect class="cls-52" x="387.44" y="689.83" width="29.75" height="14.88"/></g><g class="cls-2"><path class="cls-53" d="M937.26,708.26s-8.39,1.34-11,3.11a10.6,10.6,0,0,1-5.76,1.64l4.13-4.8Z" transform="translate(3.17 93.34)"/></g><g class="cls-54"><rect class="cls-55" x="903.74" y="775.85" width="49.68" height="36.6"/></g><g class="cls-56"><rect class="cls-57" x="898.73" y="788.87" width="12.94" height="20.61"/></g><g class="cls-58"><rect class="cls-59" x="912.21" y="785.65" width="14.53" height="24.3"/></g><g class="cls-60"><rect class="cls-61" x="894.14" y="791.87" width="28.63" height="23.36"/></g><g class="cls-62"><rect class="cls-63" x="896.41" y="793.73" width="24.09" height="19.65"/></g><g class="cls-64"><rect class="cls-65" x="920.19" y="788.36" width="35.65" height="9.38"/></g><g class="cls-66"><rect class="cls-67" x="916.39" y="775.63" width="45.39" height="20.92"/></g><g class="cls-2"><path class="cls-53" d="M918.69,689.92s1-1.87,2.11-3.77,1-4.18,1.61-3.87c2.1,1.15,4.4,11.58,12.67,12.08,0,0-8.79,3.11-16.39,1.67.26,0,3.38.1,4.31-1.08s-.41-3.62-4.31-5" transform="translate(3.17 93.34)"/><path class="cls-53" d="M918.89,713.73s3.07-9.9-3.91-14.25,3.91-3.43,3.91-3.43-1.39.29-1.73,1.14.42,1.55.66,1.82c2.14,2.44,4.89,8.91,2.79,12.26l-1.72,2.46" transform="translate(3.17 93.34)"/></g><g class="cls-68"><rect class="cls-69" x="925.58" y="769.16" width="30.19" height="12.96"/></g><g class="cls-70"><rect class="cls-71" x="927.98" y="770.18" width="25.4" height="10.91"/></g><g class="cls-2"><path class="cls-72" d="M944.85,684.16a6.19,6.19,0,0,1-3.77-1.62,6.19,6.19,0,0,1,3.77-1.62c2.08,0,3.77.73,3.77,1.62s-1.69,1.62-3.77,1.62" transform="translate(3.17 93.34)"/></g><g class="cls-73"><rect class="cls-74" x="936.46" y="772.01" width="8.09" height="4.69"/></g><g class="cls-2"><path class="cls-72" d="M935.64,681.81a1,1,0,0,1-.38-1.37c.22-.59.76-.93,1.2-.76a1.19,1.19,0,0,1-.81,2.13" transform="translate(3.17 93.34)"/></g><g class="cls-75"><rect class="cls-76" x="1067.9" y="805.22" width="14.39" height="15.68"/></g><g class="cls-77"><rect class="cls-78" x="1068.53" y="806.17" width="10.05" height="12.13"/></g><g class="cls-79"><rect class="cls-80" x="1041.76" y="714" width="30.46" height="21.23" transform="translate(318.18 1862.83) rotate(-89.05)"/></g><g class="cls-81"><rect class="cls-82" x="1046.1" y="707.73" width="38.5" height="39.66" transform="translate(-171.45 1176.97) rotate(-50.35)"/></g><g class="cls-83"><rect class="cls-84" x="1047.9" y="807.22" width="28.14" height="23.41"/></g><g class="cls-85"><rect class="cls-86" x="1036.29" y="710.65" width="30.15" height="31.34" transform="matrix(0.78, -0.63, 0.63, 0.78, -219.69, 915.81)"/></g><g class="cls-87"><rect class="cls-88" x="1049.43" y="704.95" width="47.99" height="51.49" transform="translate(-38.36 1489.66) rotate(-65.08)"/></g><g class="cls-89"><rect class="cls-90" x="1020.02" y="806.77" width="40.8" height="33.04"/></g><g class="cls-91"><rect class="cls-92" x="1020.02" y="809.2" width="16.19" height="30.6"/></g><g class="cls-2"><g class="cls-93"><g class="cls-94"><path class="cls-95" d="M1016.85,731.17l12.09-15.3s4.1,4,4.1,15.3-4.1,15.3-4.1,15.3Z" transform="translate(3.17 93.34)"/></g></g></g><g class="cls-96"><rect class="cls-97" x="1016.3" y="817.44" width="8.73" height="14.13"/></g><g class="cls-98"><rect class="cls-99" x="1014.64" y="817.44" width="3.32" height="14.13"/></g><g class="cls-100"><rect class="cls-101" x="1067.25" y="716.93" width="36.63" height="33.62" transform="translate(-69.07 1440.52) rotate(-61.97)"/></g><g class="cls-102"><polygon class="cls-103" points="1054.68 813.63 1098.81 813.63 1122.8 840.37 1078.67 840.37 1054.68 813.63"/></g><g class="cls-104"><rect class="cls-105" x="1174.96" y="791.66" width="21.66" height="29.8"/></g><g class="cls-106"><rect class="cls-107" x="1149.53" y="791.91" width="43.69" height="42.53"/></g><g class="cls-2"><polygon class="cls-108" points="1154.37 830.55 1162.89 824.06 1164.55 834.95 1177.35 826.57 1159.3 821.62 1154.37 830.55"/></g><g class="cls-109"><rect class="cls-110" x="1149.53" y="805.4" width="14.27" height="28.3"/></g><g class="cls-111"><rect class="cls-112" x="1144.06" y="807.65" width="10.93" height="25.46"/></g><g class="cls-2"><polygon class="cls-108" points="1169.69 800.4 1167.57 812.49 1184.72 810.01 1181.64 798.14 1169.69 800.4"/></g><g class="cls-113"><rect class="cls-114" x="1149.53" y="791.91" width="45.31" height="41.79"/></g><g class="cls-115"><rect class="cls-116" x="1177.35" y="791.91" width="15.51" height="24.53"/></g><g class="cls-117"><rect class="cls-118" x="1167.57" y="815.38" width="15" height="6.34"/></g><g class="cls-119"><rect class="cls-120" x="1144.93" y="809.67" width="9.2" height="21.42"/></g><g class="cls-2"><path class="cls-72" d="M1147.93,720.85a1.88,1.88,0,1,1-2.73,0c0-1.75.61-3.18,1.36-3.18s1.37,1.42,1.37,3.18" transform="translate(3.17 93.34)"/></g><g class="cls-121"><rect class="cls-122" x="1146.22" y="817.3" width="4.2" height="6.64"/></g><g class="cls-2"><path class="cls-72" d="M1145.94,728.62a1,1,0,1,1-.64-1,.87.87,0,0,1,.64,1" transform="translate(3.17 93.34)"/></g></g></svg>