<svg id="Laag_1" data-name="Laag 1" xmlns="http://www.w3.org/2000/svg" xmlns:xlink="http://www.w3.org/1999/xlink" viewBox="0 0 1307.76 821.73"><defs><style>.cls-1{fill:none;}.cls-2{clip-path:url(#clip-path);}.cls-3{fill:#bae1f7;}.cls-4{fill:#c5ce2e;}.cls-5{clip-path:url(#clip-path-3);}.cls-6{fill:url(#Naamloos_verloop);}.cls-7{fill:#687a86;}.cls-8{fill:#b7b6b7;}.cls-9{opacity:0.06;}.cls-10{clip-path:url(#clip-path-5);}.cls-11{fill:#010101;}.cls-12{clip-path:url(#clip-path-6);}.cls-13{clip-path:url(#clip-path-7);}.cls-14{fill:url(#Naamloos_verloop_2);}.cls-15{clip-path:url(#clip-path-8);}.cls-16{fill:url(#Naamloos_verloop_3);}.cls-17{clip-path:url(#clip-path-9);}.cls-18{fill:url(#Naamloos_verloop_4);}.cls-19{clip-path:url(#clip-path-10);}.cls-20{fill:url(#Naamloos_verloop_5);}.cls-21{clip-path:url(#clip-path-11);}.cls-22{fill:url(#Naamloos_verloop_6);}.cls-23{clip-path:url(#clip-path-12);}.cls-24{fill:url(#Naamloos_verloop_7);}.cls-25{fill:#f08821;}.cls-26{clip-path:url(#clip-path-14);}.cls-27{fill:url(#Naamloos_verloop_8);}.cls-28{clip-path:url(#clip-path-15);}.cls-29{fill:url(#Naamloos_verloop_9);}.cls-30{clip-path:url(#clip-path-16);}.cls-31{fill:url(#Naamloos_verloop_10);}.cls-32{clip-path:url(#clip-path-17);}.cls-33{fill:url(#Naamloos_verloop_11);}.cls-34{clip-path:url(#clip-path-18);}.cls-35{fill:url(#Naamloos_verloop_12);}.cls-36{clip-path:url(#clip-path-19);}.cls-37{fill:url(#Naamloos_verloop_13);}.cls-38{clip-path:url(#clip-path-21);}.cls-39{fill:url(#Naamloos_verloop_14);}.cls-40{clip-path:url(#clip-path-22);}.cls-41{fill:url(#Naamloos_verloop_15);}.cls-42{clip-path:url(#clip-path-23);}.cls-43{fill:url(#Naamloos_verloop_16);}.cls-44{clip-path:url(#clip-path-24);}.cls-45{fill:url(#Naamloos_verloop_17);}.cls-46{clip-path:url(#clip-path-25);}.cls-47{fill:url(#Naamloos_verloop_18);}.cls-48{clip-path:url(#clip-path-26);}.cls-49{fill:url(#Naamloos_verloop_19);}.cls-50{clip-path:url(#clip-path-27);}.cls-51{fill:url(#Naamloos_verloop_20);}.cls-52{clip-path:url(#clip-path-28);}.cls-53{fill:url(#Naamloos_verloop_21);}.cls-54{clip-path:url(#clip-path-29);}.cls-55{fill:url(#Naamloos_verloop_22);}.cls-56{clip-path:url(#clip-path-30);}.cls-57{fill:url(#Naamloos_verloop_23);}.cls-58{clip-path:url(#clip-path-31);}.cls-59{fill:url(#Naamloos_verloop_24);}.cls-60{clip-path:url(#clip-path-32);}.cls-61{fill:url(#Naamloos_verloop_25);}.cls-62{fill:#613f97;}.cls-63{clip-path:url(#clip-path-34);}.cls-64{fill:url(#Naamloos_verloop_26);}.cls-65{clip-path:url(#clip-path-35);}.cls-66{fill:url(#Naamloos_verloop_27);}.cls-67{clip-path:url(#clip-path-36);}.cls-68{fill:url(#Naamloos_verloop_28);}.cls-69{clip-path:url(#clip-path-37);}.cls-70{fill:url(#Naamloos_verloop_29);}.cls-71{clip-path:url(#clip-path-38);}.cls-72{fill:url(#Naamloos_verloop_30);}.cls-73{clip-path:url(#clip-path-39);}.cls-74{fill:url(#Naamloos_verloop_31);}.cls-75{clip-path:url(#clip-path-40);}.cls-76{fill:url(#Naamloos_verloop_32);}.cls-77{clip-path:url(#clip-path-42);}.cls-78{fill:url(#Naamloos_verloop_33);}.cls-79{clip-path:url(#clip-path-43);}.cls-80{fill:url(#Naamloos_verloop_34);}.cls-81{fill:#808184;}.cls-82{clip-path:url(#clip-path-45);}.cls-83{fill:url(#Naamloos_verloop_35);}.cls-84{clip-path:url(#clip-path-47);}.cls-85{fill:url(#Naamloos_verloop_36);}.cls-86{clip-path:url(#clip-path-48);}.cls-87{fill:url(#Naamloos_verloop_37);}.cls-88{clip-path:url(#clip-path-49);}.cls-89{fill:url(#Naamloos_verloop_38);}.cls-90{clip-path:url(#clip-path-50);}.cls-91{fill:url(#Naamloos_verloop_39);}.cls-92{clip-path:url(#clip-path-51);}.cls-93{fill:url(#Naamloos_verloop_40);}.cls-94{clip-path:url(#clip-path-52);}.cls-95{fill:url(#Naamloos_verloop_41);}.cls-96{clip-path:url(#clip-path-53);}.cls-97{fill:url(#Naamloos_verloop_42);}.cls-98{clip-path:url(#clip-path-55);}.cls-99{fill:url(#Naamloos_verloop_43);}.cls-100{clip-path:url(#clip-path-56);}.cls-101{fill:url(#Naamloos_verloop_44);}.cls-102{clip-path:url(#clip-path-58);}.cls-103{fill:url(#Naamloos_verloop_45);}.cls-104{clip-path:url(#clip-path-60);}.cls-105{fill:url(#Naamloos_verloop_46);}.cls-106{clip-path:url(#clip-path-61);}.cls-107{fill:url(#Naamloos_verloop_47);}.cls-108{clip-path:url(#clip-path-62);}.cls-109{fill:url(#Naamloos_verloop_48);}.cls-110{clip-path:url(#clip-path-63);}.cls-111{fill:url(#Naamloos_verloop_49);}.cls-112{clip-path:url(#clip-path-64);}.cls-113{fill:url(#Naamloos_verloop_50);}.cls-114{clip-path:url(#clip-path-65);}.cls-115{fill:url(#Naamloos_verloop_51);}.cls-116{clip-path:url(#clip-path-66);}.cls-117{fill:url(#Naamloos_verloop_52);}.cls-118{clip-path:url(#clip-path-67);}.cls-119{fill:url(#Naamloos_verloop_53);}.cls-120{clip-path:url(#clip-path-68);}.cls-121{fill:url(#Naamloos_verloop_54);}.cls-122{opacity:0.21;}.cls-123{clip-path:url(#clip-path-70);}.cls-124{fill:#fff;}.cls-125{clip-path:url(#clip-path-71);}.cls-126{fill:url(#Naamloos_verloop_55);}.cls-127{clip-path:url(#clip-path-72);}.cls-128{fill:url(#Naamloos_verloop_56);}.cls-129{clip-path:url(#clip-path-73);}.cls-130{fill:url(#Naamloos_verloop_57);}.cls-131{clip-path:url(#clip-path-74);}.cls-132{fill:url(#Naamloos_verloop_58);}.cls-133{clip-path:url(#clip-path-75);}.cls-134{fill:url(#Naamloos_verloop_59);}.cls-135{clip-path:url(#clip-path-76);}.cls-136{fill:url(#Naamloos_verloop_60);}.cls-137{fill:#c53c81;}.cls-138{clip-path:url(#clip-path-78);}.cls-139{fill:url(#Naamloos_verloop_61);}.cls-140{clip-path:url(#clip-path-79);}.cls-141{fill:url(#Naamloos_verloop_62);}.cls-142{clip-path:url(#clip-path-81);}.cls-143{fill:url(#Naamloos_verloop_63);}.cls-144{clip-path:url(#clip-path-82);}.cls-145{fill:url(#Naamloos_verloop_64);}.cls-146{clip-path:url(#clip-path-83);}.cls-147{fill:url(#Naamloos_verloop_65);}.cls-148{clip-path:url(#clip-path-84);}.cls-149{fill:url(#Naamloos_verloop_66);}.cls-150{clip-path:url(#clip-path-86);}.cls-151{fill:url(#Naamloos_verloop_67);}.cls-152{clip-path:url(#clip-path-88);}.cls-153{fill:url(#Naamloos_verloop_68);}</style><clipPath id="clip-path" transform="translate(26.76 22.73)"><rect class="cls-1" width="1280" height="799"/></clipPath><clipPath id="clip-path-3" transform="translate(26.76 22.73)"><path class="cls-1" d="M115.48,428.92,0,443.36v347.2A100.54,100.54,0,0,0,9.79,797H1280V506.64A103.64,103.64,0,0,0,1259.19,493c-69-35.08-154.14-12.91-232.67-4.18a642.89,642.89,0,0,1-128.35,1.31,635.58,635.58,0,0,1-81.48-12.67c-18.4-4.1-36.65-9-55.44-11.22-82-9.56-158.71,33.15-237.09,56.94-28.22,8.56-61.08,14.29-86.32,0-10.53-6-18.59-14.85-28.45-21.68-25.6-17.68-60-19.54-90.58-28.76-40.71-12.28-75.87-38.25-118-45.84a171.35,171.35,0,0,0-30.5-2.53c-18.28,0-36.71,2.26-54.87,4.53"/></clipPath><linearGradient id="Naamloos_verloop" y1="799" x2="1" y2="799" gradientTransform="matrix(0, 420.24, 420.24, 0, -335103.29, 365.51)" gradientUnits="userSpaceOnUse"><stop offset="0" stop-color="#0a8949"/><stop offset="0.49" stop-color="#036a3b"/><stop offset="1" stop-color="#036a3b"/></linearGradient><clipPath id="clip-path-5" transform="translate(26.76 22.73)"><rect class="cls-1" x="172" y="652" width="348" height="32"/></clipPath><clipPath id="clip-path-6" transform="translate(26.76 22.73)"><rect class="cls-1" x="761" y="652" width="348" height="32"/></clipPath><clipPath id="clip-path-7" transform="translate(26.76 22.73)"><rect class="cls-1" x="171.36" y="530.84" width="302.4" height="16.13" rx="1.5" ry="1.5"/></clipPath><linearGradient id="Naamloos_verloop_2" y1="799" x2="1" y2="799" gradientTransform="matrix(0, 131.67, 131.67, 0, -104881.97, 444.63)" gradientUnits="userSpaceOnUse"><stop offset="0" stop-color="#f6a41e"/><stop offset="1" stop-color="#f08921"/></linearGradient><clipPath id="clip-path-8" transform="translate(26.76 22.73)"><rect class="cls-1" x="247.97" y="623.58" width="16.13" height="44.35" rx="1.5" ry="1.5"/></clipPath><linearGradient id="Naamloos_verloop_3" x1="0" y1="799" x2="1" y2="799" gradientTransform="matrix(0, 48.25, 48.25, 0, -38271.14, 635.47)" xlink:href="#Naamloos_verloop_2"/><clipPath id="clip-path-9" transform="translate(26.76 22.73)"><rect class="cls-1" x="397.16" y="623.58" width="16.13" height="44.35" rx="1.5" ry="1.5"/></clipPath><linearGradient id="Naamloos_verloop_4" x1="0" y1="799" x2="1" y2="799" gradientTransform="matrix(0, 44.29, 44.29, 0, -34953.13, 640.1)" xlink:href="#Naamloos_verloop_2"/><clipPath id="clip-path-10" transform="translate(26.76 22.73)"><rect class="cls-1" x="171.36" y="551" width="302.4" height="16.13" rx="1.5" ry="1.5"/></clipPath><linearGradient id="Naamloos_verloop_5" x1="0" y1="799" x2="1" y2="799" gradientTransform="matrix(0, 123.58, 123.58, 0, -98414.87, 509.78)" xlink:href="#Naamloos_verloop_2"/><clipPath id="clip-path-11" transform="translate(26.76 22.73)"><rect class="cls-1" x="171.36" y="571.16" width="302.4" height="16.13" rx="1.5" ry="1.5"/></clipPath><linearGradient id="Naamloos_verloop_6" x1="0" y1="799" x2="1" y2="799" gradientTransform="matrix(0, 33.65, 33.65, 0, -26565.73, 547.33)" xlink:href="#Naamloos_verloop_2"/><clipPath id="clip-path-12" transform="translate(26.76 22.73)"><rect class="cls-1" x="171.36" y="591.32" width="302.4" height="16.13" rx="1.5" ry="1.5"/></clipPath><linearGradient id="Naamloos_verloop_7" x1="0" y1="799" x2="1" y2="799" gradientTransform="matrix(0, 48.52, 48.52, 0, -38447.8, 540.38)" xlink:href="#Naamloos_verloop_2"/><clipPath id="clip-path-14" transform="translate(26.76 22.73)"><rect class="cls-1" x="778.36" y="538.84" width="302.41" height="16.13" rx="1.5" ry="1.5"/></clipPath><linearGradient id="Naamloos_verloop_8" x1="0" y1="799" x2="1" y2="799" gradientTransform="matrix(0, 131.67, 131.67, 0, -104274.97, 452.63)" xlink:href="#Naamloos_verloop_2"/><clipPath id="clip-path-15" transform="translate(26.76 22.73)"><rect class="cls-1" x="854.97" y="631.58" width="16.13" height="44.35" rx="1.5" ry="1.5"/></clipPath><linearGradient id="Naamloos_verloop_9" x1="0" y1="799" x2="1" y2="799" gradientTransform="matrix(0, 48.25, 48.25, 0, -37664.14, 643.47)" xlink:href="#Naamloos_verloop_2"/><clipPath id="clip-path-16" transform="translate(26.76 22.73)"><rect class="cls-1" x="1004.16" y="631.58" width="16.13" height="44.35" rx="1.5" ry="1.5"/></clipPath><linearGradient id="Naamloos_verloop_10" x1="0" y1="799" x2="1" y2="799" gradientTransform="matrix(0, 44.29, 44.29, 0, -34346.13, 648.1)" xlink:href="#Naamloos_verloop_2"/><clipPath id="clip-path-17" transform="translate(26.76 22.73)"><rect class="cls-1" x="778.36" y="559" width="302.41" height="16.13" rx="1.5" ry="1.5"/></clipPath><linearGradient id="Naamloos_verloop_11" x1="0" y1="799" x2="1" y2="799" gradientTransform="matrix(0, 123.58, 123.58, 0, -97807.87, 517.8)" xlink:href="#Naamloos_verloop_2"/><clipPath id="clip-path-18" transform="translate(26.76 22.73)"><rect class="cls-1" x="778.36" y="579.16" width="302.41" height="16.13" rx="1.5" ry="1.5"/></clipPath><linearGradient id="Naamloos_verloop_12" x1="0" y1="799" x2="1" y2="799" gradientTransform="matrix(0, 33.65, 33.65, 0, -25958.73, 555.33)" xlink:href="#Naamloos_verloop_2"/><clipPath id="clip-path-19" transform="translate(26.76 22.73)"><rect class="cls-1" x="778.36" y="599.32" width="302.41" height="16.13" rx="1.5" ry="1.5"/></clipPath><linearGradient id="Naamloos_verloop_13" x1="0" y1="799" x2="1" y2="799" gradientTransform="matrix(0, 48.52, 48.52, 0, -37840.8, 548.39)" xlink:href="#Naamloos_verloop_2"/><clipPath id="clip-path-21" transform="translate(26.76 22.73)"><path class="cls-1" d="M832.62,303.57l-7.41,203.76a2.25,2.25,0,0,0,2.25,2.33h13.07a2.25,2.25,0,0,0,2.25-2.32L837,303.57Z"/></clipPath><linearGradient id="Naamloos_verloop_14" y1="798.97" x2="1" y2="798.97" gradientTransform="matrix(-111.39, 0, 0, 111.39, 809.6, -88592.81)" gradientUnits="userSpaceOnUse"><stop offset="0" stop-color="#daae82"/><stop offset="0.21" stop-color="#daae82"/><stop offset="0.45" stop-color="#c9976c"/><stop offset="1" stop-color="#c9976c"/></linearGradient><clipPath id="clip-path-22" transform="translate(26.76 22.73)"><path class="cls-1" d="M832.05,295.15,804,372.51l-29.1,80.14a2.23,2.23,0,0,0,2.1,3H889.61a3.45,3.45,0,0,0,3.24-4.63l-28.51-78.51-28.09-77.36a2.23,2.23,0,0,0-4.2,0"/></clipPath><linearGradient id="Naamloos_verloop_15" y1="799.18" x2="1" y2="799.18" gradientTransform="matrix(0, 130.61, 130.61, 0, -103544.35, 333.73)" gradientUnits="userSpaceOnUse"><stop offset="0" stop-color="#0b8b44"/><stop offset="0.11" stop-color="#0b8b44"/><stop offset="0.68" stop-color="#036a3b"/><stop offset="1" stop-color="#036a3b"/></linearGradient><clipPath id="clip-path-23" transform="translate(26.76 22.73)"><path class="cls-1" d="M1058.63,303l-7.41,203.76a2.25,2.25,0,0,0,2.25,2.33h13.07a2.25,2.25,0,0,0,2.25-2.32L1063,303Z"/></clipPath><linearGradient id="Naamloos_verloop_16" x1="0" y1="798.97" x2="1" y2="798.97" gradientTransform="matrix(-111.39, 0, 0, 111.39, 1035.56, -88593.36)" xlink:href="#Naamloos_verloop_14"/><clipPath id="clip-path-24" transform="translate(26.76 22.73)"><path class="cls-1" d="M1058.06,294.6,1030,372l-29.1,80.14a2.23,2.23,0,0,0,2.1,3h112.65a3.45,3.45,0,0,0,3.24-4.63L1090.35,372l-28.09-77.36a2.23,2.23,0,0,0-4.19,0"/></clipPath><linearGradient id="Naamloos_verloop_17" x1="0" y1="799.18" x2="1" y2="799.18" gradientTransform="matrix(0, 130.61, 130.61, 0, -103318.35, 333.17)" xlink:href="#Naamloos_verloop_15"/><clipPath id="clip-path-25" transform="translate(26.76 22.73)"><path class="cls-1" d="M172.92,263.89l-5.78,203.78a2.25,2.25,0,0,0,2.25,2.32h13.07a2.25,2.25,0,0,0,2.25-2.33L177.3,263.89Z"/></clipPath><linearGradient id="Naamloos_verloop_18" x1="0" y1="798.97" x2="1" y2="798.97" gradientTransform="matrix(0, 111.39, -111.39, 0, 89175.36, 391.35)" xlink:href="#Naamloos_verloop_14"/><clipPath id="clip-path-26" transform="translate(26.76 22.73)"><path class="cls-1" d="M173.68,255.47l-28.09,77.36-28.51,78.51a3.45,3.45,0,0,0,3.24,4.63H233a2.23,2.23,0,0,0,2.1-3L206,332.83l-28.09-77.36a2.23,2.23,0,0,0-4.19,0"/></clipPath><linearGradient id="Naamloos_verloop_19" x1="0" y1="799.18" x2="1" y2="799.18" gradientTransform="translate(216.88 104713.33) rotate(180) scale(130.61)" xlink:href="#Naamloos_verloop_15"/><clipPath id="clip-path-27" transform="translate(26.76 22.73)"><path class="cls-1" d="M104.19,261.08,98.42,464.86a2.25,2.25,0,0,0,2.25,2.32h13.07a2.25,2.25,0,0,0,2.25-2.33l-7.41-203.76Z"/></clipPath><linearGradient id="Naamloos_verloop_20" x1="0" y1="798.97" x2="1" y2="798.97" gradientTransform="matrix(0, 111.39, -111.39, 0, 89106.64, 388.53)" xlink:href="#Naamloos_verloop_14"/><clipPath id="clip-path-28" transform="translate(26.76 22.73)"><path class="cls-1" d="M105,252.66,76.86,330,48.35,408.52a3.45,3.45,0,0,0,3.24,4.63H164.25a2.23,2.23,0,0,0,2.1-3L137.24,330l-28.09-77.36a2.23,2.23,0,0,0-4.19,0"/></clipPath><linearGradient id="Naamloos_verloop_21" x1="0" y1="799.18" x2="1" y2="799.18" gradientTransform="matrix(-130.61, 0, 0, -130.61, 148.17, 104710.52)" xlink:href="#Naamloos_verloop_15"/><clipPath id="clip-path-29" transform="translate(26.76 22.73)"><path class="cls-1" d="M564.08,581.83a40.65,40.65,0,0,0-9.21,20.32,49.58,49.58,0,0,0-.63,7.82,46,46,0,0,0,4,19h48a46,46,0,0,0,4-19c0-20.41-12.54-37-28-37-6.92,0-13.26,3.32-18.17,8.83"/></clipPath><linearGradient id="Naamloos_verloop_22" y1="799.08" x2="1" y2="799.08" gradientTransform="matrix(0, 63.66, 63.66, 0, -50290.31, 566.13)" gradientUnits="userSpaceOnUse"><stop offset="0" stop-color="#c4d143"/><stop offset="0.06" stop-color="#c4d143"/><stop offset="0.79" stop-color="#8ea83c"/><stop offset="1" stop-color="#8ea83c"/></linearGradient><clipPath id="clip-path-30" transform="translate(26.76 22.73)"><path class="cls-1" d="M524.28,602.9a48.19,48.19,0,0,0-1.39,11.54,47,47,0,0,0,.27,5.06,45.79,45.79,0,0,0,2,9.5h51.47a47,47,0,0,0,2.26-14.56c0-1.17,0-2.31-.11-3.45-.9-12.63-6.61-23.45-14.7-29.16a22.74,22.74,0,0,0-13.19-4.35c-12.41,0-22.94,10.66-26.61,25.42"/></clipPath><linearGradient id="Naamloos_verloop_23" y1="799.09" x2="1" y2="799.09" gradientTransform="matrix(0, 64.7, 64.7, 0, -51149.12, 576.47)" gradientUnits="userSpaceOnUse"><stop offset="0" stop-color="#e1b634"/><stop offset="0.27" stop-color="#c1b137"/><stop offset="0.56" stop-color="#a5ac3a"/><stop offset="0.81" stop-color="#94a93b"/><stop offset="1" stop-color="#8ea83c"/></linearGradient><clipPath id="clip-path-31" transform="translate(26.76 22.73)"><path class="cls-1" d="M533.46,608.12a29.22,29.22,0,0,0-10.3,11.38,23.5,23.5,0,0,0-2.46,9.5H587.8a25.67,25.67,0,0,0-9-18,36.75,36.75,0,0,0-23.9-8.85,6,6,0,0,0-.63,0,37.84,37.84,0,0,0-20.79,6"/></clipPath><linearGradient id="Naamloos_verloop_24" x1="0" y1="799.1" x2="1" y2="799.1" gradientTransform="matrix(0, 64.7, 64.7, 0, -51146.19, 577.27)" xlink:href="#Naamloos_verloop_22"/><clipPath id="clip-path-32" transform="translate(26.76 22.73)"><path class="cls-1" d="M498.25,620a16.23,16.23,0,0,0,2.71,9h34.9a16.23,16.23,0,0,0,2.71-9,16.75,16.75,0,0,0-5.11-11.92,20.66,20.66,0,0,0-9.18-5.22,22,22,0,0,0-5.87-.78c-11.13,0-20.16,8-20.16,17.92"/></clipPath><linearGradient id="Naamloos_verloop_25" y1="798.92" x2="1" y2="798.92" gradientTransform="matrix(0, -38.07, -38.07, 0, 30934.92, 637.82)" gradientUnits="userSpaceOnUse"><stop offset="0" stop-color="#9aba3c"/><stop offset="0.24" stop-color="#9aba3c"/><stop offset="0.38" stop-color="#9fbd3a"/><stop offset="0.54" stop-color="#adc435"/><stop offset="0.71" stop-color="#c4d12d"/><stop offset="0.76" stop-color="#ccd52a"/><stop offset="1" stop-color="#ccd52a"/></linearGradient><clipPath id="clip-path-34" transform="translate(26.76 22.73)"><path class="cls-1" d="M909.37,680.27l-.16.5a.66.66,0,0,1-.49.41l-1.35.33-.19.07-.83.44a.87.87,0,0,1-.61.07l-.44-.11a.78.78,0,0,0-.88.34l-1,2a.47.47,0,0,0,0,.47l1.83,3.09a.8.8,0,0,0,.88.3,4.2,4.2,0,0,0,2.51-1.81.75.75,0,0,1,.6-.33c.94-.05,3.13-.19,4.23-.4A.59.59,0,0,0,914,685l-.49-2.2a.48.48,0,0,1,.08-.38l1-1.42c.25-.36,0-.81-.56-.86l-3.89-.32h-.08a.71.71,0,0,0-.7.44"/></clipPath><linearGradient id="Naamloos_verloop_26" y1="799" x2="1" y2="799" gradientTransform="matrix(11.33, 0, 0, -11.33, 930.11, 9756.99)" gradientUnits="userSpaceOnUse"><stop offset="0" stop-color="#913f96"/><stop offset="1" stop-color="#744097"/></linearGradient><clipPath id="clip-path-35" transform="translate(26.76 22.73)"><path class="cls-1" d="M903.1,683.62l-.47.38c-.47.38.47,3.62.47,3.62l2.06-1.13c-2.36-1.35-.12-3.42-.54-3.62a.31.31,0,0,0-.13,0c-.48,0-1.39.78-1.39.78"/></clipPath><linearGradient id="Naamloos_verloop_27" x1="0" y1="799" x2="1" y2="799" gradientTransform="matrix(2.66, 0, 0, -2.66, 929.26, 2834.16)" xlink:href="#Naamloos_verloop_26"/><clipPath id="clip-path-36" transform="translate(26.76 22.73)"><path class="cls-1" d="M906,683.45c-.7,1.22,1.3,4.27,1.3,4.27s1.37-2.49.26-3.51a1.76,1.76,0,0,1-.51-2.12s-.35.14-1,1.36"/></clipPath><linearGradient id="Naamloos_verloop_28" y1="799" x2="1" y2="799" gradientTransform="matrix(2.14, 0, 0, -2.14, 932.6, 2417.32)" gradientUnits="userSpaceOnUse"><stop offset="0" stop-color="#c63d81"/><stop offset="1" stop-color="#c53c81"/></linearGradient><clipPath id="clip-path-37" transform="translate(26.76 22.73)"><path class="cls-1" d="M901.1,686.25c0,1.49,1.48,2.7,3.32,2.7s3.32-1.21,3.32-2.7-1.49-2.71-3.32-2.71-3.32,1.21-3.32,2.71"/></clipPath><linearGradient id="Naamloos_verloop_29" y1="799" x2="1" y2="799" gradientTransform="matrix(6.63, 0, 0, -6.63, 927.86, 6009.29)" gradientUnits="userSpaceOnUse"><stop offset="0" stop-color="#cad2d8"/><stop offset="1" stop-color="#ececec"/></linearGradient><clipPath id="clip-path-38" transform="translate(26.76 22.73)"><path class="cls-1" d="M901.63,686.25a2.85,2.85,0,1,0,2.79-2.28,2.57,2.57,0,0,0-2.79,2.28"/></clipPath><linearGradient id="Naamloos_verloop_30" y1="799" x2="1" y2="799" gradientTransform="matrix(-5.58, 0, 0, 5.58, 933.97, -3750.25)" gradientUnits="userSpaceOnUse"><stop offset="0" stop-color="#d8d9d8"/><stop offset="1" stop-color="#adbac2"/></linearGradient><clipPath id="clip-path-39" transform="translate(26.76 22.73)"><path class="cls-1" d="M908.61,683.7c1.47.51.94,1.07.94,1.07a11,11,0,0,0,4.91-1.19c.94-.48.92-.85.92-.85s-8.24.47-6.77,1"/></clipPath><linearGradient id="Naamloos_verloop_31" y1="798.99" x2="1" y2="798.99" gradientTransform="matrix(6.95, 0, 0, -6.95, 935.19, 6259.3)" xlink:href="#Naamloos_verloop_28"/><clipPath id="clip-path-40" transform="translate(26.76 22.73)"><path class="cls-1" d="M906.41,683c-.16,0,0,0,.43,0a1.13,1.13,0,0,0-.26,0l-.17,0m7.17-2.21c-1.95.68-5.12-.75-5.12-.75l-.08,1.56a6,6,0,0,0,2.94.92,33.07,33.07,0,0,1-4.48.49,4.83,4.83,0,0,1,1.55.86l.22-.21a.63.63,0,0,1,.74,0,7.54,7.54,0,0,0,1.27.74c.59.23,3.37-1.19,4.77-1.32s0-3.3,0-3.3.15.38-1.8,1.07"/></clipPath><linearGradient id="Naamloos_verloop_32" y1="798.99" x2="1" y2="798.99" gradientTransform="matrix(9.64, 0, 0, -9.64, 933.12, 8407.16)" gradientUnits="userSpaceOnUse"><stop offset="0" stop-color="#f16381"/><stop offset="1" stop-color="#c53c81"/></linearGradient><clipPath id="clip-path-42" transform="translate(26.76 22.73)"><path class="cls-1" d="M908.39,679.78c0,.83,1.57,1.5,3.5,1.5s3.5-.67,3.5-1.5-1.57-1.5-3.5-1.5-3.5.67-3.5,1.5"/></clipPath><linearGradient id="Naamloos_verloop_33" x1="0" y1="799" x2="1" y2="799" gradientTransform="matrix(0, 3, 3, 0, -1460.85, 701.01)" xlink:href="#Naamloos_verloop_29"/><clipPath id="clip-path-43" transform="translate(26.76 22.73)"><path class="cls-1" d="M908.94,679.78c0,.7,1.32,1.26,2.94,1.26s2.94-.57,2.94-1.26-1.32-1.26-2.94-1.26-2.94.57-2.94,1.26"/></clipPath><linearGradient id="Naamloos_verloop_34" x1="0" y1="799" x2="1" y2="799" gradientTransform="matrix(0, -2.53, -2.53, 0, 2957.37, 703.78)" xlink:href="#Naamloos_verloop_30"/><clipPath id="clip-path-45" transform="translate(26.76 22.73)"><path class="cls-1" d="M911,679.21a.54.54,0,0,0,.38.64.66.66,0,0,0,.46,0c.43.16.83.16.88,0s-.23-.41-.66-.59a.66.66,0,0,0-.35-.29.72.72,0,0,0-.25,0,.47.47,0,0,0-.46.27"/></clipPath><linearGradient id="Naamloos_verloop_35" x1="0" y1="798.99" x2="1" y2="798.99" gradientTransform="matrix(0, 1.05, 1.05, 0, 102.84, 701.67)" xlink:href="#Naamloos_verloop_29"/><clipPath id="clip-path-47" transform="translate(26.76 22.73)"><path class="cls-1" d="M236,662.79l-.16.5a.66.66,0,0,1-.49.41L234,664l-.18.07-.83.44a.88.88,0,0,1-.61.07l-.44-.11a.79.79,0,0,0-.88.34l-1,2a.47.47,0,0,0,0,.46l1.83,3.09a.8.8,0,0,0,.88.3,4.2,4.2,0,0,0,2.51-1.81.75.75,0,0,1,.61-.33c.93-.05,3.13-.19,4.23-.4a.59.59,0,0,0,.54-.67l-.49-2.2a.48.48,0,0,1,.08-.38l1-1.42c.25-.36,0-.81-.56-.86l-3.89-.32h-.08a.71.71,0,0,0-.7.44"/></clipPath><linearGradient id="Naamloos_verloop_36" x1="0" y1="799" x2="1" y2="799" gradientTransform="matrix(11.33, 0, 0, -11.33, 256.76, 9739.51)" xlink:href="#Naamloos_verloop_26"/><clipPath id="clip-path-48" transform="translate(26.76 22.73)"><path class="cls-1" d="M229.75,666.14l-.47.38c-.47.38.47,3.62.47,3.62l2.06-1.13c-2.36-1.35-.12-3.42-.54-3.62a.32.32,0,0,0-.13,0c-.48,0-1.39.78-1.39.78"/></clipPath><linearGradient id="Naamloos_verloop_37" x1="0" y1="799" x2="1" y2="799" gradientTransform="matrix(2.66, 0, 0, -2.66, 255.91, 2816.68)" xlink:href="#Naamloos_verloop_26"/><clipPath id="clip-path-49" transform="translate(26.76 22.73)"><path class="cls-1" d="M232.64,666c-.7,1.22,1.3,4.28,1.3,4.28s1.37-2.49.26-3.52a1.76,1.76,0,0,1-.51-2.12s-.35.14-1,1.36"/></clipPath><linearGradient id="Naamloos_verloop_38" y1="799" x2="1" y2="799" gradientTransform="matrix(2.14, 0, 0, -2.14, 259.25, 2399.84)" xlink:href="#Naamloos_verloop_28"/><clipPath id="clip-path-50" transform="translate(26.76 22.73)"><path class="cls-1" d="M227.76,668.77c0,1.49,1.49,2.71,3.32,2.71s3.32-1.21,3.32-2.71-1.49-2.71-3.32-2.71-3.32,1.21-3.32,2.71"/></clipPath><linearGradient id="Naamloos_verloop_39" x1="0" y1="799" x2="1" y2="799" gradientTransform="matrix(6.63, 0, 0, -6.63, 254.51, 5991.81)" xlink:href="#Naamloos_verloop_29"/><clipPath id="clip-path-51" transform="translate(26.76 22.73)"><path class="cls-1" d="M228.28,668.77a2.85,2.85,0,1,0,2.79-2.28,2.57,2.57,0,0,0-2.79,2.28"/></clipPath><linearGradient id="Naamloos_verloop_40" x1="0" y1="799" x2="1" y2="799" gradientTransform="matrix(-5.58, 0, 0, 5.58, 260.62, -3767.72)" xlink:href="#Naamloos_verloop_30"/><clipPath id="clip-path-52" transform="translate(26.76 22.73)"><path class="cls-1" d="M235.26,666.23c1.47.51.94,1.07.94,1.07a11,11,0,0,0,4.91-1.19c.94-.48.92-.85.92-.85s-8.24.47-6.78,1"/></clipPath><linearGradient id="Naamloos_verloop_41" y1="798.99" x2="1" y2="798.99" gradientTransform="matrix(6.95, 0, 0, -6.95, 261.84, 6241.82)" xlink:href="#Naamloos_verloop_28"/><clipPath id="clip-path-53" transform="translate(26.76 22.73)"><path class="cls-1" d="M233.07,665.57c-.16,0,0,0,.43,0a1.14,1.14,0,0,0-.26,0l-.17,0m7.17-2.21c-1.95.68-5.12-.75-5.12-.75l-.08,1.56a6,6,0,0,0,2.94.92,33,33,0,0,1-4.48.49,4.84,4.84,0,0,1,1.55.86l.22-.21a.63.63,0,0,1,.74,0,7.55,7.55,0,0,0,1.27.74c.59.23,3.37-1.19,4.76-1.32s0-3.3,0-3.3.15.38-1.8,1.07"/></clipPath><linearGradient id="Naamloos_verloop_42" x1="0" y1="798.99" x2="1" y2="798.99" gradientTransform="matrix(9.64, 0, 0, -9.64, 259.77, 8389.68)" xlink:href="#Naamloos_verloop_32"/><clipPath id="clip-path-55" transform="translate(26.76 22.73)"><path class="cls-1" d="M235,662.3c0,.83,1.57,1.5,3.5,1.5s3.5-.67,3.5-1.5-1.57-1.5-3.5-1.5-3.5.67-3.5,1.5"/></clipPath><linearGradient id="Naamloos_verloop_43" x1="0" y1="799" x2="1" y2="799" gradientTransform="matrix(0, 3, 3, 0, -2134.2, 683.53)" xlink:href="#Naamloos_verloop_29"/><clipPath id="clip-path-56" transform="translate(26.76 22.73)"><path class="cls-1" d="M235.6,662.3c0,.7,1.32,1.26,2.94,1.26s2.94-.57,2.94-1.26-1.32-1.26-2.94-1.26-2.94.57-2.94,1.26"/></clipPath><linearGradient id="Naamloos_verloop_44" x1="0" y1="799" x2="1" y2="799" gradientTransform="matrix(0, -2.53, -2.53, 0, 2284.03, 686.3)" xlink:href="#Naamloos_verloop_30"/><clipPath id="clip-path-58" transform="translate(26.76 22.73)"><path class="cls-1" d="M237.65,661.73a.54.54,0,0,0,.38.64.66.66,0,0,0,.46,0c.43.16.82.16.88,0s-.23-.42-.66-.59a.66.66,0,0,0-.35-.29.71.71,0,0,0-.25,0,.47.47,0,0,0-.46.27"/></clipPath><linearGradient id="Naamloos_verloop_45" x1="0" y1="798.99" x2="1" y2="798.99" gradientTransform="matrix(0, 1.05, 1.05, 0, -570.51, 684.19)" xlink:href="#Naamloos_verloop_29"/><clipPath id="clip-path-60" transform="translate(26.76 22.73)"><polygon class="cls-1" points="453.26 606.9 455.68 602.81 451.07 601.88 453.26 606.9"/></clipPath><linearGradient id="Naamloos_verloop_46" y1="799" x2="1" y2="799" gradientTransform="matrix(4.61, 0, 0, -4.61, 477.82, 4311.81)" gradientUnits="userSpaceOnUse"><stop offset="0" stop-color="#3f6bb1"/><stop offset="1" stop-color="#249abc"/></linearGradient><clipPath id="clip-path-61" transform="translate(26.76 22.73)"><polygon class="cls-1" points="452.48 606.07 454.49 602.71 451.27 602.18 452.48 606.07"/></clipPath><linearGradient id="Naamloos_verloop_47" y1="799" x2="1" y2="799" gradientTransform="matrix(3.22, 0, 0, -3.22, 478.03, 3199.8)" gradientUnits="userSpaceOnUse"><stop offset="0" stop-color="#47c1be"/><stop offset="0" stop-color="#47c1be"/><stop offset="1" stop-color="#249abc"/></linearGradient><clipPath id="clip-path-62" transform="translate(26.76 22.73)"><path class="cls-1" d="M449.94,601.18l-4.67,2,2.42,7.32,3.92.31.3-7.63-1.14-1.72a.69.69,0,0,0-.57-.31.67.67,0,0,0-.27.05"/></clipPath><linearGradient id="Naamloos_verloop_48" x1="0" y1="799.01" x2="1" y2="799.01" gradientTransform="matrix(0, -6.64, -6.64, 0, 5756.72, 609.24)" xlink:href="#Naamloos_verloop_46"/><clipPath id="clip-path-63" transform="translate(26.76 22.73)"><polygon class="cls-1" points="446.12 604.18 446.41 610.64 453.67 610.02 456.42 603.15 446.12 604.18"/></clipPath><linearGradient id="Naamloos_verloop_49" x1="0" y1="798.99" x2="1" y2="798.99" gradientTransform="matrix(0, 9.54, 9.54, 0, -7170.89, 601.21)" xlink:href="#Naamloos_verloop_46"/><clipPath id="clip-path-64" transform="translate(26.76 22.73)"><path class="cls-1" d="M449.77,602.53l-5.11,1.14.75,2.19,2.91,2.77,5.35,1.39-.11-3.58-3.22-3.72a.59.59,0,0,0-.44-.2h-.13"/></clipPath><linearGradient id="Naamloos_verloop_50" x1="0" y1="799" x2="1" y2="799" gradientTransform="matrix(-9.02, 0, 0, 9.02, 480.43, -6574.05)" xlink:href="#Naamloos_verloop_47"/><clipPath id="clip-path-65" transform="translate(26.76 22.73)"><path class="cls-1" d="M443.92,602.37l.92,8.27h3.94c.87-2.91-3.49-7.35-3.82-7.87a1,1,0,0,0-.88-.42h-.17"/></clipPath><linearGradient id="Naamloos_verloop_51" x1="0" y1="798.95" x2="1" y2="798.95" gradientTransform="matrix(5.05, 0, 0, -5.05, 442.67, 4643.42)" xlink:href="#Naamloos_verloop_46"/><clipPath id="clip-path-66" transform="translate(26.76 22.73)"><path class="cls-1" d="M455.91,602.49l-5.07.76.63,2.36-1.82.13-2.22-1.51-.15.82,1.89,3.39,1.33,1.31,1.55,1.58,3.67,1.71c.59.27,2-1.5,3.13-4s1.59-4.67,1-4.94l-3.44-1.6a.86.86,0,0,0-.36-.08h-.13"/></clipPath><linearGradient id="Naamloos_verloop_52" x1="0" y1="798.88" x2="1" y2="798.88" gradientTransform="matrix(9.8, 0, 0, -9.8, 449.97, 8440.11)" xlink:href="#Naamloos_verloop_47"/><clipPath id="clip-path-67" transform="translate(26.76 22.73)"><path class="cls-1" d="M439.6,603.15l-3.87,4.9,3.87,4.9h6.61c2.18-1,2.58-1.79,2.57-2.31,0-.72-.83-.86-1.64-2.16s-.49-1.87-1.09-3.28a7.78,7.78,0,0,0-2.13-2.83Z"/></clipPath><linearGradient id="Naamloos_verloop_53" x1="0" y1="799" x2="1" y2="799" gradientTransform="matrix(0, -10.59, -10.59, 0, 8926.61, 635.69)" xlink:href="#Naamloos_verloop_47"/><clipPath id="clip-path-68" transform="translate(26.76 22.73)"><path class="cls-1" d="M435.73,608.05l3.87,4.9s1.32-1.28,1.32-4.9-1.32-4.9-1.32-4.9Z"/></clipPath><linearGradient id="Naamloos_verloop_54" x1="0" y1="799" x2="1" y2="799" gradientTransform="matrix(0, -9.8, -9.8, 0, 8298.46, 635.69)" xlink:href="#Naamloos_verloop_47"/><clipPath id="clip-path-70" transform="translate(26.76 22.73)"><rect class="cls-1" x="435.73" y="603.15" width="5.19" height="9.8"/></clipPath><clipPath id="clip-path-71" transform="translate(26.76 22.73)"><path class="cls-1" d="M434.53,605.79v4.53h2.26c.29,0,.53-1,.53-2.27s-.24-2.26-.53-2.26Z"/></clipPath><linearGradient id="Naamloos_verloop_55" x1="0" y1="799" x2="1" y2="799" gradientTransform="matrix(0, -4.53, -4.53, 0, 4080.49, 633.05)" xlink:href="#Naamloos_verloop_30"/><clipPath id="clip-path-72" transform="translate(26.76 22.73)"><path class="cls-1" d="M434,608.05c0,1.25.24,2.27.53,2.27s.53-1,.53-2.27-.24-2.26-.53-2.26-.53,1-.53,2.26"/></clipPath><linearGradient id="Naamloos_verloop_56" x1="0" y1="799" x2="1" y2="799" gradientTransform="matrix(0, 4.53, 4.53, 0, -3156.5, 628.53)" xlink:href="#Naamloos_verloop_30"/><clipPath id="clip-path-73" transform="translate(26.76 22.73)"><path class="cls-1" d="M455.44,607.4c-1.27,2.39-1.27,4.87,0,5.55s3.33-.71,4.6-3.1,1.27-4.87,0-5.55a1.5,1.5,0,0,0-.72-.17c-1.24,0-2.83,1.29-3.89,3.26"/></clipPath><linearGradient id="Naamloos_verloop_57" x1="0" y1="799.01" x2="1" y2="799.01" gradientTransform="matrix(-9.79, 0, 0, 22.19, 462.84, -17121.78)" xlink:href="#Naamloos_verloop_46"/><clipPath id="clip-path-74" transform="translate(26.76 22.73)"><path class="cls-1" d="M455.66,607.52c-1.15,2.15-1.14,4.39,0,5s3-.64,4.16-2.79,1.14-4.4,0-5a1.37,1.37,0,0,0-.65-.15c-1.12,0-2.56,1.16-3.51,2.95"/></clipPath><linearGradient id="Naamloos_verloop_58" x1="0" y1="798.98" x2="1" y2="798.98" gradientTransform="matrix(11.36, 0, -8.6, -9.59, 7353.3, 8295.75)" xlink:href="#Naamloos_verloop_46"/><clipPath id="clip-path-75" transform="translate(26.76 22.73)"><path class="cls-1" d="M657.28,651.78c-.74.49,0,3,1,4.77s2.86,3.62,3.65,3.22.5-3.23-.78-5.25c-1-1.51-2.62-2.83-3.5-2.83a.6.6,0,0,0-.33.09"/></clipPath><linearGradient id="Naamloos_verloop_59" x1="0" y1="798.97" x2="1" y2="798.97" gradientTransform="matrix(5.36, 0, 0, -5.36, 683.73, 4964.93)" xlink:href="#Naamloos_verloop_29"/><clipPath id="clip-path-76" transform="translate(26.76 22.73)"><path class="cls-1" d="M655.54,655.38l-2.1-.55-4.13,1.41v7.24a2.84,2.84,0,0,0,1.92,0l1.51-.85,1.7,1,2.1-.9,2.37.15,2.82-3-4.51-8.1Z"/></clipPath><linearGradient id="Naamloos_verloop_60" x1="0" y1="798.99" x2="1" y2="798.99" gradientTransform="matrix(12.42, 0, 0, -12.42, 676.07, 10605.68)" xlink:href="#Naamloos_verloop_26"/><clipPath id="clip-path-78" transform="translate(26.76 22.73)"><path class="cls-1" d="M649.31,656.24l.74,7.41c3.32-3.72,0-8,0-8Z"/></clipPath><linearGradient id="Naamloos_verloop_61" x1="0" y1="799" x2="1" y2="799" gradientTransform="matrix(2.21, 0, 0, -2.21, 676.07, 2450.92)" xlink:href="#Naamloos_verloop_26"/><clipPath id="clip-path-79" transform="translate(26.76 22.73)"><path class="cls-1" d="M647.76,659.86c0,2,.7,3.62,1.55,3.62s1.55-1.62,1.55-3.62-.7-3.62-1.55-3.62-1.55,1.62-1.55,3.62"/></clipPath><linearGradient id="Naamloos_verloop_62" x1="0" y1="799" x2="1" y2="799" gradientTransform="matrix(3.11, 0, 0, -3.11, 674.51, 3166.27)" xlink:href="#Naamloos_verloop_29"/><clipPath id="clip-path-81" transform="translate(26.76 22.73)"><path class="cls-1" d="M658.13,654.32h-2.87l-.41,3s-2-2.56-2.56-3-3,1.87-3,1.87a2.35,2.35,0,0,1,1.41.49c.84.7.82,1.9.8,2.84a7.09,7.09,0,0,1-.84,3.18l1.93-2,1.23,2.86,2.85-1.93,1.45.37,3.59-2.23c.46-7.28-4.51-8.1-4.51-8.1Z"/></clipPath><linearGradient id="Naamloos_verloop_63" x1="0" y1="799" x2="1" y2="799" gradientTransform="matrix(12.45, 0, 0, -12.45, 676.07, 10629.74)" xlink:href="#Naamloos_verloop_32"/><clipPath id="clip-path-82" transform="translate(26.76 22.73)"><path class="cls-1" d="M660,654.78a6.35,6.35,0,0,1,.35,4,4.75,4.75,0,0,0,.46-4.14,4.56,4.56,0,0,0-3.58-2.83,6.36,6.36,0,0,1,2.77,3"/></clipPath><linearGradient id="Naamloos_verloop_64" x1="0" y1="799" x2="1" y2="799" gradientTransform="matrix(3.88, 0, 0, -3.88, 683.98, 3776.25)" xlink:href="#Naamloos_verloop_29"/><clipPath id="clip-path-83" transform="translate(26.76 22.73)"><path class="cls-1" d="M657.53,658.74a27,27,0,0,1-3.09,0s2.47,1.5,3.37,1.08a1.47,1.47,0,0,0,.83-1.38s-.14.19-1.1.3"/></clipPath><linearGradient id="Naamloos_verloop_65" x1="0" y1="798.96" x2="1" y2="798.96" gradientTransform="matrix(4.2, 0, 0, -4.2, 681.2, 4035.21)" xlink:href="#Naamloos_verloop_26"/><clipPath id="clip-path-84" transform="translate(26.76 22.73)"><path class="cls-1" d="M648,659.86c0,1.68.58,3,1.31,3s1.31-1.36,1.31-3-.59-3-1.31-3-1.31,1.36-1.31,3"/></clipPath><linearGradient id="Naamloos_verloop_66" x1="0" y1="799" x2="1" y2="799" gradientTransform="matrix(-2.62, 0, 0, 2.62, 677.38, -1406.96)" xlink:href="#Naamloos_verloop_30"/><clipPath id="clip-path-86" transform="translate(26.76 22.73)"><path class="cls-1" d="M648.79,659.68a.68.68,0,0,0-.31.36.49.49,0,1,0,.9.34.68.68,0,0,0,0-.47c.16-.45.16-.86,0-.92h0c-.16,0-.4.29-.56.69"/></clipPath><linearGradient id="Naamloos_verloop_67" x1="0" y1="798.97" x2="1" y2="798.97" gradientTransform="matrix(1.08, 0, 0, -1.08, 675.2, 1547.72)" xlink:href="#Naamloos_verloop_29"/><clipPath id="clip-path-88" transform="translate(26.76 22.73)"><path class="cls-1" d="M38,85A54,54,0,1,0,92,31,54,54,0,0,0,38,85"/></clipPath><linearGradient id="Naamloos_verloop_68" y1="799" x2="1" y2="799" gradientTransform="matrix(0, 136.03, 136.03, 0, -108597.78, 25.27)" gradientUnits="userSpaceOnUse"><stop offset="0" stop-color="#f8e4b4"/><stop offset="0.42" stop-color="#f8e4b4"/><stop offset="0.75" stop-color="#ffe194"/><stop offset="1" stop-color="#ffe194"/></linearGradient></defs><title>background_image_scene3</title><g class="cls-2"><rect class="cls-3" x="26.76" y="22.73" width="1280" height="799"/><g class="cls-2"><path class="cls-4" d="M1280,356.29V797H98.45V709.07H653.72a168.06,168.06,0,0,0,22.65-1.53,175.79,175.79,0,0,0,27.52-6A190.79,190.79,0,0,0,728.74,692c2.65-1.23,5.3-2.52,7.93-3.89a226.2,226.2,0,0,0,25.72-15.57q2.71-1.9,5.42-3.89,9.7-7.16,19.17-15.56a329.7,329.7,0,0,0,35.14-36.6,434.73,434.73,0,0,0,34.31-47.93c4.28-6.91,8.51-14.07,12.63-21.47q2.41-4.33,4.79-8.78,8.82-16.47,17-34.5,3.6-8,7.36-15.61,7.16-14.49,14.88-27.5h0c13.34-22.54,27.89-41.72,43.31-57.25a193.61,193.61,0,0,1,26.07-22.21c23.19-16.33,47.79-24.91,72.86-24.91Z" transform="translate(26.76 22.73)"/></g><g class="cls-5"><rect class="cls-6" x="26.76" y="447.13" width="1280" height="372.61"/></g><g class="cls-2"><rect class="cls-7" x="27.76" y="794.51" width="1280" height="27.23"/><rect class="cls-8" x="27.76" y="651.73" width="1280" height="143"/><g class="cls-9"><g class="cls-10"><path class="cls-11" d="M520,668c0,8.84-77.9,16-174,16s-174-7.16-174-16,77.9-16,174-16,174,7.16,174,16" transform="translate(26.76 22.73)"/></g></g><g class="cls-9"><g class="cls-12"><path class="cls-11" d="M1109,668c0,8.84-77.9,16-174,16s-174-7.16-174-16,77.9-16,174-16,174,7.16,174,16" transform="translate(26.76 22.73)"/></g></g></g><g class="cls-13"><rect class="cls-14" x="194.39" y="445.12" width="256.36" height="187.57" transform="translate(-224.98 307.39) rotate(-35.22)"/></g><g class="cls-15"><rect class="cls-16" x="274.73" y="646.32" width="16.13" height="44.35"/></g><g class="cls-17"><rect class="cls-18" x="423.92" y="646.32" width="16.13" height="44.35"/></g><g class="cls-19"><rect class="cls-20" x="230.19" y="429.95" width="184.74" height="258.24" transform="translate(-294.09 530.53) rotate(-55.46)"/></g><g class="cls-21"><rect class="cls-22" x="209.95" y="466.61" width="225.24" height="225.24" transform="translate(-288.34 420.47) rotate(-45)"/></g><g class="cls-23"><rect class="cls-24" x="198.16" y="500.33" width="248.81" height="198.12" transform="translate(-272.95 346.29) rotate(-37.81)"/></g><g class="cls-2"><path class="cls-25" d="M480.33,627.61H168.83a1.5,1.5,0,0,1-1.5-1.5V613a1.5,1.5,0,0,1,1.5-1.5h311.5a1.5,1.5,0,0,1,1.5,1.5v13.13a1.5,1.5,0,0,1-1.5,1.5" transform="translate(26.76 22.73)"/></g><g class="cls-26"><rect class="cls-27" x="801.39" y="453.12" width="256.36" height="187.57" transform="translate(-118.49 658.9) rotate(-35.22)"/></g><g class="cls-28"><rect class="cls-29" x="881.73" y="654.32" width="16.13" height="44.35"/></g><g class="cls-30"><rect class="cls-31" x="1030.92" y="654.32" width="16.13" height="44.35"/></g><g class="cls-32"><rect class="cls-33" x="837.19" y="437.94" width="184.74" height="258.25" transform="matrix(0.57, -0.82, 0.82, 0.57, -37.83, 1033.99)"/></g><g class="cls-34"><rect class="cls-35" x="816.95" y="474.61" width="225.24" height="225.24" transform="translate(-116.21 852.03) rotate(-45)"/></g><g class="cls-36"><rect class="cls-37" x="805.16" y="508.33" width="248.81" height="198.12" transform="translate(-150.44 720.05) rotate(-37.81)"/></g><g class="cls-2"><path class="cls-25" d="M1087.33,635.61H775.83a1.5,1.5,0,0,1-1.5-1.5V621a1.5,1.5,0,0,1,1.5-1.5h311.5a1.5,1.5,0,0,1,1.5,1.5v13.13a1.5,1.5,0,0,1-1.5,1.5" transform="translate(26.76 22.73)"/></g><g class="cls-38"><rect class="cls-39" x="730.71" y="394.4" width="206.57" height="24.45" transform="translate(426.83 1249.48) rotate(-88.11)"/></g><g class="cls-40"><rect class="cls-41" x="739.68" y="274.22" width="188.63" height="200.88" transform="translate(-42.07 541.74) rotate(-33.27)"/></g><g class="cls-42"><rect class="cls-43" x="956.72" y="393.84" width="206.57" height="24.45" transform="translate(645.93 1474.82) rotate(-88.11)"/></g><g class="cls-44"><rect class="cls-45" x="965.69" y="273.67" width="188.64" height="200.88" transform="translate(-4.71 665.65) rotate(-33.27)"/></g><g class="cls-46"><rect class="cls-47" x="163.71" y="263.66" width="24.45" height="206.57" transform="translate(14.74 28.74) rotate(-1.89)"/></g><g class="cls-48"><rect class="cls-49" x="75.48" y="240.66" width="200.88" height="188.63" transform="translate(-173.9 321.01) rotate(-56.73)"/></g><g class="cls-50"><rect class="cls-51" x="94.98" y="260.84" width="24.45" height="206.57" transform="translate(14.8 26.47) rotate(-1.89)"/></g><g class="cls-52"><rect class="cls-53" x="6.76" y="237.85" width="200.88" height="188.63" transform="translate(-202.56 262.28) rotate(-56.73)"/></g><g class="cls-54"><rect class="cls-55" x="542.65" y="561.4" width="79.19" height="79.19" transform="translate(-227.45 600.27) rotate(-44.3)"/></g><g class="cls-56"><rect class="cls-57" x="512.86" y="565.44" width="76.06" height="75.6" transform="translate(-233.64 530.07) rotate(-40.86)"/></g><g class="cls-58"><rect class="cls-59" x="520.08" y="583.44" width="68.34" height="64.23" transform="translate(-240.88 535.27) rotate(-40.86)"/></g><g class="cls-60"><rect class="cls-61" x="494.47" y="592.01" width="47.87" height="47.09" transform="translate(-253.2 536.95) rotate(-42.66)"/></g><g class="cls-2"><path class="cls-62" d="M911.83,685.79a9.77,9.77,0,0,0-2.55.72,2.45,2.45,0,0,1-1.33.38l1-1.11Z" transform="translate(26.76 22.73)"/></g><g class="cls-63"><rect class="cls-64" x="930.09" y="702.56" width="11.51" height="8.48"/></g><g class="cls-65"><rect class="cls-66" x="928.92" y="705.58" width="3" height="4.78"/></g><g class="cls-67"><rect class="cls-68" x="932.05" y="704.83" width="3.36" height="5.63"/></g><g class="cls-69"><rect class="cls-70" x="927.86" y="706.27" width="6.63" height="5.41"/></g><g class="cls-71"><rect class="cls-72" x="928.39" y="706.7" width="5.58" height="4.55"/></g><g class="cls-73"><rect class="cls-74" x="933.9" y="705.46" width="8.26" height="2.17"/></g><g class="cls-75"><rect class="cls-76" x="933.02" y="702.51" width="10.51" height="4.85"/></g><g class="cls-2"><path class="cls-62" d="M907.53,681.54s.22-.43.49-.87.24-1,.37-.9c.48.27,1,2.68,2.94,2.8a8.56,8.56,0,0,1-3.8.39c.06,0,.78,0,1-.25s-.09-.84-1-1.17" transform="translate(26.76 22.73)"/><path class="cls-62" d="M907.57,687.06s.71-2.29-.91-3.3.91-.8.91-.8-.32.07-.4.26.1.36.15.42c.49.57,1.13,2.06.65,2.84l-.4.57" transform="translate(26.76 22.73)"/></g><g class="cls-77"><rect class="cls-78" x="935.15" y="701.01" width="6.99" height="3"/></g><g class="cls-79"><rect class="cls-80" x="935.7" y="701.25" width="5.89" height="2.53"/></g><g class="cls-2"><path class="cls-81" d="M913.59,680.21a.52.52,0,1,1,0-.75c.48,0,.87.17.87.38s-.39.38-.87.38" transform="translate(26.76 22.73)"/></g><g class="cls-82"><rect class="cls-83" x="937.67" y="701.67" width="1.87" height="1.09"/></g><g class="cls-2"><path class="cls-81" d="M911.45,679.67a.24.24,0,0,1-.09-.32c.05-.14.18-.22.28-.18a.28.28,0,0,1-.19.49" transform="translate(26.76 22.73)"/><path class="cls-62" d="M238.48,668.32a9.77,9.77,0,0,0-2.55.72,2.45,2.45,0,0,1-1.33.38l1-1.11Z" transform="translate(26.76 22.73)"/></g><g class="cls-84"><rect class="cls-85" x="256.74" y="685.09" width="11.51" height="8.48"/></g><g class="cls-86"><rect class="cls-87" x="255.58" y="688.1" width="3" height="4.78"/></g><g class="cls-88"><rect class="cls-89" x="258.7" y="687.35" width="3.36" height="5.63"/></g><g class="cls-90"><rect class="cls-91" x="254.51" y="688.8" width="6.63" height="5.41"/></g><g class="cls-92"><rect class="cls-93" x="255.04" y="689.23" width="5.58" height="4.55"/></g><g class="cls-94"><rect class="cls-95" x="260.55" y="687.98" width="8.26" height="2.17"/></g><g class="cls-96"><rect class="cls-97" x="259.67" y="685.03" width="10.51" height="4.85"/></g><g class="cls-2"><path class="cls-62" d="M234.18,664.07s.22-.43.49-.87.24-1,.37-.9c.48.27,1,2.68,2.94,2.8a8.56,8.56,0,0,1-3.8.39c.06,0,.78,0,1-.25s-.09-.84-1-1.17" transform="translate(26.76 22.73)"/><path class="cls-62" d="M234.22,669.58s.71-2.29-.91-3.3.91-.8.91-.8-.32.07-.4.26.1.36.15.42c.49.57,1.13,2.06.65,2.84l-.4.57" transform="translate(26.76 22.73)"/></g><g class="cls-98"><rect class="cls-99" x="261.8" y="683.53" width="6.99" height="3"/></g><g class="cls-100"><rect class="cls-101" x="262.35" y="683.77" width="5.88" height="2.53"/></g><g class="cls-2"><path class="cls-81" d="M240.24,662.73a.52.52,0,1,1,0-.75c.48,0,.87.17.87.38s-.39.38-.87.38" transform="translate(26.76 22.73)"/></g><g class="cls-102"><rect class="cls-103" x="264.32" y="684.19" width="1.87" height="1.09"/></g><g class="cls-2"><path class="cls-81" d="M238.1,662.19a.24.24,0,0,1-.09-.32c.05-.14.18-.22.28-.18a.28.28,0,0,1-.19.49" transform="translate(26.76 22.73)"/></g><g class="cls-104"><rect class="cls-105" x="477.82" y="624.61" width="4.61" height="5.02"/></g><g class="cls-106"><rect class="cls-107" x="478.03" y="624.92" width="3.22" height="3.89"/></g><g class="cls-108"><rect class="cls-109" x="443.71" y="602.55" width="9.76" height="6.8" transform="translate(-137.94 1067.2) rotate(-89.05)"/></g><g class="cls-110"><rect class="cls-111" x="445.1" y="600.55" width="12.34" height="12.71" transform="translate(-277.21 589.86) rotate(-50.35)"/></g><g class="cls-112"><rect class="cls-113" x="471.42" y="625.25" width="9.02" height="7.5"/></g><g class="cls-114"><rect class="cls-115" x="441.96" y="601.48" width="9.66" height="10.04" transform="translate(-255.2 438.47) rotate(-38.95)"/></g><g class="cls-116"><rect class="cls-117" x="446.17" y="599.66" width="15.37" height="16.5" transform="translate(-261.93 786.11) rotate(-65.08)"/></g><g class="cls-118"><rect class="cls-119" x="462.48" y="625.11" width="13.07" height="10.59"/></g><g class="cls-120"><rect class="cls-121" x="462.48" y="625.89" width="5.19" height="9.8"/></g><g class="cls-2"><g class="cls-122"><g class="cls-123"><path class="cls-124" d="M435.73,608.06l3.87-4.9s1.32,1.28,1.32,4.9-1.32,4.9-1.32,4.9Z" transform="translate(26.76 22.73)"/></g></g></g><g class="cls-125"><rect class="cls-126" x="461.29" y="628.53" width="2.8" height="4.53"/></g><g class="cls-127"><rect class="cls-128" x="460.76" y="628.53" width="1.06" height="4.53"/></g><g class="cls-129"><rect class="cls-130" x="451.88" y="603.5" width="11.74" height="10.77" transform="translate(-268.06 749.54) rotate(-61.97)"/></g><g class="cls-131"><polygon class="cls-132" points="473.59 627.31 487.73 627.31 495.41 635.87 481.27 635.87 473.59 627.31"/></g><g class="cls-133"><rect class="cls-134" x="683.3" y="674.42" width="6.16" height="8.47"/></g><g class="cls-135"><rect class="cls-136" x="676.07" y="674.49" width="12.42" height="12.09"/></g><g class="cls-2"><polygon class="cls-137" points="677.44 685.48 679.87 683.64 680.34 686.73 683.98 684.35 678.85 682.94 677.44 685.48"/></g><g class="cls-138"><rect class="cls-139" x="676.07" y="678.33" width="4.05" height="8.05"/></g><g class="cls-140"><rect class="cls-141" x="674.51" y="678.97" width="3.11" height="7.24"/></g><g class="cls-2"><polygon class="cls-137" points="681.8 676.91 681.2 680.35 686.08 679.64 685.2 676.27 681.8 676.91"/></g><g class="cls-142"><rect class="cls-143" x="676.07" y="674.49" width="12.88" height="11.88"/></g><g class="cls-144"><rect class="cls-145" x="683.98" y="674.49" width="4.41" height="6.97"/></g><g class="cls-146"><rect class="cls-147" x="681.2" y="681.17" width="4.26" height="1.8"/></g><g class="cls-148"><rect class="cls-149" x="674.76" y="679.55" width="2.61" height="6.09"/></g><g class="cls-2"><path class="cls-81" d="M649.76,658.1a.54.54,0,1,1-.78,0c0-.5.17-.9.39-.9s.39.4.39.9" transform="translate(26.76 22.73)"/></g><g class="cls-150"><rect class="cls-151" x="675.13" y="681.72" width="1.19" height="1.89"/></g><g class="cls-2"><path class="cls-81" d="M649.19,660.3a.24.24,0,0,1-.33.09A.21.21,0,1,1,649,660c.14.05.22.18.18.29" transform="translate(26.76 22.73)"/></g><g class="cls-152"><rect class="cls-153" x="15.73" y="8.73" width="152.55" height="152.55" transform="matrix(0.74, -0.67, 0.67, 0.74, -6.49, 106.47)"/></g></g></svg>