<svg id="Laag_1" data-name="Laag 1" xmlns="http://www.w3.org/2000/svg" xmlns:xlink="http://www.w3.org/1999/xlink" viewBox="0 0 1338.36 880.04"><defs><style>.cls-1{fill:none;}.cls-2{clip-path:url(#clip-path);}.cls-3{fill:#bae1f7;}.cls-4{clip-path:url(#clip-path-2);}.cls-5{fill:url(#Naamloos_verloop);}.cls-6{clip-path:url(#clip-path-3);}.cls-7{fill:url(#Naamloos_verloop_2);}.cls-8{clip-path:url(#clip-path-4);}.cls-9{fill:url(#Naamloos_verloop_3);}.cls-10{clip-path:url(#clip-path-5);}.cls-11{opacity:0.06;}.cls-12{clip-path:url(#clip-path-6);}.cls-13{fill:#010101;}.cls-14{clip-path:url(#clip-path-7);}.cls-15{clip-path:url(#clip-path-8);}.cls-16{fill:url(#Naamloos_verloop_4);}.cls-17{clip-path:url(#clip-path-9);}.cls-18{fill:url(#Naamloos_verloop_5);}.cls-19{clip-path:url(#clip-path-10);}.cls-20{fill:url(#Naamloos_verloop_6);}.cls-21{clip-path:url(#clip-path-12);}.cls-22{clip-path:url(#clip-path-13);}.cls-23{clip-path:url(#clip-path-14);}.cls-24{clip-path:url(#clip-path-15);}.cls-25{clip-path:url(#clip-path-16);}.cls-26{clip-path:url(#clip-path-17);}.cls-27{clip-path:url(#clip-path-18);}.cls-28{clip-path:url(#clip-path-19);}.cls-29{fill:url(#Naamloos_verloop_7);}.cls-30{clip-path:url(#clip-path-20);}.cls-31{fill:url(#Naamloos_verloop_8);}.cls-32{fill:#065a31;}.cls-33{clip-path:url(#clip-path-22);}.cls-34{clip-path:url(#clip-path-23);}.cls-35{fill:url(#Naamloos_verloop_9);}.cls-36{clip-path:url(#clip-path-24);}.cls-37{fill:url(#Naamloos_verloop_10);}.cls-38{clip-path:url(#clip-path-25);}.cls-39{fill:url(#Naamloos_verloop_11);}.cls-40{clip-path:url(#clip-path-26);}.cls-41{fill:url(#Naamloos_verloop_12);}.cls-42{clip-path:url(#clip-path-27);}.cls-43{fill:url(#Naamloos_verloop_13);}.cls-44{clip-path:url(#clip-path-28);}.cls-45{fill:url(#Naamloos_verloop_14);}.cls-46{clip-path:url(#clip-path-29);}.cls-47{fill:url(#Naamloos_verloop_15);}.cls-48{clip-path:url(#clip-path-30);}.cls-49{fill:url(#Naamloos_verloop_16);}.cls-50{clip-path:url(#clip-path-31);}.cls-51{fill:url(#Naamloos_verloop_17);}.cls-52{clip-path:url(#clip-path-32);}.cls-53{fill:url(#Naamloos_verloop_18);}.cls-54{clip-path:url(#clip-path-33);}.cls-55{fill:url(#Naamloos_verloop_19);}.cls-56{clip-path:url(#clip-path-34);}.cls-57{fill:url(#Naamloos_verloop_20);}.cls-58{clip-path:url(#clip-path-35);}.cls-59{fill:url(#Naamloos_verloop_21);}.cls-60{clip-path:url(#clip-path-36);}.cls-61{fill:url(#Naamloos_verloop_22);}.cls-62{clip-path:url(#clip-path-37);}.cls-63{fill:url(#Naamloos_verloop_23);}.cls-64{clip-path:url(#clip-path-39);}.cls-65{clip-path:url(#clip-path-40);}.cls-66{fill:url(#Naamloos_verloop_24);}.cls-67{clip-path:url(#clip-path-41);}.cls-68{fill:url(#Naamloos_verloop_25);}.cls-69{fill:#fff;}.cls-70{clip-path:url(#clip-path-43);}.cls-71{fill:url(#Naamloos_verloop_26);}.cls-72{clip-path:url(#clip-path-45);}.cls-73{fill:url(#Naamloos_verloop_27);}.cls-74{clip-path:url(#clip-path-47);}.cls-75{clip-path:url(#clip-path-48);}.cls-76{fill:url(#Naamloos_verloop_28);}.cls-77{clip-path:url(#clip-path-49);}.cls-78{fill:url(#Naamloos_verloop_29);}.cls-79{clip-path:url(#clip-path-51);}.cls-80{clip-path:url(#clip-path-52);}.cls-81{fill:url(#Naamloos_verloop_30);}.cls-82{clip-path:url(#clip-path-53);}.cls-83{fill:url(#Naamloos_verloop_31);}.cls-84{clip-path:url(#clip-path-54);}.cls-85{fill:url(#Naamloos_verloop_32);}.cls-86{clip-path:url(#clip-path-55);}.cls-87{fill:url(#Naamloos_verloop_33);}.cls-88{clip-path:url(#clip-path-56);}.cls-89{fill:url(#Naamloos_verloop_34);}.cls-90{clip-path:url(#clip-path-58);}.cls-91{clip-path:url(#clip-path-59);}.cls-92{fill:url(#Naamloos_verloop_35);}.cls-93{clip-path:url(#clip-path-60);}.cls-94{fill:url(#Naamloos_verloop_36);}.cls-95{clip-path:url(#clip-path-61);}.cls-96{fill:url(#Naamloos_verloop_37);}.cls-97{clip-path:url(#clip-path-62);}.cls-98{fill:url(#Naamloos_verloop_38);}.cls-99{clip-path:url(#clip-path-63);}.cls-100{fill:url(#Naamloos_verloop_39);}.cls-101{clip-path:url(#clip-path-65);}.cls-102{clip-path:url(#clip-path-66);}.cls-103{clip-path:url(#clip-path-67);}.cls-104{fill:url(#Naamloos_verloop_40);}.cls-105{clip-path:url(#clip-path-68);}.cls-106{fill:url(#Naamloos_verloop_41);}.cls-107{clip-path:url(#clip-path-69);}.cls-108{fill:url(#Naamloos_verloop_42);}</style><clipPath id="clip-path" transform="translate(4.98 36.73)"><rect class="cls-1" width="1279.75" height="800"/></clipPath><clipPath id="clip-path-2" transform="translate(4.98 36.73)"><path class="cls-1" d="M1268.8,333.83h0a832.94,832.94,0,0,1-169.09,74.64q-41.4,13.08-84.78,22.18-11.76,2.46-23.64,4.61l-1.15.21c-16.87,3-34,5.62-51.31,7.63l-1.65.19s0,0,0,0c-14.37,1.65-28.84,2.89-43.29,3.65-16,.84-32.1,1.09-48,.63q-4.24-.12-8.47-.31c-42.63-1.92-85.31-3-128-3.48q-5.42-.07-10.84-.12l-10.84-.11-15.18-.1q-33.29-.18-66.58,0-5.74,0-11.49.05h-.2c-3.39,0-6.79,0-10.17,0h-1.52l-85.68.48-3.12,0-9.87,0h0l-24.13.14-35.26.19-72.89.41-73.56.41L0,446.8v247H1279.74V327.33c-3.62,2.2-7.27,4.37-10.94,6.51"/></clipPath><linearGradient id="Naamloos_verloop" y1="800" x2="1" y2="800" gradientTransform="translate(784.95 143135.47) rotate(-180) scale(178.28)" gradientUnits="userSpaceOnUse"><stop offset="0" stop-color="#c4d143"/><stop offset="0.06" stop-color="#c4d143"/><stop offset="0.79" stop-color="#8ea83c"/><stop offset="1" stop-color="#8ea83c"/></linearGradient><clipPath id="clip-path-3" transform="translate(4.98 36.73)"><path class="cls-1" d="M928.52,196.43,918.34,476.24a3.09,3.09,0,0,0,3.09,3.2h18a3.09,3.09,0,0,0,3.09-3.18l-7.93-279.84Z"/></clipPath><linearGradient id="Naamloos_verloop_2" y1="799.97" x2="1" y2="799.97" gradientTransform="matrix(-152.97, 0, 0, 152.97, 896.86, -122032.86)" gradientUnits="userSpaceOnUse"><stop offset="0" stop-color="#daae82"/><stop offset="0.21" stop-color="#daae82"/><stop offset="0.45" stop-color="#c9976c"/><stop offset="1" stop-color="#c9976c"/></linearGradient><clipPath id="clip-path-4" transform="translate(4.98 36.73)"><path class="cls-1" d="M927.74,184.86,889.16,291.1l-40,110.05a3.06,3.06,0,0,0,2.88,4.11h154.7a4.74,4.74,0,0,0,4.45-6.35L972.08,291.1,933.5,184.86a3.06,3.06,0,0,0-5.76,0"/></clipPath><linearGradient id="Naamloos_verloop_3" y1="800.18" x2="1" y2="800.18" gradientTransform="matrix(0, 179.35, 179.35, 0, -142585.77, 237.81)" gradientUnits="userSpaceOnUse"><stop offset="0" stop-color="#0b8b44"/><stop offset="0.11" stop-color="#0b8b44"/><stop offset="0.68" stop-color="#036a3b"/><stop offset="1" stop-color="#036a3b"/></linearGradient><clipPath id="clip-path-5" transform="translate(4.98 36.73)"><rect class="cls-1" width="1279.74" height="800"/></clipPath><clipPath id="clip-path-6" transform="translate(4.98 36.73)"><rect class="cls-1" x="836.7" y="474.98" width="162" height="8"/></clipPath><clipPath id="clip-path-7" transform="translate(4.98 36.73)"><rect class="cls-1" x="449.7" y="464.98" width="129" height="13"/></clipPath><clipPath id="clip-path-8" transform="translate(4.98 36.73)"><path class="cls-1" d="M0,389,.27,772.63l1279.47,1.75V610.24l-380.58-2.08c-42-.23-84,0-126,1.82-25.23,1.11-51.22-1.39-76-5.72-69.31-12.15-132.42-39.88-182.67-78.7l-40.12-31a388.5,388.5,0,0,1-40.94-36.18c-60.83-62.48-156.95-69.53-156.95-69.53Z"/></clipPath><linearGradient id="Naamloos_verloop_4" y1="800" x2="1" y2="800" gradientTransform="matrix(0, 424.54, 424.54, 0, -338994.24, 363.18)" gradientUnits="userSpaceOnUse"><stop offset="0" stop-color="#0a8949"/><stop offset="0.49" stop-color="#036a3b"/><stop offset="1" stop-color="#036a3b"/></linearGradient><clipPath id="clip-path-9" transform="translate(4.98 36.73)"><path class="cls-1" d="M1147.52,355.43l-10.18,279.81a3.09,3.09,0,0,0,3.09,3.21h18a3.09,3.09,0,0,0,3.09-3.18l-7.93-279.84Z"/></clipPath><linearGradient id="Naamloos_verloop_5" x1="0" y1="799.97" x2="1" y2="799.97" gradientTransform="matrix(-152.97, 0, 0, 152.97, 1115.86, -121873.86)" xlink:href="#Naamloos_verloop_2"/><clipPath id="clip-path-10" transform="translate(4.98 36.73)"><path class="cls-1" d="M1146.74,343.86l-38.58,106.23-40,110.05a3.06,3.06,0,0,0,2.88,4.11h154.7a4.74,4.74,0,0,0,4.45-6.35l-39.15-107.81L1152.5,343.86a3.06,3.06,0,0,0-5.76,0"/></clipPath><linearGradient id="Naamloos_verloop_6" x1="0" y1="800.18" x2="1" y2="800.18" gradientTransform="matrix(0, 179.35, 179.35, 0, -142366.77, 396.82)" xlink:href="#Naamloos_verloop_3"/><clipPath id="clip-path-12" transform="translate(4.98 36.73)"><rect class="cls-1" x="484.7" y="665.98" width="211.3" height="32"/></clipPath><clipPath id="clip-path-13" transform="translate(4.98 36.73)"><rect class="cls-1" x="177.09" y="658.47" width="274.55" height="67.18"/></clipPath><clipPath id="clip-path-14" transform="translate(4.98 36.73)"><rect class="cls-1" x="60.7" y="458.98" width="211" height="13"/></clipPath><clipPath id="clip-path-15" transform="translate(4.98 36.73)"><rect class="cls-1" x="978.7" y="628.98" width="216" height="26"/></clipPath><clipPath id="clip-path-16" transform="translate(4.98 36.73)"><rect class="cls-1" x="174.7" y="476.98" width="211" height="13"/></clipPath><clipPath id="clip-path-17" transform="translate(4.98 36.73)"><rect class="cls-1" x="987.7" y="763.98" width="113" height="8"/></clipPath><clipPath id="clip-path-18" transform="translate(4.98 36.73)"><rect class="cls-1" x="152.7" y="476.98" width="216" height="22"/></clipPath><clipPath id="clip-path-19" transform="translate(4.98 36.73)"><path class="cls-1" d="M1082.64,339.82,1072.1,646a3.3,3.3,0,0,0,3.2,3.51h18.58a3.3,3.3,0,0,0,3.2-3.48l-8.21-306.17Z"/></clipPath><linearGradient id="Naamloos_verloop_7" y1="800" x2="1" y2="800" gradientTransform="matrix(0, 199.29, 199.29, 0, -158342.98, 474.73)" gradientUnits="userSpaceOnUse"><stop offset="0" stop-color="#daae82"/><stop offset="0.47" stop-color="#daae82"/><stop offset="0.76" stop-color="#c9976c"/><stop offset="1" stop-color="#c9976c"/></linearGradient><clipPath id="clip-path-20" transform="translate(4.98 36.73)"><path class="cls-1" d="M1036.09,366.89c0,104.86,13.39,171.78,47,171.78S1158,471.75,1158,366.89s-11.25-169.52-44.9-169.52-77,64.66-77,169.52"/></clipPath><linearGradient id="Naamloos_verloop_8" y1="800" x2="1" y2="800" gradientTransform="matrix(0, -171.33, -171.33, 0, 138162.71, 409.76)" gradientUnits="userSpaceOnUse"><stop offset="0" stop-color="#9aba3c"/><stop offset="0.24" stop-color="#9aba3c"/><stop offset="0.38" stop-color="#9fbd3a"/><stop offset="0.54" stop-color="#adc435"/><stop offset="0.71" stop-color="#c4d12d"/><stop offset="0.76" stop-color="#ccd52a"/><stop offset="1" stop-color="#ccd52a"/></linearGradient><clipPath id="clip-path-22" transform="translate(4.98 36.73)"><rect class="cls-1" x="1049.7" y="646.98" width="19" height="4"/></clipPath><clipPath id="clip-path-23" transform="translate(4.98 36.73)"><path class="cls-1" d="M1031.64,448.21l-7,193a2.13,2.13,0,0,0,2.12,2.21h12.3a2.13,2.13,0,0,0,2.12-2.19l-5.44-193Z"/></clipPath><linearGradient id="Naamloos_verloop_9" y1="799.98" x2="1" y2="799.98" gradientTransform="matrix(-152.97, 0, 0, 152.97, 997.3, -121826.38)" gradientUnits="userSpaceOnUse"><stop offset="0" stop-color="#daae82"/><stop offset="0.17" stop-color="#daae82"/><stop offset="0.76" stop-color="#c9976c"/><stop offset="1" stop-color="#c9976c"/></linearGradient><clipPath id="clip-path-24" transform="translate(4.98 36.73)"><path class="cls-1" d="M1031.1,393.95l-26.44,73.28-27.39,75.92a2.11,2.11,0,0,0,2,2.84h106a3.27,3.27,0,0,0,3.05-4.38l-26.83-74.37-26.44-73.28a2.1,2.1,0,0,0-3.95,0"/></clipPath><linearGradient id="Naamloos_verloop_10" y1="800.12" x2="1" y2="800.12" gradientTransform="matrix(0, 129.9, 129.9, 0, -102899.13, 425.38)" gradientUnits="userSpaceOnUse"><stop offset="0" stop-color="#0b8b44"/><stop offset="0.48" stop-color="#05743e"/><stop offset="0.81" stop-color="#036a3b"/><stop offset="1" stop-color="#036a3b"/></linearGradient><clipPath id="clip-path-25" transform="translate(4.98 36.73)"><path class="cls-1" d="M481.64,272.22l-7,193a2.13,2.13,0,0,0,2.12,2.21h12.3a2.13,2.13,0,0,0,2.12-2.19l-5.44-193Z"/></clipPath><linearGradient id="Naamloos_verloop_11" x1="0" y1="799.98" x2="1" y2="799.98" gradientTransform="matrix(-152.97, 0, 0, 152.97, 447.36, -122002.38)" xlink:href="#Naamloos_verloop_9"/><clipPath id="clip-path-26" transform="translate(4.98 36.73)"><path class="cls-1" d="M481.1,217.95l-26.44,73.28-27.39,75.92a2.11,2.11,0,0,0,2,2.84h106a3.26,3.26,0,0,0,3.05-4.38l-26.83-74.37-26.44-73.28a2.1,2.1,0,0,0-3.95,0"/></clipPath><linearGradient id="Naamloos_verloop_12" x1="0" y1="800.12" x2="1" y2="800.12" gradientTransform="matrix(0, 129.9, 129.9, 0, -103449.13, 249.37)" xlink:href="#Naamloos_verloop_10"/><clipPath id="clip-path-27" transform="translate(4.98 36.73)"><path class="cls-1" d="M302.52,200.43,292.34,480.24a3.09,3.09,0,0,0,3.09,3.2h18a3.09,3.09,0,0,0,3.09-3.18l-7.93-279.84Z"/></clipPath><linearGradient id="Naamloos_verloop_13" x1="0" y1="799.97" x2="1" y2="799.97" gradientTransform="matrix(-152.97, 0, 0, 152.97, 270.87, -122028.86)" xlink:href="#Naamloos_verloop_2"/><clipPath id="clip-path-28" transform="translate(4.98 36.73)"><path class="cls-1" d="M303.74,180.59,265.16,286.82l-40,110.05a3.06,3.06,0,0,0,2.88,4.11h154.7a4.74,4.74,0,0,0,4.45-6.35L348.08,286.82,309.5,180.59a3.07,3.07,0,0,0-5.76,0"/></clipPath><linearGradient id="Naamloos_verloop_14" x1="0" y1="800" x2="1" y2="800" gradientTransform="matrix(162.51, 0, 0, -162.51, 229.99, 130333.01)" xlink:href="#Naamloos_verloop_3"/><clipPath id="clip-path-29" transform="translate(4.98 36.73)"><path class="cls-1" d="M226,71a54,54,0,1,0,54-54,54,54,0,0,0-54,54"/></clipPath><linearGradient id="Naamloos_verloop_15" y1="800" x2="1" y2="800" gradientTransform="matrix(0, 136.03, 136.03, 0, -108545.81, 11.3)" gradientUnits="userSpaceOnUse"><stop offset="0" stop-color="#f8e4b4"/><stop offset="0.42" stop-color="#f8e4b4"/><stop offset="0.75" stop-color="#ffe194"/><stop offset="1" stop-color="#ffe194"/></linearGradient><clipPath id="clip-path-30" transform="translate(4.98 36.73)"><path class="cls-1" d="M547.43,291.62c0,27.11,17.58,49.09,39.27,49.09s39.27-22,39.27-49.09-17.58-49.09-39.27-49.09-39.27,22-39.27,49.09"/></clipPath><linearGradient id="Naamloos_verloop_16" y1="800" x2="1" y2="800" gradientTransform="translate(78082.58 242.42) rotate(90) scale(96.87)" gradientUnits="userSpaceOnUse"><stop offset="0" stop-color="#c4d143"/><stop offset="0.11" stop-color="#c4d143"/><stop offset="0.59" stop-color="#97af3d"/><stop offset="0.68" stop-color="#8ea83c"/><stop offset="1" stop-color="#8ea83c"/></linearGradient><clipPath id="clip-path-31" transform="translate(4.98 36.73)"><path class="cls-1" d="M586.7,350.53c0,27.11,17.58,49.09,39.27,49.09s39.27-22,39.27-49.09S647.66,301.44,626,301.44s-39.27,22-39.27,49.09"/></clipPath><linearGradient id="Naamloos_verloop_17" y1="800" x2="1" y2="800" gradientTransform="translate(-107249.42 415.2) rotate(-90) scale(134.84)" gradientUnits="userSpaceOnUse"><stop offset="0" stop-color="#9a9e37"/><stop offset="0.24" stop-color="#9a9e37"/><stop offset="0.76" stop-color="#babb33"/><stop offset="1" stop-color="#babb33"/></linearGradient><clipPath id="clip-path-32" transform="translate(4.98 36.73)"><path class="cls-1" d="M488.52,337.08c0,32.54,17.58,58.91,39.27,58.91s39.27-26.37,39.27-58.91-17.58-58.91-39.27-58.91-39.27,26.37-39.27,58.91"/></clipPath><linearGradient id="Naamloos_verloop_18" y1="800" x2="1" y2="800" gradientTransform="translate(82205.23 275.36) rotate(90) scale(102.1)" gradientUnits="userSpaceOnUse"><stop offset="0" stop-color="#c3cd2f"/><stop offset="0.24" stop-color="#c3cd2f"/><stop offset="0.76" stop-color="#a7ae37"/><stop offset="1" stop-color="#a7ae37"/></linearGradient><clipPath id="clip-path-33" transform="translate(4.98 36.73)"><path class="cls-1" d="M576.64,361.35l-4.86,141.21a3.83,3.83,0,0,1-6.13,2.93,293.65,293.65,0,0,1-23.13-20v9c.32,5.45,15,15,25.55,21.17a6.21,6.21,0,0,1,3.07,5.57L566,671a3.34,3.34,0,0,0,3.24,3.55H588a3.33,3.33,0,0,0,3.23-3.52l-4-149.54a7,7,0,0,1,3.49-6.26c10.49-6.13,38.86-24.85,53.79-55.59L651,441l-5.41-2.14s-17,34.93-53.76,56.11a3.53,3.53,0,0,1-5.31-2.94l-3.59-130.71Z"/></clipPath><linearGradient id="Naamloos_verloop_19" y1="800" x2="1" y2="800" gradientTransform="translate(115316.21 468.11) rotate(90) scale(143.39)" gradientUnits="userSpaceOnUse"><stop offset="0" stop-color="#daae82"/><stop offset="0.35" stop-color="#daae82"/><stop offset="0.49" stop-color="#d9ac80"/><stop offset="0.54" stop-color="#d3a579"/><stop offset="0.58" stop-color="#cb996e"/><stop offset="0.59" stop-color="#c9976c"/><stop offset="1" stop-color="#c9976c"/></linearGradient><clipPath id="clip-path-34" transform="translate(4.98 36.73)"><path class="cls-1" d="M626,409.44c0,27.11,17.58,49.09,39.27,49.09s39.27-22,39.27-49.09-17.58-49.09-39.27-49.09S626,382.33,626,409.44"/></clipPath><linearGradient id="Naamloos_verloop_20" y1="800" x2="1" y2="800" gradientTransform="translate(126726.32 317.73) rotate(90) scale(157.58)" gradientUnits="userSpaceOnUse"><stop offset="0" stop-color="#c9db46"/><stop offset="0.31" stop-color="#c9db46"/><stop offset="0.44" stop-color="#c4d745"/><stop offset="0.59" stop-color="#b5ca43"/><stop offset="0.75" stop-color="#9cb43e"/><stop offset="0.83" stop-color="#8ea83c"/><stop offset="1" stop-color="#8ea83c"/></linearGradient><clipPath id="clip-path-35" transform="translate(4.98 36.73)"><path class="cls-1" d="M524.16,390.85c0,47.12,26.38,85.32,58.91,85.32S642,438,642,390.85s-26.37-85.32-58.91-85.32-58.91,38.2-58.91,85.32"/></clipPath><linearGradient id="Naamloos_verloop_21" x1="0" y1="800" x2="1" y2="800" gradientTransform="translate(107644 317.31) rotate(90) scale(133.83)" xlink:href="#Naamloos_verloop_16"/><clipPath id="clip-path-36" transform="translate(4.98 36.73)"><path class="cls-1" d="M479.52,395.53a36,36,0,1,0,36-36,36,36,0,0,0-36,36"/></clipPath><linearGradient id="Naamloos_verloop_22" y1="800" x2="1" y2="800" gradientTransform="matrix(0, 89.5, -89.5, 0, 72115.25, 346.18)" gradientUnits="userSpaceOnUse"><stop offset="0" stop-color="#b4c63c"/><stop offset="0.11" stop-color="#b4c63c"/><stop offset="0.29" stop-color="#aec13c"/><stop offset="0.54" stop-color="#9db43c"/><stop offset="0.69" stop-color="#8ea83c"/><stop offset="1" stop-color="#8ea83c"/></linearGradient><clipPath id="clip-path-37" transform="translate(4.98 36.73)"><path class="cls-1" d="M488.52,463c0,22.37,16.12,40.5,36,40.5s36-18.13,36-40.5-16.12-40.5-36-40.5-36,18.13-36,40.5"/></clipPath><linearGradient id="Naamloos_verloop_23" y1="800" x2="1" y2="800" gradientTransform="translate(88077.99 404.36) rotate(90) scale(109.44)" gradientUnits="userSpaceOnUse"><stop offset="0" stop-color="#e2b634"/><stop offset="0.36" stop-color="#cbc038"/><stop offset="0.72" stop-color="#bac73a"/><stop offset="1" stop-color="#b4c93b"/></linearGradient><clipPath id="clip-path-39" transform="translate(4.98 36.73)"><rect class="cls-1" x="114.7" y="690.98" width="41" height="12"/></clipPath><clipPath id="clip-path-40" transform="translate(4.98 36.73)"><polygon class="cls-1" points="149.19 334.86 169.43 362.11 140.23 351.25 137.79 357.81 177.09 372.42 196.19 398.14 190.19 465.84 226.19 465.84 219.18 391.19 219.48 390.96 192.23 354.25 219.01 327.48 214.06 322.52 188.01 348.57 167.66 321.14 149.19 334.86"/></clipPath><linearGradient id="Naamloos_verloop_24" y1="800" x2="1" y2="800" gradientTransform="matrix(0, 166.03, -166.03, 0, 133005.75, 307.79)" gradientUnits="userSpaceOnUse"><stop offset="0" stop-color="#daae82"/><stop offset="0.12" stop-color="#daae82"/><stop offset="0.43" stop-color="#c9976c"/><stop offset="1" stop-color="#c9976c"/></linearGradient><clipPath id="clip-path-41" transform="translate(4.98 36.73)"><path class="cls-1" d="M46.2,247.84a4.17,4.17,0,0,0,0,.5,4.17,4.17,0,0,0,0,.5c.53,51.45,42.64,93,94.49,93s94-41.55,94.49-93a4.17,4.17,0,0,0,0-.5,4.17,4.17,0,0,0,0-.5c-.53-51.45-42.64-93-94.49-93s-94,41.55-94.49,93"/></clipPath><linearGradient id="Naamloos_verloop_25" y1="800" x2="1" y2="800" gradientTransform="translate(167804.25 126.08) rotate(90) scale(209.58)" gradientUnits="userSpaceOnUse"><stop offset="0" stop-color="#c4d143"/><stop offset="0.16" stop-color="#c4d143"/><stop offset="0.6" stop-color="#97af3d"/><stop offset="0.68" stop-color="#8ea83c"/><stop offset="1" stop-color="#8ea83c"/></linearGradient><clipPath id="clip-path-43" transform="translate(4.98 36.73)"><path class="cls-1" d="M181.33,278.84c-.05.67-.08,1.33-.1,2s0,1.33.1,2c1.89,26.81,22.59,47.93,47.86,47.93s46-21.12,47.86-47.93c0-.67.08-1.33.1-2s-.05-1.33-.1-2c-1.89-26.81-22.59-47.93-47.86-47.93s-46,21.12-47.86,47.93"/></clipPath><linearGradient id="Naamloos_verloop_26" y1="800" x2="1" y2="800" gradientTransform="translate(190049.26 177.24) rotate(90) scale(237.27)" gradientUnits="userSpaceOnUse"><stop offset="0" stop-color="#c3cd2f"/><stop offset="0.44" stop-color="#c3cd2f"/><stop offset="0.74" stop-color="#959637"/><stop offset="1" stop-color="#959637"/></linearGradient><clipPath id="clip-path-45" transform="translate(4.98 36.73)"><path class="cls-1" d="M57.2,320.85c0,.16,0,.31,0,.47s0,.31,0,.46c.46,28.25,21.77,51,48,51s47.53-22.75,48-51c0-.15,0-.31,0-.46s0-.31,0-.47c-.46-28.25-21.77-51-48-51s-47.53,22.75-48,51"/></clipPath><linearGradient id="Naamloos_verloop_27" y1="800" x2="1" y2="800" gradientTransform="translate(167.75 96611.6) rotate(180) scale(120.36)" gradientUnits="userSpaceOnUse"><stop offset="0" stop-color="#b9d232"/><stop offset="0.16" stop-color="#b9d232"/><stop offset="0.68" stop-color="#9aba3c"/><stop offset="1" stop-color="#9aba3c"/></linearGradient><clipPath id="clip-path-47" transform="translate(4.98 36.73)"><rect class="cls-1" x="248.7" y="718.98" width="19" height="4"/></clipPath><clipPath id="clip-path-48" transform="translate(4.98 36.73)"><path class="cls-1" d="M129.79,589.36a10.12,10.12,0,0,0-4,2.51c-.61.54-1.21,1.1-1.79,1.66L120.38,693a3.8,3.8,0,0,0,3.8,4h22.11a3.81,3.81,0,0,0,3.81-3.93l-2.91-102.92a9.26,9.26,0,0,1-2.87,1.9c-2.45.89-4.94-.19-7.44-1.28a14.74,14.74,0,0,0-5.59-1.6,5.93,5.93,0,0,0-1.49.19"/></clipPath><linearGradient id="Naamloos_verloop_28" y1="800" x2="1" y2="800" gradientTransform="matrix(0, 45.71, 45.71, 0, -36425.86, 612.75)" gradientUnits="userSpaceOnUse"><stop offset="0" stop-color="#a57b5a"/><stop offset="0.92" stop-color="#87634a"/><stop offset="1" stop-color="#87634a"/></linearGradient><clipPath id="clip-path-49" transform="translate(4.98 36.73)"><path class="cls-1" d="M288.1,608l-12.12.85a3.11,3.11,0,0,0-.51.07,44.94,44.94,0,0,0-5.53,1.32c-14.68,4.43-23.85,15.26-29.57,26.87a97.23,97.23,0,0,0-8.27,27.05l-40.65,1.37c.6.54,1.2,1.1,1.78,1.67A10.13,10.13,0,0,1,196,671c1.61,4.78-3.72,10.06-1.67,14.68a9.24,9.24,0,0,0,2.1,2.73l14.82-1.46c4.66,21.55,28.43,31.59,38.79,35l1.43.45a3,3,0,0,0,3.9-2.5l.26-2.14a3,3,0,0,0-2.21-3.31q-2.64-.78-5-1.72c-16.09-6.42-23.12-18.2-26.19-26.83l37.59-3.71,58.54-5.78,37.85-3.74L433.7,665a3.82,3.82,0,0,0-.53-7.62l-93,3.13-12.1.41-4,.14-29.51,1-34.05,1.14-17.85.6a61.16,61.16,0,0,1,4.63-14.37,56,56,0,0,1,24.69-25.64,47.65,47.65,0,0,1,9.61-4l8.14-2.68a3.85,3.85,0,0,0,2.61-3.9l-.12-1.71a3.83,3.83,0,0,0-3.82-3.57h-.27"/></clipPath><linearGradient id="Naamloos_verloop_29" x1="0" y1="800.02" x2="1" y2="800.02" gradientTransform="matrix(-43.49, 0, 0, 43.49, 377.25, -34124.01)" xlink:href="#Naamloos_verloop_28"/><clipPath id="clip-path-51" transform="translate(4.98 36.73)"><rect class="cls-1" x="600.14" y="677.98" width="19" height="4"/></clipPath><clipPath id="clip-path-52" transform="translate(4.98 36.73)"><path class="cls-1" d="M143.92,452.75c0,12.38,6.36,23.57,16.52,31.23h145.2a35.31,35.31,0,0,0,3-14.2c0-23.51-22.89-42.59-51.11-42.59a58.18,58.18,0,0,0-19.08,3.12c-9-12.1-25-20.16-43.38-20.16-28.22,0-51.11,19.08-51.11,42.59"/></clipPath><linearGradient id="Naamloos_verloop_30" y1="800.09" x2="1" y2="800.09" gradientTransform="matrix(0, 132.04, 132.04, 0, -105417.94, 375.2)" gradientUnits="userSpaceOnUse"><stop offset="0" stop-color="#8ea83c"/><stop offset="0.16" stop-color="#8ea83c"/><stop offset="1" stop-color="#758838"/><stop offset="1" stop-color="#758838"/></linearGradient><clipPath id="clip-path-53" transform="translate(4.98 36.73)"><path class="cls-1" d="M190.39,488H370.15c-11.25-8.79-26.29-14.06-42.81-14.06a72.06,72.06,0,0,0-23.62,3.87c-11.11-15-31-25-53.71-25-27.56,0-51,14.69-59.62,35.15"/></clipPath><linearGradient id="Naamloos_verloop_31" y1="800.12" x2="1" y2="800.12" gradientTransform="matrix(0, 118.43, 118.43, 0, -94481.24, 412.95)" gradientUnits="userSpaceOnUse"><stop offset="0" stop-color="#8ea83c"/><stop offset="0.16" stop-color="#8ea83c"/><stop offset="1" stop-color="#6f8035"/><stop offset="1" stop-color="#6f8035"/></linearGradient><clipPath id="clip-path-54" transform="translate(4.98 36.73)"><path class="cls-1" d="M910.32,441.91a40.21,40.21,0,0,0-13.18-2.16c-19.5,0-35.31,13.18-35.31,29.42a24.38,24.38,0,0,0,2,9.81H964.18c7-5.3,11.42-13,11.42-21.58,0-16.24-15.81-29.42-35.31-29.42-12.67,0-23.77,5.57-30,13.93"/></clipPath><linearGradient id="Naamloos_verloop_32" x1="0" y1="800.09" x2="1" y2="800.09" gradientTransform="translate(968.38 73437.32) rotate(180) scale(91.22)" xlink:href="#Naamloos_verloop_30"/><clipPath id="clip-path-55" transform="translate(4.98 36.73)"><path class="cls-1" d="M651.42,630.69a13.66,13.66,0,0,0-2.75,1.3c-1.26,1-.34,2.77-.31,2.75h0c.71.69,1.68.59,2.77.54,1.86-.08,3.55-.64,4.19-1.38a1.8,1.8,0,0,0,.36-1.48,8.93,8.93,0,0,0-1.1-3.41,17.2,17.2,0,0,1-3.16,1.69"/></clipPath><linearGradient id="Naamloos_verloop_33" x1="0" y1="799.98" x2="1" y2="799.98" gradientTransform="matrix(0, 5.41, 5.41, 0, -3675.74, 630.38)" xlink:href="#Naamloos_verloop_23"/><clipPath id="clip-path-56" transform="translate(4.98 36.73)"><path class="cls-1" d="M654.8,632.26a10.94,10.94,0,0,0-2.64,1c-1.05.65-1.15,1.56-.23,2.25.54.4.9.8,2.64.64h0s4-.71,5.12-1.71a3.53,3.53,0,0,0,.91-1.7,6,6,0,0,1,1.41-2.07c-2.51.44-4.93,1-7.21,1.6"/></clipPath><linearGradient id="Naamloos_verloop_34" x1="0" y1="799.93" x2="1" y2="799.93" gradientTransform="matrix(0, 7.42, 7.42, 0, -5282.17, 629.86)" xlink:href="#Naamloos_verloop_23"/><clipPath id="clip-path-58" transform="translate(4.98 36.73)"><rect class="cls-1" x="420.7" y="674.98" width="19" height="4"/></clipPath><clipPath id="clip-path-59" transform="translate(4.98 36.73)"><path class="cls-1" d="M254.22,707.17a9.08,9.08,0,0,0-2.64,2.32,5.14,5.14,0,0,0-.23,5.32c.54,1,.9,1.88,2.64,1.51h0s4-1.68,5.12-4a14.48,14.48,0,0,0,.91-4,21,21,0,0,1,1.41-4.89,43.79,43.79,0,0,0-7.21,3.8"/></clipPath><linearGradient id="Naamloos_verloop_35" x1="0" y1="799.92" x2="1" y2="799.92" gradientTransform="matrix(0, 10.8, 10.8, 0, -8384.66, 705.34)" xlink:href="#Naamloos_verloop_23"/><clipPath id="clip-path-60" transform="translate(4.98 36.73)"><path class="cls-1" d="M245.14,614.26a14.4,14.4,0,0,0,.91,4c1.13,2.36,5.13,4.08,5.12,4h0c1.74.37,2.11-.56,2.64-1.51a5.14,5.14,0,0,0-.23-5.32,9.09,9.09,0,0,0-2.64-2.33,43.9,43.9,0,0,0-7.21-3.8,21,21,0,0,1,1.41,4.89"/></clipPath><linearGradient id="Naamloos_verloop_36" x1="0" y1="799.92" x2="1" y2="799.92" gradientTransform="matrix(-10.8, 0, 0, -10.8, 253.91, 9256.62)" xlink:href="#Naamloos_verloop_30"/><clipPath id="clip-path-61" transform="translate(4.98 36.73)"><path class="cls-1" d="M608.85,674.54a70.68,70.68,0,0,0-8.07.67,22.62,22.62,0,0,1,4,1.93,14.56,14.56,0,0,0,3.08,1.68c2.29.77,6.54.21,6.52.19h0c1.63-.43,1.39-1,1.28-1.69-.2-1.14-1.52-2.17-3.28-2.56a12.08,12.08,0,0,0-2.6-.23h-.9"/></clipPath><linearGradient id="Naamloos_verloop_37" x1="0" y1="799.98" x2="1" y2="799.98" gradientTransform="translate(5898.88 673.75) rotate(90) scale(6.61)" xlink:href="#Naamloos_verloop_30"/><clipPath id="clip-path-62" transform="translate(4.98 36.73)"><path class="cls-1" d="M1055.44,644.43a14.23,14.23,0,0,0,2.43,2.64c2,1.46,6.21,2.07,6.19,2h0c1.7,0,1.65-.69,1.75-1.42.16-1.25-.78-2.72-2.35-3.63a13.34,13.34,0,0,0-3.29-1.22,64.29,64.29,0,0,0-8-1.57,21.82,21.82,0,0,1,3.23,3.17"/></clipPath><linearGradient id="Naamloos_verloop_38" x1="0" y1="799.98" x2="1" y2="799.98" gradientTransform="matrix(-1.95, 7, -10.38, -2.98, 9369.94, 3064.93)" xlink:href="#Naamloos_verloop_30"/><clipPath id="clip-path-63" transform="translate(4.98 36.73)"><path class="cls-1" d="M427.9,673c-1.68.53-3.54,1.69-4.1,2.77a1.7,1.7,0,0,0-.09,1.39,1.23,1.23,0,0,0,.79.91,4.81,4.81,0,0,0,2.65-.29,24.86,24.86,0,0,0,3-1.3l6.72-3.27.46,0a9.24,9.24,0,0,1-1.32,0c-1.31-.09-2.4-.41-3.65-.56a10.93,10.93,0,0,0-1.33-.08,10.2,10.2,0,0,0-3.1.48"/></clipPath><linearGradient id="Naamloos_verloop_39" y1="800.12" x2="1" y2="800.12" gradientTransform="matrix(-5.96, 5.8, 6.58, 0.82, -4823.94, 49.48)" gradientUnits="userSpaceOnUse"><stop offset="0" stop-color="#c3cd2f"/><stop offset="0.31" stop-color="#c3cd2f"/><stop offset="0.74" stop-color="#959637"/><stop offset="1" stop-color="#959637"/></linearGradient><clipPath id="clip-path-65" transform="translate(4.98 36.73)"><rect class="cls-1" x="708.7" y="677.98" width="19" height="4"/></clipPath><clipPath id="clip-path-66" transform="translate(4.98 36.73)"><rect class="cls-1" x="535" y="679" width="19" height="4"/></clipPath><clipPath id="clip-path-67" transform="translate(4.98 36.73)"><path class="cls-1" d="M718.07,675.1a10.31,10.31,0,0,0-4,1.89c-1,.77-1.78,1.59-2.87,2.33A9.25,9.25,0,0,1,710,680l.42-.19,7.45-.57a24.79,24.79,0,0,0,3.23-.39,4.81,4.81,0,0,0,2.43-1.08,1.23,1.23,0,0,0,.22-1.19,1.71,1.71,0,0,0-.78-1.15,5.43,5.43,0,0,0-2.71-.56,10.32,10.32,0,0,0-2.22.24"/></clipPath><linearGradient id="Naamloos_verloop_40" x1="0" y1="799.94" x2="1" y2="799.94" gradientTransform="matrix(8.07, 1.99, -5.26, 4.03, 4927.91, -2511.41)" xlink:href="#Naamloos_verloop_39"/><clipPath id="clip-path-68" transform="translate(4.98 36.73)"><path class="cls-1" d="M538.85,677.42a1.7,1.7,0,0,0-.78,1.15,1.23,1.23,0,0,0,.22,1.18,4.8,4.8,0,0,0,2.43,1.08,25,25,0,0,0,3.23.39l7.45.57.42.2a9.37,9.37,0,0,1-1.14-.67c-1.09-.74-1.87-1.56-2.87-2.33a10.17,10.17,0,0,0-6.25-2.13,5.45,5.45,0,0,0-2.71.56"/></clipPath><linearGradient id="Naamloos_verloop_41" y1="799.94" x2="1" y2="799.94" gradientTransform="matrix(-8.07, 1.99, 5.26, 4.03, -3656.15, -2508.46)" gradientUnits="userSpaceOnUse"><stop offset="0" stop-color="#e7e621"/><stop offset="1" stop-color="#bd714b"/></linearGradient><clipPath id="clip-path-69" transform="translate(4.98 36.73)"><path class="cls-1" d="M803.08,336.55a1.06,1.06,0,0,0-1.06,1l-2.16,78.66a2.15,2.15,0,0,1-3.21,1.81c-19.82-11.39-30.21-29.34-32.37-33.39a1.05,1.05,0,0,0-1.32-.48l-1.46.58a1.06,1.06,0,0,0-.61,1.33l3.63,10.37c9.11,18.75,26.41,30.16,32.8,33.9a4.28,4.28,0,0,1,2.12,3.81L797,525.35a2,2,0,0,0,2,2.15h11.46a2,2,0,0,0,2-2.17l-3.14-91.27a3.77,3.77,0,0,1,1.86-3.39c6.41-3.76,15.39-9.59,15.59-12.92v-3a1.06,1.06,0,0,0-1.78-.77c-2.63,2.45-7.74,7.07-12.34,10.5a2.33,2.33,0,0,1-3.72-1.8l-2.93-85.07a1.06,1.06,0,0,0-1.06-1Z"/></clipPath><linearGradient id="Naamloos_verloop_42" x1="0" y1="800" x2="1" y2="800" gradientTransform="matrix(0, 87.43, 87.43, 0, -69141.8, 415.98)" xlink:href="#Naamloos_verloop_28"/></defs><title>background_image_scene2</title><g class="cls-2"><rect class="cls-3" x="4.98" y="36.73" width="1279.74" height="800"/><g class="cls-4"><rect class="cls-5" x="450.47" y="-131.02" width="378.8" height="1283.21" transform="translate(128.14 1182.26) rotate(-89.45)"/></g><g class="cls-6"><rect class="cls-7" x="788.57" y="321.15" width="283.66" height="33.57" transform="translate(566.93 1293.42) rotate(-88.11)"/></g><g class="cls-8"><rect class="cls-9" x="800.89" y="156.12" width="259.04" height="275.86" transform="translate(-3.81 595.42) rotate(-33.27)"/></g><g class="cls-10"><g class="cls-11"><g class="cls-12"><path class="cls-13" d="M998.7,479c0,2.21-36.27,4-81,4s-81-1.79-81-4,36.26-4,81-4,81,1.79,81,4" transform="translate(4.98 36.73)"/></g></g><g class="cls-11"><g class="cls-14"><path class="cls-13" d="M578.7,471.48c0,3.59-28.88,6.5-64.5,6.5s-64.5-2.91-64.5-6.5,28.88-6.5,64.5-6.5,64.5,2.91,64.5,6.5" transform="translate(4.98 36.73)"/></g></g></g><g class="cls-15"><rect class="cls-16" x="-2.44" y="380.61" width="1284.62" height="402.03" transform="translate(-2.48 45.06) rotate(-0.74)"/></g><g class="cls-17"><rect class="cls-18" x="1007.57" y="480.15" width="283.66" height="33.57" transform="translate(619.79 1666.05) rotate(-88.11)"/></g><g class="cls-19"><rect class="cls-20" x="1019.89" y="315.12" width="259.04" height="275.86" transform="translate(-55.14 741.64) rotate(-33.27)"/></g><g class="cls-10"><g class="cls-11"><g class="cls-21"><path class="cls-13" d="M696,682c0,8.84-47.3,16-105.65,16S484.7,690.82,484.7,682s47.3-16,105.65-16S696,673.14,696,682" transform="translate(4.98 36.73)"/></g></g><g class="cls-11"><g class="cls-22"><path class="cls-13" d="M451.64,670.87c.26,8.83-60.38,17.83-135.46,20.1-23.44.71-45.51.68-64.8,0,15.72,6.87,25.55,16.06,23.79,23.68-2.43,10.59-26.32,14.13-53.35,7.91s-47-19.84-44.53-30.43c.83-3.63,4.19-6.44,9.34-8.29-4.41-1.43-6.82-3-6.87-4.77-.26-8.83,60.38-17.83,135.46-20.1S451.37,662,451.64,670.87" transform="translate(4.98 36.73)"/></g></g><g class="cls-11"><g class="cls-23"><path class="cls-13" d="M271.7,465.48c0,3.59-47.23,6.5-105.5,6.5s-105.5-2.91-105.5-6.5,47.23-6.5,105.5-6.5,105.5,2.91,105.5,6.5" transform="translate(4.98 36.73)"/></g></g><g class="cls-11"><g class="cls-24"><path class="cls-13" d="M1194.7,642c0,7.18-48.35,13-108,13s-108-5.82-108-13,48.35-13,108-13,108,5.82,108,13" transform="translate(4.98 36.73)"/></g></g><g class="cls-11"><g class="cls-25"><path class="cls-13" d="M385.7,483.48c0,3.59-47.23,6.5-105.5,6.5s-105.5-2.91-105.5-6.5,47.23-6.5,105.5-6.5,105.5,2.91,105.5,6.5" transform="translate(4.98 36.73)"/></g></g><g class="cls-11"><g class="cls-26"><path class="cls-13" d="M1100.7,768c0,2.21-25.3,4-56.5,4s-56.5-1.79-56.5-4,25.3-4,56.5-4,56.5,1.79,56.5,4" transform="translate(4.98 36.73)"/></g></g><g class="cls-11"><g class="cls-27"><path class="cls-13" d="M368.7,488c0,6.08-48.35,11-108,11s-108-4.92-108-11,48.35-11,108-11,108,4.93,108,11" transform="translate(4.98 36.73)"/></g></g></g><g class="cls-28"><rect class="cls-29" x="1077.02" y="376.56" width="25.1" height="309.65"/></g><g class="cls-30"><rect class="cls-31" x="921.45" y="222.15" width="351.17" height="291.74" transform="translate(183.97 1109.1) rotate(-56.04)"/></g><g class="cls-10"><rect class="cls-32" x="4.98" y="809.23" width="1280" height="27.5"/><g class="cls-11"><g class="cls-33"><path class="cls-13" d="M1068.7,649c0,1.11-4.25,2-9.5,2s-9.5-.89-9.5-2,4.25-2,9.5-2,9.5.9,9.5,2" transform="translate(4.98 36.73)"/></g></g></g><g class="cls-34"><rect class="cls-35" x="935.09" y="534.31" width="195.67" height="23.05" transform="translate(458.29 1596.92) rotate(-88.11)"/></g><g class="cls-36"><rect class="cls-37" x="937.87" y="378.48" width="190.13" height="181.58" transform="translate(45.85 1056.42) rotate(-53.46)"/></g><g class="cls-38"><rect class="cls-39" x="385.09" y="358.31" width="195.67" height="23.05" transform="translate(102.35 877.03) rotate(-88.11)"/></g><g class="cls-40"><rect class="cls-41" x="387.87" y="202.48" width="190.13" height="181.58" transform="translate(-35.25 543.36) rotate(-53.46)"/></g><g class="cls-42"><rect class="cls-43" x="162.57" y="325.15" width="283.66" height="33.57" transform="translate(-42.41 671.63) rotate(-88.11)"/></g><g class="cls-44"><rect class="cls-45" x="229.45" y="215.3" width="163.88" height="222.41"/></g><g class="cls-46"><rect class="cls-47" x="203.73" y="-5.27" width="152.55" height="152.55" transform="translate(29.77 243.03) rotate(-42.16)"/></g><g class="cls-48"><rect class="cls-49" x="524.77" y="228.83" width="123.86" height="125.59" transform="translate(-41.19 497.86) rotate(-41.42)"/></g><g class="cls-50"><rect class="cls-51" x="566.39" y="288" width="119.16" height="125.06" transform="translate(-85.15 430.91) rotate(-32.74)"/></g><g class="cls-52"><rect class="cls-53" x="465.36" y="266.61" width="124.86" height="140.94" transform="translate(-91.63 325.78) rotate(-28.17)"/></g><g class="cls-54"><rect class="cls-55" x="547.5" y="398.09" width="108.5" height="313.18"/></g><g class="cls-56"><rect class="cls-57" x="604.75" y="346.67" width="121" height="125.55" transform="translate(-109.06 500.09) rotate(-35.57)"/></g><g class="cls-58"><rect class="cls-59" x="499.08" y="290.77" width="167.96" height="200.15" transform="translate(-91.96 253.47) rotate(-19.47)"/></g><g class="cls-60"><rect class="cls-61" x="468.58" y="348.59" width="93.87" height="93.87" transform="matrix(0.93, -0.38, 0.38, 0.93, -106.28, 260.95)"/></g><g class="cls-62"><rect class="cls-63" x="478.91" y="414.31" width="91.22" height="97.45" transform="translate(-100.69 195.83) rotate(-15.69)"/></g><g class="cls-10"><g class="cls-11"><g class="cls-64"><path class="cls-13" d="M155.7,697c0,3.31-9.18,6-20.5,6s-20.5-2.69-20.5-6,9.18-6,20.5-6,20.5,2.69,20.5,6" transform="translate(4.98 36.73)"/></g></g></g><g class="cls-65"><rect class="cls-66" x="135.97" y="320.05" width="92.04" height="146.89" transform="translate(-4.93 41.48) rotate(-1.45)"/></g><g class="cls-67"><rect class="cls-68" x="45.58" y="154.23" width="190.22" height="188.23" transform="matrix(1, -0.01, 0.01, 1, 3.36, 37.66)"/></g><g class="cls-10"><path class="cls-69" d="M235.19,247.84h0a4.17,4.17,0,0,1,0,.5c0-.17,0-.33,0-.5" transform="translate(4.98 36.73)"/><path class="cls-69" d="M235.19,248.84c0-.17,0-.33,0-.5a4.17,4.17,0,0,1,0,.5Z" transform="translate(4.98 36.73)"/><path class="cls-69" d="M181.19,278.84c0,.67,0,1.34,0,2,0-.67.05-1.33.1-2Z" transform="translate(4.98 36.73)"/></g><g class="cls-70"><rect class="cls-71" x="186.21" y="267.65" width="95.92" height="99.86"/></g><g class="cls-10"><path class="cls-69" d="M181.19,282.84h.14c-.05-.67-.08-1.33-.1-2,0,.66,0,1.33,0,2" transform="translate(4.98 36.73)"/><path class="cls-69" d="M153.19,320.84h0c0,.16,0,.31,0,.47,0-.16,0-.31,0-.47" transform="translate(4.98 36.73)"/></g><g class="cls-72"><rect class="cls-73" x="53.16" y="272.71" width="104.05" height="97.2" transform="translate(-212.35 459.45) rotate(-89.33)"/></g><g class="cls-10"><path class="cls-69" d="M153.19,321.77c0-.15,0-.31,0-.46,0,.15,0,.31,0,.46Z" transform="translate(4.98 36.73)"/><g class="cls-11"><g class="cls-74"><path class="cls-13" d="M267.7,721c0,1.11-4.25,2-9.5,2s-9.5-.89-9.5-2,4.25-2,9.5-2,9.5.9,9.5,2" transform="translate(4.98 36.73)"/></g></g></g><g class="cls-75"><rect class="cls-76" x="125.27" y="625.91" width="29.88" height="107.83"/></g><g class="cls-77"><rect class="cls-78" x="182.77" y="543.24" width="263.2" height="244.4" transform="translate(-344.7 384.88) rotate(-39.17)"/></g><g class="cls-10"><g class="cls-11"><g class="cls-79"><path class="cls-13" d="M619.14,680c0,1.11-4.25,2-9.5,2s-9.5-.89-9.5-2,4.25-2,9.5-2,9.5.9,9.5,2" transform="translate(4.98 36.73)"/></g></g></g><g class="cls-80"><rect class="cls-81" x="147.69" y="358.89" width="157.14" height="176.36" transform="translate(-262.87 400.66) rotate(-53.6)"/></g><g class="cls-82"><rect class="cls-83" x="217.99" y="384.75" width="124.56" height="171.32" transform="translate(-262.23 497.61) rotate(-58.22)"/></g><g class="cls-84"><rect class="cls-85" x="857.8" y="399.2" width="121.84" height="108.56" transform="translate(-84.89 670.32) rotate(-36.4)"/></g><g class="cls-86"><rect class="cls-87" x="646.32" y="627.21" width="10.5" height="10.02" transform="translate(-238.88 519.18) rotate(-34.64)"/></g><g class="cls-88"><rect class="cls-89" x="650.39" y="628.01" width="12.24" height="10.92" transform="translate(-239.52 527.14) rotate(-34.95)"/></g><g class="cls-10"><g class="cls-11"><g class="cls-90"><path class="cls-13" d="M439.7,677c0,1.11-4.25,2-9.5,2s-9.5-.89-9.5-2,4.25-2,9.5-2,9.5.9,9.5,2" transform="translate(4.98 36.73)"/></g></g></g><g class="cls-91"><rect class="cls-92" x="247.61" y="701.42" width="16.64" height="17.22" transform="translate(-355.64 311.45) rotate(-34.95)"/></g><g class="cls-93"><rect class="cls-94" x="240.61" y="607.71" width="17.22" height="16.65" transform="translate(-393.48 504.09) rotate(-55.05)"/></g><g class="cls-95"><rect class="cls-96" x="600.76" y="674.45" width="15.26" height="5.22" transform="translate(-1.89 42.98) rotate(-0.58)"/></g><g class="cls-97"><polygon class="cls-98" points="1058.22 674.34 1055.17 685.3 1069.93 689.54 1072.98 678.58 1058.22 674.34"/></g><g class="cls-99"><polygon class="cls-100" points="447.54 709.92 440.71 716.55 423.25 714.36 430.08 707.73 447.54 709.92"/></g><g class="cls-10"><g class="cls-11"><g class="cls-101"><path class="cls-13" d="M727.7,680c0,1.11-4.25,2-9.5,2s-9.5-.89-9.5-2,4.25-2,9.5-2,9.5.9,9.5,2" transform="translate(4.98 36.73)"/></g></g><g class="cls-11"><g class="cls-102"><path class="cls-13" d="M554,681c0,1.11-4.25,2-9.5,2s-9.5-.89-9.5-2,4.25-2,9.5-2,9.5.9,9.5,2" transform="translate(4.98 36.73)"/></g></g></g><g class="cls-103"><polygon class="cls-104" points="709.95 715.47 725.5 719.31 733.95 712.84 718.39 709 709.95 715.47"/></g><g class="cls-105"><polygon class="cls-106" points="561.88 717.47 546.33 721.31 537.88 714.84 553.43 711 561.88 717.47"/></g><g class="cls-107"><rect class="cls-108" x="765.68" y="373.28" width="66" height="190.94"/></g></g></svg>