<?xml version="1.0" encoding="utf-8"?>
<!-- Generator: Adobe Illustrator 20.0.0, SVG Export Plug-In . SVG Version: 6.00 Build 0)  -->
<svg version="1.1" id="Laag_1" xmlns="http://www.w3.org/2000/svg" xmlns:xlink="http://www.w3.org/1999/xlink" x="0px" y="0px"
	 viewBox="0 0 1283.2 813" style="enable-background:new 0 0 1283.2 813;" xml:space="preserve">
<style type="text/css">
	.st0{clip-path:url(#SVGID_2_);fill:#BAE1F7;}
	.st1{clip-path:url(#SVGID_2_);}
	.st2{clip-path:url(#SVGID_4_);fill:url(#SVGID_5_);}
	.st3{clip-path:url(#SVGID_7_);fill:url(#SVGID_8_);}
	.st4{opacity:5.999760e-02;clip-path:url(#SVGID_10_);}
	.st5{clip-path:url(#SVGID_12_);fill:#010101;}
	.st6{clip-path:url(#SVGID_14_);fill:#010101;}
	.st7{clip-path:url(#SVGID_16_);fill:#010101;}
	.st8{clip-path:url(#SVGID_18_);fill:url(#SVGID_19_);}
	.st9{clip-path:url(#SVGID_21_);fill:url(#SVGID_22_);}
	.st10{clip-path:url(#SVGID_24_);fill:url(#SVGID_25_);}
	.st11{clip-path:url(#SVGID_27_);fill:url(#SVGID_28_);}
	.st12{clip-path:url(#SVGID_30_);fill:url(#SVGID_31_);}
	.st13{clip-path:url(#SVGID_33_);fill:url(#SVGID_34_);}
	.st14{clip-path:url(#SVGID_36_);fill:url(#SVGID_37_);}
	.st15{clip-path:url(#SVGID_39_);fill:url(#SVGID_40_);}
	.st16{clip-path:url(#SVGID_42_);fill:url(#SVGID_43_);}
	.st17{clip-path:url(#SVGID_45_);fill:url(#SVGID_46_);}
	.st18{clip-path:url(#SVGID_48_);fill:url(#SVGID_49_);}
	.st19{clip-path:url(#SVGID_51_);fill:#7F8E38;}
	.st20{clip-path:url(#SVGID_53_);fill:url(#SVGID_54_);}
	.st21{clip-path:url(#SVGID_56_);fill:url(#SVGID_57_);}
	.st22{clip-path:url(#SVGID_59_);fill:url(#SVGID_60_);}
	.st23{clip-path:url(#SVGID_62_);fill:url(#SVGID_63_);}
	.st24{clip-path:url(#SVGID_65_);fill:url(#SVGID_66_);}
	.st25{clip-path:url(#SVGID_68_);fill:#7F8E38;}
	.st26{clip-path:url(#SVGID_70_);fill:url(#SVGID_71_);}
	.st27{clip-path:url(#SVGID_73_);fill:url(#SVGID_74_);}
	.st28{opacity:0.44;clip-path:url(#SVGID_76_);}
	.st29{clip-path:url(#SVGID_78_);fill:#765645;}
	.st30{clip-path:url(#SVGID_76_);fill:#835F46;}
	.st31{opacity:0.19;clip-path:url(#SVGID_76_);}
	.st32{clip-path:url(#SVGID_80_);fill:#8D6850;}
	.st33{opacity:0.21;clip-path:url(#SVGID_76_);}
	.st34{clip-path:url(#SVGID_82_);fill:#8D6850;}
	.st35{opacity:0.13;clip-path:url(#SVGID_76_);}
	.st36{clip-path:url(#SVGID_84_);fill:#8D6850;}
	.st37{opacity:0.17;clip-path:url(#SVGID_76_);}
	.st38{clip-path:url(#SVGID_86_);fill:#8D6850;}
	.st39{opacity:0.22;clip-path:url(#SVGID_76_);}
	.st40{clip-path:url(#SVGID_88_);fill:#8D6850;}
	.st41{opacity:5.999760e-02;clip-path:url(#SVGID_76_);}
	.st42{clip-path:url(#SVGID_90_);fill:#010101;}
	.st43{clip-path:url(#SVGID_92_);fill:url(#SVGID_93_);}
	.st44{opacity:5.999760e-02;clip-path:url(#SVGID_95_);}
	.st45{clip-path:url(#SVGID_97_);fill:#010101;}
	.st46{clip-path:url(#SVGID_99_);fill:#010101;}
	.st47{clip-path:url(#SVGID_101_);fill:url(#SVGID_102_);}
	.st48{clip-path:url(#SVGID_104_);fill:url(#SVGID_105_);}
	.st49{clip-path:url(#SVGID_107_);fill:url(#SVGID_108_);}
	.st50{clip-path:url(#SVGID_110_);fill:url(#SVGID_111_);}
	.st51{clip-path:url(#SVGID_113_);fill:url(#SVGID_114_);}
	.st52{clip-path:url(#SVGID_116_);fill:url(#SVGID_117_);}
	.st53{clip-path:url(#SVGID_119_);fill:url(#SVGID_120_);}
	.st54{clip-path:url(#SVGID_122_);fill:url(#SVGID_123_);}
	.st55{clip-path:url(#SVGID_125_);fill:url(#SVGID_126_);}
	.st56{clip-path:url(#SVGID_128_);fill:url(#SVGID_129_);}
	.st57{clip-path:url(#SVGID_131_);fill:url(#SVGID_132_);}
	.st58{clip-path:url(#SVGID_134_);fill:url(#SVGID_135_);}
	.st59{clip-path:url(#SVGID_137_);fill:url(#SVGID_138_);}
	.st60{clip-path:url(#SVGID_140_);fill:url(#SVGID_141_);}
	.st61{clip-path:url(#SVGID_143_);fill:url(#SVGID_144_);}
	.st62{clip-path:url(#SVGID_146_);fill:url(#SVGID_147_);}
	.st63{clip-path:url(#SVGID_149_);fill:url(#SVGID_150_);}
</style>
<g>
	<defs>
		<rect id="SVGID_1_" width="1283.2" height="813"/>
	</defs>
	<clipPath id="SVGID_2_">
		<use xlink:href="#SVGID_1_"  style="overflow:visible;"/>
	</clipPath>
	<rect class="st0" width="1283.2" height="813"/>
	<g class="st1">
		<defs>
			<path id="SVGID_3_" d="M134.8,396.2c-5,0.1-10,0.3-15,0.7c-2.8,0.2-5.7,0.5-8.5,0.9c-9,1.1-18,2.9-26.8,5.2
				c-9.9,2.6-19.7,5.9-29.1,9.8c-12.9,5.4-25,12.2-36.1,20.1c-0.3,0.2-0.6,0.4-0.9,0.6c-6.5,4.7-12.7,9.7-18.6,15V813h1283.2V465.9
				c-5.5-4.3-11-8.3-16.8-12.2c-10.2-6.9-20.8-13-32.2-18.2c-3.2-1.4-6.5-2.8-9.8-4.1c-2.3-0.9-4.5-1.7-6.9-2.4
				c-2.3-0.7-4.6-1.4-6.9-2.1c-7.8-2.2-15.9-3.8-24-4.7c-22.8-2.5-45.9,0.3-65.7,10.8c-12.1,6.4-22.6,15.3-32.9,24.5
				c-10.6,9.5-20.9,19.2-32.3,26.7c-3.7,2.4-7.5,4.6-11.4,6.5c-0.5,0.2-1,0.5-1.5,0.7c-0.7,0.3-1.3,0.6-2,0.8
				c-1.5,0.7-3.1,1.3-4.7,1.8c-2.9,1-6,1.8-9.1,2.4c-0.4,0.1-0.8,0.1-1.1,0.2c-14.1,2.5-27.5,0.3-40.3-4.6c-3.3-1.3-6.6-2.8-9.9-4.4
				c-8.7-4.4-17-10.1-25-16.3c-0.6-0.5-1.3-1-1.9-1.5c-9.7-7.8-18.9-16.3-27.3-24.6c-6.6-6.4-13.8-13-21.4-19
				c-5.2-4.2-10.7-8.2-16.3-11.8C862.6,401,839,393,815.2,399.9c-27.3,7.9-43.9,33-54.3,57.5c-10.3,24.5-17.4,51.1-35.8,71.1
				c-5.3,5.7-12.3,11.1-20,12.5c-2.1,0.4-4.3,0.5-6.5,0.2c-13.1-1.6-20.4-14.5-30.8-22c-1.9-1.4-3.9-2.6-5.8-3.5
				c-3.6-1.8-7.3-3-11.1-3.7c-9.6-1.7-19.9-0.2-30.1,3.3c-2.2,0.7-4.3,1.6-6.5,2.5c-15.1,6.4-29.8,16.8-41.8,26.9
				c-1.5,1.2-2.9,2.5-4.3,3.7c-9.3,7.9-18.6,15.8-28,23.8c-14.8,12.6-29.7,25.2-44.5,37.9c-0.7,0.6-1.3,1.1-2,1.7
				c-0.5,0.4-1.1,0.9-1.6,1.4c-4.6,3.8-9.4,7.6-14.3,11.2c-6,4.4-12.3,8.5-18.8,12c-15.7,8.3-32.5,12.9-49.8,8.7
				c-19.4-4.8-33.5-19.8-45.5-34.5c-1.2-1.5-2.4-2.9-3.5-4.4c-0.9-1.1-1.7-2.1-2.5-3.2c-17.6-22.3-33.3-45.8-47-70.3
				c-0.1-0.1-0.1-0.2-0.2-0.3c-18.4-32.8-33.8-68.2-61.4-94.8c-2-1.9-4.1-3.8-6.2-5.6c-15.5-13.3-33.7-22.6-53.4-28.4
				c-2.1-0.6-4.1-1.2-6.2-1.7c-4.2-1.1-8.4-2-12.7-2.7c-10.8-1.9-21.9-2.8-33.1-2.8C136.7,396.2,135.8,396.2,134.8,396.2"/>
		</defs>
		<clipPath id="SVGID_4_">
			<use xlink:href="#SVGID_3_"  style="overflow:visible;"/>
		</clipPath>
		
			<linearGradient id="SVGID_5_" gradientUnits="userSpaceOnUse" x1="6.366463e-12" y1="813" x2="1" y2="813" gradientTransform="matrix(0 323.5697 323.5697 0 -262420.5938 404.1051)">
			<stop  offset="0" style="stop-color:#08783F"/>
			<stop  offset="8.860292e-02" style="stop-color:#0A713C"/>
			<stop  offset="0.3714" style="stop-color:#0A6034"/>
			<stop  offset="0.6148" style="stop-color:#08552E"/>
			<stop  offset="0.7891" style="stop-color:#07512C"/>
			<stop  offset="1" style="stop-color:#07512C"/>
		</linearGradient>
		<rect y="393" class="st2" width="1283.2" height="420"/>
	</g>
	<g class="st1">
		<defs>
			<path id="SVGID_6_" d="M1007.8,518c0,0-2.8,0.2-7.9,0.7c-4.1,0.4-9.6,1.1-16.3,2c-12.4,1.8-28.6,4.8-46.3,9.6
				c-28.7,7.8-61.2,20.5-87.2,40.9c-12.5,9.8-26.4,19-41.1,27.7l-40.3,23.7c-29.1,17.1-62.5,31.4-98.8,42.2c-4,1.2-7.9,2.3-12,3.4
				c-4.3,1.2-8.6,2.3-13,3.3c-5.4,1.3-10.8,2.6-16.3,3.7c-14.1,3-28.7,5.5-43.4,7.5c-24.8,3.3-50.9,5.2-76.3,4.4
				c-7.7-0.3-15.4-0.5-23.1-0.7c-8.6-0.2-17.1-0.4-25.7-0.5c-25.9-0.3-51.8-0.4-77.6-0.3l-26.2,0.1L0,687.4V813l1283.2-1.3V518
				H1007.8z"/>
		</defs>
		<clipPath id="SVGID_7_">
			<use xlink:href="#SVGID_6_"  style="overflow:visible;"/>
		</clipPath>
		
			<linearGradient id="SVGID_8_" gradientUnits="userSpaceOnUse" x1="-2.394205e-04" y1="813" x2="0.9998" y2="813" gradientTransform="matrix(4.0592 313.9126 313.9126 -4.0592 -254571.3906 3809.9465)">
			<stop  offset="0" style="stop-color:#0A8949"/>
			<stop  offset="0.4323" style="stop-color:#056D3D"/>
			<stop  offset="0.4924" style="stop-color:#036A3B"/>
			<stop  offset="1" style="stop-color:#036A3B"/>
		</linearGradient>
		<polygon class="st3" points="1283,501.4 1287,812.9 0.2,829.6 -3.8,518 		"/>
	</g>
	<g class="st1">
		<defs>
			<rect id="SVGID_9_" width="1283.2" height="813"/>
		</defs>
		<clipPath id="SVGID_10_">
			<use xlink:href="#SVGID_9_"  style="overflow:visible;"/>
		</clipPath>
		<g class="st4">
			<g>
				<defs>
					<rect id="SVGID_11_" x="563.3" y="697" width="185" height="13"/>
				</defs>
				<clipPath id="SVGID_12_">
					<use xlink:href="#SVGID_11_"  style="overflow:visible;"/>
				</clipPath>
				<path class="st5" d="M748.3,703.5c0,3.6-41.4,6.5-92.5,6.5s-92.5-2.9-92.5-6.5c0-3.6,41.4-6.5,92.5-6.5S748.3,699.9,748.3,703.5
					"/>
			</g>
		</g>
		<g class="st4">
			<g>
				<defs>
					<rect id="SVGID_13_" x="625.3" y="693" width="74" height="13"/>
				</defs>
				<clipPath id="SVGID_14_">
					<use xlink:href="#SVGID_13_"  style="overflow:visible;"/>
				</clipPath>
				<path class="st6" d="M699.3,699.5c0,3.6-16.6,6.5-37,6.5c-20.4,0-37-2.9-37-6.5c0-3.6,16.6-6.5,37-6.5
					C682.7,693,699.3,695.9,699.3,699.5"/>
			</g>
		</g>
		<g class="st4">
			<g>
				<defs>
					<rect id="SVGID_15_" x="660.3" y="695" width="74" height="13"/>
				</defs>
				<clipPath id="SVGID_16_">
					<use xlink:href="#SVGID_15_"  style="overflow:visible;"/>
				</clipPath>
				<path class="st7" d="M734.3,701.5c0,3.6-16.6,6.5-37,6.5c-20.4,0-37-2.9-37-6.5c0-3.6,16.6-6.5,37-6.5
					C717.7,695,734.3,697.9,734.3,701.5"/>
			</g>
		</g>
	</g>
	<g class="st1">
		<defs>
			<path id="SVGID_17_" d="M133,555.1c-7.1,0.1-14.4,0.1-21.8,0.2c-45.3,0.4-93.1,0.9-111.2,1.1V813h1283.2V571.5h-211.5
				c-1,0-2,0-3.1,0.1h0c-12,0.6-23.7,4.6-34.9,11.7c-19.4,12.4-37.1,34.3-51.3,64c-3.7,7.8-7.7,15.3-11.8,22.3
				c-32.1,54.6-73.9,83.3-116.8,83.3H517.3c-9.7,0-19.3-0.7-29-2.1c-10.1-1.4-20.1-3.6-30-6.5c-35.3-10.3-69.7-29.9-102-58.5
				c-23.9-21.1-46.6-47.1-67.8-77.9c-36.1-52.5-64.5-52.9-79.9-53.4c-0.7,0-2.4,0-4.9,0C192.6,554.5,164.9,554.8,133,555.1"/>
		</defs>
		<clipPath id="SVGID_18_">
			<use xlink:href="#SVGID_17_"  style="overflow:visible;"/>
		</clipPath>
		
			<linearGradient id="SVGID_19_" gradientUnits="userSpaceOnUse" x1="9.094947e-13" y1="813" x2="1" y2="813" gradientTransform="matrix(0 288.2542 288.2542 0 -233709.0469 513.4153)">
			<stop  offset="0" style="stop-color:#C4D143"/>
			<stop  offset="5.547440e-02" style="stop-color:#C4D143"/>
			<stop  offset="0.751" style="stop-color:#91AA3C"/>
			<stop  offset="0.7891" style="stop-color:#8EA83C"/>
			<stop  offset="1" style="stop-color:#8EA83C"/>
		</linearGradient>
		<rect x="0" y="554.5" class="st8" width="1283.2" height="258.5"/>
	</g>
	<g class="st1">
		<defs>
			<path id="SVGID_20_" d="M655.2,466.8L647.8,682c0,1.3,1,2.5,2.3,2.5h13.1c1.3,0,2.3-1.1,2.3-2.4l-5.8-215.2H655.2z"/>
		</defs>
		<clipPath id="SVGID_21_">
			<use xlink:href="#SVGID_20_"  style="overflow:visible;"/>
		</clipPath>
		
			<linearGradient id="SVGID_22_" gradientUnits="userSpaceOnUse" x1="3.637979e-12" y1="812.9701" x2="1" y2="812.9701" gradientTransform="matrix(-3.8819 117.5668 117.5668 3.8819 -94922.5547 -2554.4836)">
			<stop  offset="0" style="stop-color:#DAAE82"/>
			<stop  offset="0.2134" style="stop-color:#DAAE82"/>
			<stop  offset="0.4478" style="stop-color:#C9976C"/>
			<stop  offset="1" style="stop-color:#C9976C"/>
		</linearGradient>
		<polygon class="st9" points="672.6,467 665.4,685.1 640.5,684.2 647.7,466.2 		"/>
	</g>
	<g class="st1">
		<defs>
			<path id="SVGID_23_" d="M656.1,451.6l-28.2,81.7l-29.2,84.6c-0.5,1.5,0.6,3.2,2.1,3.2h57.4h55.6c2.4,0,4.1-2.5,3.3-4.9
				l-28.6-82.9l-28.2-81.7c-0.4-1-1.2-1.6-2.1-1.6C657.3,450,656.4,450.5,656.1,451.6"/>
		</defs>
		<clipPath id="SVGID_24_">
			<use xlink:href="#SVGID_23_"  style="overflow:visible;"/>
		</clipPath>
		
			<linearGradient id="SVGID_25_" gradientUnits="userSpaceOnUse" x1="1.637090e-11" y1="813" x2="1" y2="813" gradientTransform="matrix(118.694 0 0 -118.694 598.5833 97033.7734)">
			<stop  offset="0" style="stop-color:#0B8B44"/>
			<stop  offset="0.1052" style="stop-color:#0B8B44"/>
			<stop  offset="0.6266" style="stop-color:#046D3C"/>
			<stop  offset="0.6785" style="stop-color:#036A3B"/>
			<stop  offset="1" style="stop-color:#036A3B"/>
		</linearGradient>
		<rect x="598.2" y="450" class="st10" width="119.7" height="171"/>
	</g>
	<g class="st1">
		<defs>
			<path id="SVGID_26_" d="M1155.7,290.7l-8.8,231.2c-0.1,1.4,1.2,2.6,2.7,2.6h15.4c1.5,0,2.7-1.2,2.7-2.6l-6.8-231.2H1155.7z"/>
		</defs>
		<clipPath id="SVGID_27_">
			<use xlink:href="#SVGID_26_"  style="overflow:visible;"/>
		</clipPath>
		
			<linearGradient id="SVGID_28_" gradientUnits="userSpaceOnUse" x1="1.818989e-12" y1="812.9794" x2="1" y2="812.9794" gradientTransform="matrix(-6.046 183.1085 183.1085 6.046 -147707.5313 -4465.168)">
			<stop  offset="0" style="stop-color:#DAAE82"/>
			<stop  offset="0.175" style="stop-color:#DAAE82"/>
			<stop  offset="0.7564" style="stop-color:#C9976C"/>
			<stop  offset="1" style="stop-color:#C9976C"/>
		</linearGradient>
		<polygon class="st11" points="1175.4,290.9 1167.7,525.2 1139.2,524.2 1146.9,290 		"/>
	</g>
	<g class="st1">
		<defs>
			<path id="SVGID_29_" d="M1155,225.7l-33.2,87.8l-34.4,90.9c-0.6,1.7,0.6,3.4,2.5,3.4h67.6h65.5c2.8,0,4.8-2.7,3.8-5.2l-33.7-89.1
				l-33.2-87.8c-0.4-1.1-1.4-1.7-2.5-1.7C1156.5,224,1155.4,224.6,1155,225.7"/>
		</defs>
		<clipPath id="SVGID_30_">
			<use xlink:href="#SVGID_29_"  style="overflow:visible;"/>
		</clipPath>
		
			<linearGradient id="SVGID_31_" gradientUnits="userSpaceOnUse" x1="1.182343e-11" y1="813.1266" x2="1" y2="813.1266" gradientTransform="matrix(126.9996 94.1291 94.1291 -126.9996 -75423.8203 103551.2969)">
			<stop  offset="0" style="stop-color:#0B8B44"/>
			<stop  offset="0.1292" style="stop-color:#0B8442"/>
			<stop  offset="0.5596" style="stop-color:#06703D"/>
			<stop  offset="0.8116" style="stop-color:#036A3B"/>
			<stop  offset="1" style="stop-color:#036A3B"/>
		</linearGradient>
		<polygon class="st12" points="1136.8,156.6 1315.7,289.1 1177.8,475.2 998.9,342.6 		"/>
	</g>
	<g class="st1">
		<defs>
			<path id="SVGID_32_" d="M890,482.3c0,35,29.1,63.4,65,63.4c35.9,0,65-28.4,65-63.4s-29.1-63.4-65-63.4
				C919.1,418.8,890,447.2,890,482.3"/>
		</defs>
		<clipPath id="SVGID_33_">
			<use xlink:href="#SVGID_32_"  style="overflow:visible;"/>
		</clipPath>
		
			<linearGradient id="SVGID_34_" gradientUnits="userSpaceOnUse" x1="5.456968e-11" y1="813" x2="1" y2="813" gradientTransform="matrix(65.1139 106.3084 106.3084 -65.1139 -85511.0469 53359.0586)">
			<stop  offset="0" style="stop-color:#E1B634"/>
			<stop  offset="3.623164e-02" style="stop-color:#DDB535"/>
			<stop  offset="0.3259" style="stop-color:#BBAF37"/>
			<stop  offset="0.5927" style="stop-color:#A3AB3A"/>
			<stop  offset="0.8259" style="stop-color:#93A93C"/>
			<stop  offset="1" style="stop-color:#8EA83C"/>
		</linearGradient>
		<polygon class="st13" points="984.5,360.9 1076.5,511.1 925.4,603.6 833.4,453.4 		"/>
	</g>
	<g class="st1">
		<defs>
			<path id="SVGID_35_" d="M848.7,412.5c0,35,23.4,63.4,52.3,63.4c28.9,0,52.3-28.4,52.3-63.4s-23.4-63.4-52.3-63.4
				C872.2,349.1,848.7,377.5,848.7,412.5"/>
		</defs>
		<clipPath id="SVGID_36_">
			<use xlink:href="#SVGID_35_"  style="overflow:visible;"/>
		</clipPath>
		
			<linearGradient id="SVGID_37_" gradientUnits="userSpaceOnUse" x1="-1.909939e-11" y1="813" x2="1" y2="813" gradientTransform="matrix(78.4025 85.0468 85.0468 -78.4025 -68289.6016 64102.0195)">
			<stop  offset="0" style="stop-color:#C3CD2F"/>
			<stop  offset="0.3068" style="stop-color:#C3CD2F"/>
			<stop  offset="0.7444" style="stop-color:#959637"/>
			<stop  offset="1" style="stop-color:#959637"/>
		</linearGradient>
		<polygon class="st14" points="905.3,296.9 1016.6,417.6 896.8,528.1 785.5,407.3 		"/>
	</g>
	<g class="st1">
		<defs>
			<path id="SVGID_38_" d="M1010.4,351.2l-6.9,190.5c-35.4-9.5-41.1-41.9-41.1-41.9l-2.1-8.3c-0.4-1.7-2-2.9-3.7-2.9h-1.7
				c-2.1,0-3.8,1.7-3.8,3.8v12.1c0,0.2,0,0.3,0,0.5c3.3,31.5,34.8,43.1,52.1,47.1L998,692.4c-0.1,2.2,1.7,4,3.8,4h22.1
				c2.2,0,3.9-1.8,3.8-3.9l-3.3-117.8c22.9-3.3,34.6-28.5,38.2-37.6c0.7-1.7-0.4-3.7-2.2-4.1l-2.1-0.4c-1.5-0.3-2.9,0.5-3.5,2
				c-7.2,19.2-21,26.4-30.7,29.1l-6-212.4c0-2.1-1.7-3.7-3.8-3.7C1012.1,347.5,1010.4,349.1,1010.4,351.2"/>
		</defs>
		<clipPath id="SVGID_39_">
			<use xlink:href="#SVGID_38_"  style="overflow:visible;"/>
		</clipPath>
		
			<linearGradient id="SVGID_40_" gradientUnits="userSpaceOnUse" x1="-3.637979e-11" y1="813.0063" x2="1" y2="813.0063" gradientTransform="matrix(-12.0556 140.6482 140.6482 12.0556 -113338.6328 -9304.457)">
			<stop  offset="0" style="stop-color:#DAAE82"/>
			<stop  offset="8.764041e-03" style="stop-color:#D9AE82"/>
			<stop  offset="0.4524" style="stop-color:#CD9D71"/>
			<stop  offset="0.7564" style="stop-color:#C9976C"/>
			<stop  offset="1" style="stop-color:#C9976C"/>
		</linearGradient>
		<polygon class="st15" points="1092.9,350 1062.3,705.9 921.3,693.8 951.8,337.9 		"/>
	</g>
	<g class="st1">
		<defs>
			<path id="SVGID_41_" d="M1004.1,475.9c0,35,22,63.4,49.2,63.4c27.2,0,49.2-28.4,49.2-63.4c0-35-22-63.4-49.2-63.4
				C1026.1,412.5,1004.1,440.9,1004.1,475.9"/>
		</defs>
		<clipPath id="SVGID_42_">
			<use xlink:href="#SVGID_41_"  style="overflow:visible;"/>
		</clipPath>
		
			<linearGradient id="SVGID_43_" gradientUnits="userSpaceOnUse" x1="2.364686e-11" y1="813" x2="1" y2="813" gradientTransform="matrix(68.8711 99.6818 99.6818 -68.8711 -80014.4063 56429.875)">
			<stop  offset="0" style="stop-color:#B9D232"/>
			<stop  offset="0.6785" style="stop-color:#9ABA3C"/>
			<stop  offset="1" style="stop-color:#9ABA3C"/>
		</linearGradient>
		<polygon class="st16" points="1070.7,366.5 1161.8,498.4 1035.9,585.3 944.8,453.5 		"/>
	</g>
	<g class="st1">
		<defs>
			<path id="SVGID_44_" d="M986.2,311c-10.6-6.1-22.9-9.5-36-9.5c-40.3,0-72.9,32.7-72.9,73c0,40.3,32.7,72.9,72.9,72.9
				c11.9,0,23.1-2.9,33-7.9c16.1,22.1,42.5,33.3,74.9,33.3c54.3,0,104.7-31.4,104.7-93.6s-44-112.6-98.3-112.6
				C1032.5,266.6,1004.1,284,986.2,311"/>
		</defs>
		<clipPath id="SVGID_45_">
			<use xlink:href="#SVGID_44_"  style="overflow:visible;"/>
		</clipPath>
		
			<linearGradient id="SVGID_46_" gradientUnits="userSpaceOnUse" x1="-2.273737e-11" y1="812.9857" x2="1" y2="812.9857" gradientTransform="matrix(151.1963 137.0217 137.0217 -151.1963 -110471.375 123204.2578)">
			<stop  offset="0" style="stop-color:#C4D143"/>
			<stop  offset="5.547440e-02" style="stop-color:#C4D143"/>
			<stop  offset="0.751" style="stop-color:#91AA3C"/>
			<stop  offset="0.7891" style="stop-color:#8EA83C"/>
			<stop  offset="1" style="stop-color:#8EA83C"/>
		</linearGradient>
		<polygon class="st17" points="1006,124.6 1265.3,359.6 1034,614.8 774.7,379.8 		"/>
	</g>
	<g class="st1">
		<defs>
			<path id="SVGID_47_" d="M920.8,426.3c-19.5,18.9-20.1,50-1.2,69.5c18.9,19.5,50,20.1,69.5,1.2c19.5-18.9,20.1-50,1.2-69.5
				c-9.6-10-22.5-15-35.4-15C942.7,412.5,930.4,417.1,920.8,426.3"/>
		</defs>
		<clipPath id="SVGID_48_">
			<use xlink:href="#SVGID_47_"  style="overflow:visible;"/>
		</clipPath>
		
			<linearGradient id="SVGID_49_" gradientUnits="userSpaceOnUse" x1="1.091394e-11" y1="812.9869" x2="1" y2="812.9869" gradientTransform="matrix(65.1139 91.691 91.691 -65.1139 -73628.9922 53344.1289)">
			<stop  offset="0" style="stop-color:#C3CD2F"/>
			<stop  offset="0.26" style="stop-color:#C3CD2F"/>
			<stop  offset="0.982" style="stop-color:#959637"/>
			<stop  offset="1" style="stop-color:#959637"/>
		</linearGradient>
		<polygon class="st18" points="972.8,361.3 1058,481.2 937.1,567.1 851.9,447.2 		"/>
	</g>
	<g class="st1">
		<defs>
			<rect id="SVGID_50_" width="1283.2" height="813"/>
		</defs>
		<clipPath id="SVGID_51_">
			<use xlink:href="#SVGID_50_"  style="overflow:visible;"/>
		</clipPath>
		<path class="st19" d="M461.3,486.5c0,44.5-36,80.5-80.5,80.5s-80.5-36-80.5-80.5s36-80.5,80.5-80.5S461.3,442,461.3,486.5"/>
	</g>
	<g class="st1">
		<defs>
			<path id="SVGID_52_" d="M441.1,435.6L435,648c-9.7-2.7-23.5-9.9-30.7-29.1c-0.5-1.4-2-2.3-3.5-2l-2.1,0.4
				c-1.8,0.4-2.9,2.3-2.2,4.1c3.5,9.2,15.3,34.3,38.2,37.6l-3.3,117.8c-0.1,2.2,1.6,3.9,3.8,3.9h22.1c2.2,0,3.9-1.8,3.8-4L456,636.7
				c17.3-4,48.8-15.7,52.1-47.1c0-0.2,0-0.4,0-0.5v-12.1c0-2.1-1.7-3.8-3.8-3.8h-1.7c-1.7,0-3.3,1.2-3.7,2.9l-2.1,8.3
				c0,0-5.7,32.4-41.1,41.9l-6.9-190.5c-0.1-2.1-1.8-3.7-3.8-3.7C442.8,431.9,441.1,433.6,441.1,435.6"/>
		</defs>
		<clipPath id="SVGID_53_">
			<use xlink:href="#SVGID_52_"  style="overflow:visible;"/>
		</clipPath>
		
			<linearGradient id="SVGID_54_" gradientUnits="userSpaceOnUse" x1="2.455636e-11" y1="813.0063" x2="1" y2="813.0063" gradientTransform="matrix(12.0556 140.6482 -140.6482 12.0556 114797.7109 -9220.0049)">
			<stop  offset="0" style="stop-color:#DAAE82"/>
			<stop  offset="8.764041e-03" style="stop-color:#D9AE82"/>
			<stop  offset="0.4524" style="stop-color:#CD9D71"/>
			<stop  offset="0.7564" style="stop-color:#C9976C"/>
			<stop  offset="1" style="stop-color:#C9976C"/>
		</linearGradient>
		<polygon class="st20" points="366.2,434.5 396.7,790.4 537.8,778.3 507.3,422.4 		"/>
	</g>
	<g class="st1">
		<defs>
			<path id="SVGID_55_" d="M458.5,337.6c-34.7,4.6-59,37.2-54.3,72.8c4.8,35.6,36.8,60.7,71.5,56.1s59-37.2,54.3-72.8
				c-4.4-32.7-31.8-56.6-63.2-56.6C464.1,337,461.3,337.2,458.5,337.6"/>
		</defs>
		<clipPath id="SVGID_56_">
			<use xlink:href="#SVGID_55_"  style="overflow:visible;"/>
		</clipPath>
		
			<linearGradient id="SVGID_57_" gradientUnits="userSpaceOnUse" x1="-2.000888e-11" y1="813.0127" x2="1" y2="813.0127" gradientTransform="matrix(-96.7593 78.6062 78.6062 96.7593 -63384.3633 -78308.3125)">
			<stop  offset="0" style="stop-color:#E1B634"/>
			<stop  offset="3.623164e-02" style="stop-color:#DDB535"/>
			<stop  offset="0.3259" style="stop-color:#BBAF37"/>
			<stop  offset="0.5927" style="stop-color:#A3AB3A"/>
			<stop  offset="0.8259" style="stop-color:#93A93C"/>
			<stop  offset="1" style="stop-color:#8EA83C"/>
		</linearGradient>
		<polygon class="st21" points="600.4,417.8 453.3,537.3 333.9,390.3 481,270.8 		"/>
	</g>
	<g class="st1">
		<defs>
			<path id="SVGID_58_" d="M509.1,422.8c-28.6,3.8-50.6,22.7-55.4,45.3c-0.3,1.4-0.5,2.8-0.7,4.3c-0.4,3.5-0.4,7.1,0.1,10.7
				c0.3,2.3,0.8,4.5,1.4,6.6c4.4,15.1,16.8,26.9,32.9,33c8.8,3.3,18.8,5,29.2,4.4c2.1-0.1,4.2-0.3,6.3-0.6l0,0
				c16.6-2.2,31.1-9.6,41.1-19.8c11-11.1,16.8-25.6,14.8-40.5c-1-7.4-3.8-14.2-8-20.1c-10.5-14.7-29.8-24.1-51.6-24.1
				C515.9,422.2,512.5,422.4,509.1,422.8"/>
		</defs>
		<clipPath id="SVGID_59_">
			<use xlink:href="#SVGID_58_"  style="overflow:visible;"/>
		</clipPath>
		
			<linearGradient id="SVGID_60_" gradientUnits="userSpaceOnUse" x1="2.728484e-11" y1="813.0061" x2="1" y2="813.0061" gradientTransform="matrix(-73.923 88.9609 88.9609 73.923 -71764.2734 -59678.7344)">
			<stop  offset="0" style="stop-color:#C3CD2F"/>
			<stop  offset="0.3068" style="stop-color:#C3CD2F"/>
			<stop  offset="0.7444" style="stop-color:#959637"/>
			<stop  offset="1" style="stop-color:#959637"/>
		</linearGradient>
		<polygon class="st22" points="632.7,465.3 528.5,590.7 400.7,484.6 505,359.1 		"/>
	</g>
	<g class="st1">
		<defs>
			<path id="SVGID_61_" d="M397.7,528.3c-34.7,4.6-60,30.2-56.4,57.1c3.6,26.9,34.7,45,69.4,40.3s60-30.2,56.4-57.1
				c-3.2-24.1-28.4-41.1-58.5-41.1C405,527.6,401.4,527.8,397.7,528.3"/>
		</defs>
		<clipPath id="SVGID_62_">
			<use xlink:href="#SVGID_61_"  style="overflow:visible;"/>
		</clipPath>
		
			<linearGradient id="SVGID_63_" gradientUnits="userSpaceOnUse" x1="-1.364242e-11" y1="813.012" x2="1" y2="813.012" gradientTransform="matrix(-89.6939 81.4536 81.4536 89.6939 -65783.1563 -72375.3281)">
			<stop  offset="0" style="stop-color:#B9D232"/>
			<stop  offset="0.6785" style="stop-color:#9ABA3C"/>
			<stop  offset="1" style="stop-color:#9ABA3C"/>
		</linearGradient>
		<polygon class="st23" points="521.9,583.9 397.9,696.5 286.6,574 410.6,461.4 		"/>
	</g>
	<g class="st1">
		<defs>
			<path id="SVGID_64_" d="M474.9,516.1c-16.9,21.3-13.3,52.2,8,69.1c21.3,16.9,52.2,13.3,69.1-8c16.9-21.3,13.3-52.2-8-69.1
				c-9-7.2-19.8-10.6-30.5-10.6C498.9,497.5,484.6,503.9,474.9,516.1"/>
		</defs>
		<clipPath id="SVGID_65_">
			<use xlink:href="#SVGID_64_"  style="overflow:visible;"/>
		</clipPath>
		
			<linearGradient id="SVGID_66_" gradientUnits="userSpaceOnUse" x1="6.366463e-12" y1="813.0203" x2="1" y2="813.0203" gradientTransform="matrix(-82.2704 76.6723 76.6723 82.2704 -61771.7461 -66385.2891)">
			<stop  offset="0" style="stop-color:#C3CD2F"/>
			<stop  offset="0.26" style="stop-color:#C3CD2F"/>
			<stop  offset="0.982" style="stop-color:#959637"/>
			<stop  offset="1" style="stop-color:#959637"/>
		</linearGradient>
		<polygon class="st24" points="620.9,553.5 509.5,657.3 405.8,546.1 517.3,442.2 		"/>
	</g>
	<g class="st1">
		<defs>
			<rect id="SVGID_67_" width="1283.2" height="813"/>
		</defs>
		<clipPath id="SVGID_68_">
			<use xlink:href="#SVGID_67_"  style="overflow:visible;"/>
		</clipPath>
		<path class="st25" d="M501.3,502.4c0,27.4-26.9,49.6-60.1,49.6c-33.2,0-60.1-22.2-60.1-49.6c0-27.4,26.9-49.6,60.1-49.6
			C474.4,452.9,501.3,475.1,501.3,502.4"/>
	</g>
	<g class="st1">
		<defs>
			<path id="SVGID_69_" d="M628.7,686.3c0,5.8,2.4,11.1,6.3,14.7h55.1c0.7-2.1,1.1-4.3,1.1-6.7c0-11.1-8.7-20.1-19.4-20.1
				c-2.6,0-5,0.5-7.2,1.5c-3.4-5.7-9.5-9.5-16.5-9.5C637.4,666.2,628.7,675.2,628.7,686.3"/>
		</defs>
		<clipPath id="SVGID_70_">
			<use xlink:href="#SVGID_69_"  style="overflow:visible;"/>
		</clipPath>
		
			<linearGradient id="SVGID_71_" gradientUnits="userSpaceOnUse" x1="-1.818989e-12" y1="813.1003" x2="1" y2="813.1003" gradientTransform="matrix(42.4215 31.2707 31.2707 -42.4215 -24789.0137 35159.6914)">
			<stop  offset="0" style="stop-color:#8EA83C"/>
			<stop  offset="0.1639" style="stop-color:#8EA83C"/>
			<stop  offset="0.9987" style="stop-color:#758838"/>
			<stop  offset="1" style="stop-color:#758838"/>
		</linearGradient>
		<polygon class="st26" points="650.8,636.3 707.9,678.4 669.3,730.9 612.1,688.7 		"/>
	</g>
	<g class="st1">
		<defs>
			<path id="SVGID_72_" d="M701.8,673.9l-1.1,1.2c-0.5,0.5-0.5,1.4,0.1,1.8l4.3,4l-37.7,2.6c-5.4,0.4-9.5,5.1-9.1,10.5
				c0.4,5.4,5.1,9.5,10.5,9.1l51.4-3.6c5.4-0.4,9.5-5.1,9.1-10.5c-0.4-5.4-5.1-9.5-10.5-9.1l-8,0.6l-7.2-6.7
				c-0.3-0.2-0.6-0.4-0.9-0.4C702.5,673.5,702.1,673.7,701.8,673.9"/>
		</defs>
		<clipPath id="SVGID_73_">
			<use xlink:href="#SVGID_72_"  style="overflow:visible;"/>
		</clipPath>
		
			<linearGradient id="SVGID_74_" gradientUnits="userSpaceOnUse" x1="-1.455192e-11" y1="813.0458" x2="1" y2="813.0458" gradientTransform="matrix(10.6235 24.4489 24.4489 -10.6235 -19188.8711 9315.2705)">
			<stop  offset="0" style="stop-color:#C9976C"/>
			<stop  offset="0.5483" style="stop-color:#A57B5A"/>
			<stop  offset="0.9205" style="stop-color:#87634A"/>
			<stop  offset="1" style="stop-color:#87634A"/>
		</linearGradient>
		<polygon class="st27" points="718.4,647.3 740.8,698.9 669.3,729.9 646.9,678.3 		"/>
	</g>
	<g class="st1">
		<defs>
			<rect id="SVGID_75_" width="1283.2" height="813"/>
		</defs>
		<clipPath id="SVGID_76_">
			<use xlink:href="#SVGID_75_"  style="overflow:visible;"/>
		</clipPath>
		<g class="st28">
			<g>
				<defs>
					<rect id="SVGID_77_" x="658.3" y="683.6" width="19.5" height="19.5"/>
				</defs>
				<clipPath id="SVGID_78_">
					<use xlink:href="#SVGID_77_"  style="overflow:visible;"/>
				</clipPath>
				<path class="st29" d="M677.7,692.7c0.4,5.4-3.7,10-9,10.4c-5.4,0.4-10-3.7-10.4-9c-0.4-5.4,3.7-10,9-10.4
					C672.7,683.3,677.3,687.3,677.7,692.7"/>
			</g>
		</g>
		<path class="st30" d="M675.8,692.8c0.3,4.3-3,8.1-7.3,8.4c-4.3,0.3-8.1-3-8.4-7.3c-0.3-4.3,3-8.1,7.3-8.4
			C671.8,685.2,675.5,688.5,675.8,692.8"/>
		<g class="st31">
			<g>
				<defs>
					<rect id="SVGID_79_" x="683.8" y="685" width="8.9" height="2.4"/>
				</defs>
				<clipPath id="SVGID_80_">
					<use xlink:href="#SVGID_79_"  style="overflow:visible;"/>
				</clipPath>
				<path class="st32" d="M691.9,686.9l-7,0.5c-0.5,0-1-0.4-1-0.9c0-0.5,0.4-1,0.9-1l7-0.5c0.5,0,1,0.4,1,0.9
					C692.8,686.4,692.4,686.8,691.9,686.9"/>
			</g>
		</g>
		<g class="st33">
			<g>
				<defs>
					<rect id="SVGID_81_" x="678.2" y="697.1" width="15.4" height="2.8"/>
				</defs>
				<clipPath id="SVGID_82_">
					<use xlink:href="#SVGID_81_"  style="overflow:visible;"/>
				</clipPath>
				<path class="st34" d="M692.7,699l-13.6,1c-0.5,0-1-0.4-1-0.9c0-0.5,0.4-1,0.9-1l13.6-1c0.5,0,1,0.4,1,0.9
					C693.6,698.5,693.2,699,692.7,699"/>
			</g>
		</g>
		<g class="st35">
			<g>
				<defs>
					<rect id="SVGID_83_" x="696.4" y="689.9" width="13.6" height="2.7"/>
				</defs>
				<clipPath id="SVGID_84_">
					<use xlink:href="#SVGID_83_"  style="overflow:visible;"/>
				</clipPath>
				<path class="st36" d="M709.1,691.8l-11.7,0.8c-0.5,0-1-0.4-1-0.9c0-0.5,0.4-1,0.9-1l11.7-0.8c0.5,0,1,0.4,1,0.9
					C710,691.3,709.6,691.7,709.1,691.8"/>
			</g>
		</g>
		<g class="st37">
			<g>
				<defs>
					<rect id="SVGID_85_" x="704.8" y="694.9" width="13.6" height="2.7"/>
				</defs>
				<clipPath id="SVGID_86_">
					<use xlink:href="#SVGID_85_"  style="overflow:visible;"/>
				</clipPath>
				<path class="st38" d="M717.5,696.8l-11.7,0.8c-0.5,0-1-0.4-1-0.9c0-0.5,0.4-1,0.9-1l11.7-0.8c0.5,0,1,0.4,1,0.9
					C718.4,696.3,718,696.8,717.5,696.8"/>
			</g>
		</g>
		<g class="st39">
			<g>
				<defs>
					<rect id="SVGID_87_" x="706.7" y="682.1" width="13.6" height="2.7"/>
				</defs>
				<clipPath id="SVGID_88_">
					<use xlink:href="#SVGID_87_"  style="overflow:visible;"/>
				</clipPath>
				<path class="st40" d="M719.4,684l-11.7,0.8c-0.5,0-1-0.4-1-0.9c0-0.5,0.4-1,0.9-1l11.7-0.8c0.5,0,1,0.4,1,0.9
					C720.3,683.5,719.9,683.9,719.4,684"/>
			</g>
		</g>
		<g class="st41">
			<g>
				<defs>
					<rect id="SVGID_89_" x="955.3" y="693" width="216" height="22"/>
				</defs>
				<clipPath id="SVGID_90_">
					<use xlink:href="#SVGID_89_"  style="overflow:visible;"/>
				</clipPath>
				<path class="st42" d="M1171.3,704c0,6.1-48.4,11-108,11c-59.6,0-108-4.9-108-11s48.4-11,108-11
					C1122.9,693,1171.3,697.9,1171.3,704"/>
			</g>
		</g>
	</g>
	<g class="st1">
		<defs>
			<path id="SVGID_91_" d="M980.5,678.8c0,12.4,6.4,23.6,16.5,31.2h145.2c1.9-4.4,3-9.2,3-14.2c0-23.5-22.9-42.6-51.1-42.6
				c-6.8,0-13.2,1.1-19.1,3.1c-9-12.1-25-20.2-43.4-20.2C1003.4,636.2,980.5,655.3,980.5,678.8"/>
		</defs>
		<clipPath id="SVGID_92_">
			<use xlink:href="#SVGID_91_"  style="overflow:visible;"/>
		</clipPath>
		
			<linearGradient id="SVGID_93_" gradientUnits="userSpaceOnUse" x1="-2.819434e-11" y1="813.0861" x2="1" y2="813.0861" gradientTransform="matrix(106.2851 78.3473 78.3473 -106.2851 -62698.1602 87049.3984)">
			<stop  offset="0" style="stop-color:#8EA83C"/>
			<stop  offset="0.1639" style="stop-color:#8EA83C"/>
			<stop  offset="0.9987" style="stop-color:#758838"/>
			<stop  offset="1" style="stop-color:#758838"/>
		</linearGradient>
		<polygon class="st43" points="1038.5,557.5 1180.4,662.2 1087.2,788.7 945.2,684 		"/>
	</g>
	<g class="st1">
		<defs>
			<rect id="SVGID_94_" width="1283.2" height="813"/>
		</defs>
		<clipPath id="SVGID_95_">
			<use xlink:href="#SVGID_94_"  style="overflow:visible;"/>
		</clipPath>
		<g class="st44">
			<g>
				<defs>
					<rect id="SVGID_96_" x="336.3" y="776" width="185" height="13"/>
				</defs>
				<clipPath id="SVGID_97_">
					<use xlink:href="#SVGID_96_"  style="overflow:visible;"/>
				</clipPath>
				<path class="st45" d="M521.3,782.5c0,3.6-41.4,6.5-92.5,6.5s-92.5-2.9-92.5-6.5c0-3.6,41.4-6.5,92.5-6.5
					S521.3,778.9,521.3,782.5"/>
			</g>
		</g>
		<g class="st44">
			<g>
				<defs>
					<rect id="SVGID_98_" x="59.3" y="637" width="185" height="13"/>
				</defs>
				<clipPath id="SVGID_99_">
					<use xlink:href="#SVGID_98_"  style="overflow:visible;"/>
				</clipPath>
				<path class="st46" d="M244.3,643.5c0,3.6-41.4,6.5-92.5,6.5s-92.5-2.9-92.5-6.5c0-3.6,41.4-6.5,92.5-6.5
					S244.3,639.9,244.3,643.5"/>
			</g>
		</g>
	</g>
	<g class="st1">
		<defs>
			<path id="SVGID_100_" d="M328,781h179.8c-11.2-8.8-26.3-14.1-42.8-14.1c-8.4,0-16.3,1.3-23.6,3.9c-11.1-15-31-25-53.7-25
				C360,745.8,336.6,760.5,328,781"/>
		</defs>
		<clipPath id="SVGID_101_">
			<use xlink:href="#SVGID_100_"  style="overflow:visible;"/>
		</clipPath>
		
			<linearGradient id="SVGID_102_" gradientUnits="userSpaceOnUse" x1="1.818989e-11" y1="813.1246" x2="1" y2="813.1246" gradientTransform="matrix(100.6735 62.3805 62.3805 -100.6735 -50354.1133 82593.2578)">
			<stop  offset="0" style="stop-color:#8EA83C"/>
			<stop  offset="0.1639" style="stop-color:#8EA83C"/>
			<stop  offset="0.9987" style="stop-color:#6F8035"/>
			<stop  offset="1" style="stop-color:#6F8035"/>
		</linearGradient>
		<polygon class="st47" points="377.8,665.4 523.5,755.6 457.9,861.5 312.2,771.2 		"/>
	</g>
	<g class="st1">
		<defs>
			<path id="SVGID_103_" d="M125,258.6c0,27.1,17.6,49.1,39.3,49.1c21.7,0,39.3-22,39.3-49.1c0-27.1-17.6-49.1-39.3-49.1
				C142.6,209.6,125,231.5,125,258.6"/>
		</defs>
		<clipPath id="SVGID_104_">
			<use xlink:href="#SVGID_103_"  style="overflow:visible;"/>
		</clipPath>
		
			<linearGradient id="SVGID_105_" gradientUnits="userSpaceOnUse" x1="2.182787e-11" y1="813" x2="1" y2="813" gradientTransform="matrix(64.0912 72.6367 -72.6367 64.0912 59185.3359 -51884.3945)">
			<stop  offset="0" style="stop-color:#C4D143"/>
			<stop  offset="0.1052" style="stop-color:#C4D143"/>
			<stop  offset="0.563" style="stop-color:#99B03D"/>
			<stop  offset="0.6785" style="stop-color:#8EA83C"/>
			<stop  offset="1" style="stop-color:#8EA83C"/>
		</linearGradient>
		<polygon class="st48" points="76.3,252.5 159.4,346.7 252.3,264.8 169.2,170.6 		"/>
	</g>
	<g class="st1">
		<defs>
			<path id="SVGID_106_" d="M164.3,317.6c0,27.1,17.6,49.1,39.3,49.1s39.3-22,39.3-49.1c0-27.1-17.6-49.1-39.3-49.1
				S164.3,290.4,164.3,317.6"/>
		</defs>
		<clipPath id="SVGID_107_">
			<use xlink:href="#SVGID_106_"  style="overflow:visible;"/>
		</clipPath>
		
			<linearGradient id="SVGID_108_" gradientUnits="userSpaceOnUse" x1="3.274181e-11" y1="813" x2="1" y2="813" gradientTransform="matrix(-72.918 -113.4281 113.4281 -72.918 -91978.5 59654.3242)">
			<stop  offset="0" style="stop-color:#9A9E37"/>
			<stop  offset="0.2379" style="stop-color:#9A9E37"/>
			<stop  offset="0.7566" style="stop-color:#BABB33"/>
			<stop  offset="1" style="stop-color:#BABB33"/>
		</linearGradient>
		<polygon class="st49" points="287.5,337.9 219.9,232.7 119.6,297.2 187.2,402.4 		"/>
	</g>
	<g class="st1">
		<defs>
			<path id="SVGID_109_" d="M66.1,304.1c0,32.5,17.6,58.9,39.3,58.9s39.3-26.4,39.3-58.9c0-32.5-17.6-58.9-39.3-58.9
				S66.1,271.6,66.1,304.1"/>
		</defs>
		<clipPath id="SVGID_110_">
			<use xlink:href="#SVGID_109_"  style="overflow:visible;"/>
		</clipPath>
		
			<linearGradient id="SVGID_111_" gradientUnits="userSpaceOnUse" x1="1.909939e-11" y1="813" x2="1" y2="813" gradientTransform="matrix(48.1926 90.0068 -90.0068 48.1926 73251.7813 -38930.9102)">
			<stop  offset="0" style="stop-color:#C3CD2F"/>
			<stop  offset="0.2379" style="stop-color:#C3CD2F"/>
			<stop  offset="0.7566" style="stop-color:#A7AE37"/>
			<stop  offset="1" style="stop-color:#A7AE37"/>
		</linearGradient>
		<polygon class="st50" points="17.1,271.4 83.6,395.7 193.7,336.8 127.1,212.5 		"/>
	</g>
	<g class="st1">
		<defs>
			<path id="SVGID_112_" d="M154.2,328.4l-4.9,141.2c-0.1,3.1-3.6,4.8-6.1,2.9c-10.7-8-23.1-20-23.1-20v9c0.3,5.4,15,15,25.6,21.2
				c2,1.2,3.1,3.3,3.1,5.6L143.6,638c-0.1,1.9,1.4,3.6,3.2,3.6h18.8c1.8,0,3.3-1.6,3.2-3.5l-4-149.5c-0.1-2.6,1.3-5,3.5-6.3
				c10.5-6.1,38.9-24.9,53.8-55.6l6.5-18.6l-5.4-2.1c0,0-17,34.9-53.8,56.1c-2.3,1.3-5.2-0.3-5.3-2.9l-3.6-130.7H154.2z"/>
		</defs>
		<clipPath id="SVGID_113_">
			<use xlink:href="#SVGID_112_"  style="overflow:visible;"/>
		</clipPath>
		
			<linearGradient id="SVGID_114_" gradientUnits="userSpaceOnUse" x1="1.000444e-11" y1="813" x2="1" y2="813" gradientTransform="matrix(0 143.3931 -143.3931 0 116752.9063 398.3975)">
			<stop  offset="0" style="stop-color:#DAAE82"/>
			<stop  offset="0.3499" style="stop-color:#DAAE82"/>
			<stop  offset="0.4837" style="stop-color:#D8AC81"/>
			<stop  offset="0.5357" style="stop-color:#D4A67B"/>
			<stop  offset="0.5735" style="stop-color:#CD9C71"/>
			<stop  offset="0.5862" style="stop-color:#C9976C"/>
			<stop  offset="1" style="stop-color:#C9976C"/>
		</linearGradient>
		<rect x="120.1" y="328.4" class="st51" width="108.5" height="313.2"/>
	</g>
	<g class="st1">
		<defs>
			<path id="SVGID_115_" d="M203.5,376.5c0,27.1,17.6,49.1,39.3,49.1s39.3-22,39.3-49.1s-17.6-49.1-39.3-49.1
				S203.5,349.3,203.5,376.5"/>
		</defs>
		<clipPath id="SVGID_116_">
			<use xlink:href="#SVGID_115_"  style="overflow:visible;"/>
		</clipPath>
		
			<linearGradient id="SVGID_117_" gradientUnits="userSpaceOnUse" x1="1.818989e-12" y1="813" x2="1" y2="813" gradientTransform="matrix(91.6599 128.1748 -128.1748 91.6599 104395.5469 -74217.6406)">
			<stop  offset="0" style="stop-color:#C9DB46"/>
			<stop  offset="0.3146" style="stop-color:#C9DB46"/>
			<stop  offset="0.4338" style="stop-color:#C4D545"/>
			<stop  offset="0.5791" style="stop-color:#B5C842"/>
			<stop  offset="0.7376" style="stop-color:#9EB53E"/>
			<stop  offset="0.8321" style="stop-color:#8EA83C"/>
			<stop  offset="1" style="stop-color:#8EA83C"/>
		</linearGradient>
		<polygon class="st52" points="157.1,360.6 230.1,462.7 328.5,392.3 255.5,290.2 		"/>
	</g>
	<g class="st1">
		<defs>
			<path id="SVGID_118_" d="M101.7,357.9c0,47.1,26.4,85.3,58.9,85.3c32.5,0,58.9-38.2,58.9-85.3s-26.4-85.3-58.9-85.3
				C128.1,272.6,101.7,310.7,101.7,357.9"/>
		</defs>
		<clipPath id="SVGID_119_">
			<use xlink:href="#SVGID_118_"  style="overflow:visible;"/>
		</clipPath>
		
			<linearGradient id="SVGID_120_" gradientUnits="userSpaceOnUse" x1="-1.818989e-12" y1="813" x2="1" y2="813" gradientTransform="matrix(44.613 126.171 -126.171 44.613 102713.1719 -35981.7891)">
			<stop  offset="0" style="stop-color:#C4D143"/>
			<stop  offset="0.1052" style="stop-color:#C4D143"/>
			<stop  offset="0.563" style="stop-color:#99B03D"/>
			<stop  offset="0.6785" style="stop-color:#8EA83C"/>
			<stop  offset="1" style="stop-color:#8EA83C"/>
		</linearGradient>
		<polygon class="st53" points="48.1,291.5 114.8,480.2 273.2,424.2 206.5,235.5 		"/>
	</g>
	<g class="st1">
		<defs>
			<path id="SVGID_121_" d="M57.1,362.6c0,19.9,16.1,36,36,36c19.9,0,36-16.1,36-36c0-19.9-16.1-36-36-36
				C73.2,326.6,57.1,342.7,57.1,362.6"/>
		</defs>
		<clipPath id="SVGID_122_">
			<use xlink:href="#SVGID_121_"  style="overflow:visible;"/>
		</clipPath>
		
			<linearGradient id="SVGID_123_" gradientUnits="userSpaceOnUse" x1="7.275958e-12" y1="813" x2="1" y2="813" gradientTransform="matrix(33.8317 82.859 -82.859 33.8317 67438.7656 -27188.3086)">
			<stop  offset="0" style="stop-color:#B4C63C"/>
			<stop  offset="0.1052" style="stop-color:#B4C63C"/>
			<stop  offset="0.2855" style="stop-color:#ADC13C"/>
			<stop  offset="0.5288" style="stop-color:#9CB33C"/>
			<stop  offset="0.6939" style="stop-color:#8EA83C"/>
			<stop  offset="1" style="stop-color:#8EA83C"/>
		</linearGradient>
		<polygon class="st54" points="31.9,336.8 67.4,423.7 154.3,388.3 118.8,301.4 		"/>
	</g>
	<g class="st1">
		<defs>
			<path id="SVGID_124_" d="M66.1,430.1c0,22.4,16.1,40.5,36,40.5c19.9,0,36-18.1,36-40.5c0-22.4-16.1-40.5-36-40.5
				C82.2,389.6,66.1,407.7,66.1,430.1"/>
		</defs>
		<clipPath id="SVGID_125_">
			<use xlink:href="#SVGID_124_"  style="overflow:visible;"/>
		</clipPath>
		
			<linearGradient id="SVGID_126_" gradientUnits="userSpaceOnUse" x1="-2.182787e-11" y1="813" x2="1" y2="813" gradientTransform="matrix(29.5966 105.3639 -105.3639 29.5966 85747.0938 -23688.4688)">
			<stop  offset="0" style="stop-color:#E2B634"/>
			<stop  offset="6.579775e-02" style="stop-color:#DDB835"/>
			<stop  offset="0.4325" style="stop-color:#C8C238"/>
			<stop  offset="0.756" style="stop-color:#B9C73A"/>
			<stop  offset="1" style="stop-color:#B4C93B"/>
		</linearGradient>
		<polygon class="st55" points="45,395.5 71.4,489.3 159.2,464.6 132.8,370.8 		"/>
	</g>
	<g class="st1">
		<defs>
			<path id="SVGID_127_" d="M817.7,756.9c-6,0.3-4.9,6-10.3,7.3c-0.2,0.1-1.4,0.1-1.6,0.1c6.2,3.8,11.3,9.5,19.2,11.4
				c1.5,0.4,3.5,0.5,4.4-0.5c0.6-0.6,0.3-1.4,0.3-2.1c-0.4-4.1,5.3-8,11.3-7.6c1.1,0.1,2.4,0.2,3.3-0.2c1.2-0.5,1.3-1.6,1.4-2.6
				c0.1-1.7-0.1-3.7-2.3-4.6c-3.7-1.5-7.5,2.1-11.7,2.4c-2.6,0.2-4.9-0.8-7.1-1.9c-2.1-1-4.2-1.9-6.5-1.9
				C818,756.9,817.9,756.9,817.7,756.9"/>
		</defs>
		<clipPath id="SVGID_128_">
			<use xlink:href="#SVGID_127_"  style="overflow:visible;"/>
		</clipPath>
		
			<linearGradient id="SVGID_129_" gradientUnits="userSpaceOnUse" x1="-1.376285e-05" y1="812.9984" x2="1" y2="812.9984" gradientTransform="matrix(39.913 0 0 -39.913 805.8295 33215.7305)">
			<stop  offset="0" style="stop-color:#FFE194"/>
			<stop  offset="0.3025" style="stop-color:#FED25E"/>
			<stop  offset="0.5644" style="stop-color:#FCC51A"/>
			<stop  offset="1" style="stop-color:#FCC51A"/>
		</linearGradient>
		<rect x="805.8" y="756.8" class="st56" width="40" height="19.4"/>
	</g>
	<g class="st1">
		<defs>
			<path id="SVGID_130_" d="M1157.3,517.7c-3,0.2-2.5,3-5.1,3.6c-0.1,0-0.7,0.1-0.8,0.1c3.1,1.9,5.7,4.8,9.6,5.7
				c0.8,0.2,1.8,0.2,2.2-0.2c0.3-0.3,0.2-0.7,0.1-1c-0.2-2,2.7-4,5.7-3.8c0.6,0,1.2,0.1,1.7-0.1c0.6-0.3,0.7-0.8,0.7-1.3
				c0-0.8-0.1-1.9-1.1-2.3c-1.8-0.7-3.7,1-5.8,1.2c-1.3,0.1-2.4-0.4-3.6-0.9c-1-0.5-2.1-1-3.3-1
				C1157.4,517.7,1157.3,517.7,1157.3,517.7"/>
		</defs>
		<clipPath id="SVGID_131_">
			<use xlink:href="#SVGID_130_"  style="overflow:visible;"/>
		</clipPath>
		
			<linearGradient id="SVGID_132_" gradientUnits="userSpaceOnUse" x1="-4.893455e-05" y1="812.9984" x2="1" y2="812.9984" gradientTransform="matrix(19.9565 0 0 -19.9565 1151.3208 16747.1211)">
			<stop  offset="0" style="stop-color:#FFE194"/>
			<stop  offset="0.3025" style="stop-color:#FED25E"/>
			<stop  offset="0.5644" style="stop-color:#FCC51A"/>
			<stop  offset="1" style="stop-color:#FCC51A"/>
		</linearGradient>
		<rect x="1151.3" y="517.7" class="st57" width="20" height="9.7"/>
	</g>
	<g class="st1">
		<defs>
			<path id="SVGID_133_" d="M166.3,633.9c-6,0.3-4.9,6-10.3,7.3c-0.2,0.1-1.4,0.1-1.6,0.1c6.2,3.8,11.3,9.5,19.2,11.4
				c1.5,0.4,3.5,0.5,4.4-0.5c0.6-0.6,0.3-1.4,0.3-2.1c-0.4-4.1,5.3-8,11.3-7.6c1.1,0.1,2.4,0.2,3.3-0.2c1.2-0.5,1.3-1.6,1.4-2.6
				c0.1-1.7-0.1-3.7-2.3-4.6c-3.7-1.5-7.5,2.1-11.7,2.4c-2.6,0.2-4.9-0.8-7.1-1.9c-2.1-1-4.2-1.9-6.5-1.9
				C166.6,633.9,166.4,633.9,166.3,633.9"/>
		</defs>
		<clipPath id="SVGID_134_">
			<use xlink:href="#SVGID_133_"  style="overflow:visible;"/>
		</clipPath>
		
			<linearGradient id="SVGID_135_" gradientUnits="userSpaceOnUse" x1="-9.557534e-06" y1="812.9984" x2="1" y2="812.9984" gradientTransform="matrix(39.913 0 0 -39.913 154.3864 33092.7813)">
			<stop  offset="0" style="stop-color:#FFE194"/>
			<stop  offset="0.3025" style="stop-color:#FED25E"/>
			<stop  offset="0.5644" style="stop-color:#FCC51A"/>
			<stop  offset="1" style="stop-color:#FCC51A"/>
		</linearGradient>
		<rect x="154.4" y="633.9" class="st58" width="40" height="19.4"/>
	</g>
	<g class="st1">
		<defs>
			<path id="SVGID_136_" d="M1164.8,698.9c-2.9,0.3-5.7,1-7.1,2.1c-1.2,0.9-1.3,2-1.3,3.1c0.3,2.7,1.8,5.4,4.5,7.9l1.4,0.7
				c3.2,1.4,9.1-0.5,13.5-1c2.3-0.3,4.8-0.6,6.7-1.3c3-1.1,4-3,3.5-4.7c-1-3.8-9.3-7-18-7C1167,698.7,1165.9,698.8,1164.8,698.9"/>
		</defs>
		<clipPath id="SVGID_137_">
			<use xlink:href="#SVGID_136_"  style="overflow:visible;"/>
		</clipPath>
		
			<linearGradient id="SVGID_138_" gradientUnits="userSpaceOnUse" x1="3.637979e-12" y1="812.985" x2="1" y2="812.985" gradientTransform="matrix(29.7875 0 0 -29.7875 1156.3835 24923.2773)">
			<stop  offset="0" style="stop-color:#4084C5"/>
			<stop  offset="0.1971" style="stop-color:#4084C5"/>
			<stop  offset="0.4688" style="stop-color:#3561AB"/>
			<stop  offset="0.5644" style="stop-color:#3255A3"/>
			<stop  offset="1" style="stop-color:#3255A3"/>
		</linearGradient>
		<rect x="1156.3" y="698.7" class="st59" width="30.2" height="15.4"/>
	</g>
	<g class="st1">
		<defs>
			<path id="SVGID_139_" d="M486.3,775.4c-2.9,0.3-5.7,1-7.1,2.1c-1.2,0.9-1.3,2-1.3,3.1c0.3,2.7,1.8,5.4,4.6,7.9l1.4,0.7
				c3.2,1.4,9.1-0.5,13.5-1c2.3-0.3,4.8-0.6,6.6-1.3c3-1.1,4-3,3.5-4.7c-1-3.8-9.3-7-18-7C488.6,775.2,487.4,775.3,486.3,775.4"/>
		</defs>
		<clipPath id="SVGID_140_">
			<use xlink:href="#SVGID_139_"  style="overflow:visible;"/>
		</clipPath>
		
			<linearGradient id="SVGID_141_" gradientUnits="userSpaceOnUse" x1="-1.273293e-11" y1="812.985" x2="1" y2="812.985" gradientTransform="matrix(29.7875 0 0 -29.7875 477.9373 24999.7773)">
			<stop  offset="0" style="stop-color:#4084C5"/>
			<stop  offset="0.1971" style="stop-color:#4084C5"/>
			<stop  offset="0.4688" style="stop-color:#3561AB"/>
			<stop  offset="0.5644" style="stop-color:#3255A3"/>
			<stop  offset="1" style="stop-color:#3255A3"/>
		</linearGradient>
		<rect x="477.9" y="775.2" class="st60" width="30.2" height="15.4"/>
	</g>
	<g class="st1">
		<defs>
			<path id="SVGID_142_" d="M498.6,493.5c-0.4,1.7,0.5,3.6,3.5,4.7c1.9,0.7,4.3,1,6.6,1.3c4.4,0.6,10.3,2.5,13.5,1l1.4-0.7
				c2.7-2.5,4.3-5.2,4.6-7.9c0.1-1.1,0-2.2-1.2-3.1c-1.5-1.1-4.3-1.8-7.1-2.1c-1.1-0.1-2.2-0.2-3.3-0.2
				C507.9,486.5,499.6,489.7,498.6,493.5"/>
		</defs>
		<clipPath id="SVGID_143_">
			<use xlink:href="#SVGID_142_"  style="overflow:visible;"/>
		</clipPath>
		
			<linearGradient id="SVGID_144_" gradientUnits="userSpaceOnUse" x1="9.094947e-12" y1="812.985" x2="1" y2="812.985" gradientTransform="matrix(-29.7875 0 0 -29.7875 528.2758 24711.0352)">
			<stop  offset="0" style="stop-color:#4084C5"/>
			<stop  offset="0.1971" style="stop-color:#4084C5"/>
			<stop  offset="0.4688" style="stop-color:#3561AB"/>
			<stop  offset="0.5644" style="stop-color:#3255A3"/>
			<stop  offset="1" style="stop-color:#3255A3"/>
		</linearGradient>
		<rect x="498.1" y="486.5" class="st61" width="30.2" height="15.4"/>
	</g>
	<g class="st1">
		<defs>
			<path id="SVGID_145_" d="M548.4,705.2c-1.5,0.9-0.6,2.1,1.5,2.8c2.1,0.8,5.3,1.2,8.5,1.3c1.2,0.1,2.5,0.1,3.6,0.3
				c3.6,0.8,0.7,3,4.5,3.6c2.4,0.4,5.2-0.3,7.9-0.5c1.7-0.1,3.4,0,5-0.2c1.6-0.2,5.2-5,3.8-7.5c-0.1-0.2-0.3-0.4-0.8-0.6
				c-0.4-0.1-1-0.2-1.5-0.2c-3.5-0.2-6.7,0.6-9.6,1.2c-3,0.6-6.9,1.1-9.9,0.5c-2-0.4-2.8-1.2-4.8-1.7c-0.8-0.2-1.7-0.2-2.7-0.2
				C551.7,704.2,549.4,704.6,548.4,705.2"/>
		</defs>
		<clipPath id="SVGID_146_">
			<use xlink:href="#SVGID_145_"  style="overflow:visible;"/>
		</clipPath>
		
			<linearGradient id="SVGID_147_" gradientUnits="userSpaceOnUse" x1="1.364242e-11" y1="812.9962" x2="1" y2="812.9962" gradientTransform="matrix(-35.8084 0 0 -35.8084 583.4529 29821.0801)">
			<stop  offset="0" style="stop-color:#DE6B80"/>
			<stop  offset="1" style="stop-color:#B5467E"/>
		</linearGradient>
		<rect x="546.9" y="704.2" class="st62" width="37.6" height="9.5"/>
	</g>
	<g class="st1">
		<defs>
			<path id="SVGID_148_" d="M809.9,677.7c-0.4,0-0.9,0-1.3,0c-2.7,0.2-3.2,1.2-2.6,1.9c1.2,1.4,4.9,2.6,10,3.1
				c5,0.5,11.3,0.2,14.9-0.8c3.7-1,4.3-2.8,1-3.9c-1.7-0.6-6.8-0.9-11.9-0.9C816.1,677.2,812.1,677.4,809.9,677.7"/>
		</defs>
		<clipPath id="SVGID_149_">
			<use xlink:href="#SVGID_148_"  style="overflow:visible;"/>
		</clipPath>
		
			<linearGradient id="SVGID_150_" gradientUnits="userSpaceOnUse" x1="-6.366463e-12" y1="812.9952" x2="1" y2="812.9952" gradientTransform="matrix(28.2511 0 0 -28.2511 805.8295 23648.2754)">
			<stop  offset="0" style="stop-color:#E57A96"/>
			<stop  offset="0.5644" style="stop-color:#E94B6E"/>
			<stop  offset="1" style="stop-color:#E94B6E"/>
		</linearGradient>
		<rect x="805.5" y="677.2" class="st63" width="29.8" height="6.1"/>
	</g>
</g>
</svg>
