<?xml version="1.0" encoding="utf-8"?>
<!-- Generator: Adobe Illustrator 20.0.0, SVG Export Plug-In . SVG Version: 6.00 Build 0)  -->
<svg version="1.1" id="Laag_1" xmlns="http://www.w3.org/2000/svg" xmlns:xlink="http://www.w3.org/1999/xlink" x="0px" y="0px"
	 viewBox="0 0 1280 800" style="enable-background:new 0 0 1280 800;" xml:space="preserve">
<style type="text/css">
	.st0{clip-path:url(#SVGID_2_);fill:#BAE1F7;}
	.st1{clip-path:url(#SVGID_2_);}
	.st2{clip-path:url(#SVGID_4_);fill:#C5CE2E;}
	.st3{clip-path:url(#SVGID_4_);fill:#BAE1F7;}
	.st4{clip-path:url(#SVGID_6_);fill:url(#SVGID_7_);}
	.st5{clip-path:url(#SVGID_9_);fill:url(#SVGID_10_);}
	.st6{clip-path:url(#SVGID_12_);fill:#687A86;}
	.st7{clip-path:url(#SVGID_14_);fill:url(#SVGID_15_);}
	.st8{clip-path:url(#SVGID_17_);fill:url(#SVGID_18_);}
	.st9{clip-path:url(#SVGID_20_);fill:url(#SVGID_21_);}
	.st10{opacity:5.999760e-02;clip-path:url(#SVGID_23_);}
	.st11{clip-path:url(#SVGID_25_);fill:#010101;}
	.st12{clip-path:url(#SVGID_27_);fill:#010101;}
	.st13{clip-path:url(#SVGID_29_);fill:url(#SVGID_30_);}
	.st14{clip-path:url(#SVGID_32_);fill:url(#SVGID_33_);}
	.st15{opacity:5.999760e-02;clip-path:url(#SVGID_35_);}
	.st16{clip-path:url(#SVGID_37_);fill:#010101;}
	.st17{clip-path:url(#SVGID_39_);fill:url(#SVGID_40_);}
	.st18{clip-path:url(#SVGID_42_);fill:url(#SVGID_43_);}
	.st19{opacity:5.999760e-02;clip-path:url(#SVGID_45_);}
	.st20{clip-path:url(#SVGID_47_);fill:#010101;}
	.st21{clip-path:url(#SVGID_49_);fill:url(#SVGID_50_);}
	.st22{clip-path:url(#SVGID_52_);fill:url(#SVGID_53_);}
	.st23{clip-path:url(#SVGID_55_);fill:url(#SVGID_56_);}
	.st24{opacity:5.999760e-02;clip-path:url(#SVGID_58_);}
	.st25{clip-path:url(#SVGID_60_);fill:#010101;}
	.st26{clip-path:url(#SVGID_62_);fill:#010101;}
	.st27{clip-path:url(#SVGID_58_);fill:#687A86;}
	.st28{clip-path:url(#SVGID_64_);fill:url(#SVGID_65_);}
	.st29{clip-path:url(#SVGID_67_);fill:url(#SVGID_68_);}
	.st30{clip-path:url(#SVGID_70_);fill:url(#SVGID_71_);}
	.st31{clip-path:url(#SVGID_73_);fill:#687A86;}
	.st32{clip-path:url(#SVGID_75_);fill:url(#SVGID_76_);}
	.st33{clip-path:url(#SVGID_78_);fill:#BAE1F7;}
</style>
<g>
	<defs>
		<rect id="SVGID_1_" width="1280" height="800"/>
	</defs>
	<clipPath id="SVGID_2_">
		<use xlink:href="#SVGID_1_"  style="overflow:visible;"/>
	</clipPath>
	<rect y="0.2" class="st0" width="1279.1" height="799.8"/>
	<g class="st1">
		<defs>
			<rect id="SVGID_3_" width="1280" height="800"/>
		</defs>
		<clipPath id="SVGID_4_">
			<use xlink:href="#SVGID_3_"  style="overflow:visible;"/>
		</clipPath>
		<path class="st2" d="M1280,616.3v136.2h-0.9v26.3h-0.1v16.5H11.4V701h603.5c8.2,0,16.4-0.5,24.6-1.5c10-1.2,20-3.2,29.9-6
			c9.1-2.5,18.1-5.6,27-9.4c2.9-1.2,5.8-2.5,8.6-3.8c9.4-4.4,18.8-9.5,28-15.4c2-1.2,3.9-2.5,5.9-3.8c7-4.7,14-9.8,20.8-15.4
			c10.9-8.8,21.5-18.6,31.9-29.4c2.1-2.2,4.2-4.4,6.3-6.7c11.3-12.4,22.2-26,32.8-40.8c1.5-2.1,3-4.3,4.5-6.5
			c4.7-6.8,9.3-13.9,13.7-21.2c1.8-2.8,3.5-5.7,5.2-8.7c6.4-10.8,12.6-22.2,18.4-34.1c6.3-12.8,13.1-24.9,20.1-36.2
			c1.4-2.2,2.7-4.3,4.1-6.4l0,0c14.5-22.3,30.3-41.2,47.1-56.5c9.2-8.4,18.6-15.7,28.3-21.9c25.2-16.1,51.9-24.6,79.2-24.6h227.8
			v263.6H1280z"/>
		<path class="st3" d="M1275.1,795.2c-1.9,1.7-3.8,3.2-5.8,4.8H11.4v-4.8H1275.1z"/>
	</g>
	<g class="st1">
		<defs>
			<path id="SVGID_5_" d="M1061.4,402.8c-43.9,8.4-80.6,37-123,50.5c-14.8,4.7-30.5,7.7-45.8,11.5c-17.5,4.4-34.4,9.8-48.7,20.2
				c-10.3,7.5-18.7,17.3-29.7,23.9c-26.3,15.7-60.6,9.4-90,0c-81.7-26.2-161.7-73.3-247.2-62.8c-19.6,2.4-38.6,7.9-57.8,12.4
				c-71.3,16.8-145.9,21.1-218.8,12.5C133.9,463.2,62.9,445.6,0,460v37.8v232.7v53h1.7V800h1273.4c1.4-1.2,2.7-2.5,3.9-3.8v-12.8
				h0.1V757h0.9V619.9h-0.9V422c-42.9-5.7-85.8-11.3-128.7-17c-18.9-2.5-38.1-5-57.2-5C1082.6,400,1071.9,400.8,1061.4,402.8"/>
		</defs>
		<clipPath id="SVGID_6_">
			<use xlink:href="#SVGID_5_"  style="overflow:visible;"/>
		</clipPath>
		
			<linearGradient id="SVGID_7_" gradientUnits="userSpaceOnUse" x1="0" y1="800.0002" x2="1" y2="800.0002" gradientTransform="matrix(0 451.1359 451.1359 0 -360268.8125 312.3737)">
			<stop  offset="0" style="stop-color:#0A8949"/>
			<stop  offset="0.2574" style="stop-color:#0A8949"/>
			<stop  offset="0.4311" style="stop-color:#056D3D"/>
			<stop  offset="0.4553" style="stop-color:#036A3B"/>
			<stop  offset="1" style="stop-color:#036A3B"/>
		</linearGradient>
		<rect x="0" y="400" class="st4" width="1280" height="400"/>
	</g>
	<g class="st1">
		<defs>
			<path id="SVGID_8_" d="M0,744.7h1280V581.2l-278-1l-73.6-0.3l-72.9-0.3l-21.9-0.1l-13.4,0l-24.1-0.1h0l-9.9,0l-3.1,0l-85.7-0.3
				l-1.5,0c-3.4,0-6.8,0-10.2,0c-0.1,0-0.1,0-0.2,0c-3.8,0-7.7,0-11.5,0c-22.2-0.1-44.4-0.1-66.6,0c-5.1,0-10.1,0-15.2,0.1
				c-3.6,0-7.2,0-10.8,0.1c-3.6,0-7.2,0-10.8,0.1c-42.7,0.3-85.4,1-128,2.3c-2.8,0.1-5.6,0.2-8.5,0.2c-15.9,0.3-32,0.1-48-0.4
				c-14.5-0.5-28.9-1.3-43.3-2.4c0,0,0,0,0,0c-0.6,0-1.1-0.1-1.6-0.1c-17.3-1.3-34.5-3-51.3-5c-0.4-0.1-0.8-0.1-1.1-0.1
				c-7.9-1-15.8-2-23.7-3.1c-28.9-4-57.2-8.9-84.8-14.7C120,543.2,63.2,526.5,11,506.4h0c-3.7-1.4-7.4-2.9-11-4.3h0V744.7z"/>
		</defs>
		<clipPath id="SVGID_9_">
			<use xlink:href="#SVGID_8_"  style="overflow:visible;"/>
		</clipPath>
		
			<linearGradient id="SVGID_10_" gradientUnits="userSpaceOnUse" x1="0" y1="800.004" x2="1" y2="800.004" gradientTransform="matrix(1.1539 120.0042 120.0042 -1.1539 -95364.7969 1448.8489)">
			<stop  offset="0" style="stop-color:#C4D143"/>
			<stop  offset="5.547440e-02" style="stop-color:#C4D143"/>
			<stop  offset="0.751" style="stop-color:#91AA3C"/>
			<stop  offset="0.7891" style="stop-color:#8EA83C"/>
			<stop  offset="1" style="stop-color:#8EA83C"/>
		</linearGradient>
		<polygon class="st5" points="1279.9,489.7 1282.3,744.7 0.1,757 -2.3,502 		"/>
	</g>
	<g class="st1">
		<defs>
			<rect id="SVGID_11_" width="1280" height="800"/>
		</defs>
		<clipPath id="SVGID_12_">
			<use xlink:href="#SVGID_11_"  style="overflow:visible;"/>
		</clipPath>
		<rect y="772.2" class="st6" width="1279" height="27.8"/>
	</g>
	<g class="st1">
		<defs>
			<rect id="SVGID_13_" y="629.4" width="1280" height="143"/>
		</defs>
		<clipPath id="SVGID_14_">
			<use xlink:href="#SVGID_13_"  style="overflow:visible;"/>
		</clipPath>
		
			<linearGradient id="SVGID_15_" gradientUnits="userSpaceOnUse" x1="0" y1="800" x2="1" y2="800" gradientTransform="matrix(-8.025 513.6015 513.6015 8.025 -410239.5 -5827.396)">
			<stop  offset="0" style="stop-color:#C7C4C4"/>
			<stop  offset="0.1587" style="stop-color:#C7C4C4"/>
			<stop  offset="0.4553" style="stop-color:#B7B6B6"/>
			<stop  offset="1" style="stop-color:#B7B6B6"/>
		</linearGradient>
		<polygon class="st7" points="1282.2,629.5 1279.7,792.4 -2.2,772.4 0.3,609.4 		"/>
	</g>
	<g class="st1">
		<defs>
			<path id="SVGID_16_" d="M829.6,304l-7.4,203.8c0,1.3,1,2.3,2.3,2.3h13.1c1.3,0,2.3-1,2.3-2.3L834,304H829.6z"/>
		</defs>
		<clipPath id="SVGID_17_">
			<use xlink:href="#SVGID_16_"  style="overflow:visible;"/>
		</clipPath>
		
			<linearGradient id="SVGID_18_" gradientUnits="userSpaceOnUse" x1="0" y1="799.9701" x2="1" y2="799.9701" gradientTransform="matrix(-3.6761 111.332 111.332 3.6761 -88232.1172 -2509.292)">
			<stop  offset="0" style="stop-color:#DAAE82"/>
			<stop  offset="0.2134" style="stop-color:#DAAE82"/>
			<stop  offset="0.4478" style="stop-color:#C9976C"/>
			<stop  offset="1" style="stop-color:#C9976C"/>
		</linearGradient>
		<polygon class="st8" points="846.6,304.2 839.8,510.7 815.3,509.9 822.2,303.4 		"/>
	</g>
	<g class="st1">
		<defs>
			<path id="SVGID_19_" d="M829,295.6l-28.1,77.4l-29.1,80.1c-0.5,1.5,0.5,3,2.1,3h57.2h55.5c2.4,0,4.1-2.4,3.2-4.6l-28.5-78.5
				l-28.1-77.4c-0.4-1-1.2-1.5-2.1-1.5C830.3,294.1,829.4,294.6,829,295.6"/>
		</defs>
		<clipPath id="SVGID_20_">
			<use xlink:href="#SVGID_19_"  style="overflow:visible;"/>
		</clipPath>
		
			<linearGradient id="SVGID_21_" gradientUnits="userSpaceOnUse" x1="0" y1="800.1821" x2="1" y2="800.1821" gradientTransform="matrix(71.6581 109.1933 109.1933 -71.6581 -86565.9922 57680.3594)">
			<stop  offset="0" style="stop-color:#0B8B44"/>
			<stop  offset="0.1052" style="stop-color:#0B8B44"/>
			<stop  offset="0.6266" style="stop-color:#046D3C"/>
			<stop  offset="0.6785" style="stop-color:#036A3B"/>
			<stop  offset="1" style="stop-color:#036A3B"/>
		</linearGradient>
		<polygon class="st9" points="854.7,239.4 964.9,407.3 807.2,510.8 697,342.9 		"/>
	</g>
	<g class="st1">
		<defs>
			<rect id="SVGID_22_" width="1280" height="800"/>
		</defs>
		<clipPath id="SVGID_23_">
			<use xlink:href="#SVGID_22_"  style="overflow:visible;"/>
		</clipPath>
		<g class="st10">
			<g>
				<defs>
					<rect id="SVGID_24_" x="45" y="464" width="126" height="28.9"/>
				</defs>
				<clipPath id="SVGID_25_">
					<use xlink:href="#SVGID_24_"  style="overflow:visible;"/>
				</clipPath>
				<path class="st11" d="M171,478.4c0,8-28.2,14.4-63,14.4s-63-6.5-63-14.4c0-8,28.2-14.4,63-14.4S171,470.5,171,478.4"/>
			</g>
		</g>
		<g class="st10">
			<g>
				<defs>
					<rect id="SVGID_26_" x="156.1" y="489" width="34.9" height="8"/>
				</defs>
				<clipPath id="SVGID_27_">
					<use xlink:href="#SVGID_26_"  style="overflow:visible;"/>
				</clipPath>
				<path class="st12" d="M191,493c0,2.2-7.8,4-17.5,4s-17.5-1.8-17.5-4c0-2.2,7.8-4,17.5-4S191,490.8,191,493"/>
			</g>
		</g>
	</g>
	<g class="st1">
		<defs>
			<path id="SVGID_28_" d="M1055.6,303.4l-7.4,203.8c0,1.3,1,2.3,2.3,2.3h13.1c1.3,0,2.3-1,2.3-2.3l-5.8-203.8H1055.6z"/>
		</defs>
		<clipPath id="SVGID_29_">
			<use xlink:href="#SVGID_28_"  style="overflow:visible;"/>
		</clipPath>
		
			<linearGradient id="SVGID_30_" gradientUnits="userSpaceOnUse" x1="0" y1="799.9701" x2="1" y2="799.9701" gradientTransform="matrix(-3.6761 111.332 111.332 3.6761 -88006.1172 -2509.8459)">
			<stop  offset="0" style="stop-color:#DAAE82"/>
			<stop  offset="0.2134" style="stop-color:#DAAE82"/>
			<stop  offset="0.4478" style="stop-color:#C9976C"/>
			<stop  offset="1" style="stop-color:#C9976C"/>
		</linearGradient>
		<polygon class="st13" points="1072.6,303.7 1065.8,510.1 1041.3,509.3 1048.2,302.9 		"/>
	</g>
	<g class="st1">
		<defs>
			<path id="SVGID_31_" d="M1055,295l-28.1,77.4l-29.1,80.1c-0.5,1.5,0.5,3,2.1,3h57.2h55.5c2.4,0,4.1-2.4,3.2-4.6l-28.5-78.5
				l-28.1-77.4c-0.4-1-1.2-1.5-2.1-1.5C1056.3,293.5,1055.4,294,1055,295"/>
		</defs>
		<clipPath id="SVGID_32_">
			<use xlink:href="#SVGID_31_"  style="overflow:visible;"/>
		</clipPath>
		
			<linearGradient id="SVGID_33_" gradientUnits="userSpaceOnUse" x1="0" y1="800.1821" x2="1" y2="800.1821" gradientTransform="matrix(71.6581 109.1933 109.1933 -71.6581 -86339.9844 57679.8047)">
			<stop  offset="0" style="stop-color:#0B8B44"/>
			<stop  offset="0.1052" style="stop-color:#0B8B44"/>
			<stop  offset="0.6266" style="stop-color:#046D3C"/>
			<stop  offset="0.6785" style="stop-color:#036A3B"/>
			<stop  offset="1" style="stop-color:#036A3B"/>
		</linearGradient>
		<polygon class="st14" points="1080.7,238.8 1190.9,406.8 1033.2,510.3 923,342.3 		"/>
	</g>
	<g class="st1">
		<defs>
			<rect id="SVGID_34_" width="1280" height="800"/>
		</defs>
		<clipPath id="SVGID_35_">
			<use xlink:href="#SVGID_34_"  style="overflow:visible;"/>
		</clipPath>
		<g class="st15">
			<g>
				<defs>
					<rect id="SVGID_36_" x="94" y="464" width="24" height="9.9"/>
				</defs>
				<clipPath id="SVGID_37_">
					<use xlink:href="#SVGID_36_"  style="overflow:visible;"/>
				</clipPath>
				<path class="st16" d="M118,468.9c0,2.7-5.4,4.9-12,4.9c-6.6,0-12-2.2-12-4.9c0-2.7,5.4-4.9,12-4.9
					C112.6,464,118,466.2,118,468.9"/>
			</g>
		</g>
	</g>
	<g class="st1">
		<defs>
			<path id="SVGID_38_" d="M103,264.3l-7.4,203.8c0,1.3,1,2.3,2.3,2.3h13.1c1.3,0,2.3-1,2.3-2.3l-5.8-203.8H103z"/>
		</defs>
		<clipPath id="SVGID_39_">
			<use xlink:href="#SVGID_38_"  style="overflow:visible;"/>
		</clipPath>
		
			<linearGradient id="SVGID_40_" gradientUnits="userSpaceOnUse" x1="0" y1="799.9701" x2="1" y2="799.9701" gradientTransform="matrix(-3.6761 111.332 111.332 3.6761 -88958.7031 -2548.9741)">
			<stop  offset="0" style="stop-color:#DAAE82"/>
			<stop  offset="0.2134" style="stop-color:#DAAE82"/>
			<stop  offset="0.4478" style="stop-color:#C9976C"/>
			<stop  offset="1" style="stop-color:#C9976C"/>
		</linearGradient>
		<polygon class="st17" points="120,264.5 113.2,471 88.8,470.2 95.6,263.7 		"/>
	</g>
	<g class="st1">
		<defs>
			<path id="SVGID_41_" d="M102.4,255.9l-28.1,77.4l-29.1,80.1c-0.5,1.5,0.5,3,2.1,3h57.2H160c2.4,0,4.1-2.4,3.2-4.6l-28.5-78.5
				l-28.1-77.4c-0.4-1-1.2-1.5-2.1-1.5S102.8,254.9,102.4,255.9"/>
		</defs>
		<clipPath id="SVGID_42_">
			<use xlink:href="#SVGID_41_"  style="overflow:visible;"/>
		</clipPath>
		
			<linearGradient id="SVGID_43_" gradientUnits="userSpaceOnUse" x1="0" y1="800.1821" x2="1" y2="800.1821" gradientTransform="matrix(71.6581 109.1933 109.1933 -71.6581 -87292.5781 57640.6758)">
			<stop  offset="0" style="stop-color:#0B8B44"/>
			<stop  offset="0.1052" style="stop-color:#0B8B44"/>
			<stop  offset="0.6266" style="stop-color:#046D3C"/>
			<stop  offset="0.6785" style="stop-color:#036A3B"/>
			<stop  offset="1" style="stop-color:#036A3B"/>
		</linearGradient>
		<polygon class="st18" points="128.1,199.7 238.4,367.6 80.6,471.1 -29.6,303.2 		"/>
	</g>
	<g class="st1">
		<defs>
			<rect id="SVGID_44_" width="1280" height="800"/>
		</defs>
		<clipPath id="SVGID_45_">
			<use xlink:href="#SVGID_44_"  style="overflow:visible;"/>
		</clipPath>
		<g class="st19">
			<g>
				<defs>
					<rect id="SVGID_46_" x="113" y="478" width="126" height="28.9"/>
				</defs>
				<clipPath id="SVGID_47_">
					<use xlink:href="#SVGID_46_"  style="overflow:visible;"/>
				</clipPath>
				<path class="st20" d="M239,492.4c0,8-28.2,14.4-63,14.4s-63-6.5-63-14.4c0-8,28.2-14.4,63-14.4S239,484.5,239,492.4"/>
			</g>
		</g>
	</g>
	<g class="st1">
		<defs>
			<path id="SVGID_48_" d="M171.7,286.5l-7.4,203.8c0,1.3,1,2.3,2.3,2.3h13.1c1.3,0,2.3-1,2.3-2.3l-5.8-203.8H171.7z"/>
		</defs>
		<clipPath id="SVGID_49_">
			<use xlink:href="#SVGID_48_"  style="overflow:visible;"/>
		</clipPath>
		
			<linearGradient id="SVGID_50_" gradientUnits="userSpaceOnUse" x1="0" y1="799.9701" x2="1" y2="799.9701" gradientTransform="matrix(-3.6761 111.332 111.332 3.6761 -88889.9766 -2526.7896)">
			<stop  offset="0" style="stop-color:#DAAE82"/>
			<stop  offset="0.2134" style="stop-color:#DAAE82"/>
			<stop  offset="0.4478" style="stop-color:#C9976C"/>
			<stop  offset="1" style="stop-color:#C9976C"/>
		</linearGradient>
		<polygon class="st21" points="188.7,286.7 181.9,493.2 157.5,492.4 164.3,285.9 		"/>
	</g>
	<g class="st1">
		<defs>
			<path id="SVGID_51_" d="M171.2,278.1l-28.1,77.4L114,435.6c-0.5,1.5,0.5,3,2.1,3h57.2h55.5c2.4,0,4.1-2.4,3.2-4.6l-28.5-78.5
				l-28.1-77.4c-0.4-1-1.2-1.5-2.1-1.5S171.5,277.1,171.2,278.1"/>
		</defs>
		<clipPath id="SVGID_52_">
			<use xlink:href="#SVGID_51_"  style="overflow:visible;"/>
		</clipPath>
		
			<linearGradient id="SVGID_53_" gradientUnits="userSpaceOnUse" x1="0" y1="800.1821" x2="1" y2="800.1821" gradientTransform="matrix(71.6581 109.1933 109.1933 -71.6581 -87223.8516 57662.8633)">
			<stop  offset="0" style="stop-color:#0B8B44"/>
			<stop  offset="0.1052" style="stop-color:#0B8B44"/>
			<stop  offset="0.6266" style="stop-color:#046D3C"/>
			<stop  offset="0.6785" style="stop-color:#036A3B"/>
			<stop  offset="1" style="stop-color:#036A3B"/>
		</linearGradient>
		<polygon class="st22" points="196.9,221.9 307.1,389.8 149.4,493.3 39.2,325.4 		"/>
	</g>
	<g class="st1">
		<defs>
			<path id="SVGID_54_" d="M549,98c0,29.8,24.2,54,54,54s54-24.2,54-54s-24.2-54-54-54S549,68.2,549,98"/>
		</defs>
		<clipPath id="SVGID_55_">
			<use xlink:href="#SVGID_54_"  style="overflow:visible;"/>
		</clipPath>
		
			<linearGradient id="SVGID_56_" gradientUnits="userSpaceOnUse" x1="0" y1="800" x2="1" y2="800" gradientTransform="matrix(91.3015 100.8405 100.8405 -91.3015 -80109.4766 73094.9531)">
			<stop  offset="0" style="stop-color:#F8E4B4"/>
			<stop  offset="0.4248" style="stop-color:#F8E4B4"/>
			<stop  offset="0.7541" style="stop-color:#FFE194"/>
			<stop  offset="1" style="stop-color:#FFE194"/>
		</linearGradient>
		<polygon class="st23" points="608.3,-9.7 710.7,103.3 597.7,205.7 495.3,92.7 		"/>
	</g>
	<g class="st1">
		<defs>
			<rect id="SVGID_57_" width="1280" height="800"/>
		</defs>
		<clipPath id="SVGID_58_">
			<use xlink:href="#SVGID_57_"  style="overflow:visible;"/>
		</clipPath>
		<g class="st24">
			<g>
				<defs>
					<rect id="SVGID_59_" x="72" y="639" width="216" height="28.9"/>
				</defs>
				<clipPath id="SVGID_60_">
					<use xlink:href="#SVGID_59_"  style="overflow:visible;"/>
				</clipPath>
				<path class="st25" d="M288,653.4c0,8-48.4,14.4-108,14.4s-108-6.5-108-14.4c0-8,48.4-14.4,108-14.4S288,645.5,288,653.4"/>
			</g>
		</g>
		<g class="st24">
			<g>
				<defs>
					<rect id="SVGID_61_" x="159" y="639" width="216" height="28.9"/>
				</defs>
				<clipPath id="SVGID_62_">
					<use xlink:href="#SVGID_61_"  style="overflow:visible;"/>
				</clipPath>
				<path class="st26" d="M375,653.4c0,8-48.4,14.4-108,14.4s-108-6.5-108-14.4c0-8,48.4-14.4,108-14.4S375,645.5,375,653.4"/>
			</g>
		</g>
		<path class="st27" d="M217.8,660h-99.6c-3.1,0-5-3.5-3.2-6.1l8-11.3c0.7-1,1.9-1.6,3.2-1.6h83.6c1.3,0,2.4,0.6,3.2,1.6l8,11.3
			C222.8,656.5,220.9,660,217.8,660"/>
	</g>
	<g class="st1">
		<defs>
			<path id="SVGID_63_" d="M160.7,591.7c-11.1,0-20,9-20,20v36.7h56.7v-36.7c0-11.1-9-20-20-20H160.7z"/>
		</defs>
		<clipPath id="SVGID_64_">
			<use xlink:href="#SVGID_63_"  style="overflow:visible;"/>
		</clipPath>
		
			<linearGradient id="SVGID_65_" gradientUnits="userSpaceOnUse" x1="0" y1="799.9562" x2="1" y2="799.9562" gradientTransform="matrix(-61.2416 71.1026 71.1026 61.2416 -56688.9258 -48394.9688)">
			<stop  offset="0" style="stop-color:#A1BBC7"/>
			<stop  offset="0.4178" style="stop-color:#8399A4"/>
			<stop  offset="1" style="stop-color:#8399A4"/>
		</linearGradient>
		<polygon class="st28" points="225.4,615.8 173.2,676.5 112.6,624.3 164.8,563.6 		"/>
	</g>
	<g class="st1">
		<defs>
			<rect id="SVGID_66_" x="159" y="583" width="19" height="9"/>
		</defs>
		<clipPath id="SVGID_67_">
			<use xlink:href="#SVGID_66_"  style="overflow:visible;"/>
		</clipPath>
		
			<linearGradient id="SVGID_68_" gradientUnits="userSpaceOnUse" x1="0" y1="800" x2="1" y2="800" gradientTransform="matrix(-25.6848 19.2636 19.2636 25.6848 -15232.0039 -19968.0898)">
			<stop  offset="0" style="stop-color:#C4D143"/>
			<stop  offset="5.547440e-02" style="stop-color:#C4D143"/>
			<stop  offset="1" style="stop-color:#C4D143"/>
		</linearGradient>
		<polygon class="st29" points="182.3,588.8 165.8,601.1 154.7,586.2 171.2,573.9 		"/>
	</g>
	<g class="st1">
		<defs>
			<path id="SVGID_69_" d="M151,608c-2,7.9-2,16.1,0,24h36l0.3-2c1.1-7.3,1-14.8-0.3-22H151z"/>
		</defs>
		<clipPath id="SVGID_70_">
			<use xlink:href="#SVGID_69_"  style="overflow:visible;"/>
		</clipPath>
		
			<linearGradient id="SVGID_71_" gradientUnits="userSpaceOnUse" x1="0" y1="800" x2="1" y2="800" gradientTransform="matrix(38.552 0 0 -38.552 149.5227 31461.5977)">
			<stop  offset="0" style="stop-color:#C4D143"/>
			<stop  offset="5.547440e-02" style="stop-color:#C4D143"/>
			<stop  offset="1" style="stop-color:#C4D143"/>
		</linearGradient>
		<rect x="149" y="608" class="st30" width="39.4" height="24"/>
	</g>
	<g class="st1">
		<defs>
			<rect id="SVGID_72_" width="1280" height="800"/>
		</defs>
		<clipPath id="SVGID_73_">
			<use xlink:href="#SVGID_72_"  style="overflow:visible;"/>
		</clipPath>
		<path class="st31" d="M350.6,660H251c-3.1,0-5-3.5-3.2-6.1l8-11.3c0.7-1,1.9-1.6,3.2-1.6h83.6c1.3,0,2.4,0.6,3.2,1.6l8,11.3
			C355.6,656.5,353.7,660,350.6,660"/>
	</g>
	<g class="st1">
		<defs>
			<path id="SVGID_74_" d="M293.5,591.7c-11.1,0-20,9-20,20v36.7h56.7v-36.7c0-11.1-9-20-20-20H293.5z"/>
		</defs>
		<clipPath id="SVGID_75_">
			<use xlink:href="#SVGID_74_"  style="overflow:visible;"/>
		</clipPath>
		
			<linearGradient id="SVGID_76_" gradientUnits="userSpaceOnUse" x1="0" y1="799.9627" x2="1" y2="799.9627" gradientTransform="matrix(-81.0961 75.8641 75.8641 81.0961 -60353.8945 -64284.4609)">
			<stop  offset="0" style="stop-color:#A1BBC7"/>
			<stop  offset="0.4178" style="stop-color:#8399A4"/>
			<stop  offset="1" style="stop-color:#8399A4"/>
		</linearGradient>
		<polygon class="st32" points="358.5,621.9 299.9,676.7 245.1,618.2 303.7,563.4 		"/>
	</g>
	<g class="st1">
		<defs>
			<rect id="SVGID_77_" width="1280" height="800"/>
		</defs>
		<clipPath id="SVGID_78_">
			<use xlink:href="#SVGID_77_"  style="overflow:visible;"/>
		</clipPath>
		<rect x="292" y="583" class="st33" width="19" height="9"/>
		<path class="st33" d="M318.9,631h-36c-2-7.9-2-16.1,0-24h36c1.3,7.3,1.4,14.7,0.3,22L318.9,631z"/>
	</g>
</g>
</svg>
