<svg id="Laag_1" data-name="Laag 1" xmlns="http://www.w3.org/2000/svg" xmlns:xlink="http://www.w3.org/1999/xlink" viewBox="0 0 800.74 512.41"><defs><style>.cls-1{fill:none;}.cls-2{clip-path:url(#clip-path);}.cls-3{opacity:0.11;}.cls-4{clip-path:url(#clip-path-3);}.cls-5{fill:#010101;}.cls-6{fill:#f0b28e;}.cls-7{clip-path:url(#clip-path-4);}.cls-8{fill:url(#Naamloos_verloop);}.cls-9{clip-path:url(#clip-path-6);}.cls-10{fill:url(#Naamloos_verloop_2);}.cls-11{clip-path:url(#clip-path-7);}.cls-12{fill:url(#Naamloos_verloop_3);}.cls-13{clip-path:url(#clip-path-8);}.cls-14{fill:url(#Naamloos_verloop_4);}.cls-15{fill:#583974;}.cls-16{clip-path:url(#clip-path-10);}.cls-17{fill:url(#Naamloos_verloop_5);}.cls-18{clip-path:url(#clip-path-11);}.cls-19{fill:url(#Naamloos_verloop_6);}.cls-20{clip-path:url(#clip-path-12);}.cls-21{fill:url(#Naamloos_verloop_7);}.cls-22{clip-path:url(#clip-path-13);}.cls-23{fill:url(#Naamloos_verloop_8);}.cls-24{fill:#3a2b5f;}.cls-25{fill:#df9367;}.cls-26{clip-path:url(#clip-path-15);}.cls-27{fill:url(#Naamloos_verloop_9);}.cls-28{fill:#f2c3a9;}.cls-29{fill:#7e8494;}.cls-30{fill:#434343;}.cls-31{clip-path:url(#clip-path-17);}.cls-32{fill:url(#Naamloos_verloop_10);}.cls-33{fill:#ccced6;}.cls-34{fill:#b0b5c0;}.cls-35{fill:#c3c1c1;}.cls-36{fill:#e28136;}.cls-37{fill:#7c8c94;}.cls-38{fill:#aeb9bf;}.cls-39{clip-path:url(#clip-path-19);}.cls-40{fill:url(#Naamloos_verloop_11);}.cls-41{clip-path:url(#clip-path-20);}.cls-42{fill:url(#Naamloos_verloop_12);}.cls-43{opacity:0.21;}.cls-44{clip-path:url(#clip-path-22);}.cls-45{fill:#fff;}.cls-46{clip-path:url(#clip-path-23);}.cls-47{fill:url(#Naamloos_verloop_13);}.cls-48{clip-path:url(#clip-path-24);}.cls-49{fill:url(#Naamloos_verloop_14);}.cls-50{clip-path:url(#clip-path-25);}.cls-51{fill:url(#Naamloos_verloop_15);}.cls-52{clip-path:url(#clip-path-27);}.cls-53{fill:url(#Naamloos_verloop_16);}.cls-54{clip-path:url(#clip-path-29);}.cls-55{fill:url(#Naamloos_verloop_17);}.cls-56{clip-path:url(#clip-path-30);}.cls-57{fill:url(#Naamloos_verloop_18);}.cls-58{font-size:55px;fill:#231f20;font-family:LEMONMILK-Regular, LEMON MILK;}.cls-59{letter-spacing:-0.02em;}.cls-60{letter-spacing:-0.04em;}.cls-61{letter-spacing:-0.04em;}.cls-62{letter-spacing:-0.04em;}.cls-63{letter-spacing:-0.03em;}.cls-64{letter-spacing:-0.1em;}</style><clipPath id="clip-path" transform="translate(-84.39 -181.87)"><rect class="cls-1" width="1280" height="800"/></clipPath><clipPath id="clip-path-3" transform="translate(-84.39 -181.87)"><rect class="cls-1" x="482.9" y="637.36" width="211.69" height="56.92"/></clipPath><clipPath id="clip-path-4" transform="translate(-84.39 -181.87)"><path class="cls-1" d="M696.58,324.13a5.63,5.63,0,0,0-4.92,6.2l1.68,16a5.54,5.54,0,1,0,11-1.2l-1.68-16a5.52,5.52,0,0,0-6.09-5"/></clipPath><linearGradient id="Naamloos_verloop" y1="800" x2="1" y2="800" gradientTransform="translate(708.74 17338.33) rotate(180) scale(21.25)" gradientUnits="userSpaceOnUse"><stop offset="0" stop-color="#f0b28e"/><stop offset="1" stop-color="#f0a37f"/></linearGradient><clipPath id="clip-path-6" transform="translate(-84.39 -181.87)"><path class="cls-1" d="M610.71,470.57c18.54,103.67,22.43,62.67,8,166.11,11,1.17,21,.62,32,0a2.6,2.6,0,0,1,1.06.19c.78.28,1.12.57,1.52-1.71,17.28-96.58,13.68-78,3.19-169.07-12.32,1.28-33.68,1.53-45.83,4.45"/></clipPath><linearGradient id="Naamloos_verloop_2" y1="800" x2="1" y2="800" gradientTransform="translate(580.97 44089.09) rotate(180) scale(54.65)" gradientUnits="userSpaceOnUse"><stop offset="0" stop-color="#51457f"/><stop offset="0.05" stop-color="#4e417b"/><stop offset="0.3" stop-color="#43356b"/><stop offset="0.59" stop-color="#3c2d62"/><stop offset="1" stop-color="#3a2b5f"/></linearGradient><clipPath id="clip-path-7" transform="translate(-84.39 -181.87)"><path class="cls-1" d="M563.16,462.08v14a33.58,33.58,0,0,0,3.43,14.86c7.58,52.51,10.05,88.6,4.7,146.85,10.7.26,21.33-.38,32.1-1,.31,0,.59,0,.83,0,1,0,1.37,0,1.57-1.54C611.68,588,618,551.36,618.1,509.34h7.2c18.29,0,33.12-15.08,33.12-33.69V462.08Z"/></clipPath><linearGradient id="Naamloos_verloop_3" y1="799.9" x2="1" y2="799.9" gradientTransform="matrix(-185.82, 0, 0, -185.82, 706.67, 149190.71)" gradientUnits="userSpaceOnUse"><stop offset="0" stop-color="#51457f"/><stop offset="1" stop-color="#3a2b5f"/></linearGradient><clipPath id="clip-path-8" transform="translate(-84.39 -181.87)"><path class="cls-1" d="M664.65,336.41a14.63,14.63,0,0,0-10,18l16.78,61.33a14.32,14.32,0,0,0,17.67,10.15,14.63,14.63,0,0,0,10-18l-16.78-61.33a14.4,14.4,0,0,0-13.82-10.69,14.12,14.12,0,0,0-3.86.54"/></clipPath><linearGradient id="Naamloos_verloop_4" y1="799.99" y2="799.99" gradientTransform="translate(707.71 48747.08) rotate(180) scale(60.46)" xlink:href="#Naamloos_verloop"/><clipPath id="clip-path-10" transform="translate(-84.39 -181.87)"><path class="cls-1" d="M694,347.29l-22,59.59a14.68,14.68,0,0,0,8.39,18.8,14.28,14.28,0,0,0,18.48-8.53l22-59.59a14.68,14.68,0,0,0-8.38-18.8,14.1,14.1,0,0,0-5-.94A14.37,14.37,0,0,0,694,347.29"/></clipPath><linearGradient id="Naamloos_verloop_5" y1="799.99" y2="799.99" gradientTransform="translate(740.38 69711.88) rotate(180) scale(86.66)" xlink:href="#Naamloos_verloop"/><clipPath id="clip-path-11" transform="translate(-84.39 -181.87)"><path class="cls-1" d="M592.92,320.76A36.94,36.94,0,0,0,556,357.7V462.25a5.1,5.1,0,0,0,5.1,5.1h98.49a5.1,5.1,0,0,0,5.1-5.1V347.67a26.91,26.91,0,0,0-26.91-26.91Z"/></clipPath><linearGradient id="Naamloos_verloop_6" y1="800.04" x2="1" y2="800.04" gradientTransform="translate(672.35 134207.67) rotate(180) scale(167.26)" gradientUnits="userSpaceOnUse"><stop offset="0" stop-color="#714b91"/><stop offset="0.08" stop-color="#714b91"/><stop offset="0.98" stop-color="#41304f"/><stop offset="1" stop-color="#41304f"/></linearGradient><clipPath id="clip-path-12" transform="translate(-84.39 -181.87)"><path class="cls-1" d="M610.69,299H622a8,8,0,0,1,8,8v18.45a8,8,0,0,1-8,8H610.69a8,8,0,0,1-8-8V307.06A8,8,0,0,1,610.69,299Z"/></clipPath><linearGradient id="Naamloos_verloop_7" y1="800" y2="800" gradientTransform="matrix(-37.1, 0, 0, -37.1, 634.91, 29994.73)" xlink:href="#Naamloos_verloop"/><clipPath id="clip-path-13" transform="translate(-84.39 -181.87)"><path class="cls-1" d="M616.88,238.89c-17.7,0-32.19,14.66-32.33,32.63a6.76,6.76,0,0,0-5.68,6.72v4.88a6.76,6.76,0,0,0,5.67,6.73c0,18,14.41,32.63,32.13,32.63h6.63c17.75,0,32.14-14.64,32.14-32.7v-18c0-18.1-14.55-32.9-32.34-32.9Z"/></clipPath><linearGradient id="Naamloos_verloop_8" y1="800.03" x2="1" y2="800.03" gradientTransform="translate(660.23 66091.42) rotate(180) scale(82.26)" gradientUnits="userSpaceOnUse"><stop offset="0" stop-color="#f2c3a9"/><stop offset="0.38" stop-color="#f2bda4"/><stop offset="0.87" stop-color="#f0ad94"/><stop offset="1" stop-color="#f0a88f"/></linearGradient><clipPath id="clip-path-15" transform="translate(-84.39 -181.87)"><path class="cls-1" d="M609.06,233.16a7.88,7.88,0,0,0-6.59,3.58,37.09,37.09,0,0,0-10.6,7.82,39.57,39.57,0,0,0-10.11,19.95l-.28,1.65v0c-.09.63-.16,1.25-.22,1.88a.1.1,0,0,0,0,0c0,.2,0,.39,0,.58s0,.14,0,.21a5.26,5.26,0,0,0,5.11,5.4A4.75,4.75,0,0,0,588,274a39.68,39.68,0,0,1,3-7.37,39.11,39.11,0,0,1,6.16-8.59,37.3,37.3,0,0,1,8-6.39h35a8.26,8.26,0,0,0,.95-.06,37.93,37.93,0,0,1,11.81,11.09,5.29,5.29,0,0,1,1,1.17A39.63,39.63,0,0,0,646.7,248a8.09,8.09,0,0,0,1.29-4.41v-6.82a3.56,3.56,0,0,0-3.53-3.59Z"/></clipPath><linearGradient id="Naamloos_verloop_9" y1="800" x2="1" y2="800" gradientTransform="translate(569.41 58157.51) rotate(180) scale(72.61)" gradientUnits="userSpaceOnUse"><stop offset="0" stop-color="#f6cc4c"/><stop offset="0.24" stop-color="#f1bf49"/><stop offset="0.55" stop-color="#eeb647"/><stop offset="1" stop-color="#edb346"/></linearGradient><clipPath id="clip-path-17" transform="translate(-84.39 -181.87)"><rect class="cls-1" x="628.29" y="420.99" width="26.84" height="11.26" rx="3.19" ry="3.19"/></clipPath><linearGradient id="Naamloos_verloop_10" y1="800" y2="800" gradientTransform="translate(653.87 19865.14) rotate(180) scale(24.3)" xlink:href="#Naamloos_verloop"/><clipPath id="clip-path-19" transform="translate(-84.39 -181.87)"><path class="cls-1" d="M809.1,344,833,400.63c.7,1.66,6.81.59,13.63-2.39s11.79-6.75,11.09-8.41l-23.91-56.61-16.55-4.53Z"/></clipPath><linearGradient id="Naamloos_verloop_11" y1="799.91" x2="1" y2="799.91" gradientTransform="translate(846.56 22251.31) rotate(180) scale(27.36)" gradientUnits="userSpaceOnUse"><stop offset="0" stop-color="#6ac8c3"/><stop offset="0" stop-color="#6ac8c3"/><stop offset="1" stop-color="#4a98b8"/></linearGradient><clipPath id="clip-path-20" transform="translate(-84.39 -181.87)"><path class="cls-1" d="M809.1,344s4.64,2,13.78-2,10.93-8.77,10.93-8.77l-16.55-4.53Z"/></clipPath><linearGradient id="Naamloos_verloop_12" y1="799.91" y2="799.91" gradientTransform="translate(834.44 21917.03) rotate(-180) scale(26.98)" xlink:href="#Naamloos_verloop_11"/><clipPath id="clip-path-22" transform="translate(-84.39 -181.87)"><rect class="cls-1" x="809.1" y="328.68" width="24.72" height="15.82"/></clipPath><clipPath id="clip-path-23" transform="translate(-84.39 -181.87)"><path class="cls-1" d="M842,355.28a11.52,11.52,0,0,1-2.24,2.12A48,48,0,0,1,822.27,365a11.26,11.26,0,0,1-3.05.2c-.8-.09-1.29-.34-1.47-.75l6.48,15.36c.7,1.66,6.81.59,13.63-2.39S849.66,370.7,849,369l-6.49-15.36c.17.41,0,.94-.48,1.6"/></clipPath><linearGradient id="Naamloos_verloop_13" y1="800.03" x2="1" y2="800.03" gradientTransform="translate(847.24 22033.44) rotate(-180) scale(27.08)" gradientUnits="userSpaceOnUse"><stop offset="0" stop-color="#fff"/><stop offset="0" stop-color="#ebebeb"/><stop offset="1" stop-color="#7c8b94"/></linearGradient><clipPath id="clip-path-24" transform="translate(-84.39 -181.87)"><path class="cls-1" d="M810.27,328.12l2.45,5.81c.32.75,3.13.25,6.28-1.13s5.45-3.11,5.13-3.86l-2.45-5.81Z"/></clipPath><linearGradient id="Naamloos_verloop_14" y1="800.03" x2="1" y2="800.03" gradientTransform="translate(823.61 10328.19) rotate(-180) scale(12.5)" gradientUnits="userSpaceOnUse"><stop offset="0" stop-color="#d7d7d7"/><stop offset="1" stop-color="#aeb9bf"/></linearGradient><clipPath id="clip-path-25" transform="translate(-84.39 -181.87)"><path class="cls-1" d="M815.4,324.26c-3.15,1.38-5.45,3.11-5.13,3.86s3.13.25,6.29-1.13,5.45-3.11,5.13-3.86c-.1-.24-.45-.35-1-.35a15.54,15.54,0,0,0-5.31,1.48"/></clipPath><linearGradient id="Naamloos_verloop_15" y1="800.01" y2="800.01" gradientTransform="translate(809.84 -9641.92) scale(12.46)" xlink:href="#Naamloos_verloop_14"/><clipPath id="clip-path-27" transform="translate(-84.39 -181.87)"><path class="cls-1" d="M557.15,339.89a13.21,13.21,0,0,0-13.09,13.32v66.22a13.38,13.38,0,0,0,5.26,10.67l.25.18a12.94,12.94,0,0,0,3.9,1.8l2,.55,60.85,16.71a12.77,12.77,0,0,0,6.54.07,17.11,17.11,0,0,0,10.39,7l3.67.8a17.91,17.91,0,0,0,21.19-14l.59-2.84a12,12,0,0,0-9-14.21L635.26,423a12.06,12.06,0,0,0-6.83.5,13,13,0,0,0-4.66-2.37l-51-14V353.21a13.2,13.2,0,0,0-13.09-13.32Z"/></clipPath><linearGradient id="Naamloos_verloop_16" y1="799.97" x2="1" y2="799.97" gradientTransform="matrix(-75.7, 0, 0, -75.7, 618.74, 60954.69)" gradientUnits="userSpaceOnUse"><stop offset="0" stop-color="#f2c3a9"/><stop offset="0.32" stop-color="#f2bfa5"/><stop offset="0.62" stop-color="#f1b49b"/><stop offset="0.91" stop-color="#f0a289"/><stop offset="1" stop-color="#f09a81"/></linearGradient><clipPath id="clip-path-29" transform="translate(-84.39 -181.87)"><path class="cls-1" d="M698.71,331.47l-1,3a18.33,18.33,0,0,0,11.42,23,17.88,17.88,0,0,0,22.58-11.62l1-3a18.33,18.33,0,0,0-11.42-23,17.47,17.47,0,0,0-5.54-.9,18,18,0,0,0-17,12.52"/></clipPath><linearGradient id="Naamloos_verloop_17" y1="799.98" y2="799.98" gradientTransform="translate(735.41 31418.1) rotate(-180) scale(38.85)" xlink:href="#Naamloos_verloop"/><clipPath id="clip-path-30" transform="translate(-84.39 -181.87)"><path class="cls-1" d="M560.71,320.76a20.52,20.52,0,0,0-20.52,20.52V367.5h25.42A20.52,20.52,0,0,0,586.13,347v-20.3a5.92,5.92,0,0,0-5.92-5.92Z"/></clipPath><linearGradient id="Naamloos_verloop_18" y1="800" x2="1" y2="800" gradientTransform="translate(593.49 50805.16) rotate(180) scale(63.08)" gradientUnits="userSpaceOnUse"><stop offset="0" stop-color="#714b91"/><stop offset="0.08" stop-color="#714b91"/><stop offset="0.98" stop-color="#4d355f"/><stop offset="0.98" stop-color="#41304f"/><stop offset="1" stop-color="#41304f"/></linearGradient></defs><title>background_image_scene8</title><g class="cls-2"><g class="cls-2"><g class="cls-3"><g class="cls-4"><path class="cls-5" d="M694.59,665.82c0,15.72-47.39,28.46-105.84,28.46S482.9,681.54,482.9,665.82s47.39-28.46,105.84-28.46,105.84,12.74,105.84,28.46" transform="translate(-84.39 -181.87)"/></g></g><path class="cls-6" d="M648.07,289.92h6a4.3,4.3,0,0,0,4.3-4.3v-9.88a4.3,4.3,0,0,0-4.3-4.3h-6a4.3,4.3,0,0,0-4.3,4.3v9.88a4.3,4.3,0,0,0,4.3,4.3" transform="translate(-84.39 -181.87)"/></g><g class="cls-7"><rect class="cls-8" x="683.56" y="323.42" width="28.89" height="28.89" transform="translate(-118.85 410.66) rotate(-45)"/></g><g class="cls-2"><path class="cls-6" d="M585.74,624h-6.87a4.9,4.9,0,0,0-4.89,4.89v13a4.91,4.91,0,0,0,4.89,4.89h6.87a4.91,4.91,0,0,0,4.89-4.89v-13a4.9,4.9,0,0,0-4.89-4.89" transform="translate(-84.39 -181.87)"/><path class="cls-6" d="M635.53,624h-6.87a4.9,4.9,0,0,0-4.89,4.89v13a4.91,4.91,0,0,0,4.89,4.89h6.87a4.9,4.9,0,0,0,4.89-4.89v-13a4.9,4.9,0,0,0-4.89-4.89" transform="translate(-84.39 -181.87)"/></g><g class="cls-9"><rect class="cls-10" x="526.32" y="284.25" width="59.92" height="171.73"/></g><g class="cls-11"><rect class="cls-12" x="514.91" y="454.16" width="191.76" height="191.76" transform="translate(-294.43 411.13) rotate(-45)"/></g><g class="cls-13"><rect class="cls-14" x="627.09" y="332.16" width="99.59" height="99.59" transform="translate(-156.22 408.64) rotate(-45)"/></g><g class="cls-2"><path class="cls-15" d="M675.83,361.91l12.52-3.54-3.48-12.74a32.88,32.88,0,0,0-40.57-23.3l-3.15.89a9.92,9.92,0,0,0-6.76,12.19l.88,3.2a32.88,32.88,0,0,0,40.57,23.3" transform="translate(-84.39 -181.87)"/></g><g class="cls-16"><rect class="cls-17" x="645.06" y="331.85" width="102.64" height="102.64" transform="translate(-151.37 422.78) rotate(-45)"/></g><g class="cls-18"><rect class="cls-19" x="520.07" y="303.8" width="180.52" height="180.52" transform="translate(-184.27 365.12) rotate(-45)"/></g><g class="cls-20"><rect class="cls-21" x="594.45" y="294.41" width="43.75" height="43.75" transform="translate(-127.52 346.58) rotate(-45)"/></g><g class="cls-22"><rect class="cls-23" x="560.53" y="224.06" width="113.25" height="113.25" transform="translate(-102.1 336.74) rotate(-45)"/></g><g class="cls-2"><path class="cls-24" d="M615.27,284.08H610.7a2,2,0,0,1-2-2v-3.61a2.67,2.67,0,0,1,2.67-2.67h4.57a2,2,0,0,1,2,2v3.61a2.68,2.68,0,0,1-2.67,2.67" transform="translate(-84.39 -181.87)"/><path class="cls-24" d="M637.83,284.08h-4.57a2,2,0,0,1-2-2v-3.61a2.67,2.67,0,0,1,2.67-2.67h4.57a2,2,0,0,1,2,2v3.61a2.68,2.68,0,0,1-2.67,2.67" transform="translate(-84.39 -181.87)"/><path class="cls-25" d="M623.3,296.31h2.54a1.81,1.81,0,0,0,1.81-1.81v-5.72a1.81,1.81,0,0,0-1.81-1.81h-3.24a1.1,1.1,0,0,0-1.1,1.1v6.43a1.81,1.81,0,0,0,1.81,1.81" transform="translate(-84.39 -181.87)"/><path class="cls-25" d="M631.72,307.46v-2a1.32,1.32,0,0,0-1.32-1.32H618.74a1.32,1.32,0,0,0-1.32,1.32v2a1.32,1.32,0,0,0,1.32,1.32h11.66a1.32,1.32,0,0,0,1.32-1.32" transform="translate(-84.39 -181.87)"/><path class="cls-24" d="M644.32,271.3v-2A1.32,1.32,0,0,0,643,268H629.27a1.32,1.32,0,0,0-1.32,1.32v2a1.32,1.32,0,0,0,1.32,1.32H643a1.32,1.32,0,0,0,1.32-1.32" transform="translate(-84.39 -181.87)"/><path class="cls-24" d="M620,271.3v-2a1.32,1.32,0,0,0-1.32-1.32H604.93a1.32,1.32,0,0,0-1.32,1.32v2a1.32,1.32,0,0,0,1.32,1.32h13.72A1.32,1.32,0,0,0,620,271.3" transform="translate(-84.39 -181.87)"/></g><g class="cls-26"><rect class="cls-27" x="496.81" y="51.29" width="72.61" height="41.11"/></g><g class="cls-2"><path class="cls-28" d="M549.56,430.28a12.89,12.89,0,0,0,5.88,2.35l-2-.55a12.85,12.85,0,0,1-3.89-1.8" transform="translate(-84.39 -181.87)"/><path class="cls-29" d="M711.14,350.68a12.26,12.26,0,0,1-3.89-.63l-4.53-1.51a12.88,12.88,0,0,1-8-16.18L703.51,305a12.59,12.59,0,0,1,12-8.81,12.23,12.23,0,0,1,3.89.63l4.53,1.51a12.88,12.88,0,0,1,8,16.18l-8.82,27.34a12.59,12.59,0,0,1-12,8.81" transform="translate(-84.39 -181.87)"/><path class="cls-30" d="M715.48,297.39A11.06,11.06,0,0,1,719,298l4.53,1.51a11.7,11.7,0,0,1,7.28,14.7L722,341.51a11.42,11.42,0,0,1-10.85,8,11.06,11.06,0,0,1-3.51-.57l-4.53-1.51a11.7,11.7,0,0,1-7.28-14.7l8.82-27.34a11.42,11.42,0,0,1,10.85-8m0-2.36a13.83,13.83,0,0,0-13.1,9.63L693.57,332a14.09,14.09,0,0,0,8.78,17.66l4.53,1.51a13.42,13.42,0,0,0,4.26.7,13.83,13.83,0,0,0,13.1-9.63l8.82-27.34a14.09,14.09,0,0,0-8.78-17.66l-4.53-1.51a13.43,13.43,0,0,0-4.26-.7" transform="translate(-84.39 -181.87)"/></g><g class="cls-31"><rect class="cls-32" x="628.24" y="413.15" width="26.94" height="26.95" transform="translate(-198.1 396.85) rotate(-45)"/></g><g class="cls-2"><path class="cls-29" d="M630.38,635.89h-9.1a3.79,3.79,0,0,0-3.77,3.78v5.79a3.79,3.79,0,0,0,3.77,3.78h9.1a3.79,3.79,0,0,0,3.77-3.78v-5.79a3.79,3.79,0,0,0-3.77-3.78" transform="translate(-84.39 -181.87)"/><path class="cls-33" d="M649.67,628.3h-7.87a5.62,5.62,0,0,0-5.61,5.61V643a5.62,5.62,0,0,0,5.61,5.6h7.88a5.62,5.62,0,0,0,5.6-5.6v-9.13a5.62,5.62,0,0,0-5.6-5.61" transform="translate(-84.39 -181.87)"/><path class="cls-29" d="M654.08,635.89H645a2.06,2.06,0,0,0-2.06,2.06v9.23a2.06,2.06,0,0,0,2.06,2.06h12.54a2.06,2.06,0,0,0,2.06-2.06v-5.79a5.51,5.51,0,0,0-5.49-5.49" transform="translate(-84.39 -181.87)"/><path class="cls-29" d="M619.69,668.76h65.73a2.2,2.2,0,0,0,2.19-2.19V663.2a2.2,2.2,0,0,0-2.19-2.19H619.69a2.2,2.2,0,0,0-2.19,2.19v3.37a2.2,2.2,0,0,0,2.19,2.19" transform="translate(-84.39 -181.87)"/><path class="cls-34" d="M617.5,665.82h68.93a1.19,1.19,0,0,0,1.19-1.19v-8.78a10.28,10.28,0,0,0-10.25-10.25H617.5Z" transform="translate(-84.39 -181.87)"/><path class="cls-33" d="M617.5,645.6v3h48A17.61,17.61,0,0,1,678.07,654a18.25,18.25,0,0,1,5.21,11.87h2.27a2.08,2.08,0,0,0,2.07-2.1,18.22,18.22,0,0,0-5.23-12.8,17.6,17.6,0,0,0-12.58-5.32Z" transform="translate(-84.39 -181.87)"/><path class="cls-34" d="M657.52,642h-38A2.06,2.06,0,0,0,617.5,644v5.22h40a2.06,2.06,0,0,0,2.06-2.06V644a2.06,2.06,0,0,0-2.06-2.06" transform="translate(-84.39 -181.87)"/><path class="cls-29" d="M580.58,635.89h-9.1a3.79,3.79,0,0,0-3.77,3.78v5.79a3.79,3.79,0,0,0,3.77,3.78h9.1a3.79,3.79,0,0,0,3.77-3.78v-5.79a3.79,3.79,0,0,0-3.77-3.78" transform="translate(-84.39 -181.87)"/><path class="cls-33" d="M599.88,628.3H592a5.62,5.62,0,0,0-5.61,5.61V643a5.62,5.62,0,0,0,5.61,5.6h7.88a5.62,5.62,0,0,0,5.6-5.6v-9.13a5.62,5.62,0,0,0-5.6-5.61" transform="translate(-84.39 -181.87)"/><path class="cls-29" d="M604.29,635.89h-9.1a2.06,2.06,0,0,0-2.06,2.06v9.23a2.06,2.06,0,0,0,2.06,2.06h12.54a2.06,2.06,0,0,0,2.06-2.06v-5.79a5.51,5.51,0,0,0-5.49-5.49" transform="translate(-84.39 -181.87)"/><path class="cls-35" d="M569.9,668.76h65.73a2.2,2.2,0,0,0,2.19-2.19V663.2a2.2,2.2,0,0,0-2.19-2.19H569.9a2.2,2.2,0,0,0-2.19,2.19v3.37a2.2,2.2,0,0,0,2.19,2.19" transform="translate(-84.39 -181.87)"/><path class="cls-34" d="M567.71,665.82h68.93a1.19,1.19,0,0,0,1.19-1.19v-8.78a10.28,10.28,0,0,0-10.25-10.25H567.71Z" transform="translate(-84.39 -181.87)"/><path class="cls-33" d="M567.71,645.6v3h48A17.61,17.61,0,0,1,628.28,654a18.25,18.25,0,0,1,5.21,11.87h2.27a2.08,2.08,0,0,0,2.07-2.1,18.22,18.22,0,0,0-5.23-12.8A17.6,17.6,0,0,0,620,645.6Z" transform="translate(-84.39 -181.87)"/><path class="cls-34" d="M607.73,642h-38a2.06,2.06,0,0,0-2.06,2.06v5.22h40a2.06,2.06,0,0,0,2.06-2.06V644a2.06,2.06,0,0,0-2.06-2.06" transform="translate(-84.39 -181.87)"/><path class="cls-36" d="M828.66,348.54A32,32,0,0,1,845,346.8h0l.38.07a2,2,0,0,1,1.35,1.28,2.05,2.05,0,0,1-1.2,2.62,1.94,1.94,0,0,1-1,.1h0l-.37-.1h0a25.26,25.26,0,0,0-14.33,1.16c-10.67,3.93-17.1,13.35-14.37,21s13.6,10.72,24.27,6.78a25.69,25.69,0,0,0,11.74-8.46l0,0a3.09,3.09,0,0,0,.21-.29h0a2,2,0,0,1,3.39.66,2.08,2.08,0,0,1-.24,1.86l-.25.3,0,0a32.52,32.52,0,0,1-13.64,9.3c-13.27,4.89-26.78,1.12-30.18-8.43s4.6-21.26,17.87-26.15" transform="translate(-84.39 -181.87)"/><path class="cls-36" d="M814.07,373.48h0a3.77,3.77,0,0,1-2.2,4.79L621.23,448.56a3.67,3.67,0,0,1-4.71-2.24,3.77,3.77,0,0,1,2.2-4.79l190.64-70.29a3.67,3.67,0,0,1,4.71,2.24" transform="translate(-84.39 -181.87)"/><path class="cls-37" d="M814.07,373.48h0a3.77,3.77,0,0,1-2.2,4.79L661.27,433.8a3.67,3.67,0,0,1-4.71-2.24,3.77,3.77,0,0,1,2.2-4.79l150.6-55.53a3.67,3.67,0,0,1,4.71,2.24" transform="translate(-84.39 -181.87)"/><path class="cls-38" d="M632.88,463.06h0a2.26,2.26,0,0,1-.27-3.14l20.91-25.29a2.17,2.17,0,0,1,3.08-.27,2.26,2.26,0,0,1,.27,3.14L636,462.79a2.17,2.17,0,0,1-3.08.27" transform="translate(-84.39 -181.87)"/><path class="cls-38" d="M647.83,438.79h0a2.24,2.24,0,0,1,1.31-2.85l14.74-5.43a2.18,2.18,0,0,1,2.8,1.33,2.24,2.24,0,0,1-1.31,2.85l-14.74,5.43a2.18,2.18,0,0,1-2.8-1.33" transform="translate(-84.39 -181.87)"/></g><g class="cls-39"><rect class="cls-40" x="796.58" y="321.93" width="74.38" height="87.1" transform="translate(-160.95 176.96) rotate(-23.25)"/></g><g class="cls-41"><rect class="cls-42" x="806.69" y="324.5" width="29.54" height="25.66" transform="translate(-150.84 169.82) rotate(-23.25)"/></g><g class="cls-2"><g class="cls-43"><g class="cls-44"><path class="cls-45" d="M817.27,328.68,809.1,344s4.64,2,13.78-2,10.94-8.78,10.94-8.78Z" transform="translate(-84.39 -181.87)"/></g></g></g><g class="cls-46"><rect class="cls-47" x="813.55" y="348.52" width="40.3" height="38.16" transform="translate(-161.79 177.11) rotate(-23.25)"/></g><g class="cls-48"><rect class="cls-49" x="808.56" y="320.79" width="17.6" height="16.21" transform="translate(-147.85 167.52) rotate(-23.25)"/></g><g class="cls-50"><rect class="cls-51" x="809.24" y="320.64" width="13.48" height="10.36" transform="translate(-146.74 166.72) rotate(-23.25)"/></g><g class="cls-2"><path class="cls-36" d="M810.72,374.38l0,0a16.88,16.88,0,0,0,6.18,1.12c4.07,5.61,13.48,7.52,22.78,4.16a25.65,25.65,0,0,0,11.79-8.37s0,0,0,0a3.84,3.84,0,0,0,.23-.32h0a2,2,0,0,1,.81-.55,2,2,0,0,1,2.57,1.24,2.05,2.05,0,0,1-.25,1.86l-.25.3,0,0A32.52,32.52,0,0,1,840.85,383c-13.3,4.81-26.79,1-30.13-8.62" transform="translate(-84.39 -181.87)"/><path class="cls-38" d="M801.37,378.19h0a6.39,6.39,0,0,1,3.74-8.12l5.58-2.06a6.22,6.22,0,0,1,8,3.8,6.39,6.39,0,0,1-3.74,8.12L809.36,382a6.22,6.22,0,0,1-8-3.8" transform="translate(-84.39 -181.87)"/></g><g class="cls-52"><rect class="cls-53" x="518.84" y="316.36" width="166.42" height="166.42" transform="translate(-190.59 360.88) rotate(-45)"/></g><g class="cls-2"><path class="cls-28" d="M549.32,430.1a13.38,13.38,0,0,1-5.26-10.67v-2.94a13.41,13.41,0,0,0,5.26,13.61" transform="translate(-84.39 -181.87)"/></g><g class="cls-54"><rect class="cls-55" x="686" y="310.51" width="58.46" height="58.46" transform="translate(-115.14 423.38) rotate(-45)"/></g><g class="cls-56"><rect class="cls-57" x="530.4" y="311.37" width="65.53" height="65.53" transform="translate(-162.78 317.14) rotate(-45)"/></g><text class="cls-58" transform="translate(0 49.15)"><tspan class="cls-59">F</tspan><tspan class="cls-60" x="30.3" y="0">O</tspan><tspan class="cls-61" x="77.14" y="0">T</tspan><tspan class="cls-62" x="107.52" y="0">O</tspan><tspan x="154.36" y="0">’S</tspan></text><text class="cls-58" transform="translate(0 135.17)">MERKEN</text><text class="cls-58" transform="translate(0 221.19)">LEVERANCiERS</text><text class="cls-58" transform="translate(0 307.21)"><tspan class="cls-63">L</tspan><tspan x="29.71" y="0">OC</tspan><tspan class="cls-64" x="119.36" y="0">A</tspan><tspan x="156.4" y="0">TiES</tspan></text><text class="cls-58" transform="translate(0 393.23)">M<tspan class="cls-64" x="50.73" y="0">A</tspan><tspan x="87.77" y="0">TERiALEN</tspan></text></g></svg>