<?xml version="1.0" encoding="utf-8"?>
<!-- Generator: Adobe Illustrator 20.0.0, SVG Export Plug-In . SVG Version: 6.00 Build 0)  -->
<svg version="1.1" id="Laag_1" xmlns="http://www.w3.org/2000/svg" xmlns:xlink="http://www.w3.org/1999/xlink" x="0px" y="0px"
	 viewBox="0 0 1280 800" style="enable-background:new 0 0 1280 800;" xml:space="preserve">
<style type="text/css">
	.st0{clip-path:url(#SVGID_2_);fill:#B8E2FD;}
	.st1{clip-path:url(#SVGID_2_);}
	.st2{clip-path:url(#SVGID_4_);fill:#B8E2FD;}
	.st3{clip-path:url(#SVGID_6_);fill:url(#SVGID_7_);}
	.st4{clip-path:url(#SVGID_9_);fill:url(#SVGID_10_);}
	.st5{clip-path:url(#SVGID_12_);fill:#677985;}
	.st6{clip-path:url(#SVGID_14_);fill:url(#SVGID_15_);}
	.st7{clip-path:url(#SVGID_17_);fill:url(#SVGID_18_);}
	.st8{clip-path:url(#SVGID_20_);fill:url(#SVGID_21_);}
	.st9{opacity:5.999760e-02;clip-path:url(#SVGID_23_);}
	.st10{clip-path:url(#SVGID_25_);}
	.st11{clip-path:url(#SVGID_27_);}
	.st12{clip-path:url(#SVGID_29_);fill:url(#SVGID_30_);}
	.st13{clip-path:url(#SVGID_32_);fill:url(#SVGID_33_);}
	.st14{opacity:5.999760e-02;clip-path:url(#SVGID_35_);}
	.st15{clip-path:url(#SVGID_37_);}
	.st16{clip-path:url(#SVGID_39_);fill:url(#SVGID_40_);}
	.st17{clip-path:url(#SVGID_42_);fill:url(#SVGID_43_);}
	.st18{opacity:5.999760e-02;clip-path:url(#SVGID_45_);}
	.st19{clip-path:url(#SVGID_47_);}
	.st20{clip-path:url(#SVGID_49_);}
	.st21{clip-path:url(#SVGID_51_);fill:url(#SVGID_52_);}
	.st22{clip-path:url(#SVGID_54_);fill:url(#SVGID_55_);}
	.st23{clip-path:url(#SVGID_57_);fill:url(#SVGID_58_);}
	.st24{clip-path:url(#SVGID_60_);fill:#7F8E28;}
	.st25{clip-path:url(#SVGID_62_);fill:url(#SVGID_63_);}
	.st26{clip-path:url(#SVGID_65_);fill:url(#SVGID_66_);}
	.st27{clip-path:url(#SVGID_68_);fill:url(#SVGID_69_);}
	.st28{clip-path:url(#SVGID_71_);fill:url(#SVGID_72_);}
	.st29{clip-path:url(#SVGID_74_);fill:url(#SVGID_75_);}
	.st30{clip-path:url(#SVGID_77_);fill:#7F8E28;}
	.st31{clip-path:url(#SVGID_79_);fill:url(#SVGID_80_);}
	.st32{clip-path:url(#SVGID_82_);fill:url(#SVGID_83_);}
	.st33{clip-path:url(#SVGID_85_);fill:url(#SVGID_86_);}
	.st34{clip-path:url(#SVGID_88_);fill:url(#SVGID_89_);}
	.st35{clip-path:url(#SVGID_91_);fill:url(#SVGID_92_);}
	.st36{clip-path:url(#SVGID_94_);fill:url(#SVGID_95_);}
	.st37{clip-path:url(#SVGID_97_);fill:url(#SVGID_98_);}
	.st38{clip-path:url(#SVGID_100_);fill:url(#SVGID_101_);}
</style>
<g>
	<defs>
		<rect id="SVGID_1_" width="1280" height="800"/>
	</defs>
	<clipPath id="SVGID_2_">
		<use xlink:href="#SVGID_1_"  style="overflow:visible;"/>
	</clipPath>
	<rect class="st0" width="1279.8" height="800"/>
	<g class="st1">
		<defs>
			<rect id="SVGID_3_" width="1280" height="800"/>
		</defs>
		<clipPath id="SVGID_4_">
			<use xlink:href="#SVGID_3_"  style="overflow:visible;"/>
		</clipPath>
		<path class="st2" d="M1274.9,794.9c-1.9,1.7-3.8,3.2-5.8,4.8H11.2v-4.8H1274.9z"/>
	</g>
	<g class="st1">
		<defs>
			<path id="SVGID_5_" d="M1062,402.4c-43.9,8.4-80.6,37-123.1,50.5c-14.8,4.7-30.5,7.7-45.8,11.5c-17.5,4.4-34.4,9.8-48.7,20.2
				c-10.3,7.5-18.7,17.3-29.7,23.9c-26.3,15.7-60.6,9.4-90.1,0c-81.8-26.2-161.8-73.3-247.4-62.8c-19.6,2.4-38.7,7.9-57.9,12.4
				c-71.4,16.8-146,21.1-219,12.5C133.9,462.8,62.9,445.3,0,459.6V783h1.5v16.6h1274.4c1.4-1.2,2.7-2.5,3.9-3.8V783h0.1v-26.4h0.1
				V619.5h-0.1V421.6c-42.9-5.7-85.8-11.3-128.8-17c-19-2.5-38.2-5-57.3-5C1083.2,399.6,1072.5,400.4,1062,402.4"/>
		</defs>
		<clipPath id="SVGID_6_">
			<use xlink:href="#SVGID_5_"  style="overflow:visible;"/>
		</clipPath>
		
			<linearGradient id="SVGID_7_" gradientUnits="userSpaceOnUse" x1="0" y1="799.9996" x2="1" y2="799.9996" gradientTransform="matrix(0 451.1359 451.1359 0 -360268.5313 311.9958)">
			<stop  offset="0" style="stop-color:#098949"/>
			<stop  offset="0.2574" style="stop-color:#098949"/>
			<stop  offset="0.4553" style="stop-color:#01693B"/>
			<stop  offset="1" style="stop-color:#01693B"/>
		</linearGradient>
		<rect y="399.6" class="st3" width="1280" height="400"/>
	</g>
	<g class="st1">
		<defs>
			<path id="SVGID_8_" d="M0,746.4h1279.8V582.8l-278-1l-73.6-0.3l-72.9-0.3l-21.9-0.1l-13.4,0l-24.1-0.1h0l-9.9,0l-3.1,0l-85.7-0.3
				l-1.5,0c-3.4,0-6.8,0-10.2,0c-0.1,0-0.1,0-0.2,0c-3.8,0-7.7,0-11.5,0c-22.2-0.1-44.4-0.1-66.6,0c-5.1,0-10.1,0-15.2,0.1
				c-3.6,0-7.2,0.1-10.8,0.1c-3.6,0-7.2,0-10.8,0.1c-42.7,0.3-85.4,1-128,2.3c-2.8,0.1-5.6,0.2-8.5,0.2c-15.9,0.3-32,0.1-48-0.4
				c-14.5-0.5-28.9-1.3-43.3-2.4c0,0,0,0,0,0c-0.6,0-1.1-0.1-1.6-0.1c-17.3-1.3-34.5-3-51.3-5c-0.4-0.1-0.8-0.1-1.1-0.1
				c-7.9-0.9-15.8-2-23.7-3c-28.9-4-57.2-8.9-84.8-14.7C119.7,544.8,63,528.2,10.8,508h0c-3.6-1.4-7.2-2.8-10.8-4.2V746.4z"/>
		</defs>
		<clipPath id="SVGID_9_">
			<use xlink:href="#SVGID_8_"  style="overflow:visible;"/>
		</clipPath>
		
			<linearGradient id="SVGID_10_" gradientUnits="userSpaceOnUse" x1="0" y1="800.005" x2="1" y2="800.005" gradientTransform="matrix(1.1539 120.0042 120.0042 -1.1539 -95365.0313 1450.4711)">
			<stop  offset="0" style="stop-color:#C4D142"/>
			<stop  offset="5.547440e-02" style="stop-color:#C4D142"/>
			<stop  offset="0.7891" style="stop-color:#8FA82E"/>
			<stop  offset="1" style="stop-color:#8FA82E"/>
		</linearGradient>
		<polygon class="st4" points="1279.6,491.4 1282.1,746.3 0.1,758.7 -2.3,503.8 		"/>
	</g>
	<g class="st1">
		<defs>
			<rect id="SVGID_11_" width="1280" height="800"/>
		</defs>
		<clipPath id="SVGID_12_">
			<use xlink:href="#SVGID_11_"  style="overflow:visible;"/>
		</clipPath>
		<rect x="-0.2" y="771.8" class="st5" width="1280" height="28.2"/>
	</g>
	<g class="st1">
		<defs>
			<rect id="SVGID_13_" y="631" width="1279.8" height="143"/>
		</defs>
		<clipPath id="SVGID_14_">
			<use xlink:href="#SVGID_13_"  style="overflow:visible;"/>
		</clipPath>
		
			<linearGradient id="SVGID_15_" gradientUnits="userSpaceOnUse" x1="0" y1="800.0002" x2="1" y2="800.0002" gradientTransform="matrix(-8.025 513.6015 513.6015 8.025 -410239.75 -5825.7734)">
			<stop  offset="0" style="stop-color:#C6C4C4"/>
			<stop  offset="0.1587" style="stop-color:#C6C4C4"/>
			<stop  offset="0.4553" style="stop-color:#B7B6B6"/>
			<stop  offset="1" style="stop-color:#B7B6B6"/>
		</linearGradient>
		<polygon class="st6" points="1282,631.1 1279.5,794 -2.2,774 0.3,611.1 		"/>
	</g>
	<g class="st1">
		<defs>
			<path id="SVGID_16_" d="M829.4,305.6L822,509.4c0,1.3,1,2.3,2.3,2.3h13.1c1.3,0,2.3-1,2.3-2.3l-5.8-203.8H829.4z"/>
		</defs>
		<clipPath id="SVGID_17_">
			<use xlink:href="#SVGID_16_"  style="overflow:visible;"/>
		</clipPath>
		
			<linearGradient id="SVGID_18_" gradientUnits="userSpaceOnUse" x1="0" y1="799.9701" x2="1" y2="799.9701" gradientTransform="matrix(-3.6761 111.332 111.332 3.6761 -88232.3516 -2507.6699)">
			<stop  offset="0" style="stop-color:#DAAE82"/>
			<stop  offset="0.2134" style="stop-color:#DAAE82"/>
			<stop  offset="0.4478" style="stop-color:#CA986C"/>
			<stop  offset="1" style="stop-color:#CA986C"/>
		</linearGradient>
		<polygon class="st7" points="846.4,305.8 839.5,512.3 815.1,511.5 821.9,305 		"/>
	</g>
	<g class="st1">
		<defs>
			<path id="SVGID_19_" d="M828.8,297.2l-28.1,77.4l-29.1,80.1c-0.5,1.5,0.5,3,2.1,3h57.2h55.5c2.4,0,4.1-2.4,3.2-4.6l-28.5-78.5
				L833,297.2c-0.4-1-1.2-1.5-2.1-1.5C830,295.7,829.2,296.2,828.8,297.2"/>
		</defs>
		<clipPath id="SVGID_20_">
			<use xlink:href="#SVGID_19_"  style="overflow:visible;"/>
		</clipPath>
		
			<linearGradient id="SVGID_21_" gradientUnits="userSpaceOnUse" x1="0" y1="800.1821" x2="1" y2="800.1821" gradientTransform="matrix(71.6581 109.1933 109.1933 -71.6581 -86566.2266 57681.9805)">
			<stop  offset="0" style="stop-color:#018A3B"/>
			<stop  offset="0.1052" style="stop-color:#018A3B"/>
			<stop  offset="0.6785" style="stop-color:#01693B"/>
			<stop  offset="1" style="stop-color:#01693B"/>
		</linearGradient>
		<polygon class="st8" points="854.5,241 964.7,408.9 807,512.4 696.8,344.5 		"/>
	</g>
	<g class="st1">
		<defs>
			<rect id="SVGID_22_" width="1280" height="800"/>
		</defs>
		<clipPath id="SVGID_23_">
			<use xlink:href="#SVGID_22_"  style="overflow:visible;"/>
		</clipPath>
		<g class="st9">
			<g>
				<defs>
					<rect id="SVGID_24_" x="44.8" y="465.6" width="126" height="28.9"/>
				</defs>
				<clipPath id="SVGID_25_">
					<use xlink:href="#SVGID_24_"  style="overflow:visible;"/>
				</clipPath>
				<path class="st10" d="M170.8,480.1c0,8-28.2,14.4-63,14.4s-63-6.5-63-14.4c0-8,28.2-14.4,63-14.4S170.8,472.1,170.8,480.1"/>
			</g>
		</g>
		<g class="st9">
			<g>
				<defs>
					<rect id="SVGID_26_" x="155.8" y="490.6" width="34.9" height="8"/>
				</defs>
				<clipPath id="SVGID_27_">
					<use xlink:href="#SVGID_26_"  style="overflow:visible;"/>
				</clipPath>
				<path class="st11" d="M190.8,494.6c0,2.2-7.8,4-17.5,4s-17.5-1.8-17.5-4c0-2.2,7.8-4,17.5-4S190.8,492.4,190.8,494.6"/>
			</g>
		</g>
	</g>
	<g class="st1">
		<defs>
			<path id="SVGID_28_" d="M1055.4,305.1l-7.4,203.8c0,1.3,1,2.3,2.3,2.3h13.1c1.3,0,2.3-1,2.3-2.3l-5.8-203.8H1055.4z"/>
		</defs>
		<clipPath id="SVGID_29_">
			<use xlink:href="#SVGID_28_"  style="overflow:visible;"/>
		</clipPath>
		
			<linearGradient id="SVGID_30_" gradientUnits="userSpaceOnUse" x1="0" y1="799.9701" x2="1" y2="799.9701" gradientTransform="matrix(-3.6761 111.332 111.332 3.6761 -88006.3438 -2508.2236)">
			<stop  offset="0" style="stop-color:#DAAE82"/>
			<stop  offset="0.2134" style="stop-color:#DAAE82"/>
			<stop  offset="0.4478" style="stop-color:#CA986C"/>
			<stop  offset="1" style="stop-color:#CA986C"/>
		</linearGradient>
		<polygon class="st12" points="1072.4,305.3 1065.6,511.7 1041.1,510.9 1047.9,304.5 		"/>
	</g>
	<g class="st1">
		<defs>
			<path id="SVGID_31_" d="M1054.8,296.6l-28.1,77.4l-29.1,80.1c-0.5,1.5,0.5,3,2.1,3h57.2h55.5c2.4,0,4.1-2.4,3.2-4.6l-28.5-78.5
				l-28.1-77.4c-0.4-1-1.2-1.5-2.1-1.5S1055.2,295.7,1054.8,296.6"/>
		</defs>
		<clipPath id="SVGID_32_">
			<use xlink:href="#SVGID_31_"  style="overflow:visible;"/>
		</clipPath>
		
			<linearGradient id="SVGID_33_" gradientUnits="userSpaceOnUse" x1="0" y1="800.1821" x2="1" y2="800.1821" gradientTransform="matrix(71.6581 109.1933 109.1933 -71.6581 -86340.2188 57681.4258)">
			<stop  offset="0" style="stop-color:#018A3B"/>
			<stop  offset="0.1052" style="stop-color:#018A3B"/>
			<stop  offset="0.6785" style="stop-color:#01693B"/>
			<stop  offset="1" style="stop-color:#01693B"/>
		</linearGradient>
		<polygon class="st13" points="1080.5,240.4 1190.7,408.4 1033,511.9 922.8,343.9 		"/>
	</g>
	<g class="st1">
		<defs>
			<rect id="SVGID_34_" width="1280" height="800"/>
		</defs>
		<clipPath id="SVGID_35_">
			<use xlink:href="#SVGID_34_"  style="overflow:visible;"/>
		</clipPath>
		<g class="st14">
			<g>
				<defs>
					<rect id="SVGID_36_" x="93.8" y="465.6" width="24" height="9.9"/>
				</defs>
				<clipPath id="SVGID_37_">
					<use xlink:href="#SVGID_36_"  style="overflow:visible;"/>
				</clipPath>
				<path class="st15" d="M117.8,470.6c0,2.7-5.4,4.9-12,4.9c-6.6,0-12-2.2-12-4.9c0-2.7,5.4-4.9,12-4.9
					C112.4,465.6,117.8,467.8,117.8,470.6"/>
			</g>
		</g>
	</g>
	<g class="st1">
		<defs>
			<path id="SVGID_38_" d="M102.8,265.9l-7.4,203.8c0,1.3,1,2.3,2.3,2.3h13.1c1.3,0,2.3-1,2.3-2.3l-5.8-203.8H102.8z"/>
		</defs>
		<clipPath id="SVGID_39_">
			<use xlink:href="#SVGID_38_"  style="overflow:visible;"/>
		</clipPath>
		
			<linearGradient id="SVGID_40_" gradientUnits="userSpaceOnUse" x1="0" y1="799.9701" x2="1" y2="799.9701" gradientTransform="matrix(-3.6761 111.332 111.332 3.6761 -88958.9375 -2547.3518)">
			<stop  offset="0" style="stop-color:#DAAE82"/>
			<stop  offset="0.2134" style="stop-color:#DAAE82"/>
			<stop  offset="0.4478" style="stop-color:#CA986C"/>
			<stop  offset="1" style="stop-color:#CA986C"/>
		</linearGradient>
		<polygon class="st16" points="119.8,266.2 113,472.6 88.5,471.8 95.3,265.4 		"/>
	</g>
	<g class="st1">
		<defs>
			<path id="SVGID_41_" d="M102.2,257.5l-28.1,77.4L45,415c-0.5,1.5,0.5,3,2.1,3h57.2h55.5c2.4,0,4.1-2.4,3.2-4.6l-28.5-78.5
				l-28.1-77.4c-0.4-1-1.2-1.5-2.1-1.5C103.4,256,102.6,256.5,102.2,257.5"/>
		</defs>
		<clipPath id="SVGID_42_">
			<use xlink:href="#SVGID_41_"  style="overflow:visible;"/>
		</clipPath>
		
			<linearGradient id="SVGID_43_" gradientUnits="userSpaceOnUse" x1="0" y1="800.1821" x2="1" y2="800.1821" gradientTransform="matrix(71.6581 109.1933 109.1933 -71.6581 -87292.8125 57642.3008)">
			<stop  offset="0" style="stop-color:#018A3B"/>
			<stop  offset="0.1052" style="stop-color:#018A3B"/>
			<stop  offset="0.6785" style="stop-color:#01693B"/>
			<stop  offset="1" style="stop-color:#01693B"/>
		</linearGradient>
		<polygon class="st17" points="127.9,201.3 238.1,369.3 80.4,472.7 -29.8,304.8 		"/>
	</g>
	<g class="st1">
		<defs>
			<rect id="SVGID_44_" width="1280" height="800"/>
		</defs>
		<clipPath id="SVGID_45_">
			<use xlink:href="#SVGID_44_"  style="overflow:visible;"/>
		</clipPath>
		<g class="st18">
			<g>
				<defs>
					<rect id="SVGID_46_" x="112.8" y="479.6" width="126" height="28.9"/>
				</defs>
				<clipPath id="SVGID_47_">
					<use xlink:href="#SVGID_46_"  style="overflow:visible;"/>
				</clipPath>
				<path class="st19" d="M238.8,494.1c0,8-28.2,14.4-63,14.4s-63-6.5-63-14.4c0-8,28.2-14.4,63-14.4S238.8,486.1,238.8,494.1"/>
			</g>
		</g>
		<g class="st18">
			<g>
				<defs>
					<rect id="SVGID_48_" x="159.6" y="592.6" width="180.2" height="28.9"/>
				</defs>
				<clipPath id="SVGID_49_">
					<use xlink:href="#SVGID_48_"  style="overflow:visible;"/>
				</clipPath>
				<path class="st20" d="M339.8,607.1c0,8-40.3,14.4-90.1,14.4s-90.1-6.5-90.1-14.4c0-8,40.3-14.4,90.1-14.4
					S339.8,599.1,339.8,607.1"/>
			</g>
		</g>
	</g>
	<g class="st1">
		<defs>
			<path id="SVGID_50_" d="M171.5,288.1l-7.4,203.8c0,1.3,1,2.3,2.3,2.3h13.1c1.3,0,2.3-1,2.3-2.3l-5.8-203.8H171.5z"/>
		</defs>
		<clipPath id="SVGID_51_">
			<use xlink:href="#SVGID_50_"  style="overflow:visible;"/>
		</clipPath>
		
			<linearGradient id="SVGID_52_" gradientUnits="userSpaceOnUse" x1="0" y1="799.9701" x2="1" y2="799.9701" gradientTransform="matrix(-3.6761 111.332 111.332 3.6761 -88890.2109 -2525.1672)">
			<stop  offset="0" style="stop-color:#DAAE82"/>
			<stop  offset="0.2134" style="stop-color:#DAAE82"/>
			<stop  offset="0.4478" style="stop-color:#CA986C"/>
			<stop  offset="1" style="stop-color:#CA986C"/>
		</linearGradient>
		<polygon class="st21" points="188.5,288.3 181.7,494.8 157.3,494 164.1,287.5 		"/>
	</g>
	<g class="st1">
		<defs>
			<path id="SVGID_53_" d="M170.9,279.7l-28.1,77.4l-29.1,80.1c-0.5,1.5,0.5,3,2.1,3H173h55.5c2.4,0,4.1-2.4,3.2-4.6l-28.5-78.5
				l-28.1-77.4c-0.4-1-1.2-1.5-2.1-1.5S171.3,278.7,170.9,279.7"/>
		</defs>
		<clipPath id="SVGID_54_">
			<use xlink:href="#SVGID_53_"  style="overflow:visible;"/>
		</clipPath>
		
			<linearGradient id="SVGID_55_" gradientUnits="userSpaceOnUse" x1="0" y1="800.1821" x2="1" y2="800.1821" gradientTransform="matrix(71.6581 109.1933 109.1933 -71.6581 -87224.0859 57664.4844)">
			<stop  offset="0" style="stop-color:#018A3B"/>
			<stop  offset="0.1052" style="stop-color:#018A3B"/>
			<stop  offset="0.6785" style="stop-color:#01693B"/>
			<stop  offset="1" style="stop-color:#01693B"/>
		</linearGradient>
		<polygon class="st22" points="196.6,223.5 306.8,391.4 149.1,494.9 38.9,327 		"/>
	</g>
	<g class="st1">
		<defs>
			<path id="SVGID_56_" d="M548.8,99.6c0,29.8,24.2,54,54,54c29.8,0,54-24.2,54-54c0-29.8-24.2-54-54-54
				C572.9,45.6,548.8,69.8,548.8,99.6"/>
		</defs>
		<clipPath id="SVGID_57_">
			<use xlink:href="#SVGID_56_"  style="overflow:visible;"/>
		</clipPath>
		
			<linearGradient id="SVGID_58_" gradientUnits="userSpaceOnUse" x1="0" y1="800" x2="1" y2="800" gradientTransform="matrix(91.3015 100.8405 100.8405 -91.3015 -80109.7109 73096.5781)">
			<stop  offset="0" style="stop-color:#F9E4B4"/>
			<stop  offset="0.4248" style="stop-color:#F9E4B4"/>
			<stop  offset="0.7541" style="stop-color:#FFE194"/>
			<stop  offset="1" style="stop-color:#FFE194"/>
		</linearGradient>
		<polygon class="st23" points="608.1,-8.1 710.5,105 597.4,207.4 495,94.3 		"/>
	</g>
	<g class="st1">
		<defs>
			<rect id="SVGID_59_" width="1280" height="800"/>
		</defs>
		<clipPath id="SVGID_60_">
			<use xlink:href="#SVGID_59_"  style="overflow:visible;"/>
		</clipPath>
		<path class="st24" d="M932.9,318.6c0,44.5-36,80.5-80.5,80.5c-44.5,0-80.5-36-80.5-80.5c0-44.5,36-80.5,80.5-80.5
			C896.8,238.1,932.9,274.1,932.9,318.6"/>
	</g>
	<g class="st1">
		<defs>
			<path id="SVGID_61_" d="M912.6,267.7l-6,212.4c-9.7-2.7-23.5-9.9-30.7-29.1c-0.5-1.4-2-2.3-3.5-2l-2.1,0.4
				c-1.8,0.4-2.9,2.3-2.2,4.1c3.5,9.2,15.3,34.3,38.2,37.6L903,609c-0.1,2.2,1.6,3.9,3.8,3.9h22.1c2.2,0,3.9-1.8,3.8-4l-5.1-140.2
				c17.3-4,48.8-15.7,52.1-47.1c0-0.2,0-0.3,0-0.5V409c0-2.1-1.7-3.8-3.8-3.8h-1.7c-1.7,0-3.3,1.2-3.7,2.9l-2.1,8.3
				c0,0-5.7,32.4-41.1,41.9l-6.9-190.5c-0.1-2.1-1.8-3.7-3.8-3.7C914.4,264,912.7,265.7,912.6,267.7"/>
		</defs>
		<clipPath id="SVGID_62_">
			<use xlink:href="#SVGID_61_"  style="overflow:visible;"/>
		</clipPath>
		
			<linearGradient id="SVGID_63_" gradientUnits="userSpaceOnUse" x1="0" y1="800.0063" x2="1" y2="800.0063" gradientTransform="matrix(12.0556 140.6482 -140.6482 12.0556 113440.8594 -9231.1924)">
			<stop  offset="0" style="stop-color:#DAAE82"/>
			<stop  offset="0.4124" style="stop-color:#CF9F73"/>
			<stop  offset="0.7564" style="stop-color:#CA986C"/>
			<stop  offset="1" style="stop-color:#CA986C"/>
		</linearGradient>
		<polygon class="st25" points="837.8,266.6 868.3,622.5 1009.4,610.4 978.9,254.5 		"/>
	</g>
	<g class="st1">
		<defs>
			<path id="SVGID_64_" d="M930.1,169.6c-34.7,4.6-59,37.2-54.3,72.8c4.8,35.6,36.8,60.7,71.5,56.1c34.7-4.6,59-37.2,54.3-72.8
				c-4.4-32.7-31.8-56.6-63.2-56.6C935.7,169.1,932.9,169.3,930.1,169.6"/>
		</defs>
		<clipPath id="SVGID_65_">
			<use xlink:href="#SVGID_64_"  style="overflow:visible;"/>
		</clipPath>
		
			<linearGradient id="SVGID_66_" gradientUnits="userSpaceOnUse" x1="0" y1="800.0127" x2="1" y2="800.0127" gradientTransform="matrix(-96.7593 78.6062 78.6062 96.7593 -61890.9063 -77218.3516)">
			<stop  offset="0" style="stop-color:#E2B634"/>
			<stop  offset="0.2709" style="stop-color:#C1B032"/>
			<stop  offset="0.5574" style="stop-color:#A6AC30"/>
			<stop  offset="0.81" style="stop-color:#95A92E"/>
			<stop  offset="1" style="stop-color:#8FA82E"/>
		</linearGradient>
		<polygon class="st26" points="1072,249.9 924.9,369.4 805.5,222.4 952.6,102.9 		"/>
	</g>
	<g class="st1">
		<defs>
			<path id="SVGID_67_" d="M980.6,254.9c-28.6,3.8-50.6,22.7-55.4,45.3c-0.3,1.4-0.5,2.8-0.7,4.3c-0.4,3.5-0.4,7.1,0.1,10.7
				c0.3,2.3,0.8,4.5,1.4,6.6c4.4,15.1,16.8,26.9,32.9,33c8.8,3.3,18.8,5,29.2,4.4c2.1-0.1,4.2-0.3,6.3-0.6l0,0
				c16.6-2.2,31.1-9.6,41.1-19.8c11-11.1,16.8-25.6,14.8-40.5c-1-7.4-3.8-14.2-8-20.1c-10.5-14.7-29.8-24.1-51.6-24.1
				C987.5,254.3,984.1,254.5,980.6,254.9"/>
		</defs>
		<clipPath id="SVGID_68_">
			<use xlink:href="#SVGID_67_"  style="overflow:visible;"/>
		</clipPath>
		
			<linearGradient id="SVGID_69_" gradientUnits="userSpaceOnUse" x1="0" y1="800.0061" x2="1" y2="800.0061" gradientTransform="matrix(-73.923 88.9609 88.9609 73.923 -70136.2031 -58885.6445)">
			<stop  offset="0" style="stop-color:#C5CD03"/>
			<stop  offset="0.3068" style="stop-color:#C5CD03"/>
			<stop  offset="0.7444" style="stop-color:#969618"/>
			<stop  offset="1" style="stop-color:#969618"/>
		</linearGradient>
		<polygon class="st27" points="1104.3,297.4 1000,422.8 872.3,316.7 976.6,191.2 		"/>
	</g>
	<g class="st1">
		<defs>
			<path id="SVGID_70_" d="M869.3,360.4c-34.7,4.6-60,30.2-56.4,57.1c3.6,26.9,34.7,45,69.4,40.3c34.7-4.6,60-30.2,56.4-57.1
				c-3.2-24.1-28.4-41.1-58.5-41.1C876.6,359.6,873,359.9,869.3,360.4"/>
		</defs>
		<clipPath id="SVGID_71_">
			<use xlink:href="#SVGID_70_"  style="overflow:visible;"/>
		</clipPath>
		
			<linearGradient id="SVGID_72_" gradientUnits="userSpaceOnUse" x1="0" y1="800.012" x2="1" y2="800.012" gradientTransform="matrix(-89.6939 81.4536 81.4536 89.6939 -64252.6875 -71377.2188)">
			<stop  offset="0" style="stop-color:#B9D31C"/>
			<stop  offset="0.6785" style="stop-color:#99B814"/>
			<stop  offset="1" style="stop-color:#99B814"/>
		</linearGradient>
		<polygon class="st28" points="993.5,416 869.4,528.6 758.2,406.1 882.2,293.5 		"/>
	</g>
	<g class="st1">
		<defs>
			<path id="SVGID_73_" d="M946.4,348.2c-16.9,21.3-13.3,52.2,8,69.1c21.3,16.9,52.2,13.3,69.1-8c16.9-21.3,13.3-52.2-8-69.1
				c-9-7.2-19.8-10.6-30.5-10.6C970.5,329.6,956.1,336,946.4,348.2"/>
		</defs>
		<clipPath id="SVGID_74_">
			<use xlink:href="#SVGID_73_"  style="overflow:visible;"/>
		</clipPath>
		
			<linearGradient id="SVGID_75_" gradientUnits="userSpaceOnUse" x1="0" y1="800.0203" x2="1" y2="800.0203" gradientTransform="matrix(-82.2704 76.6723 76.6723 82.2704 -60303.4297 -65483.6875)">
			<stop  offset="0" style="stop-color:#C5CD03"/>
			<stop  offset="0.26" style="stop-color:#C5CD03"/>
			<stop  offset="0.982" style="stop-color:#969618"/>
			<stop  offset="1" style="stop-color:#969618"/>
		</linearGradient>
		<polygon class="st29" points="1092.5,385.5 981.1,489.4 877.4,378.2 988.9,274.3 		"/>
	</g>
	<g class="st1">
		<defs>
			<rect id="SVGID_76_" width="1280" height="800"/>
		</defs>
		<clipPath id="SVGID_77_">
			<use xlink:href="#SVGID_76_"  style="overflow:visible;"/>
		</clipPath>
		<path class="st30" d="M972.9,334.5c0,27.4-26.9,49.6-60.1,49.6c-33.2,0-60.1-22.2-60.1-49.6c0-27.4,26.9-49.6,60.1-49.6
			C945.9,285,972.9,307.2,972.9,334.5"/>
	</g>
	<g class="st1">
		<defs>
			<path id="SVGID_78_" d="M799.5,613.1h179.8c-11.2-8.8-26.3-14.1-42.8-14.1c-8.4,0-16.3,1.3-23.6,3.9c-11.1-15-31-25-53.7-25
				C831.6,577.9,808.2,592.6,799.5,613.1"/>
		</defs>
		<clipPath id="SVGID_79_">
			<use xlink:href="#SVGID_78_"  style="overflow:visible;"/>
		</clipPath>
		
			<linearGradient id="SVGID_80_" gradientUnits="userSpaceOnUse" x1="0" y1="800.1246" x2="1" y2="800.1246" gradientTransform="matrix(100.6735 62.3805 62.3805 -100.6735 -49071.5898 81116.5938)">
			<stop  offset="0" style="stop-color:#8FA82E"/>
			<stop  offset="0.1639" style="stop-color:#8FA82E"/>
			<stop  offset="0.9987" style="stop-color:#6E7F25"/>
			<stop  offset="1" style="stop-color:#6E7F25"/>
		</linearGradient>
		<polygon class="st31" points="849.4,497.5 995,587.7 929.4,693.6 783.8,603.3 		"/>
	</g>
	<g class="st1">
		<defs>
			<path id="SVGID_81_" d="M237.7,393.2c0,35,29.1,63.4,65,63.4c35.9,0,65-28.4,65-63.4s-29.1-63.4-65-63.4
				C266.8,329.8,237.7,358.2,237.7,393.2"/>
		</defs>
		<clipPath id="SVGID_82_">
			<use xlink:href="#SVGID_81_"  style="overflow:visible;"/>
		</clipPath>
		
			<linearGradient id="SVGID_83_" gradientUnits="userSpaceOnUse" x1="0" y1="800" x2="1" y2="800" gradientTransform="matrix(-65.1139 106.3084 -106.3084 -65.1139 85386.7109 52423.5078)">
			<stop  offset="0" style="stop-color:#E2B634"/>
			<stop  offset="0.2709" style="stop-color:#C1B032"/>
			<stop  offset="0.5574" style="stop-color:#A6AC30"/>
			<stop  offset="0.81" style="stop-color:#95A92E"/>
			<stop  offset="1" style="stop-color:#8FA82E"/>
		</linearGradient>
		<polygon class="st32" points="273.2,271.8 181.2,422 332.2,514.6 424.2,364.4 		"/>
	</g>
	<g class="st1">
		<defs>
			<path id="SVGID_84_" d="M304.3,323.4c0,35,23.4,63.4,52.3,63.4c28.9,0,52.3-28.4,52.3-63.4c0-35-23.4-63.4-52.3-63.4
				C327.7,260,304.3,288.4,304.3,323.4"/>
		</defs>
		<clipPath id="SVGID_85_">
			<use xlink:href="#SVGID_84_"  style="overflow:visible;"/>
		</clipPath>
		
			<linearGradient id="SVGID_86_" gradientUnits="userSpaceOnUse" x1="0" y1="800" x2="1" y2="800" gradientTransform="matrix(-78.4025 85.0468 -85.0468 -78.4025 68441.6641 62993.7188)">
			<stop  offset="0" style="stop-color:#C5CD03"/>
			<stop  offset="0.3068" style="stop-color:#C5CD03"/>
			<stop  offset="0.7444" style="stop-color:#969618"/>
			<stop  offset="1" style="stop-color:#969618"/>
		</linearGradient>
		<polygon class="st33" points="352.4,207.8 241.1,328.6 360.9,439 472.2,318.3 		"/>
	</g>
	<g class="st1">
		<defs>
			<path id="SVGID_87_" d="M239.7,262.1l-6,212.4c-9.7-2.7-23.5-9.9-30.7-29.1c-0.5-1.4-2-2.3-3.5-2l-2.1,0.4
				c-1.8,0.4-2.9,2.3-2.2,4.1c3.5,9.2,15.3,34.3,38.2,37.6L230,603.4c-0.1,2.2,1.6,3.9,3.8,3.9h22.1c2.2,0,3.9-1.8,3.8-4l-5.1-140.2
				c17.3-4,48.8-15.7,52.1-47.1c0-0.2,0-0.4,0-0.5v-12.1c0-2.1-1.7-3.8-3.8-3.8h-1.7c-1.7,0-3.3,1.2-3.7,2.9l-2.1,8.3
				c0,0-5.7,32.4-41.1,41.9l-6.9-190.5c-0.1-2.1-1.8-3.7-3.8-3.7C241.4,258.4,239.7,260.1,239.7,262.1"/>
		</defs>
		<clipPath id="SVGID_88_">
			<use xlink:href="#SVGID_87_"  style="overflow:visible;"/>
		</clipPath>
		
			<linearGradient id="SVGID_89_" gradientUnits="userSpaceOnUse" x1="0" y1="800.0063" x2="1" y2="800.0063" gradientTransform="matrix(12.0556 140.6482 -140.6482 12.0556 112767.8828 -9236.8066)">
			<stop  offset="0" style="stop-color:#DAAE82"/>
			<stop  offset="0.4124" style="stop-color:#CF9F73"/>
			<stop  offset="0.7564" style="stop-color:#CA986C"/>
			<stop  offset="1" style="stop-color:#CA986C"/>
		</linearGradient>
		<polygon class="st34" points="164.8,260.9 195.3,616.8 336.4,604.7 305.9,248.9 		"/>
	</g>
	<g class="st1">
		<defs>
			<path id="SVGID_90_" d="M155.2,386.9c0,35,22,63.4,49.2,63.4c27.2,0,49.2-28.4,49.2-63.4c0-35-22-63.4-49.2-63.4
				C177.2,323.4,155.2,351.8,155.2,386.9"/>
		</defs>
		<clipPath id="SVGID_91_">
			<use xlink:href="#SVGID_90_"  style="overflow:visible;"/>
		</clipPath>
		
			<linearGradient id="SVGID_92_" gradientUnits="userSpaceOnUse" x1="0" y1="800" x2="1" y2="800" gradientTransform="matrix(-68.8711 99.6818 -99.6818 -68.8711 79976.2188 55445.4805)">
			<stop  offset="0" style="stop-color:#B9D31C"/>
			<stop  offset="0.6785" style="stop-color:#99B814"/>
			<stop  offset="1" style="stop-color:#99B814"/>
		</linearGradient>
		<polygon class="st35" points="187,277.4 95.9,409.3 221.8,496.3 312.9,364.4 		"/>
	</g>
	<g class="st1">
		<defs>
			<path id="SVGID_93_" d="M95,290.1c0,62.2,50.4,93.6,104.7,93.6c32.3,0,58.8-11.1,74.9-33.3c9.9,5,21.1,7.9,33,7.9
				c40.3,0,73-32.7,73-72.9c0-40.3-32.7-72.9-73-72.9c-13.1,0-25.3,3.5-36,9.5c-17.9-27-46.3-44.4-78.2-44.4
				C139,177.5,95,227.9,95,290.1"/>
		</defs>
		<clipPath id="SVGID_94_">
			<use xlink:href="#SVGID_93_"  style="overflow:visible;"/>
		</clipPath>
		
			<linearGradient id="SVGID_95_" gradientUnits="userSpaceOnUse" x1="0" y1="799.9857" x2="1" y2="799.9857" gradientTransform="matrix(-151.1963 137.0217 -137.0217 -151.1963 109947.7734 121149.6328)">
			<stop  offset="0" style="stop-color:#C4D142"/>
			<stop  offset="5.547440e-02" style="stop-color:#C4D142"/>
			<stop  offset="0.7891" style="stop-color:#8FA82E"/>
			<stop  offset="1" style="stop-color:#8FA82E"/>
		</linearGradient>
		<polygon class="st36" points="251.7,35.5 -7.6,270.5 223.7,525.7 483,290.7 		"/>
	</g>
	<g class="st1">
		<defs>
			<path id="SVGID_96_" d="M267.3,338.4c-18.9,19.5-18.3,50.7,1.2,69.5s50.7,18.3,69.5-1.2c18.9-19.5,18.3-50.7-1.2-69.5
				c-9.5-9.2-21.8-13.8-34.1-13.8C289.8,323.4,277,328.4,267.3,338.4"/>
		</defs>
		<clipPath id="SVGID_97_">
			<use xlink:href="#SVGID_96_"  style="overflow:visible;"/>
		</clipPath>
		
			<linearGradient id="SVGID_98_" gradientUnits="userSpaceOnUse" x1="0" y1="799.9869" x2="1" y2="799.9869" gradientTransform="matrix(-65.1139 91.691 -91.691 -65.1139 73694.6875 52408.5781)">
			<stop  offset="0" style="stop-color:#C5CD03"/>
			<stop  offset="0.26" style="stop-color:#C5CD03"/>
			<stop  offset="0.982" style="stop-color:#969618"/>
			<stop  offset="1" style="stop-color:#969618"/>
		</linearGradient>
		<polygon class="st37" points="284.8,272.2 199.7,392.2 320.6,478 405.7,358.1 		"/>
	</g>
	<g class="st1">
		<defs>
			<path id="SVGID_99_" d="M182.7,567.3c-5.9-2-12.3-3.1-19.1-3.1c-28.2,0-51.1,19.1-51.1,42.6c0,5,1,9.8,3,14.2h145.2
				c10.2-7.7,16.5-18.9,16.5-31.2c0-23.5-22.9-42.6-51.1-42.6C207.7,547.1,191.7,555.2,182.7,567.3"/>
		</defs>
		<clipPath id="SVGID_100_">
			<use xlink:href="#SVGID_99_"  style="overflow:visible;"/>
		</clipPath>
		
			<linearGradient id="SVGID_101_" gradientUnits="userSpaceOnUse" x1="0" y1="800.0861" x2="1" y2="800.0861" gradientTransform="matrix(-106.2851 78.3473 -78.3473 -106.2851 62937.3203 85578.625)">
			<stop  offset="0" style="stop-color:#8FA82E"/>
			<stop  offset="0.1639" style="stop-color:#8FA82E"/>
			<stop  offset="0.9987" style="stop-color:#748727"/>
			<stop  offset="1" style="stop-color:#748727"/>
		</linearGradient>
		<polygon class="st38" points="219.2,468.5 77.2,573.1 170.5,699.6 312.4,594.9 		"/>
	</g>
</g>
</svg>
