<svg id="Laag_1" data-name="Laag 1" xmlns="http://www.w3.org/2000/svg" xmlns:xlink="http://www.w3.org/1999/xlink" viewBox="0 0 1319.52 861.48"><defs><style>.cls-1{fill:none;}.cls-2{clip-path:url(#clip-path);}.cls-3{fill:#bae1f7;}.cls-4{clip-path:url(#clip-path-2);}.cls-5{fill:url(#Naamloos_verloop);}.cls-6{clip-path:url(#clip-path-3);}.cls-7{fill:url(#Naamloos_verloop_2);}.cls-8{clip-path:url(#clip-path-4);}.cls-9{opacity:0.06;}.cls-10{clip-path:url(#clip-path-5);}.cls-11{fill:#010101;}.cls-12{clip-path:url(#clip-path-6);}.cls-13{clip-path:url(#clip-path-7);}.cls-14{clip-path:url(#clip-path-8);}.cls-15{fill:url(#Naamloos_verloop_3);}.cls-16{clip-path:url(#clip-path-9);}.cls-17{fill:url(#Naamloos_verloop_4);}.cls-18{clip-path:url(#clip-path-10);}.cls-19{fill:url(#Naamloos_verloop_5);}.cls-20{clip-path:url(#clip-path-11);}.cls-21{fill:url(#Naamloos_verloop_6);}.cls-22{clip-path:url(#clip-path-12);}.cls-23{fill:url(#Naamloos_verloop_7);}.cls-24{clip-path:url(#clip-path-13);}.cls-25{fill:url(#Naamloos_verloop_8);}.cls-26{clip-path:url(#clip-path-14);}.cls-27{fill:url(#Naamloos_verloop_9);}.cls-28{clip-path:url(#clip-path-15);}.cls-29{fill:url(#Naamloos_verloop_10);}.cls-30{clip-path:url(#clip-path-16);}.cls-31{fill:url(#Naamloos_verloop_11);}.cls-32{clip-path:url(#clip-path-17);}.cls-33{fill:url(#Naamloos_verloop_12);}.cls-34{clip-path:url(#clip-path-18);}.cls-35{fill:url(#Naamloos_verloop_13);}.cls-36{fill:#7f8e38;}.cls-37{clip-path:url(#clip-path-20);}.cls-38{fill:url(#Naamloos_verloop_14);}.cls-39{clip-path:url(#clip-path-21);}.cls-40{fill:url(#Naamloos_verloop_15);}.cls-41{clip-path:url(#clip-path-22);}.cls-42{fill:url(#Naamloos_verloop_16);}.cls-43{clip-path:url(#clip-path-23);}.cls-44{fill:url(#Naamloos_verloop_17);}.cls-45{clip-path:url(#clip-path-24);}.cls-46{fill:url(#Naamloos_verloop_18);}.cls-47{clip-path:url(#clip-path-26);}.cls-48{fill:url(#Naamloos_verloop_19);}.cls-49{clip-path:url(#clip-path-27);}.cls-50{fill:url(#Naamloos_verloop_20);}.cls-51{opacity:0.44;}.cls-52{clip-path:url(#clip-path-29);}.cls-53{fill:#765645;}.cls-54{fill:#835f46;}.cls-55{opacity:0.19;}.cls-56{clip-path:url(#clip-path-30);}.cls-57{fill:#8d6850;}.cls-58{opacity:0.21;}.cls-59{clip-path:url(#clip-path-31);}.cls-60{opacity:0.13;}.cls-61{clip-path:url(#clip-path-32);}.cls-62{opacity:0.17;}.cls-63{clip-path:url(#clip-path-33);}.cls-64{opacity:0.22;}.cls-65{clip-path:url(#clip-path-34);}.cls-66{clip-path:url(#clip-path-35);}.cls-67{clip-path:url(#clip-path-36);}.cls-68{fill:url(#Naamloos_verloop_21);}.cls-69{clip-path:url(#clip-path-38);}.cls-70{clip-path:url(#clip-path-39);}.cls-71{clip-path:url(#clip-path-40);}.cls-72{fill:url(#Naamloos_verloop_22);}.cls-73{clip-path:url(#clip-path-41);}.cls-74{fill:url(#Naamloos_verloop_23);}.cls-75{clip-path:url(#clip-path-42);}.cls-76{fill:url(#Naamloos_verloop_24);}.cls-77{clip-path:url(#clip-path-43);}.cls-78{fill:url(#Naamloos_verloop_25);}.cls-79{clip-path:url(#clip-path-44);}.cls-80{fill:url(#Naamloos_verloop_26);}.cls-81{clip-path:url(#clip-path-45);}.cls-82{fill:url(#Naamloos_verloop_27);}.cls-83{clip-path:url(#clip-path-46);}.cls-84{fill:url(#Naamloos_verloop_28);}.cls-85{clip-path:url(#clip-path-47);}.cls-86{fill:url(#Naamloos_verloop_29);}.cls-87{clip-path:url(#clip-path-48);}.cls-88{fill:url(#Naamloos_verloop_30);}.cls-89{clip-path:url(#clip-path-49);}.cls-90{fill:url(#Naamloos_verloop_31);}.cls-91{clip-path:url(#clip-path-50);}.cls-92{fill:url(#Naamloos_verloop_32);}.cls-93{clip-path:url(#clip-path-51);}.cls-94{fill:url(#Naamloos_verloop_33);}.cls-95{clip-path:url(#clip-path-52);}.cls-96{fill:url(#Naamloos_verloop_34);}.cls-97{clip-path:url(#clip-path-53);}.cls-98{fill:url(#Naamloos_verloop_35);}.cls-99{clip-path:url(#clip-path-54);}.cls-100{fill:url(#Naamloos_verloop_36);}.cls-101{clip-path:url(#clip-path-55);}.cls-102{fill:url(#Naamloos_verloop_37);}.cls-103{clip-path:url(#clip-path-56);}.cls-104{fill:url(#Naamloos_verloop_38);}</style><clipPath id="clip-path" transform="translate(3.81)"><rect class="cls-1" width="1283.2" height="813"/></clipPath><clipPath id="clip-path-2" transform="translate(3.81)"><path class="cls-1" d="M134.85,396.19q-7.48.08-15,.74c-2.84.23-5.68.53-8.5.9A211.23,211.23,0,0,0,84.6,403a206.65,206.65,0,0,0-29.05,9.84,189.2,189.2,0,0,0-36.14,20.07l-.85.62A210.49,210.49,0,0,0,0,448.51V813H1283.2V465.91q-8.19-6.37-16.78-12.2a217.3,217.3,0,0,0-32.22-18.16q-4.83-2.17-9.84-4.06-3.39-1.28-6.86-2.4c-2.28-.74-4.59-1.43-6.91-2.07a154.33,154.33,0,0,0-24-4.65c-22.78-2.54-45.86.34-65.66,10.77-12.11,6.38-22.63,15.3-32.89,24.48-10.59,9.47-20.88,19.22-32.32,26.74a93.53,93.53,0,0,1-11.42,6.46l-1.46.67c-.65.3-1.3.58-2,.85-1.54.65-3.12,1.25-4.72,1.79a68.78,68.78,0,0,1-9.11,2.4c-.37.08-.75.14-1.12.21-14.07,2.46-27.52.35-40.28-4.61a103.34,103.34,0,0,1-9.87-4.45,157.44,157.44,0,0,1-25-16.27l-1.95-1.54c-9.71-7.76-18.85-16.32-27.34-24.58-6.62-6.44-13.8-13-21.43-19a187.35,187.35,0,0,0-16.32-11.76C862.59,401,839,393,815.16,399.93c-27.28,7.91-43.95,33-54.28,57.53s-17.35,51.06-35.8,71.13c-5.27,5.73-12.25,11.06-20,12.47a21.54,21.54,0,0,1-6.47.22c-13.14-1.57-20.36-14.5-30.76-22a42.85,42.85,0,0,0-5.84-3.55A41.06,41.06,0,0,0,650.93,512c-9.62-1.72-19.9-.2-30.1,3.32-2.17.74-4.32,1.58-6.47,2.5-15.15,6.44-29.85,16.78-41.78,26.92l-4.34,3.7-28,23.78-44.5,37.87-2,1.69c-.54.44-1.07.9-1.61,1.35-4.57,3.8-9.35,7.61-14.29,11.21a159.22,159.22,0,0,1-18.81,12c-15.67,8.34-32.53,12.91-49.78,8.65-19.37-4.78-33.49-19.75-45.53-34.49q-1.79-2.19-3.55-4.4c-.85-1.06-1.69-2.12-2.53-3.19a540.47,540.47,0,0,1-47-70.28c-.05-.1-.12-.21-.17-.31-18.35-32.82-33.84-68.24-61.37-94.77-2-1.93-4.06-3.8-6.19-5.63-15.46-13.26-33.71-22.64-53.37-28.45q-3.09-.92-6.22-1.71-6.28-1.61-12.7-2.73a190.18,190.18,0,0,0-33.07-2.85l-2.8,0"/></clipPath><linearGradient id="Naamloos_verloop" y1="813" x2="1" y2="813" gradientTransform="matrix(0, 323.57, 323.57, 0, -262416.78, 404.11)" gradientUnits="userSpaceOnUse"><stop offset="0" stop-color="#08783f"/><stop offset="0.21" stop-color="#086a38"/><stop offset="0.55" stop-color="#07572f"/><stop offset="0.79" stop-color="#07512c"/><stop offset="1" stop-color="#07512c"/></linearGradient><clipPath id="clip-path-3" transform="translate(3.81)"><path class="cls-1" d="M1007.76,518s-2.85.16-7.86.67c-4.1.41-9.64,1.05-16.26,2a394.25,394.25,0,0,0-46.31,9.64c-28.69,7.83-61.16,20.5-87.2,40.87A377.35,377.35,0,0,1,809,598.89L768.72,622.6c-29.09,17.11-62.46,31.41-98.84,42.23q-5.93,1.77-12,3.4-6.43,1.77-13,3.35-8.05,2-16.27,3.73c-14.15,3-28.66,5.54-43.43,7.51-24.83,3.32-50.93,5.22-76.27,4.38q-11.56-.39-23.14-.65-12.85-.32-25.73-.48c-25.87-.35-51.76-.37-77.63-.27l-26.16.11L0,687.4V813l1283.2-1.34V518Z"/></clipPath><linearGradient id="Naamloos_verloop_2" y1="813" x2="1" y2="813" gradientTransform="matrix(0, 313.94, 313.94, 0, -254590.71, 509.77)" gradientUnits="userSpaceOnUse"><stop offset="0" stop-color="#0a8949"/><stop offset="0.49" stop-color="#036a3b"/><stop offset="1" stop-color="#036a3b"/></linearGradient><clipPath id="clip-path-4" transform="translate(3.81)"><rect class="cls-1" width="1283.2" height="813"/></clipPath><clipPath id="clip-path-5" transform="translate(3.81)"><rect class="cls-1" x="563.28" y="697" width="185" height="13"/></clipPath><clipPath id="clip-path-6" transform="translate(3.81)"><rect class="cls-1" x="625.28" y="693" width="74" height="13"/></clipPath><clipPath id="clip-path-7" transform="translate(3.81)"><rect class="cls-1" x="660.28" y="695" width="74" height="13"/></clipPath><clipPath id="clip-path-8" transform="translate(3.81)"><path class="cls-1" d="M133,555.06c-7.09.06-14.4.12-21.77.2-45.32.42-93.1.92-111.22,1.11V813H1283.2V571.55H1071.68c-1,0-2,0-3.05.08h0c-12,.58-23.71,4.58-34.89,11.71-19.45,12.39-37.14,34.27-51.25,64-3.72,7.84-7.69,15.26-11.79,22.25-32.13,54.59-73.93,83.28-116.78,83.28H517.32a205.26,205.26,0,0,1-29-2.05,212.11,212.11,0,0,1-30-6.49c-35.29-10.29-69.68-29.86-102-58.45-23.86-21.09-46.61-47.09-67.8-77.89-36.09-52.48-64.53-52.92-79.87-53.44-.7,0-2.37,0-4.87,0-11.17,0-38.92.22-70.79.51"/></clipPath><linearGradient id="Naamloos_verloop_3" y1="813" x2="1" y2="813" gradientTransform="matrix(0, 288.25, 288.25, 0, -233705.24, 513.42)" gradientUnits="userSpaceOnUse"><stop offset="0" stop-color="#c4d143"/><stop offset="0.06" stop-color="#c4d143"/><stop offset="0.79" stop-color="#8ea83c"/><stop offset="1" stop-color="#8ea83c"/></linearGradient><clipPath id="clip-path-9" transform="translate(3.81)"><path class="cls-1" d="M655.2,466.81,647.76,682a2.33,2.33,0,0,0,2.26,2.46h13.11a2.33,2.33,0,0,0,2.26-2.45L659.6,466.81Z"/></clipPath><linearGradient id="Naamloos_verloop_4" y1="812.97" x2="1" y2="812.97" gradientTransform="matrix(-117.63, 0, 0, 117.63, 630.78, -95054.72)" gradientUnits="userSpaceOnUse"><stop offset="0" stop-color="#daae82"/><stop offset="0.21" stop-color="#daae82"/><stop offset="0.45" stop-color="#c9976c"/><stop offset="1" stop-color="#c9976c"/></linearGradient><clipPath id="clip-path-10" transform="translate(3.81)"><path class="cls-1" d="M656.09,451.55l-28.18,81.7-29.19,84.64a2.34,2.34,0,0,0,2.1,3.16h113a3.62,3.62,0,0,0,3.25-4.89l-28.6-82.91-28.18-81.7a2.2,2.2,0,0,0-4.21,0"/></clipPath><linearGradient id="Naamloos_verloop_5" y1="813" x2="1" y2="813" gradientTransform="matrix(118.69, 0, 0, -118.69, 602.4, 97033.78)" gradientUnits="userSpaceOnUse"><stop offset="0" stop-color="#0b8b44"/><stop offset="0.11" stop-color="#0b8b44"/><stop offset="0.68" stop-color="#036a3b"/><stop offset="1" stop-color="#036a3b"/></linearGradient><clipPath id="clip-path-11" transform="translate(3.81)"><path class="cls-1" d="M1155.68,290.66l-8.75,231.16a2.6,2.6,0,0,0,2.66,2.65H1165a2.6,2.6,0,0,0,2.66-2.63l-6.82-231.18Z"/></clipPath><linearGradient id="Naamloos_verloop_6" y1="812.98" x2="1" y2="812.98" gradientTransform="matrix(-183.21, 0, 0, 183.21, 1114.72, -148537)" gradientUnits="userSpaceOnUse"><stop offset="0" stop-color="#daae82"/><stop offset="0.17" stop-color="#daae82"/><stop offset="0.76" stop-color="#c9976c"/><stop offset="1" stop-color="#c9976c"/></linearGradient><clipPath id="clip-path-12" transform="translate(3.81)"><path class="cls-1" d="M1155,225.67l-33.19,87.76-34.38,90.92a2.55,2.55,0,0,0,2.48,3.4H1223a3.94,3.94,0,0,0,3.83-5.25l-33.68-89.07L1160,225.67a2.68,2.68,0,0,0-5,0"/></clipPath><linearGradient id="Naamloos_verloop_7" y1="813.13" x2="1" y2="813.13" gradientTransform="matrix(0, 158.08, 158.08, 0, -127381.48, 263.26)" gradientUnits="userSpaceOnUse"><stop offset="0" stop-color="#0b8b44"/><stop offset="0.48" stop-color="#05743e"/><stop offset="0.81" stop-color="#036a3b"/><stop offset="1" stop-color="#036a3b"/></linearGradient><clipPath id="clip-path-13" transform="translate(3.81)"><path class="cls-1" d="M890,482.27c0,35,29.11,63.43,65,63.43s65-28.4,65-63.43-29.11-63.43-65-63.43-65,28.4-65,63.43"/></clipPath><linearGradient id="Naamloos_verloop_8" y1="813" x2="1" y2="813" gradientTransform="matrix(0, 124.66, 124.66, 0, -100397.49, 410.93)" gradientUnits="userSpaceOnUse"><stop offset="0" stop-color="#e1b634"/><stop offset="0.27" stop-color="#c1b137"/><stop offset="0.56" stop-color="#a5ac3a"/><stop offset="0.81" stop-color="#94a93b"/><stop offset="1" stop-color="#8ea83c"/></linearGradient><clipPath id="clip-path-14" transform="translate(3.81)"><path class="cls-1" d="M848.72,412.49c0,35,23.43,63.43,52.33,63.43s52.33-28.4,52.33-63.43S930,349.06,901.06,349.06s-52.33,28.4-52.33,63.43"/></clipPath><linearGradient id="Naamloos_verloop_9" y1="813" x2="1" y2="813" gradientTransform="matrix(0, 115.67, 115.67, 0, -93139.88, 342.2)" gradientUnits="userSpaceOnUse"><stop offset="0" stop-color="#c3cd2f"/><stop offset="0.31" stop-color="#c3cd2f"/><stop offset="0.74" stop-color="#959637"/><stop offset="1" stop-color="#959637"/></linearGradient><clipPath id="clip-path-15" transform="translate(3.81)"><path class="cls-1" d="M1010.35,351.19l-6.91,190.52a56.4,56.4,0,0,1-41.14-41.9l-2.09-8.31a3.87,3.87,0,0,0-3.71-2.89h-1.71a3.83,3.83,0,0,0-3.84,3.84V504.6a3,3,0,0,0,0,.51c3.27,31.46,34.76,43.1,52.08,47.13L998,692.4a3.81,3.81,0,0,0,3.81,4h22.11a3.81,3.81,0,0,0,3.81-3.93l-3.33-117.8c22.9-3.3,34.64-28.48,38.16-37.65a3,3,0,0,0-2.22-4.06l-2.12-.41a3,3,0,0,0-3.46,2c-7.17,19.22-21,26.42-30.67,29.12l-6-212.41a3.82,3.82,0,0,0-7.64,0"/></clipPath><linearGradient id="Naamloos_verloop_10" y1="813.01" x2="1" y2="813.01" gradientTransform="matrix(-141.16, 0, 0, 141.16, 1032.31, -114245.21)" gradientUnits="userSpaceOnUse"><stop offset="0" stop-color="#daae82"/><stop offset="0.42" stop-color="#ce9e73"/><stop offset="0.76" stop-color="#c9976c"/><stop offset="1" stop-color="#c9976c"/></linearGradient><clipPath id="clip-path-16" transform="translate(3.81)"><path class="cls-1" d="M1004.14,475.93c0,35,22,63.44,49.16,63.44s49.16-28.4,49.16-63.44-22-63.43-49.16-63.43-49.16,28.4-49.16,63.43"/></clipPath><linearGradient id="Naamloos_verloop_11" y1="813" x2="1" y2="813" gradientTransform="matrix(0, 121.16, 121.16, 0, -97449.57, 429.46)" gradientUnits="userSpaceOnUse"><stop offset="0" stop-color="#b9d232"/><stop offset="0.68" stop-color="#9aba3c"/><stop offset="1" stop-color="#9aba3c"/></linearGradient><clipPath id="clip-path-17" transform="translate(3.81)"><path class="cls-1" d="M986.19,311a72.94,72.94,0,1,0-3,128.49c16.08,22.14,42.53,33.27,74.85,33.27,54.3,0,104.67-31.37,104.67-93.57s-44-112.6-98.32-112.6c-31.91,0-60.29,17.41-78.21,44.4"/></clipPath><linearGradient id="Naamloos_verloop_12" y1="812.99" y2="812.99" gradientTransform="matrix(0, 204.05, 204.05, 0, -164867.45, 241.82)" xlink:href="#Naamloos_verloop_3"/><clipPath id="clip-path-18" transform="translate(3.81)"><path class="cls-1" d="M920.84,426.28A49.16,49.16,0,1,0,955,412.49a49.16,49.16,0,0,0-34.13,13.79"/></clipPath><linearGradient id="Naamloos_verloop_13" y1="812.99" x2="1" y2="812.99" gradientTransform="matrix(0, 112.46, 112.46, 0, -90472.87, 394.51)" gradientUnits="userSpaceOnUse"><stop offset="0" stop-color="#c3cd2f"/><stop offset="0.26" stop-color="#c3cd2f"/><stop offset="0.98" stop-color="#959637"/><stop offset="1" stop-color="#959637"/></linearGradient><clipPath id="clip-path-20" transform="translate(3.81)"><path class="cls-1" d="M441.07,435.64,435,648c-9.71-2.7-23.5-9.9-30.67-29.12a3,3,0,0,0-3.46-2l-2.12.41a3,3,0,0,0-2.22,4.06c3.52,9.17,15.26,34.35,38.16,37.65l-3.33,117.8a3.81,3.81,0,0,0,3.81,3.93h22.11a3.81,3.81,0,0,0,3.81-4L456,636.69c17.32-4,48.81-15.67,52.08-47.13a2.89,2.89,0,0,0,0-.51V576.91a3.83,3.83,0,0,0-3.84-3.84h-1.71a3.87,3.87,0,0,0-3.71,2.89l-2.09,8.31a56.41,56.41,0,0,1-41.14,41.9l-6.91-190.53a3.82,3.82,0,0,0-7.64,0"/></clipPath><linearGradient id="Naamloos_verloop_14" y1="813.01" y2="813.01" gradientTransform="translate(115219.15 581.14) rotate(90) scale(141.16)" xlink:href="#Naamloos_verloop_10"/><clipPath id="clip-path-21" transform="translate(3.81)"><path class="cls-1" d="M458.54,337.55c-34.73,4.64-59,37.25-54.27,72.84s36.75,60.69,71.48,56.06,59-37.25,54.27-72.84c-4.37-32.75-31.8-56.61-63.21-56.61a62.47,62.47,0,0,0-8.27.55"/></clipPath><linearGradient id="Naamloos_verloop_15" y1="813.01" y2="813.01" gradientTransform="matrix(-124.66, 0, 0, 124.66, 539.77, -100950.01)" xlink:href="#Naamloos_verloop_8"/><clipPath id="clip-path-22" transform="translate(3.81)"><path class="cls-1" d="M509.06,422.84c-28.56,3.81-50.57,22.73-55.36,45.26a40,40,0,0,0-.71,4.29,43.68,43.68,0,0,0,1.51,17.29c4.44,15.08,16.77,26.94,32.88,33a72.23,72.23,0,0,0,29.16,4.44q3.14-.16,6.32-.58h0C539.55,524.36,554,517,564,506.8c11-11.1,16.8-25.56,14.8-40.48a44.51,44.51,0,0,0-8-20.1c-10.54-14.72-29.84-24.06-51.55-24.06a77,77,0,0,0-10.2.68"/></clipPath><linearGradient id="Naamloos_verloop_16" y1="813.01" y2="813.01" gradientTransform="matrix(-115.67, 0, 0, 115.67, 586.71, -93562.3)" xlink:href="#Naamloos_verloop_9"/><clipPath id="clip-path-23" transform="translate(3.81)"><path class="cls-1" d="M397.74,528.28c-34.73,4.63-60,30.21-56.37,57.12s34.65,45,69.38,40.34,60-30.21,56.37-57.12c-3.21-24.07-28.4-41.06-58.54-41.06a82,82,0,0,0-10.84.73"/></clipPath><linearGradient id="Naamloos_verloop_17" y1="813.01" y2="813.01" gradientTransform="matrix(-121.16, 0, 0, 121.16, 452.03, -97925.35)" xlink:href="#Naamloos_verloop_11"/><clipPath id="clip-path-24" transform="translate(3.81)"><path class="cls-1" d="M474.86,516.11a49.16,49.16,0,1,0,38.55-18.61,49.16,49.16,0,0,0-38.55,18.61"/></clipPath><linearGradient id="Naamloos_verloop_18" y1="813.02" y2="813.02" gradientTransform="matrix(-112.46, 0, 0, 112.46, 583.15, -90881.81)" xlink:href="#Naamloos_verloop_13"/><clipPath id="clip-path-26" transform="translate(3.81)"><path class="cls-1" d="M628.74,686.27A20.15,20.15,0,0,0,635,701h55.14a20.17,20.17,0,0,0,1.12-6.7c0-11.09-8.69-20.09-19.41-20.09a18.23,18.23,0,0,0-7.25,1.47,19.21,19.21,0,0,0-16.48-9.51c-10.72,0-19.41,9-19.41,20.09"/></clipPath><linearGradient id="Naamloos_verloop_19" y1="813.1" x2="1" y2="813.1" gradientTransform="matrix(0, 52.7, 52.7, 0, -42191.52, 655.24)" gradientUnits="userSpaceOnUse"><stop offset="0" stop-color="#8ea83c"/><stop offset="0.16" stop-color="#8ea83c"/><stop offset="1" stop-color="#758838"/><stop offset="1" stop-color="#758838"/></linearGradient><clipPath id="clip-path-27" transform="translate(3.81)"><path class="cls-1" d="M701.85,673.93l-1.09,1.18a1.31,1.31,0,0,0,.06,1.85l4.33,4-37.71,2.64a9.85,9.85,0,0,0,1.38,19.64l51.44-3.61A9.85,9.85,0,1,0,718.88,680l-8,.56-7.21-6.71a1.31,1.31,0,0,0-1.85.06"/></clipPath><linearGradient id="Naamloos_verloop_20" y1="813.05" x2="1" y2="813.05" gradientTransform="matrix(0, 26.66, 26.66, 0, -20979.69, 676.92)" gradientUnits="userSpaceOnUse"><stop offset="0" stop-color="#c9976c"/><stop offset="0.55" stop-color="#a57b5a"/><stop offset="0.92" stop-color="#87634a"/><stop offset="1" stop-color="#87634a"/></linearGradient><clipPath id="clip-path-29" transform="translate(3.81)"><rect class="cls-1" x="658.27" y="683.61" width="19.46" height="19.46"/></clipPath><clipPath id="clip-path-30" transform="translate(3.81)"><rect class="cls-1" x="683.84" y="684.98" width="8.89" height="2.37"/></clipPath><clipPath id="clip-path-31" transform="translate(3.81)"><rect class="cls-1" x="678.15" y="697.14" width="15.44" height="2.83"/></clipPath><clipPath id="clip-path-32" transform="translate(3.81)"><rect class="cls-1" x="696.43" y="689.88" width="13.57" height="2.69"/></clipPath><clipPath id="clip-path-33" transform="translate(3.81)"><rect class="cls-1" x="704.77" y="694.93" width="13.57" height="2.69"/></clipPath><clipPath id="clip-path-34" transform="translate(3.81)"><rect class="cls-1" x="706.7" y="682.11" width="13.57" height="2.69"/></clipPath><clipPath id="clip-path-35" transform="translate(3.81)"><rect class="cls-1" x="955.28" y="693" width="216" height="22"/></clipPath><clipPath id="clip-path-36" transform="translate(3.81)"><path class="cls-1" d="M980.49,678.77c0,12.38,6.36,23.56,16.52,31.23h145.2a35.29,35.29,0,0,0,3-14.2c0-23.51-22.89-42.59-51.11-42.59a58.18,58.18,0,0,0-19.08,3.12c-9-12.1-25-20.16-43.39-20.16-28.22,0-51.11,19.08-51.11,42.59"/></clipPath><linearGradient id="Naamloos_verloop_21" y1="813.09" y2="813.09" gradientTransform="matrix(0, 132.04, 132.04, 0, -106297.9, 601.19)" xlink:href="#Naamloos_verloop_19"/><clipPath id="clip-path-38" transform="translate(3.81)"><rect class="cls-1" x="336.28" y="776" width="185" height="13"/></clipPath><clipPath id="clip-path-39" transform="translate(3.81)"><rect class="cls-1" x="59.28" y="637" width="185" height="13"/></clipPath><clipPath id="clip-path-40" transform="translate(3.81)"><path class="cls-1" d="M328,781H507.73c-11.25-8.79-26.29-14.06-42.81-14.06a72,72,0,0,0-23.62,3.87c-11.11-15-31-25-53.71-25-27.56,0-51,14.69-59.61,35.15"/></clipPath><linearGradient id="Naamloos_verloop_22" y1="813.12" x2="1" y2="813.12" gradientTransform="matrix(0, 118.43, 118.43, 0, -95883.3, 705.98)" gradientUnits="userSpaceOnUse"><stop offset="0" stop-color="#8ea83c"/><stop offset="0.16" stop-color="#8ea83c"/><stop offset="1" stop-color="#6f8035"/><stop offset="1" stop-color="#6f8035"/></linearGradient><clipPath id="clip-path-41" transform="translate(3.81)"><path class="cls-1" d="M125,258.64c0,27.11,17.58,49.09,39.27,49.09s39.27-22,39.27-49.09S186,209.55,164.27,209.55,125,231.53,125,258.64"/></clipPath><linearGradient id="Naamloos_verloop_23" y1="813" x2="1" y2="813" gradientTransform="matrix(0, 96.87, -96.87, 0, 78919.46, 209.42)" gradientUnits="userSpaceOnUse"><stop offset="0" stop-color="#c4d143"/><stop offset="0.11" stop-color="#c4d143"/><stop offset="0.59" stop-color="#97af3d"/><stop offset="0.68" stop-color="#8ea83c"/><stop offset="1" stop-color="#8ea83c"/></linearGradient><clipPath id="clip-path-42" transform="translate(3.81)"><path class="cls-1" d="M164.27,317.55c0,27.11,17.58,49.09,39.27,49.09s39.27-22,39.27-49.09-17.58-49.09-39.27-49.09-39.27,22-39.27,49.09"/></clipPath><linearGradient id="Naamloos_verloop_24" y1="813" x2="1" y2="813" gradientTransform="translate(-109424.82 382.24) rotate(-90) scale(134.84)" gradientUnits="userSpaceOnUse"><stop offset="0" stop-color="#9a9e37"/><stop offset="0.24" stop-color="#9a9e37"/><stop offset="0.76" stop-color="#babb33"/><stop offset="1" stop-color="#babb33"/></linearGradient><clipPath id="clip-path-43" transform="translate(3.81)"><path class="cls-1" d="M66.09,304.1c0,32.54,17.58,58.91,39.27,58.91s39.27-26.37,39.27-58.91-17.58-58.91-39.27-58.91S66.09,271.56,66.09,304.1"/></clipPath><linearGradient id="Naamloos_verloop_25" y1="813" x2="1" y2="813" gradientTransform="translate(83110.07 242.39) rotate(90) scale(102.1)" gradientUnits="userSpaceOnUse"><stop offset="0" stop-color="#c3cd2f"/><stop offset="0.24" stop-color="#c3cd2f"/><stop offset="0.76" stop-color="#a7ae37"/><stop offset="1" stop-color="#a7ae37"/></linearGradient><clipPath id="clip-path-44" transform="translate(3.81)"><path class="cls-1" d="M154.21,328.37l-4.86,141.21a3.83,3.83,0,0,1-6.13,2.93,293.65,293.65,0,0,1-23.13-20v9c.32,5.45,15,15,25.55,21.17a6.21,6.21,0,0,1,3.07,5.57L143.56,638a3.34,3.34,0,0,0,3.24,3.55h18.79a3.33,3.33,0,0,0,3.23-3.52l-4-149.54a7,7,0,0,1,3.49-6.26c10.49-6.13,38.86-24.85,53.79-55.59l6.5-18.59-5.41-2.14s-17,34.93-53.76,56.11a3.53,3.53,0,0,1-5.31-2.94l-3.59-130.7Z"/></clipPath><linearGradient id="Naamloos_verloop_26" y1="813" x2="1" y2="813" gradientTransform="translate(116756.72 398.4) rotate(90) scale(143.39)" gradientUnits="userSpaceOnUse"><stop offset="0" stop-color="#daae82"/><stop offset="0.35" stop-color="#daae82"/><stop offset="0.49" stop-color="#d9ac80"/><stop offset="0.54" stop-color="#d3a579"/><stop offset="0.58" stop-color="#cb996e"/><stop offset="0.59" stop-color="#c9976c"/><stop offset="1" stop-color="#c9976c"/></linearGradient><clipPath id="clip-path-45" transform="translate(3.81)"><path class="cls-1" d="M203.55,376.46c0,27.11,17.58,49.09,39.27,49.09s39.27-22,39.27-49.09-17.58-49.09-39.27-49.09-39.27,22-39.27,49.09"/></clipPath><linearGradient id="Naamloos_verloop_27" y1="813" x2="1" y2="813" gradientTransform="translate(128352.39 284.71) rotate(90) scale(157.58)" gradientUnits="userSpaceOnUse"><stop offset="0" stop-color="#c9db46"/><stop offset="0.31" stop-color="#c9db46"/><stop offset="0.44" stop-color="#c4d745"/><stop offset="0.59" stop-color="#b5ca43"/><stop offset="0.75" stop-color="#9cb43e"/><stop offset="0.83" stop-color="#8ea83c"/><stop offset="1" stop-color="#8ea83c"/></linearGradient><clipPath id="clip-path-46" transform="translate(3.81)"><path class="cls-1" d="M101.73,357.87c0,47.12,26.37,85.32,58.91,85.32s58.91-38.2,58.91-85.32-26.37-85.32-58.91-85.32-58.91,38.2-58.91,85.32"/></clipPath><linearGradient id="Naamloos_verloop_28" y1="813" x2="1" y2="813" gradientTransform="translate(108961.32 284.34) rotate(90) scale(133.83)" xlink:href="#Naamloos_verloop_23"/><clipPath id="clip-path-47" transform="translate(3.81)"><path class="cls-1" d="M57.09,362.55a36,36,0,1,0,36-36,36,36,0,0,0-36,36"/></clipPath><linearGradient id="Naamloos_verloop_29" y1="813" x2="1" y2="813" gradientTransform="translate(72856.32 313.19) rotate(90) scale(89.5)" gradientUnits="userSpaceOnUse"><stop offset="0" stop-color="#b4c63c"/><stop offset="0.11" stop-color="#b4c63c"/><stop offset="0.29" stop-color="#aec13c"/><stop offset="0.54" stop-color="#9db43c"/><stop offset="0.69" stop-color="#8ea83c"/><stop offset="1" stop-color="#8ea83c"/></linearGradient><clipPath id="clip-path-48" transform="translate(3.81)"><path class="cls-1" d="M66.09,430.05c0,22.37,16.12,40.5,36,40.5s36-18.13,36-40.5-16.12-40.5-36-40.5-36,18.13-36,40.5"/></clipPath><linearGradient id="Naamloos_verloop_30" y1="813" x2="1" y2="813" gradientTransform="translate(89078.3 371.38) rotate(90) scale(109.44)" gradientUnits="userSpaceOnUse"><stop offset="0" stop-color="#e2b634"/><stop offset="0.36" stop-color="#cbc038"/><stop offset="0.72" stop-color="#bac73a"/><stop offset="1" stop-color="#b4c93b"/></linearGradient><clipPath id="clip-path-49" transform="translate(3.81)"><path class="cls-1" d="M817.72,756.89c-6,.31-4.94,6-10.29,7.3-.21.05-1.36.1-1.6.14,6.23,3.85,11.32,9.52,19.24,11.43,1.51.36,3.53.45,4.37-.48.55-.6.34-1.38.26-2.09-.44-4.1,5.32-8,11.32-7.61a7.74,7.74,0,0,0,3.34-.16,2.53,2.53,0,0,0,1.37-2.57c.05-1.69-.14-3.72-2.28-4.58-3.65-1.46-7.46,2.06-11.67,2.39-2.59.2-4.85-.84-7.12-1.88a15.63,15.63,0,0,0-6.51-1.91h-.43"/></clipPath><linearGradient id="Naamloos_verloop_31" y1="813" x2="1" y2="813" gradientTransform="matrix(39.91, 0, 0, -39.91, 809.64, 33215.73)" gradientUnits="userSpaceOnUse"><stop offset="0" stop-color="#ffe194"/><stop offset="0.3" stop-color="#fdd254"/><stop offset="0.56" stop-color="#fcc51a"/><stop offset="1" stop-color="#fcc51a"/></linearGradient><clipPath id="clip-path-50" transform="translate(3.81)"><path class="cls-1" d="M1157.27,517.7c-3,.15-2.47,3-5.15,3.65-.11,0-.68,0-.8.07,3.12,1.92,5.66,4.76,9.62,5.72.75.18,1.76.23,2.19-.24.27-.3.17-.69.13-1-.22-2,2.66-4,5.66-3.8a3.88,3.88,0,0,0,1.67-.08,1.26,1.26,0,0,0,.68-1.28,2.08,2.08,0,0,0-1.14-2.29c-1.83-.73-3.73,1-5.84,1.19a7.17,7.17,0,0,1-3.56-.94,7.84,7.84,0,0,0-3.26-1h-.21"/></clipPath><linearGradient id="Naamloos_verloop_32" x1="0" y1="813" x2="1" y2="813" gradientTransform="matrix(19.96, 0, 0, -19.96, 1155.13, 16747.12)" xlink:href="#Naamloos_verloop_31"/><clipPath id="clip-path-51" transform="translate(3.81)"><path class="cls-1" d="M166.27,633.94c-6,.31-4.94,6-10.29,7.3-.21.05-1.36.1-1.6.14,6.23,3.85,11.32,9.52,19.24,11.43,1.51.36,3.53.45,4.37-.48.55-.6.34-1.38.26-2.09-.44-4.1,5.32-8,11.32-7.61a7.75,7.75,0,0,0,3.34-.16,2.53,2.53,0,0,0,1.37-2.57c.05-1.7-.14-3.72-2.29-4.58-3.65-1.46-7.46,2.06-11.67,2.39-2.59.2-4.85-.84-7.12-1.88a15.64,15.64,0,0,0-6.51-1.91h-.43"/></clipPath><linearGradient id="Naamloos_verloop_33" x1="0" y1="813" x2="1" y2="813" gradientTransform="matrix(39.91, 0, 0, -39.91, 158.2, 33092.78)" xlink:href="#Naamloos_verloop_31"/><clipPath id="clip-path-52" transform="translate(3.81)"><path class="cls-1" d="M1164.79,698.9c-2.87.29-5.68,1-7.13,2.07a3.17,3.17,0,0,0-1.25,3.12c.25,2.73,1.81,5.45,4.55,7.92l1.44.73c3.2,1.41,9.09-.46,13.48-1a32.87,32.87,0,0,0,6.65-1.34c3-1.11,4-3,3.54-4.67-1-3.78-9.31-7-18-7-1.1,0-2.21.05-3.31.16"/></clipPath><linearGradient id="Naamloos_verloop_34" y1="812.98" x2="1" y2="812.98" gradientTransform="matrix(29.79, 0, 0, -29.79, 1160.2, 24923.28)" gradientUnits="userSpaceOnUse"><stop offset="0" stop-color="#4084c5"/><stop offset="0.2" stop-color="#4084c5"/><stop offset="0.56" stop-color="#3255a3"/><stop offset="1" stop-color="#3255a3"/></linearGradient><clipPath id="clip-path-53" transform="translate(3.81)"><path class="cls-1" d="M486.35,775.4c-2.87.29-5.68,1-7.13,2.07a3.17,3.17,0,0,0-1.25,3.12c.25,2.73,1.81,5.45,4.55,7.92l1.44.73c3.2,1.41,9.09-.46,13.48-1a32.86,32.86,0,0,0,6.65-1.34c3-1.11,4-3,3.54-4.67-1-3.78-9.31-7-18-7-1.1,0-2.21.05-3.31.16"/></clipPath><linearGradient id="Naamloos_verloop_35" y1="812.98" y2="812.98" gradientTransform="matrix(29.79, 0, 0, -29.79, 481.75, 24999.78)" xlink:href="#Naamloos_verloop_34"/><clipPath id="clip-path-54" transform="translate(3.81)"><path class="cls-1" d="M498.59,493.45c-.44,1.69.53,3.56,3.54,4.67a32.92,32.92,0,0,0,6.65,1.34c4.39.58,10.28,2.45,13.48,1l1.44-.73c2.74-2.47,4.3-5.19,4.55-7.92a3.17,3.17,0,0,0-1.25-3.12c-1.45-1.11-4.26-1.78-7.13-2.07-1.1-.11-2.21-.16-3.31-.16-8.65,0-17,3.17-18,7"/></clipPath><linearGradient id="Naamloos_verloop_36" y1="812.98" y2="812.98" gradientTransform="translate(532.09 24711.04) rotate(180) scale(29.79)" xlink:href="#Naamloos_verloop_34"/><clipPath id="clip-path-55" transform="translate(3.81)"><path class="cls-1" d="M548.39,705.22c-1.47.9-.64,2.07,1.48,2.84a31.41,31.41,0,0,0,8.47,1.31,23.7,23.7,0,0,1,3.58.3c3.55.77.74,3,4.54,3.65,2.42.4,5.18-.26,7.85-.45,1.65-.12,3.4,0,5-.2s5.23-5,3.81-7.48a1.19,1.19,0,0,0-.76-.58,6.6,6.6,0,0,0-1.53-.2,37.56,37.56,0,0,0-9.62,1.2c-3,.61-6.92,1.1-9.85.48-2-.42-2.84-1.24-4.84-1.66a13.3,13.3,0,0,0-2.68-.25,12.31,12.31,0,0,0-5.47,1"/></clipPath><linearGradient id="Naamloos_verloop_37" y1="813" x2="1" y2="813" gradientTransform="translate(587.27 29821.08) rotate(180) scale(35.81)" gradientUnits="userSpaceOnUse"><stop offset="0" stop-color="#de6b80"/><stop offset="1" stop-color="#b5467e"/></linearGradient><clipPath id="clip-path-56" transform="translate(3.81)"><path class="cls-1" d="M809.92,677.72c-.44,0-.88,0-1.29,0-2.68.22-3.18,1.17-2.57,1.88,1.19,1.37,4.91,2.61,10,3.12s11.25.21,14.93-.82,4.27-2.77,1-3.89c-1.74-.59-6.84-.88-11.86-.88a76.78,76.78,0,0,0-10.15.53"/></clipPath><linearGradient id="Naamloos_verloop_38" y1="813" x2="1" y2="813" gradientTransform="matrix(28.25, 0, 0, -28.25, 809.64, 23648.28)" gradientUnits="userSpaceOnUse"><stop offset="0" stop-color="#e57a96"/><stop offset="0.56" stop-color="#e94b6e"/><stop offset="1" stop-color="#e94b6e"/></linearGradient></defs><title>background_image_scene4</title><g class="cls-2"><rect class="cls-3" x="3.81" width="1283.2" height="813"/><g class="cls-4"><rect class="cls-5" x="3.81" y="393.02" width="1283.2" height="419.98"/></g><g class="cls-6"><rect class="cls-7" x="-1.85" y="509.72" width="1286.9" height="311.57" transform="translate(-4.74 8.35) rotate(-0.74)"/></g><g class="cls-8"><g class="cls-9"><g class="cls-10"><path class="cls-11" d="M748.28,703.5c0,3.59-41.41,6.5-92.5,6.5s-92.5-2.91-92.5-6.5,41.41-6.5,92.5-6.5,92.5,2.91,92.5,6.5" transform="translate(3.81)"/></g></g><g class="cls-9"><g class="cls-12"><path class="cls-11" d="M699.28,699.5c0,3.59-16.57,6.5-37,6.5s-37-2.91-37-6.5,16.56-6.5,37-6.5,37,2.91,37,6.5" transform="translate(3.81)"/></g></g><g class="cls-9"><g class="cls-13"><path class="cls-11" d="M734.28,701.5c0,3.59-16.57,6.5-37,6.5s-37-2.91-37-6.5,16.56-6.5,37-6.5,37,2.91,37,6.5" transform="translate(3.81)"/></g></g></g><g class="cls-14"><rect class="cls-15" x="3.81" y="554.55" width="1283.2" height="258.45"/></g><g class="cls-16"><rect class="cls-17" x="547.51" y="563.2" width="218.12" height="24.88" transform="translate(63.39 1212.86) rotate(-88.11)"/></g><g class="cls-18"><rect class="cls-19" x="602" y="450" width="119.7" height="171.05"/></g><g class="cls-20"><rect class="cls-21" x="1040.12" y="393.28" width="234.37" height="28.57" transform="translate(715.59 1550.79) rotate(-88.11)"/></g><g class="cls-22"><rect class="cls-23" x="1041.53" y="204.53" width="231.57" height="222.68" transform="translate(218.23 1057.56) rotate(-53.46)"/></g><g class="cls-24"><rect class="cls-25" x="866.4" y="394.22" width="177.16" height="176.11" transform="translate(-107.47 569.81) rotate(-31.49)"/></g><g class="cls-26"><rect class="cls-27" x="819.58" y="330.38" width="162.95" height="164.22" transform="translate(-37.22 719.95) rotate(-42.67)"/></g><g class="cls-28"><rect class="cls-29" x="828.46" y="451.12" width="357.2" height="141.6" transform="translate(404.85 1480.72) rotate(-85.1)"/></g><g class="cls-30"><rect class="cls-31" x="976.8" y="395.8" width="153.01" height="160.27" transform="translate(-80 683.1) rotate(-34.64)"/></g><g class="cls-32"><rect class="cls-33" x="847.77" y="194.7" width="344.45" height="349.96" transform="translate(64.94 877.24) rotate(-47.82)"/></g><g class="cls-34"><rect class="cls-35" x="880.83" y="390.64" width="148.29" height="147.1" transform="translate(-88.59 638.66) rotate(-35.38)"/></g><g class="cls-8"><path class="cls-36" d="M461.28,486.5a80.5,80.5,0,1,1-80.5-80.5,80.5,80.5,0,0,1,80.5,80.5" transform="translate(3.81)"/></g><g class="cls-37"><rect class="cls-38" x="381.21" y="427.77" width="141.6" height="357.2" transform="translate(-46.32 40.82) rotate(-4.9)"/></g><g class="cls-39"><rect class="cls-40" x="372.37" y="309.36" width="189.53" height="189.36" transform="translate(-146.38 384.99) rotate(-39.09)"/></g><g class="cls-41"><rect class="cls-42" x="435.16" y="391.88" width="163.13" height="166.08" transform="translate(-174.98 568.82) rotate(-50.27)"/></g><g class="cls-43"><rect class="cls-44" x="320.47" y="496.22" width="167.54" height="165.49" transform="translate(-280.43 422.13) rotate(-42.24)"/></g><g class="cls-45"><rect class="cls-46" x="437.22" y="473.77" width="152.32" height="152.01" transform="translate(-233.2 497.6) rotate(-42.98)"/></g><g class="cls-8"><path class="cls-36" d="M501.28,502.44c0,27.37-26.92,49.56-60.13,49.56S381,529.81,381,502.44s26.92-49.56,60.13-49.56,60.13,22.19,60.13,49.56" transform="translate(3.81)"/></g><g class="cls-47"><rect class="cls-48" x="627.44" y="648.09" width="65.14" height="71" transform="translate(-278.05 809.24) rotate(-53.6)"/></g><g class="cls-49"><rect class="cls-50" x="654.89" y="660.45" width="77.9" height="56.27" transform="translate(-213.12 333.56) rotate(-23.49)"/></g><g class="cls-8"><g class="cls-51"><g class="cls-52"><path class="cls-53" d="M677.7,692.66a9.73,9.73,0,1,1-10.38-9,9.73,9.73,0,0,1,10.38,9" transform="translate(3.81)"/></g></g><path class="cls-54" d="M675.83,692.79a7.85,7.85,0,1,1-8.38-7.28,7.85,7.85,0,0,1,8.38,7.28" transform="translate(3.81)"/><g class="cls-55"><g class="cls-56"><path class="cls-57" d="M691.86,686.85l-7,.49a.94.94,0,1,1-.13-1.87l7-.49a.94.94,0,1,1,.13,1.87" transform="translate(3.81)"/></g></g><g class="cls-58"><g class="cls-59"><path class="cls-57" d="M692.72,699l-13.56,1a.94.94,0,0,1-.13-1.87l13.56-1a.94.94,0,1,1,.13,1.87" transform="translate(3.81)"/></g></g><g class="cls-60"><g class="cls-61"><path class="cls-57" d="M709.13,691.75l-11.69.82a.94.94,0,1,1-.13-1.87l11.69-.82a.94.94,0,1,1,.13,1.87" transform="translate(3.81)"/></g></g><g class="cls-62"><g class="cls-63"><path class="cls-57" d="M717.47,696.81l-11.69.82a.94.94,0,1,1-.13-1.87l11.69-.82a.94.94,0,1,1,.13,1.87" transform="translate(3.81)"/></g></g><g class="cls-64"><g class="cls-65"><path class="cls-57" d="M719.39,684l-11.69.82a.94.94,0,1,1-.13-1.87l11.69-.82a.94.94,0,1,1,.13,1.87" transform="translate(3.81)"/></g></g><g class="cls-9"><g class="cls-66"><path class="cls-11" d="M1171.28,704c0,6.08-48.35,11-108,11s-108-4.92-108-11,48.35-11,108-11,108,4.93,108,11" transform="translate(3.81)"/></g></g></g><g class="cls-67"><rect class="cls-68" x="984.27" y="584.91" width="157.14" height="176.36" transform="translate(-105.79 1129.23) rotate(-53.6)"/></g><g class="cls-8"><g class="cls-9"><g class="cls-69"><path class="cls-11" d="M521.28,782.5c0,3.59-41.41,6.5-92.5,6.5s-92.5-2.91-92.5-6.5,41.41-6.5,92.5-6.5,92.5,2.91,92.5,6.5" transform="translate(3.81)"/></g></g><g class="cls-9"><g class="cls-70"><path class="cls-11" d="M244.28,643.5c0,3.59-41.41,6.5-92.5,6.5s-92.5-2.91-92.5-6.5,41.41-6.5,92.5-6.5,92.5,2.91,92.5,6.5" transform="translate(3.81)"/></g></g></g><g class="cls-71"><rect class="cls-72" x="355.57" y="677.77" width="124.56" height="171.32" transform="translate(-447.37 716.51) rotate(-58.22)"/></g><g class="cls-73"><rect class="cls-74" x="102.35" y="195.85" width="123.86" height="125.59" transform="translate(-126.21 173.39) rotate(-41.42)"/></g><g class="cls-75"><rect class="cls-76" x="143.97" y="255.02" width="119.16" height="125.06" transform="translate(-135.58 160.5) rotate(-32.74)"/></g><g class="cls-77"><rect class="cls-78" x="42.94" y="233.63" width="124.86" height="140.94" transform="translate(-127.25 85.75) rotate(-28.17)"/></g><g class="cls-79"><rect class="cls-80" x="123.91" y="328.37" width="108.5" height="313.18"/></g><g class="cls-81"><rect class="cls-82" x="182.32" y="313.68" width="121" height="125.55" transform="translate(-169.86 211.49) rotate(-35.57)"/></g><g class="cls-83"><rect class="cls-84" x="76.66" y="257.79" width="167.96" height="200.15" transform="translate(-106.3 74.02) rotate(-19.47)"/></g><g class="cls-85"><rect class="cls-86" x="46.16" y="315.61" width="93.87" height="93.87" transform="translate(-126.33 62.09) rotate(-22.21)"/></g><g class="cls-87"><rect class="cls-88" x="56.48" y="381.32" width="91.22" height="97.45" transform="translate(-108.68 43.63) rotate(-15.69)"/></g><g class="cls-89"><rect class="cls-90" x="809.64" y="756.82" width="39.96" height="19.39"/></g><g class="cls-91"><rect class="cls-92" x="1155.13" y="517.67" width="19.98" height="9.7"/></g><g class="cls-93"><rect class="cls-94" x="158.2" y="633.87" width="39.96" height="19.39"/></g><g class="cls-95"><rect class="cls-96" x="1160.12" y="698.74" width="30.2" height="15.41"/></g><g class="cls-97"><rect class="cls-98" x="481.68" y="775.24" width="30.2" height="15.41"/></g><g class="cls-99"><rect class="cls-100" x="501.96" y="486.5" width="30.2" height="15.41"/></g><g class="cls-101"><rect class="cls-102" x="550.73" y="704.18" width="37.63" height="9.54"/></g><g class="cls-103"><rect class="cls-104" x="809.27" y="677.19" width="29.76" height="6.1"/></g></g></svg>