<svg id="Laag_1" data-name="Laag 1" xmlns="http://www.w3.org/2000/svg" xmlns:xlink="http://www.w3.org/1999/xlink" viewBox="0 0 1291.27 885.65"><defs><style>.cls-1{fill:none;}.cls-2{clip-path:url(#clip-path);}.cls-3{fill:#bae1f7;}.cls-4{clip-path:url(#clip-path-2);}.cls-5{fill:url(#Naamloos_verloop);}.cls-6{fill:#036a3b;}.cls-7{clip-path:url(#clip-path-4);}.cls-8{fill:url(#Naamloos_verloop_2);}.cls-9{clip-path:url(#clip-path-5);}.cls-10{fill:url(#Naamloos_verloop_3);}.cls-11{clip-path:url(#clip-path-6);}.cls-12{fill:url(#Naamloos_verloop_4);}.cls-13{fill:#c5ce2e;}.cls-14{clip-path:url(#clip-path-8);}.cls-15{fill:url(#Naamloos_verloop_5);}.cls-16{clip-path:url(#clip-path-9);}.cls-17{fill:url(#Naamloos_verloop_6);}.cls-18{clip-path:url(#clip-path-10);}.cls-19{fill:url(#Naamloos_verloop_7);}.cls-20{clip-path:url(#clip-path-11);}.cls-21{fill:url(#Naamloos_verloop_8);}.cls-22{clip-path:url(#clip-path-12);}.cls-23{fill:url(#Naamloos_verloop_9);}.cls-24{clip-path:url(#clip-path-13);}.cls-25{fill:url(#Naamloos_verloop_10);}.cls-26{clip-path:url(#clip-path-14);}.cls-27{fill:url(#Naamloos_verloop_11);}.cls-28{clip-path:url(#clip-path-15);}.cls-29{fill:url(#Naamloos_verloop_12);}.cls-30{clip-path:url(#clip-path-16);}.cls-31{fill:url(#Naamloos_verloop_13);}.cls-32{fill:#8ea83c;}.cls-33{clip-path:url(#clip-path-18);}.cls-34{fill:url(#Naamloos_verloop_14);}.cls-35{opacity:0.06;}.cls-36{clip-path:url(#clip-path-20);}.cls-37{fill:#010101;}.cls-38{clip-path:url(#clip-path-21);}.cls-39{clip-path:url(#clip-path-22);}.cls-40{clip-path:url(#clip-path-23);}.cls-41{clip-path:url(#clip-path-24);}.cls-42{fill:url(#Naamloos_verloop_15);}.cls-43{clip-path:url(#clip-path-25);}.cls-44{fill:url(#Naamloos_verloop_16);}.cls-45{clip-path:url(#clip-path-27);}.cls-46{clip-path:url(#clip-path-28);}.cls-47{clip-path:url(#clip-path-29);}.cls-48{clip-path:url(#clip-path-30);}.cls-49{clip-path:url(#clip-path-31);}.cls-50{clip-path:url(#clip-path-32);}.cls-51{fill:url(#Naamloos_verloop_17);}.cls-52{clip-path:url(#clip-path-33);}.cls-53{fill:url(#Naamloos_verloop_18);}.cls-54{clip-path:url(#clip-path-35);}.cls-55{clip-path:url(#clip-path-36);}.cls-56{fill:url(#Naamloos_verloop_19);}.cls-57{clip-path:url(#clip-path-37);}.cls-58{fill:url(#Naamloos_verloop_20);}.cls-59{clip-path:url(#clip-path-38);}.cls-60{fill:url(#Naamloos_verloop_21);}.cls-61{clip-path:url(#clip-path-39);}.cls-62{fill:url(#Naamloos_verloop_22);}.cls-63{clip-path:url(#clip-path-40);}.cls-64{fill:url(#Naamloos_verloop_23);}.cls-65{clip-path:url(#clip-path-41);}.cls-66{fill:url(#Naamloos_verloop_24);}.cls-67{clip-path:url(#clip-path-42);}.cls-68{fill:url(#Naamloos_verloop_25);}.cls-69{clip-path:url(#clip-path-43);}.cls-70{fill:url(#Naamloos_verloop_26);}.cls-71{clip-path:url(#clip-path-44);}.cls-72{fill:url(#Naamloos_verloop_27);}.cls-73{clip-path:url(#clip-path-46);}.cls-74{clip-path:url(#clip-path-47);}.cls-75{fill:url(#Naamloos_verloop_28);}.cls-76{clip-path:url(#clip-path-48);}.cls-77{fill:url(#Naamloos_verloop_29);}.cls-78{clip-path:url(#clip-path-49);}.cls-79{fill:url(#Naamloos_verloop_30);}.cls-80{clip-path:url(#clip-path-50);}.cls-81{fill:url(#Naamloos_verloop_31);}.cls-82{clip-path:url(#clip-path-51);}.cls-83{fill:url(#Naamloos_verloop_32);}.cls-84{clip-path:url(#clip-path-52);}.cls-85{fill:url(#Naamloos_verloop_33);}.cls-86{clip-path:url(#clip-path-53);}.cls-87{fill:url(#Naamloos_verloop_34);}.cls-88{clip-path:url(#clip-path-54);}.cls-89{fill:url(#Naamloos_verloop_35);}.cls-90{clip-path:url(#clip-path-55);}.cls-91{fill:url(#Naamloos_verloop_36);}.cls-92{clip-path:url(#clip-path-56);}.cls-93{fill:url(#Naamloos_verloop_37);}.cls-94{clip-path:url(#clip-path-57);}.cls-95{fill:url(#Naamloos_verloop_38);}.cls-96{clip-path:url(#clip-path-58);}.cls-97{fill:url(#Naamloos_verloop_39);}.cls-98{clip-path:url(#clip-path-59);}.cls-99{fill:url(#Naamloos_verloop_40);}.cls-100{clip-path:url(#clip-path-61);}.cls-101{clip-path:url(#clip-path-62);}.cls-102{clip-path:url(#clip-path-63);}.cls-103{clip-path:url(#clip-path-64);}.cls-104{fill:url(#Naamloos_verloop_41);}.cls-105{clip-path:url(#clip-path-65);}.cls-106{fill:url(#Naamloos_verloop_42);}.cls-107{clip-path:url(#clip-path-66);}.cls-108{fill:url(#Naamloos_verloop_43);}.cls-109{clip-path:url(#clip-path-67);}.cls-110{fill:url(#Naamloos_verloop_44);}.cls-111{clip-path:url(#clip-path-68);}.cls-112{fill:url(#Naamloos_verloop_45);}.cls-113{clip-path:url(#clip-path-69);}.cls-114{fill:url(#Naamloos_verloop_46);}.cls-115{fill:#f08821;}.cls-116{clip-path:url(#clip-path-71);}.cls-117{fill:url(#Naamloos_verloop_47);}.cls-118{clip-path:url(#clip-path-72);}.cls-119{fill:url(#Naamloos_verloop_48);}.cls-120{fill:#fff;}.cls-121{clip-path:url(#clip-path-74);}.cls-122{fill:url(#Naamloos_verloop_49);}.cls-123{clip-path:url(#clip-path-76);}.cls-124{fill:url(#Naamloos_verloop_50);}</style><clipPath id="clip-path" transform="translate(8.36 36.91)"><rect class="cls-1" width="1280" height="800"/></clipPath><clipPath id="clip-path-2" transform="translate(8.36 36.91)"><path class="cls-1" d="M184.27,70.83a54,54,0,1,0,54-54,54,54,0,0,0-54,54"/></clipPath><linearGradient id="Naamloos_verloop" y1="800" x2="1" y2="800" gradientTransform="matrix(0, 136.03, 136.03, 0, -108587.53, 11.08)" gradientUnits="userSpaceOnUse"><stop offset="0" stop-color="#f8e4b4"/><stop offset="0.42" stop-color="#f8e4b4"/><stop offset="0.75" stop-color="#ffe194"/><stop offset="1" stop-color="#ffe194"/></linearGradient><clipPath id="clip-path-4" transform="translate(8.36 36.91)"><path class="cls-1" d="M318.09,128.28l-7.6,208.83-1.17,32.09-1.41,38.89A3.1,3.1,0,0,0,311,411.3h18a3.09,3.09,0,0,0,3.09-3.18l-1-33.83L330,337.11l-5.92-208.83Z"/></clipPath><linearGradient id="Naamloos_verloop_2" y1="799.97" x2="1" y2="799.97" gradientTransform="matrix(-152.97, 0, 0, 152.97, 286.45, -122101.71)" gradientUnits="userSpaceOnUse"><stop offset="0" stop-color="#daae82"/><stop offset="0.21" stop-color="#daae82"/><stop offset="0.45" stop-color="#c9976c"/><stop offset="1" stop-color="#c9976c"/></linearGradient><clipPath id="clip-path-5" transform="translate(8.36 36.91)"><path class="cls-1" d="M317.31,116.71,278.73,222.93l-18,49.59-14.39,39.62-3.44,9.48L238.76,333a3.07,3.07,0,0,0,2.88,4.11h154.7a4.74,4.74,0,0,0,4.46-6.36l-13.22-36.38-25.94-71.43L323.07,116.71a3.06,3.06,0,0,0-5.76,0"/></clipPath><linearGradient id="Naamloos_verloop_3" y1="800.18" x2="1" y2="800.18" gradientTransform="matrix(0, 179.36, 179.36, 0, -143197.06, 169.65)" gradientUnits="userSpaceOnUse"><stop offset="0" stop-color="#0b8b44"/><stop offset="0.11" stop-color="#0b8b44"/><stop offset="0.68" stop-color="#036a3b"/><stop offset="1" stop-color="#036a3b"/></linearGradient><clipPath id="clip-path-6" transform="translate(8.36 36.91)"><path class="cls-1" d="M533.25,287.87l-.19,5.35-.6,16.35-.14,3.88h0l-.91,25.09h0l-1.22,33.51-2,55.24-2.58,70.88L525,515.8l-1.69,46.6-.09,2.51-.06,1.59a2.66,2.66,0,0,0,.07.75h0a3.07,3.07,0,0,0,3,2.43h17.87a3.07,3.07,0,0,0,3.08-3.16l-.1-3.39,0-1.22-.48-17-.39-13.88h0l-.95-33.59-2-72-1.16-41-2.08-73.23-.15-5.38-.51-17.93Z"/></clipPath><linearGradient id="Naamloos_verloop_4" y1="800" x2="1" y2="800" gradientTransform="matrix(-159.21, 0, 0, 159.21, 600.06, -126937.71)" gradientUnits="userSpaceOnUse"><stop offset="0" stop-color="#daae82"/><stop offset="0.23" stop-color="#daae82"/><stop offset="0.72" stop-color="#c9976c"/><stop offset="1" stop-color="#c9976c"/></linearGradient><clipPath id="clip-path-8" transform="translate(8.36 36.91)"><path class="cls-1" d="M414.56,279.69a60.32,60.32,0,0,0-6.1,1.93,64.07,64.07,0,0,0-41.57,55.49c-.12,1.51-.17,3-.17,4.56a64.05,64.05,0,1,0,128.1,0c0-.84,0-1.68-.05-2.52a63.81,63.81,0,0,0-20.33-44.32q-1.84-1.74-3.82-3.3a64.16,64.16,0,0,0-56.06-11.84"/></clipPath><linearGradient id="Naamloos_verloop_5" y1="800" x2="1" y2="800" gradientTransform="matrix(0, 128.1, 128.1, 0, -102045.44, 277.61)" gradientUnits="userSpaceOnUse"><stop offset="0" stop-color="#e1b634"/><stop offset="0.27" stop-color="#c1b137"/><stop offset="0.56" stop-color="#a5ac3a"/><stop offset="0.81" stop-color="#94a93b"/><stop offset="1" stop-color="#8ea83c"/></linearGradient><clipPath id="clip-path-9" transform="translate(8.36 36.91)"><path class="cls-1" d="M398.74,252a49.76,49.76,0,0,0,9.72,29.62,50.66,50.66,0,0,0,4.11,4.89A50,50,0,0,0,490,280.13c.57-.85,1.13-1.7,1.64-2.58h0a50,50,0,0,0-12.54-65.19c-.56-.43-1.13-.85-1.71-1.25A50,50,0,0,0,398.74,252"/></clipPath><linearGradient id="Naamloos_verloop_6" y1="800" x2="1" y2="800" gradientTransform="matrix(0, 99.92, 99.92, 0, -79478.97, 238.95)" gradientUnits="userSpaceOnUse"><stop offset="0" stop-color="#c4d143"/><stop offset="0.11" stop-color="#c4d143"/><stop offset="0.59" stop-color="#97af3d"/><stop offset="0.68" stop-color="#8ea83c"/><stop offset="1" stop-color="#8ea83c"/></linearGradient><clipPath id="clip-path-10" transform="translate(8.36 36.91)"><path class="cls-1" d="M552.53,390.39q-.06,1.25-.06,2.52a50,50,0,1,0,76.23-42.5,48.74,48.74,0,0,0-7.12-3.66c-1.31-.54-2.65-1-4-1.47a50,50,0,0,0-65,45.11"/></clipPath><linearGradient id="Naamloos_verloop_7" y1="800" x2="1" y2="800" gradientTransform="matrix(0, -99.94, -99.94, 0, 80550.96, 442.87)" gradientUnits="userSpaceOnUse"><stop offset="0" stop-color="#9a9e37"/><stop offset="0.24" stop-color="#9a9e37"/><stop offset="0.76" stop-color="#babb33"/><stop offset="1" stop-color="#babb33"/></linearGradient><clipPath id="clip-path-11" transform="translate(8.36 36.91)"><path class="cls-1" d="M628.94,243.06A49.89,49.89,0,0,0,580.65,293c0,.7,0,1.4,0,2.09A49.84,49.84,0,0,0,616.79,341c1.57.45,3.17.82,4.8,1.12h0a50.39,50.39,0,0,0,9,.81h.29a50,50,0,0,0,44.87-28.57,49,49,0,0,0,2.32-5.82A49.94,49.94,0,0,0,630.61,243c-.56,0-1.12,0-1.67,0"/></clipPath><linearGradient id="Naamloos_verloop_8" x1="0" y1="800" x2="1" y2="800" gradientTransform="matrix(0, 99.92, 99.92, 0, -79297.01, 279.94)" xlink:href="#Naamloos_verloop_6"/><clipPath id="clip-path-12" transform="translate(8.36 36.91)"><path class="cls-1" d="M462.8,314.76a38.43,38.43,0,1,0,38.43-38.43,38.43,38.43,0,0,0-38.43,38.43"/></clipPath><linearGradient id="Naamloos_verloop_9" y1="800" x2="1" y2="800" gradientTransform="matrix(0, 76.86, 76.86, 0, -60988.27, 276.35)" gradientUnits="userSpaceOnUse"><stop offset="0" stop-color="#c3cd2f"/><stop offset="0.08" stop-color="#c3cd2f"/><stop offset="1" stop-color="#959637"/></linearGradient><clipPath id="clip-path-13" transform="translate(8.36 36.91)"><path class="cls-1" d="M479.86,210.07c-.26.75-.51,1.51-.76,2.28a77.1,77.1,0,0,0,9.69,66c.4.58.8,1.16,1.21,1.73a76.93,76.93,0,0,0,42.46,29.44c.87.24,1.74.46,2.62.66,1.46.34,2.92.64,4.4.88h0a3.08,3.08,0,0,0,.42.07,77.1,77.1,0,0,0,42.49-5,75.11,75.11,0,0,0,12-6.42,77.14,77.14,0,0,0,28.72-34.18,77.27,77.27,0,0,0,6.17-30.22,76.87,76.87,0,0,0-149.47-25.27"/></clipPath><linearGradient id="Naamloos_verloop_10" y1="800" y2="800" gradientTransform="matrix(0, -153.76, -153.76, 0, 123557.34, 312.21)" xlink:href="#Naamloos_verloop_7"/><clipPath id="clip-path-14" transform="translate(8.36 36.91)"><path class="cls-1" d="M521.72,344.23a50,50,0,1,0,50-50,50,50,0,0,0-50,50"/></clipPath><linearGradient id="Naamloos_verloop_11" x1="0" y1="800" x2="1" y2="800" gradientTransform="matrix(0, 99.92, 99.92, 0, -79356.31, 331.18)" xlink:href="#Naamloos_verloop_6"/><clipPath id="clip-path-15" transform="translate(8.36 36.91)"><path class="cls-1" d="M634,305a37.15,37.15,0,0,0-17.5,31.54,36.61,36.61,0,0,0,.27,4.47,35.35,35.35,0,0,0,.77,4.26,36.84,36.84,0,0,0,3.17,8.47,37.3,37.3,0,0,0,27.68,19.58,38,38,0,0,0,5.26.37,37.15,37.15,0,0,0,24.42-65.14c-.77-.68-1.57-1.32-2.4-1.93h0A37.21,37.21,0,0,0,634,305"/></clipPath><linearGradient id="Naamloos_verloop_12" y1="800" y2="800" gradientTransform="matrix(0, 74.3, 74.3, 0, -58785.29, 299.39)" xlink:href="#Naamloos_verloop_5"/><clipPath id="clip-path-16" transform="translate(8.36 36.91)"><path class="cls-1" d="M455.11,368.57a30.74,30.74,0,1,0,30.74-30.74,30.74,30.74,0,0,0-30.74,30.74"/></clipPath><linearGradient id="Naamloos_verloop_13" y1="800" y2="800" gradientTransform="matrix(0, -61.5, -61.5, 0, 49685.67, 399.32)" xlink:href="#Naamloos_verloop_7"/><clipPath id="clip-path-18" transform="translate(8.36 36.91)"><path class="cls-1" d="M1,800H1279.5V560.79l-179.29-1h-1.47l-3.92,0-25.78-.14-6.35,0-56.17-.3-24.34-.13h-1.86l-15.53-.08h-1.35l-5,0L948.22,559l-3.14,0h-.21l-12.17-.06-71.15-.39h-2L840,558.41l-9.09,0H829.7l-5.53,0-19.62-.11-4.59,0h0l-9.91-.05-3.13,0L758.22,558l-25.9-.14-31.39-.17h-2.48l-9.25,0H689c-3.75,0-7.48,0-11.22,0h-.3l-11.37,0-16.55,0h-1.71q-17.61,0-35.23.08h-2l-6.69,0h-2.14l-6.41.05-10.87.1q-5.45,0-10.88.12-9.84.12-19.65.27-11.19.17-22.34.4h0l-3.29.06q-15.23.33-30.43.75-12.71.36-25.42.81c-7.37.26-14.75.55-22.1.86l-5.22.22c-2.83.12-5.65.22-8.49.3-16,.44-32.08.2-48.19-.61l-1.23-.07c-1.87-.1-3.74-.2-5.62-.32l-1.47-.1h0c-3.61-.22-7.23-.47-10.84-.75q-12.15-.95-24.28-2.3h0c-.55-.05-1.09-.11-1.64-.18q-8.27-.93-16.48-2-11.08-1.47-22.06-3.22c-4.33-.68-8.66-1.4-13-2.15l-1.15-.2q-11.92-2.07-23.72-4.46-14.7-3-29.2-6.39-28.35-6.71-55.88-15.09-15.35-4.67-30.39-9.86-12.23-4.21-24.24-8.76a837.63,837.63,0,0,1-115-53.64h0C8.51,449.34,4.75,447.19,1,445Z"/></clipPath><linearGradient id="Naamloos_verloop_14" y1="800" x2="1" y2="800" gradientTransform="matrix(0, 172.77, 172.77, 0, -137579.51, 481.95)" gradientUnits="userSpaceOnUse"><stop offset="0" stop-color="#c4d143"/><stop offset="0.06" stop-color="#c4d143"/><stop offset="0.79" stop-color="#8ea83c"/><stop offset="1" stop-color="#8ea83c"/></linearGradient><clipPath id="clip-path-20" transform="translate(8.36 36.91)"><rect class="cls-1" x="502.27" y="561.83" width="198" height="16"/></clipPath><clipPath id="clip-path-21" transform="translate(8.36 36.91)"><rect class="cls-1" x="976.27" y="766.83" width="113" height="8"/></clipPath><clipPath id="clip-path-22" transform="translate(8.36 36.91)"><rect class="cls-1" x="42.27" y="552.83" width="216" height="22"/></clipPath><clipPath id="clip-path-23" transform="translate(8.36 36.91)"><rect class="cls-1" x="607.27" y="559.83" width="216" height="22"/></clipPath><clipPath id="clip-path-24" transform="translate(8.36 36.91)"><path class="cls-1" d="M722.2,271.67l-6.8,197.71-3.11,90.46-.06,1.72-.56,16.26a3.31,3.31,0,0,0,3.2,3.5h18.58a3.3,3.3,0,0,0,3.2-3.48l-.43-16.14,0-1.67-2.46-91.78-5.27-196.58Z"/></clipPath><linearGradient id="Naamloos_verloop_15" y1="800" x2="1" y2="800" gradientTransform="matrix(0, 199.29, 199.29, 0, -158699.21, 406.75)" gradientUnits="userSpaceOnUse"><stop offset="0" stop-color="#daae82"/><stop offset="0.47" stop-color="#daae82"/><stop offset="0.76" stop-color="#c9976c"/><stop offset="1" stop-color="#c9976c"/></linearGradient><clipPath id="clip-path-25" transform="translate(8.36 36.91)"><path class="cls-1" d="M676.55,273.3q-.88,12.29-.89,25.44,0,4,0,7.88h0q0,3.91.08,7.75c.24,18.11.93,34.95,2.1,50.35,4.53,59.61,16.27,97.73,37.53,104.65a23.28,23.28,0,0,0,7.3,1.14,29.39,29.39,0,0,0,11-2.27c31-12.49,63.83-75.88,63.83-169.51,0-104.86-11.25-169.52-44.9-169.52-30.85,0-69.8,54.3-76.09,144.08"/></clipPath><linearGradient id="Naamloos_verloop_16" y1="800" x2="1" y2="800" gradientTransform="matrix(0, -171.33, -171.33, 0, 137804.06, 341.62)" gradientUnits="userSpaceOnUse"><stop offset="0" stop-color="#9aba3c"/><stop offset="0.24" stop-color="#9aba3c"/><stop offset="0.38" stop-color="#9fbd3a"/><stop offset="0.54" stop-color="#adc435"/><stop offset="0.71" stop-color="#c4d12d"/><stop offset="0.76" stop-color="#ccd52a"/><stop offset="1" stop-color="#ccd52a"/></linearGradient><clipPath id="clip-path-27" transform="translate(8.36 36.91)"><rect class="cls-1" x="147.27" y="553.83" width="32" height="12"/></clipPath><clipPath id="clip-path-28" transform="translate(8.36 36.91)"><rect class="cls-1" x="1060.27" y="341.83" width="152" height="10"/></clipPath><clipPath id="clip-path-29" transform="translate(8.36 36.91)"><rect class="cls-1" x="1025.27" y="767.83" width="19" height="4"/></clipPath><clipPath id="clip-path-30" transform="translate(8.36 36.91)"><rect class="cls-1" x="828.27" y="764.83" width="216" height="22"/></clipPath><clipPath id="clip-path-31" transform="translate(8.36 36.91)"><rect class="cls-1" x="959.27" y="765.83" width="160" height="22"/></clipPath><clipPath id="clip-path-32" transform="translate(8.36 36.91)"><path class="cls-1" d="M1034.21,575.06l-7,193a2.13,2.13,0,0,0,2.12,2.21h12.3a2.13,2.13,0,0,0,2.12-2.19l-5.44-193Z"/></clipPath><linearGradient id="Naamloos_verloop_17" y1="799.98" x2="1" y2="799.98" gradientTransform="matrix(-152.97, 0, 0, 152.97, 999.95, -121699.54)" gradientUnits="userSpaceOnUse"><stop offset="0" stop-color="#daae82"/><stop offset="0.17" stop-color="#daae82"/><stop offset="0.76" stop-color="#c9976c"/><stop offset="1" stop-color="#c9976c"/></linearGradient><clipPath id="clip-path-33" transform="translate(8.36 36.91)"><path class="cls-1" d="M1033.67,520.8l-9,25.09-.67,1.84-5.65,15.66-10.16,28.17-.91,2.52-6,16.54L979.85,670a2.11,2.11,0,0,0,2,2.84h106a3.26,3.26,0,0,0,3.05-4.38l-26.83-74.37-.79-2.19-10.21-28.29-9.68-26.84-5.76-16a2.1,2.1,0,0,0-4,0"/></clipPath><linearGradient id="Naamloos_verloop_18" y1="800.12" x2="1" y2="800.12" gradientTransform="matrix(0, 129.9, 129.9, 0, -102898.68, 552.2)" gradientUnits="userSpaceOnUse"><stop offset="0" stop-color="#0b8b44"/><stop offset="0.48" stop-color="#05743e"/><stop offset="0.81" stop-color="#036a3b"/><stop offset="1" stop-color="#036a3b"/></linearGradient><clipPath id="clip-path-35" transform="translate(8.36 36.91)"><rect class="cls-1" x="915.27" y="768.83" width="37" height="12"/></clipPath><clipPath id="clip-path-36" transform="translate(8.36 36.91)"><path class="cls-1" d="M812,563.1c0,35,29.11,63.43,65,63.43s65-28.4,65-63.43-29.11-63.43-65-63.43-65,28.4-65,63.43"/></clipPath><linearGradient id="Naamloos_verloop_19" y1="800" y2="800" gradientTransform="matrix(0, 124.66, 124.66, 0, -98854.85, 491.75)" xlink:href="#Naamloos_verloop_5"/><clipPath id="clip-path-37" transform="translate(8.36 36.91)"><path class="cls-1" d="M802.06,435.2c-18.45,9.81-31.34,32.14-31.34,58.12,0,28.81,15.84,53.13,37.54,60.86a39.86,39.86,0,0,0,4.16,1.27,43.69,43.69,0,0,0,17.34.79c15.53-2.41,28.92-13.06,37.1-28.22a72.21,72.21,0,0,0,8.26-28.32c.17-2.09.26-4.2.26-6.34v0c0-16.79-5.39-32.05-14.17-43.4-9.55-12.33-23.11-20-38.16-20a44.51,44.51,0,0,0-21,5.31"/></clipPath><linearGradient id="Naamloos_verloop_20" y1="800" x2="1" y2="800" gradientTransform="matrix(0, 115.67, 115.67, 0, -91709.8, 423.04)" gradientUnits="userSpaceOnUse"><stop offset="0" stop-color="#c3cd2f"/><stop offset="0.31" stop-color="#c3cd2f"/><stop offset="0.74" stop-color="#959637"/><stop offset="1" stop-color="#959637"/></linearGradient><clipPath id="clip-path-38" transform="translate(8.36 36.91)"><path class="cls-1" d="M932.35,432l-6.91,190.52a56.41,56.41,0,0,1-41.14-41.9l-2.09-8.31a3.87,3.87,0,0,0-3.71-2.89h-1.71a3.83,3.83,0,0,0-3.84,3.84v12.15a2.89,2.89,0,0,0,0,.51c3.27,31.46,34.76,43.1,52.08,47.13L920,773.23a3.81,3.81,0,0,0,3.81,4h22.11a3.81,3.81,0,0,0,3.81-3.93l-3.33-117.8c22.9-3.3,34.64-28.48,38.16-37.65a3,3,0,0,0-2.22-4.06l-2.12-.41a3,3,0,0,0-3.46,2c-7.17,19.22-21,26.42-30.67,29.12L940,432a3.82,3.82,0,0,0-7.64,0"/></clipPath><linearGradient id="Naamloos_verloop_21" y1="800.01" x2="1" y2="800.01" gradientTransform="matrix(-141.16, 0, 0, 141.16, 954.28, -112329.26)" gradientUnits="userSpaceOnUse"><stop offset="0" stop-color="#daae82"/><stop offset="0.42" stop-color="#ce9e73"/><stop offset="0.76" stop-color="#c9976c"/><stop offset="1" stop-color="#c9976c"/></linearGradient><clipPath id="clip-path-39" transform="translate(8.36 36.91)"><path class="cls-1" d="M926.14,556.76c0,35,22,63.43,49.16,63.43s49.16-28.4,49.16-63.43-22-63.43-49.16-63.43-49.16,28.4-49.16,63.43"/></clipPath><linearGradient id="Naamloos_verloop_22" y1="800" x2="1" y2="800" gradientTransform="matrix(0, 121.16, 121.16, 0, -95952.49, 510.32)" gradientUnits="userSpaceOnUse"><stop offset="0" stop-color="#b9d232"/><stop offset="0.68" stop-color="#9aba3c"/><stop offset="1" stop-color="#9aba3c"/></linearGradient><clipPath id="clip-path-40" transform="translate(8.36 36.91)"><path class="cls-1" d="M960.89,351.26a94.87,94.87,0,0,0-40,24.84,108.67,108.67,0,0,0-12.68,15.73c-.88-.5-1.78-1-2.69-1.45a72.93,72.93,0,0,0-76,124c1.07.78,2.17,1.53,3.28,2.25.58.37,1.16.74,1.75,1.09A72.5,72.5,0,0,0,866.86,528c1.76.12,3.55.19,5.35.19a72.57,72.57,0,0,0,33-7.89,73.94,73.94,0,0,0,20.35,19.09l.5.31c.55.35,1.1.69,1.66,1,.23.13.45.27.68.39a82,82,0,0,0,11.36,5.45c1.16.46,2.34.89,3.53,1.29a112.33,112.33,0,0,0,36.77,5.72,128.79,128.79,0,0,0,43.72-7.38l.85-.32a104,104,0,0,0,18.76-9.13c24.59-15.26,41.34-40.87,41.34-76.74a127.54,127.54,0,0,0-3.69-30.64c-8.95-36.36-33.45-65.24-64.76-76.65h0q-2.76-1-5.59-1.83h0a86.82,86.82,0,0,0-49.73.38"/></clipPath><linearGradient id="Naamloos_verloop_23" y1="799.99" y2="799.99" gradientTransform="matrix(0, 204.05, 204.05, 0, -162295.26, 322.66)" xlink:href="#Naamloos_verloop_14"/><clipPath id="clip-path-41" transform="translate(8.36 36.91)"><path class="cls-1" d="M842.84,507.11A49.16,49.16,0,1,0,877,493.32a49.16,49.16,0,0,0-34.13,13.79"/></clipPath><linearGradient id="Naamloos_verloop_24" y1="799.99" x2="1" y2="799.99" gradientTransform="matrix(0, 112.46, 112.46, 0, -89088.91, 475.32)" gradientUnits="userSpaceOnUse"><stop offset="0" stop-color="#c3cd2f"/><stop offset="0.26" stop-color="#c3cd2f"/><stop offset="0.98" stop-color="#959637"/><stop offset="1" stop-color="#959637"/></linearGradient><clipPath id="clip-path-42" transform="translate(8.36 36.91)"><path class="cls-1" d="M525.6,498.19a56.41,56.41,0,0,0-15.43,5.47c-14.24,7.56-23.68,20.84-23.68,35.94a37.33,37.33,0,0,0,8.59,23.57,44.1,44.1,0,0,0,7.7,7.48l.23.18h145.2a35.12,35.12,0,0,0,2.41-7.94c.05-.3.1-.59.14-.89s.08-.5.11-.76c.14-1,.23-2.1.27-3.17,0-.47,0-1,0-1.44,0-23.51-22.89-42.59-51.11-42.59A58.06,58.06,0,0,0,581,517.17c-7.71-10.4-20.66-17.81-35.79-19.68a59.24,59.24,0,0,0-7.6-.48,61,61,0,0,0-12,1.18"/></clipPath><linearGradient id="Naamloos_verloop_25" y1="800.09" x2="1" y2="800.09" gradientTransform="matrix(0, 132.04, 132.04, 0, -105070.88, 462.03)" gradientUnits="userSpaceOnUse"><stop offset="0" stop-color="#8ea83c"/><stop offset="0.16" stop-color="#8ea83c"/><stop offset="1" stop-color="#758838"/><stop offset="1" stop-color="#758838"/></linearGradient><clipPath id="clip-path-43" transform="translate(8.36 36.91)"><path class="cls-1" d="M1130.09,64.28l-7.3,200.55-2.8,77.12v.17l-.07,2a3.1,3.1,0,0,0,3.09,3.21H1141a3.09,3.09,0,0,0,3.09-3.18l-.06-2v-.26l-2.19-77-5.68-200.55Z"/></clipPath><linearGradient id="Naamloos_verloop_26" y1="799.97" y2="799.97" gradientTransform="matrix(-152.97, 0, 0, 152.97, 1098.45, -122165.71)" xlink:href="#Naamloos_verloop_2"/><clipPath id="clip-path-44" transform="translate(8.36 36.91)"><path class="cls-1" d="M1131.31,44.43l-38.58,106.24-36.41,100.24-3.56,9.81a3.07,3.07,0,0,0,2.88,4.11h154.7a4.74,4.74,0,0,0,4.46-6.35l-39.16-107.81L1137.07,44.43a3.06,3.06,0,0,0-5.76,0"/></clipPath><linearGradient id="Naamloos_verloop_27" y1="800" y2="800" gradientTransform="matrix(162.51, 0, 0, -162.51, 1060.94, 130200.04)" xlink:href="#Naamloos_verloop_3"/><clipPath id="clip-path-46" transform="translate(8.36 36.91)"><rect class="cls-1" x="1009.27" y="342.83" width="95" height="13"/></clipPath><clipPath id="clip-path-47" transform="translate(8.36 36.91)"><path class="cls-1" d="M1054.56,303a2.19,2.19,0,0,0-2.17,1.88l-2.67,18.69-.89,6.19a2.19,2.19,0,0,1-2.72,1.81,23.78,23.78,0,0,1-13.61-9.83,32.3,32.3,0,0,1-3.35-6.36,2.17,2.17,0,0,0-2-1.35h-.87a2.19,2.19,0,0,0-2.18,2.45,20.68,20.68,0,0,0,2.35,7.21c2.65,5,8.14,10.93,19.4,15.37a2.17,2.17,0,0,1,1.34,2.34l-.1.7-.12.85-.89,6.22a2.19,2.19,0,0,0,2.17,2.5h11.47a2.19,2.19,0,0,0,2.18-2.43l-.16-1.45-.21-1.88-.35-3.07-.08-.74-.06-.52a2.2,2.2,0,0,1,1.38-2.3c10.72-4.11,16.34-9.57,19.27-14.36a21.09,21.09,0,0,0,3.05-8.43,2.18,2.18,0,0,0-2.17-2.46h-.87a2.19,2.19,0,0,0-2,1.36,31.51,31.51,0,0,1-3.27,6.25,23.8,23.8,0,0,1-14,10,2.18,2.18,0,0,1-2.7-1.88l-.69-6.2L1056.94,305a2.19,2.19,0,0,0-2.18-1.94Z"/></clipPath><linearGradient id="Naamloos_verloop_28" y1="800" y2="800" gradientTransform="matrix(0, 46.36, 46.36, 0, -36035.49, 308.89)" xlink:href="#Naamloos_verloop_15"/><clipPath id="clip-path-48" transform="translate(8.36 36.91)"><path class="cls-1" d="M1017.89,287.36c0,.35,0,.7,0,1a36.55,36.55,0,0,0,31.82,35.18,37.91,37.91,0,0,0,4.67.29,37.26,37.26,0,0,0,4.63-.29,36.51,36.51,0,0,0-2.7-72.68c-.64,0-1.28,0-1.93,0a36.5,36.5,0,0,0-36.5,36.51"/></clipPath><linearGradient id="Naamloos_verloop_29" y1="800" x2="1" y2="800" gradientTransform="matrix(0, 74.54, 74.54, 0, -58578.39, 245.68)" gradientUnits="userSpaceOnUse"><stop offset="0" stop-color="#c3cd2f"/><stop offset="0.15" stop-color="#c3cd2f"/><stop offset="0.74" stop-color="#959637"/><stop offset="1" stop-color="#959637"/></linearGradient><clipPath id="clip-path-49" transform="translate(8.36 36.91)"><path class="cls-1" d="M1017.9,288.41a18.25,18.25,0,0,0,8.53,35.3,18.24,18.24,0,0,0,9.87-4.63A18.25,18.25,0,0,0,1024,287.36a17.93,17.93,0,0,0-6.07,1"/></clipPath><linearGradient id="Naamloos_verloop_30" y1="800" x2="1" y2="800" gradientTransform="matrix(0, 40.24, 40.24, 0, -31170.93, 282.08)" gradientUnits="userSpaceOnUse"><stop offset="0" stop-color="#b9d232"/><stop offset="0.16" stop-color="#b9d232"/><stop offset="0.37" stop-color="#b3ce34"/><stop offset="0.65" stop-color="#a3c139"/><stop offset="0.76" stop-color="#9aba3c"/><stop offset="1" stop-color="#9aba3c"/></linearGradient><clipPath id="clip-path-50" transform="translate(8.36 36.91)"><path class="cls-1" d="M1088.91,275.47a26.07,26.07,0,0,0-15.7,43.19,24.28,24.28,0,0,0,3.17,3,25.36,25.36,0,0,0,5.29,3.28,26.08,26.08,0,1,0,11-49.74,25.47,25.47,0,0,0-3.73.27"/></clipPath><linearGradient id="Naamloos_verloop_31" y1="800" x2="1" y2="800" gradientTransform="matrix(0, 49.16, 49.16, 0, -38232.9, 272.62)" gradientUnits="userSpaceOnUse"><stop offset="0" stop-color="#c4d143"/><stop offset="0.16" stop-color="#c4d143"/><stop offset="0.4" stop-color="#a9bc3f"/><stop offset="0.63" stop-color="#95ad3d"/><stop offset="0.79" stop-color="#8ea83c"/><stop offset="1" stop-color="#8ea83c"/></linearGradient><clipPath id="clip-path-51" transform="translate(8.36 36.91)"><path class="cls-1" d="M116.63,178.47a61,61,0,0,0,.79,9.84,55.15,55.15,0,0,0,7.51,20.35c7,11.26,17.92,18.59,30.18,18.88.26,0,.52,0,.79,0a33.3,33.3,0,0,0,19.69-6.6,45.5,45.5,0,0,0,13.8-16.83,58.26,58.26,0,0,0,5.79-25.66q0-2.73-.23-5.37c-2.14-24.58-18.81-43.72-39.05-43.72-21.69,0-39.27,22-39.27,49.09"/></clipPath><linearGradient id="Naamloos_verloop_32" x1="0" y1="800" x2="1" y2="800" gradientTransform="matrix(-96.87, 0, 0, 96.87, 205.11, -77316.33)" xlink:href="#Naamloos_verloop_6"/><clipPath id="clip-path-52" transform="translate(8.36 36.91)"><path class="cls-1" d="M77.36,237.38a61,61,0,0,0,.79,9.84c2.56,15.72,11.12,28.7,22.57,35a32.44,32.44,0,0,0,15.12,4.19c.26,0,.53,0,.79,0,21.69,0,39.27-22,39.27-49.09a61,61,0,0,0-.79-9.84c-2-12.34-7.72-23-15.63-30.08a34.17,34.17,0,0,0-22.06-9.15c-.26,0-.53,0-.79,0-21.69,0-39.27,22-39.27,49.09"/></clipPath><linearGradient id="Naamloos_verloop_33" y1="800" y2="800" gradientTransform="matrix(134.82, 0, 0, -134.82, 51.97, 108090.78)" xlink:href="#Naamloos_verloop_7"/><clipPath id="clip-path-53" transform="translate(8.36 36.91)"><path class="cls-1" d="M195,173.1c-6.52,5.74-11.84,14.23-15.25,24.41A82.75,82.75,0,0,0,175.59,221c0,1-.05,2-.05,3,0,20.1,6.71,37.85,17,48.48,6.34,6.58,14,10.43,22.31,10.43a25.84,25.84,0,0,0,3.54-.24c13-1.74,24.14-12.94,30.38-29a82,82,0,0,0,5.36-29.69c0-32.54-17.59-58.91-39.28-58.91-7.24,0-14,2.94-19.86,8.08"/></clipPath><linearGradient id="Naamloos_verloop_34" y1="800" x2="1" y2="800" gradientTransform="matrix(-102.1, 0, 0, 102.1, 276.52, -81453.04)" gradientUnits="userSpaceOnUse"><stop offset="0" stop-color="#c3cd2f"/><stop offset="0.24" stop-color="#c3cd2f"/><stop offset="0.76" stop-color="#a7ae37"/><stop offset="1" stop-color="#a7ae37"/></linearGradient><clipPath id="clip-path-54" transform="translate(8.36 36.91)"><path class="cls-1" d="M159.66,248.2,156.5,362.91l-.1,3.81-.34,12.19a3.53,3.53,0,0,1-5.31,2.94,131.33,131.33,0,0,1-21.07-15.13,152,152,0,0,1-27.63-32.25A96.45,96.45,0,0,1,97,325.74l-5.41,2.14,4.13,11.81,2.37,6.78a110.85,110.85,0,0,0,12.81,20.25c14.84,18.83,33,30.7,41,35.34a7,7,0,0,1,3.49,6.26l-.12,4.65h0l-2.52,94.11-1.23,45.74-.09,3.43,0,1.6a3.33,3.33,0,0,0,3.23,3.52h18.79a3.34,3.34,0,0,0,3.24-3.55l-.06-1.85-.1-2.85-1.28-37-3.56-103.33-.16-4.68a6.22,6.22,0,0,1,3.07-5.57c8.88-5.21,20.76-12.83,24.44-18.36a6,6,0,0,0,1.12-2.82v-9s-2.89,2.78-7.08,6.56c-4.5,4.06-10.5,9.26-16.05,13.4a3.84,3.84,0,0,1-6.14-2.93L170,366.72l-.17-5L166,248.2Z"/></clipPath><linearGradient id="Naamloos_verloop_35" y1="800" y2="800" gradientTransform="matrix(0, 143.39, 143.39, 0, -114560.25, 355.13)" xlink:href="#Naamloos_verloop_15"/><clipPath id="clip-path-55" transform="translate(8.36 36.91)"><path class="cls-1" d="M38.09,296.29c0,27.11,17.58,49.09,39.27,49.09a33,33,0,0,0,18.36-5.69,39.37,39.37,0,0,0,6.33-5.22,47.37,47.37,0,0,0,7.88-10.75,57.83,57.83,0,0,0,6.7-27.43,61,61,0,0,0-.79-9.84c-1.84-11.29-6.78-21.18-13.67-28.21-6.57-6.71-14.91-10.8-24-11-.26,0-.52,0-.79,0-21.69,0-39.27,22-39.27,49.09"/></clipPath><linearGradient id="Naamloos_verloop_36" y1="800" x2="1" y2="800" gradientTransform="matrix(-157.57, 0, 0, 157.57, 169.09, -125760.55)" gradientUnits="userSpaceOnUse"><stop offset="0" stop-color="#c9db46"/><stop offset="0.31" stop-color="#c9db46"/><stop offset="0.44" stop-color="#c4d745"/><stop offset="0.59" stop-color="#b5ca43"/><stop offset="0.75" stop-color="#9cb43e"/><stop offset="0.83" stop-color="#8ea83c"/><stop offset="1" stop-color="#8ea83c"/></linearGradient><clipPath id="clip-path-56" transform="translate(8.36 36.91)"><path class="cls-1" d="M100.63,277.7c0,47.12,26.38,85.32,58.91,85.32s58.91-38.2,58.91-85.32-26.37-85.32-58.91-85.32-58.91,38.2-58.91,85.32"/></clipPath><linearGradient id="Naamloos_verloop_37" x1="0" y1="800" x2="1" y2="800" gradientTransform="matrix(-133.83, 0, 0, 133.83, 233.09, -106783.24)" xlink:href="#Naamloos_verloop_6"/><clipPath id="clip-path-57" transform="translate(8.36 36.91)"><path class="cls-1" d="M214.9,248.49a36,36,0,0,0-22.4,23.91,36,36,0,0,0,13.65,39.26,36.16,36.16,0,0,0,6.29,3.6,36,36,0,1,0,2.46-66.77"/></clipPath><linearGradient id="Naamloos_verloop_38" y1="800" x2="1" y2="800" gradientTransform="matrix(-89.49, 0, 0, 89.49, 276.45, -71311.9)" gradientUnits="userSpaceOnUse"><stop offset="0" stop-color="#b4c63c"/><stop offset="0.11" stop-color="#b4c63c"/><stop offset="0.29" stop-color="#aec13c"/><stop offset="0.54" stop-color="#9db43c"/><stop offset="0.69" stop-color="#8ea83c"/><stop offset="1" stop-color="#8ea83c"/></linearGradient><clipPath id="clip-path-58" transform="translate(8.36 36.91)"><path class="cls-1" d="M214.18,309.62a31.82,31.82,0,0,0-8,2c-14,5.53-24.06,20.55-24.06,38.21a46.38,46.38,0,0,0,.44,6.39,44.26,44.26,0,0,0,2.81,10.45A41,41,0,0,0,193,378.94a37.11,37.11,0,0,0,6,5.26,32.91,32.91,0,0,0,19.12,6.18c14.54,0,27.07-9.7,32.75-23.66a45.36,45.36,0,0,0,1.42-29.61,41.53,41.53,0,0,0-8.37-15.48,38,38,0,0,0-5.37-5.1,33.14,33.14,0,0,0-20.43-7.15,31.56,31.56,0,0,0-3.91.24"/></clipPath><linearGradient id="Naamloos_verloop_39" y1="800" y2="800" gradientTransform="matrix(-109.44, 0, 0, 109.44, 276.77, -87205.19)" xlink:href="#Naamloos_verloop_5"/><clipPath id="clip-path-59" transform="translate(8.36 36.91)"><path class="cls-1" d="M559.64,539.64h0A68.15,68.15,0,0,0,546.54,545a58.81,58.81,0,0,0-20.21,17.37h0c-.57.8-1.12,1.61-1.63,2.43s-1,1.65-1.5,2.49h0c-.65,1.17-1.25,2.36-1.79,3.57-.15.33-.3.66-.44,1H700.72c-.42-.33-.85-.65-1.28-1a58.71,58.71,0,0,0-6.1-4,67,67,0,0,0-12.47-5.53h0c-.93-.31-1.87-.59-2.82-.86h0a74.52,74.52,0,0,0-20.11-2.73q-3.44,0-6.76.3a70.7,70.7,0,0,0-15.6,3.15h0l-1.25.42-.32-.42c-11.16-14.75-30.89-24.54-53.39-24.54a74.43,74.43,0,0,0-20.93,3"/></clipPath><linearGradient id="Naamloos_verloop_40" y1="800.12" x2="1" y2="800.12" gradientTransform="matrix(0, 118.43, 118.43, 0, -94146.1, 496.81)" gradientUnits="userSpaceOnUse"><stop offset="0" stop-color="#8ea83c"/><stop offset="0.16" stop-color="#8ea83c"/><stop offset="1" stop-color="#6f8035"/><stop offset="1" stop-color="#6f8035"/></linearGradient><clipPath id="clip-path-61" transform="translate(8.36 36.91)"><rect class="cls-1" x="299.27" y="705.83" width="41" height="12"/></clipPath><clipPath id="clip-path-62" transform="translate(8.36 36.91)"><rect class="cls-1" x="232.27" y="707.83" width="216" height="26"/></clipPath><clipPath id="clip-path-63" transform="translate(8.36 36.91)"><rect class="cls-1" x="407.27" y="740.83" width="348" height="32"/></clipPath><clipPath id="clip-path-64" transform="translate(8.36 36.91)"><rect class="cls-1" x="427.64" y="625.67" width="302.4" height="16.13" rx="1.5" ry="1.5"/></clipPath><linearGradient id="Naamloos_verloop_41" y1="800" x2="1" y2="800" gradientTransform="matrix(0, 131.67, 131.67, 0, -104757.37, 539.48)" gradientUnits="userSpaceOnUse"><stop offset="0" stop-color="#f6a41e"/><stop offset="1" stop-color="#f08921"/></linearGradient><clipPath id="clip-path-65" transform="translate(8.36 36.91)"><rect class="cls-1" x="504.24" y="718.41" width="16.13" height="44.35" rx="1.5" ry="1.5"/></clipPath><linearGradient id="Naamloos_verloop_42" y1="800" y2="800" gradientTransform="matrix(0, 48.25, 48.25, 0, -38081.52, 744.47)" xlink:href="#Naamloos_verloop_41"/><clipPath id="clip-path-66" transform="translate(8.36 36.91)"><rect class="cls-1" x="653.43" y="718.41" width="16.13" height="44.35" rx="1.5" ry="1.5"/></clipPath><linearGradient id="Naamloos_verloop_43" y1="800" y2="800" gradientTransform="matrix(0, 44.29, 44.29, 0, -34759.54, 749.1)" xlink:href="#Naamloos_verloop_41"/><clipPath id="clip-path-67" transform="translate(8.36 36.91)"><rect class="cls-1" x="427.64" y="645.83" width="302.4" height="16.13" rx="1.5" ry="1.5"/></clipPath><linearGradient id="Naamloos_verloop_44" y1="800" y2="800" gradientTransform="matrix(0, 123.58, 123.58, 0, -98282.17, 604.6)" xlink:href="#Naamloos_verloop_41"/><clipPath id="clip-path-68" transform="translate(8.36 36.91)"><rect class="cls-1" x="427.64" y="665.99" width="302.4" height="16.13" rx="1.5" ry="1.5"/></clipPath><linearGradient id="Naamloos_verloop_45" y1="800" y2="800" gradientTransform="matrix(0, 33.65, 33.65, 0, -26343.11, 642.15)" xlink:href="#Naamloos_verloop_41"/><clipPath id="clip-path-69" transform="translate(8.36 36.91)"><rect class="cls-1" x="427.64" y="686.15" width="302.4" height="16.13" rx="1.5" ry="1.5"/></clipPath><linearGradient id="Naamloos_verloop_46" y1="800" y2="800" gradientTransform="matrix(0, 48.52, 48.52, 0, -38240.05, 635.21)" xlink:href="#Naamloos_verloop_41"/><clipPath id="clip-path-71" transform="translate(8.36 36.91)"><polygon class="cls-1" points="340.9 595.42 314.85 569.37 309.9 574.32 336.68 601.1 309.43 637.81 309.73 638.04 302.72 712.69 338.72 712.69 332.72 644.99 351.82 619.27 391.12 604.65 388.68 598.09 359.48 608.95 379.72 581.7 361.25 567.99 340.9 595.42"/></clipPath><linearGradient id="Naamloos_verloop_47" y1="800" x2="1" y2="800" gradientTransform="matrix(-166.03, 0, 0, 166.03, 432.62, -132183.43)" gradientUnits="userSpaceOnUse"><stop offset="0" stop-color="#daae82"/><stop offset="0.12" stop-color="#daae82"/><stop offset="0.43" stop-color="#c9976c"/><stop offset="1" stop-color="#c9976c"/></linearGradient><clipPath id="clip-path-72" transform="translate(8.36 36.91)"><path class="cls-1" d="M301.37,458.57a92.94,92.94,0,0,0-6,19.4,93.91,93.91,0,0,0-1.67,16.72.93.93,0,0,1,0,.17v.08c0,.08,0,.17,0,.25s0,.22,0,.33a.93.93,0,0,1,0,.17,93.22,93.22,0,0,0,22.48,59.86,94.27,94.27,0,0,0,59,32.24c1.47.22,3,.38,4.46.51q4.23.39,8.57.39a94.66,94.66,0,0,0,78.9-42.26,93.08,93.08,0,0,0,15.59-50.74,4.18,4.18,0,0,0,0-.5,4.18,4.18,0,0,0,0-.5A92.53,92.53,0,0,0,481.24,479a94.35,94.35,0,0,0-86-77.1q-3.49-.26-7.05-.26a94.56,94.56,0,0,0-86.85,56.88"/></clipPath><linearGradient id="Naamloos_verloop_48" y1="800" x2="1" y2="800" gradientTransform="matrix(-209.58, 0, 0, 209.58, 510.48, -167168.31)" gradientUnits="userSpaceOnUse"><stop offset="0" stop-color="#c4d143"/><stop offset="0.16" stop-color="#c4d143"/><stop offset="0.6" stop-color="#97af3d"/><stop offset="0.68" stop-color="#8ea83c"/><stop offset="1" stop-color="#8ea83c"/></linearGradient><clipPath id="clip-path-74" transform="translate(8.36 36.91)"><path class="cls-1" d="M251.86,525.69c0,.67-.08,1.33-.1,2s.05,1.33.1,2c1.89,26.81,22.59,47.93,47.86,47.93s46-21.12,47.86-47.93c.05-.67.08-1.33.1-2s0-1.33-.1-2c-1.89-26.81-22.59-47.93-47.86-47.93s-46,21.12-47.86,47.93"/></clipPath><linearGradient id="Naamloos_verloop_49" y1="800" x2="1" y2="800" gradientTransform="matrix(0, 237.27, 237.27, 0, -189507.01, 424.26)" gradientUnits="userSpaceOnUse"><stop offset="0" stop-color="#c3cd2f"/><stop offset="0.44" stop-color="#c3cd2f"/><stop offset="0.74" stop-color="#959637"/><stop offset="1" stop-color="#959637"/></linearGradient><clipPath id="clip-path-76" transform="translate(8.36 36.91)"><path class="cls-1" d="M375.73,567.69c0,.16,0,.31,0,.47s0,.31,0,.46c.46,28.25,21.77,51,48,51s47.53-22.75,48-51c0-.15,0-.31,0-.46s0-.31,0-.47c-.46-28.25-21.77-51-48-51s-47.53,22.75-48,51"/></clipPath><linearGradient id="Naamloos_verloop_50" y1="800" x2="1" y2="800" gradientTransform="matrix(0, 120.36, 120.36, 0, -95866.57, 505.59)" gradientUnits="userSpaceOnUse"><stop offset="0" stop-color="#b9d232"/><stop offset="0.16" stop-color="#b9d232"/><stop offset="0.68" stop-color="#9aba3c"/><stop offset="1" stop-color="#9aba3c"/></linearGradient></defs><title>background_image_scene1</title><g class="cls-2"><rect class="cls-3" x="8.86" y="36.91" width="1279" height="800"/><g class="cls-4"><rect class="cls-5" x="162" y="-5.45" width="152.55" height="152.55" transform="translate(22.47 215.16) rotate(-42.16)"/></g><g class="cls-2"><path class="cls-6" d="M1279.31,592.85V760.53l-193.24-.27-17.25,0-84.12-.12-31.05,0-269.82-.38-17.35,0-143.11-.21-17.35,0L2.77,758.73l-.29-51L1,459.61.92,439.67v-.48L.78,414.28.55,376,.5,366.72H278.38s6.83.51,18,2.48c6.5,1.14,14.45,2.78,23.4,5.09,20,5.16,44.8,13.69,69,27.66a203.39,203.39,0,0,1,46.11,35.79,390.77,390.77,0,0,0,40.85,37l5.51,4.35,31.12,24.61,3.4,2.69q6.13,4.85,12.51,9.45,11,8,22.78,15.28h0q7.13,4.43,14.5,8.56h0a406.75,406.75,0,0,0,44.82,21.66l1.29.53h.06c4.28,1.74,8.53,3.41,12.9,5,3.73,1.39,7.5,2.71,11.28,4l3,1c5.64,1.85,11.29,3.6,17,5.23h.05q5.11,1.46,10.29,2.78,15.59,4,31.66,6.9c24.67,4.43,50.59,7,75.76,5.85q16.68-.75,33.38-1.17,18.41-.48,36.8-.64,26.33-.24,52.66-.06h2.8l4,0,7.67.05,5.46,0h1.92l41.78.23,7.94,0h1.47l9.88.06,68.44.38,8.85.05,18.54.1,5.58,0,26.32.15Z" transform="translate(8.36 36.91)"/></g><g class="cls-7"><rect class="cls-8" x="178.14" y="253" width="283.66" height="33.57" transform="translate(48.14 617.59) rotate(-88.11)"/></g><g class="cls-9"><rect class="cls-10" x="190.46" y="87.96" width="259.04" height="275.87" transform="translate(-63.12 249.51) rotate(-33.27)"/></g><g class="cls-11"><rect class="cls-12" x="394.19" y="416.02" width="281.94" height="25.52" transform="translate(112.03 998.66) rotate(-89.71)"/></g><g class="cls-2"><path class="cls-13" d="M634.45,314.77a112.8,112.8,0,0,1-3.55,28.18q-1,3.78-2.2,7.46-1.65,4.95-3.75,9.7a113.06,113.06,0,0,1-64.15,60.43,112.29,112.29,0,0,1-32.62,6.77q-3.21.2-6.46.19a112.8,112.8,0,0,1-109.15-141q.88-3.46,2-6.82a113,113,0,0,1,62.83-68.59c.82-.36,1.64-.7,2.47-1A112.7,112.7,0,0,1,634,305c.29,3.21.43,6.47.43,9.76" transform="translate(8.36 36.91)"/></g><g class="cls-14"><rect class="cls-15" x="340.19" y="251.09" width="181.16" height="181.16" transform="translate(-107.06 441.58) rotate(-45)"/></g><g class="cls-16"><rect class="cls-17" x="407.1" y="238.95" width="99.92" height="99.92"/></g><g class="cls-18"><rect class="cls-19" x="534.19" y="324.66" width="136.49" height="136.49" transform="translate(-107.38 390.77) rotate(-30)"/></g><g class="cls-20"><rect class="cls-21" x="589.01" y="279.94" width="99.92" height="99.92"/></g><g class="cls-22"><rect class="cls-23" x="446.88" y="260.41" width="108.7" height="108.7" transform="translate(-67.4 483.52) rotate(-45)"/></g><g class="cls-24"><rect class="cls-25" x="447.48" y="130.34" width="209.99" height="209.99" transform="translate(-35.29 344.68) rotate(-30)"/></g><g class="cls-26"><rect class="cls-27" x="530.09" y="331.18" width="99.92" height="99.92"/></g><g class="cls-28"><rect class="cls-29" x="601.14" y="284.01" width="105.08" height="105.08" transform="translate(-38.16 597.7) rotate(-45)"/></g><g class="cls-30"><rect class="cls-31" x="443.86" y="326.57" width="84" height="84" transform="translate(-110.83 329.22) rotate(-30)"/></g><g class="cls-2"><path class="cls-32" d="M1279.37,564.63v111.3H3.65L1,449.66l-.12-10v-.48L.63,414.28H.78c3.6,0,70.74-.76,128.81-1.3h0l17.62-.16c35-.31,63.38-.52,66.9-.4,14.41.49,40.53.92,73.73,46.16h0q2.53,3.46,5.13,7.27,5.21,7.68,10.57,15A434.09,434.09,0,0,0,337,521.31a355.13,355.13,0,0,0,33.28,31.34Q378,559,385.92,564.73a272.87,272.87,0,0,0,29.4,18.54,233.81,233.81,0,0,0,43.22,18.3,205.25,205.25,0,0,0,60.34,9.16H851.23q4.49,0,8.95-.43c15.15-1.45,30.09-6.59,44.42-15.3q2.69-1.62,5.35-3.43c.39-.25.76-.51,1.14-.77,1.87-1.3,3.74-2.65,5.59-4.07a168.13,168.13,0,0,0,25-24,223,223,0,0,0,17.43-23.33l.46-.72c1-1.48,1.91-3,2.86-4.51.57-.91,1.14-1.84,1.69-2.77s1.05-1.74,1.57-2.62l.79-1.34q4-6.93,7.83-14.41,1.34-2.65,2.64-5.37c.4-.82.79-1.64,1.17-2.47,22.6-48.3,54.56-75.82,88.07-75.82h60.13a119.06,119.06,0,0,1,4,30.64c0,35.87-18,61.48-44.46,76.74l10.41,26.84Z" transform="translate(8.36 36.91)"/></g><g class="cls-33"><rect class="cls-34" x="-0.64" y="438.88" width="1281.81" height="367.26" transform="translate(2.4 43.09) rotate(-0.55)"/></g><g class="cls-2"><g class="cls-35"><g class="cls-36"><path class="cls-37" d="M700.27,569.83c0,4.42-44.32,8-99,8s-99-3.58-99-8,44.32-8,99-8,99,3.58,99,8" transform="translate(8.36 36.91)"/></g></g><g class="cls-35"><g class="cls-38"><path class="cls-37" d="M1089.27,770.83c0,2.21-25.3,4-56.5,4s-56.5-1.79-56.5-4,25.3-4,56.5-4,56.5,1.79,56.5,4" transform="translate(8.36 36.91)"/></g></g><g class="cls-35"><g class="cls-39"><path class="cls-37" d="M258.27,563.83c0,6.08-48.35,11-108,11s-108-4.92-108-11,48.35-11,108-11,108,4.93,108,11" transform="translate(8.36 36.91)"/></g></g><g class="cls-35"><g class="cls-40"><path class="cls-37" d="M823.27,570.83c0,1.66-3.61,3.24-10.08,4.65a194.35,194.35,0,0,1-20,3c-19.65,2.09-47.27,3.38-77.87,3.38-23.05,0-44.42-.74-62-2-9.07-.65-17.08-1.44-23.82-2.34h-.07c-12-1.6-19.84-3.55-21.71-5.67a1.52,1.52,0,0,1-.44-1c0-1.4,2.58-2.75,7.29-4,6.27-1.64,16.32-3.09,29.07-4.24q3.43-.31,7.13-.6,5.23-.39,10.92-.72c5.19-.31,10.65-.57,16.33-.78h0c10.72-.4,22.25-.63,34.26-.66h3c7.15,0,14.14.07,20.9.2,15.84.32,30.44,1,43,1.93,8.79.65,16.57,1.44,23,2.34,3.72.51,7,1.06,9.82,1.64,7.21,1.47,11.26,3.13,11.26,4.89" transform="translate(8.36 36.91)"/></g></g></g><g class="cls-41"><rect class="cls-42" x="719.97" y="308.58" width="25.09" height="309.65"/></g><g class="cls-43"><rect class="cls-44" x="561.02" y="153.99" width="351.17" height="291.74" transform="translate(84.78 780.24) rotate(-56.04)"/></g><g class="cls-2"><g class="cls-35"><g class="cls-45"><path class="cls-37" d="M179.27,559.83c0,3.31-7.16,6-16,6s-16-2.69-16-6,7.16-6,16-6,16,2.69,16,6" transform="translate(8.36 36.91)"/></g></g><path class="cls-13" d="M1279.5,342.12V800H1V698.61H609a196.21,196.21,0,0,0,23.23-1.37l1.58-.18a204.19,204.19,0,0,0,20.91-3.75c3.09-.71,6.15-1.5,9.22-2.36a220.07,220.07,0,0,0,27.21-9.62q4.16-1.77,8.28-3.75c.14,0,.27-.12.4-.18l3-1.47c1.5-.74,3-1.5,4.5-2.28q5.52-2.85,11-6c3.25-1.89,6.47-3.88,9.7-6,1.87-1.22,3.77-2.46,5.64-3.74l.28-.19q2.68-1.83,5.37-3.74,6.2-4.44,12.3-9.3c1.11-.88,2.23-1.78,3.32-2.69a340.28,340.28,0,0,0,33.24-31.28q2.64-2.8,5.23-5.7l.88-1q5.41-6,10.69-12.48l.07-.08q2.54-3.09,5.06-6.27c3.24-4.11,6.46-8.33,9.62-12.65q4.95-6.72,9.77-13.79l.27-.41,1.18-1.73,0,0q2.57-3.79,5.08-7.69,4.44-6.85,8.75-14c.16-.28.32-.53.47-.8,0,0,0,0,0,0q2.41-4,4.76-8.07c.31-.53.61-1.07.92-1.61v0q4.05-7,8-14.31,5-9.23,9.69-18.92a423.18,423.18,0,0,1,24.34-43.57h0c.08-.11.15-.23.23-.35,14.56-22.62,30.4-41.88,47.19-57.5l.6-.56q8.14-7.54,16.59-13.92,5.64-4.24,11.36-8A165.8,165.8,0,0,1,1000.73,351a135.56,135.56,0,0,1,47.91-8.91Z" transform="translate(8.36 36.91)"/><rect class="cls-32" x="9.4" y="826.51" width="1279.46" height="10.4"/><g class="cls-35"><g class="cls-46"><path class="cls-37" d="M1212.27,346.83c0,2.76-34,5-76,5-12.3,0-23.91-.19-34.19-.54h0c-20.55-.68-35.75-2-40.35-3.48-.95-.32-1.45-.65-1.45-1s.42-.61,1.24-.9c2.47-.89,8.54-1.7,17.17-2.37,8.48-.64,19.43-1.14,31.9-1.44q4.58-.11,9.41-.17c5.24-.08,10.69-.12,16.28-.12q3.9,0,7.71,0c6.25,0,12.27.13,18,.26,29.33.7,50.31,2.54,50.31,4.71" transform="translate(8.36 36.91)"/></g></g><g class="cls-35"><g class="cls-47"><path class="cls-37" d="M1044.27,769.83c0,1.11-4.25,2-9.5,2s-9.5-.89-9.5-2,4.25-2,9.5-2,9.5.89,9.5,2" transform="translate(8.36 36.91)"/></g></g><g class="cls-35"><g class="cls-48"><path class="cls-37" d="M1044.27,775.83c0,6.08-48.35,11-108,11s-108-4.92-108-11,48.35-11,108-11,108,4.92,108,11" transform="translate(8.36 36.91)"/></g></g><g class="cls-35"><g class="cls-49"><path class="cls-37" d="M1119.27,776.83c0,6.08-35.82,11-80,11s-80-4.92-80-11,35.82-11,80-11,80,4.92,80,11" transform="translate(8.36 36.91)"/></g></g></g><g class="cls-50"><rect class="cls-51" x="937.66" y="661.15" width="195.67" height="23.05" transform="matrix(0.03, -1, 1, 0.03, 337.38, 1722.32)"/></g><g class="cls-52"><rect class="cls-53" x="940.44" y="505.32" width="190.14" height="181.59" transform="translate(-51.64 1109.98) rotate(-53.46)"/></g><g class="cls-2"><g class="cls-35"><g class="cls-54"><path class="cls-37" d="M952.27,774.83c0,3.31-8.28,6-18.5,6s-18.5-2.69-18.5-6,8.28-6,18.5-6,18.5,2.69,18.5,6" transform="translate(8.36 36.91)"/></g></g></g><g class="cls-55"><rect class="cls-56" x="788.39" y="475.04" width="177.16" height="176.11" transform="translate(-156.62 577.88) rotate(-31.49)"/></g><g class="cls-57"><rect class="cls-58" x="741.58" y="411.21" width="162.94" height="164.22" transform="translate(-108.1 725.39) rotate(-42.67)"/></g><g class="cls-59"><rect class="cls-60" x="750.45" y="531.94" width="357.2" height="141.6" transform="translate(257.53 1513.84) rotate(-85.1)"/></g><g class="cls-61"><rect class="cls-62" x="898.79" y="476.62" width="153.01" height="160.27" transform="translate(-135.23 689.99) rotate(-34.64)"/></g><g class="cls-63"><rect class="cls-64" x="769.77" y="275.52" width="344.45" height="349.96" transform="translate(-16.03 882.9) rotate(-47.82)"/></g><g class="cls-65"><rect class="cls-66" x="802.83" y="471.47" width="148.29" height="147.1" transform="translate(-145.25 645.33) rotate(-35.38)"/></g><g class="cls-67"><rect class="cls-68" x="490.27" y="445.74" width="157.13" height="176.36" transform="matrix(0.59, -0.8, 0.8, 0.59, -190.1, 711.9)"/></g><g class="cls-69"><rect class="cls-70" x="990.14" y="189" width="283.67" height="33.57" transform="translate(897.3 1367.26) rotate(-88.11)"/></g><g class="cls-71"><rect class="cls-72" x="1060.4" y="79.32" width="163.88" height="222.42"/></g><g class="cls-2"><g class="cls-35"><g class="cls-73"><path class="cls-37" d="M1104.27,349.33c0,3.59-21.27,6.5-47.5,6.5s-47.5-2.91-47.5-6.5,21.27-6.5,47.5-6.5,47.5,2.91,47.5,6.5" transform="translate(8.36 36.91)"/></g></g></g><g class="cls-74"><rect class="cls-75" x="1023.69" y="302.72" width="61.43" height="49.27" transform="translate(5.2 47.26) rotate(-0.56)"/></g><g class="cls-76"><rect class="cls-77" x="1004.48" y="237.45" width="99.83" height="99.83" transform="translate(284.01 1091.02) rotate(-59.8)"/></g><g class="cls-78"><rect class="cls-79" x="998.31" y="279.95" width="51.33" height="51.33" transform="translate(42.89 746.17) rotate(-38.81)"/></g><g class="cls-80"><rect class="cls-81" x="1055.91" y="264.55" width="73.46" height="73.46" transform="translate(170.06 984.71) rotate(-50.19)"/></g><g class="cls-82"><rect class="cls-83" x="93.11" y="116.54" width="125.59" height="123.86" transform="translate(-72.7 214.2) rotate(-48.58)"/></g><g class="cls-84"><rect class="cls-85" x="54.1" y="177.8" width="125.06" height="119.16" transform="matrix(0.54, -0.84, 0.84, 0.54, -137.75, 244.03)"/></g><g class="cls-86"><rect class="cls-87" x="144.34" y="161.49" width="140.95" height="124.86" transform="translate(-75.63 344.52) rotate(-61.83)"/></g><g class="cls-88"><rect class="cls-89" x="99.95" y="285.11" width="108.5" height="313.18"/></g><g class="cls-90"><rect class="cls-91" x="14.59" y="235.79" width="125.55" height="121" transform="translate(-200.28 223.78) rotate(-54.43)"/></g><g class="cls-92"><rect class="cls-93" x="59.47" y="193.71" width="200.15" height="167.96" transform="translate(-147.09 372.45) rotate(-70.53)"/></g><g class="cls-94"><rect class="cls-95" x="180.16" y="235.44" width="93.87" height="93.87" transform="translate(-111.81 422.79) rotate(-67.79)"/></g><g class="cls-96"><rect class="cls-97" x="169.37" y="304.26" width="97.45" height="91.22" transform="matrix(0.27, -0.96, 0.96, 0.27, -169.36, 502.13)"/></g><g class="cls-98"><rect class="cls-99" x="548.56" y="468.59" width="124.56" height="171.32" transform="matrix(0.53, -0.85, 0.85, 0.53, -173.67, 818.47)"/></g><g class="cls-2"><g class="cls-35"><g class="cls-100"><path class="cls-37" d="M340.27,711.83c0,3.31-9.18,6-20.5,6s-20.5-2.69-20.5-6,9.18-6,20.5-6,20.5,2.69,20.5,6" transform="translate(8.36 36.91)"/></g></g><g class="cls-35"><g class="cls-101"><path class="cls-37" d="M448.27,720.83c0,7.18-48.35,13-108,13s-108-5.82-108-13,48.35-13,108-13,108,5.82,108,13" transform="translate(8.36 36.91)"/></g></g><g class="cls-35"><g class="cls-102"><path class="cls-37" d="M755.27,756.83c0,8.84-77.9,16-174,16s-174-7.16-174-16,77.9-16,174-16,174,7.16,174,16" transform="translate(8.36 36.91)"/></g></g></g><g class="cls-103"><rect class="cls-104" x="450.66" y="539.95" width="256.36" height="187.57" transform="matrix(0.82, -0.58, 0.58, 0.82, -251.16, 486.71)"/></g><g class="cls-105"><rect class="cls-106" x="512.6" y="755.32" width="16.13" height="44.35"/></g><g class="cls-107"><rect class="cls-108" x="661.79" y="755.32" width="16.13" height="44.35"/></g><g class="cls-109"><rect class="cls-110" x="486.47" y="524.77" width="184.74" height="258.24" transform="translate(-279.62 796.86) rotate(-55.46)"/></g><g class="cls-111"><rect class="cls-112" x="466.22" y="561.44" width="225.24" height="225.24" transform="translate(-298.73 643.64) rotate(-45)"/></g><g class="cls-113"><rect class="cls-114" x="454.43" y="595.16" width="248.81" height="198.12" transform="translate(-295.68 537.46) rotate(-37.81)"/></g><g class="cls-2"><path class="cls-115" d="M736.6,722.44H425.1a1.5,1.5,0,0,1-1.5-1.5V707.81a1.5,1.5,0,0,1,1.5-1.5H736.6a1.5,1.5,0,0,1,1.5,1.5v13.13a1.5,1.5,0,0,1-1.5,1.5" transform="translate(8.36 36.91)"/></g><g class="cls-116"><rect class="cls-117" x="273.47" y="594.32" width="146.89" height="92.04" transform="translate(-293.65 1007.82) rotate(-88.55)"/></g><g class="cls-118"><rect class="cls-119" x="294.11" y="400.08" width="188.23" height="190.22" transform="translate(-101.13 917.07) rotate(-89.63)"/></g><g class="cls-2"><path class="cls-120" d="M293.72,494.69h0a4.18,4.18,0,0,0,0,.5c0-.17,0-.33,0-.5" transform="translate(8.36 36.91)"/><path class="cls-120" d="M293.72,495.69c0-.17,0-.33,0-.5a4.18,4.18,0,0,0,0,.5Z" transform="translate(8.36 36.91)"/><path class="cls-120" d="M347.72,525.69c0,.67,0,1.34,0,2,0-.67-.05-1.33-.1-2Z" transform="translate(8.36 36.91)"/></g><g class="cls-121"><rect class="cls-122" x="260.12" y="514.67" width="95.92" height="99.86"/></g><g class="cls-2"><path class="cls-120" d="M347.72,529.69h-.14c0-.67.08-1.33.1-2,0,.66,0,1.33,0,2" transform="translate(8.36 36.91)"/><path class="cls-120" d="M375.72,567.69h0c0,.16,0,.31,0,.47,0-.16,0-.31,0-.47" transform="translate(8.36 36.91)"/></g><g class="cls-123"><rect class="cls-124" x="375.12" y="516.13" width="97.2" height="104.05" transform="translate(1.71 41.93) rotate(-0.67)"/></g><g class="cls-2"><path class="cls-120" d="M375.72,568.62c0-.15,0-.31,0-.46,0,.15,0,.31,0,.46Z" transform="translate(8.36 36.91)"/></g></g></svg>