<svg id="Laag_1" data-name="Laag 1" xmlns="http://www.w3.org/2000/svg" xmlns:xlink="http://www.w3.org/1999/xlink" viewBox="0 0 334.73 192.79"><defs><style>.cls-1{fill:none;}.cls-2{clip-path:url(#clip-path);}.cls-3{clip-path:url(#clip-path-2);}.cls-4{fill:url(#Naamloos_verloop);}.cls-5{clip-path:url(#clip-path-3);}.cls-6{fill:url(#Naamloos_verloop_2);}.cls-7{clip-path:url(#clip-path-4);}.cls-8{fill:url(#Naamloos_verloop_3);}.cls-9{clip-path:url(#clip-path-5);}.cls-10{fill:url(#Naamloos_verloop_4);}.cls-11{clip-path:url(#clip-path-6);}.cls-12{fill:url(#Naamloos_verloop_5);}.cls-13{clip-path:url(#clip-path-7);}.cls-14{fill:url(#Naamloos_verloop_6);}.cls-15{clip-path:url(#clip-path-8);}.cls-16{fill:url(#Naamloos_verloop_7);}.cls-17{clip-path:url(#clip-path-9);}.cls-18{fill:url(#Naamloos_verloop_8);}.cls-19{opacity:0.21;}.cls-20{clip-path:url(#clip-path-11);}.cls-21{fill:#fff;}.cls-22{clip-path:url(#clip-path-12);}.cls-23{fill:url(#Naamloos_verloop_9);}.cls-24{clip-path:url(#clip-path-13);}.cls-25{fill:url(#Naamloos_verloop_10);}.cls-26{clip-path:url(#clip-path-14);}.cls-27{fill:url(#Naamloos_verloop_11);}.cls-28{clip-path:url(#clip-path-15);}.cls-29{fill:url(#Naamloos_verloop_12);}.cls-30{clip-path:url(#clip-path-16);}.cls-31{fill:url(#Naamloos_verloop_13);}.cls-32{clip-path:url(#clip-path-17);}.cls-33{fill:url(#Naamloos_verloop_14);}.cls-34{clip-path:url(#clip-path-19);}.cls-35{clip-path:url(#clip-path-20);}</style><clipPath id="clip-path" transform="translate(-198 -314.1)"><rect class="cls-1" width="1280" height="800"/></clipPath><clipPath id="clip-path-2" transform="translate(-198 -314.1)"><path class="cls-1" d="M239.85,340.7,230.42,357a6.56,6.56,0,0,0,2.4,9l32.42,18.72a6.56,6.56,0,0,0,9-2.4l14.23-24.65a19.2,19.2,0,0,0-7-26.22l-2.22-1.28a28.79,28.79,0,0,0-39.35,10.54"/></clipPath><linearGradient id="Naamloos_verloop" y1="799.99" x2="1" y2="799.99" gradientTransform="matrix(61.47, 0, 0, -61.47, 31.54, 49220.4)" gradientUnits="userSpaceOnUse"><stop offset="0" stop-color="#0a8949"/><stop offset="0.26" stop-color="#0a8949"/><stop offset="0.46" stop-color="#036a3b"/><stop offset="1" stop-color="#036a3b"/></linearGradient><clipPath id="clip-path-3" transform="translate(-198 -314.1)"><path class="cls-1" d="M278.73,333.51,304,375.65l-15.8,10.53,45.29-2.11,23.17-40-17.91,9.48-9.29-16.73a19.41,19.41,0,0,0-5.67-6.47,16,16,0,0,0-9.26-3.14c-13,0-40.15-.71-49.46-1a21.28,21.28,0,0,1,13.64,7.28m-16.85-7.37,3.21.09a18.72,18.72,0,0,0-2.16-.13c-.67,0-1,0-1,0"/></clipPath><linearGradient id="Naamloos_verloop_2" y1="800" y2="800" gradientTransform="matrix(94.8, 0, 0, -94.8, 63.87, 75883.24)" xlink:href="#Naamloos_verloop"/><clipPath id="clip-path-4" transform="translate(-198 -314.1)"><path class="cls-1" d="M343.84,384,315.2,408.09a6.56,6.56,0,0,0-.79,9.24l18.33,21.77a19.19,19.19,0,0,0,27,2.32l2-1.65a28.81,28.81,0,0,0,3.48-40.59l-12.14-14.42a6.56,6.56,0,0,0-9.24-.79"/></clipPath><linearGradient id="Naamloos_verloop_3" y1="799.98" y2="799.98" gradientTransform="matrix(59.13, 0, 0, -59.13, 114.86, 47405.57)" xlink:href="#Naamloos_verloop"/><clipPath id="clip-path-5" transform="translate(-198 -314.1)"><path class="cls-1" d="M358.82,437.18l-48.22,9.43-4.53-18.44-13.44,43.31,29.75,35.42-2.82-20.07,18.9-3a19.4,19.4,0,0,0,8-3.13,16,16,0,0,0,6.1-7.64c4.43-12.23,14.34-37.52,17.75-46.18a21.28,21.28,0,0,1-11.49,10.35m11.49-10.35a15.66,15.66,0,0,0,1.18-3l-1.18,3"/></clipPath><linearGradient id="Naamloos_verloop_4" y1="800" y2="800" gradientTransform="matrix(78.86, 0, 0, -78.86, 94.63, 63238.6)" xlink:href="#Naamloos_verloop"/><clipPath id="clip-path-6" transform="translate(-198 -314.1)"><path class="cls-1" d="M215.45,456l-.28,2.55a28.81,28.81,0,0,0,25.45,31.81l18.74,2.08a6.56,6.56,0,0,0,7.24-5.8l4.13-37.21a6.56,6.56,0,0,0-5.8-7.24l-28.29-3.14a19.57,19.57,0,0,0-2.14-.12A19.2,19.2,0,0,0,215.45,456"/></clipPath><linearGradient id="Naamloos_verloop_5" y1="800" y2="800" gradientTransform="matrix(55.78, 0, 0, -55.78, 16.98, 44776.24)" xlink:href="#Naamloos_verloop"/><clipPath id="clip-path-7" transform="translate(-198 -314.1)"><path class="cls-1" d="M219.7,476.25l-1.21-3a15.59,15.59,0,0,0,1.21,3m-5.79-81.42-11.59,15.23a19.39,19.39,0,0,0-3.65,7.79,16,16,0,0,0,.85,9.74c5.22,11.91,15.47,37.06,19,45.68a21.28,21.28,0,0,1,1.19-15.42l28.44-40.07,16,10.24L244,387.39l-46-5.15Z"/></clipPath><linearGradient id="Naamloos_verloop_6" y1="800" y2="800" gradientTransform="matrix(66.08, 0, 0, -66.08, 0.04, 52976.44)" xlink:href="#Naamloos_verloop"/><clipPath id="clip-path-8" transform="translate(-198 -314.1)"><path class="cls-1" d="M471.76,348.92V486.16c0,4,13.65,7.3,30.49,7.3s30.49-3.27,30.49-7.3V348.92l-30.49-24.09Z"/></clipPath><linearGradient id="Naamloos_verloop_7" y1="800" x2="1" y2="800" gradientTransform="matrix(60.97, 0, 0, -60.97, 273.76, 48874.67)" gradientUnits="userSpaceOnUse"><stop offset="0" stop-color="#47c1be"/><stop offset="0" stop-color="#47c1be"/><stop offset="1" stop-color="#249abc"/></linearGradient><clipPath id="clip-path-9" transform="translate(-198 -314.1)"><path class="cls-1" d="M471.76,348.92s7.94,8.17,30.49,8.17,30.49-8.17,30.49-8.17l-30.49-24.09Z"/></clipPath><linearGradient id="Naamloos_verloop_8" x1="0" y1="800" x2="1" y2="800" gradientTransform="matrix(60.97, 0, 0, -60.97, 273.76, 48806.49)" xlink:href="#Naamloos_verloop_7"/><clipPath id="clip-path-11" transform="translate(-198 -314.1)"><rect class="cls-1" x="471.76" y="324.82" width="60.97" height="32.27"/></clipPath><clipPath id="clip-path-12" transform="translate(-198 -314.1)"><path class="cls-1" d="M530.34,401.4a25.92,25.92,0,0,1-6.53,2.32,109.71,109.71,0,0,1-43.12,0,25.93,25.93,0,0,1-6.53-2.32c-1.59-.9-2.4-1.85-2.4-2.84v37.23c0,4,13.65,7.3,30.49,7.3s30.49-3.27,30.49-7.3V398.55c0,1-.81,1.94-2.4,2.84"/></clipPath><linearGradient id="Naamloos_verloop_9" y1="800" x2="1" y2="800" gradientTransform="matrix(60.97, 0, 0, -60.97, 273.76, 48886.28)" gradientUnits="userSpaceOnUse"><stop offset="0" stop-color="#fff"/><stop offset="0" stop-color="#ececec"/><stop offset="1" stop-color="#798c96"/></linearGradient><clipPath id="clip-path-13" transform="translate(-198 -314.1)"><path class="cls-1" d="M488.17,317.41v14.08c0,1.83,6.3,3.31,14.08,3.31s14.08-1.48,14.08-3.31V317.41Z"/></clipPath><linearGradient id="Naamloos_verloop_10" y1="800" x2="1" y2="800" gradientTransform="matrix(28.16, 0, 0, -28.16, 290.16, 22540.56)" gradientUnits="userSpaceOnUse"><stop offset="0" stop-color="#d8d9d8"/><stop offset="1" stop-color="#adbac2"/></linearGradient><clipPath id="clip-path-14" transform="translate(-198 -314.1)"><path class="cls-1" d="M488.17,317.41c0,1.83,6.3,3.31,14.08,3.31s14.08-1.48,14.08-3.31-6.3-3.31-14.08-3.31-14.08,1.48-14.08,3.31"/></clipPath><linearGradient id="Naamloos_verloop_11" x1="0" y1="800" x2="1" y2="800" gradientTransform="matrix(-28.16, 0, 0, 28.16, 318.32, -22525.24)" xlink:href="#Naamloos_verloop_10"/><clipPath id="clip-path-15" transform="translate(-198 -314.1)"><path class="cls-1" d="M507.19,389.83s.59,0,1.57,0h-1.57m17.7-4.28c-4,3.58-12.6,4.18-16.13,4.27,4.23,0,15.74-.17,18.1-.54,2.9-.46,5.87-14.3,5.87-14.3a35.39,35.39,0,0,1-7.84,10.57"/></clipPath><linearGradient id="Naamloos_verloop_12" y1="800" x2="1" y2="800" gradientTransform="matrix(25.54, 0, 0, -25.54, 309.19, 20501.65)" gradientUnits="userSpaceOnUse"><stop offset="0" stop-color="#3f6bb1"/><stop offset="1" stop-color="#249abc"/></linearGradient><clipPath id="clip-path-16" transform="translate(-198 -314.1)"><path class="cls-1" d="M482.8,465.79s1.15,0,3.07,0H482.8m34.6-4.28c-7.87,3.58-24.63,4.18-31.54,4.27,8.28,0,30.77-.17,35.38-.54,5.68-.46,11.48-14.3,11.48-14.3a48.63,48.63,0,0,1-15.33,10.57"/></clipPath><linearGradient id="Naamloos_verloop_13" x1="0" y1="800" x2="1" y2="800" gradientTransform="matrix(49.93, 0, 0, -49.93, 284.8, 40090.35)" xlink:href="#Naamloos_verloop_12"/><clipPath id="clip-path-17" transform="translate(-198 -314.1)"><path class="cls-1" d="M515.28,375s.4,0,1.07,0h-1.07m12.1-4.28c-2.75,3.58-8.61,4.18-11,4.27,2.89,0,10.76-.17,12.37-.54,2-.46,4-14.3,4-14.3a38.48,38.48,0,0,1-5.36,10.57"/></clipPath><linearGradient id="Naamloos_verloop_14" x1="0" y1="800" x2="1" y2="800" gradientTransform="matrix(17.46, 0, 0, -17.46, 317.28, 14017.45)" xlink:href="#Naamloos_verloop_12"/><clipPath id="clip-path-19" transform="translate(-198 -314.1)"><rect class="cls-1" x="472.23" y="361.64" width="17.45" height="14.86"/></clipPath><clipPath id="clip-path-20" transform="translate(-198 -314.1)"><rect class="cls-1" x="472.23" y="378.93" width="28.71" height="14.86"/></clipPath></defs><title>background_image_scene7</title><g class="cls-2"><g class="cls-3"><rect class="cls-4" x="30.6" y="12.19" width="65.13" height="60.23"/></g><g class="cls-5"><rect class="cls-6" x="63.87" y="12" width="94.8" height="60.08"/></g><g class="cls-7"><rect class="cls-8" x="114.07" y="68.33" width="63.4" height="65.82"/></g><g class="cls-9"><rect class="cls-10" x="94.63" y="109.75" width="78.86" height="83.04"/></g><g class="cls-11"><rect class="cls-12" x="15.41" y="124.86" width="57.72" height="53.91"/></g><g class="cls-13"><rect class="cls-14" y="68.14" width="66.12" height="94.01"/></g><g class="cls-15"><rect class="cls-16" x="273.76" y="10.72" width="60.97" height="168.63"/></g><g class="cls-17"><rect class="cls-18" x="273.76" y="10.72" width="60.97" height="32.27"/></g><g class="cls-2"><g class="cls-19"><g class="cls-20"><path class="cls-21" d="M502.25,324.82l30.49,24.09s-7.94,8.18-30.49,8.18-30.49-8.18-30.49-8.18Z" transform="translate(-198 -314.1)"/></g></g></g><g class="cls-22"><rect class="cls-23" x="273.76" y="84.45" width="60.97" height="44.53"/></g><g class="cls-24"><rect class="cls-25" x="290.16" y="3.31" width="28.16" height="17.39"/></g><g class="cls-26"><rect class="cls-27" x="290.16" width="28.16" height="6.63"/></g><g class="cls-28"><rect class="cls-29" x="309.19" y="60.87" width="25.54" height="14.87"/></g><g class="cls-30"><rect class="cls-31" x="284.8" y="136.84" width="49.93" height="14.87"/></g><g class="cls-32"><rect class="cls-33" x="317.28" y="46.02" width="17.45" height="14.87"/></g><g class="cls-2"><g class="cls-19"><g class="cls-34"><path class="cls-21" d="M489.69,361.64s-8.58-.28-12.1,4.28a38.51,38.51,0,0,0-5.36,10.57s2-13.84,4-14.3,13.44-.56,13.44-.56" transform="translate(-198 -314.1)"/></g></g><g class="cls-19"><g class="cls-35"><path class="cls-21" d="M500.94,393.78s-14.12.29-19.89-4.28a35.74,35.74,0,0,1-8.81-10.57s3.34,13.84,6.6,14.3,22.1.55,22.1.55" transform="translate(-198 -314.1)"/></g></g></g></g></svg>