<svg id="Laag_1" data-name="Laag 1" xmlns="http://www.w3.org/2000/svg" xmlns:xlink="http://www.w3.org/1999/xlink" viewBox="0 0 1203 819.86"><defs><style>.cls-1{fill:url(#Naamloos_verloop_44);}.cls-2{fill:#a7c019;}.cls-3{fill:#e7c042;}.cls-4{fill:#cfd300;}.cls-5{fill:url(#Naamloos_verloop_13);}.cls-6{fill:url(#Naamloos_verloop_8);}.cls-7{fill:#fff;}.cls-8{fill:url(#Naamloos_verloop_7);}.cls-9{fill:url(#Naamloos_verloop_7-2);}.cls-10{fill:url(#Naamloos_verloop_104);}.cls-11{fill:url(#Naamloos_verloop_29);}.cls-12{fill:#aaaa30;}.cls-13{fill:#d5d900;}.cls-14{fill:url(#Naamloos_verloop_13-2);}.cls-15{fill:url(#Naamloos_verloop_19);}.cls-16{fill:url(#Naamloos_verloop_7-3);}.cls-17{fill:url(#Naamloos_verloop_8-2);}.cls-18{fill:url(#Naamloos_verloop_104-2);}.cls-19{fill:url(#Naamloos_verloop_8-3);}.cls-20{fill:url(#Naamloos_verloop_8-4);}.cls-21{fill:url(#Naamloos_verloop_8-5);}.cls-22{fill:url(#Naamloos_verloop_29-2);}.cls-23{fill:url(#Naamloos_verloop_29-3);}.cls-24{fill:url(#Naamloos_verloop_29-4);}.cls-25{fill:url(#Naamloos_verloop_29-5);}.cls-26{fill:url(#Naamloos_verloop_104-3);}.cls-27{fill:url(#Naamloos_verloop_8-6);}.cls-28{fill:url(#Naamloos_verloop_13-3);}.cls-29{fill:url(#Naamloos_verloop_13-4);}.cls-30{fill:url(#Naamloos_verloop_13-5);}.cls-31{fill:url(#Naamloos_verloop_13-6);}.cls-32{fill:url(#Naamloos_verloop_13-7);}.cls-33{fill:url(#Naamloos_verloop_13-8);}.cls-34{fill:url(#Naamloos_verloop_13-9);}.cls-35{fill:url(#Naamloos_verloop_13-10);}.cls-36{fill:url(#Naamloos_verloop_19-2);}.cls-37{fill:#efefef;}.cls-38{fill:url(#Naamloos_verloop_104-4);}.cls-39{fill:url(#Naamloos_verloop_29-6);}.cls-40{fill:url(#Naamloos_verloop_29-7);}.cls-41{fill:url(#Naamloos_verloop_29-8);}.cls-42{fill:url(#Naamloos_verloop_19-3);}.cls-43{fill:url(#Naamloos_verloop_19-4);}.cls-44{fill:url(#Naamloos_verloop_19-5);}.cls-45{fill:url(#Naamloos_verloop_13-11);}.cls-46{fill:url(#Naamloos_verloop_19-6);}.cls-47{fill:url(#Naamloos_verloop_19-7);}.cls-48{fill:url(#Naamloos_verloop_19-8);}.cls-49{fill:url(#Naamloos_verloop_19-9);}.cls-50{fill:url(#Naamloos_verloop_19-10);}.cls-51{fill:url(#Naamloos_verloop_8-7);}.cls-52{fill:url(#Naamloos_verloop_8-8);}.cls-53{fill:url(#Naamloos_verloop_19-11);}.cls-54{fill:url(#Naamloos_verloop_19-12);}.cls-55{fill:url(#Naamloos_verloop_19-13);}.cls-56{fill:url(#Naamloos_verloop_19-14);}.cls-57{fill:url(#Naamloos_verloop_19-15);}.cls-58{fill:url(#Naamloos_verloop_19-16);}.cls-59{fill:url(#Naamloos_verloop_19-17);}.cls-60{fill:url(#Naamloos_verloop_19-18);}.cls-61{fill:url(#Naamloos_verloop_19-19);}</style><linearGradient id="Naamloos_verloop_44" x1="602.32" y1="820" x2="602.32" y2="-7.26" gradientUnits="userSpaceOnUse"><stop offset="0" stop-color="#dcffff"/><stop offset="1" stop-color="#eeecf4"/></linearGradient><linearGradient id="Naamloos_verloop_13" x1="343.9" y1="640.94" x2="254.72" y2="640.94" gradientUnits="userSpaceOnUse"><stop offset="0" stop-color="#9f7d5f"/><stop offset="1" stop-color="#d4a77f"/></linearGradient><linearGradient id="Naamloos_verloop_8" x1="273.99" y1="427.53" x2="407.95" y2="561.49" gradientUnits="userSpaceOnUse"><stop offset="0" stop-color="#9fb33c"/><stop offset="1" stop-color="#b8c500"/></linearGradient><linearGradient id="Naamloos_verloop_7" x1="251.69" y1="476.92" x2="251.69" y2="577.67" gradientUnits="userSpaceOnUse"><stop offset="0" stop-color="#d5d900"/><stop offset="1" stop-color="#9fb33c"/></linearGradient><linearGradient id="Naamloos_verloop_7-2" x1="402.3" y1="523.93" x2="351.27" y2="612.31" xlink:href="#Naamloos_verloop_7"/><linearGradient id="Naamloos_verloop_104" x1="763.13" y1="484.72" x2="788.33" y2="484.72" gradientUnits="userSpaceOnUse"><stop offset="0" stop-color="#9f7d5f"/><stop offset="1" stop-color="#6a544f"/></linearGradient><linearGradient id="Naamloos_verloop_29" x1="723.78" y1="383.21" x2="846.73" y2="383.21" gradientUnits="userSpaceOnUse"><stop offset="0" stop-color="#e7c042"/><stop offset="1" stop-color="#aaaa30"/></linearGradient><linearGradient id="Naamloos_verloop_13-2" x1="1108.72" y1="474.82" x2="1125.41" y2="474.82" xlink:href="#Naamloos_verloop_13"/><linearGradient id="Naamloos_verloop_19" x1="1060.79" y1="444.28" x2="1173.14" y2="444.28" gradientUnits="userSpaceOnUse"><stop offset="0" stop-color="#00974c"/><stop offset="1" stop-color="#007a4c"/></linearGradient><linearGradient id="Naamloos_verloop_7-3" x1="903.89" y1="497.15" x2="998.41" y2="497.15" xlink:href="#Naamloos_verloop_7"/><linearGradient id="Naamloos_verloop_8-2" x1="873.92" y1="446.44" x2="950" y2="446.44" xlink:href="#Naamloos_verloop_8"/><linearGradient id="Naamloos_verloop_104-2" x1="948.22" y1="525.97" x2="1029.45" y2="525.97" xlink:href="#Naamloos_verloop_104"/><linearGradient id="Naamloos_verloop_8-3" x1="1056.04" y1="511.84" x2="989.19" y2="473.25" xlink:href="#Naamloos_verloop_8"/><linearGradient id="Naamloos_verloop_8-4" x1="1102.15" y1="415.31" x2="894.67" y2="415.31" xlink:href="#Naamloos_verloop_8"/><linearGradient id="Naamloos_verloop_8-5" x1="915.42" y1="482.17" x2="986.88" y2="482.17" xlink:href="#Naamloos_verloop_8"/><linearGradient id="Naamloos_verloop_29-2" x1="76.96" y1="712.05" x2="157.66" y2="712.05" xlink:href="#Naamloos_verloop_29"/><linearGradient id="Naamloos_verloop_29-3" x1="31.76" y1="715.28" x2="112.47" y2="715.28" xlink:href="#Naamloos_verloop_29"/><linearGradient id="Naamloos_verloop_29-4" x1="28.6" y1="733.04" x2="125.32" y2="733.04" xlink:href="#Naamloos_verloop_29"/><linearGradient id="Naamloos_verloop_29-5" x1="-3.75" y1="733.04" x2="54.36" y2="733.04" xlink:href="#Naamloos_verloop_29"/><linearGradient id="Naamloos_verloop_104-3" x1="534.39" y1="514" x2="547.02" y2="514" xlink:href="#Naamloos_verloop_104"/><linearGradient id="Naamloos_verloop_8-6" x1="498.12" y1="491.04" x2="583.15" y2="491.04" xlink:href="#Naamloos_verloop_8"/><linearGradient id="Naamloos_verloop_13-3" x1="35.29" y1="747.6" x2="188.64" y2="747.6" xlink:href="#Naamloos_verloop_13"/><linearGradient id="Naamloos_verloop_13-4" x1="35.29" y1="755.55" x2="77.16" y2="755.55" xlink:href="#Naamloos_verloop_13"/><linearGradient id="Naamloos_verloop_13-5" x1="73.12" y1="755.55" x2="39.33" y2="755.55" xlink:href="#Naamloos_verloop_13"/><linearGradient id="Naamloos_verloop_13-6" x1="91.28" y1="743.19" x2="110.45" y2="743.19" xlink:href="#Naamloos_verloop_13"/><linearGradient id="Naamloos_verloop_13-7" x1="77.16" y1="769.42" x2="110.45" y2="769.42" xlink:href="#Naamloos_verloop_13"/><linearGradient id="Naamloos_verloop_13-8" x1="117.51" y1="756.3" x2="146.77" y2="756.3" xlink:href="#Naamloos_verloop_13"/><linearGradient id="Naamloos_verloop_13-9" x1="134.66" y1="768.41" x2="163.92" y2="768.41" xlink:href="#Naamloos_verloop_13"/><linearGradient id="Naamloos_verloop_13-10" x1="140.72" y1="741.17" x2="169.97" y2="741.17" xlink:href="#Naamloos_verloop_13"/><linearGradient id="Naamloos_verloop_19-2" x1="229.9" y1="689.4" x2="581.76" y2="689.4" xlink:href="#Naamloos_verloop_19"/><linearGradient id="Naamloos_verloop_104-4" x1="493.14" y1="568.72" x2="524.89" y2="568.72" xlink:href="#Naamloos_verloop_104"/><linearGradient id="Naamloos_verloop_29-6" x1="489.91" y1="547.8" x2="528.11" y2="547.8" xlink:href="#Naamloos_verloop_29"/><linearGradient id="Naamloos_verloop_29-7" x1="483.54" y1="557.35" x2="502.64" y2="557.35" xlink:href="#Naamloos_verloop_29"/><linearGradient id="Naamloos_verloop_29-8" x1="515.38" y1="555.07" x2="542.67" y2="555.07" xlink:href="#Naamloos_verloop_29"/><linearGradient id="Naamloos_verloop_19-3" x1="93.21" y1="181.03" x2="172.45" y2="181.03" xlink:href="#Naamloos_verloop_19"/><linearGradient id="Naamloos_verloop_19-4" x1="132.83" y1="240.47" x2="53.59" y2="240.47" xlink:href="#Naamloos_verloop_19"/><linearGradient id="Naamloos_verloop_19-5" x1="231.88" y1="210.75" x2="152.64" y2="210.75" xlink:href="#Naamloos_verloop_19"/><linearGradient id="Naamloos_verloop_13-11" x1="67.94" y1="409.36" x2="177.41" y2="409.36" xlink:href="#Naamloos_verloop_13"/><linearGradient id="Naamloos_verloop_19-6" x1="13.97" y1="299.9" x2="93.21" y2="299.9" xlink:href="#Naamloos_verloop_19"/><linearGradient id="Naamloos_verloop_19-7" x1="77.07" y1="281.14" x2="195.93" y2="281.14" xlink:href="#Naamloos_verloop_19"/><linearGradient id="Naamloos_verloop_19-8" x1="168.33" y1="285.86" x2="240.96" y2="285.86" xlink:href="#Naamloos_verloop_19"/><linearGradient id="Naamloos_verloop_19-9" x1="231.88" y1="353.96" x2="159.25" y2="353.96" xlink:href="#Naamloos_verloop_19"/><linearGradient id="Naamloos_verloop_19-10" x1="567.16" y1="592.95" x2="630.72" y2="592.95" xlink:href="#Naamloos_verloop_19"/><linearGradient id="Naamloos_verloop_8-7" x1="5.3" y1="547.7" x2="171.44" y2="547.7" xlink:href="#Naamloos_verloop_8"/><linearGradient id="Naamloos_verloop_8-8" x1="59.24" y1="567.21" x2="240.59" y2="567.21" xlink:href="#Naamloos_verloop_8"/><linearGradient id="Naamloos_verloop_19-11" x1="873.92" y1="766.62" x2="1040.06" y2="766.62" xlink:href="#Naamloos_verloop_19"/><linearGradient id="Naamloos_verloop_19-12" x1="927.86" y1="786.13" x2="1109.21" y2="786.13" xlink:href="#Naamloos_verloop_19"/><linearGradient id="Naamloos_verloop_19-13" x1="539.92" y1="597.5" x2="594.4" y2="597.5" xlink:href="#Naamloos_verloop_19"/><linearGradient id="Naamloos_verloop_19-14" x1="521.76" y1="611.11" x2="558.08" y2="611.11" xlink:href="#Naamloos_verloop_19"/><linearGradient id="Naamloos_verloop_19-15" x1="547.99" y1="615.15" x2="575.23" y2="615.15" xlink:href="#Naamloos_verloop_19"/><linearGradient id="Naamloos_verloop_19-16" x1="566.15" y1="606.08" x2="611.55" y2="606.08" xlink:href="#Naamloos_verloop_19"/><linearGradient id="Naamloos_verloop_19-17" x1="602.47" y1="610.61" x2="638.79" y2="610.61" xlink:href="#Naamloos_verloop_19"/><linearGradient id="Naamloos_verloop_19-18" x1="629.71" y1="619.69" x2="647.87" y2="619.69" xlink:href="#Naamloos_verloop_19"/><linearGradient id="Naamloos_verloop_19-19" x1="4531.66" y1="715.76" x2="4741.4" y2="715.76" gradientTransform="matrix(-1, 0, 0, 1, 5126.92, 0)" xlink:href="#Naamloos_verloop_19"/></defs><rect class="cls-1" x="0.03" y="-7.26" width="1204.57" height="827.26"/><path class="cls-2" d="M0,462.87H260.63s89.93,5.58,146.85,55.07a352.78,352.78,0,0,0,38.31,28.66l37.54,24.54c47,30.75,106.07,52.71,170.93,62.34,23.13,3.43,47.45,5.41,71.06,4.53,39.24-1.45,78.56-1.62,117.85-1.44l356.34,1.65v130L2.11,766.85Z"/><path class="cls-3" d="M.1,492.68s191.83-1.81,201.08-1.54c14.26.43,40.72.79,74.29,44,61.12,78.67,136.21,119.28,212.79,119.28H801.32c39.84,0,78.73-23.62,108.61-68.56,3.82-5.75,7.51-11.86,11-18.32,21.28-39.76,51.39-62.42,83-62.42H1204.6v203H3Z"/><path class="cls-4" d="M1201,570.63V819.86H.48V450Q5.7,453.36,11,456.67h0A754.61,754.61,0,0,0,169.59,532a778.43,778.43,0,0,0,79.52,22.37q11,2.49,22.17,4.65l1.08.22c15.82,3,31.91,5.66,48.12,7.69l1.55.19h0c13.47,1.67,27,2.92,40.6,3.69,15.05.84,30.11,1.1,45,.63,2.65-.08,5.29-.18,7.94-.31,40-1.94,80-3,120.06-3.51q5.09-.08,10.17-.12l10.17-.11,14.23-.1q31.23-.19,62.45,0c3.59,0,7.19,0,10.78,0h.19c3.18,0,6.36,0,9.54,0h1.43l80.36.48,2.93,0,9.26,0h0l22.63.14,33.07.19,68.37.42,69,.41Z"/><polygon class="cls-5" points="304.25 619.69 284.98 645.63 291.03 713.93 254.72 713.93 261.79 638.62 261.49 638.39 288.98 601.36 261.96 574.34 266.95 569.34 293.23 595.63 313.76 567.95 332.4 581.78 311.98 609.27 341.44 598.32 343.9 604.94 304.25 619.69"/><path class="cls-6" d="M436.3,494a4.34,4.34,0,0,1,0,.51,4.17,4.17,0,0,1,0,.5c-.54,51.91-43,93.83-95.33,93.83S246.18,546.92,245.65,495a4.17,4.17,0,0,1,0-.5,4.34,4.34,0,0,1,0-.51c.53-51.9,43-93.82,95.32-93.82S435.76,442.1,436.3,494Z"/><path class="cls-7" d="M245.64,494h0a4.34,4.34,0,0,0,0,.51C245.64,494.34,245.64,494.17,245.64,494Z"/><path class="cls-7" d="M245.64,495c0-.17,0-.33,0-.5a4.17,4.17,0,0,0,0,.5Z"/><path class="cls-7" d="M300.11,525.28c0,.67,0,1.35,0,2,0-.68-.05-1.35-.1-2Z"/><path class="cls-8" d="M300.07,527.3c0,.67-.05,1.34-.1,2-1.9,27.05-22.79,48.36-48.28,48.36s-46.38-21.31-48.28-48.36c-.06-.67-.09-1.34-.11-2s0-1.35.11-2c1.9-27,22.79-48.36,48.28-48.36s46.38,21.31,48.28,48.36C300,526,300.05,526.62,300.07,527.3Z"/><path class="cls-7" d="M300.11,529.31H300c0-.67.08-1.34.1-2C300.1,528,300.11,528.64,300.11,529.31Z"/><path class="cls-7" d="M328.36,567.65h0c0,.16,0,.31,0,.47C328.36,568,328.36,567.81,328.36,567.65Z"/><path class="cls-9" d="M425.2,567.65c0,.16,0,.31,0,.47s0,.32,0,.47c-.46,28.5-22,51.45-48.41,51.45s-48-22.95-48.42-51.45c0-.15,0-.32,0-.47s0-.31,0-.47c.47-28.5,22-51.45,48.42-51.45S424.74,539.15,425.2,567.65Z"/><path class="cls-7" d="M328.36,568.59c0-.15,0-.32,0-.47,0,.15,0,.32,0,.47Z"/><path class="cls-10" d="M773.76,328.53,763.13,637.38a3.33,3.33,0,0,0,3.23,3.54H785.1a3.33,3.33,0,0,0,3.23-3.51l-8.28-308.88Z"/><path class="cls-11" d="M846.73,382.07c0,105.78-41.54,173.3-75.5,173.3s-47.45-67.52-47.45-173.3,43.7-171,77.65-171S846.73,276.28,846.73,382.07Z"/><path class="cls-12" d="M1213.68,579.58v10.88h-3.84v229.4H.48V766.65H568.22q11.63,0,23.16-.81,14.16-1,28.14-3.2,12.81-2,25.41-5c2.71-.65,5.42-1.34,8.11-2.07q13.32-3.56,26.3-8.25,2.77-1,5.54-2.06,9.93-3.8,19.6-8.26a316.93,316.93,0,0,0,35.93-19.4,320.91,320.91,0,0,0,35.08-25.42q6.57-5.5,12.92-11.39c1.64-1.53,3.28-3.08,4.89-4.65,6-5.83,11.82-11.93,17.34-18.3a234.86,234.86,0,0,1,22.74-22.86h0a225.88,225.88,0,0,1,44.29-30.36,221.09,221.09,0,0,1,26.65-11.78,217.16,217.16,0,0,1,74.49-13.2Z"/><rect class="cls-13" x="0.48" y="796.3" width="1213.2" height="23.56"/><path class="cls-14" d="M1115.76,376.34l-7,194.73a2.14,2.14,0,0,0,2.13,2.23h12.41a2.15,2.15,0,0,0,2.14-2.21l-5.49-194.75Z"/><path class="cls-15" d="M1115.22,368.29a2.11,2.11,0,0,1,4,0l26.67,73.93,27.07,75a3.29,3.29,0,0,1-3.08,4.42H1062.91a2.13,2.13,0,0,1-2-2.86l27.63-76.59Z"/><ellipse class="cls-16" cx="951.15" cy="497.15" rx="47.26" ry="46.11"/><ellipse class="cls-17" cx="911.96" cy="446.44" rx="38.04" ry="46.11"/><path class="cls-18" d="M1029.3,536.92c-2.56,6.66-11.09,25-27.73,27.37l2.42,85.62a2.77,2.77,0,0,1-2.77,2.86H985.15a2.77,2.77,0,0,1-2.76-2.88L986.1,548c-12.59-2.93-35.48-11.39-37.86-34.26a2.42,2.42,0,0,1,0-.37v-8.83a2.79,2.79,0,0,1,2.79-2.79h1.25a2.81,2.81,0,0,1,2.69,2.1l1.52,6a41,41,0,0,0,29.91,30.46l5-138.49a2.78,2.78,0,0,1,5.56,0l4.38,154.39c7-2,17.08-7.19,22.29-21.16a2.2,2.2,0,0,1,2.51-1.43l1.55.3A2.2,2.2,0,0,1,1029.3,536.92Z"/><ellipse class="cls-19" cx="1022.62" cy="492.54" rx="35.73" ry="46.11"/><path class="cls-20" d="M1102.15,422.23c0,45.21-36.61,68-76.08,68-23.49,0-42.71-8.09-54.4-24.19a53,53,0,1,1,2.16-93.39c13-19.62,33.66-32.27,56.85-32.27C1070.15,340.39,1102.15,377,1102.15,422.23Z"/><circle class="cls-21" cx="951.15" cy="482.17" r="35.73"/><path class="cls-22" d="M157.66,725a66.36,66.36,0,0,1-5.74,27.44H82.7A66.36,66.36,0,0,1,77,725a71.53,71.53,0,0,1,.9-11.27c1.9-11.62,6.68-21.82,13.27-29.28,7.07-7.94,16.2-12.72,26.18-12.72C139.59,671.7,157.66,695.56,157.66,725Z"/><path class="cls-23" d="M112.47,731.42a67.73,67.73,0,0,1-3.26,21H35a65.7,65.7,0,0,1-2.87-13.69,67.28,67.28,0,0,1-.39-7.3,69.42,69.42,0,0,1,2-16.62c5.3-21.28,20.47-36.64,38.35-36.64a32.8,32.8,0,0,1,19,6.26c11.65,8.23,19.88,23.82,21.18,42C112.4,728.1,112.47,729.74,112.47,731.42Z"/><path class="cls-24" d="M125.32,752.41H28.6a33.76,33.76,0,0,1,3.55-13.69A42.06,42.06,0,0,1,47,722.32a54.57,54.57,0,0,1,30-8.65c.29,0,.61,0,.9,0,13.59.19,25.83,5.07,34.45,12.75C120,733.3,124.86,742.4,125.32,752.41Z"/><path class="cls-25" d="M54.36,739.49a23.37,23.37,0,0,1-3.91,12.92H.15a23.44,23.44,0,0,1-3.9-12.92c0-14.27,13-25.82,29.05-25.82a31.36,31.36,0,0,1,8.46,1.13A29.65,29.65,0,0,1,47,722.32,24.16,24.16,0,0,1,54.36,739.49Z"/><path class="cls-26" d="M539.72,440,534.4,586.37a1.61,1.61,0,0,0,1.61,1.68h9.4a1.61,1.61,0,0,0,1.61-1.66L542.87,440Z"/><path class="cls-27" d="M539.31,433.9a1.61,1.61,0,0,1,3,0l20.18,55.59L583,545.9a2.48,2.48,0,0,1-2.33,3.33H499.72a1.61,1.61,0,0,1-1.51-2.15l20.92-57.59Z"/><path class="cls-28" d="M188.64,755.8A21.19,21.19,0,0,1,167.45,777h-111a21.19,21.19,0,0,1,0-42.38h81.35l-8.69-9.3a2.8,2.8,0,0,1,.14-4l2.53-2.36a2.8,2.8,0,0,1,4,.14l14.48,15.49h17.19A21.19,21.19,0,0,1,188.64,755.8Z"/><circle class="cls-29" cx="56.22" cy="755.55" r="20.93"/><circle class="cls-30" cx="56.22" cy="755.55" r="16.9"/><rect class="cls-31" x="91.28" y="741.17" width="19.17" height="4.04" rx="2"/><rect class="cls-32" x="77.16" y="767.4" width="33.29" height="4.04" rx="2"/><rect class="cls-33" x="117.51" y="754.29" width="29.26" height="4.04" rx="2"/><rect class="cls-34" x="134.66" y="766.39" width="29.26" height="4.04" rx="2"/><rect class="cls-35" x="140.72" y="739.15" width="29.26" height="4.04" rx="2"/><circle class="cls-3" cx="239.58" cy="60.2" r="54.48"/><path class="cls-36" d="M564.88,715.79a17.5,17.5,0,0,1,.39,3.84c0,5.94-2.75,11.49-7.65,16.5H240c-6.27-5.23-10.06-11.93-10.06-19.24,0-16.72,19.68-30.24,44-30.24a61.23,61.23,0,0,1,15.51,2c10.83-20.4,40.4-35,75.21-35a117.19,117.19,0,0,1,30.73,4c7.59-9,21.77-15,38-15,15.72,0,29.47,5.67,37.22,14.13a154.09,154.09,0,0,1,31.5-3.13c44,0,79.72,17.21,79.72,38.48C581.76,701.11,575.49,709.3,564.88,715.79Z"/><path class="cls-37" d="M.48,495c0,.17,0,.33,0,.51a4.34,4.34,0,0,0,0-.51Z"/><path class="cls-37" d="M.48,496h0a4.17,4.17,0,0,0,0-.5C.48,495.69.48,495.85.48,496Z"/><path class="cls-38" d="M512.48,576.17l.44,4a1.15,1.15,0,0,1-1.14,1.28h-6a1.14,1.14,0,0,1-1.13-1.31l.58-4.07a1.12,1.12,0,0,0-.7-1.22c-9.31-3.67-11.08-9.31-11.38-11.82a1.14,1.14,0,0,1,1.14-1.28h.45a1.13,1.13,0,0,1,1.06.7c2.32,5.87,6.4,7.82,8.87,8.48a1.16,1.16,0,0,0,1.43-1L508,557a1.14,1.14,0,0,1,1.13-1h.11a1.14,1.14,0,0,1,1.14,1l1.45,13a1.14,1.14,0,0,0,1.41,1c2.45-.61,6.66-2.53,9-8.51a1.15,1.15,0,0,1,1.06-.71h.46a1.15,1.15,0,0,1,1.14,1.28c-.31,2.54-2.11,8.26-11.68,11.93A1.15,1.15,0,0,0,512.48,576.17Z"/><circle class="cls-39" cx="509.01" cy="547.8" r="19.1"/><circle class="cls-40" cx="493.09" cy="557.35" r="9.55"/><circle class="cls-41" cx="529.02" cy="555.07" r="13.65"/><ellipse class="cls-42" cx="132.83" cy="181.03" rx="39.62" ry="49.53"/><ellipse class="cls-43" cx="93.21" cy="240.47" rx="39.62" ry="49.53"/><ellipse class="cls-44" cx="192.26" cy="210.75" rx="39.62" ry="59.43"/><path class="cls-45" d="M177.41,376.66v9.08c-.32,5.5-15.18,15.15-25.78,21.36a6.26,6.26,0,0,0-3.1,5.62l5.2,151a3.37,3.37,0,0,1-3.27,3.58h-19a3.36,3.36,0,0,1-3.26-3.55l4-150.86a7.12,7.12,0,0,0-3.52-6.32c-10.58-6.18-39.2-25.07-54.27-56.08l-6.56-18.75,5.46-2.16s17.11,35.24,54.24,56.6a3.56,3.56,0,0,0,5.35-3l3.63-131.86H143l4.91,142.46a3.86,3.86,0,0,0,6.18,3A297.46,297.46,0,0,0,177.41,376.66Z"/><ellipse class="cls-46" cx="53.59" cy="299.9" rx="39.62" ry="49.53"/><ellipse class="cls-47" cx="136.5" cy="281.14" rx="59.43" ry="86.07"/><circle class="cls-48" cx="204.64" cy="285.86" r="36.32"/><ellipse class="cls-49" cx="195.56" cy="353.96" rx="36.32" ry="40.86"/><path class="cls-50" d="M630.72,593.46a32.59,32.59,0,0,1-.61,6.2A31.85,31.85,0,0,1,607,624.2l-.11,0H591a31.14,31.14,0,0,1-8.58-3.65,31.78,31.78,0,1,1,48.34-27.12Z"/><path class="cls-51" d="M171.44,570.61a35.77,35.77,0,0,1-3,14.33H22c-10.26-7.74-16.67-19-16.67-31.51,0-23.72,23.08-43,51.56-43,18.5,0,34.71,8.14,43.77,20.34a58.72,58.72,0,0,1,19.24-3.15C148.35,527.65,171.44,546.9,171.44,570.61Z"/><path class="cls-52" d="M59.24,584.94c8.73-20.64,32.34-35.46,60.14-35.46,22.91,0,43,10.07,54.19,25.17a72.75,72.75,0,0,1,23.83-3.9c16.67,0,31.84,5.32,43.19,14.19Z"/><path class="cls-53" d="M1040.06,789.54a35.59,35.59,0,0,1-3,14.32H890.59c-10.26-7.74-16.67-19-16.67-31.51,0-23.72,23.09-43,51.56-43,18.5,0,34.72,8.14,43.77,20.34a58.78,58.78,0,0,1,19.25-3.15C1017,746.57,1040.06,765.82,1040.06,789.54Z"/><path class="cls-54" d="M927.86,803.86c8.73-20.64,32.35-35.46,60.15-35.46,22.9,0,43,10.07,54.18,25.17a72.79,72.79,0,0,1,23.83-3.9c16.67,0,31.85,5.32,43.19,14.19Z"/><path class="cls-55" d="M594.4,598a27.17,27.17,0,0,1-12,22.58,26.62,26.62,0,0,1-7.88,3.65l-.06,0s0,0,0,0H559.81a27.5,27.5,0,0,1-3.13-1.08A27.24,27.24,0,1,1,594.4,598Z"/><path class="cls-56" d="M558.08,616.15a18.14,18.14,0,0,1-1.4,7c-.16.36-.32.72-.5,1.08H523.66a18.16,18.16,0,1,1,34.42-8.08Z"/><path class="cls-57" d="M575.23,619.69a13.41,13.41,0,0,1-.78,4.54H548.77a13.41,13.41,0,0,1-.78-4.54,13,13,0,0,1,.18-2.18,13.62,13.62,0,0,1,27.06,2.18Z"/><path class="cls-58" d="M611.55,610.61A22.64,22.64,0,0,1,607,624.2l0,0H574.5l-.06,0s0,0,0,0h-3.76a22.59,22.59,0,0,1-4.54-13.62,23.18,23.18,0,0,1,.29-3.66,22.72,22.72,0,0,1,22.41-19,21.83,21.83,0,0,1,3.73.31,22.69,22.69,0,0,1,19,22.39Z"/><path class="cls-59" d="M638.79,615.15a18.08,18.08,0,0,1-2.44,9.08H604.91a18.16,18.16,0,1,1,33.88-9.08Z"/><path class="cls-60" d="M647.87,624.23H629.71a9.08,9.08,0,0,1,18.16,0Z"/><path class="cls-61" d="M595.26,736.27c-10.09-23.87-37.41-41-69.56-41-26.49,0-49.71,11.65-62.67,29.12a84.14,84.14,0,0,0-27.56-4.51c-19.27,0-36.83,6.15-50,16.41Z"/></svg>