<svg id="Laag_1" data-name="Laag 1" xmlns="http://www.w3.org/2000/svg" xmlns:xlink="http://www.w3.org/1999/xlink" viewBox="0 0 259.93 228.55"><defs><style>.cls-1{fill:url(#Naamloos_verloop_622);}.cls-2{fill:url(#Naamloos_verloop_614);}.cls-3{fill:url(#Naamloos_verloop_622-2);}.cls-4{fill:url(#Naamloos_verloop_616);}.cls-5{fill:url(#Naamloos_verloop_614-2);}.cls-6{fill:url(#Naamloos_verloop_622-3);}.cls-7{fill:url(#Naamloos_verloop_616-2);}.cls-8{fill:url(#Naamloos_verloop_614-3);}.cls-9{fill:url(#Naamloos_verloop_624);}.cls-10{fill:url(#Naamloos_verloop_614-4);}.cls-11{fill:url(#Naamloos_verloop_622-4);}.cls-12{fill:url(#Naamloos_verloop_616-3);}.cls-13{fill:#6a5440;}</style><linearGradient id="Naamloos_verloop_622" x1="-731.03" y1="90.04" x2="-710.03" y2="111.03" gradientTransform="matrix(-1, 0, 0, 1, -542.28, 0)" gradientUnits="userSpaceOnUse"><stop offset="0" stop-color="#ecc35c"/><stop offset="1" stop-color="#b68b32"/></linearGradient><linearGradient id="Naamloos_verloop_614" x1="-728.16" y1="93.1" x2="-691.82" y2="129.45" gradientTransform="matrix(-1, 0, 0, 1, -542.28, 0)" gradientUnits="userSpaceOnUse"><stop offset="0" stop-color="#f5b31a"/><stop offset="1" stop-color="#fdcc1e"/></linearGradient><linearGradient id="Naamloos_verloop_622-2" x1="-727.17" y1="94.07" x2="-691.81" y2="129.43" xlink:href="#Naamloos_verloop_622"/><linearGradient id="Naamloos_verloop_616" x1="-728.12" y1="93.16" x2="-704.05" y2="117.23" gradientTransform="matrix(-1, 0, 0, 1, -542.28, 0)" gradientUnits="userSpaceOnUse"><stop offset="0" stop-color="#f1d431"/><stop offset="0.63" stop-color="#fdcc1e"/></linearGradient><linearGradient id="Naamloos_verloop_614-2" x1="150.48" y1="118.77" x2="227.7" y2="118.77" gradientTransform="matrix(1, 0, 0, 1, 0, 0)" xlink:href="#Naamloos_verloop_614"/><linearGradient id="Naamloos_verloop_622-3" x1="182.54" y1="25.57" x2="182.54" y2="213.59" gradientTransform="matrix(1, 0, 0, 1, 0, 0)" xlink:href="#Naamloos_verloop_622"/><linearGradient id="Naamloos_verloop_616-2" x1="189.09" y1="25.56" x2="189.09" y2="211.44" gradientTransform="matrix(1, 0, 0, 1, 0, 0)" xlink:href="#Naamloos_verloop_616"/><linearGradient id="Naamloos_verloop_614-3" x1="227.72" y1="213.3" x2="127.14" y2="39.08" gradientTransform="matrix(1, 0, 0, 1, 0, 0)" xlink:href="#Naamloos_verloop_614"/><linearGradient id="Naamloos_verloop_624" x1="76.37" y1="80.94" x2="120.61" y2="125.17" gradientUnits="userSpaceOnUse"><stop offset="0" stop-color="#ecc35c"/><stop offset="1" stop-color="#ffe5a3"/></linearGradient><linearGradient id="Naamloos_verloop_614-4" x1="82.39" y1="87.41" x2="150.64" y2="155.67" gradientTransform="matrix(1, 0, 0, 1, 0, 0)" xlink:href="#Naamloos_verloop_614"/><linearGradient id="Naamloos_verloop_622-4" x1="84.48" y1="89.45" x2="150.67" y2="155.64" gradientTransform="matrix(1, 0, 0, 1, 0, 0)" xlink:href="#Naamloos_verloop_622"/><linearGradient id="Naamloos_verloop_616-3" x1="82.49" y1="87.52" x2="133.2" y2="138.24" gradientTransform="matrix(1, 0, 0, 1, 0, 0)" xlink:href="#Naamloos_verloop_616"/></defs><path class="cls-1" d="M154.17,63.36s20.68,66.45,36.29,67.54a39.55,39.55,0,0,0,25.89-7.22s3.79-8.76-2.3-3.75-18.37,4.81-30-4C177.06,110.65,160.48,62.58,154.17,63.36Z"/><path class="cls-2" d="M156.93,129.16c10,36.24,37.34,16.31,51.19,3.13,1.84-1.75,3.44-3.37,4.73-4.74h0c2-2.1,3.22-3.56,3.48-3.85h0l0,0h0l-.06,0c-.92.64-12.47,8.44-26.34,4.29-14.45-4.33-23.85-58.93-35.83-64.59C154.17,63.36,141.3,72.39,156.93,129.16Z"/><path class="cls-3" d="M156.93,129.16c10,36.24,37.34,16.31,51.19,3.13-7.81,6.91-20.32,14.88-33.92,11.39-22.61-5.8-20-80.32-20-80.32S141.3,72.39,156.93,129.16Z"/><path class="cls-4" d="M154.17,63.36s4.45,66.69,28.62,71c15.92,2.83,25.43-2.69,30.06-6.79h0a20.73,20.73,0,0,0,3.48-3.85h0v0c-.92.64-12.47,8.44-26.34,4.29C175.55,123.62,166.15,69,154.17,63.36Z"/><path class="cls-5" d="M227.7,211.44c-2.5.09-48.34,5-68-16.76-2.46-2.72-6-4.58-7.55-8.07-1.46-3.3,0-12.41-.34-17.21l-.1-10.94-.22-23.7-.85-90.57-.17-18.62.74.52a10.27,10.27,0,0,1,1.57,4.48c7.92,17.44,9.38,31.72,13.05,42.14,4.49,12.73,4.11,24,7.24,33.87,4.69,14.9,2.11,48,10.81,64.88,2.16,4.2,10.28,8.74,19.49,13a154.6,154.6,0,0,0,24,26.71,3.39,3.39,0,0,0,.27.23h0Z"/><path class="cls-6" d="M227.7,211.44c-60,9-79.32-12.85-83-17.39-4.61-5.69-12.83-19-1.86-112.89,2.76-23.53,5.63-42.8,7.65-55.59a1.63,1.63,0,0,1,.74.52,10.4,10.4,0,0,1,1.57,4.48,77.55,77.55,0,0,1,.91,9.88c.06,1.47.1,3,.14,4.66,0,3.18,0,6.65,0,10.36-.25,22.24-2,53.1-2.34,79.29-.12,8.55-.07,16.61.22,23.7.41,10,1.33,18.13,3,23a24.46,24.46,0,0,0,6.07,9.3C179.45,209.27,227.7,211.44,227.7,211.44Z"/><path class="cls-7" d="M150.48,25.56s-1,136,24.49,157.43,52.73,28.45,52.73,28.45-25.19-21.22-41-35.53C159.31,151.07,150.48,25.56,150.48,25.56Z"/><path class="cls-8" d="M239.22,204.66c-.46,4.69-11.52,6.78-11.52,6.78h0c-9.43-7.12-47.28-24.23-51.88-34.18-9.14-19.81-15.25-58.26-18.33-80.05a227.15,227.15,0,0,1-1.88-24c-.37-11-.35-20.66-1.75-28-2.09-10.91-3.15-18.09-3.32-19.34a1.05,1.05,0,0,1,0-.18c.79,1.69,1.55,3.35,2.3,5,7.92,17.44,9.38,31.72,13.05,42.14,4.49,12.73,4.11,24,7.24,33.87,4.69,14.9,2.11,48,10.81,64.88,2.16,4.2,10.28,8.74,19.49,13,13.47,6.24,29.29,11.86,32.24,14.8C238.1,201.76,239.37,203,239.22,204.66Z"/><path class="cls-9" d="M149.21,24.73s-43.57,140-76.45,142.3S18.2,151.81,18.2,151.81s-8-18.44,4.84-7.89S61.76,154,86.18,135.56C101,124.36,135.91,23.09,149.21,24.73Z"/><path class="cls-10" d="M137.38,160.63c-.11.41-.22.82-.35,1.22-.06.21-.13.41-.19.61s-.17.54-.26.79c-.36,1.11-.76,2.18-1.19,3.21-15.24,36.72-66.24,25.1-71.53,23.17-4.64-1.7-14.5-7-25.26-16.81-.49-.44-1-.88-1.45-1.34l-.36-.33L35.54,170c-3.87-3.69-7.25-7.12-10-10l0,0c-4.17-4.41-6.79-7.49-7.34-8.11v0l-.07-.08h0v0l.11.09c1.94,1.34,26.29,17.76,55.49,9,30.45-9.12,50.27-124.16,75.5-136.08l.07.06C150.62,26,169.17,45.22,137.38,160.63Z"/><path class="cls-11" d="M137.38,160.63c-.11.41-.22.82-.35,1.22-.06.21-.13.41-.19.61s-.17.54-.26.79c-.36,1.11-.76,2.18-1.19,3.21-15.24,36.72-66.24,25.1-71.53,23.17-4.64-1.7-14.5-7-25.26-16.81-.49-.44-1-.88-1.45-1.34l-.36-.33L35.54,170c16.45,14.54,38.23,17.67,66.89,10.32,47.63-12.24,46.78-155.56,46.78-155.56l.07.06C150.62,26,169.17,45.22,137.38,160.63Z"/><path class="cls-12" d="M149.21,24.73s-9.37,140.5-60.3,149.55c-33.54,5.95-53.57-5.67-63.33-14.31l0,0a43.26,43.26,0,0,1-7.34-8.11v0l0,0c1.94,1.34,26.29,17.76,55.5,9C104.16,151.69,124,36.65,149.21,24.73Z"/><path class="cls-13" d="M145,22.27s-3.57,3.26-2.48,4.82,8.38,1.08,9.16,3.57,5.12,2,4.19-1.4-1.55-6.37-4.5-7A19.33,19.33,0,0,0,145,22.27Z"/></svg>