<svg id="Laag_1" data-name="Laag 1" xmlns="http://www.w3.org/2000/svg" xmlns:xlink="http://www.w3.org/1999/xlink" viewBox="0 0 259.93 228.55"><defs><style>.cls-1{fill:url(#Naamloos_verloop_297);}.cls-2{fill:url(#Naamloos_verloop_299);}.cls-3{fill:#c4793a;}.cls-4{fill:url(#Naamloos_verloop_299-2);}.cls-5{fill:url(#Naamloos_verloop_297-2);}.cls-6{fill:url(#Naamloos_verloop_300);}.cls-7{fill:url(#Naamloos_verloop_297-3);}.cls-8{fill:url(#Naamloos_verloop_299-3);}.cls-9{fill:url(#Naamloos_verloop_298);}.cls-10{fill:#656565;}.cls-11{fill:url(#Naamloos_verloop_297-4);}</style><linearGradient id="Naamloos_verloop_297" x1="1376.86" y1="98.67" x2="1440.9" y2="98.67" gradientTransform="matrix(-1, 0, 0, 1, 1472.34, 0)" gradientUnits="userSpaceOnUse"><stop offset="0" stop-color="#d1c9d8"/><stop offset="1" stop-color="#ececec"/></linearGradient><linearGradient id="Naamloos_verloop_299" x1="1285.35" y1="116.96" x2="1433.64" y2="116.96" gradientTransform="matrix(-1, 0, 0, 1, 1472.34, 0)" gradientUnits="userSpaceOnUse"><stop offset="0" stop-color="#95523d"/><stop offset="1" stop-color="#967b78"/></linearGradient><linearGradient id="Naamloos_verloop_299-2" x1="1285.35" y1="134.97" x2="1311.77" y2="134.97" xlink:href="#Naamloos_verloop_299"/><linearGradient id="Naamloos_verloop_297-2" x1="1266.79" y1="137.18" x2="1303.9" y2="137.18" xlink:href="#Naamloos_verloop_297"/><linearGradient id="Naamloos_verloop_300" x1="1285.35" y1="116.96" x2="1434" y2="116.96" gradientTransform="matrix(-1, 0, 0, 1, 1472.34, 0)" gradientUnits="userSpaceOnUse"><stop offset="0" stop-color="#efb462"/><stop offset="1" stop-color="#c4793a"/></linearGradient><linearGradient id="Naamloos_verloop_297-3" x1="1379.78" y1="93.93" x2="1426.07" y2="93.93" xlink:href="#Naamloos_verloop_297"/><linearGradient id="Naamloos_verloop_299-3" x1="1346.58" y1="130.66" x2="1396.68" y2="130.66" xlink:href="#Naamloos_verloop_299"/><linearGradient id="Naamloos_verloop_298" x1="1300.96" y1="137.18" x2="1269.74" y2="137.18" gradientTransform="matrix(-1, 0, 0, 1, 1472.34, 0)" gradientUnits="userSpaceOnUse"><stop offset="0" stop-color="#d8d8d8"/><stop offset="1" stop-color="#b7adc1"/></linearGradient><linearGradient id="Naamloos_verloop_297-4" x1="1274.95" y1="137.5" x2="1287.88" y2="137.5" xlink:href="#Naamloos_verloop_297"/></defs><path class="cls-1" d="M46,87.05c-15.21,18.92-18.85,45.4-9.26,49.24,9.39,3.77,31.72-14.07,43.59-30.17s20.35-40.2,11.45-44.77C83.21,57,59.06,70.81,46,87.05Z"/><path class="cls-2" d="M92.57,61.2l20.1,34L137.73,90,187,103.22v67.93a42.64,42.64,0,0,1-23,0l-18-8h0l-20.28,9.56-25-8.4L72.4,165.76,38.7,137.18Z"/><polygon class="cls-3" points="170.57 164.33 141.62 147.01 136.01 176.07 92.57 153.7 153.81 140.48 170.57 164.33"/><path class="cls-4" d="M187,103.22l-8.83-6s-39.59,40.63,0,75.52Z"/><ellipse class="cls-5" cx="187" cy="137.18" rx="18.55" ry="33.97"/><polygon class="cls-3" points="118.54 83.85 125.77 116.13 67.53 109.52 77.99 77.84 118.54 83.85"/><path class="cls-6" d="M187,103.22S157.44,81.86,151.33,85.7s-30.56,27.87-30.56,27.87l-4.88-28.33H81.66l10.91-24s-59.36,7.66-53.87,76l42.9,20.94,17.3-3.47,34,18.08,14.67-26.84,23,18.44c-5-7.49-9.78-17.68-10.06-29.86-.2-8.83-.48-20.12,9.61-26.65C175.84,104.12,182.67,103.35,187,103.22Z"/><path class="cls-7" d="M92.57,61.2c-5.51,2.34-23.33,10.62-33.13,28.35a47.76,47.76,0,0,0-4.17,37.1c-1.38-1.65-15.36-19-5.5-38.88C56.77,73.62,73.16,63.48,92.57,61.2Z"/><path class="cls-8" d="M125.77,126.65S96.21,140.74,85.53,136.8s-9.85-13-9.85-13,1.64,1.77,13.14,2.82S125.77,126.65,125.77,126.65Z"/><ellipse class="cls-9" cx="187" cy="137.18" rx="15.61" ry="28.58"/><path class="cls-10" d="M181.66,120.67c0,4.68,4.64,8.48,4.64,8.48s4.63-3.8,4.63-8.48-2.07-8.49-4.63-8.49S181.66,116,181.66,120.67Z"/><path class="cls-11" d="M185.93,137.64c-1.93-4.21-2-8,0-8.6s5.13,2.28,7.26,6.44a7.17,7.17,0,0,1,3.65,3.39c1.42,2.93.17,6-2.79,6.92a7,7,0,0,1-7.94-3.71A5.15,5.15,0,0,1,185.93,137.64Z"/><ellipse class="cls-10" cx="191.44" cy="140.48" rx="3.21" ry="1.94" transform="translate(-23.73 40.05) rotate(-11.25)"/></svg>