<svg id="Laag_1" data-name="Laag 1" xmlns="http://www.w3.org/2000/svg" xmlns:xlink="http://www.w3.org/1999/xlink" viewBox="0 0 259.93 228.55"><defs><style>.cls-1{fill:#603d96;}.cls-2{fill:url(#Naamloos_verloop_22);}.cls-3{fill:url(#Naamloos_verloop_22-2);}.cls-4{fill:url(#Naamloos_verloop_25);}.cls-5{fill:url(#Naamloos_verloop_14);}.cls-6{fill:url(#Naamloos_verloop_17);}.cls-7{fill:url(#Naamloos_verloop_25-2);}.cls-8{fill:url(#Naamloos_verloop_9);}.cls-9{fill:url(#Naamloos_verloop_14-2);}.cls-10{fill:url(#Naamloos_verloop_17-2);}.cls-11{fill:#656565;}.cls-12{fill:url(#Naamloos_verloop_14-3);}</style><linearGradient id="Naamloos_verloop_22" x1="44.44" y1="130.36" x2="231.73" y2="130.36" gradientUnits="userSpaceOnUse"><stop offset="0" stop-color="#913d95"/><stop offset="1" stop-color="#733f96"/></linearGradient><linearGradient id="Naamloos_verloop_22-2" x1="30.42" y1="150.11" x2="74.42" y2="150.11" xlink:href="#Naamloos_verloop_22"/><linearGradient id="Naamloos_verloop_25" x1="85.63" y1="144.87" x2="121.01" y2="144.87" gradientUnits="userSpaceOnUse"><stop offset="0" stop-color="#c53b80"/><stop offset="1" stop-color="#c43a80"/></linearGradient><linearGradient id="Naamloos_verloop_14" x1="272.42" y1="22.09" x2="382.11" y2="22.09" gradientTransform="translate(-265.13 144.79)" gradientUnits="userSpaceOnUse"><stop offset="0" stop-color="#c9d2d8"/><stop offset="1" stop-color="#ececec"/></linearGradient><linearGradient id="Naamloos_verloop_17" x1="373.41" y1="22.09" x2="281.13" y2="22.09" gradientTransform="translate(-265.13 144.79)" gradientUnits="userSpaceOnUse"><stop offset="0" stop-color="#d8d8d8"/><stop offset="1" stop-color="#adbac1"/></linearGradient><linearGradient id="Naamloos_verloop_25-2" x1="128.47" y1="125.73" x2="243.39" y2="125.73" xlink:href="#Naamloos_verloop_25"/><linearGradient id="Naamloos_verloop_9" x1="94.2" y1="98.32" x2="253.61" y2="98.32" gradientUnits="userSpaceOnUse"><stop offset="0" stop-color="#ef6280"/><stop offset="1" stop-color="#c43a80"/></linearGradient><linearGradient id="Naamloos_verloop_14-2" x1="1029.04" y1="-964.18" x2="1078.69" y2="-964.18" gradientTransform="translate(-778.61 -993.91) rotate(90)" xlink:href="#Naamloos_verloop_14"/><linearGradient id="Naamloos_verloop_17-2" x1="1074.75" y1="-964.18" x2="1032.98" y2="-964.18" gradientTransform="translate(-778.61 -993.91) rotate(90)" xlink:href="#Naamloos_verloop_17"/><linearGradient id="Naamloos_verloop_14-3" x1="1039.95" y1="-963.65" x2="1057.25" y2="-963.65" gradientTransform="translate(-778.61 -993.91) rotate(90)" xlink:href="#Naamloos_verloop_14"/></defs><path class="cls-1" d="M184.61,159.42s-32.13,5.14-42.07,11.92-22.06,6.26-22.06,6.26l15.8-18.38Z"/><path class="cls-2" d="M143.94,68l-2.61,8.35c-1,3.24-4.06,5.82-8,6.81L111,88.73a13.1,13.1,0,0,0-3.06,1.17L94.09,97.24a14.47,14.47,0,0,1-10,1.19l-7.28-1.76c-5.9-1.41-12.17,1-14.5,5.56l-17,33.36a7.86,7.86,0,0,0,.26,7.7l30.24,51.15c2.59,4.39,8.88,6.56,14.61,5,11.63-3.21,30.28-11.09,41.58-29.85a12.35,12.35,0,0,1,10-5.5c15.47-.86,51.81-3.15,69.9-6.58,6.14-1.16,10-6,8.92-11l-8.11-36.41a7.94,7.94,0,0,1,1.31-6.31l16.2-23.43c4.14-6-.7-13.44-9.21-14.15l-64.26-5.38C150.85,60.34,145.39,63.4,143.94,68Z"/><path class="cls-3" d="M40.3,123.5s18.28-15.64,25.19-12.44-30.07,37.41,8.93,59.78L40.3,189.59s-15.44-53.65-7.72-59.87Z"/><path class="cls-4" d="M105.44,98.32s-9.85,18.09,8.44,35-4.36,58.13-4.36,58.13-33-50.54-21.44-70.68S105.44,98.32,105.44,98.32Z"/><ellipse class="cls-5" cx="62.14" cy="166.88" rx="54.85" ry="44.73"/><ellipse class="cls-6" cx="62.14" cy="166.88" rx="46.14" ry="37.63"/><path class="cls-7" d="M243.39,108.7s.26,6.07-15.27,14.06c-19.12,9.85-56.67,21.86-81.22,19.74,0,0,8.74-9.25-15.53-17.64S243.39,108.7,243.39,108.7Z"/><path class="cls-8" d="M243.39,59.91s23,52.53,0,54.62-69,25.53-78.8,21.79c-6-2.28-14.93-8.07-21-12.24-3.55-2.43-9.31-2.06-12.19.78l-3.62,3.55S106.84,111.26,95.09,114s96.84-7.15,81.21-7.85S136,98.58,127.75,90.91L129,65.1s52.46,23.72,84.69,12.42S243.39,59.91,243.39,59.91Z"/><path class="cls-1" d="M113.5,89.16s3.72-7.16,8.08-14.43c4.63-7.71,4-16,6.17-14.82,8,4.4,16.84,44.37,48.55,46.28,0,0-33.66,11.9-62.8,6.39,1,0,13,.37,16.51-4.13S128.46,94.57,113.5,89.16Z"/><path class="cls-1" d="M114.25,180.36s11.75-37.91-15-54.6,15-13.14,15-13.14-5.32,1.1-6.62,4.37c-1.16,2.89,1.61,5.92,2.52,7,8.19,9.37,18.72,34.13,10.67,47l-6.57,9.43Z"/><ellipse class="cls-9" cx="185.57" cy="59.95" rx="57.82" ry="24.83"/><ellipse class="cls-10" cx="185.57" cy="59.95" rx="48.64" ry="20.89"/><path class="cls-11" d="M213.69,67.09c-8,0-14.44-6.2-14.44-6.2s6.46-6.2,14.44-6.2,14.43,2.78,14.43,6.2S221.66,67.09,213.69,67.09Z"/><path class="cls-12" d="M184.79,61.38c7.17,2.58,13.65,2.63,14.63,0s-3.87-6.87-10.95-9.71a10.87,10.87,0,0,0-5.77-4.88c-5-1.9-10.26-.23-11.77,3.73s1.31,8.72,6.3,10.62A10.92,10.92,0,0,0,184.79,61.38Z"/><ellipse class="cls-11" cx="179.97" cy="54.01" rx="4.36" ry="3.24" transform="translate(65.43 202.96) rotate(-69.15)"/></svg>