<svg id="Laag_1" data-name="Laag 1" xmlns="http://www.w3.org/2000/svg" xmlns:xlink="http://www.w3.org/1999/xlink" viewBox="0 0 259.93 228.55"><defs><style>.cls-1{fill:url(#Naamloos_verloop_14);}.cls-2{fill:url(#Naamloos_verloop_22);}.cls-3{fill:#c43a80;}.cls-4{fill:url(#Naamloos_verloop_22-2);}.cls-5{fill:url(#Naamloos_verloop_14-2);}.cls-6{fill:url(#Naamloos_verloop_9);}.cls-7{fill:url(#Naamloos_verloop_14-3);}.cls-8{fill:url(#Naamloos_verloop_22-3);}.cls-9{fill:url(#Naamloos_verloop_17);}.cls-10{fill:#656565;}.cls-11{fill:url(#Naamloos_verloop_14-4);}</style><linearGradient id="Naamloos_verloop_14" x1="162.5" y1="80.85" x2="248.2" y2="80.85" gradientUnits="userSpaceOnUse"><stop offset="0" stop-color="#c9d2d8"/><stop offset="1" stop-color="#ececec"/></linearGradient><linearGradient id="Naamloos_verloop_22" x1="40.04" y1="112" x2="238.49" y2="112" gradientUnits="userSpaceOnUse"><stop offset="0" stop-color="#913d95"/><stop offset="1" stop-color="#733f96"/></linearGradient><linearGradient id="Naamloos_verloop_22-2" x1="40.04" y1="142.65" x2="75.4" y2="142.65" xlink:href="#Naamloos_verloop_22"/><linearGradient id="Naamloos_verloop_14-2" x1="15.21" y1="146.42" x2="64.87" y2="146.42" xlink:href="#Naamloos_verloop_14"/><linearGradient id="Naamloos_verloop_9" x1="40.04" y1="112" x2="238.97" y2="112" gradientUnits="userSpaceOnUse"><stop offset="0" stop-color="#ef6280"/><stop offset="1" stop-color="#c43a80"/></linearGradient><linearGradient id="Naamloos_verloop_14-3" x1="166.41" y1="72.79" x2="228.36" y2="72.79" xlink:href="#Naamloos_verloop_14"/><linearGradient id="Naamloos_verloop_22-3" x1="121.98" y1="135.32" x2="189.03" y2="135.32" xlink:href="#Naamloos_verloop_22"/><linearGradient id="Naamloos_verloop_17" x1="60.93" y1="146.42" x2="19.15" y2="146.42" gradientUnits="userSpaceOnUse"><stop offset="0" stop-color="#d8d8d8"/><stop offset="1" stop-color="#adbac1"/></linearGradient><linearGradient id="Naamloos_verloop_14-4" x1="26.13" y1="146.95" x2="43.43" y2="146.95" xlink:href="#Naamloos_verloop_14"/></defs><path class="cls-1" d="M228.72,61.08c20.36,32.21,25.22,77.27,12.39,83.82-12.56,6.42-42.44-24-58.32-51.36-16-27.58-27.23-68.43-15.33-76.2C178.93,9.86,211.24,33.44,228.72,61.08Z"/><path class="cls-2" d="M166.41,17.08,139.5,75,106,66.16,40,88.6V204.24a45.4,45.4,0,0,0,30.72,0l24.08-13.59h0L122,206.92l33.52-14.29,37.9,2.43,45.09-48.64Z"/><polygon class="cls-3" points="62.02 192.63 100.76 163.14 108.28 212.61 166.41 174.53 84.45 152.02 62.02 192.63"/><path class="cls-4" d="M40,88.6,51.85,78.37s53,69.16,0,128.55Z"/><ellipse class="cls-5" cx="40.04" cy="146.42" rx="24.83" ry="57.82"/><polygon class="cls-3" points="131.65 55.64 121.98 110.59 199.91 99.33 185.92 45.4 131.65 55.64"/><path class="cls-6" d="M40,88.6S79.59,52.24,87.77,58.78s40.89,47.43,40.89,47.43L135.2,58H181L166.41,17.08s79.43,13,72.08,129.34l-57.41,35.63-23.14-5.89-45.45,30.76L92.86,161.23,62,192.63a113.24,113.24,0,0,0,13.46-50.84c.28-15,.66-34.24-12.85-45.35C55,90.14,45.83,88.82,40,88.6Z"/><path class="cls-7" d="M166.41,17.08a100.2,100.2,0,0,1,49.9,111.41c1.86-2.8,20.56-32.27,7.37-66.18A72.79,72.79,0,0,0,166.41,17.08Z"/><path class="cls-8" d="M122,128.49s39.56,24,53.84,17.28S189,123.69,189,123.69s-2.2,3-17.59,4.8S122,128.49,122,128.49Z"/><ellipse class="cls-9" cx="40.04" cy="146.42" rx="20.89" ry="48.64"/><path class="cls-10" d="M47.18,118.3c0,8-6.2,14.44-6.2,14.44s-6.2-6.47-6.2-14.44,2.77-14.44,6.2-14.44S47.18,110.33,47.18,118.3Z"/><path class="cls-11" d="M41.47,147.2c2.58-7.18,2.63-13.65,0-14.64s-6.86,3.88-9.71,11a10.85,10.85,0,0,0-4.87,5.77c-1.91,5-.23,10.26,3.73,11.77s8.72-1.31,10.62-6.3A11,11,0,0,0,41.47,147.2Z"/><ellipse class="cls-10" cx="34.09" cy="152.02" rx="3.24" ry="4.36" transform="translate(-120.11 129.76) rotate(-69.15)"/></svg>