<svg id="Laag_1" data-name="Laag 1" xmlns="http://www.w3.org/2000/svg" xmlns:xlink="http://www.w3.org/1999/xlink" viewBox="0 0 259.93 228.55"><defs><style>.cls-1{fill:#8d3f16;}.cls-2{fill:url(#Naamloos_verloop_420);}.cls-3{fill:url(#Naamloos_verloop_420-2);}.cls-4{fill:url(#Naamloos_verloop_419);}.cls-5{fill:url(#Naamloos_verloop_416);}.cls-6{fill:url(#Naamloos_verloop_298);}.cls-7{fill:url(#Naamloos_verloop_419-2);}.cls-8{fill:url(#Naamloos_verloop_418);}.cls-9{fill:url(#Naamloos_verloop_416-2);}.cls-10{fill:url(#Naamloos_verloop_298-2);}.cls-11{fill:#595959;}.cls-12{fill:url(#Naamloos_verloop_416-3);}</style><linearGradient id="Naamloos_verloop_420" x1="43.95" y1="118.55" x2="231.25" y2="118.55" gradientUnits="userSpaceOnUse"><stop offset="0" stop-color="#f3991c"/><stop offset="1" stop-color="#a94116"/></linearGradient><linearGradient id="Naamloos_verloop_420-2" x1="29.93" y1="138.3" x2="73.94" y2="138.3" xlink:href="#Naamloos_verloop_420"/><linearGradient id="Naamloos_verloop_419" x1="85.14" y1="133.06" x2="120.52" y2="133.06" gradientUnits="userSpaceOnUse"><stop offset="0" stop-color="#f3991c"/><stop offset="1" stop-color="#f2981c"/></linearGradient><linearGradient id="Naamloos_verloop_416" x1="271.94" y1="10.29" x2="381.63" y2="10.29" gradientTransform="translate(-265.13 144.79)" gradientUnits="userSpaceOnUse"><stop offset="0" stop-color="#f8d479"/><stop offset="1" stop-color="#fcedbe"/></linearGradient><linearGradient id="Naamloos_verloop_298" x1="372.93" y1="10.29" x2="280.64" y2="10.29" gradientTransform="translate(-265.13 144.79)" gradientUnits="userSpaceOnUse"><stop offset="0" stop-color="#d8d8d8"/><stop offset="1" stop-color="#b7adc1"/></linearGradient><linearGradient id="Naamloos_verloop_419-2" x1="127.98" y1="113.92" x2="242.9" y2="113.92" xlink:href="#Naamloos_verloop_419"/><linearGradient id="Naamloos_verloop_418" x1="93.72" y1="86.51" x2="253.12" y2="86.51" xlink:href="#Naamloos_verloop_419"/><linearGradient id="Naamloos_verloop_416-2" x1="285.77" y1="-1695.16" x2="335.42" y2="-1695.16" gradientTransform="translate(-1510.08 -262.45) rotate(90)" xlink:href="#Naamloos_verloop_416"/><linearGradient id="Naamloos_verloop_298-2" x1="331.48" y1="-1695.16" x2="289.71" y2="-1695.16" gradientTransform="translate(-1510.08 -262.45) rotate(90)" xlink:href="#Naamloos_verloop_298"/><linearGradient id="Naamloos_verloop_416-3" x1="296.68" y1="-1694.63" x2="313.98" y2="-1694.63" gradientTransform="translate(-1510.08 -262.45) rotate(90)" xlink:href="#Naamloos_verloop_416"/></defs><path class="cls-1" d="M184.13,147.61s-32.14,5.14-42.08,11.92S120,165.8,120,165.8l15.8-18.38Z"/><path class="cls-2" d="M143.46,56.22l-2.61,8.34c-1,3.24-4.06,5.82-8,6.81l-22.32,5.55a13.64,13.64,0,0,0-3.07,1.17l-13.8,7.34a14.5,14.5,0,0,1-10,1.19l-7.28-1.75c-5.89-1.42-12.17,1-14.49,5.55l-17,33.36a7.86,7.86,0,0,0,.27,7.7l30.23,51.16c2.6,4.39,8.89,6.55,14.62,5,11.62-3.21,30.27-11.09,41.58-29.86a12.36,12.36,0,0,1,10-5.5c15.47-.86,51.8-3.15,69.9-6.58,6.13-1.16,10-6,8.92-11l-8.12-36.4A8,8,0,0,1,213.54,92l16.2-23.43c4.15-6-.69-13.43-9.2-14.15L156.28,49C150.37,48.53,144.9,51.6,143.46,56.22Z"/><path class="cls-3" d="M39.81,111.69S58.09,96.05,65,99.25,34.94,136.67,73.94,159L39.81,177.79s-15.43-53.66-7.71-59.88Z"/><path class="cls-4" d="M105,86.51s-9.84,18.09,8.44,35S109,179.61,109,179.61,76,129.08,87.6,108.94,105,86.51,105,86.51Z"/><ellipse class="cls-5" cx="61.65" cy="155.08" rx="54.85" ry="44.73"/><ellipse class="cls-6" cx="61.65" cy="155.08" rx="46.14" ry="37.63"/><path class="cls-7" d="M242.9,96.9s.26,6.06-15.26,14c-19.13,9.86-56.68,21.87-81.23,19.74,0,0,8.75-9.24-15.53-17.64S242.9,96.9,242.9,96.9Z"/><path class="cls-8" d="M242.9,48.1s23,52.54,0,54.62-69,25.54-78.79,21.8c-6-2.28-14.93-8.07-21-12.25-3.55-2.43-9.31-2.06-12.2.78l-3.62,3.56s-20.9-17.16-32.65-14.38,96.83-7.15,81.21-7.85-40.31-7.6-48.56-15.27l1.25-25.82S181,77,213.2,65.71,242.9,48.1,242.9,48.1Z"/><path class="cls-1" d="M113,77.35s3.71-7.16,8.08-14.43c4.62-7.71,4-16,6.16-14.82,8,4.4,16.84,44.37,48.56,46.28,0,0-33.67,11.91-62.8,6.39,1,0,13,.37,16.51-4.13S128,82.76,113,77.35Z"/><path class="cls-1" d="M113.76,168.55s11.75-37.91-15-54.59,15-13.15,15-13.15-5.31,1.11-6.61,4.37c-1.16,2.89,1.61,5.93,2.52,7,8.19,9.36,18.72,34.12,10.67,47l-6.58,9.43Z"/><ellipse class="cls-9" cx="185.08" cy="48.15" rx="57.82" ry="24.83"/><ellipse class="cls-10" cx="185.08" cy="48.15" rx="48.64" ry="20.89"/><path class="cls-11" d="M213.2,55.28c-8,0-14.43-6.19-14.43-6.19s6.46-6.2,14.43-6.2,14.44,2.77,14.44,6.2S221.18,55.28,213.2,55.28Z"/><path class="cls-12" d="M184.3,49.57c7.18,2.59,13.65,2.64,14.64,0S195.06,42.75,188,39.9A10.93,10.93,0,0,0,182.21,35c-5-1.9-10.26-.23-11.77,3.73s1.31,8.72,6.31,10.62A10.83,10.83,0,0,0,184.3,49.57Z"/><ellipse class="cls-11" cx="179.48" cy="42.2" rx="4.36" ry="3.24" transform="translate(76.15 194.9) rotate(-69.15)"/></svg>