<svg id="Laag_1" data-name="Laag 1" xmlns="http://www.w3.org/2000/svg" xmlns:xlink="http://www.w3.org/1999/xlink" viewBox="0 0 789.25 898.42"><defs><style>.cls-1{opacity:0.11;}.cls-2{fill:#fdb089;}.cls-3{fill:url(#Naamloos_verloop_53);}.cls-4{fill:url(#Naamloos_verloop_51);}.cls-5{fill:url(#Naamloos_verloop_45);}.cls-6{fill:#5d3577;}.cls-7{fill:url(#Naamloos_verloop_115);}.cls-8{fill:url(#Naamloos_verloop_45-2);}.cls-9{fill:url(#Naamloos_verloop_114);}.cls-10{fill:#3e2962;}.cls-11{fill:#ec905c;}.cls-12{fill:url(#Naamloos_verloop_113);}.cls-13{fill:#fdc2a5;}.cls-14{fill:url(#Naamloos_verloop_45-3);}.cls-15{fill:#7d8596;}.cls-16{fill:#cbcfd8;}.cls-17{fill:#b0b5c1;}.cls-18{fill:#c3c2c2;}.cls-19{fill:url(#Naamloos_verloop_26);}.cls-20{fill:url(#Naamloos_verloop_15);}.cls-21{fill:url(#Naamloos_verloop_45-4);}.cls-22{fill:url(#Naamloos_verloop_45-5);}.cls-23{fill:url(#Naamloos_verloop_685);}.cls-24{fill:url(#Naamloos_verloop_45-6);}</style><linearGradient id="Naamloos_verloop_53" x1="379.13" y1="621.62" x2="487.62" y2="621.62" gradientUnits="userSpaceOnUse"><stop offset="0" stop-color="#534283"/><stop offset="0.07" stop-color="#4f3e7d"/><stop offset="0.31" stop-color="#46326e"/><stop offset="0.59" stop-color="#402b65"/><stop offset="1" stop-color="#3e2962"/></linearGradient><linearGradient id="Naamloos_verloop_51" x1="381.44" y1="458.14" x2="639.31" y2="716" gradientUnits="userSpaceOnUse"><stop offset="0" stop-color="#534283"/><stop offset="1" stop-color="#3e2962"/></linearGradient><linearGradient id="Naamloos_verloop_45" x1="243.39" y1="207.81" x2="327.76" y2="292.19" gradientTransform="matrix(0.96, -0.26, 0.27, 0.92, -39.82, 55.83)" gradientUnits="userSpaceOnUse"><stop offset="0" stop-color="#fdb089"/><stop offset="1" stop-color="#fda078"/></linearGradient><linearGradient id="Naamloos_verloop_115" x1="396.14" y1="236.98" x2="621.96" y2="462.8" gradientUnits="userSpaceOnUse"><stop offset="0.08" stop-color="#774696"/><stop offset="0.98" stop-color="#432d51"/></linearGradient><linearGradient id="Naamloos_verloop_45-2" x1="452.79" y1="138.52" x2="500.14" y2="185.88" gradientTransform="matrix(1, 0, 0, 1, 0, 0)" xlink:href="#Naamloos_verloop_45"/><linearGradient id="Naamloos_verloop_114" x1="412.01" y1="35.71" x2="526.39" y2="150.08" gradientUnits="userSpaceOnUse"><stop offset="0" stop-color="#fdc2a5"/><stop offset="0.37" stop-color="#fdbca0"/><stop offset="0.86" stop-color="#fdac90"/><stop offset="1" stop-color="#fda68a"/></linearGradient><linearGradient id="Naamloos_verloop_113" x1="402.07" y1="40.11" x2="546.21" y2="40.11" gradientUnits="userSpaceOnUse"><stop offset="0" stop-color="#fdcc1e"/><stop offset="0.25" stop-color="#fbbe1f"/><stop offset="0.56" stop-color="#f9b520"/><stop offset="1" stop-color="#f9b220"/></linearGradient><linearGradient id="Naamloos_verloop_45-3" x1="460.94" y1="408.28" x2="492.69" y2="440.03" gradientTransform="translate(979.88 -55.54) rotate(90)" xlink:href="#Naamloos_verloop_45"/><linearGradient id="Naamloos_verloop_26" x1="534.6" y1="344.44" x2="640.87" y2="450.71" gradientTransform="matrix(0.81, -0.59, 0.59, 0.81, -79.23, 357.26)" gradientUnits="userSpaceOnUse"><stop offset="0" stop-color="#fdc2a5"/><stop offset="0.31" stop-color="#fdbea2"/><stop offset="0.6" stop-color="#feb397"/><stop offset="0.88" stop-color="#ffa186"/><stop offset="1" stop-color="#ff967c"/></linearGradient><linearGradient id="Naamloos_verloop_15" x1="592.24" y1="235.59" x2="676.4" y2="319.75" gradientTransform="translate(-37.71 -65.82)" gradientUnits="userSpaceOnUse"><stop offset="0.08" stop-color="#774696"/><stop offset="0.98" stop-color="#503362"/><stop offset="0.98" stop-color="#432d51"/></linearGradient><linearGradient id="Naamloos_verloop_45-4" x1="38.27" y1="99.01" x2="99.56" y2="160.31" gradientTransform="matrix(0.27, 0.28, -0.09, 0.85, 107.31, -56.19)" xlink:href="#Naamloos_verloop_45"/><linearGradient id="Naamloos_verloop_45-5" x1="106.04" y1="135.67" x2="227.28" y2="256.91" gradientTransform="matrix(0.91, -0.45, 0.53, 0.94, -74.1, 60)" xlink:href="#Naamloos_verloop_45"/><linearGradient id="Naamloos_verloop_685" x1="115.74" y1="62.1" x2="138.65" y2="136.33" gradientTransform="matrix(0.69, 0.22, -0.23, 0.67, 49.7, 18.08)" gradientUnits="userSpaceOnUse"><stop offset="0.06" stop-color="#fdb089"/><stop offset="0.22" stop-color="#fda078"/></linearGradient><linearGradient id="Naamloos_verloop_45-6" x1="147.05" y1="74.73" x2="177.56" y2="105.24" gradientTransform="matrix(0.81, -0.11, 0.09, 1.03, 2.66, 12.16)" xlink:href="#Naamloos_verloop_45"/></defs><g class="cls-1"><ellipse cx="550.84" cy="841.4" rx="210.12" ry="55.53"/></g><rect class="cls-2" x="392.92" y="74.69" width="29.08" height="36.06" rx="13.26"/><rect class="cls-2" x="527.49" y="762.66" width="33.05" height="44.45" rx="5.99"/><rect class="cls-2" x="428.64" y="762.66" width="33.05" height="44.45" rx="5.99"/><path class="cls-3" d="M471.69,787.35c-21.79,2.28-41.62,1.21-63.59,0-3.18-.17-4,3.11-5.13-3C368.67,596,375.8,632.21,396.64,454.55c24.46,2.5,66.87,3,91,8.69C450.82,665.51,443.09,585.53,471.69,787.35Z"/><path class="cls-4" d="M582,446.66v27.25a64.6,64.6,0,0,1-6.82,29c-15,102.45-20,172.87-9.32,286.53-21.24.5-42.35-.74-63.73-2-3.1-.19-4.27.85-4.76-3C485.7,692.35,473.16,620.88,473,538.89H458.66a65.74,65.74,0,0,1-65.74-65.74V446.66Z"/><rect class="cls-5" x="273.85" y="126.54" width="56.98" height="173.94" rx="25.99" transform="translate(499.72 -99.6) rotate(87)"/><path class="cls-6" d="M377.54,175.53h44.6a5,5,0,0,1,5,5v44.6a41.59,41.59,0,0,1-41.59,41.59h-30.6a19,19,0,0,1-19-19v-30.6a41.59,41.59,0,0,1,41.59-41.59Z" transform="translate(180.71 613.73) rotate(-93)"/><path class="cls-7" d="M441.17,170.93h78A77.11,77.11,0,0,1,596.27,248V432a25,25,0,0,1-25,25H405.47a25,25,0,0,1-25-25V231.63A60.69,60.69,0,0,1,441.17,170.93Z"/><rect class="cls-8" x="449.31" y="128.52" width="54.32" height="67.35" rx="23.01"/><path class="cls-9" d="M550.84,88v9.53a13.27,13.27,0,0,1-11.26,13.12,63.79,63.79,0,0,1-63.79,63.66H462.62a63.8,63.8,0,0,1-63.8-63.8V75.38A64.39,64.39,0,0,1,463,11.18h12.36a64.39,64.39,0,0,1,64.19,63.66A13.27,13.27,0,0,1,550.84,88Z"/><path class="cls-10" d="M479.67,83.15h3.62a8.39,8.39,0,0,1,8.39,8.39V93a6.39,6.39,0,0,1-6.39,6.39h-3.62A8.39,8.39,0,0,1,473.28,91V89.54a6.39,6.39,0,0,1,6.39-6.39Z" transform="translate(964.96 182.51) rotate(-180)"/><path class="cls-10" d="M434.89,83.15h3.62a8.39,8.39,0,0,1,8.39,8.39V93a6.39,6.39,0,0,1-6.39,6.39h-3.62A8.39,8.39,0,0,1,428.49,91V89.54a6.39,6.39,0,0,1,6.39-6.39Z" transform="translate(875.39 182.51) rotate(180)"/><path class="cls-11" d="M459.58,105h3.25a3.39,3.39,0,0,1,3.39,3.39v9.25a5.57,5.57,0,0,1-5.57,5.57h-1.07a5.57,5.57,0,0,1-5.57-5.57v-7.08a5.57,5.57,0,0,1,5.57-5.57Z"/><rect class="cls-11" x="455.56" y="128.8" width="9.11" height="28.39" rx="4.15" transform="translate(603.11 -317.12) rotate(90)"/><rect class="cls-10" x="432.59" y="56.2" width="9.11" height="32.48" rx="4.15" transform="translate(509.59 -364.7) rotate(90)"/><rect class="cls-10" x="480.91" y="56.2" width="9.11" height="32.48" rx="4.15" transform="translate(557.91 -413.02) rotate(90)"/><path class="cls-12" d="M546.21,69.69a10.34,10.34,0,0,1-10.15,10.53,9.54,9.54,0,0,1-3.26-.56A76.39,76.39,0,0,0,514.61,48.5,74,74,0,0,0,498.81,36H429.33a16.65,16.65,0,0,1-1.88-.11A74.76,74.76,0,0,0,404,57.56a10.37,10.37,0,0,0-1.94,2.28,76.74,76.74,0,0,1,14.1-30.92,15.57,15.57,0,0,1-2.57-8.61V7a7,7,0,0,1,7-7h70.3A15.71,15.71,0,0,1,504,7a73.49,73.49,0,0,1,21,15.26A76.73,76.73,0,0,1,545.1,61.17l.55,3.21v0c.18,1.22.33,2.44.44,3.67a.2.2,0,0,1,0,.07c0,.38.08.76.1,1.13C546.21,69.42,546.21,69.56,546.21,69.69Z"/><path class="cls-13" d="M609,384.63a25.84,25.84,0,0,1-11.68,4.59l3.95-1.07A25.79,25.79,0,0,0,609,384.63Z"/><rect class="cls-14" x="544.73" y="394.63" width="21.98" height="53.29" rx="10.02" transform="translate(540.3 1118.46) rotate(-125.9)"/><rect class="cls-15" x="441.09" y="785.81" width="33.05" height="26.04" rx="5.99"/><rect class="cls-16" x="399.15" y="771" width="37.89" height="39.68" rx="5.99"/><path class="cls-15" d="M406.6,785.81h11.08a6,6,0,0,1,6,6v14.06a6,6,0,0,1-6,6H396.6a6,6,0,0,1-6-6V801.8A16,16,0,0,1,406.6,785.81Z"/><rect class="cls-15" x="334.94" y="834.81" width="139.2" height="15.13" rx="4.84"/><path class="cls-17" d="M364.77,804.76H474.14a0,0,0,0,1,0,0V844.2a0,0,0,0,1,0,0H338.4a3.46,3.46,0,0,1-3.46-3.46v-6.15a29.83,29.83,0,0,1,29.83-29.83Z"/><path class="cls-16" d="M474.14,804.76v5.91H378.86a35.44,35.44,0,0,0-35.3,33.53h-4.51a4.1,4.1,0,0,1-4.1-4.1,35.44,35.44,0,0,1,35.34-35.34Z"/><path class="cls-17" d="M396.6,797.66h71.55a6,6,0,0,1,6,6v8.2a0,0,0,0,1,0,0H396.6a6,6,0,0,1-6-6v-2.21A6,6,0,0,1,396.6,797.66Z"/><rect class="cls-15" x="539.94" y="785.81" width="33.05" height="26.04" rx="5.99"/><rect class="cls-16" x="498" y="771" width="37.89" height="39.68" rx="5.99"/><path class="cls-15" d="M505.45,785.81h11.08a6,6,0,0,1,6,6v14.06a6,6,0,0,1-6,6H495.45a6,6,0,0,1-6-6V801.8a16,16,0,0,1,16-16Z"/><rect class="cls-18" x="433.79" y="834.81" width="139.2" height="15.13" rx="4.84"/><path class="cls-17" d="M463.62,804.76H573a0,0,0,0,1,0,0V844.2a0,0,0,0,1,0,0H437.25a3.46,3.46,0,0,1-3.46-3.46v-6.15A29.83,29.83,0,0,1,463.62,804.76Z"/><path class="cls-16" d="M573,804.76v5.91H477.71a35.44,35.44,0,0,0-35.3,33.53h-4.52a4.1,4.1,0,0,1-4.09-4.1,35.42,35.42,0,0,1,35.34-35.34Z"/><path class="cls-17" d="M495.45,797.66H567a6,6,0,0,1,6,6v8.2a0,0,0,0,1,0,0H495.45a6,6,0,0,1-6-6v-2.21A6,6,0,0,1,495.45,797.66Z"/><path class="cls-19" d="M628.78,191.56l75.76,104.67a26,26,0,0,1,3.76,23,5.49,5.49,0,0,1-.2.57,25.8,25.8,0,0,1-4.19,7.38l-2.58,3.18L622.6,427.61a25.77,25.77,0,0,1-10.44,7.73,34,34,0,0,1-8.76,23.08l-5,5.54a35.54,35.54,0,0,1-50.06,2.59l-4.21-3.79a23.42,23.42,0,0,1-1.7-33L562,408.09a24.32,24.32,0,0,1,11.55-7.16,25.84,25.84,0,0,1,4.77-9.17l66-81.54L582.62,225a26,26,0,0,1,5.82-36.29l4-2.93A26,26,0,0,1,628.78,191.56Z"/><path class="cls-13" d="M609.5,384.28a26,26,0,0,0,10.44-20.83v-5.73A26,26,0,0,1,609.5,384.28Z"/><path class="cls-20" d="M568,164.21h30.6a41.59,41.59,0,0,1,41.59,41.59v44.6a5,5,0,0,1-5,5h-44.6A41.59,41.59,0,0,1,549,213.81v-30.6A19,19,0,0,1,568,164.21Z" transform="translate(-10.09 388.46) rotate(-35.9)"/><rect class="cls-21" x="104.35" y="39.3" width="20.03" height="69.4" rx="10.02" transform="translate(-18.28 104.99) rotate(-46.05)"/><path class="cls-22" d="M107.81,100.78h0a20.07,20.07,0,0,1,27.73-2.23L258.21,198.94a20.07,20.07,0,0,1,2.32,28.83l-9.89,11.17a20.06,20.06,0,0,1-29.13,1L108.72,128.35A20.07,20.07,0,0,1,107.81,100.78Z"/><path class="cls-23" d="M118.59,85.61H127a14.21,14.21,0,0,1,14.21,14.21V126A14.21,14.21,0,0,1,127,140.23H103.51A14.21,14.21,0,0,1,89.29,126v-11.1a29.3,29.3,0,0,1,29.3-29.3Z" transform="translate(-46.04 117.52) rotate(-46.05)"/><rect class="cls-24" x="132.62" y="59.16" width="17.85" height="54.98" rx="8.6" transform="translate(-22.04 58.68) rotate(-21.77)"/></svg>