<svg id="Laag_1" data-name="Laag 1" xmlns="http://www.w3.org/2000/svg" xmlns:xlink="http://www.w3.org/1999/xlink" viewBox="0 0 259.93 228.55"><defs><style>.cls-1{fill:url(#Naamloos_verloop_634);}.cls-2{fill:url(#Naamloos_verloop_637);}.cls-3{fill:url(#Naamloos_verloop_635);}.cls-4{fill:url(#Naamloos_verloop_634-2);}.cls-5{fill:url(#Naamloos_verloop_635-2);}.cls-6{fill:url(#Naamloos_verloop_635-3);}.cls-7{fill:url(#Naamloos_verloop_635-4);}.cls-8{fill:url(#Naamloos_verloop_635-5);}.cls-9{fill:url(#Naamloos_verloop_635-6);}.cls-10{fill:url(#Naamloos_verloop_634-3);}.cls-11{fill:url(#Naamloos_verloop_428);}.cls-12{fill:url(#Naamloos_verloop_638);}.cls-13{fill:url(#Naamloos_verloop_638-2);}</style><linearGradient id="Naamloos_verloop_634" x1="150.37" y1="117.64" x2="203.22" y2="117.64" gradientUnits="userSpaceOnUse"><stop offset="0" stop-color="#cfd300"/><stop offset="1" stop-color="#9b9e00"/></linearGradient><linearGradient id="Naamloos_verloop_637" x1="91.5" y1="71" x2="185.13" y2="164.63" gradientUnits="userSpaceOnUse"><stop offset="0" stop-color="#f5f6cc"/><stop offset="0.06" stop-color="#f3f4bf"/><stop offset="0.23" stop-color="#edee9f"/><stop offset="0.4" stop-color="#e8ea86"/><stop offset="0.58" stop-color="#e5e774"/><stop offset="0.78" stop-color="#e3e669"/><stop offset="1" stop-color="#e2e566"/></linearGradient><linearGradient id="Naamloos_verloop_635" x1="107.93" y1="115.85" x2="111.65" y2="112.12" gradientUnits="userSpaceOnUse"><stop offset="0" stop-color="#686a00"/><stop offset="1" stop-color="#9b9e00"/></linearGradient><linearGradient id="Naamloos_verloop_634-2" x1="107.06" y1="127.05" x2="114.54" y2="119.58" xlink:href="#Naamloos_verloop_634"/><linearGradient id="Naamloos_verloop_635-2" x1="138.76" y1="125.79" x2="163.7" y2="100.85" xlink:href="#Naamloos_verloop_635"/><linearGradient id="Naamloos_verloop_635-3" x1="171.57" y1="121.61" x2="183.01" y2="110.17" xlink:href="#Naamloos_verloop_635"/><linearGradient id="Naamloos_verloop_635-4" x1="176.25" y1="72.07" x2="195.77" y2="52.56" xlink:href="#Naamloos_verloop_635"/><linearGradient id="Naamloos_verloop_635-5" x1="170.27" y1="119.18" x2="178.63" y2="127.54" xlink:href="#Naamloos_verloop_635"/><linearGradient id="Naamloos_verloop_635-6" x1="149.46" y1="118.11" x2="160.52" y2="129.17" xlink:href="#Naamloos_verloop_635"/><linearGradient id="Naamloos_verloop_634-3" x1="123.29" y1="110.52" x2="147.63" y2="134.86" xlink:href="#Naamloos_verloop_634"/><linearGradient id="Naamloos_verloop_428" x1="99.75" y1="31.18" x2="130.93" y2="62.36" gradientUnits="userSpaceOnUse"><stop offset="0" stop-color="#adbac1"/><stop offset="1" stop-color="#c9d2d8"/></linearGradient><linearGradient id="Naamloos_verloop_638" x1="101.36" y1="61.89" x2="127.03" y2="36.22" gradientUnits="userSpaceOnUse"><stop offset="0" stop-color="#798c96"/><stop offset="0.41" stop-color="#7b8e98"/><stop offset="0.59" stop-color="#82949e"/><stop offset="0.73" stop-color="#8f9fa8"/><stop offset="0.84" stop-color="#a1afb7"/><stop offset="0.94" stop-color="#b8c3ca"/><stop offset="1" stop-color="#c9d2d8"/></linearGradient><linearGradient id="Naamloos_verloop_638-2" x1="-188.65" y1="-84.91" x2="-192.9" y2="-86.5" gradientTransform="translate(305.36 138.63) scale(1.14 1.06)" xlink:href="#Naamloos_verloop_638"/></defs><path class="cls-1" d="M177.83,50.57S197.89,62.15,203.22,60c0,0-16,57-22.66,57.62l-9.11,2.71,10.63,3.73-4.25,3.21s7.78,37.9,16.85,39c0,0-21.88,7-29.63,18.44l-14.68-80.9Z"/><path class="cls-2" d="M98.21,64.3s62.74,0,79.62-13.73c0,0-12,50.47-6,58.44,0,0-8.58,6.64-11.68,6.19s13.28,46,4.87,69.5c0,0-77-.44-78.35-12.84s25-36.29,16.92-48.25l12.3-2.65L97.77,101.62S107,97.29,104,84.11A152.4,152.4,0,0,0,98.21,64.3Z"/><path class="cls-3" d="M97.77,101.62l26.08,22.7s-21.34-12.08-23.25-16.11S97.77,101.62,97.77,101.62Z"/><path class="cls-4" d="M103.62,123.61a121.92,121.92,0,0,0,13.06.71l-.76-3.36Z"/><path class="cls-5" d="M160.18,115.2l-29.58,2.44s34.51-4.31,41.26-8.63C171.86,109,164.34,115.59,160.18,115.2Z"/><path class="cls-6" d="M185,112.11s-9.51,7.68-16.3,6.58c0,0,8.92,2.18,12.07-.47A14.51,14.51,0,0,0,185,112.11Z"/><path class="cls-7" d="M177.83,50.57l4.25,27.33L188.29,80,203.22,60S192.25,59.23,177.83,50.57Z"/><path class="cls-8" d="M182.08,124.08l-10.63-3.73-4.64,2.29S172.5,121.92,182.08,124.08Z"/><path class="cls-9" d="M161.14,124.08A22.26,22.26,0,0,0,146.61,121s14.63,3.58,15.32,6.81Z"/><path class="cls-10" d="M116.17,117.64s34.07,4.09,38.55,10.13c0,0-25.23-7.13-30.87-3.45Z"/><path class="cls-11" d="M130.61,62.68l-4.27.36-2.49.21s.56-18.88-3.3-26.55c-3.14-6.22-28.31,12-30.64,13.74l-.17.13-3.09-6.29c8.56-1.32,33.52-21.83,37.2-18.4S130.61,62.68,130.61,62.68Z"/><path class="cls-12" d="M126.37,63l0,0-2.49.21s.56-18.88-3.3-26.55c-3.14-6.22-28.31,12-30.64,13.74l.47-3.73s24.84-14.63,28.85-16.07C121.41,29.85,125.63,28.79,126.37,63Z"/><ellipse class="cls-13" cx="88.13" cy="47.49" rx="2.38" ry="3.48" transform="translate(-10.72 31.63) rotate(-19.2)"/></svg>