<svg id="Laag_1" data-name="Laag 1" xmlns="http://www.w3.org/2000/svg" xmlns:xlink="http://www.w3.org/1999/xlink" viewBox="0 0 259.93 228.55"><defs><style>.cls-1{fill:url(#Naamloos_verloop_165);}.cls-2{fill:url(#Naamloos_verloop_168);}.cls-3{fill:url(#Naamloos_verloop_165-2);}.cls-4{fill:url(#Naamloos_verloop_165-3);}.cls-5{fill:url(#Naamloos_verloop_168-2);}.cls-6{fill:url(#Naamloos_verloop_165-4);}.cls-7{fill:url(#Naamloos_verloop_168-3);}.cls-8{fill:url(#Naamloos_verloop_168-4);}.cls-9{fill:url(#Naamloos_verloop_168-5);}.cls-10{fill:#fff;opacity:0.21;}.cls-11{fill:url(#Naamloos_verloop_167);}.cls-12{fill:url(#Naamloos_verloop_167-2);}.cls-13{fill:url(#Naamloos_verloop_165-5);}.cls-14{fill:url(#Naamloos_verloop_165-6);}</style><linearGradient id="Naamloos_verloop_165" x1="452.61" y1="-1934.3" x2="485.51" y2="-1934.3" gradientTransform="matrix(0.96, 0.27, 0.27, -0.96, 240.13, -1828.96)" gradientUnits="userSpaceOnUse"><stop offset="0" stop-color="#8489b1"/><stop offset="1" stop-color="#9daabc"/></linearGradient><linearGradient id="Naamloos_verloop_168" x1="454.04" y1="-1936.18" x2="477.02" y2="-1936.18" gradientTransform="matrix(0.96, 0.27, 0.27, -0.96, 240.13, -1828.96)" gradientUnits="userSpaceOnUse"><stop offset="0" stop-color="#adc8d5"/><stop offset="1" stop-color="#9daabc"/></linearGradient><linearGradient id="Naamloos_verloop_165-2" x1="458.3" y1="-1922.99" x2="410.91" y2="-1923.78" xlink:href="#Naamloos_verloop_165"/><linearGradient id="Naamloos_verloop_165-3" x1="423.17" y1="-1942.83" x2="475.58" y2="-1899.4" xlink:href="#Naamloos_verloop_165"/><linearGradient id="Naamloos_verloop_168-2" x1="483.7" y1="-1927.66" x2="419.39" y2="-1928.72" gradientTransform="matrix(0.96, 0.29, 0.29, -0.96, 262.76, -1837.69)" xlink:href="#Naamloos_verloop_168"/><linearGradient id="Naamloos_verloop_165-4" x1="398.07" y1="-1902.25" x2="426.1" y2="-1924.91" xlink:href="#Naamloos_verloop_165"/><linearGradient id="Naamloos_verloop_168-3" x1="1430.44" y1="-1941.02" x2="1500.39" y2="-1941.02" gradientTransform="matrix(0.16, 0.99, 0.99, -0.16, 1852.58, -1612.99)" xlink:href="#Naamloos_verloop_168"/><linearGradient id="Naamloos_verloop_168-4" x1="1475.78" y1="-1689.84" x2="1551.3" y2="-1689.84" gradientTransform="matrix(-0.27, 0.96, 0.96, 0.27, 2135.12, -884.7)" xlink:href="#Naamloos_verloop_168"/><linearGradient id="Naamloos_verloop_168-5" x1="1475.78" y1="-1717.92" x2="1545.72" y2="-1717.92" gradientTransform="matrix(-0.27, 0.96, 0.96, 0.27, 2135.12, -884.7)" xlink:href="#Naamloos_verloop_168"/><linearGradient id="Naamloos_verloop_167" x1="1494.6" y1="-1734.96" x2="1526.9" y2="-1734.96" gradientTransform="matrix(-0.27, 0.96, 0.96, 0.27, 2135.12, -884.7)" gradientUnits="userSpaceOnUse"><stop offset="0" stop-color="#d8d8d8"/><stop offset="1" stop-color="#bdbec1"/></linearGradient><linearGradient id="Naamloos_verloop_167-2" x1="1526.9" y1="-1744.93" x2="1494.6" y2="-1744.93" gradientTransform="matrix(-1, 0, 0, 1, 1557.76, 1843.58)" xlink:href="#Naamloos_verloop_167"/><linearGradient id="Naamloos_verloop_165-5" x1="951.05" y1="-1259.64" x2="918.74" y2="-1259.64" gradientTransform="matrix(0, 2.16, 4.9, 0, 6380.98, -1881.84)" xlink:href="#Naamloos_verloop_165"/><linearGradient id="Naamloos_verloop_165-6" x1="926.08" y1="-1266.94" x2="943.7" y2="-1252.34" gradientTransform="matrix(0, 2.16, 4.9, 0, 6380.98, -1881.84)" xlink:href="#Naamloos_verloop_165"/></defs><polygon class="cls-1" points="148.68 172.95 182.15 175.44 173.4 142.67 148.68 172.95"/><polygon class="cls-2" points="150.65 171.25 173.79 173.82 166.46 146.88 150.65 171.25"/><path class="cls-3" d="M111.3,153l28.3,22.52a4.88,4.88,0,0,0,6.24-.12l11.11-9.6,12.62-53L142,107.38Z"/><polygon class="cls-4" points="119.15 147.58 187.88 174.49 182.28 122.03 133.6 103.75 119.15 147.58"/><path class="cls-5" d="M117.51,134.7l-9.4,13.58L141,166a4.22,4.22,0,0,0,4.3-.2l29.28-19.31L182.28,122l-39.43-.73Z"/><path class="cls-6" d="M100.57,155.78s4.73,2.17,8-.77,41.72-25,41.4-46.68l-27.06-7.59Z"/><path id="Union_32" data-name="Union 32" class="cls-7" d="M202.13,105.11l-28.53,4.65-13.67,7.9-11.64,6.46-19.51,19.66-.52,5.94,18.18-6.08,12.25,4.41-8.88,15,33.35,15a6.05,6.05,0,0,0,3.51.46l26.71-4.35c4.56-.74,5.75-16.8,2.64-35.86S206.7,104.37,202.13,105.11Z"/><path id="Union_32-2" data-name="Union 32" class="cls-8" d="M136.69,87.48,91.25,74.73,55.2,101l17.16,41.13,28.21,13.7c10.35-4.87,16.45-10.78,20.12-15.34,6.85-8.51,6.14-13.38,13.83-20.44,8-7.37,13.9-6.74,15.4-11.67C151,104.76,149.71,98.58,136.69,87.48Z"/><path id="Path_111" data-name="Path 111" class="cls-9" d="M55.2,101l17.16,41.13s11.49-6.23,18.48-31.14.41-36.21.41-36.21Z"/><path id="Path_111-2" data-name="Path 111" class="cls-10" d="M55.2,101l17.16,41.13s11.49-6.23,18.48-31.14.41-36.21.41-36.21Z"/><path id="Union_35" data-name="Union 35" class="cls-11" d="M66.93,87.46,51.38,83.1l-8.73,31.1,15.56,4.36c2,.57,5.61-5.93,8-14.52S69,88,66.93,87.46Z"/><ellipse id="Ellipse_229" data-name="Ellipse 229" class="cls-12" cx="47.02" cy="98.65" rx="16.15" ry="3.8" transform="translate(-60.67 117.28) rotate(-74.33)"/><ellipse id="Ellipse_229-2" data-name="Ellipse 229" class="cls-13" cx="207.56" cy="139.44" rx="18.63" ry="34.92" transform="translate(-25.04 47.66) rotate(-12.36)"/><ellipse id="Ellipse_229-3" data-name="Ellipse 229" class="cls-14" cx="207.56" cy="139.44" rx="16.81" ry="31.52" transform="translate(-25.04 47.66) rotate(-12.36)"/></svg>