<svg id="Laag_1" data-name="Laag 1" xmlns="http://www.w3.org/2000/svg" xmlns:xlink="http://www.w3.org/1999/xlink" viewBox="0 0 259.93 228.55"><defs><style>.cls-1{fill:url(#Naamloos_verloop_75);}.cls-2{fill:url(#Naamloos_verloop_63);}.cls-3{fill:url(#Naamloos_verloop_75-2);}.cls-4{fill:url(#Naamloos_verloop_75-3);}.cls-5{fill:url(#Naamloos_verloop_63-2);}.cls-6{fill:url(#Naamloos_verloop_75-4);}.cls-7{fill:url(#Naamloos_verloop_63-3);}.cls-8{fill:url(#Naamloos_verloop_63-4);}.cls-9{fill:url(#Naamloos_verloop_63-5);}.cls-10{fill:#fff;opacity:0.21;}.cls-11{fill:url(#Naamloos_verloop_17);}.cls-12{fill:url(#Naamloos_verloop_17-2);}.cls-13{fill:url(#Naamloos_verloop_75-5);}.cls-14{fill:url(#Naamloos_verloop_75-6);}</style><linearGradient id="Naamloos_verloop_75" x1="164.31" y1="73.7" x2="203.38" y2="73.7" gradientUnits="userSpaceOnUse"><stop offset="0" stop-color="#3e6ab1"/><stop offset="1" stop-color="#229abc"/></linearGradient><linearGradient id="Naamloos_verloop_63" x1="166.02" y1="71.47" x2="193.3" y2="71.47" gradientUnits="userSpaceOnUse"><stop offset="0" stop-color="#00d5ca"/><stop offset="1" stop-color="#229abc"/></linearGradient><linearGradient id="Naamloos_verloop_75-2" x1="171.08" y1="87.13" x2="114.8" y2="86.2" xlink:href="#Naamloos_verloop_75"/><linearGradient id="Naamloos_verloop_75-3" x1="129.36" y1="63.58" x2="191.59" y2="115.15" xlink:href="#Naamloos_verloop_75"/><linearGradient id="Naamloos_verloop_63-2" x1="170.99" y1="101.17" x2="94.62" y2="99.91" gradientTransform="translate(13.76 -8.69) rotate(-0.95)" xlink:href="#Naamloos_verloop_63"/><linearGradient id="Naamloos_verloop_75-4" x1="99.55" y1="111.77" x2="132.84" y2="84.85" xlink:href="#Naamloos_verloop_75"/><linearGradient id="Naamloos_verloop_63-3" x1="-1033.16" y1="114.93" x2="-950.1" y2="114.93" gradientTransform="translate(496.14 -856.2) rotate(-65.08)" xlink:href="#Naamloos_verloop_63"/><linearGradient id="Naamloos_verloop_63-4" x1="-1618.64" y1="-251.67" x2="-1528.96" y2="-251.67" gradientTransform="translate(341.35 -1472.33) rotate(-90)" xlink:href="#Naamloos_verloop_63"/><linearGradient id="Naamloos_verloop_63-5" x1="-1618.64" y1="-285.03" x2="-1535.58" y2="-285.03" gradientTransform="translate(341.35 -1472.33) rotate(-90)" xlink:href="#Naamloos_verloop_63"/><linearGradient id="Naamloos_verloop_17" x1="-1596.29" y1="-305.25" x2="-1557.93" y2="-305.25" gradientTransform="translate(341.35 -1472.33) rotate(-90)" gradientUnits="userSpaceOnUse"><stop offset="0" stop-color="#d8d8d8"/><stop offset="1" stop-color="#adbac1"/></linearGradient><linearGradient id="Naamloos_verloop_17-2" x1="-1557.93" y1="-317.1" x2="-1596.29" y2="-317.1" xlink:href="#Naamloos_verloop_17"/><linearGradient id="Naamloos_verloop_75-5" x1="-894.25" y1="-563.69" x2="-932.61" y2="-563.69" gradientTransform="translate(2195.76 2872.24) scale(2.16 4.9)" xlink:href="#Naamloos_verloop_75"/><linearGradient id="Naamloos_verloop_75-6" x1="-923.89" y1="-572.36" x2="-902.97" y2="-555.02" gradientTransform="translate(2195.76 2872.24) scale(2.16 4.9)" xlink:href="#Naamloos_verloop_75"/></defs><polygon class="cls-1" points="164.31 52.43 203.38 60.32 182.86 94.98 164.31 52.43"/><polygon class="cls-2" points="166.02 55.01 193.3 59.48 176.28 87.93 166.02 55.01"/><path class="cls-3" d="M115.18,63.25l39.58-16.68a5.79,5.79,0,0,1,7.09,2.14l9.62,14.54-2.55,64.64-33.26-2.62Z"/><polygon class="cls-4" points="122.41 71.97 209.63 63.25 186.4 121.42 124.88 126.72 122.41 71.97"/><path class="cls-5" d="M116.41,86.17,110,67.63,153.32,58a5,5,0,0,1,4.85,1.6l27.29,31.47.93,30.36-45.3-11.8Z"/><path class="cls-6" d="M103.8,56.63s6.1-1,8.85,3.44,39.67,42,32.35,66.65H111.63Z"/><path id="Union_32" data-name="Union 32" class="cls-7" d="M203.67,147.13l-31.13-14.46-13.09-13.42-11.24-11.12-16-28.73,1.32-7,18.83,12.78,15.42-1.12-5.35-20,42.94-6.46a7.29,7.29,0,0,1,4.17.6l29.14,13.54c5,2.31,1.19,21-8.48,41.85S208.66,149.45,203.67,147.13Z"/><path id="Union_32-2" data-name="Union 32" class="cls-8" d="M123.19,146.31h-56L34.34,104.78,67.16,63.25l36.64-6.62c10.28,8.9,15.35,17.61,18.09,24,5.1,11.92,2.72,17.26,9.25,27.8,6.81,11,13.73,12.17,13.86,18.29C145.1,131.14,141.64,137.79,123.19,146.31Z"/><path id="Path_111" data-name="Path 111" class="cls-9" d="M34.34,104.78,67.16,63.25S78.3,74.06,78.3,104.78s-11.14,41.53-11.14,41.53Z"/><path id="Path_111-2" data-name="Path 111" class="cls-10" d="M34.34,104.78,67.16,63.25S78.3,74.06,78.3,104.78s-11.14,41.53-11.14,41.53Z"/><path id="Union_35" data-name="Union 35" class="cls-11" d="M43.43,124H24.25V85.6H43.43c2.49,0,4.51,8.58,4.51,19.18S45.92,124,43.43,124Z"/><ellipse id="Ellipse_229" data-name="Ellipse 229" class="cls-12" cx="24.25" cy="104.78" rx="4.51" ry="19.18"/><ellipse id="Ellipse_229-2" data-name="Ellipse 229" class="cls-13" cx="220.89" cy="109.62" rx="41.47" ry="22.12" transform="translate(20.32 253.09) rotate(-61.97)"/><ellipse id="Ellipse_229-3" data-name="Ellipse 229" class="cls-14" cx="220.89" cy="109.62" rx="37.43" ry="19.97" transform="translate(20.32 253.09) rotate(-61.97)"/></svg>