<svg id="Laag_1" data-name="Laag 1" xmlns="http://www.w3.org/2000/svg" xmlns:xlink="http://www.w3.org/1999/xlink" viewBox="0 0 259.93 228.55"><defs><style>.cls-1{fill:url(#Naamloos_verloop_63);}.cls-2{fill:url(#Naamloos_verloop_63-2);}.cls-3{fill:#fff;opacity:0.21;}.cls-4{fill:url(#Naamloos_verloop_50);}.cls-5{fill:url(#Naamloos_verloop_17);}.cls-6{fill:url(#Naamloos_verloop_17-2);}.cls-7{fill:url(#Naamloos_verloop_75);}.cls-8{fill:url(#Naamloos_verloop_75-2);}.cls-9{fill:url(#Naamloos_verloop_75-3);}</style><linearGradient id="Naamloos_verloop_63" x1="97.59" y1="124.24" x2="162.34" y2="124.24" gradientUnits="userSpaceOnUse"><stop offset="0" stop-color="#00d5ca"/><stop offset="1" stop-color="#229abc"/></linearGradient><linearGradient id="Naamloos_verloop_63-2" x1="97.59" y1="51.84" x2="162.34" y2="51.84" xlink:href="#Naamloos_verloop_63"/><linearGradient id="Naamloos_verloop_50" x1="97.59" y1="136.65" x2="162.34" y2="136.65" gradientUnits="userSpaceOnUse"><stop offset="0" stop-color="#fff"/><stop offset="0" stop-color="#ececec"/><stop offset="1" stop-color="#798c96"/></linearGradient><linearGradient id="Naamloos_verloop_17" x1="115.01" y1="36.07" x2="144.92" y2="36.07" gradientUnits="userSpaceOnUse"><stop offset="0" stop-color="#d8d8d8"/><stop offset="1" stop-color="#adbac1"/></linearGradient><linearGradient id="Naamloos_verloop_17-2" x1="144.92" y1="26.84" x2="115.01" y2="26.84" xlink:href="#Naamloos_verloop_17"/><linearGradient id="Naamloos_verloop_75" x1="135.22" y1="95.85" x2="162.34" y2="95.85" gradientUnits="userSpaceOnUse"><stop offset="0" stop-color="#3e6ab1"/><stop offset="1" stop-color="#229abc"/></linearGradient><linearGradient id="Naamloos_verloop_75-2" x1="109.31" y1="176.52" x2="162.34" y2="176.52" xlink:href="#Naamloos_verloop_75"/><linearGradient id="Naamloos_verloop_75-3" x1="143.8" y1="87.96" x2="162.34" y2="87.96" xlink:href="#Naamloos_verloop_75"/></defs><path id="Union_32" data-name="Union 32" class="cls-1" d="M97.59,206V60.29L130,34.71l32.38,25.58h0V206c0,4.28-14.5,7.75-32.38,7.75S97.59,210.31,97.59,206Z"/><path id="Path_111" data-name="Path 111" class="cls-2" d="M130,34.71l32.38,25.58S153.91,69,130,69s-32.37-8.68-32.37-8.68Z"/><path id="Path_111-2" data-name="Path 111" class="cls-3" d="M130,34.71l32.38,25.58S153.91,69,130,69s-32.37-8.68-32.37-8.68Z"/><path class="cls-4" d="M159.79,116a27.3,27.3,0,0,1-6.93,2.46,102.74,102.74,0,0,1-22.9,2.28,102.71,102.71,0,0,1-22.89-2.28,27.23,27.23,0,0,1-6.94-2.46c-1.68-1-2.54-2-2.54-3v39.53c0,4.28,14.49,7.75,32.37,7.75s32.38-3.47,32.38-7.75V113C162.34,114.05,161.48,115.06,159.79,116Z"/><path id="Union_35" data-name="Union 35" class="cls-5" d="M115,41.79V26.84h29.91v15c0,1.94-6.7,3.52-15,3.52S115,43.73,115,41.79Z"/><ellipse id="Ellipse_229" data-name="Ellipse 229" class="cls-6" cx="129.96" cy="26.84" rx="14.95" ry="3.52"/><path class="cls-7" d="M135.22,103.74s13.33.3,18.79-4.55A37.54,37.54,0,0,0,162.34,88s-3.15,14.7-6.24,15.19S135.22,103.74,135.22,103.74Z"/><path class="cls-8" d="M109.31,184.4s26.08.31,36.75-4.55,16.28-11.22,16.28-11.22-6.16,14.7-12.2,15.18S109.31,184.4,109.31,184.4Z"/><path class="cls-9" d="M143.8,95.85s9.12.3,12.85-4.55a40.84,40.84,0,0,0,5.69-11.23s-2.16,14.7-4.26,15.19S143.8,95.85,143.8,95.85Z"/><path class="cls-3" d="M116.63,73.8s-9.12-.3-12.85,4.55a40.84,40.84,0,0,0-5.69,11.23s2.15-14.7,4.26-15.19S116.63,73.8,116.63,73.8Z"/><path class="cls-3" d="M128.57,107.94s-15,.3-21.12-4.55a37.8,37.8,0,0,1-9.36-11.23s3.54,14.7,7,15.19S128.57,107.94,128.57,107.94Z"/></svg>