<svg id="Laag_1" data-name="Laag 1" xmlns="http://www.w3.org/2000/svg" xmlns:xlink="http://www.w3.org/1999/xlink" viewBox="0 0 259.93 284.25"><defs><style>.cls-1{fill:url(#Naamloos_verloop_426);}.cls-2{fill:url(#Naamloos_verloop_428);}.cls-3{fill:url(#Naamloos_verloop_451);}.cls-4{fill:url(#Naamloos_verloop_426-2);}.cls-5{fill:url(#Naamloos_verloop_428-2);}.cls-6{fill:none;}.cls-7{fill:url(#Naamloos_verloop_564);}.cls-8{fill:url(#Naamloos_verloop_425);}.cls-9{fill:url(#Naamloos_verloop_563);}.cls-10{fill:url(#Naamloos_verloop_564-2);}.cls-11{fill:url(#Naamloos_verloop_565);}.cls-12{fill:url(#Naamloos_verloop_563-2);}.cls-13{fill:#fff;opacity:0.17;}.cls-14{fill:url(#Naamloos_verloop_564-3);}.cls-15{fill:url(#Naamloos_verloop_563-3);}.cls-16{fill:url(#Naamloos_verloop_426-3);}.cls-17{fill:url(#Naamloos_verloop_426-4);}.cls-18{fill:url(#Naamloos_verloop_426-5);}.cls-19{fill:url(#Naamloos_verloop_426-6);}.cls-20{fill:url(#Naamloos_verloop_426-7);}.cls-21{fill:url(#Naamloos_verloop_428-3);}</style><linearGradient id="Naamloos_verloop_426" x1="102.14" y1="99.46" x2="146.35" y2="99.46" gradientUnits="userSpaceOnUse"><stop offset="0" stop-color="#798c96"/><stop offset="1" stop-color="#c9d2d8"/></linearGradient><linearGradient id="Naamloos_verloop_428" x1="105.08" y1="97.6" x2="130.11" y2="97.6" gradientUnits="userSpaceOnUse"><stop offset="0" stop-color="#adbac1"/><stop offset="1" stop-color="#c9d2d8"/></linearGradient><linearGradient id="Naamloos_verloop_451" x1="193.31" y1="154.32" x2="102.03" y2="154.32" gradientUnits="userSpaceOnUse"><stop offset="0" stop-color="#c9d2d7"/><stop offset="0.42" stop-color="#eef1f4"/><stop offset="1" stop-color="#c9d2d8"/></linearGradient><linearGradient id="Naamloos_verloop_426-2" x1="193.3" y1="163.58" x2="135.08" y2="163.58" xlink:href="#Naamloos_verloop_426"/><linearGradient id="Naamloos_verloop_428-2" x1="187.46" y1="162.09" x2="135.08" y2="162.09" xlink:href="#Naamloos_verloop_428"/><linearGradient id="Naamloos_verloop_564" x1="102.02" y1="198.47" x2="193.3" y2="198.47" gradientUnits="userSpaceOnUse"><stop offset="0" stop-color="#f0f93d"/><stop offset="1" stop-color="#f1d431"/></linearGradient><linearGradient id="Naamloos_verloop_425" x1="134.86" y1="39.26" x2="160.47" y2="39.26" gradientUnits="userSpaceOnUse"><stop offset="0" stop-color="#d8d8d8"/><stop offset="1" stop-color="#c9d2d8"/></linearGradient><linearGradient id="Naamloos_verloop_563" x1="319.4" y1="114.03" x2="288.77" y2="114.03" gradientTransform="translate(261.7 -269.56) rotate(90)" gradientUnits="userSpaceOnUse"><stop offset="0" stop-color="#ecc35c"/><stop offset="1" stop-color="#f1d431"/></linearGradient><linearGradient id="Naamloos_verloop_564-2" x1="102.03" y1="163.35" x2="193.3" y2="163.35" xlink:href="#Naamloos_verloop_564"/><linearGradient id="Naamloos_verloop_565" x1="193.3" y1="165.6" x2="180.89" y2="165.6" gradientUnits="userSpaceOnUse"><stop offset="0" stop-color="#ecc35c"/><stop offset="1" stop-color="#f1bd31"/></linearGradient><linearGradient id="Naamloos_verloop_563-2" x1="187.45" y1="168.67" x2="165.56" y2="168.67" gradientTransform="matrix(1, 0, 0, 1, 0, 0)" xlink:href="#Naamloos_verloop_563"/><linearGradient id="Naamloos_verloop_564-3" x1="288.77" y1="102.3" x2="319.4" y2="102.3" gradientTransform="translate(251.32 -281.21) rotate(90)" xlink:href="#Naamloos_verloop_564"/><linearGradient id="Naamloos_verloop_563-3" x1="319.4" y1="125.77" x2="288.77" y2="125.77" gradientTransform="translate(272.07 -257.9) rotate(90)" xlink:href="#Naamloos_verloop_563"/><linearGradient id="Naamloos_verloop_426-3" x1="133.92" y1="275.95" x2="133.92" y2="263.64" xlink:href="#Naamloos_verloop_426"/><linearGradient id="Naamloos_verloop_426-4" x1="1690.43" y1="275.95" x2="1690.43" y2="263.64" gradientTransform="matrix(-1, 0, 0, 1, 1851.7, 0)" xlink:href="#Naamloos_verloop_426"/><linearGradient id="Naamloos_verloop_426-5" x1="109.36" y1="275.73" x2="109.36" y2="261.8" xlink:href="#Naamloos_verloop_426"/><linearGradient id="Naamloos_verloop_426-6" x1="1717.48" y1="275.81" x2="1717.48" y2="261.88" gradientTransform="matrix(-1, 0, 0, 1, 1903.37, 0)" xlink:href="#Naamloos_verloop_426"/><linearGradient id="Naamloos_verloop_426-7" x1="1274.58" y1="390.75" x2="1288.48" y2="390.75" gradientTransform="translate(-498.29 -949.26) rotate(45)" xlink:href="#Naamloos_verloop_426"/><linearGradient id="Naamloos_verloop_428-3" x1="1268.72" y1="390.75" x2="1296.54" y2="390.75" gradientTransform="translate(-498.29 -949.26) rotate(45)" xlink:href="#Naamloos_verloop_428"/></defs><path class="cls-1" d="M122,72.57s-5.12,4.56-2.41,7.82-12.47,34.2-14.46,36.86-5.5,9.31,0,9.1,41.23-10,41.23-10Z"/><path class="cls-2" d="M122,72.57s2.92,10.26-2.85,19-12.94,18-9.79,21.5-3.15,13.28-4.19,13.28,25-1.22,25-1.22l-.7-56.29Z"/><path class="cls-3" d="M193.31,123.5V257.55a12.3,12.3,0,0,1-3.32,8.62l-7.39,7.46a7.83,7.83,0,0,1-11.6-.07L167,269.39c-3.75-3.84-9.28-3.38-12.57,1a8.35,8.35,0,0,1-6.71,3.65h0a8.37,8.37,0,0,1-6.69-3.65,8.41,8.41,0,0,0-6.73-3.64,8.11,8.11,0,0,0-5.83,2.6l-4,4.17a8.56,8.56,0,0,1-4.06,2.39,7.53,7.53,0,0,1-4.28-.22,8.59,8.59,0,0,1-3.26-2.1l-7.4-7.46a11.36,11.36,0,0,1-2.62-4.37,13.28,13.28,0,0,1-.69-4.25V124.79a12.38,12.38,0,0,1,5.39-.79c5.4.51,9.57-8.82,9.57-8.82s-8.34-.25,1.47-11.28S122,72.57,122,72.57c4.1-5.93,7.91-10.66,10.36-13.56a12.45,12.45,0,0,0,2.77-8V43.63c0-6.16,4.07-11.16,9.09-11.16h7c5,0,9.08,5,9.08,11.16V51A12.45,12.45,0,0,0,163,59C171,68.43,193.31,97.21,193.31,123.5Z"/><path class="cls-4" d="M185.46,151c-4.47,44.9-6.6,100.17-25.06,115.88h0a8,8,0,0,1,6.54,2.56l4.06,4.17a7.82,7.82,0,0,0,11.6.07l7.38-7.45a12.32,12.32,0,0,0,3.32-8.63v-134C193.3,97.21,171,68.44,163,59a12.55,12.55,0,0,1-2.77-8H135.08S189.93,106,185.46,151Z"/><path class="cls-5" d="M173.37,150.09c-1.08,35.84-15.61,89.6-22.34,112.74-2,7.05-3.37,11.25-3.37,11.25h0c.22,0,.43,0,.65,0l.39,0a8.61,8.61,0,0,0,5.68-3.57h0c2.63-3.55,6.7-4.54,10.14-2.83,6.77-5,13.8-13.72,17.31-29.21,8-35.21,11.47-140-17.64-167.4s-29.11-20-29.11-20S174.78,103.33,173.37,150.09Z"/><path class="cls-6" d="M185.29,131.82l-1,.26"/><path class="cls-7" d="M193.3,198.47a1.51,1.51,0,0,1-.2.73c-1,1.74-5.4,3.3-12.08,4.5-8.33,1.49-20.19,2.42-33.35,2.42-25.22,0-45.65-3.42-45.65-7.65s20.43-7.65,45.65-7.65c13.41,0,25.48,1,33.84,2.52C188.83,194.7,193.3,196.5,193.3,198.47Z"/><rect class="cls-8" x="134.86" y="27.53" width="25.61" height="23.46"/><rect class="cls-9" x="135.93" y="19.21" width="23.46" height="30.63" transform="translate(96.31 177.21) rotate(-83.37)"/><path class="cls-10" d="M184.24,132.08a108.46,108.46,0,0,1-11.88,1.85,234.49,234.49,0,0,1-24.69,1.22c-25,0-45.33-3.38-45.64-7.55v71.6H193.3V127.5c0,1.61-3,3.09-8,4.32Z"/><path class="cls-11" d="M193.3,127.5v71.7h-.2c-1,1.74-5.4,3.3-12.08,4.5h-.13c.22-1.94.42-8.39.62-10.35,1.45-14.16,2.59-28.76,4-42.4a62.28,62.28,0,0,0-1.22-18.86l1-.26C190.34,130.59,193.3,129.11,193.3,127.5Z"/><path class="cls-12" d="M185.29,131.82a396.6,396.6,0,0,1,1.62,62.75c-.06,1.56-.37,6.42-.46,7.94-2.64.63-5.46,1.2-8.46,1.68a115.91,115.91,0,0,1-12.43,1.33c.68-3.21,1.66-8,2.75-13.87C171,177,173,162.46,173.37,150.08a92.59,92.59,0,0,0-1-16.15,108.46,108.46,0,0,0,11.88-1.85Z"/><path class="cls-13" d="M135.08,59.11s-32,107.54-19.06,166.51c0,0,38.77-28,28-50C123.52,134,135.08,59.11,135.08,59.11Z"/><path class="cls-13" d="M138,25s-5.16,8.69-1.54,13.2S135.78,34,144,32.38s20.27-7.74,11.58-5.34C150.47,28.44,138,25,138,25Z"/><ellipse class="cls-14" cx="149.02" cy="22.87" rx="2.52" ry="15.31" transform="translate(109.09 168.25) rotate(-83.37)"/><ellipse class="cls-15" cx="146.31" cy="46.18" rx="2.52" ry="15.31" transform="translate(83.54 186.18) rotate(-83.37)"/><path class="cls-16" d="M147.64,274.08a8.38,8.38,0,0,1-6.7-3.65,8.39,8.39,0,0,0-6.72-3.64,8.1,8.1,0,0,0-5.83,2.6l-4.06,4.17a8.51,8.51,0,0,1-4.06,2.39,8.62,8.62,0,0,1-.07-1.14c0-6.17,6.15-11.17,13.73-11.17C141.21,263.64,147.17,268.25,147.64,274.08Z"/><path class="cls-17" d="M147.55,274.08a8.37,8.37,0,0,0,6.69-3.65,8.41,8.41,0,0,1,6.73-3.64,8.08,8.08,0,0,1,5.82,2.6l4.06,4.17a8.56,8.56,0,0,0,4.06,2.39,8.62,8.62,0,0,0,.07-1.14c0-6.17-6.14-11.17-13.73-11.17C154,263.64,148,268.25,147.55,274.08Z"/><path class="cls-18" d="M116,275.73a8.7,8.7,0,0,1-3.27-2.1l-7.39-7.46a11.23,11.23,0,0,1-2.62-4.37A14.89,14.89,0,0,1,113,268.28,16.79,16.79,0,0,1,116,275.73Z"/><path class="cls-19" d="M179.24,275.81a8.63,8.63,0,0,0,3.27-2.1l7.39-7.46a11.23,11.23,0,0,0,2.62-4.37,14.89,14.89,0,0,0-10.31,6.48A16.79,16.79,0,0,0,179.24,275.81Z"/><path class="cls-20" d="M136.73,221s-3.39,5.55-1.65,7.14,7.47-1.32,7.47-1.32l3-4.46s-2.06,10.11-5.7,12.16-16.55,8.13-19.73,12.08c0,0,5.15-11.48,3.34-13.91s7.15-3.25,7.15-3.25,2.34-5.49,4.21-7Z"/><path class="cls-21" d="M145.58,222.39s-10.6,11.08-12,7.3,3.17-8.66,3.17-8.66-8.43,2.61-8.36,6.61-7.81-1.5-7.81-1.5-3.54,9.07,2,9.91-2.43,10.58-2.43,10.58,12.2-5.52,12.28-3.26c.39,11,19.21-9,19.21-9s-16.44,1.3-12.9-1.07S145.58,222.39,145.58,222.39Z"/></svg>