<svg id="Laag_1" data-name="Laag 1" xmlns="http://www.w3.org/2000/svg" xmlns:xlink="http://www.w3.org/1999/xlink" viewBox="0 0 259.93 284.25"><defs><style>.cls-1{fill:url(#Naamloos_verloop_467);}.cls-2{fill:url(#Naamloos_verloop_464);}.cls-3{fill:url(#Naamloos_verloop_466);}.cls-4{fill:none;}.cls-5{fill:url(#Naamloos_verloop_465);}.cls-6{fill:url(#Naamloos_verloop_548);}.cls-7{fill:url(#Naamloos_verloop_553);}.cls-8{fill:url(#Naamloos_verloop_550);}.cls-9{fill:url(#Naamloos_verloop_548-2);}.cls-10{fill:#fff;opacity:0.17;}.cls-11{fill:url(#Naamloos_verloop_553-2);}.cls-12{fill:url(#Naamloos_verloop_548-3);}.cls-13{fill:url(#Naamloos_verloop_464-2);}.cls-14{fill:url(#Naamloos_verloop_464-3);}.cls-15{fill:url(#Naamloos_verloop_464-4);}.cls-16{fill:url(#Naamloos_verloop_464-5);}</style><linearGradient id="Naamloos_verloop_467" x1="175.67" y1="143.95" x2="100.07" y2="143.95" gradientUnits="userSpaceOnUse"><stop offset="0" stop-color="#93c7d7"/><stop offset="0.42" stop-color="#b0dbf4"/><stop offset="1" stop-color="#92c5d8"/></linearGradient><linearGradient id="Naamloos_verloop_464" x1="175.66" y1="153.21" x2="127.44" y2="153.21" gradientUnits="userSpaceOnUse"><stop offset="0" stop-color="#538796"/><stop offset="1" stop-color="#92c5d8"/></linearGradient><linearGradient id="Naamloos_verloop_466" x1="170.83" y1="152.47" x2="127.45" y2="152.47" gradientUnits="userSpaceOnUse"><stop offset="0" stop-color="#7cb2c1"/><stop offset="1" stop-color="#92c5d8"/></linearGradient><linearGradient id="Naamloos_verloop_465" x1="125.07" y1="29.64" x2="150.68" y2="29.64" gradientUnits="userSpaceOnUse"><stop offset="0" stop-color="#d8a1a8"/><stop offset="1" stop-color="#92c5d8"/></linearGradient><linearGradient id="Naamloos_verloop_548" x1="153.19" y1="24.91" x2="122.56" y2="24.91" gradientUnits="userSpaceOnUse"><stop offset="0" stop-color="#af2a07"/><stop offset="1" stop-color="#e9370a"/></linearGradient><linearGradient id="Naamloos_verloop_553" x1="100.07" y1="157.19" x2="175.67" y2="157.19" gradientUnits="userSpaceOnUse"><stop offset="0" stop-color="#ea451b"/><stop offset="0.39" stop-color="#ed5f3b"/><stop offset="1" stop-color="#e9370a"/></linearGradient><linearGradient id="Naamloos_verloop_550" x1="165.39" y1="155.98" x2="175.67" y2="155.98" gradientUnits="userSpaceOnUse"><stop offset="0" stop-color="#af2a07"/><stop offset="1" stop-color="#751c05"/></linearGradient><linearGradient id="Naamloos_verloop_548-2" x1="170.83" y1="159.05" x2="152.69" y2="159.05" xlink:href="#Naamloos_verloop_548"/><linearGradient id="Naamloos_verloop_553-2" x1="122.56" y1="13.17" x2="153.19" y2="13.17" xlink:href="#Naamloos_verloop_553"/><linearGradient id="Naamloos_verloop_548-3" x1="153.19" y1="36.64" x2="122.56" y2="36.64" xlink:href="#Naamloos_verloop_548"/><linearGradient id="Naamloos_verloop_464-2" x1="126.5" y1="265.05" x2="126.5" y2="254.02" xlink:href="#Naamloos_verloop_464"/><linearGradient id="Naamloos_verloop_464-3" x1="149.13" y1="265.05" x2="149.13" y2="254.02" xlink:href="#Naamloos_verloop_464"/><linearGradient id="Naamloos_verloop_464-4" x1="107.79" y1="265.06" x2="107.79" y2="252.18" xlink:href="#Naamloos_verloop_464"/><linearGradient id="Naamloos_verloop_464-5" x1="167.88" y1="265.06" x2="167.88" y2="252.27" xlink:href="#Naamloos_verloop_464"/></defs><path class="cls-1" d="M175.67,113.88V247.93a15.59,15.59,0,0,1-.34,3.3c-.08.36-.16.7-.26,1a11.15,11.15,0,0,1-2.92,4.36l-7.33,6.75,0,0a5.62,5.62,0,0,1-3.83,1.65h-.47a5.89,5.89,0,0,1-.94-.12,5.6,5.6,0,0,1-2.69-1.41l0,0-1-1.24,0,0-2-2.46a7.44,7.44,0,0,0-2.31-2,4.72,4.72,0,0,0-.61-.27l-.31-.11a7.38,7.38,0,0,0-.78-.19h0a2.35,2.35,0,0,0-.37-.05h-.53l-.48,0a7,7,0,0,0-5,3.6c-1.49,2.44-3.52,3.65-5.56,3.65h-.1c-2,0-4-1.25-5.47-3.65s-3.51-3.64-5.57-3.64a6.22,6.22,0,0,0-4.82,2.6l-2.14,2.65-.77,1,0,0a5.62,5.62,0,0,1-3.83,1.65h-.2a6,6,0,0,1-1.21-.13l-2.16-2.11-2.19-2.13-8.74-8.51a15.92,15.92,0,0,1-.57-4.25v-134c0-26.29,18.49-55.07,25.08-64.49a14.18,14.18,0,0,0,2.29-8V34c0-6.16,3.37-11.16,7.53-11.16h5.8c4.15,0,7.52,5,7.52,11.16v7.36a14.24,14.24,0,0,0,2.3,8c1,1.47,2.35,3.41,3.84,5.75l.92,1.44q.71,1.13,1.44,2.34l1,1.66,1,1.74c.52.89,1,1.81,1.56,2.75q.52.94,1,1.92c.17.33.35.66.53,1,.35.66.7,1.34,1.05,2,1.4,2.73,2.79,5.62,4.11,8.63.32.75.65,1.51,1,2.28.15.38.31.77.47,1.15.31.77.62,1.55.92,2.34.5,1.32,1,2.66,1.45,4s.9,2.71,1.31,4.08q.41,1.38.78,2.76c.11.42.21.83.32,1.24.55,2.16,1,4.34,1.38,6.51A64.84,64.84,0,0,1,175.67,113.88Z"/><path class="cls-2" d="M175.66,113.88V247.93a16.2,16.2,0,0,1-.33,3.3c-.08.36-.16.7-.26,1a11.15,11.15,0,0,1-2.92,4.36l-7.33,6.75,0,0a5.62,5.62,0,0,1-3.83,1.65h-.47a5.89,5.89,0,0,1-.94-.12,5.6,5.6,0,0,1-2.69-1.41l0,0-1-1.24,0,0-2-2.46a7.44,7.44,0,0,0-2.31-2,4.72,4.72,0,0,0-.61-.27l-.31-.11a7.38,7.38,0,0,0-.78-.19h0l-.26,0-.11,0H149l-.6,0,0,0a22.94,22.94,0,0,0,2.45-3c13-18.9,14.8-70.49,18.29-112.84,3.7-44.9-41.73-99.95-41.73-99.95h20.85a14.24,14.24,0,0,0,2.3,8c1,1.47,2.35,3.41,3.84,5.75l.92,1.44q.71,1.13,1.44,2.34l1,1.66,1,1.74,1.56,2.75q.52.94,1,1.92c.17.33.35.66.53,1,.35.66.7,1.34,1.05,2,1.4,2.73,2.79,5.62,4.11,8.63.32.75.65,1.51,1,2.28.15.38.31.77.47,1.15.31.77.62,1.55.92,2.34.5,1.32,1,2.66,1.45,4s.9,2.71,1.31,4.08q.41,1.38.78,2.76c.11.42.21.83.32,1.24.55,2.16,1,4.34,1.38,6.51A65.89,65.89,0,0,1,175.66,113.88Z"/><path class="cls-3" d="M159.16,140.47c-.89,35.84-12.93,89.6-18.5,112.74-1.69,7-2.79,11.25-2.79,11.25h0a4.55,4.55,0,0,0,.53,0l.33,0a7.09,7.09,0,0,0,4.71-3.57h0c2.17-3.54,5.54-4.53,8.39-2.82,5.61-5,11.43-13.73,14.34-29.21,6.61-35.21,9.5-140-14.61-167.4s-24.11-20-24.11-20S160.33,93.71,159.16,140.47Z"/><path class="cls-4" d="M169,122.2l-.88.26"/><rect class="cls-5" x="125.07" y="17.91" width="25.61" height="23.46"/><rect class="cls-6" x="122.56" y="13.17" width="30.63" height="23.46"/><path class="cls-7" d="M169,122.2l-.88.26a75.72,75.72,0,0,1-9.84,1.85,161.1,161.1,0,0,1-20.45,1.22c-20.71,0-37.53-3.38-37.79-7.55v70.81s0,0,0,.06,0,0,0,.07v.66h.16c1.82,3.89,18,6.92,37.63,6.92a138.52,138.52,0,0,0,27.62-2.42c5.54-1.2,9.2-2.76,10-4.5h.17v-71.7C175.67,119.49,173.22,121,169,122.2Z"/><path class="cls-8" d="M175.67,117.88v71.7h-.17c-.82,1.74-4.47,3.3-10,4.5h-.1c.18-1.94.35-8.39.51-10.35,1.21-14.16,2.15-28.76,3.27-42.4a74.77,74.77,0,0,0-1-18.86l.88-.26C173.22,121,175.67,119.49,175.67,117.88Z"/><path class="cls-9" d="M169,122.2A481.31,481.31,0,0,1,170.38,185c-.06,1.56-.31,6.42-.38,7.94-2.19.62-4.53,1.2-7,1.68a80.1,80.1,0,0,1-10.3,1.32c.56-3.2,1.38-8,2.28-13.86a341.61,341.61,0,0,0,4.19-41.57,111.08,111.08,0,0,0-.84-16.15,75.72,75.72,0,0,0,9.84-1.85Z"/><path class="cls-10" d="M127.45,49.49S100.93,157,111.66,216c3.49-3.82,8.7-9.6,14.94-16.73,13.45-15.37,20.17-23.05,21.57-26.19,7.62-17-6.57-31.83-15.26-61.51C128.7,97.21,125,76.54,127.45,49.49Z"/><path class="cls-10" d="M127.18,16.56s-4.12,9.22,0,13.29S126,25.73,134,23.2s19.24-10,10.88-6.64C140,18.53,127.18,16.56,127.18,16.56Z"/><ellipse class="cls-11" cx="137.87" cy="13.17" rx="15.31" ry="2.52"/><ellipse class="cls-12" cx="137.87" cy="36.64" rx="15.31" ry="2.52"/><path class="cls-13" d="M137.85,264.46c-2,0-4.07-1.22-5.55-3.65s-3.51-3.64-5.57-3.64a6.22,6.22,0,0,0-4.82,2.6l-2.14,2.65-.77,1,0,0a5.62,5.62,0,0,1-3.83,1.65,10.92,10.92,0,0,1,1.73-5.81,11.43,11.43,0,0,1,21,5.22Z"/><path class="cls-14" d="M159.55,264.93a5.6,5.6,0,0,1-2.69-1.41l0,0-.12-.11a5.12,5.12,0,0,1-.88-1.13l0,0-2-2.46a7.44,7.44,0,0,0-2.31-2,4.72,4.72,0,0,0-.61-.27l-.31-.11a7.38,7.38,0,0,0-.78-.19h0l-.26,0-.24,0h-.4l-.46,0a6.9,6.9,0,0,0-5.11,3.62c-1.46,2.39-3.45,3.6-5.45,3.65h-.1a11.45,11.45,0,0,1,18.16-8.22,11.11,11.11,0,0,1,4.56,8.81A5.89,5.89,0,0,1,159.55,264.93Z"/><path class="cls-15" d="M114.94,265.06a6,6,0,0,1-1.21-.13,5.71,5.71,0,0,1-2.84-1.55l-7.38-6.83a11.07,11.07,0,0,1-2.87-4.37,16,16,0,0,1,9.31,4.34,18.09,18.09,0,0,1,1.94,2.14,13.36,13.36,0,0,1,.81,1.16A16.93,16.93,0,0,1,114.94,265.06Z"/><path class="cls-16" d="M175.07,252.27a11.15,11.15,0,0,1-2.92,4.36l-7.33,6.75,0,0a5.62,5.62,0,0,1-3.83,1.65h-.28a16.67,16.67,0,0,1,3.06-6.32,16.37,16.37,0,0,1,2-2.19h0A16.14,16.14,0,0,1,175.07,252.27Z"/></svg>