<svg id="Laag_1" data-name="Laag 1" xmlns="http://www.w3.org/2000/svg" viewBox="0 0 870.01 672.64"><defs><style>.cls-1,.cls-2{fill:none;stroke:#000;stroke-miterlimit:10;}.cls-1{stroke-width:0.56px;}.cls-2{stroke-width:1.12px;}.cls-3{fill:#c43a80;}.cls-4{fill:#733f96;}.cls-5{fill:#603d96;}.cls-6{font-size:15.76px;}.cls-6,.cls-7{font-family:LEMONMILK-Regular, LEMON MILK;}.cls-7{font-size:22.22px;}.cls-8{letter-spacing:-0.1em;}.cls-9{letter-spacing:0.01em;}.cls-10{letter-spacing:-0.02em;}.cls-11{letter-spacing:0em;}.cls-12{letter-spacing:-0.2em;}.cls-13{font-family:LEMONMILK-Bold, LEMON MILK;font-weight:700;}.cls-14{letter-spacing:-0.11em;}</style></defs><line class="cls-1" x1="19.4" y1="96.94" x2="850.6" y2="96.94"/><line class="cls-1" x1="19.4" y1="148.51" x2="850.6" y2="148.51"/><line class="cls-1" x1="19.4" y1="200.07" x2="850.6" y2="200.07"/><line class="cls-1" x1="19.4" y1="251.64" x2="850.6" y2="251.64"/><line class="cls-1" x1="19.4" y1="303.2" x2="850.6" y2="303.2"/><line class="cls-1" x1="19.4" y1="354.77" x2="850.6" y2="354.77"/><line class="cls-1" x1="19.4" y1="406.33" x2="850.6" y2="406.33"/><line class="cls-1" x1="19.4" y1="457.9" x2="850.6" y2="457.9"/><line class="cls-1" x1="19.4" y1="509.47" x2="850.6" y2="509.47"/><line class="cls-1" x1="19.4" y1="561.03" x2="850.6" y2="561.03"/><line class="cls-2" x1="19.4" y1="612.6" x2="850.6" y2="612.6"/><rect class="cls-3" x="52.55" y="175.81" width="92.25" height="437.13"/><rect class="cls-3" x="163.76" y="216.89" width="92.25" height="396.05"/><rect class="cls-3" x="274.98" y="159.04" width="92.25" height="453.9"/><rect class="cls-3" x="386.2" y="184.99" width="92.25" height="427.95"/><rect class="cls-3" x="497.41" y="184.99" width="92.25" height="427.95"/><rect class="cls-4" x="608.63" y="338.03" width="92.25" height="274.91"/><rect class="cls-5" x="719.85" y="465.96" width="92.25" height="146.98"/><text class="cls-6" transform="translate(80.55 649.54)">2017</text><text class="cls-7" transform="translate(19.4 38.87)">Aan<tspan class="cls-8" x="51.68" y="0">t</tspan><tspan x="62.65" y="0">al p</tspan><tspan class="cls-9" x="113.21" y="0">l</tspan><tspan class="cls-10" x="126.09" y="0">a</tspan><tspan x="142.67" y="0">stic flesjes in zwer</tspan><tspan class="cls-8" x="390.76" y="0">f</tspan><tspan class="cls-11" x="401.19" y="0">af</tspan><tspan class="cls-12" x="430.91" y="0">v</tspan><tspan class="cls-11" x="443.38" y="0">al </tspan><tspan class="cls-13" x="479.75" y="0">per km</tspan></text><text class="cls-6" transform="translate(191.45 649.54)">2018</text><text class="cls-6" transform="translate(302.54 649.54)">2019</text><text class="cls-6" transform="translate(413.2 649.54)">2020</text><text class="cls-6" transform="translate(516.15 649.54)">2021H1</text><text class="cls-6" transform="translate(624.09 649.54)">2021Q3</text><text class="cls-6" transform="translate(734.87 649.54)">2021q4</text><text class="cls-6" transform="translate(86.46 138.3)">8,5</text><text class="cls-6" transform="translate(199.34 175.81)"><tspan class="cls-14">7</tspan><tspan x="7.31" y="0">,7</tspan></text><text class="cls-6" transform="translate(308.93 125.67)">8,9</text><text class="cls-6" transform="translate(422.99 140.93)">8,3</text><text class="cls-6" transform="translate(531.53 140.93)">8,3</text><text class="cls-6" transform="translate(642.14 297.2)">5,4</text><text class="cls-6" transform="translate(753.38 435.88)">2,9</text></svg>