<svg id="Laag_1" data-name="Laag 1" xmlns="http://www.w3.org/2000/svg" xmlns:xlink="http://www.w3.org/1999/xlink" viewBox="0 0 259.93 228.55"><defs><style>.cls-1{fill:url(#Naamloos_verloop_594);}.cls-2{fill:url(#Naamloos_verloop_594-2);}.cls-3{fill:url(#Naamloos_verloop_594-3);}.cls-4{fill:url(#Naamloos_verloop_594-4);}.cls-5{fill:url(#Naamloos_verloop_596);}.cls-6{fill:url(#Naamloos_verloop_583);}.cls-7{fill:url(#Naamloos_verloop_591);}.cls-8{fill:url(#Naamloos_verloop_596-2);}.cls-9{opacity:0.51;fill:url(#Naamloos_verloop_594-5);}.cls-10{fill:url(#Naamloos_verloop_583-2);}.cls-11{fill:url(#Naamloos_verloop_596-3);}.cls-12{fill:url(#Naamloos_verloop_591-2);}.cls-13{fill:url(#Naamloos_verloop_594-6);}.cls-14{fill:url(#Naamloos_verloop_599);}.cls-15{fill:url(#Naamloos_verloop_451);}</style><linearGradient id="Naamloos_verloop_594" x1="116.57" y1="58.48" x2="86.93" y2="58.48" gradientTransform="matrix(0.81, 0.04, 0.04, 0.99, 17.43, -3.61)" gradientUnits="userSpaceOnUse"><stop offset="0" stop-color="#e2bb93"/><stop offset="1" stop-color="#efd9c4"/></linearGradient><linearGradient id="Naamloos_verloop_594-2" x1="86.15" y1="59.1" x2="116.57" y2="59.1" xlink:href="#Naamloos_verloop_594"/><linearGradient id="Naamloos_verloop_594-3" x1="114.37" y1="79.95" x2="84.73" y2="79.95" xlink:href="#Naamloos_verloop_594"/><linearGradient id="Naamloos_verloop_594-4" x1="83.95" y1="80.57" x2="114.37" y2="80.57" xlink:href="#Naamloos_verloop_594"/><linearGradient id="Naamloos_verloop_596" x1="136.53" y1="-1910.14" x2="200.25" y2="-1911.85" gradientTransform="matrix(1, -0.03, -0.03, -1, -25.52, -1825.35)" gradientUnits="userSpaceOnUse"><stop offset="0" stop-color="#d4a77f"/><stop offset="1" stop-color="#6a5440"/></linearGradient><linearGradient id="Naamloos_verloop_583" x1="194.14" y1="129.68" x2="92.33" y2="129.68" gradientUnits="userSpaceOnUse"><stop offset="0" stop-color="#e2bb93"/><stop offset="1" stop-color="#d4a77f"/></linearGradient><linearGradient id="Naamloos_verloop_591" x1="115.39" y1="131.56" x2="72" y2="131.56" gradientUnits="userSpaceOnUse"><stop offset="0" stop-color="#9f7d5f"/><stop offset="1" stop-color="#6a5440"/></linearGradient><linearGradient id="Naamloos_verloop_596-2" x1="62.57" y1="30.51" x2="62.57" y2="89.02" gradientTransform="matrix(1, 0, 0, 1, 0, 0)" xlink:href="#Naamloos_verloop_596"/><linearGradient id="Naamloos_verloop_594-5" x1="181.29" y1="76.01" x2="181.29" y2="157.26" gradientTransform="matrix(1, 0, 0, 1, 0, 0)" xlink:href="#Naamloos_verloop_594"/><linearGradient id="Naamloos_verloop_583-2" x1="155.99" y1="131.56" x2="92.33" y2="131.56" xlink:href="#Naamloos_verloop_583"/><linearGradient id="Naamloos_verloop_596-3" x1="143.3" y1="195.41" x2="143.3" y2="197.89" gradientTransform="matrix(1, 0, 0, 1, 0, 0)" xlink:href="#Naamloos_verloop_596"/><linearGradient id="Naamloos_verloop_591-2" x1="106.91" y1="195.41" x2="106.91" y2="197.89" xlink:href="#Naamloos_verloop_591"/><linearGradient id="Naamloos_verloop_594-6" x1="194.14" y1="64.73" x2="130.21" y2="64.73" gradientTransform="matrix(1, 0, 0, 1, 0, 0)" xlink:href="#Naamloos_verloop_594"/><linearGradient id="Naamloos_verloop_599" x1="81.02" y1="130.84" x2="105.62" y2="130.84" gradientUnits="userSpaceOnUse"><stop offset="0" stop-color="#798c96"/><stop offset="0.32" stop-color="#7c8e98"/><stop offset="0.52" stop-color="#84969f"/><stop offset="0.69" stop-color="#92a2ab"/><stop offset="0.83" stop-color="#a7b4bc"/><stop offset="0.97" stop-color="#c1cbd1"/><stop offset="1" stop-color="#c9d2d8"/></linearGradient><linearGradient id="Naamloos_verloop_451" x1="100.83" y1="126.37" x2="188.6" y2="126.37" gradientUnits="userSpaceOnUse"><stop offset="0" stop-color="#c9d2d7"/><stop offset="0.42" stop-color="#eef1f4"/><stop offset="1" stop-color="#c9d2d8"/></linearGradient></defs><polygon class="cls-1" points="115.66 108.48 87.82 9.72 92.57 8.74 115.66 108.48"/><polyline class="cls-2" points="87.82 9.72 87.28 11.87 115.66 108.48"/><polygon class="cls-3" points="114.75 129.68 86.91 30.93 91.67 29.94 114.75 129.68"/><polyline class="cls-4" points="86.91 30.93 86.38 33.07 114.75 129.68"/><polygon class="cls-5" points="194.14 63.96 226.01 96.91 177.21 94.15 162.27 65.13 194.14 63.96"/><polygon class="cls-6" points="92.33 67.71 115.39 195.41 178.8 195.41 194.14 63.96 92.33 67.71"/><polygon class="cls-7" points="115.39 195.41 98.43 195.41 72 89.02 92.33 67.71 115.39 195.41"/><polygon class="cls-8" points="72 89.02 32.8 63.96 52.55 30.51 92.33 67.71 72 89.02"/><path class="cls-9" d="M192.73,76s-11.35,47.3-22.88,53.67l13.4,27.58Z"/><path class="cls-10" d="M92.33,67.71s26.36,97.19,49.59,106.35L156,195.41h-40.6Z"/><polygon class="cls-11" points="115.39 195.41 107.79 197.89 172.41 197.89 178.8 195.41 115.39 195.41"/><polygon class="cls-12" points="98.43 195.41 100.69 197.89 107.79 197.89 115.39 195.41 98.43 195.41"/><polygon class="cls-13" points="194.14 63.96 137.58 63.14 130.21 66.31 194.14 63.96"/><polygon class="cls-14" points="81.02 125.32 100.83 114.79 105.62 141.33 86.38 146.89 81.02 125.32"/><polygon class="cls-15" points="188.6 111.41 100.83 114.79 105.62 141.33 185.11 141.33 188.6 111.41"/></svg>