<svg id="Laag_1" data-name="Laag 1" xmlns="http://www.w3.org/2000/svg" xmlns:xlink="http://www.w3.org/1999/xlink" viewBox="0 0 259.93 228.55"><defs><style>.cls-1{fill:url(#Naamloos_verloop_451);}.cls-2{fill:url(#Naamloos_verloop_426);}.cls-3{fill:url(#Naamloos_verloop_428);}.cls-4{fill:url(#Naamloos_verloop_451-2);}.cls-5{fill:url(#Naamloos_verloop_426-2);}.cls-6{fill:url(#Naamloos_verloop_428-2);}.cls-7{fill:url(#Naamloos_verloop_426-3);}.cls-8{fill:url(#Naamloos_verloop_426-4);}.cls-9{fill:url(#Naamloos_verloop_428-3);}</style><linearGradient id="Naamloos_verloop_451" x1="194.5" y1="116.22" x2="86.99" y2="116.22" gradientUnits="userSpaceOnUse"><stop offset="0" stop-color="#c9d2d7"/><stop offset="0.42" stop-color="#eef1f4"/><stop offset="1" stop-color="#c9d2d8"/></linearGradient><linearGradient id="Naamloos_verloop_426" x1="67.29" y1="116.22" x2="194.5" y2="116.22" gradientUnits="userSpaceOnUse"><stop offset="0" stop-color="#798c96"/><stop offset="1" stop-color="#c9d2d8"/></linearGradient><linearGradient id="Naamloos_verloop_428" x1="57.84" y1="121.3" x2="192.82" y2="121.3" gradientUnits="userSpaceOnUse"><stop offset="0" stop-color="#adbac1"/><stop offset="1" stop-color="#c9d2d8"/></linearGradient><linearGradient id="Naamloos_verloop_451-2" x1="67.29" y1="117.93" x2="202.44" y2="117.93" xlink:href="#Naamloos_verloop_451"/><linearGradient id="Naamloos_verloop_426-2" x1="106.2" y1="94.16" x2="130.9" y2="94.16" xlink:href="#Naamloos_verloop_426"/><linearGradient id="Naamloos_verloop_428-2" x1="97.91" y1="123.3" x2="119.96" y2="123.3" xlink:href="#Naamloos_verloop_428"/><linearGradient id="Naamloos_verloop_426-3" x1="166.98" y1="107.98" x2="148.1" y2="107.98" xlink:href="#Naamloos_verloop_426"/><linearGradient id="Naamloos_verloop_426-4" x1="139.11" y1="150.54" x2="135.88" y2="150.54" xlink:href="#Naamloos_verloop_426"/><linearGradient id="Naamloos_verloop_428-3" x1="139.11" y1="149.85" x2="128.48" y2="149.85" xlink:href="#Naamloos_verloop_428"/></defs><polygon class="cls-1" points="108.93 163.87 86.99 64.33 155.91 59.19 194.5 117.93 171.22 168.87 115.62 173.24 108.93 163.87"/><polygon class="cls-2" points="102.61 59.19 98.35 86.43 76.55 97.33 96.02 123.8 67.29 139.37 91.79 135.6 87.06 141.31 91.79 163.02 106.53 136.25 128.48 173.24 160.25 167.39 172.31 151.04 181.26 141.31 162.97 144.82 189.44 117.93 173.09 123.41 175.43 105.89 194.5 83.31 174.65 88.76 176.59 59.19 155.96 74.36 143.51 65.02 125.33 65.82 115.09 73.19 102.61 59.19"/><polygon class="cls-3" points="119.96 52.53 102.61 59.19 97.2 92.21 72.54 84.89 72.54 102.25 67.29 106.73 97.2 117.93 67.29 135.25 57.84 147.55 77.98 141.96 97.2 154.82 130.31 149.23 134.87 185.58 148.55 190.06 154.74 159.22 192.82 139.17 184.65 130.22 168.02 125.18 182 112.32 148.55 110.08 189.68 72.61 166.9 61.43 134.87 89.39 119.96 52.53"/><polygon class="cls-4" points="72.54 84.89 97.2 73.52 119.88 84.89 119.96 52.53 131.17 62.15 148.55 84.89 173.97 77.02 202.44 99.75 166.98 99.75 162.6 120.74 189.68 114.62 167.85 142.6 190.89 151.34 154.74 159.22 152.11 183.32 128.48 173.24 119.96 143.47 91.79 163.02 91.79 135.6 67.29 117.93 91.79 113.74 72.54 84.89"/><polygon class="cls-5" points="106.2 78.03 130.9 110.29 122.7 92.21 125.33 82.58 119.88 84.89 106.2 78.03"/><polygon class="cls-6" points="97.91 97.16 113.22 119.77 111.38 149.43 119.96 143.47 116.14 136.18 119.96 123.3 97.91 97.16"/><polygon class="cls-7" points="166.98 99.75 160.16 106.34 148.55 110.08 148.1 116.22 151.72 111.53 158.74 112.96 164.6 111.16 166.98 99.75"/><polygon class="cls-8" points="136.36 123.3 138.07 133.86 139.11 141.82 139.11 177.78 135.88 176.4 136.36 123.3"/><polygon class="cls-9" points="128.48 173.24 136.36 123.3 136.36 136.31 139.11 141.82 135.88 176.4 128.48 173.24"/></svg>