<svg id="Laag_1" data-name="Laag 1" xmlns="http://www.w3.org/2000/svg" xmlns:xlink="http://www.w3.org/1999/xlink" viewBox="0 0 259.93 284.25"><defs><style>.cls-1{fill:url(#Naamloos_verloop_464);}.cls-2{fill:url(#Naamloos_verloop_464-2);}.cls-3{fill:url(#Naamloos_verloop_550);}.cls-4{fill:url(#Naamloos_verloop_548);}.cls-5{fill:url(#Naamloos_verloop_464-3);}.cls-6{fill:url(#Naamloos_verloop_467);}.cls-7{fill:url(#Naamloos_verloop_464-4);}.cls-8{fill:url(#Naamloos_verloop_466);}.cls-9{fill:none;}.cls-10{fill:url(#Naamloos_verloop_466-2);}.cls-11{fill:url(#Naamloos_verloop_577);}.cls-12{fill:url(#Naamloos_verloop_550-2);}.cls-13{fill:url(#Naamloos_verloop_548-2);}.cls-14{fill:url(#Naamloos_verloop_464-5);}.cls-15{fill:url(#Naamloos_verloop_464-6);}.cls-16{fill:url(#Naamloos_verloop_464-7);}.cls-17{fill:url(#Naamloos_verloop_464-8);}.cls-18{fill:url(#Naamloos_verloop_464-9);}.cls-19{fill:url(#Naamloos_verloop_466-3);}.cls-20{fill:#fff;opacity:0.17;}.cls-21{fill:url(#Naamloos_verloop_464-10);}.cls-22{fill:url(#Naamloos_verloop_464-11);}.cls-23{fill:url(#Naamloos_verloop_464-12);}</style><linearGradient id="Naamloos_verloop_464" x1="-7.64" y1="28.7" x2="14.28" y2="28.7" gradientUnits="userSpaceOnUse"><stop offset="0" stop-color="#538796"/><stop offset="1" stop-color="#92c5d8"/></linearGradient><linearGradient id="Naamloos_verloop_464-2" x1="1333.9" y1="30.15" x2="1355.84" y2="30.15" gradientTransform="matrix(-1, 0, 0, 1, 1348.18, 0)" xlink:href="#Naamloos_verloop_464"/><linearGradient id="Naamloos_verloop_550" x1="81.96" y1="161.87" x2="114.05" y2="161.87" gradientUnits="userSpaceOnUse"><stop offset="0" stop-color="#af2a07"/><stop offset="1" stop-color="#751c05"/></linearGradient><linearGradient id="Naamloos_verloop_548" x1="81.96" y1="159.89" x2="114.05" y2="159.89" gradientUnits="userSpaceOnUse"><stop offset="0" stop-color="#af2a07"/><stop offset="1" stop-color="#e9370a"/></linearGradient><linearGradient id="Naamloos_verloop_464-3" x1="104.64" y1="79.88" x2="87.01" y2="79.88" xlink:href="#Naamloos_verloop_464"/><linearGradient id="Naamloos_verloop_467" x1="157.56" y1="150.98" x2="81.96" y2="150.98" gradientUnits="userSpaceOnUse"><stop offset="0" stop-color="#93c7d7"/><stop offset="0.42" stop-color="#b0dbf4"/><stop offset="1" stop-color="#92c5d8"/></linearGradient><linearGradient id="Naamloos_verloop_464-4" x1="157.55" y1="156.19" x2="109.33" y2="156.19" xlink:href="#Naamloos_verloop_464"/><linearGradient id="Naamloos_verloop_466" x1="152.71" y1="155.45" x2="109.33" y2="155.45" gradientUnits="userSpaceOnUse"><stop offset="0" stop-color="#7cb2c1"/><stop offset="1" stop-color="#92c5d8"/></linearGradient><linearGradient id="Naamloos_verloop_466-2" x1="108.78" y1="36.53" x2="130.73" y2="36.53" xlink:href="#Naamloos_verloop_466"/><linearGradient id="Naamloos_verloop_577" x1="81.95" y1="160.17" x2="157.55" y2="160.17" gradientUnits="userSpaceOnUse"><stop offset="0" stop-color="#ea451b"/><stop offset="0.39" stop-color="#ed5f3b"/><stop offset="1" stop-color="#c3370a"/></linearGradient><linearGradient id="Naamloos_verloop_550-2" x1="147.27" y1="158.96" x2="157.56" y2="158.96" xlink:href="#Naamloos_verloop_550"/><linearGradient id="Naamloos_verloop_548-2" x1="152.71" y1="162.03" x2="134.58" y2="162.03" xlink:href="#Naamloos_verloop_548"/><linearGradient id="Naamloos_verloop_464-5" x1="108.38" y1="268.03" x2="108.38" y2="257" xlink:href="#Naamloos_verloop_464"/><linearGradient id="Naamloos_verloop_464-6" x1="131.02" y1="268.03" x2="131.02" y2="257" xlink:href="#Naamloos_verloop_464"/><linearGradient id="Naamloos_verloop_464-7" x1="89.68" y1="268.04" x2="89.68" y2="255.16" xlink:href="#Naamloos_verloop_464"/><linearGradient id="Naamloos_verloop_464-8" x1="149.76" y1="268.04" x2="149.76" y2="255.25" xlink:href="#Naamloos_verloop_464"/><linearGradient id="Naamloos_verloop_464-9" x1="100.15" y1="96.26" x2="114.05" y2="96.26" xlink:href="#Naamloos_verloop_464"/><linearGradient id="Naamloos_verloop_466-3" x1="94.29" y1="96.26" x2="122.08" y2="96.26" xlink:href="#Naamloos_verloop_466"/><linearGradient id="Naamloos_verloop_464-10" x1="1217.45" y1="34.44" x2="1239.4" y2="34.44" gradientTransform="matrix(-1, 0, 0, 1, 1348.18, 0)" xlink:href="#Naamloos_verloop_464"/><linearGradient id="Naamloos_verloop_464-11" x1="1217.45" y1="38.72" x2="1239.4" y2="38.72" gradientTransform="matrix(-1, 0, 0, 1, 1348.18, 0)" xlink:href="#Naamloos_verloop_464"/><linearGradient id="Naamloos_verloop_464-12" x1="1217.45" y1="43.33" x2="1239.4" y2="43.33" gradientTransform="matrix(-1, 0, 0, 1, 1348.18, 0)" xlink:href="#Naamloos_verloop_464"/></defs><ellipse class="cls-1" cx="3.32" cy="28.7" rx="10.96" ry="1.45"/><path class="cls-2" d="M12.36,31.52H-5.73c-1.06,0-1.93-.12-1.93-.26V29c0-.15.87-.26,1.93-.26H12.36c1.06,0,1.93.11,1.93.26v2.22C14.29,31.4,13.42,31.52,12.36,31.52Z"/><path class="cls-3" d="M82,133.37s7.2,15.95,4.23,18-2.75,3,.72,6.1,1.2,18.66-1.24,18.14-4.19,13.43,2.09,14.65,26.29-15,26.29-15L96.66,133.37Z"/><path class="cls-4" d="M82,133.37s9.57,9.18,9.57,13.57,2,14.78,5.72,15.09-2.86,5.41-4.7,10.31-4.08,14.7-8.16,14.29,22.71,1.83,22.71,1.83l7-38.77-13.9-18.37Z"/><path class="cls-5" d="M99.37,64.36S96.58,82.7,91.94,85.54,87,95.4,87,95.4l17.63-16.59Z"/><path class="cls-6" d="M157.56,116.86V250.91a15.59,15.59,0,0,1-.34,3.3c-.08.36-.16.7-.26,1a11.15,11.15,0,0,1-2.92,4.36l-7.33,6.75,0,0a5.62,5.62,0,0,1-3.83,1.65h-.47a5.89,5.89,0,0,1-.94-.12,5.6,5.6,0,0,1-2.69-1.41l0,0-1-1.24,0,0-2-2.46a7.44,7.44,0,0,0-2.31-2,4.72,4.72,0,0,0-.61-.27l-.31-.11a7.38,7.38,0,0,0-.78-.19h0a2.35,2.35,0,0,0-.37-.05h-.53l-.48,0a7,7,0,0,0-5,3.6c-1.49,2.44-3.52,3.65-5.56,3.65h-.1c-2,0-4-1.25-5.47-3.65s-3.51-3.64-5.57-3.64a6.22,6.22,0,0,0-4.82,2.6l-2.14,2.65-.77,1,0,0A5.62,5.62,0,0,1,97,268h-.2a6,6,0,0,1-1.21-.13l-2.16-2.11-2.19-2.13-8.74-8.51a15.92,15.92,0,0,1-.57-4.25V188.24c.29-1.78,1.58-4.1,6.51-3.45,7.75,1,8.78-5.51,8.78-5.51s-6.13-3.27-3-4.49,3.36-6.74,0-8.37S98.88,157,98.88,157s-3.27.82-3.06-8.36S82.38,133.55,82,133.37V116.86a79.36,79.36,0,0,1,4.57-25c1.6-4.77,9.76-7.16,11.78-11.48,2.39-5.1-1.32-12,1.06-16.07,3-5.2,5.82-9.35,7.67-12a14.18,14.18,0,0,0,2.29-8V37c0-6.16,3.37-1.16,7.53-1.16h5.8c4.15,0,7.52-5,7.52,1.16v7.36a14.24,14.24,0,0,0,2.3,8c1,1.47,2.35,3.41,3.84,5.75l.92,1.44q.7,1.13,1.44,2.34l1,1.66,1,1.74c.52.89,1,1.81,1.56,2.75q.53.94,1.05,1.92c.17.33.35.66.53,1,.35.66.7,1.34,1,2,1.4,2.73,2.79,5.62,4.11,8.63.32.75.65,1.51,1,2.28.15.38.31.77.47,1.15.31.77.62,1.55.92,2.34.5,1.32,1,2.66,1.45,4s.9,2.71,1.31,4.08q.4,1.38.78,2.76c.11.42.21.83.32,1.24.55,2.16,1,4.34,1.38,6.51A64.84,64.84,0,0,1,157.56,116.86Z"/><path class="cls-7" d="M157.55,116.86V250.91a16.2,16.2,0,0,1-.33,3.3c-.08.36-.16.7-.26,1a11.15,11.15,0,0,1-2.92,4.36l-7.33,6.75,0,0a5.62,5.62,0,0,1-3.83,1.65h-.47a5.89,5.89,0,0,1-.94-.12,5.6,5.6,0,0,1-2.69-1.41l0,0-1-1.24,0,0-2-2.46a7.44,7.44,0,0,0-2.31-2,4.72,4.72,0,0,0-.61-.27l-.31-.11a7.38,7.38,0,0,0-.78-.19h0l-.26,0-.11,0h-.41l-.6,0,0,0a22.94,22.94,0,0,0,2.45-3c13-18.9,14.8-70.49,18.29-112.84,3.7-44.9-41.73-100-41.73-100h20.85a14.24,14.24,0,0,0,2.3,8c1,1.47,2.35,3.41,3.84,5.75l.92,1.44q.7,1.13,1.44,2.34l1,1.66,1,1.74,1.56,2.75q.53.94,1.05,1.92c.17.33.35.66.53,1,.35.66.7,1.34,1,2,1.4,2.73,2.79,5.62,4.11,8.63.32.75.65,1.51,1,2.28.15.38.31.77.47,1.15.31.77.62,1.55.92,2.34.5,1.32,1,2.66,1.45,4s.9,2.71,1.31,4.08q.4,1.38.78,2.76c.11.42.21.83.32,1.24.55,2.16,1,4.34,1.38,6.51A65.89,65.89,0,0,1,157.55,116.86Z"/><path class="cls-8" d="M141.05,143.45c-.9,35.84-12.93,89.6-18.5,112.74-1.7,7.05-2.79,11.25-2.79,11.25h0a4.73,4.73,0,0,0,.53,0l.32,0a7.06,7.06,0,0,0,4.71-3.58h0c2.18-3.54,5.55-4.53,8.39-2.82,5.61-5,11.43-13.73,14.34-29.21,6.62-35.21,9.5-140-14.61-167.4s-24.11-20-24.11-20S142.22,96.69,141.05,143.45Z"/><path class="cls-9" d="M150.92,125.18l-.87.26"/><path class="cls-10" d="M110.71,44.35H128.8a1.75,1.75,0,0,0,1.93-1.5V30.2a1.75,1.75,0,0,0-1.93-1.5H110.71a1.76,1.76,0,0,0-1.93,1.5V42.85A1.76,1.76,0,0,0,110.71,44.35Z"/><path class="cls-11" d="M157.55,120.86v71.7h-.17c-.81,1.74-4.47,3.3-10,4.5a138.59,138.59,0,0,1-27.62,2.42c-19.67,0-35.82-3-37.63-6.92H82v-.66s0-.05,0-.07,0,0,0-.06v-3.53c.29-1.78,1.58-4.1,6.51-3.45,7.75,1,8.78-5.51,8.78-5.51s-6.13-3.27-3-4.49,3.36-6.74,0-8.37S98.88,157,98.88,157s-3.27.82-3.06-8.36S82.38,133.55,82,133.37V121c.26,4.17,17.08,7.55,37.8,7.55a161.22,161.22,0,0,0,20.45-1.22,76.05,76.05,0,0,0,9.84-1.85l.87-.26C155.1,124,157.55,122.47,157.55,120.86Z"/><path class="cls-12" d="M157.56,120.86v71.7h-.18c-.81,1.74-4.46,3.3-10,4.5h-.11c.18-1.94.35-8.39.52-10.35,1.2-14.16,2.15-28.76,3.27-42.4a75.24,75.24,0,0,0-1-18.86l.87-.26C155.11,124,157.56,122.47,157.56,120.86Z"/><path class="cls-13" d="M150.92,125.18a477.82,477.82,0,0,1,1.34,62.75c0,1.56-.3,6.42-.38,7.94-2.18.62-4.52,1.2-7,1.68a80.1,80.1,0,0,1-10.3,1.32c.56-3.2,1.38-8,2.27-13.86a341.75,341.75,0,0,0,4.2-41.57,111.08,111.08,0,0,0-.84-16.15,75.72,75.72,0,0,0,9.84-1.85Z"/><path class="cls-14" d="M119.74,267.44c-2,0-4.07-1.22-5.55-3.65s-3.51-3.64-5.57-3.64a6.22,6.22,0,0,0-4.82,2.6l-2.14,2.65-.77,1,0,0A5.62,5.62,0,0,1,97,268a10.92,10.92,0,0,1,1.73-5.81,11.43,11.43,0,0,1,21,5.22Z"/><path class="cls-15" d="M141.44,267.91a5.6,5.6,0,0,1-2.69-1.41l0,0-.12-.11a5.12,5.12,0,0,1-.88-1.13l0,0-2-2.46a7.44,7.44,0,0,0-2.31-2,4.72,4.72,0,0,0-.61-.27l-.31-.11a7.38,7.38,0,0,0-.78-.19h0l-.26,0-.24,0h-.4l-.46,0a6.9,6.9,0,0,0-5.11,3.62c-1.46,2.39-3.45,3.6-5.45,3.65h-.1a11.45,11.45,0,0,1,18.16-8.22,11.11,11.11,0,0,1,4.56,8.81A5.89,5.89,0,0,1,141.44,267.91Z"/><path class="cls-16" d="M96.83,268a6,6,0,0,1-1.21-.13,5.71,5.71,0,0,1-2.84-1.55l-7.38-6.83a11.07,11.07,0,0,1-2.87-4.37,16,16,0,0,1,9.31,4.34,18.09,18.09,0,0,1,1.94,2.14,13.36,13.36,0,0,1,.81,1.16A16.93,16.93,0,0,1,96.83,268Z"/><path class="cls-17" d="M157,255.25a11.15,11.15,0,0,1-2.92,4.36l-7.33,6.75,0,0a5.62,5.62,0,0,1-3.83,1.65h-.28a16.67,16.67,0,0,1,3.06-6.32,16.37,16.37,0,0,1,2-2.19h0A16.14,16.14,0,0,1,157,255.25Z"/><path class="cls-18" d="M102.11,87.2s1.53,4.67,3.89,4.59,4.34-4.59,4.34-4.59l-1-3.91s5.7,6.35,4.57,9.33-6,12.88-5.41,16.61c0,0-4.47-8.68-7.47-9s2.75-5.43,2.75-5.43-2.23-4.09-1.94-5.84Z"/><path class="cls-19" d="M109.33,83.29s.34,11.32-3.33,10.09-3.89-6.18-3.89-6.18S98,93,100.88,95s-6.59,3.3-6.59,3.3,3.91,6.58,8.44,4.11,5.76,6.8,5.76,6.8.21-9.68,2.48-9.68,11.11-13.17,11.11-13.17-10.7,9.26-9.88,6.17S109.33,83.29,109.33,83.29Z"/><path class="cls-20" d="M111,99.55s13.21,57.71-3.87,88.91-9.76,40.68,4.37,38.65S134.84,189.57,131,159,111,99.55,111,99.55Z"/><path class="cls-21" d="M128.8,35.81H110.71c-1.06,0-1.93-.12-1.93-.27V33.33c0-.15.87-.27,1.93-.27H128.8c1.07,0,1.93.12,1.93.27v2.21C130.73,35.69,129.87,35.81,128.8,35.81Z"/><path class="cls-22" d="M128.8,40.1H110.71c-1.06,0-1.93-.12-1.93-.27V37.62c0-.15.87-.27,1.93-.27H128.8c1.07,0,1.93.12,1.93.27v2.21C130.73,40,129.87,40.1,128.8,40.1Z"/><path class="cls-23" d="M128.8,44.39a65.4,65.4,0,0,1-9.42.63,64.72,64.72,0,0,1-8.67-.63,5.7,5.7,0,0,1-1.36-.08c-.35-.05-.57-.11-.57-.19V41.91c0-.15.87-.27,1.93-.27H128.8c1.07,0,1.93.12,1.93.27v2.21C130.73,44.27,129.87,44.39,128.8,44.39Z"/></svg>