<svg id="Laag_1" data-name="Laag 1" xmlns="http://www.w3.org/2000/svg" xmlns:xlink="http://www.w3.org/1999/xlink" viewBox="0 0 403.64 478.71"><defs><style>.cls-1{fill:url(#Naamloos_verloop_103);}.cls-2{fill:url(#Naamloos_verloop_78);}.cls-3{fill:url(#Naamloos_verloop_80);}.cls-4{fill:#fff;opacity:0.08;}.cls-5{fill:url(#Naamloos_verloop_80-2);}.cls-6{fill:url(#Naamloos_verloop_78-2);}.cls-7{fill:url(#Naamloos_verloop_80-3);}.cls-8{fill:url(#Naamloos_verloop_94);}.cls-9{fill:url(#Naamloos_verloop_96);}</style><linearGradient id="Naamloos_verloop_103" x1="276.82" y1="460.17" x2="276.82" y2="413.65" gradientUnits="userSpaceOnUse"><stop offset="0" stop-color="#2c2362"/><stop offset="1" stop-color="#181336"/><stop offset="1"/></linearGradient><linearGradient id="Naamloos_verloop_78" x1="6.5" y1="283.38" x2="387.59" y2="283.38" gradientUnits="userSpaceOnUse"><stop offset="0" stop-color="#2c2362"/><stop offset="1" stop-color="#3d3a83"/></linearGradient><linearGradient id="Naamloos_verloop_80" x1="343.03" y1="270.34" x2="24.84" y2="270.34" gradientUnits="userSpaceOnUse"><stop offset="0" stop-color="#3e6ab1"/><stop offset="1" stop-color="#3d3a83"/></linearGradient><linearGradient id="Naamloos_verloop_80-2" x1="278.85" y1="366.75" x2="362.94" y2="366.75" xlink:href="#Naamloos_verloop_80"/><linearGradient id="Naamloos_verloop_78-2" x1="128.76" y1="55.77" x2="271.71" y2="55.77" xlink:href="#Naamloos_verloop_78"/><linearGradient id="Naamloos_verloop_80-3" x1="147.19" y1="54.51" x2="254.48" y2="54.51" xlink:href="#Naamloos_verloop_80"/><linearGradient id="Naamloos_verloop_94" x1="241.03" y1="102.79" x2="180.24" y2="102.79" gradientUnits="userSpaceOnUse"><stop offset="0" stop-color="#f5991a"/><stop offset="1" stop-color="#f17d15"/></linearGradient><linearGradient id="Naamloos_verloop_96" x1="240.3" y1="100.85" x2="179.51" y2="100.85" gradientUnits="userSpaceOnUse"><stop offset="0" stop-color="#f5991a"/><stop offset="1" stop-color="#f9b220"/></linearGradient></defs><path class="cls-1" d="M178.79,453.65s111.34,17.7,154.74-5.25,41.3-34.75,41.3-34.75Z"/><path class="cls-2" d="M219.25,95.81C194.43,108.18,159.44,126,117.9,148.5,35.68,193,16.11,226.4,16.11,226.4c-1.27,30.19,51.73,38.83,45,72.55-2.9,14.51-81.32,78.35-45,98.67s145.13,90,169.8,69.65S332.43,431,344,435.34s55.13,8.71,40.62-10.15S405,312,333.88,262.68c0,0,16-79.81,11.61-88.51S219.25,95.81,219.25,95.81Z"/><path class="cls-3" d="M215,283.38s87.42-21,87.42-52.47-79.29-125-79.29-125l15.25,45.74-19.74-45.74,12.3,54.71L215,110.32l-4.92,55.08V116.2l-8,24.07,3.21-21.93L168.51,180,191,121.9l-68.78,62.85,35.8-54.16A287.51,287.51,0,0,0,25.13,229c-.14-.09-.3-.24-.29-.38.18-1.3,15.59,3.68,27.25.45,43.71-12.15,50.19-17.81,50.19-17.81s-69.62,30-63.95,38,38,37.24,44.52,54.24,58.28,132.76,93.9,130.33,54.9-11.19,65.57,0,112.53-90.7,99.57-119S215,283.38,215,283.38Z"/><path class="cls-4" d="M158.06,130.59s-87.54,62-94,74.88,57.92-11.95,54.24,0S74.2,234.89,91.67,259.71,175.55,401.3,197.05,404.06s-68.61-126.88-58.49-153.54,68-75.39,68-75.39L157,190.76l17.47-43.22-33.1,31.26L111,185.24Z"/><path class="cls-5" d="M278.85,429.7S331,435,353.11,412s0-108.75,0-108.75A168.64,168.64,0,0,1,278.85,429.7Z"/><path class="cls-6" d="M199.22,105.88s-43.69-39.06-64.11-39.06S150,52.35,150,52.35s-17.71-15.58-3.73-18.51S164,19.73,159.36,13.2s4.41-13,24.58,0S233,30,243.25,16.93s17.71,8.65,7.46,16.91,9.32,15.71,17.71,11,0,28-16.78,32.63-23.5,23.4-23.5,23.4"/><path class="cls-7" d="M159.36,13.2s55,23.65,71.58,17.46S213.72,52,213.72,52s25.48,11.63,38.57,5.12-36.92,28.61-33,38.68c0,0-7.39-17.93-2.43-23.84,0,0-8.58,5.53-6.29,16s-16.41-25-16.41-25l12.8,30.53S157.3,64.91,147.19,65.1c0,0,25-.19,36.75,8.59s-34.83-22.8-33.29-30.52,15.71-4.12,15.71-11.07S159.36,13.2,159.36,13.2Z"/><path class="cls-4" d="M162.86,17.46s25,19.86,34.19,20.8c0,0-9.34,12.71-2.66,25.14S170.85,60.48,173.64,52,162.86,17.46,162.86,17.46Z"/><path class="cls-8" d="M239.27,100.07a2.55,2.55,0,0,1-.14,4.89c-13.32,3-48.16,9.71-57.66-1.27C171.74,92.43,222.44,95.15,239.27,100.07Z"/><path class="cls-9" d="M238.54,98.89c2.42.51,2.32,3.12-.14,3.52-13.32,2.2-48.16,7-57.66-.91C171,93.37,221.71,95.34,238.54,98.89Z"/></svg>