<svg id="Laag_1" data-name="Laag 1" xmlns="http://www.w3.org/2000/svg" xmlns:xlink="http://www.w3.org/1999/xlink" viewBox="0 0 259.93 228.55"><defs><style>.cls-1{fill:url(#Naamloos_verloop_681);}.cls-2{fill:url(#Naamloos_verloop_683);}.cls-3{fill:url(#Naamloos_verloop_682);}.cls-4{fill:url(#Naamloos_verloop_681-2);}.cls-5{fill:url(#Naamloos_verloop_682-2);}.cls-6{fill:url(#Naamloos_verloop_682-3);}.cls-7{fill:url(#Naamloos_verloop_682-4);}.cls-8{fill:url(#Naamloos_verloop_682-5);}.cls-9{fill:url(#Naamloos_verloop_682-6);}.cls-10{fill:url(#Naamloos_verloop_681-3);}.cls-11{fill:url(#Naamloos_verloop_680);}.cls-12{fill:url(#Naamloos_verloop_679);}.cls-13{fill:url(#Naamloos_verloop_679-2);}</style><linearGradient id="Naamloos_verloop_681" x1="139.77" y1="127.11" x2="176.21" y2="127.11" gradientUnits="userSpaceOnUse"><stop offset="0" stop-color="#753e96"/><stop offset="1" stop-color="#915792"/></linearGradient><linearGradient id="Naamloos_verloop_683" x1="99.19" y1="94.96" x2="163.73" y2="159.5" gradientUnits="userSpaceOnUse"><stop offset="0" stop-color="#e8d1f5"/><stop offset="0.03" stop-color="#e6c8ed"/><stop offset="0.17" stop-color="#dfa1cc"/><stop offset="0.32" stop-color="#d981b0"/><stop offset="0.48" stop-color="#d5689b"/><stop offset="0.63" stop-color="#d2568c"/><stop offset="0.8" stop-color="#d04b83"/><stop offset="1" stop-color="#cf4880"/></linearGradient><linearGradient id="Naamloos_verloop_682" x1="110.51" y1="125.88" x2="113.08" y2="123.31" gradientUnits="userSpaceOnUse"><stop offset="0" stop-color="#330062"/><stop offset="1" stop-color="#915792"/></linearGradient><linearGradient id="Naamloos_verloop_681-2" x1="109.92" y1="133.6" x2="115.07" y2="128.45" xlink:href="#Naamloos_verloop_681"/><linearGradient id="Naamloos_verloop_682-2" x1="131.77" y1="132.73" x2="148.96" y2="115.54" xlink:href="#Naamloos_verloop_682"/><linearGradient id="Naamloos_verloop_682-3" x1="154.39" y1="129.85" x2="162.27" y2="121.96" xlink:href="#Naamloos_verloop_682"/><linearGradient id="Naamloos_verloop_682-4" x1="157.61" y1="95.7" x2="171.07" y2="82.25" xlink:href="#Naamloos_verloop_682"/><linearGradient id="Naamloos_verloop_682-5" x1="153.49" y1="128.18" x2="159.25" y2="133.94" xlink:href="#Naamloos_verloop_682"/><linearGradient id="Naamloos_verloop_682-6" x1="139.15" y1="127.44" x2="146.77" y2="135.06" xlink:href="#Naamloos_verloop_682"/><linearGradient id="Naamloos_verloop_681-3" x1="121.11" y1="122.2" x2="137.88" y2="138.98" xlink:href="#Naamloos_verloop_681"/><linearGradient id="Naamloos_verloop_680" x1="104.88" y1="67.51" x2="126.37" y2="89.01" gradientUnits="userSpaceOnUse"><stop offset="0" stop-color="#ced4d7"/><stop offset="1" stop-color="#e0e3e5"/></linearGradient><linearGradient id="Naamloos_verloop_679" x1="105.99" y1="88.68" x2="123.68" y2="70.98" gradientUnits="userSpaceOnUse"><stop offset="0" stop-color="#a29c9b"/><stop offset="0.42" stop-color="#a49e9d"/><stop offset="0.6" stop-color="#aaa5a4"/><stop offset="0.74" stop-color="#b5b1b1"/><stop offset="0.86" stop-color="#c4c3c3"/><stop offset="0.96" stop-color="#d7d9da"/><stop offset="1" stop-color="#e0e3e5"/></linearGradient><linearGradient id="Naamloos_verloop_679-2" x1="-128.81" y1="-167.57" x2="-131.74" y2="-168.66" gradientTransform="translate(245.21 257.52) scale(1.14 1.06)" xlink:href="#Naamloos_verloop_679"/></defs><path class="cls-1" d="M158.7,80.88s13.83,8,17.51,6.51c0,0-11,39.33-15.63,39.72L154.3,129l7.33,2.57-2.93,2.21s5.36,26.13,11.62,26.87c0,0-15.09,4.81-20.43,12.71l-10.12-55.77Z"/><path class="cls-2" d="M103.82,90.34s43.24,0,54.88-9.46c0,0-8.28,34.79-4.12,40.28,0,0-5.91,4.58-8,4.27s9.15,31.74,3.35,47.91c0,0-53.09-.3-54-8.85s17.22-25,11.66-33.26L116,129.4l-12.51-13.33s6.39-3,4.27-12.07A106.2,106.2,0,0,0,103.82,90.34Z"/><path class="cls-3" d="M103.51,116.07l18,15.65s-14.71-8.33-16-11.11S103.51,116.07,103.51,116.07Z"/><path class="cls-4" d="M107.54,131.23a84,84,0,0,0,9,.49L116,129.4Z"/><path class="cls-5" d="M146.54,125.43l-20.39,1.68s23.78-3,28.43-6C154.58,121.16,149.4,125.7,146.54,125.43Z"/><path class="cls-6" d="M163.61,123.3s-6.55,5.3-11.23,4.54c0,0,6.15,1.5,8.32-.33A9.92,9.92,0,0,0,163.61,123.3Z"/><path class="cls-7" d="M158.7,80.88l2.93,18.84,4.28,1.42,10.3-13.75S168.64,86.85,158.7,80.88Z"/><path class="cls-8" d="M161.63,131.55,154.3,129l-3.19,1.58A33.9,33.9,0,0,1,161.63,131.55Z"/><path class="cls-9" d="M147.19,131.55a15.36,15.36,0,0,0-10-2.15s10.08,2.47,10.56,4.69Z"/><path class="cls-10" d="M116.2,127.11s23.48,2.82,26.57,7c0,0-17.39-4.91-21.28-2.37Z"/><path class="cls-11" d="M126.15,89.23l-3,.25-1.71.14s.39-13-2.28-18.3C117.05,67,99.7,79.62,98.1,80.79l-.12.09-2.13-4.34c5.9-.91,23.11-15.05,25.64-12.68S126.15,89.23,126.15,89.23Z"/><path class="cls-12" d="M123.23,89.46l0,0-1.71.14s.39-13-2.28-18.3C117.05,67,99.7,79.62,98.1,80.79l.32-2.57s17.12-10.09,19.89-11.08C119.81,66.59,122.72,65.86,123.23,89.46Z"/><ellipse class="cls-13" cx="96.87" cy="78.76" rx="1.64" ry="2.4" transform="translate(-20.51 36.24) rotate(-19.2)"/></svg>