<svg id="Laag_1" data-name="Laag 1" xmlns="http://www.w3.org/2000/svg" xmlns:xlink="http://www.w3.org/1999/xlink" viewBox="0 0 789.25 898.42"><defs><style>.cls-1{opacity:0.11;}.cls-2{fill:#fdb089;}.cls-3{fill:url(#Naamloos_verloop_45);}.cls-4{fill:url(#Naamloos_verloop_53);}.cls-5{fill:url(#Naamloos_verloop_51);}.cls-6{fill:url(#Naamloos_verloop_45-2);}.cls-7{fill:#5d3577;}.cls-8{fill:url(#Naamloos_verloop_45-3);}.cls-9{fill:url(#Naamloos_verloop_115);}.cls-10{fill:url(#Naamloos_verloop_45-4);}.cls-11{fill:url(#Naamloos_verloop_114);}.cls-12{fill:#3e2962;}.cls-13{fill:#ec905c;}.cls-14{fill:url(#Naamloos_verloop_113);}.cls-15{fill:#fdc2a5;}.cls-16{fill:#7d8596;}.cls-17{fill:#424242;}.cls-18{fill:url(#Naamloos_verloop_45-5);}.cls-19{fill:#cbcfd8;}.cls-20{fill:#b0b5c1;}.cls-21{fill:#c3c2c2;}.cls-22{fill:#f17d15;}.cls-23{fill:#798c96;}.cls-24{fill:#adbac1;}.cls-25{fill:#8ab4de;}.cls-26{fill:#9ec3e8;}.cls-27{fill:#d0edff;}.cls-28,.cls-31{isolation:isolate;}.cls-28{opacity:0.1;}.cls-29{fill:#5b80a1;}.cls-30{fill:#688eb2;}.cls-31{fill:#fff;opacity:0.34;}.cls-32{fill:url(#Naamloos_verloop_26);}.cls-33{fill:url(#Naamloos_verloop_45-6);}.cls-34{fill:url(#Naamloos_verloop_15);}</style><linearGradient id="Naamloos_verloop_45" x1="299.33" y1="189.01" x2="329.31" y2="218.99" gradientTransform="matrix(0.99, -0.11, 0.11, 0.99, -19.92, 34.61)" gradientUnits="userSpaceOnUse"><stop offset="0" stop-color="#fdb089"/><stop offset="1" stop-color="#fda078"/></linearGradient><linearGradient id="Naamloos_verloop_53" x1="379.13" y1="621.62" x2="487.62" y2="621.62" gradientUnits="userSpaceOnUse"><stop offset="0" stop-color="#534283"/><stop offset="0.07" stop-color="#4f3e7d"/><stop offset="0.31" stop-color="#46326e"/><stop offset="0.59" stop-color="#402b65"/><stop offset="1" stop-color="#3e2962"/></linearGradient><linearGradient id="Naamloos_verloop_51" x1="381.44" y1="458.14" x2="639.31" y2="716" gradientUnits="userSpaceOnUse"><stop offset="0" stop-color="#534283"/><stop offset="1" stop-color="#3e2962"/></linearGradient><linearGradient id="Naamloos_verloop_45-2" x1="313.87" y1="246.37" x2="398.62" y2="331.12" gradientTransform="translate(-64.39 106.11) rotate(-15.56)" xlink:href="#Naamloos_verloop_45"/><linearGradient id="Naamloos_verloop_45-3" x1="256.84" y1="230.14" x2="378.27" y2="351.57" gradientTransform="translate(512.46 674.84) rotate(-159.4)" xlink:href="#Naamloos_verloop_45"/><linearGradient id="Naamloos_verloop_115" x1="396.14" y1="236.98" x2="621.96" y2="462.8" gradientUnits="userSpaceOnUse"><stop offset="0.08" stop-color="#774696"/><stop offset="0.98" stop-color="#432d51"/></linearGradient><linearGradient id="Naamloos_verloop_45-4" x1="452.79" y1="138.52" x2="500.14" y2="185.88" gradientTransform="matrix(1, 0, 0, 1, 0, 0)" xlink:href="#Naamloos_verloop_45"/><linearGradient id="Naamloos_verloop_114" x1="412.01" y1="35.71" x2="526.39" y2="150.08" gradientUnits="userSpaceOnUse"><stop offset="0" stop-color="#fdc2a5"/><stop offset="0.37" stop-color="#fdbca0"/><stop offset="0.86" stop-color="#fdac90"/><stop offset="1" stop-color="#fda68a"/></linearGradient><linearGradient id="Naamloos_verloop_113" x1="402.07" y1="40.11" x2="546.21" y2="40.11" gradientUnits="userSpaceOnUse"><stop offset="0" stop-color="#fdcc1e"/><stop offset="0.25" stop-color="#fbbe1f"/><stop offset="0.56" stop-color="#f9b520"/><stop offset="1" stop-color="#f9b220"/></linearGradient><linearGradient id="Naamloos_verloop_45-5" x1="410.2" y1="361.61" x2="441.94" y2="393.36" gradientTransform="translate(803.56 -48.59) rotate(90)" xlink:href="#Naamloos_verloop_45"/><linearGradient id="Naamloos_verloop_26" x1="483.86" y1="297.77" x2="590.12" y2="404.04" gradientUnits="userSpaceOnUse"><stop offset="0" stop-color="#fdc2a5"/><stop offset="0.31" stop-color="#fdbea2"/><stop offset="0.6" stop-color="#feb397"/><stop offset="0.88" stop-color="#ffa186"/><stop offset="1" stop-color="#ff967c"/></linearGradient><linearGradient id="Naamloos_verloop_45-6" x1="250.73" y1="176.39" x2="309.54" y2="235.2" gradientTransform="translate(78.15 -77.1) rotate(18.17)" xlink:href="#Naamloos_verloop_45"/><linearGradient id="Naamloos_verloop_15" x1="541.98" y1="176.5" x2="626.15" y2="260.66" gradientUnits="userSpaceOnUse"><stop offset="0.08" stop-color="#774696"/><stop offset="0.98" stop-color="#503362"/><stop offset="0.98" stop-color="#432d51"/></linearGradient></defs><g class="cls-1"><ellipse cx="550.84" cy="841.4" rx="210.12" ry="55.53"/></g><rect class="cls-2" x="392.92" y="74.69" width="29.08" height="36.06" rx="13.26"/><rect class="cls-3" x="303.33" y="177.36" width="21.98" height="53.29" rx="10.02" transform="translate(23.49 -32.29) rotate(6.11)"/><rect class="cls-2" x="527.49" y="762.66" width="33.05" height="44.45" rx="5.99"/><rect class="cls-2" x="428.64" y="762.66" width="33.05" height="44.45" rx="5.99"/><path class="cls-4" d="M471.69,787.35c-21.79,2.28-41.62,1.21-63.59,0-3.18-.17-4,3.11-5.13-3C368.67,596,375.8,632.21,396.64,454.55c24.46,2.5,66.87,3,91,8.69C450.82,665.51,443.09,585.53,471.69,787.35Z"/><path class="cls-5" d="M582,446.66v27.25a64.6,64.6,0,0,1-6.82,29c-15,102.45-20,172.87-9.32,286.53-21.24.5-42.35-.74-63.73-2-3.1-.19-4.27.85-4.76-3C485.7,692.35,473.16,620.88,473,538.89H458.66a65.74,65.74,0,0,1-65.74-65.74V446.66Z"/><rect class="cls-6" x="327.76" y="198.15" width="56.98" height="181.19" rx="25.99" transform="translate(90.48 -84.96) rotate(15.56)"/><path class="cls-7" d="M385.64,167h44.6a5,5,0,0,1,5,5v44.6a41.59,41.59,0,0,1-41.59,41.59h-30.6a19,19,0,0,1-19-19v-30.6A41.59,41.59,0,0,1,385.64,167Z" transform="translate(708.01 521.9) rotate(-164.44)"/><rect class="cls-8" x="289.06" y="200.26" width="56.98" height="181.19" rx="25.99" transform="translate(717.14 451.38) rotate(159.4)"/><path class="cls-9" d="M441.17,170.93h78A77.11,77.11,0,0,1,596.27,248V432a25,25,0,0,1-25,25H405.47a25,25,0,0,1-25-25V231.63A60.69,60.69,0,0,1,441.17,170.93Z"/><rect class="cls-10" x="449.31" y="128.52" width="54.32" height="67.35" rx="23.01"/><path class="cls-11" d="M550.84,88v9.53a13.27,13.27,0,0,1-11.26,13.12,63.79,63.79,0,0,1-63.79,63.66H462.62a63.8,63.8,0,0,1-63.8-63.8V75.38A64.39,64.39,0,0,1,463,11.18h12.36a64.39,64.39,0,0,1,64.19,63.66A13.27,13.27,0,0,1,550.84,88Z"/><path class="cls-12" d="M479.67,83.15h3.62a8.39,8.39,0,0,1,8.39,8.39V93a6.39,6.39,0,0,1-6.39,6.39h-3.62A8.39,8.39,0,0,1,473.28,91V89.54A6.39,6.39,0,0,1,479.67,83.15Z" transform="translate(964.96 182.51) rotate(-180)"/><path class="cls-12" d="M434.89,83.15h3.62a8.39,8.39,0,0,1,8.39,8.39V93a6.39,6.39,0,0,1-6.39,6.39h-3.62A8.39,8.39,0,0,1,428.49,91V89.54A6.39,6.39,0,0,1,434.89,83.15Z" transform="translate(875.39 182.51) rotate(180)"/><path class="cls-13" d="M459.58,105h3.25a3.39,3.39,0,0,1,3.39,3.39v9.25a5.57,5.57,0,0,1-5.57,5.57h-1.07a5.57,5.57,0,0,1-5.57-5.57v-7.08a5.57,5.57,0,0,1,5.57-5.57Z"/><rect class="cls-13" x="455.56" y="128.8" width="9.11" height="28.39" rx="4.15" transform="translate(603.11 -317.12) rotate(90)"/><rect class="cls-12" x="432.59" y="56.2" width="9.11" height="32.48" rx="4.15" transform="translate(509.59 -364.7) rotate(90)"/><rect class="cls-12" x="480.91" y="56.2" width="9.11" height="32.48" rx="4.15" transform="translate(557.91 -413.02) rotate(90)"/><path class="cls-14" d="M546.21,69.69a10.34,10.34,0,0,1-10.15,10.53,9.54,9.54,0,0,1-3.26-.56A76.39,76.39,0,0,0,514.61,48.5,74,74,0,0,0,498.81,36H429.33a16.65,16.65,0,0,1-1.88-.11A74.76,74.76,0,0,0,404,57.56a10.37,10.37,0,0,0-1.94,2.28,76.74,76.74,0,0,1,14.1-30.92,15.57,15.57,0,0,1-2.57-8.61V7a7,7,0,0,1,7-7h70.3A15.71,15.71,0,0,1,504,7a73.49,73.49,0,0,1,21,15.26A76.73,76.73,0,0,1,545.1,61.17l.55,3.21v0c.18,1.22.33,2.44.44,3.67a.2.2,0,0,1,0,.07c0,.38.08.76.1,1.13C546.21,69.42,546.21,69.56,546.21,69.69Z"/><path class="cls-15" d="M609,384.63a25.84,25.84,0,0,1-11.68,4.59l3.95-1.07A25.79,25.79,0,0,0,609,384.63Z"/><path class="cls-16" d="M280.66,232a12.71,12.71,0,0,1-12.11-8.74l-24.89-75.86a12.72,12.72,0,0,1,8.11-16L283.28,121a12.53,12.53,0,0,1,3.93-.63,12.7,12.7,0,0,1,12.11,8.74L324.22,205a12.76,12.76,0,0,1-8.11,16l-31.52,10.34A12.48,12.48,0,0,1,280.66,232Z"/><path class="cls-17" d="M287.21,117.63v5.48a10,10,0,0,1,9.51,6.86l24.89,75.85a10,10,0,0,1-6.36,12.58l-31.51,10.34a9.79,9.79,0,0,1-3.08.5,10,10,0,0,1-9.5-6.86l-24.9-75.85A10,10,0,0,1,252.62,134l31.51-10.35a10.12,10.12,0,0,1,3.08-.49v-5.48m0,0a15.09,15.09,0,0,0-4.79.77l-31.51,10.34a15.5,15.5,0,0,0-9.86,19.5L266,224.09a15.45,15.45,0,0,0,19.5,9.86L317,223.61a15.5,15.5,0,0,0,9.86-19.5l-24.89-75.85a15.52,15.52,0,0,0-14.72-10.63Z"/><rect class="cls-18" x="415.08" y="350.84" width="21.98" height="53.29" rx="10.02" transform="translate(48.59 803.56) rotate(-90)"/><rect class="cls-16" x="441.09" y="785.81" width="33.05" height="26.04" rx="5.99"/><rect class="cls-19" x="399.15" y="771" width="37.89" height="39.68" rx="5.99"/><path class="cls-16" d="M406.6,785.81h11.08a6,6,0,0,1,6,6v14.06a6,6,0,0,1-6,6H396.6a6,6,0,0,1-6-6V801.8a16,16,0,0,1,16-16Z"/><rect class="cls-16" x="334.94" y="834.81" width="139.2" height="15.13" rx="4.84"/><path class="cls-20" d="M364.77,804.76H474.14a0,0,0,0,1,0,0V844.2a0,0,0,0,1,0,0H338.4a3.46,3.46,0,0,1-3.46-3.46v-6.15a29.83,29.83,0,0,1,29.83-29.83Z"/><path class="cls-19" d="M474.14,804.76v5.91H378.86a35.44,35.44,0,0,0-35.3,33.53h-4.51a4.1,4.1,0,0,1-4.1-4.1,35.44,35.44,0,0,1,35.34-35.34Z"/><path class="cls-20" d="M396.6,797.66h71.55a6,6,0,0,1,6,6v8.2a0,0,0,0,1,0,0H396.6a6,6,0,0,1-6-6v-2.21A6,6,0,0,1,396.6,797.66Z"/><rect class="cls-16" x="539.94" y="785.81" width="33.05" height="26.04" rx="5.99"/><rect class="cls-19" x="498" y="771" width="37.89" height="39.68" rx="5.99"/><path class="cls-16" d="M505.45,785.81h11.08a6,6,0,0,1,6,6v14.06a6,6,0,0,1-6,6H495.45a6,6,0,0,1-6-6V801.8A16,16,0,0,1,505.45,785.81Z"/><rect class="cls-21" x="433.79" y="834.81" width="139.2" height="15.13" rx="4.84"/><path class="cls-20" d="M463.62,804.76H573a0,0,0,0,1,0,0V844.2a0,0,0,0,1,0,0H437.25a3.46,3.46,0,0,1-3.46-3.46v-6.15a29.83,29.83,0,0,1,29.83-29.83Z"/><path class="cls-19" d="M573,804.76v5.91H477.71a35.44,35.44,0,0,0-35.3,33.53h-4.52a4.1,4.1,0,0,1-4.09-4.1,35.42,35.42,0,0,1,35.34-35.34Z"/><path class="cls-20" d="M495.45,797.66H567a6,6,0,0,1,6,6v8.2a0,0,0,0,1,0,0H495.45a6,6,0,0,1-6-6v-2.21A6,6,0,0,1,495.45,797.66Z"/><path class="cls-22" d="M55,225.14a64.59,64.59,0,0,0-32.41-3.41l-.09,0-.76.12a4,4,0,0,0-.3,7.6,3.91,3.91,0,0,0,1.93.2h0c.25-.08.49-.13.75-.19h0c8.42-1.95,18.49-1.34,28.45,2.27,21.18,7.67,34,26.05,28.52,41s-27,20.9-48.18,13.23c-10-3.62-18.1-9.6-23.32-16.5a.09.09,0,0,0,0-.05,6.18,6.18,0,0,1-.4-.56h0a3.93,3.93,0,0,0-1.62-1.1,4,4,0,0,0-4.64,6c.16.2.32.39.5.59l.06.06A64.66,64.66,0,0,0,30.5,292.62c26.34,9.54,53.17,2.18,59.92-16.46S81.29,234.68,55,225.14Z"/><rect class="cls-22" x="272.69" y="136.29" width="14.6" height="417.13" rx="5.88" transform="translate(-139.63 490.61) rotate(-70.08)"/><rect class="cls-23" x="232.96" y="164.16" width="14.6" height="332.61" rx="5.88" transform="translate(-152.29 443.75) rotate(-70.08)"/><rect class="cls-24" x="415.71" y="384.01" width="8.69" height="73.17" rx="3.5" transform="translate(1012.27 471.95) rotate(139.92)"/><rect class="cls-24" x="390.87" y="374.54" width="8.69" height="39.81" rx="3.5" transform="translate(900.72 157.27) rotate(109.92)"/><path id="Union_32" data-name="Union 32" class="cls-25" d="M.08,301,39.92,191l33.89-9.55,19.9,29.05h0L53.88,320.44c-1.17,3.23-14.16,1.48-29-3.9S-1.09,304.18.08,301Z"/><path id="Path_111" data-name="Path 111" class="cls-26" d="M73.81,181.47l19.9,29.05s-9.37,4-29.27-3.2S39.92,191,39.92,191Z"/><path id="Subtraction_7" data-name="Subtraction 7" class="cls-27" d="M68.5,280.1,14.71,260.6l10.8-29.81c-.29.78.15,1.81,1.29,3a25.92,25.92,0,0,0,5.09,4,99.92,99.92,0,0,0,18.4,8.61,100.39,100.39,0,0,0,19.64,5.18,26.2,26.2,0,0,0,6.44.23c1.66-.22,2.65-.72,2.93-1.51Z"/><ellipse id="Ellipse_230" data-name="Ellipse 230" class="cls-27" cx="41.6" cy="270.35" rx="6.22" ry="28.61" transform="translate(-226.75 217.35) rotate(-70.08)"/><path id="Intersection_14" data-name="Intersection 14" class="cls-28" d="M83.33,195.36l10.38,15.16h0L53.88,320.44c-.81,2.22-7.18,2.09-15.9.05Z"/><path id="Union_35" data-name="Union 35" class="cls-29" d="M61.33,184.89l3.6-9.94,19.88,7.2-3.6,9.94c-.47,1.29-5.3.73-10.79-1.26S60.86,186.18,61.33,184.89Z"/><ellipse id="Ellipse_229" data-name="Ellipse 229" class="cls-30" cx="74.87" cy="178.55" rx="2.49" ry="10.57" transform="translate(-118.51 188.11) rotate(-70.08)"/><path id="Rectangle_429" data-name="Rectangle 429" class="cls-31" d="M41.53,204.84h0a1.87,1.87,0,0,1,1.12,2.39L11.08,294.35a1.87,1.87,0,0,1-2.39,1.12h0a1.87,1.87,0,0,1-1.12-2.39L39.14,206A1.87,1.87,0,0,1,41.53,204.84Z"/><path class="cls-22" d="M90.56,275.55l0-.09a34,34,0,0,1-12.27,2.19c-8.07,11-26.76,14.67-45.22,8.11-10-3.54-18.14-9.47-23.4-16.33,0,0,0,0,0,0-.16-.2-.32-.4-.46-.61l0,0A3.84,3.84,0,0,0,7.6,267.7,4,4,0,0,0,3,273.75l.5.58s0,.05.07.07a64.65,64.65,0,0,0,27.18,18C57.14,301.77,83.93,294.23,90.56,275.55Z"/><rect class="cls-24" x="79.57" y="258.5" width="24.75" height="36.53" rx="9.96" transform="translate(383.48 284.62) rotate(109.92)"/><path class="cls-32" d="M619.94,234.24V363.45a26,26,0,0,1-10.44,20.83,5.48,5.48,0,0,1-.49.35,25.79,25.79,0,0,1-7.73,3.52l-3.95,1.07-120.8,32.61a25.78,25.78,0,0,1-13,.14,34,34,0,0,1-20.63,13.56l-7.29,1.56a35.55,35.55,0,0,1-42.07-27.25l-1.18-5.54a23.41,23.41,0,0,1,18-27.72l28.55-6.1a24.34,24.34,0,0,1,13.55,1,25.9,25.9,0,0,1,9.25-4.63L563,339.48V234.24a26,26,0,0,1,26-26h5A26,26,0,0,1,619.94,234.24Z"/><path class="cls-15" d="M609.5,384.28a26,26,0,0,0,10.44-20.83v-5.73A26,26,0,0,1,609.5,384.28Z"/><rect class="cls-33" x="244.61" y="167.23" width="71.04" height="77.13" rx="25.74" transform="translate(-50.21 97.63) rotate(-18.17)"/><circle class="cls-23" cx="257.04" cy="144.74" r="2.1"/><path class="cls-17" d="M257,139.89a4.85,4.85,0,1,0,4.84,4.85,4.84,4.84,0,0,0-4.84-4.85Z"/><path class="cls-34" d="M555.42,170.93H586a41.59,41.59,0,0,1,41.59,41.59v44.6a5,5,0,0,1-5,5H578a41.59,41.59,0,0,1-41.59-41.59v-30.6A19,19,0,0,1,555.42,170.93Z"/></svg>