<svg id="Laag_1" data-name="Laag 1" xmlns="http://www.w3.org/2000/svg" xmlns:xlink="http://www.w3.org/1999/xlink" viewBox="0 0 259.93 228.55"><defs><style>.cls-1{fill:url(#Naamloos_verloop_63);}.cls-2{fill:url(#Naamloos_verloop_63-2);}.cls-3{fill:#fff;opacity:0.21;}.cls-4{fill:url(#Naamloos_verloop_50);}.cls-5{fill:url(#Naamloos_verloop_17);}.cls-6{fill:url(#Naamloos_verloop_17-2);}.cls-7{fill:url(#Naamloos_verloop_75);}.cls-8{fill:url(#Naamloos_verloop_75-2);}.cls-9{fill:url(#Naamloos_verloop_75-3);}</style><linearGradient id="Naamloos_verloop_63" x1="96.39" y1="112.79" x2="158.52" y2="112.79" gradientUnits="userSpaceOnUse"><stop offset="0" stop-color="#00d5ca"/><stop offset="1" stop-color="#229abc"/></linearGradient><linearGradient id="Naamloos_verloop_63-2" x1="96.39" y1="43.32" x2="158.52" y2="43.32" xlink:href="#Naamloos_verloop_63"/><linearGradient id="Naamloos_verloop_50" x1="96.39" y1="124.69" x2="158.52" y2="124.69" gradientUnits="userSpaceOnUse"><stop offset="0" stop-color="#fff"/><stop offset="0" stop-color="#ececec"/><stop offset="1" stop-color="#798c96"/></linearGradient><linearGradient id="Naamloos_verloop_17" x1="113.11" y1="28.19" x2="141.8" y2="28.19" gradientUnits="userSpaceOnUse"><stop offset="0" stop-color="#d8d8d8"/><stop offset="1" stop-color="#adbac1"/></linearGradient><linearGradient id="Naamloos_verloop_17-2" x1="141.8" y1="19.33" x2="113.11" y2="19.33" xlink:href="#Naamloos_verloop_17"/><linearGradient id="Naamloos_verloop_75" x1="132.49" y1="85.54" x2="158.52" y2="85.54" gradientUnits="userSpaceOnUse"><stop offset="0" stop-color="#3e6ab1"/><stop offset="1" stop-color="#229abc"/></linearGradient><linearGradient id="Naamloos_verloop_75-2" x1="107.64" y1="162.94" x2="158.52" y2="162.94" xlink:href="#Naamloos_verloop_75"/><linearGradient id="Naamloos_verloop_75-3" x1="140.73" y1="70.41" x2="158.52" y2="70.41" xlink:href="#Naamloos_verloop_75"/></defs><path id="Union_32" data-name="Union 32" class="cls-1" d="M96.39,191.26V51.42l31.06-24.54,31.07,24.54h0V191.26c0,4.1-13.91,7.43-31.07,7.43S96.39,195.36,96.39,191.26Z"/><path id="Path_111" data-name="Path 111" class="cls-2" d="M127.45,26.88l31.07,24.54s-8.09,8.33-31.07,8.33-31.06-8.33-31.06-8.33Z"/><path id="Path_111-2" data-name="Path 111" class="cls-3" d="M127.45,26.88l31.07,24.54s-8.09,8.33-31.07,8.33-31.06-8.33-31.06-8.33Z"/><path class="cls-4" d="M156.07,104.9a26.65,26.65,0,0,1-6.65,2.36,98.61,98.61,0,0,1-22,2.18,98.51,98.51,0,0,1-22-2.18,26.72,26.72,0,0,1-6.66-2.36C97.21,104,96.39,103,96.39,102v37.92c0,4.11,13.91,7.44,31.06,7.44s31.07-3.33,31.07-7.44V102C158.52,103,157.69,104,156.07,104.9Z"/><path id="Union_35" data-name="Union 35" class="cls-5" d="M113.11,33.67V19.33H141.8V33.67c0,1.87-6.42,3.38-14.35,3.38S113.11,35.54,113.11,33.67Z"/><ellipse id="Ellipse_229" data-name="Ellipse 229" class="cls-6" cx="127.45" cy="19.33" rx="14.35" ry="3.38"/><path class="cls-7" d="M132.49,93.11s12.8.29,18-4.36a36.26,36.26,0,0,0,8-10.77s-3,14.1-6,14.56S132.49,93.11,132.49,93.11Z"/><path class="cls-8" d="M107.64,170.51s25,.29,35.26-4.37a49.59,49.59,0,0,0,15.62-10.77s-5.92,14.11-11.7,14.57S107.64,170.51,107.64,170.51Z"/><path class="cls-9" d="M140.73,78s8.75.29,12.33-4.36a39.59,39.59,0,0,0,5.46-10.77s-2.07,14.1-4.09,14.57S140.73,78,140.73,78Z"/><path class="cls-3" d="M114.65,64.39s-8.74-.29-12.32,4.36a39.26,39.26,0,0,0-5.46,10.77S98.94,65.42,101,65,114.65,64.39,114.65,64.39Z"/><path class="cls-3" d="M126.12,97.14s-14.39.29-20.27-4.36a36.58,36.58,0,0,1-9-10.77s3.4,14.1,6.73,14.56S126.12,97.14,126.12,97.14Z"/></svg>