<svg id="Laag_1" data-name="Laag 1" xmlns="http://www.w3.org/2000/svg" xmlns:xlink="http://www.w3.org/1999/xlink" viewBox="0 0 259.93 228.55"><defs><style>.cls-1{fill:url(#Naamloos_verloop_14);}.cls-2{fill:url(#Naamloos_verloop_22);}.cls-3{fill:#c43a80;}.cls-4{fill:url(#Naamloos_verloop_22-2);}.cls-5{fill:url(#Naamloos_verloop_14-2);}.cls-6{fill:url(#Naamloos_verloop_9);}.cls-7{fill:url(#Naamloos_verloop_14-3);}.cls-8{fill:url(#Naamloos_verloop_22-3);}.cls-9{fill:url(#Naamloos_verloop_17);}.cls-10{fill:#656565;}.cls-11{fill:url(#Naamloos_verloop_14-4);}</style><linearGradient id="Naamloos_verloop_14" x1="155.39" y1="77.91" x2="241.09" y2="77.91" gradientUnits="userSpaceOnUse"><stop offset="0" stop-color="#c9d2d8"/><stop offset="1" stop-color="#ececec"/></linearGradient><linearGradient id="Naamloos_verloop_22" x1="32.93" y1="109.05" x2="231.38" y2="109.05" gradientUnits="userSpaceOnUse"><stop offset="0" stop-color="#913d95"/><stop offset="1" stop-color="#733f96"/></linearGradient><linearGradient id="Naamloos_verloop_22-2" x1="32.93" y1="139.7" x2="68.29" y2="139.7" xlink:href="#Naamloos_verloop_22"/><linearGradient id="Naamloos_verloop_14-2" x1="8.1" y1="143.47" x2="57.76" y2="143.47" xlink:href="#Naamloos_verloop_14"/><linearGradient id="Naamloos_verloop_9" x1="32.93" y1="109.05" x2="231.86" y2="109.05" gradientUnits="userSpaceOnUse"><stop offset="0" stop-color="#ef6280"/><stop offset="1" stop-color="#c43a80"/></linearGradient><linearGradient id="Naamloos_verloop_14-3" x1="159.3" y1="69.84" x2="221.25" y2="69.84" xlink:href="#Naamloos_verloop_14"/><linearGradient id="Naamloos_verloop_22-3" x1="114.87" y1="132.37" x2="181.92" y2="132.37" xlink:href="#Naamloos_verloop_22"/><linearGradient id="Naamloos_verloop_17" x1="53.82" y1="143.47" x2="12.04" y2="143.47" gradientUnits="userSpaceOnUse"><stop offset="0" stop-color="#d8d8d8"/><stop offset="1" stop-color="#adbac1"/></linearGradient><linearGradient id="Naamloos_verloop_14-4" x1="19.02" y1="144" x2="36.32" y2="144" xlink:href="#Naamloos_verloop_14"/></defs><path class="cls-1" d="M221.61,58.13C242,90.34,246.84,135.41,234,142c-12.56,6.42-42.44-23.94-58.32-51.36-16-27.58-27.23-68.43-15.33-76.2C171.82,6.91,204.13,30.49,221.61,58.13Z"/><path class="cls-2" d="M159.3,14.13,132.4,72l-33.53-8.8L32.93,85.65V201.29a45.41,45.41,0,0,0,30.72,0L87.73,187.7h0L114.87,204l33.52-14.29,37.9,2.43,45.09-48.64Z"/><polygon class="cls-3" points="54.91 189.68 93.65 160.19 101.17 209.66 159.3 171.59 77.34 149.07 54.91 189.68"/><path class="cls-4" d="M32.93,85.65,44.75,75.43s53,69.15,0,128.54Z"/><ellipse class="cls-5" cx="32.93" cy="143.47" rx="24.83" ry="57.82"/><polygon class="cls-3" points="124.55 52.69 114.87 107.64 192.8 96.38 178.81 42.45 124.55 52.69"/><path class="cls-6" d="M32.93,85.65S72.48,49.29,80.66,55.83s40.89,47.44,40.89,47.44L128.09,55h45.8L159.3,14.13s79.43,13,72.08,129.34L174,179.1l-23.14-5.89L105.38,204,85.75,158.28l-30.84,31.4a113.23,113.23,0,0,0,13.46-50.83c.28-15,.66-34.25-12.85-45.36C47.86,87.19,38.72,85.87,32.93,85.65Z"/><path class="cls-7" d="M159.3,14.13a100.2,100.2,0,0,1,49.9,111.42c1.86-2.81,20.56-32.28,7.37-66.19A72.79,72.79,0,0,0,159.3,14.13Z"/><path class="cls-8" d="M114.87,125.55s39.56,24,53.84,17.27,13.19-22.08,13.19-22.08-2.2,3-17.58,4.81S114.87,125.55,114.87,125.55Z"/><ellipse class="cls-9" cx="32.93" cy="143.47" rx="20.89" ry="48.64"/><path class="cls-10" d="M40.07,115.35c0,8-6.2,14.44-6.2,14.44s-6.2-6.47-6.2-14.44,2.78-14.44,6.2-14.44S40.07,107.38,40.07,115.35Z"/><path class="cls-11" d="M34.36,144.25c2.58-7.17,2.63-13.65,0-14.64s-6.87,3.88-9.72,11a10.85,10.85,0,0,0-4.87,5.77c-1.9,5-.23,10.26,3.73,11.77s8.72-1.31,10.62-6.3A11,11,0,0,0,34.36,144.25Z"/><ellipse class="cls-10" cx="26.98" cy="149.07" rx="3.24" ry="4.36" transform="translate(-121.93 121.22) rotate(-69.15)"/></svg>