<svg id="Laag_1" data-name="Laag 1" xmlns="http://www.w3.org/2000/svg" xmlns:xlink="http://www.w3.org/1999/xlink" viewBox="0 0 259.93 284.25"><defs><style>.cls-1{fill:url(#Naamloos_verloop_451);}.cls-2{fill:url(#Naamloos_verloop_426);}.cls-3{fill:url(#Naamloos_verloop_428);}.cls-4{fill:none;}.cls-5{fill:url(#Naamloos_verloop_431);}.cls-6{fill:url(#Naamloos_verloop_425);}.cls-7{fill:url(#Naamloos_verloop_433);}.cls-8{fill:url(#Naamloos_verloop_431-2);}.cls-9{fill:url(#Naamloos_verloop_441);}.cls-10{fill:url(#Naamloos_verloop_433-2);}.cls-11{fill:#fff;opacity:0.17;}.cls-12{fill:url(#Naamloos_verloop_431-3);}.cls-13{fill:url(#Naamloos_verloop_433-3);}.cls-14{fill:url(#Naamloos_verloop_426-2);}.cls-15{fill:url(#Naamloos_verloop_426-3);}.cls-16{fill:url(#Naamloos_verloop_426-4);}.cls-17{fill:url(#Naamloos_verloop_426-5);}</style><linearGradient id="Naamloos_verloop_451" x1="177.88" y1="142.14" x2="86.61" y2="142.14" gradientUnits="userSpaceOnUse"><stop offset="0" stop-color="#c9d2d7"/><stop offset="0.42" stop-color="#eef1f4"/><stop offset="1" stop-color="#c9d2d8"/></linearGradient><linearGradient id="Naamloos_verloop_426" x1="177.88" y1="151.39" x2="119.66" y2="151.39" gradientUnits="userSpaceOnUse"><stop offset="0" stop-color="#798c96"/><stop offset="1" stop-color="#c9d2d8"/></linearGradient><linearGradient id="Naamloos_verloop_428" x1="172.04" y1="149.9" x2="119.66" y2="149.9" gradientUnits="userSpaceOnUse"><stop offset="0" stop-color="#adbac1"/><stop offset="1" stop-color="#c9d2d8"/></linearGradient><linearGradient id="Naamloos_verloop_431" x1="86.6" y1="186.29" x2="177.88" y2="186.29" gradientUnits="userSpaceOnUse"><stop offset="0" stop-color="#f9b220"/><stop offset="1" stop-color="#f17d15"/></linearGradient><linearGradient id="Naamloos_verloop_425" x1="119.44" y1="27.07" x2="145.05" y2="27.07" gradientUnits="userSpaceOnUse"><stop offset="0" stop-color="#d8d8d8"/><stop offset="1" stop-color="#c9d2d8"/></linearGradient><linearGradient id="Naamloos_verloop_433" x1="147.56" y1="22.34" x2="116.93" y2="22.34" gradientUnits="userSpaceOnUse"><stop offset="0" stop-color="#ec7241"/><stop offset="1" stop-color="#f17d15"/></linearGradient><linearGradient id="Naamloos_verloop_431-2" x1="86.61" y1="151.17" x2="177.88" y2="151.17" xlink:href="#Naamloos_verloop_431"/><linearGradient id="Naamloos_verloop_441" x1="177.88" y1="153.42" x2="165.47" y2="153.42" gradientUnits="userSpaceOnUse"><stop offset="0" stop-color="#ec7241"/><stop offset="1" stop-color="#f15815"/></linearGradient><linearGradient id="Naamloos_verloop_433-2" x1="172.04" y1="156.48" x2="150.14" y2="156.48" xlink:href="#Naamloos_verloop_433"/><linearGradient id="Naamloos_verloop_431-3" x1="116.93" y1="10.61" x2="147.56" y2="10.61" xlink:href="#Naamloos_verloop_431"/><linearGradient id="Naamloos_verloop_433-3" x1="147.56" y1="34.07" x2="116.93" y2="34.07" xlink:href="#Naamloos_verloop_433"/><linearGradient id="Naamloos_verloop_426-2" x1="118.5" y1="263.77" x2="118.5" y2="251.46" xlink:href="#Naamloos_verloop_426"/><linearGradient id="Naamloos_verloop_426-3" x1="242.92" y1="263.77" x2="242.92" y2="251.46" gradientTransform="matrix(-1, 0, 0, 1, 388.77, 0)" xlink:href="#Naamloos_verloop_426"/><linearGradient id="Naamloos_verloop_426-4" x1="93.94" y1="263.55" x2="93.94" y2="249.62" xlink:href="#Naamloos_verloop_426"/><linearGradient id="Naamloos_verloop_426-5" x1="269.97" y1="263.63" x2="269.97" y2="249.7" gradientTransform="matrix(-1, 0, 0, 1, 440.44, 0)" xlink:href="#Naamloos_verloop_426"/></defs><path class="cls-1" d="M177.88,111.32V245.37a12.26,12.26,0,0,1-3.32,8.62l-7.38,7.46a7.83,7.83,0,0,1-11.6-.07l-4.06-4.17c-3.74-3.84-9.28-3.38-12.56,1a8.36,8.36,0,0,1-6.71,3.65h0a8.38,8.38,0,0,1-6.7-3.65,8.39,8.39,0,0,0-6.72-3.64,8.1,8.1,0,0,0-5.83,2.6l-4.06,4.17a8.51,8.51,0,0,1-4.06,2.39,7.5,7.5,0,0,1-4.27-.22,8.7,8.7,0,0,1-3.27-2.1L89.92,254a11.23,11.23,0,0,1-2.62-4.37,13.28,13.28,0,0,1-.69-4.25v-134c0-26.29,22.32-55.07,30.27-64.49a12.45,12.45,0,0,0,2.78-8V31.45c0-6.16,4.06-11.16,9.09-11.16h7c5,0,9.08,5,9.08,11.16v7.36a12.45,12.45,0,0,0,2.78,8C155.56,56.25,177.88,85,177.88,111.32Z"/><path class="cls-2" d="M170,138.76c-4.47,44.9-6.6,100.17-25.06,115.88h0a8,8,0,0,1,6.54,2.57l4.06,4.17a7.82,7.82,0,0,0,11.6.06l7.38-7.45a12.3,12.3,0,0,0,3.32-8.62V111.31c0-26.28-22.32-55.06-30.28-64.48a12.52,12.52,0,0,1-2.77-8H119.66S174.51,93.86,170,138.76Z"/><path class="cls-3" d="M158,137.9c-1.08,35.85-15.61,89.61-22.34,112.75-2,7-3.37,11.25-3.37,11.25h0c.22,0,.43,0,.65,0l.39,0a8.55,8.55,0,0,0,5.68-3.57h0c2.63-3.54,6.7-4.54,10.14-2.82,6.77-5,13.8-13.73,17.31-29.21,8-35.21,11.47-140-17.64-167.4s-29.11-20-29.11-20S159.36,91.15,158,137.9Z"/><path class="cls-4" d="M169.87,119.64l-1.05.26"/><path class="cls-5" d="M177.88,186.29a1.41,1.41,0,0,1-.2.73c-1,1.74-5.4,3.3-12.08,4.5-8.33,1.49-20.19,2.42-33.35,2.42-25.22,0-45.65-3.42-45.65-7.65s20.43-7.65,45.65-7.65c13.41,0,25.48,1,33.84,2.52C173.41,182.52,177.88,184.32,177.88,186.29Z"/><rect class="cls-6" x="119.44" y="15.34" width="25.61" height="23.46"/><rect class="cls-7" x="116.93" y="10.61" width="30.63" height="23.46"/><path class="cls-8" d="M168.82,119.9a108.46,108.46,0,0,1-11.88,1.85A234.49,234.49,0,0,1,132.25,123c-25,0-45.33-3.38-45.64-7.55V187h91.27v-71.7c0,1.61-2.95,3.09-8,4.32Z"/><path class="cls-9" d="M177.88,115.32V187h-.2c-1,1.74-5.4,3.3-12.08,4.5h-.13c.22-1.94.42-8.39.62-10.35,1.45-14.16,2.59-28.76,3.95-42.4a62.28,62.28,0,0,0-1.22-18.86l1.05-.26C174.93,118.41,177.88,116.93,177.88,115.32Z"/><path class="cls-10" d="M169.87,119.64a397.81,397.81,0,0,1,1.63,62.75c-.07,1.56-.38,6.41-.47,7.93-2.64.63-5.46,1.21-8.46,1.69a118.09,118.09,0,0,1-12.43,1.32c.68-3.2,1.66-8,2.75-13.86,2.71-14.66,4.69-29.19,5.06-41.57a92.59,92.59,0,0,0-1-16.15,108.46,108.46,0,0,0,11.88-1.85Z"/><path class="cls-11" d="M119.66,46.93s-32,107.54-19.06,166.51c0,0,38.77-28,28-49.95C108.1,121.86,119.66,46.93,119.66,46.93Z"/><path class="cls-11" d="M121.55,14s-4.12,9.22,0,13.29-1.18-4.12,6.77-6.65,19.24-10,10.88-6.64C134.32,16,121.55,14,121.55,14Z"/><ellipse class="cls-12" cx="132.24" cy="10.61" rx="15.31" ry="2.52"/><ellipse class="cls-13" cx="132.24" cy="34.07" rx="15.31" ry="2.52"/><path class="cls-14" d="M132.22,261.9a8.38,8.38,0,0,1-6.7-3.65,8.39,8.39,0,0,0-6.72-3.64,8.1,8.1,0,0,0-5.83,2.6l-4.06,4.17a8.51,8.51,0,0,1-4.06,2.39,8.62,8.62,0,0,1-.07-1.14c0-6.17,6.15-11.17,13.74-11.17C125.79,251.46,131.76,256.07,132.22,261.9Z"/><path class="cls-15" d="M132.13,261.9a8.37,8.37,0,0,0,6.69-3.65,8.41,8.41,0,0,1,6.73-3.64,8.1,8.1,0,0,1,5.83,2.6l4.05,4.17a8.56,8.56,0,0,0,4.06,2.39,8.62,8.62,0,0,0,.07-1.14c0-6.17-6.14-11.17-13.73-11.17C138.56,251.46,132.59,256.07,132.13,261.9Z"/><path class="cls-16" d="M100.58,263.55a8.7,8.7,0,0,1-3.27-2.1L89.92,254a11.23,11.23,0,0,1-2.62-4.37,14.87,14.87,0,0,1,10.31,6.48A16.79,16.79,0,0,1,100.58,263.55Z"/><path class="cls-17" d="M163.83,263.63a8.59,8.59,0,0,0,3.26-2.1l7.39-7.46a11.23,11.23,0,0,0,2.62-4.37,14.89,14.89,0,0,0-10.31,6.48A16.65,16.65,0,0,0,163.83,263.63Z"/></svg>