<svg id="Laag_1" data-name="Laag 1" xmlns="http://www.w3.org/2000/svg" xmlns:xlink="http://www.w3.org/1999/xlink" viewBox="0 0 259.93 228.55"><defs><style>.cls-1{fill:#603d96;}.cls-2{fill:url(#Naamloos_verloop_22);}.cls-3{fill:url(#Naamloos_verloop_22-2);}.cls-4{fill:url(#Naamloos_verloop_25);}.cls-5{fill:url(#Naamloos_verloop_14);}.cls-6{fill:url(#Naamloos_verloop_17);}.cls-7{fill:url(#Naamloos_verloop_25-2);}.cls-8{fill:url(#Naamloos_verloop_9);}.cls-9{fill:url(#Naamloos_verloop_14-2);}.cls-10{fill:url(#Naamloos_verloop_17-2);}.cls-11{fill:#656565;}.cls-12{fill:url(#Naamloos_verloop_14-3);}</style><linearGradient id="Naamloos_verloop_22" x1="45.88" y1="127.64" x2="233.18" y2="127.64" gradientUnits="userSpaceOnUse"><stop offset="0" stop-color="#913d95"/><stop offset="1" stop-color="#733f96"/></linearGradient><linearGradient id="Naamloos_verloop_22-2" x1="31.87" y1="147.4" x2="75.87" y2="147.4" xlink:href="#Naamloos_verloop_22"/><linearGradient id="Naamloos_verloop_25" x1="87.07" y1="142.15" x2="122.45" y2="142.15" gradientUnits="userSpaceOnUse"><stop offset="0" stop-color="#c53b80"/><stop offset="1" stop-color="#c43a80"/></linearGradient><linearGradient id="Naamloos_verloop_14" x1="273.87" y1="19.38" x2="383.56" y2="19.38" gradientTransform="translate(-265.13 144.79)" gradientUnits="userSpaceOnUse"><stop offset="0" stop-color="#c9d2d8"/><stop offset="1" stop-color="#ececec"/></linearGradient><linearGradient id="Naamloos_verloop_17" x1="374.86" y1="19.38" x2="282.57" y2="19.38" gradientTransform="translate(-265.13 144.79)" gradientUnits="userSpaceOnUse"><stop offset="0" stop-color="#d8d8d8"/><stop offset="1" stop-color="#adbac1"/></linearGradient><linearGradient id="Naamloos_verloop_25-2" x1="129.92" y1="123.01" x2="244.83" y2="123.01" xlink:href="#Naamloos_verloop_25"/><linearGradient id="Naamloos_verloop_9" x1="95.65" y1="95.6" x2="255.05" y2="95.6" gradientUnits="userSpaceOnUse"><stop offset="0" stop-color="#ef6280"/><stop offset="1" stop-color="#c43a80"/></linearGradient><linearGradient id="Naamloos_verloop_14-2" x1="-4170.64" y1="-2437.76" x2="-4120.98" y2="-2437.76" gradientTransform="translate(-2250.75 4203.05) rotate(90)" xlink:href="#Naamloos_verloop_14"/><linearGradient id="Naamloos_verloop_17-2" x1="-4124.92" y1="-2437.76" x2="-4166.7" y2="-2437.76" gradientTransform="translate(-2250.75 4203.05) rotate(90)" xlink:href="#Naamloos_verloop_17"/><linearGradient id="Naamloos_verloop_14-3" x1="-4159.72" y1="-2437.23" x2="-4142.43" y2="-2437.23" gradientTransform="translate(-2250.75 4203.05) rotate(90)" xlink:href="#Naamloos_verloop_14"/></defs><path class="cls-1" d="M186.06,156.7s-32.14,5.15-42.08,11.92-22,6.27-22,6.27l15.8-18.38Z"/><path class="cls-2" d="M145.39,65.31l-2.61,8.34c-1,3.24-4.06,5.83-8.05,6.82L112.41,86a13.61,13.61,0,0,0-3.07,1.16l-13.8,7.34a14.5,14.5,0,0,1-10,1.19L78.22,94c-5.89-1.42-12.17,1-14.49,5.55l-17,33.36a7.88,7.88,0,0,0,.27,7.71l30.23,51.15c2.6,4.39,8.89,6.55,14.62,5,11.63-3.21,30.27-11.09,41.58-29.85a12.35,12.35,0,0,1,10-5.51c15.47-.86,51.8-3.14,69.9-6.57,6.13-1.17,10-6,8.92-11l-8.11-36.4a8,8,0,0,1,1.3-6.32l16.2-23.42c4.15-6-.69-13.44-9.2-14.15l-64.26-5.38C152.3,57.63,146.83,60.69,145.39,65.31Z"/><path class="cls-3" d="M41.75,120.79S60,105.15,66.93,108.35s-30.06,37.41,8.94,59.78L41.75,186.88S26.31,133.23,34,127Z"/><path class="cls-4" d="M106.88,95.6s-9.84,18.09,8.44,35S111,188.7,111,188.7,78,138.17,89.53,118,106.88,95.6,106.88,95.6Z"/><ellipse class="cls-5" cx="63.58" cy="164.17" rx="54.85" ry="44.73"/><ellipse class="cls-6" cx="63.58" cy="164.17" rx="46.14" ry="37.63"/><path class="cls-7" d="M244.83,106s.26,6.06-15.26,14.06c-19.13,9.85-56.67,21.86-81.23,19.74,0,0,8.75-9.25-15.53-17.65S244.83,106,244.83,106Z"/><path class="cls-8" d="M244.83,57.19s23,52.54,0,54.62-69,25.54-78.79,21.8c-6-2.28-14.93-8.07-21-12.24-3.55-2.44-9.31-2.07-12.2.77l-3.61,3.56s-20.91-17.15-32.66-14.38,96.84-7.15,81.21-7.84S137.44,95.87,129.2,88.2l1.24-25.81s52.47,23.71,84.69,12.42S244.83,57.19,244.83,57.19Z"/><path class="cls-1" d="M115,86.44S118.66,79.29,123,72c4.62-7.7,4-16,6.17-14.82,8,4.4,16.83,44.38,48.55,46.29,0,0-33.67,11.9-62.8,6.39,1,0,13,.36,16.51-4.14S129.9,91.85,115,86.44Z"/><path class="cls-1" d="M115.7,177.65s11.74-37.92-15-54.6,15-13.15,15-13.15-5.32,1.11-6.62,4.37c-1.16,2.89,1.61,5.93,2.52,7,8.19,9.36,18.72,34.12,10.67,47l-6.57,9.43Z"/><ellipse class="cls-9" cx="187.01" cy="57.24" rx="57.82" ry="24.83"/><ellipse class="cls-10" cx="187.01" cy="57.24" rx="48.64" ry="20.89"/><path class="cls-11" d="M215.13,64.38c-8,0-14.43-6.2-14.43-6.2s6.46-6.2,14.43-6.2,14.44,2.77,14.44,6.2S223.11,64.38,215.13,64.38Z"/><path class="cls-12" d="M186.23,58.67c7.18,2.58,13.65,2.63,14.64,0s-3.88-6.86-11-9.71a10.88,10.88,0,0,0-5.78-4.87c-5-1.91-10.26-.24-11.77,3.73s1.32,8.72,6.31,10.62A11,11,0,0,0,186.23,58.67Z"/><ellipse class="cls-11" cx="181.41" cy="51.29" rx="4.36" ry="3.24" transform="translate(68.9 202.56) rotate(-69.15)"/></svg>