<svg id="Laag_1" data-name="Laag 1" xmlns="http://www.w3.org/2000/svg" xmlns:xlink="http://www.w3.org/1999/xlink" viewBox="0 0 259.93 228.55"><defs><style>.cls-1{fill:url(#Naamloos_verloop_75);}.cls-2{fill:url(#Naamloos_verloop_63);}.cls-3{fill:url(#Naamloos_verloop_75-2);}.cls-4{fill:url(#Naamloos_verloop_75-3);}.cls-5{fill:url(#Naamloos_verloop_63-2);}.cls-6{fill:url(#Naamloos_verloop_75-4);}.cls-7{fill:url(#Naamloos_verloop_63-3);}.cls-8{fill:url(#Naamloos_verloop_63-4);}.cls-9{fill:url(#Naamloos_verloop_63-5);}.cls-10{fill:#fff;opacity:0.21;}.cls-11{fill:url(#Naamloos_verloop_17);}.cls-12{fill:url(#Naamloos_verloop_17-2);}.cls-13{fill:url(#Naamloos_verloop_75-5);}.cls-14{fill:url(#Naamloos_verloop_75-6);}</style><linearGradient id="Naamloos_verloop_75" x1="156.99" y1="72.21" x2="196.06" y2="72.21" gradientUnits="userSpaceOnUse"><stop offset="0" stop-color="#3e6ab1"/><stop offset="1" stop-color="#229abc"/></linearGradient><linearGradient id="Naamloos_verloop_63" x1="158.69" y1="69.98" x2="185.97" y2="69.98" gradientUnits="userSpaceOnUse"><stop offset="0" stop-color="#00d5ca"/><stop offset="1" stop-color="#229abc"/></linearGradient><linearGradient id="Naamloos_verloop_75-2" x1="163.75" y1="85.64" x2="107.48" y2="84.71" xlink:href="#Naamloos_verloop_75"/><linearGradient id="Naamloos_verloop_75-3" x1="122.03" y1="62.09" x2="184.27" y2="113.66" xlink:href="#Naamloos_verloop_75"/><linearGradient id="Naamloos_verloop_63-2" x1="189.28" y1="131.92" x2="112.92" y2="130.66" gradientTransform="translate(-12.37 -40.62) rotate(-0.95)" xlink:href="#Naamloos_verloop_63"/><linearGradient id="Naamloos_verloop_75-4" x1="92.22" y1="110.28" x2="125.51" y2="83.36" xlink:href="#Naamloos_verloop_75"/><linearGradient id="Naamloos_verloop_63-3" x1="-741.31" y1="2776.58" x2="-658.25" y2="2776.58" gradientTransform="translate(-2048 -1714.47) rotate(-65.08)" xlink:href="#Naamloos_verloop_63"/><linearGradient id="Naamloos_verloop_63-4" x1="-1997.27" y1="3250.16" x2="-1907.59" y2="3250.16" gradientTransform="translate(-3167.81 -1852.45) rotate(-90)" xlink:href="#Naamloos_verloop_63"/><linearGradient id="Naamloos_verloop_63-5" x1="-1997.27" y1="3216.8" x2="-1914.21" y2="3216.8" gradientTransform="translate(-3167.81 -1852.45) rotate(-90)" xlink:href="#Naamloos_verloop_63"/><linearGradient id="Naamloos_verloop_17" x1="-1974.92" y1="3196.58" x2="-1936.56" y2="3196.58" gradientTransform="translate(-3167.81 -1852.45) rotate(-90)" gradientUnits="userSpaceOnUse"><stop offset="0" stop-color="#d8d8d8"/><stop offset="1" stop-color="#adbac1"/></linearGradient><linearGradient id="Naamloos_verloop_17-2" x1="-1936.56" y1="3184.73" x2="-1974.92" y2="3184.73" xlink:href="#Naamloos_verloop_17"/><linearGradient id="Naamloos_verloop_75-5" x1="-1778.45" y1="1199.6" x2="-1816.81" y2="1199.6" gradientTransform="translate(4100.12 -5771.03) scale(2.16 4.9)" xlink:href="#Naamloos_verloop_75"/><linearGradient id="Naamloos_verloop_75-6" x1="-1808.09" y1="1190.93" x2="-1787.17" y2="1208.27" gradientTransform="translate(4100.12 -5771.03) scale(2.16 4.9)" xlink:href="#Naamloos_verloop_75"/></defs><polygon class="cls-1" points="156.99 50.94 196.06 58.83 175.54 93.49 156.99 50.94"/><polygon class="cls-2" points="158.69 53.52 185.97 58 168.95 86.44 158.69 53.52"/><path class="cls-3" d="M107.86,61.76l39.57-16.68a5.8,5.8,0,0,1,7.1,2.14l9.62,14.54-2.56,64.64-33.25-2.62Z"/><polygon class="cls-4" points="115.09 70.48 202.3 61.76 179.07 119.94 117.55 125.23 115.09 70.48"/><path class="cls-5" d="M109.08,84.68l-6.39-18.54L146,56.5a5,5,0,0,1,4.86,1.6l27.28,31.47.94,30.36-45.31-11.8Z"/><path class="cls-6" d="M96.47,55.14s6.1-1,8.85,3.44,39.68,42,32.36,66.65H104.31Z"/><path id="Union_32" data-name="Union 32" class="cls-7" d="M196.35,145.64l-31.14-14.46-13.09-13.42-11.24-11.11-16-28.74,1.31-7L145,83.74l15.42-1.12-5.34-20L198,56.18a7.27,7.27,0,0,1,4.16.6l29.14,13.54c5,2.31,1.19,21.05-8.48,41.85S201.33,148,196.35,145.64Z"/><path id="Union_32-2" data-name="Union 32" class="cls-8" d="M115.86,144.82h-56L27,103.29,59.83,61.76l36.64-6.62c10.28,8.9,15.35,17.61,18.09,24,5.11,11.92,2.73,17.26,9.25,27.8,6.81,11,13.73,12.17,13.87,18.29C137.77,129.65,134.31,136.31,115.86,144.82Z"/><path id="Path_111" data-name="Path 111" class="cls-9" d="M27,103.29,59.83,61.76S71,72.57,71,103.29s-11.14,41.53-11.14,41.53Z"/><path id="Path_111-2" data-name="Path 111" class="cls-10" d="M27,103.29,59.83,61.76S71,72.57,71,103.29s-11.14,41.53-11.14,41.53Z"/><path id="Union_35" data-name="Union 35" class="cls-11" d="M36.1,122.47H16.92V84.11H36.1c2.49,0,4.52,8.59,4.52,19.18S38.59,122.47,36.1,122.47Z"/><ellipse id="Ellipse_229" data-name="Ellipse 229" class="cls-12" cx="16.92" cy="103.29" rx="4.51" ry="19.18"/><ellipse id="Ellipse_229-2" data-name="Ellipse 229" class="cls-13" cx="213.56" cy="108.13" rx="41.47" ry="22.12" transform="translate(17.75 245.83) rotate(-61.97)"/><ellipse id="Ellipse_229-3" data-name="Ellipse 229" class="cls-14" cx="213.56" cy="108.13" rx="37.43" ry="19.97" transform="translate(17.75 245.83) rotate(-61.97)"/></svg>