<svg id="Laag_1" data-name="Laag 1" xmlns="http://www.w3.org/2000/svg" xmlns:xlink="http://www.w3.org/1999/xlink" viewBox="0 0 1213.7 1215.41"><defs><style>.cls-1,.cls-32{fill:none;}.cls-2{fill:url(#Naamloos_verloop_14);}.cls-3{clip-path:url(#clip-path);}.cls-4{fill:url(#Naamloos_verloop_15);}.cls-5{fill:#a7c019;}.cls-6{fill:#e7c042;}.cls-7{fill:#cfd300;}.cls-8{fill:url(#Naamloos_verloop_16);}.cls-9{fill:url(#Naamloos_verloop_17);}.cls-10,.cls-42,.cls-54{fill:#fff;}.cls-11{fill:url(#Naamloos_verloop_18);}.cls-12{fill:url(#Naamloos_verloop_19);}.cls-13{fill:#aaaa30;}.cls-14{fill:#d5d900;}.cls-15{fill:url(#Naamloos_verloop_20);}.cls-16{fill:url(#Naamloos_verloop_21);}.cls-17{fill:url(#Naamloos_verloop_22);}.cls-18{fill:url(#Naamloos_verloop_23);}.cls-19{fill:url(#Naamloos_verloop_24);}.cls-20{fill:url(#Naamloos_verloop_25);}.cls-21{fill:url(#Naamloos_verloop_26);}.cls-22{fill:url(#Naamloos_verloop_27);}.cls-23{fill:url(#Naamloos_verloop_28);}.cls-24{fill:url(#Naamloos_verloop_29);}.cls-25{fill:url(#Naamloos_verloop_30);}.cls-26{fill:url(#Naamloos_verloop_31);}.cls-27{fill:url(#Naamloos_verloop_32);}.cls-28{fill:url(#Naamloos_verloop_33);}.cls-29{fill:url(#Naamloos_verloop_34);}.cls-30{fill:url(#Naamloos_verloop_35);}.cls-31{fill:url(#Naamloos_verloop_36);}.cls-32{stroke:#000050;stroke-miterlimit:10;stroke-width:7.81px;}.cls-33{fill:url(#Naamloos_verloop_37);}.cls-34,.cls-35,.cls-36,.cls-37,.cls-38,.cls-42,.cls-54{isolation:isolate;}.cls-35,.cls-36,.cls-37,.cls-38{font-size:34.52px;font-family:LEMONMILK-Regular, LEMON MILK;}.cls-36{letter-spacing:-0.04em;}.cls-37{letter-spacing:-0.02em;}.cls-38{letter-spacing:-0.03em;}.cls-39{letter-spacing:0em;}.cls-40{letter-spacing:0.01em;}.cls-41{letter-spacing:0em;}.cls-42{opacity:0.19;}.cls-43{fill:url(#Naamloos_verloop_38);}.cls-44{fill:url(#Naamloos_verloop_39);}.cls-45{fill:url(#Naamloos_verloop_40);}.cls-46{fill:url(#Naamloos_verloop_41);}.cls-47{fill:url(#Naamloos_verloop_42);}.cls-48{fill:url(#Naamloos_verloop_43);}.cls-49{fill:url(#Naamloos_verloop_44);}.cls-50{fill:url(#Naamloos_verloop_45);}.cls-51{fill:url(#Naamloos_verloop_46);}.cls-52{fill:url(#Naamloos_verloop_47);}.cls-53{fill:url(#Naamloos_verloop_48);}.cls-54{opacity:0.17;}.cls-55{fill:url(#Naamloos_verloop_49);}.cls-56{fill:url(#Naamloos_verloop_50);}.cls-57{fill:url(#Naamloos_verloop_51);}.cls-58{fill:url(#Naamloos_verloop_52);}.cls-59{fill:url(#Naamloos_verloop_53);}.cls-60{fill:url(#Naamloos_verloop_54);}.cls-61{fill:url(#Naamloos_verloop_55);}.cls-62{fill:url(#Naamloos_verloop_56);}</style><linearGradient id="Naamloos_verloop_14" x1="-68.93" y1="594.49" x2="518.5" y2="255.33" gradientTransform="matrix(1, 0, 0, -1, 0, 844)" gradientUnits="userSpaceOnUse"><stop offset="0" stop-color="#eef1f4"/><stop offset="1" stop-color="#add2d8"/></linearGradient><clipPath id="clip-path" transform="translate(178.35 394.4)"><rect class="cls-1" x="61.68" y="91.87" width="327.15" height="321.85"/></clipPath><linearGradient id="Naamloos_verloop_15" x1="423.98" y1="411.14" x2="423.98" y2="1238.4" gradientTransform="matrix(1, 0, 0, -1, 178.35, 1238.4)" gradientUnits="userSpaceOnUse"><stop offset="0" stop-color="#dcffff"/><stop offset="1" stop-color="#eeecf4"/></linearGradient><linearGradient id="Naamloos_verloop_16" x1="165.57" y1="590.2" x2="76.39" y2="590.2" gradientTransform="matrix(1, 0, 0, -1, 178.35, 1238.4)" gradientUnits="userSpaceOnUse"><stop offset="0" stop-color="#9f7d5f"/><stop offset="1" stop-color="#d4a77f"/></linearGradient><linearGradient id="Naamloos_verloop_17" x1="95.67" y1="803.63" x2="229.64" y2="669.64" gradientTransform="matrix(1, 0, 0, -1, 0, 844)" gradientUnits="userSpaceOnUse"><stop offset="0" stop-color="#9fb33c"/><stop offset="1" stop-color="#b8c500"/></linearGradient><linearGradient id="Naamloos_verloop_18" x1="73.35" y1="754.18" x2="73.35" y2="653.5" gradientTransform="matrix(1, 0, 0, -1, 0, 844)" gradientUnits="userSpaceOnUse"><stop offset="0" stop-color="#d5d900"/><stop offset="1" stop-color="#9fb33c"/></linearGradient><linearGradient id="Naamloos_verloop_19" x1="223.97" y1="707.22" x2="172.95" y2="618.84" xlink:href="#Naamloos_verloop_18"/><linearGradient id="Naamloos_verloop_20" x1="356.06" y1="717.14" x2="368.69" y2="717.14" gradientTransform="matrix(1, 0, 0, -1, 0, 844)" gradientUnits="userSpaceOnUse"><stop offset="0" stop-color="#9f7d5f"/><stop offset="1" stop-color="#6a544f"/></linearGradient><linearGradient id="Naamloos_verloop_21" x1="319.79" y1="740.09" x2="404.82" y2="740.09" xlink:href="#Naamloos_verloop_17"/><linearGradient id="Naamloos_verloop_22" x1="-143" y1="483.56" x2="10.3" y2="483.56" gradientTransform="matrix(1, 0, 0, -1, 0, 844)" xlink:href="#Naamloos_verloop_16"/><linearGradient id="Naamloos_verloop_23" x1="51.57" y1="541.76" x2="403.46" y2="541.76" gradientTransform="matrix(1, 0, 0, -1, 0, 844)" gradientUnits="userSpaceOnUse"><stop offset="0" stop-color="#00974c"/><stop offset="1" stop-color="#007a4c"/></linearGradient><linearGradient id="Naamloos_verloop_24" x1="314.81" y1="662.46" x2="346.54" y2="662.46" xlink:href="#Naamloos_verloop_20"/><linearGradient id="Naamloos_verloop_25" x1="311.58" y1="683.35" x2="349.78" y2="683.35" gradientTransform="matrix(1, 0, 0, -1, 178.35, 1238.4)" gradientUnits="userSpaceOnUse"><stop offset="0" stop-color="#e7c042"/><stop offset="1" stop-color="#aaaa30"/></linearGradient><linearGradient id="Naamloos_verloop_26" x1="305.21" y1="673.79" x2="324.31" y2="673.79" xlink:href="#Naamloos_verloop_25"/><linearGradient id="Naamloos_verloop_27" x1="337.04" y1="676.07" x2="364.34" y2="676.07" xlink:href="#Naamloos_verloop_25"/><linearGradient id="Naamloos_verloop_28" x1="53.55" y1="877.18" x2="-19.09" y2="877.18" gradientTransform="matrix(1, 0, 0, -1, 178.35, 1238.4)" xlink:href="#Naamloos_verloop_23"/><linearGradient id="Naamloos_verloop_29" x1="388.79" y1="638.22" x2="452.39" y2="638.22" xlink:href="#Naamloos_verloop_23"/><linearGradient id="Naamloos_verloop_30" x1="-119.09" y1="663.94" x2="62.26" y2="663.94" xlink:href="#Naamloos_verloop_17"/><linearGradient id="Naamloos_verloop_31" x1="361.59" y1="633.65" x2="416.07" y2="633.65" xlink:href="#Naamloos_verloop_23"/><linearGradient id="Naamloos_verloop_32" x1="343.43" y1="620.03" x2="379.75" y2="620.03" xlink:href="#Naamloos_verloop_23"/><linearGradient id="Naamloos_verloop_33" x1="369.66" y1="615.99" x2="396.9" y2="615.99" xlink:href="#Naamloos_verloop_23"/><linearGradient id="Naamloos_verloop_34" x1="387.81" y1="625.11" x2="433.24" y2="625.11" xlink:href="#Naamloos_verloop_23"/><linearGradient id="Naamloos_verloop_35" x1="424.14" y1="620.54" x2="460.46" y2="620.54" xlink:href="#Naamloos_verloop_23"/><linearGradient id="Naamloos_verloop_36" x1="11052.74" y1="515.38" x2="11262.48" y2="515.38" gradientTransform="translate(11469.67 844) rotate(180)" xlink:href="#Naamloos_verloop_23"/><radialGradient id="Naamloos_verloop_37" cx="220.25" cy="627.64" r="142.73" gradientTransform="matrix(1, 0, 0, -1.27, 178.35, 1453.06)" gradientUnits="userSpaceOnUse"><stop offset="0" stop-color="#000050"/><stop offset="0.25" stop-color="#003" stop-opacity="0.64"/><stop offset="0.54" stop-color="#000017" stop-opacity="0.29"/><stop offset="0.81" stop-color="#000006" stop-opacity="0.08"/><stop offset="1" stop-opacity="0"/></radialGradient><linearGradient id="Naamloos_verloop_38" x1="173.37" y1="645.81" x2="217.56" y2="645.81" gradientTransform="matrix(1, 0, 0, -1, 0, 844)" gradientUnits="userSpaceOnUse"><stop offset="0" stop-color="#798c96"/><stop offset="1" stop-color="#c9d2d8"/></linearGradient><linearGradient id="Naamloos_verloop_39" x1="176.32" y1="647.7" x2="201.35" y2="647.7" gradientTransform="matrix(1, 0, 0, -1, 0, 844)" gradientUnits="userSpaceOnUse"><stop offset="0" stop-color="#adbac1"/><stop offset="1" stop-color="#c9d2d8"/></linearGradient><linearGradient id="Naamloos_verloop_40" x1="264.54" y1="590.99" x2="173.34" y2="590.99" gradientTransform="matrix(1, 0, 0, -1, 0, 844)" gradientUnits="userSpaceOnUse"><stop offset="0" stop-color="#c9d2d7"/><stop offset="0.42" stop-color="#eef1f4"/><stop offset="1" stop-color="#c9d2d8"/></linearGradient><linearGradient id="Naamloos_verloop_41" x1="264.54" y1="581.67" x2="206.31" y2="581.67" xlink:href="#Naamloos_verloop_38"/><linearGradient id="Naamloos_verloop_42" x1="258.7" y1="583.16" x2="206.31" y2="583.16" xlink:href="#Naamloos_verloop_39"/><linearGradient id="Naamloos_verloop_43" x1="173.25" y1="546.82" x2="264.54" y2="546.82" gradientTransform="matrix(1, 0, 0, -1, 0, 844)" gradientUnits="userSpaceOnUse"><stop offset="0" stop-color="#f0f93d"/><stop offset="1" stop-color="#f1d431"/></linearGradient><linearGradient id="Naamloos_verloop_44" x1="206.09" y1="706.03" x2="231.7" y2="706.03" gradientTransform="matrix(1, 0, 0, -1, 178.35, 1238.4)" gradientUnits="userSpaceOnUse"><stop offset="0" stop-color="#d8d8d8"/><stop offset="1" stop-color="#c9d2d8"/></linearGradient><linearGradient id="Naamloos_verloop_45" x1="419.23" y1="288.72" x2="388.6" y2="288.72" gradientTransform="matrix(0, 1, 1, 0, -69.84, -270.69)" gradientUnits="userSpaceOnUse"><stop offset="0" stop-color="#ecc35c"/><stop offset="1" stop-color="#f1d431"/></linearGradient><linearGradient id="Naamloos_verloop_46" x1="173.26" y1="581.94" x2="264.54" y2="581.94" xlink:href="#Naamloos_verloop_43"/><linearGradient id="Naamloos_verloop_47" x1="264.54" y1="579.69" x2="252.12" y2="579.69" gradientTransform="matrix(1, 0, 0, -1, 0, 844)" gradientUnits="userSpaceOnUse"><stop offset="0" stop-color="#ecc35c"/><stop offset="1" stop-color="#f1bd31"/></linearGradient><linearGradient id="Naamloos_verloop_48" x1="258.69" y1="576.62" x2="236.79" y2="576.62" gradientTransform="matrix(1, 0, 0, -1, 0, 844)" xlink:href="#Naamloos_verloop_45"/><linearGradient id="Naamloos_verloop_49" x1="388.6" y1="300.45" x2="419.22" y2="300.45" gradientTransform="matrix(0, 1, 1, 0, -80.21, -282.33)" xlink:href="#Naamloos_verloop_43"/><linearGradient id="Naamloos_verloop_50" x1="420.52" y1="278.37" x2="389.9" y2="278.37" gradientTransform="matrix(0, 1, 1, 0, -59.56, -257.82)" xlink:href="#Naamloos_verloop_45"/><linearGradient id="Naamloos_verloop_51" x1="205.15" y1="469.34" x2="205.15" y2="481.65" xlink:href="#Naamloos_verloop_38"/><linearGradient id="Naamloos_verloop_52" x1="7702.02" y1="469.34" x2="7702.02" y2="481.65" gradientTransform="translate(7934.52 844) rotate(180)" xlink:href="#Naamloos_verloop_38"/><linearGradient id="Naamloos_verloop_53" x1="180.59" y1="469.56" x2="180.59" y2="483.49" xlink:href="#Naamloos_verloop_38"/><linearGradient id="Naamloos_verloop_54" x1="7729.07" y1="469.48" x2="7729.07" y2="483.41" gradientTransform="translate(7986.19 844) rotate(180)" xlink:href="#Naamloos_verloop_38"/><linearGradient id="Naamloos_verloop_55" x1="2269.21" y1="-1723.56" x2="2283.1" y2="-1723.56" gradientTransform="matrix(0.71, 0.71, 0.71, -0.71, -187.92, -2496.28)" xlink:href="#Naamloos_verloop_38"/><linearGradient id="Naamloos_verloop_56" x1="2263.34" y1="-1723.57" x2="2291.15" y2="-1723.57" gradientTransform="matrix(0.71, 0.71, 0.71, -0.71, -187.92, -2496.28)" xlink:href="#Naamloos_verloop_39"/></defs><title>telefoon-32</title><rect x="198.72" y="411.55" width="408.82" height="803.86" rx="37.64" ry="37.64"/><path class="cls-2" d="M411.38,72.59v693c0,15.31-10.44,27.73-23.32,27.73H61.51c-12.88,0-23.33-12.42-23.33-27.73v-693c0-15.31,10.45-27.73,23.33-27.73H388.06C400.94,44.86,411.38,57.28,411.38,72.59Z" transform="translate(178.35 394.4)"/><g class="cls-3"><rect class="cls-4" x="0.05" width="1204.57" height="827.26"/><path class="cls-5" d="M-178.35,75.72H82.3s89.93,5.59,146.85,55.08a351.75,351.75,0,0,0,38.31,28.65L305,184c47,30.75,106.07,52.71,170.93,62.34,23.13,3.43,47.45,5.41,71.06,4.53,39.23-1.46,78.56-1.62,117.85-1.44l356.34,1.65v130l-1197.4-1.39Z" transform="translate(178.35 394.4)"/><path class="cls-6" d="M-178.23,105.54S13.6,103.72,22.85,104c14.26.43,40.72.79,74.29,44,61.12,78.66,136.21,119.28,212.79,119.28H623c39.84,0,78.73-23.62,108.61-68.57,3.82-5.75,7.51-11.85,11-18.31C763.85,140.62,794,118,825.53,118h200.74V321H-175.38Z" transform="translate(178.35 394.4)"/><path class="cls-7" d="M1022.69,183.48V432.72H-177.85V62.8c3.47,2.27,7,4.51,10.51,6.72h0A754.12,754.12,0,0,0-8.74,144.83a775.2,775.2,0,0,0,79.52,22.38q11,2.47,22.17,4.65l1.08.21c15.82,3.06,31.91,5.67,48.12,7.7l1.55.19h0q20.21,2.5,40.6,3.68c15.05.85,30.11,1.1,45,.64,2.65-.08,5.29-.18,7.94-.31,40-1.94,80-3,120.06-3.51,3.39-.05,6.78-.1,10.17-.13l10.17-.11,14.23-.1q31.23-.18,62.45,0h21.93l80.37.49h2.93l9.26.05h0l22.63.14,33.07.19,68.37.41,69,.42Z" transform="translate(178.35 394.4)"/><polygon class="cls-8" points="304.27 626.94 285 652.89 291.05 721.19 254.74 721.19 261.81 645.88 261.5 645.65 288.99 608.61 261.98 581.59 266.97 576.6 293.25 602.88 313.78 575.21 332.42 589.04 312 616.53 341.46 605.58 343.92 612.19 304.27 626.94"/><path class="cls-9" d="M258,106.86a4.17,4.17,0,0,1,0,.5,4.33,4.33,0,0,1,0,.51c-.54,51.9-43,93.82-95.33,93.82s-94.79-41.92-95.32-93.82a2.17,2.17,0,0,1,0-.51,2.09,2.09,0,0,1,0-.5C67.85,55,110.33,13,162.64,13S257.43,55,258,106.86Z" transform="translate(178.35 394.4)"/><path class="cls-10" d="M67.3,106.86h0a2.09,2.09,0,0,0,0,.5A4.18,4.18,0,0,1,67.3,106.86Z" transform="translate(178.35 394.4)"/><path class="cls-10" d="M67.3,107.87a4.43,4.43,0,0,1,0-.51A2.17,2.17,0,0,0,67.3,107.87Z" transform="translate(178.35 394.4)"/><path class="cls-10" d="M121.78,138.13v2a13.34,13.34,0,0,0-.1-2Z" transform="translate(178.35 394.4)"/><path class="cls-11" d="M121.74,140.15a13.27,13.27,0,0,1-.1,2c-1.9,27.05-22.79,48.35-48.28,48.35S27,169.22,25.07,142.17c0-.68-.08-1.34-.1-2a19.13,19.13,0,0,1,.1-2c1.91-27,22.79-48.35,48.29-48.35s46.38,21.31,48.28,48.35C121.69,138.81,121.72,139.48,121.74,140.15Z" transform="translate(178.35 394.4)"/><path class="cls-10" d="M121.78,142.17h-.14c0-.68.08-1.34.1-2C121.77,140.82,121.78,141.49,121.78,142.17Z" transform="translate(178.35 394.4)"/><path class="cls-10" d="M150,180.51h0v0Z" transform="translate(178.35 394.4)"/><path class="cls-12" d="M246.87,180.51v.93c-.46,28.5-22,51.46-48.41,51.46s-48-23-48.42-51.46v-.93C150.51,152,172,129,198.46,129S246.41,152,246.87,180.51Z" transform="translate(178.35 394.4)"/><path class="cls-10" d="M150,181.44v0Z" transform="translate(178.35 394.4)"/><path class="cls-13" d="M1035.35,192.43v10.89h-3.84v229.4H-177.85V379.51H389.89q11.61,0,23.16-.81,14.16-1,28.14-3.21,12.81-2,25.41-5c2.71-.65,5.42-1.33,8.11-2.06q13.32-3.56,26.3-8.25,2.78-1,5.54-2.06c6.61-2.54,13.16-5.29,19.6-8.26a317,317,0,0,0,35.93-19.41A319.5,319.5,0,0,0,597.16,305q6.57-5.5,12.92-11.39c1.64-1.53,3.28-3.09,4.89-4.66,6-5.82,11.82-11.92,17.34-18.29A234.86,234.86,0,0,1,655,247.8h0a226.11,226.11,0,0,1,44.28-30.36A219.66,219.66,0,0,1,726,205.64a216.93,216.93,0,0,1,74.49-13.21Z" transform="translate(178.35 394.4)"/><rect class="cls-14" x="0.5" y="803.56" width="1213.2" height="23.56"/><path class="cls-15" d="M361.39,52.81l-5.33,146.42a1.63,1.63,0,0,0,1.58,1.68h9.44a1.62,1.62,0,0,0,1.61-1.63v0L364.54,52.81Z" transform="translate(178.35 394.4)"/><path class="cls-16" d="M361,46.76a1.61,1.61,0,0,1,3,0l20.18,55.59,20.49,56.41a2.48,2.48,0,0,1-2.33,3.33H321.39a1.61,1.61,0,0,1-1.51-2.15l20.91-57.59Z" transform="translate(178.35 394.4)"/><path class="cls-17" d="M10.3,368.66a21.18,21.18,0,0,1-21.18,21.18h-111A21.18,21.18,0,0,1-143,368.66a21.18,21.18,0,0,1,21.17-21.19H-40.5l-8.69-9.3a2.81,2.81,0,0,1,.11-4l0,0,2.53-2.36a2.8,2.8,0,0,1,4,.11l0,0L-28,347.45h17.19A21.18,21.18,0,0,1,10.3,368.66Z" transform="translate(178.35 394.4)"/><path class="cls-18" d="M386.55,328.64a17.65,17.65,0,0,1,.39,3.85c0,5.94-2.75,11.49-7.65,16.49H61.63c-6.27-5.22-10.06-11.93-10.06-19.24,0-16.71,19.68-30.24,44-30.24a61.55,61.55,0,0,1,15.5,2c10.84-20.39,40.41-35,75.21-35a117.21,117.21,0,0,1,30.74,4c7.58-9,21.77-15,38-15,15.72,0,29.47,5.66,37.22,14.13a154,154,0,0,1,31.5-3.13c44,0,79.72,17.21,79.72,38.48C403.43,314,397.16,322.16,386.55,328.64Z" transform="translate(178.35 394.4)"/><path class="cls-19" d="M334.14,189l.45,4a1.14,1.14,0,0,1-1,1.26h-6.14a1.14,1.14,0,0,1-1.13-1.31l.58-4.06a1.16,1.16,0,0,0-.7-1.23c-9.31-3.67-11.08-9.3-11.38-11.81a1.14,1.14,0,0,1,1-1.28h.61a1.14,1.14,0,0,1,1.06.71c2.32,5.86,6.4,7.82,8.87,8.47a1.14,1.14,0,0,0,1.43-.94l1.86-13a1.14,1.14,0,0,1,1.13-1h.11a1.14,1.14,0,0,1,1.14,1l1.45,13a1.15,1.15,0,0,0,1.26,1l.15,0c2.45-.62,6.66-2.53,9-8.51a1.14,1.14,0,0,1,1.06-.72h.46a1.15,1.15,0,0,1,1.14,1.29c-.31,2.54-2.12,8.26-11.68,11.93A1.15,1.15,0,0,0,334.14,189Z" transform="translate(178.35 394.4)"/><circle class="cls-20" cx="509.03" cy="555.05" r="19.1"/><circle class="cls-21" cx="493.11" cy="564.61" r="9.55"/><circle class="cls-22" cx="529.04" cy="562.33" r="13.65"/><ellipse class="cls-23" cx="195.58" cy="361.22" rx="36.32" ry="40.86"/><path class="cls-24" d="M452.39,206.31a32.61,32.61,0,0,1-.61,6.21,31.82,31.82,0,0,1-23.08,24.53H412.59a31.11,31.11,0,0,1-8.58-3.64,31.78,31.78,0,1,1,48.34-27.13Z" transform="translate(178.35 394.4)"/><path class="cls-25" d="M-119.09,197.79c8.72-20.63,32.34-35.46,60.14-35.46,22.91,0,43,10.07,54.19,25.18a72.75,72.75,0,0,1,23.83-3.9c16.66,0,31.84,5.32,43.19,14.18Z" transform="translate(178.35 394.4)"/><path class="cls-26" d="M416.07,210.85a27.21,27.21,0,0,1-12,22.59,26.6,26.6,0,0,1-7.88,3.64H381.48a23.58,23.58,0,0,1-3.13-1.08,27.24,27.24,0,0,1,10.48-52.39,27.63,27.63,0,0,1,8.28,1.28,27.3,27.3,0,0,1,17.14,16.19A26.8,26.8,0,0,1,416.07,210.85Z" transform="translate(178.35 394.4)"/><path class="cls-27" d="M379.75,229a18.13,18.13,0,0,1-1.4,7c-.16.37-.32.73-.5,1.08H345.33a17.9,17.9,0,0,1-1.9-8.07,18.16,18.16,0,1,1,36.32,0Z" transform="translate(178.35 394.4)"/><path class="cls-28" d="M396.9,232.54a13.32,13.32,0,0,1-.78,4.54H370.44a13.32,13.32,0,0,1-.78-4.54,13.18,13.18,0,0,1,.18-2.18,13.62,13.62,0,0,1,27.06,2.18Z" transform="translate(178.35 394.4)"/><path class="cls-29" d="M433.22,223.46a22.59,22.59,0,0,1-4.52,13.59H392.35a22.55,22.55,0,0,1-4.54-13.62,23.15,23.15,0,0,1,.29-3.65,22.33,22.33,0,0,1,1.7-5.64,22.67,22.67,0,0,1,20.71-13.41,20.87,20.87,0,0,1,3.73.32,22.69,22.69,0,0,1,19,22.38Z" transform="translate(178.35 394.4)"/><path class="cls-30" d="M460.46,228a17.93,17.93,0,0,1-2.45,9.08H426.58A18.16,18.16,0,1,1,460.46,228Z" transform="translate(178.35 394.4)"/><path class="cls-31" d="M416.93,349.12c-10.09-23.87-37.41-41-69.56-41-26.5,0-49.71,11.65-62.67,29.12a84.14,84.14,0,0,0-27.56-4.51c-19.27,0-36.83,6.15-49.95,16.4Z" transform="translate(178.35 394.4)"/></g><rect class="cls-32" x="239.56" y="486.5" width="327.15" height="321.85"/><ellipse class="cls-33" cx="398.6" cy="655.2" rx="119.76" ry="205.6"/><g class="cls-34"><text class="cls-35" transform="translate(240.76 891.32)">52.49</text><text class="cls-36" transform="translate(337.49 891.32)">7</text><text class="cls-35" transform="translate(354.88 891.32)">041986</text><text class="cls-35" transform="translate(240.76 932.74)">4.9541952389</text><text class="cls-35" transform="translate(240.76 974.16)">B</text><text class="cls-36" transform="translate(261.98 974.16)">o</text><text class="cls-35" transform="translate(289.2 974.16)">ttle</text><text class="cls-35" transform="translate(240.76 1015.59)">pl</text><text class="cls-37" transform="translate(281.21 1015.59)">a</text><text class="cls-35" transform="translate(306.26 1015.59)">stic</text><text class="cls-35" transform="translate(240.76 1057.01)">frisdrank</text><text class="cls-38" transform="translate(240.76 1098.43)">C<tspan class="cls-39" x="24.39" y="0">oca </tspan><tspan x="117.36" y="0">C</tspan><tspan class="cls-39" x="141.75" y="0">o</tspan><tspan class="cls-40" x="172.47" y="0">l</tspan><tspan class="cls-41" x="192.47" y="0">a</tspan></text><text class="cls-35" transform="translate(240.76 1139.85)">pl</text><text class="cls-37" transform="translate(281.21 1139.85)">a</text><text class="cls-35" transform="translate(306.26 1139.85)">stic fles</text></g><polygon class="cls-42" points="350.57 439.26 216.53 817.49 216.53 710.87 312.79 439.26 350.57 439.26"/><path class="cls-43" d="M193.18,171.28s-5.12,4.56-2.41,7.82S178.3,213.3,176.32,216s-5.51,9.31,0,9.1,41.24-10,41.24-10Z" transform="translate(178.35 394.4)"/><path class="cls-44" d="M193.18,171.28s2.92,10.26-2.85,19-12.93,18-9.78,21.5-3.15,13.28-4.2,13.28,25-1.22,25-1.22l-.71-56.29Z" transform="translate(178.35 394.4)"/><path class="cls-45" d="M264.54,222.21v134a12.3,12.3,0,0,1-3.32,8.62l-7.39,7.46a7.83,7.83,0,0,1-11.06.47q-.28-.26-.54-.54l-4-4.17c-3.75-3.84-9.28-3.38-12.57,1a8.35,8.35,0,0,1-6.71,3.65h0a8.37,8.37,0,0,1-6.69-3.65,8.41,8.41,0,0,0-6.73-3.64,8.11,8.11,0,0,0-5.83,2.6l-4.05,4.17a8.56,8.56,0,0,1-4.06,2.39,7.53,7.53,0,0,1-4.28-.22,8.59,8.59,0,0,1-3.26-2.1l-7.4-7.46a11.36,11.36,0,0,1-2.62-4.37,13.28,13.28,0,0,1-.69-4.25V223.5a12.38,12.38,0,0,1,5.39-.79c5.4.51,9.57-8.82,9.57-8.82s-8.34-.25,1.47-11.28,3.49-31.33,3.49-31.33c4.1-5.93,7.91-10.66,10.36-13.56a12.45,12.45,0,0,0,2.77-8v-7.36c0-6.16,4.07-11.16,9.09-11.16h7c5,0,9.08,5,9.08,11.16v7.36a12.45,12.45,0,0,0,2.78,8C242.22,167.14,264.54,195.92,264.54,222.21Z" transform="translate(178.35 394.4)"/><path class="cls-46" d="M256.7,249.66c-4.47,44.9-6.61,100.17-25.07,115.88h0a8,8,0,0,1,6.54,2.56l4.06,4.18a7.83,7.83,0,0,0,11.06.6q.28-.26.54-.54l7.39-7.45a12.32,12.32,0,0,0,3.32-8.63v-134c0-26.29-22.33-55.06-30.28-64.48a12.55,12.55,0,0,1-2.77-8H206.31S261.17,204.76,256.7,249.66Z" transform="translate(178.35 394.4)"/><path class="cls-47" d="M244.61,248.8c-1.08,35.84-15.62,89.6-22.34,112.74-2.05,7-3.37,11.26-3.37,11.26h1a8.61,8.61,0,0,0,5.69-3.57h0c2.62-3.55,6.7-4.54,10.13-2.83,6.78-5,13.8-13.72,17.32-29.2,8-35.22,11.47-140-17.65-167.41s-29.11-20-29.11-20S246,202,244.61,248.8Z" transform="translate(178.35 394.4)"/><path class="cls-1" d="M256.53,230.53l-1,.26" transform="translate(178.35 394.4)"/><path class="cls-48" d="M264.54,297.18a1.43,1.43,0,0,1-.21.73c-1,1.74-5.39,3.3-12.08,4.5-8.32,1.49-20.19,2.42-33.35,2.42-25.21,0-45.65-3.42-45.65-7.65s20.44-7.65,45.65-7.65a200.78,200.78,0,0,1,33.84,2.52C260.07,293.41,264.54,295.21,264.54,297.18Z" transform="translate(178.35 394.4)"/><rect class="cls-49" x="384.44" y="520.64" width="25.61" height="23.46"/><rect class="cls-50" x="207.16" y="117.91" width="23.46" height="30.63" transform="translate(239.63 729.67) rotate(-83.37)"/><path class="cls-51" d="M255.48,230.79a109.07,109.07,0,0,1-11.89,1.85,234.35,234.35,0,0,1-24.69,1.22c-25,0-45.32-3.38-45.64-7.55v71.6h91.28v-71.7c0,1.61-3,3.09-8,4.32Z" transform="translate(178.35 394.4)"/><path class="cls-52" d="M264.54,226.21v71.7h-.21c-1,1.74-5.39,3.3-12.08,4.5h-.13c.22-1.94.43-8.39.62-10.35,1.46-14.16,2.6-28.76,4-42.4a62.61,62.61,0,0,0-1.22-18.86l1-.26C261.58,229.3,264.54,227.82,264.54,226.21Z" transform="translate(178.35 394.4)"/><path class="cls-53" d="M256.53,230.53a397.79,397.79,0,0,1,1.62,62.75c-.07,1.56-.37,6.42-.46,7.94-2.64.63-5.46,1.2-8.46,1.68a115.81,115.81,0,0,1-12.44,1.33c.68-3.21,1.67-8,2.75-13.87,2.72-14.66,4.69-29.19,5.07-41.57a92.61,92.61,0,0,0-1-16.15,109.07,109.07,0,0,0,11.89-1.85Z" transform="translate(178.35 394.4)"/><path class="cls-54" d="M206.31,157.82s-32,107.54-19.05,166.51c0,0,38.76-28,28-50C194.76,232.75,206.31,157.82,206.31,157.82Z" transform="translate(178.35 394.4)"/><path class="cls-54" d="M209.24,123.71s-5.15,8.69-1.53,13.2-.7-4.22,7.49-5.82,20.27-7.74,11.57-5.34C221.7,127.15,209.24,123.71,209.24,123.71Z" transform="translate(178.35 394.4)"/><ellipse class="cls-55" cx="220.25" cy="121.58" rx="2.52" ry="15.31" transform="translate(252.4 720.72) rotate(-83.37)"/><ellipse class="cls-56" cx="218.05" cy="146.27" rx="2.51" ry="15.27" transform="translate(224.95 739.53) rotate(-83.09)"/><path class="cls-57" d="M218.87,372.79a8.37,8.37,0,0,1-6.69-3.65,8.41,8.41,0,0,0-6.72-3.64,8.08,8.08,0,0,0-5.83,2.6l-4.06,4.17a8.56,8.56,0,0,1-4.06,2.39,8.62,8.62,0,0,1-.07-1.14c0-6.17,6.14-11.17,13.73-11.17C212.44,362.35,218.41,367,218.87,372.79Z" transform="translate(178.35 394.4)"/><path class="cls-58" d="M218.78,372.79a8.38,8.38,0,0,0,6.7-3.65,8.41,8.41,0,0,1,6.72-3.64,8.08,8.08,0,0,1,5.83,2.6l4.06,4.17a8.56,8.56,0,0,0,4.06,2.39,8.62,8.62,0,0,0,.07-1.14c0-6.17-6.14-11.17-13.73-11.17C225.21,362.35,219.25,367,218.78,372.79Z" transform="translate(178.35 394.4)"/><path class="cls-59" d="M187.23,374.44a8.59,8.59,0,0,1-3.26-2.1l-7.39-7.46a11.25,11.25,0,0,1-2.63-4.37A14.85,14.85,0,0,1,184.26,367,16.67,16.67,0,0,1,187.23,374.44Z" transform="translate(178.35 394.4)"/><path class="cls-60" d="M250.48,374.52a8.59,8.59,0,0,0,3.26-2.1l7.4-7.46a11.23,11.23,0,0,0,2.62-4.37,14.87,14.87,0,0,0-10.31,6.48A16.79,16.79,0,0,0,250.48,374.52Z" transform="translate(178.35 394.4)"/><path class="cls-61" d="M208,319.74s-3.4,5.55-1.65,7.14,7.47-1.32,7.47-1.32l3-4.46s-2.05,10.11-5.7,12.16-16.54,8.13-19.72,12.08c0,0,5.15-11.48,3.34-13.91s7.15-3.25,7.15-3.25,2.33-5.49,4.21-7Z" transform="translate(178.35 394.4)"/><path class="cls-62" d="M216.81,321.1s-10.59,11.08-12,7.3,3.17-8.66,3.17-8.66-8.43,2.61-8.37,6.61-7.81-1.5-7.81-1.5-3.54,9.07,2,9.91-2.43,10.58-2.43,10.58,12.2-5.52,12.28-3.26c.38,11,19.21-9,19.21-9s-16.44,1.3-12.9-1.07S216.81,321.1,216.81,321.1Z" transform="translate(178.35 394.4)"/><polygon class="cls-42" points="466.26 439.26 216.53 1143.9 216.53 932.71 391.4 439.26 466.26 439.26"/><path d="M393.6,524.29c0,4-11.85,7.22-26.46,7.22s-26.47-3.23-26.47-7.22c0-3.63,9.77-6.62,22.5-7.14l4,8,4-8C383.84,517.67,393.6,520.66,393.6,524.29Z" transform="translate(178.35 394.4)"/><path d="M367.13,475.25A14.7,14.7,0,0,0,352.44,490v0a15.43,15.43,0,0,0,.26,2.74h0a13.16,13.16,0,0,0,.56,2.07l.06.23h0l.15.36c.09.21.17.41.27.61l.13.32,0,.09,13.2,26.45,13.23-26.54.15-.34a14.67,14.67,0,0,0-13.39-20.73Zm.07,21.32a5.8,5.8,0,1,1,5.79-5.81v0a5.79,5.79,0,0,1-5.79,5.79Z" transform="translate(178.35 394.4)"/><path d="M381.12,688.28c-.14-.82-.31-1.65-.52-2.46l-.12-.47-.3-1c-.15-.52-.31-1-.49-1.55s-.36-1-.55-1.51c-.11-.3-.23-.59-.35-.88l-.18-.44-.36-.86c-.5-1.14-1-2.23-1.55-3.26l-.4-.76c-.07-.13-.14-.25-.2-.38l-.4-.72a10.17,10.17,0,0,0-.59-1,5.57,5.57,0,0,1-.38-.66c-.12-.22-.26-.42-.38-.63l-.54-.88-.35-.54c-.57-.89-1.06-1.62-1.45-2.18a5.33,5.33,0,0,1-.87-3h.9v-1.27c.6-.15,1-.33,1-.52v-8.86c0-.53-2.59-1-5.79-1s-5.78.43-5.78,1v8.86c0,.19.35.37.94.52V665h.9a5.4,5.4,0,0,1-.86,3c-2.49,3.56-9.48,14.43-9.48,24.36v28.33h0V743a6,6,0,0,0,.22,1.6,4.13,4.13,0,0,0,1.08,1.65l2.79,2.58a2.18,2.18,0,0,0,1.07.59,2.31,2.31,0,0,0,.46,0h.07a2.1,2.1,0,0,0,1.45-.62h0l.29-.36.81-1a2.36,2.36,0,0,1,1.82-1,2.54,2.54,0,0,1,2.11,1.37,2.57,2.57,0,0,0,.22.32h0a1.59,1.59,0,0,0,.2.24h0l.2.19h.07l.19.14.09,0,.18.1h.09l.19.07h1l.26-.07H368l.14-.07.12-.07.12-.08.14-.1.1-.08.15-.14.08-.08A2.11,2.11,0,0,0,369,748h0c.07-.1.14-.2.21-.32h0l.15-.22h0l.13-.16.06-.08.13-.13.08-.08.12-.11.1-.08.11-.09.21-.13h.07l.17-.07h.07l.18-.06h0l.24,0h.57l.23.06h.16l.11,0,.15.08a2.77,2.77,0,0,1,.78.69l.75.93h0a1.91,1.91,0,0,0,.33.42h0a2.1,2.1,0,0,0,1,.53h.53a2.1,2.1,0,0,0,1.45-.62h0l2.77-2.55a4.23,4.23,0,0,0,1.11-1.64l.09-.4a5.67,5.67,0,0,0,.13-1.24V692.38A24.88,24.88,0,0,0,381.12,688.28Z" transform="translate(178.35 394.4)"/><polygon points="537.19 1006.21 528.53 966.94 555.71 964.92 570.94 988.08 561.75 1008.18 539.82 1009.9 537.19 1006.21"/><polygon points="534.69 964.92 533.01 975.66 524.41 979.96 532.09 990.4 520.76 996.54 530.42 995.06 528.56 997.31 530.42 1005.87 536.24 995.31 544.89 1009.9 557.42 1007.6 562.18 1001.15 565.72 997.31 558.5 998.69 568.94 988.08 562.49 990.25 563.41 983.34 570.94 974.43 563.11 976.58 563.87 964.92 555.74 970.9 550.82 967.21 543.65 967.53 539.61 970.44 534.69 964.92"/><polygon points="541.53 962.29 534.69 964.92 532.56 977.94 522.83 975.05 522.83 981.9 520.76 983.67 532.56 988.08 520.76 994.92 517.03 999.77 524.98 997.56 532.56 1002.64 545.62 1000.43 547.41 1014.77 552.81 1016.53 555.25 1004.37 570.28 996.46 567.05 992.93 560.49 990.95 566 985.87 552.81 984.99 569.03 970.21 560.05 965.8 547.41 976.83 541.53 962.29"/><polygon points="522.83 975.05 532.56 970.57 541.5 975.05 541.53 962.29 545.96 966.08 552.81 975.05 562.84 971.95 574.07 980.92 560.08 980.92 558.36 989.19 569.03 986.78 560.42 997.82 569.51 1001.27 555.25 1004.37 554.22 1013.88 544.89 1009.9 541.53 998.16 530.42 1005.87 530.42 995.06 520.76 988.08 530.42 986.43 522.83 975.05"/><polygon points="536.11 972.35 545.85 985.07 542.62 977.94 543.65 974.14 541.5 975.05 536.11 972.35"/><polygon points="532.84 979.89 538.88 988.81 538.15 1000.51 541.53 998.16 540.03 995.28 541.53 990.2 532.84 979.89"/><polygon points="560.08 980.92 557.39 983.51 552.81 984.99 552.64 987.41 554.06 985.56 556.83 986.13 559.14 985.41 560.08 980.92"/><polygon points="548 990.2 548.68 994.37 549.09 997.51 549.09 1011.69 547.81 1011.15 548 990.2"/><polygon points="544.89 1009.9 548 990.2 548 995.33 549.09 997.51 547.81 1011.15 544.89 1009.9"/></svg>