<svg id="Laag_1" data-name="Laag 1" xmlns="http://www.w3.org/2000/svg" xmlns:xlink="http://www.w3.org/1999/xlink" viewBox="0 0 1213.7 1215.41"><defs><style>.cls-1,.cls-32{fill:none;}.cls-2{fill:url(#Naamloos_verloop);}.cls-3{clip-path:url(#clip-path);}.cls-4{fill:url(#Naamloos_verloop_2);}.cls-5{fill:#a7c019;}.cls-6{fill:#e7c042;}.cls-7{fill:#cfd300;}.cls-8{fill:url(#Naamloos_verloop_3);}.cls-9{fill:url(#Naamloos_verloop_4);}.cls-10,.cls-35,.cls-47{fill:#fff;}.cls-11{fill:url(#Naamloos_verloop_5);}.cls-12{fill:url(#Naamloos_verloop_6);}.cls-13{fill:#aaaa30;}.cls-14{fill:#d5d900;}.cls-15{fill:url(#Naamloos_verloop_7);}.cls-16{fill:url(#Naamloos_verloop_8);}.cls-17{fill:url(#Naamloos_verloop_9);}.cls-18{fill:url(#Naamloos_verloop_10);}.cls-19{fill:url(#Naamloos_verloop_11);}.cls-20{fill:url(#Naamloos_verloop_12);}.cls-21{fill:url(#Naamloos_verloop_13);}.cls-22{fill:url(#Naamloos_verloop_14);}.cls-23{fill:url(#Naamloos_verloop_15);}.cls-24{fill:url(#Naamloos_verloop_16);}.cls-25{fill:url(#Naamloos_verloop_17);}.cls-26{fill:url(#Naamloos_verloop_18);}.cls-27{fill:url(#Naamloos_verloop_19);}.cls-28{fill:url(#Naamloos_verloop_20);}.cls-29{fill:url(#Naamloos_verloop_21);}.cls-30{fill:url(#Naamloos_verloop_22);}.cls-31{fill:url(#Naamloos_verloop_23);}.cls-32{stroke:#000050;stroke-miterlimit:10;stroke-width:7.81px;}.cls-33{fill:url(#Naamloos_verloop_24);}.cls-34,.cls-35,.cls-47{isolation:isolate;}.cls-35{opacity:0.19;}.cls-36{fill:url(#Naamloos_verloop_25);}.cls-37{fill:url(#Naamloos_verloop_26);}.cls-38{fill:url(#Naamloos_verloop_27);}.cls-39{fill:url(#Naamloos_verloop_28);}.cls-40{fill:url(#Naamloos_verloop_29);}.cls-41{fill:url(#Naamloos_verloop_30);}.cls-42{fill:url(#Naamloos_verloop_31);}.cls-43{fill:url(#Naamloos_verloop_32);}.cls-44{fill:url(#Naamloos_verloop_33);}.cls-45{fill:url(#Naamloos_verloop_34);}.cls-46{fill:url(#Naamloos_verloop_35);}.cls-47{opacity:0.17;}.cls-48{fill:url(#Naamloos_verloop_36);}.cls-49{fill:url(#Naamloos_verloop_37);}.cls-50{fill:url(#Naamloos_verloop_38);}.cls-51{fill:url(#Naamloos_verloop_39);}.cls-52{fill:url(#Naamloos_verloop_40);}.cls-53{fill:url(#Naamloos_verloop_41);}.cls-54{fill:url(#Naamloos_verloop_42);}.cls-55{fill:url(#Naamloos_verloop_43);}</style><linearGradient id="Naamloos_verloop" x1="-68.93" y1="485.51" x2="518.5" y2="824.67" gradientTransform="translate(178.35 158.4)" gradientUnits="userSpaceOnUse"><stop offset="0" stop-color="#eef1f4"/><stop offset="1" stop-color="#add2d8"/></linearGradient><clipPath id="clip-path"><rect class="cls-1" x="240.03" y="486.27" width="327.15" height="321.85"/></clipPath><linearGradient id="Naamloos_verloop_2" x1="423.98" y1="668.86" x2="423.98" y2="-158.4" gradientTransform="translate(178.35 158.4)" gradientUnits="userSpaceOnUse"><stop offset="0" stop-color="#dcffff"/><stop offset="1" stop-color="#eeecf4"/></linearGradient><linearGradient id="Naamloos_verloop_3" x1="165.57" y1="489.8" x2="76.39" y2="489.8" gradientTransform="translate(178.35 158.4)" gradientUnits="userSpaceOnUse"><stop offset="0" stop-color="#9f7d5f"/><stop offset="1" stop-color="#d4a77f"/></linearGradient><linearGradient id="Naamloos_verloop_4" x1="95.67" y1="276.37" x2="229.64" y2="410.36" gradientTransform="translate(178.35 158.4)" gradientUnits="userSpaceOnUse"><stop offset="0" stop-color="#9fb33c"/><stop offset="1" stop-color="#b8c500"/></linearGradient><linearGradient id="Naamloos_verloop_5" x1="73.36" y1="325.82" x2="73.36" y2="426.5" gradientTransform="translate(178.35 158.4)" gradientUnits="userSpaceOnUse"><stop offset="0" stop-color="#d5d900"/><stop offset="1" stop-color="#9fb33c"/></linearGradient><linearGradient id="Naamloos_verloop_6" x1="223.98" y1="372.74" x2="172.94" y2="461.16" xlink:href="#Naamloos_verloop_5"/><linearGradient id="Naamloos_verloop_7" x1="356.06" y1="362.86" x2="368.69" y2="362.86" gradientTransform="translate(178.35 158.4)" gradientUnits="userSpaceOnUse"><stop offset="0" stop-color="#9f7d5f"/><stop offset="1" stop-color="#6a544f"/></linearGradient><linearGradient id="Naamloos_verloop_8" x1="319.79" y1="339.91" x2="404.82" y2="339.91" xlink:href="#Naamloos_verloop_4"/><linearGradient id="Naamloos_verloop_9" x1="-143" y1="596.43" x2="10.3" y2="596.43" xlink:href="#Naamloos_verloop_3"/><linearGradient id="Naamloos_verloop_10" x1="51.57" y1="538.24" x2="403.46" y2="538.24" gradientTransform="translate(178.35 158.4)" gradientUnits="userSpaceOnUse"><stop offset="0" stop-color="#00974c"/><stop offset="1" stop-color="#007a4c"/></linearGradient><linearGradient id="Naamloos_verloop_11" x1="314.81" y1="417.53" x2="346.56" y2="417.53" xlink:href="#Naamloos_verloop_7"/><linearGradient id="Naamloos_verloop_12" x1="311.58" y1="396.65" x2="349.78" y2="396.65" gradientTransform="translate(178.35 158.4)" gradientUnits="userSpaceOnUse"><stop offset="0" stop-color="#e7c042"/><stop offset="1" stop-color="#aaaa30"/></linearGradient><linearGradient id="Naamloos_verloop_13" x1="305.21" y1="406.21" x2="324.31" y2="406.21" xlink:href="#Naamloos_verloop_12"/><linearGradient id="Naamloos_verloop_14" x1="337.04" y1="403.93" x2="364.34" y2="403.93" xlink:href="#Naamloos_verloop_12"/><linearGradient id="Naamloos_verloop_15" x1="53.55" y1="202.82" x2="-19.09" y2="202.82" xlink:href="#Naamloos_verloop_10"/><linearGradient id="Naamloos_verloop_16" x1="388.79" y1="441.78" x2="452.39" y2="441.78" xlink:href="#Naamloos_verloop_10"/><linearGradient id="Naamloos_verloop_17" x1="-119.09" y1="416.06" x2="62.26" y2="416.06" xlink:href="#Naamloos_verloop_4"/><linearGradient id="Naamloos_verloop_18" x1="361.57" y1="446.34" x2="416.07" y2="446.34" xlink:href="#Naamloos_verloop_10"/><linearGradient id="Naamloos_verloop_19" x1="343.43" y1="459.97" x2="379.75" y2="459.97" xlink:href="#Naamloos_verloop_10"/><linearGradient id="Naamloos_verloop_20" x1="369.66" y1="464.01" x2="396.9" y2="464.01" xlink:href="#Naamloos_verloop_10"/><linearGradient id="Naamloos_verloop_21" x1="387.81" y1="454.89" x2="433.24" y2="454.89" xlink:href="#Naamloos_verloop_10"/><linearGradient id="Naamloos_verloop_22" x1="424.14" y1="459.45" x2="460.46" y2="459.45" xlink:href="#Naamloos_verloop_10"/><linearGradient id="Naamloos_verloop_23" x1="11186.74" y1="564.62" x2="11396.48" y2="564.62" gradientTransform="matrix(-1, 0, 0, 1, 11782.02, 158.4)" xlink:href="#Naamloos_verloop_10"/><radialGradient id="Naamloos_verloop_24" cx="220.25" cy="466.82" r="142.73" gradientTransform="translate(178.35 63.1) scale(1 1.27)" gradientUnits="userSpaceOnUse"><stop offset="0" stop-color="#000050"/><stop offset="0.25" stop-color="#003" stop-opacity="0.64"/><stop offset="0.54" stop-color="#000017" stop-opacity="0.29"/><stop offset="0.81" stop-color="#000006" stop-opacity="0.08"/><stop offset="1" stop-opacity="0"/></radialGradient><linearGradient id="Naamloos_verloop_25" x1="173.37" y1="434.19" x2="217.56" y2="434.19" gradientTransform="translate(178.35 158.4)" gradientUnits="userSpaceOnUse"><stop offset="0" stop-color="#798c96"/><stop offset="1" stop-color="#c9d2d8"/></linearGradient><linearGradient id="Naamloos_verloop_26" x1="176.32" y1="432.3" x2="201.35" y2="432.3" gradientTransform="translate(178.35 158.4)" gradientUnits="userSpaceOnUse"><stop offset="0" stop-color="#adbac1"/><stop offset="1" stop-color="#c9d2d8"/></linearGradient><linearGradient id="Naamloos_verloop_27" x1="264.54" y1="489.01" x2="173.34" y2="489.01" gradientTransform="translate(178.35 158.4)" gradientUnits="userSpaceOnUse"><stop offset="0" stop-color="#c9d2d7"/><stop offset="0.42" stop-color="#eef1f4"/><stop offset="1" stop-color="#c9d2d8"/></linearGradient><linearGradient id="Naamloos_verloop_28" x1="264.54" y1="498.33" x2="206.31" y2="498.33" xlink:href="#Naamloos_verloop_25"/><linearGradient id="Naamloos_verloop_29" x1="258.67" y1="496.84" x2="206.28" y2="496.84" xlink:href="#Naamloos_verloop_26"/><linearGradient id="Naamloos_verloop_30" x1="173.25" y1="533.17" x2="264.54" y2="533.17" gradientTransform="translate(178.35 158.4)" gradientUnits="userSpaceOnUse"><stop offset="0" stop-color="#f0f93d"/><stop offset="1" stop-color="#f1d431"/></linearGradient><linearGradient id="Naamloos_verloop_31" x1="206.09" y1="373.97" x2="231.7" y2="373.97" gradientTransform="translate(178.35 158.4)" gradientUnits="userSpaceOnUse"><stop offset="0" stop-color="#d8d8d8"/><stop offset="1" stop-color="#c9d2d8"/></linearGradient><linearGradient id="Naamloos_verloop_32" x1="411.83" y1="799.46" x2="381.2" y2="799.46" gradientTransform="translate(1196.7 131.11) rotate(90)" gradientUnits="userSpaceOnUse"><stop offset="0" stop-color="#ecc35c"/><stop offset="1" stop-color="#f1d431"/></linearGradient><linearGradient id="Naamloos_verloop_33" x1="173.26" y1="498.06" x2="264.54" y2="498.06" xlink:href="#Naamloos_verloop_30"/><linearGradient id="Naamloos_verloop_34" x1="264.54" y1="500.31" x2="252.12" y2="500.31" gradientTransform="translate(178.35 158.4)" gradientUnits="userSpaceOnUse"><stop offset="0" stop-color="#ecc35c"/><stop offset="1" stop-color="#f1bd31"/></linearGradient><linearGradient id="Naamloos_verloop_35" x1="258.69" y1="503.38" x2="236.79" y2="503.38" gradientTransform="translate(178.35 158.4)" xlink:href="#Naamloos_verloop_32"/><linearGradient id="Naamloos_verloop_36" x1="381.2" y1="787.73" x2="411.82" y2="787.73" gradientTransform="translate(1186.33 119.47) rotate(90)" xlink:href="#Naamloos_verloop_30"/><linearGradient id="Naamloos_verloop_37" x1="412.83" y1="810.94" x2="382.21" y2="810.94" gradientTransform="translate(1207.34 144.27) rotate(90)" xlink:href="#Naamloos_verloop_32"/><linearGradient id="Naamloos_verloop_38" x1="205.15" y1="610.66" x2="205.15" y2="598.35" xlink:href="#Naamloos_verloop_25"/><linearGradient id="Naamloos_verloop_39" x1="7836.02" y1="610.66" x2="7836.02" y2="598.35" gradientTransform="matrix(-1, 0, 0, 1, 8246.87, 158.4)" xlink:href="#Naamloos_verloop_25"/><linearGradient id="Naamloos_verloop_40" x1="180.59" y1="610.44" x2="180.59" y2="596.51" xlink:href="#Naamloos_verloop_25"/><linearGradient id="Naamloos_verloop_41" x1="7863.07" y1="610.52" x2="7863.07" y2="596.59" gradientTransform="matrix(-1, 0, 0, 1, 8298.54, 158.4)" xlink:href="#Naamloos_verloop_25"/><linearGradient id="Naamloos_verloop_42" x1="2241.14" y1="2863.82" x2="2255.03" y2="2863.82" gradientTransform="translate(824.94 -2896.53) rotate(45)" xlink:href="#Naamloos_verloop_25"/><linearGradient id="Naamloos_verloop_43" x1="2235.27" y1="2863.84" x2="2263.08" y2="2863.84" gradientTransform="translate(824.94 -2896.53) rotate(45)" xlink:href="#Naamloos_verloop_26"/></defs><title>telefoon-32</title><rect x="198.72" y="411.55" width="408.82" height="803.86" rx="37.64" ry="37.64"/><path class="cls-2" d="M589.73,467v693c0,15.31-10.44,27.73-23.32,27.73H239.86c-12.88,0-23.33-12.42-23.33-27.73V467c0-15.31,10.45-27.73,23.33-27.73H566.41C579.29,439.26,589.73,451.68,589.73,467Z"/><g class="cls-3"><rect class="cls-4" x="0.05" width="1204.57" height="827.26"/><path class="cls-5" d="M0,470.12H260.65s89.93,5.59,146.85,55.08a351.75,351.75,0,0,0,38.31,28.65l37.54,24.55c47,30.75,106.07,52.71,170.93,62.34,23.13,3.43,47.45,5.41,71.06,4.53,39.23-1.46,78.56-1.62,117.85-1.44l356.34,1.65v130L2.13,774.09Z"/><path class="cls-6" d="M.12,499.94S192,498.12,201.2,498.4c14.26.43,40.72.79,74.29,44,61.12,78.66,136.21,119.28,212.79,119.28H801.35c39.84,0,78.73-23.62,108.61-68.57,3.82-5.75,7.51-11.85,11-18.31,21.24-39.78,51.39-62.4,82.92-62.4h200.74v203H3Z"/><path class="cls-7" d="M1201,577.88V827.12H.5V457.2c3.47,2.27,7,4.51,10.51,6.72h0a754.12,754.12,0,0,0,158.6,75.31,775.2,775.2,0,0,0,79.52,22.38q11,2.47,22.17,4.65l1.08.21c15.82,3.06,31.91,5.67,48.12,7.7l1.55.19h0q20.21,2.5,40.6,3.68c15.05.85,30.11,1.1,45,.64,2.65-.08,5.29-.18,7.94-.31,40-1.94,80-3,120.06-3.51,3.39-.05,6.78-.1,10.17-.13l10.17-.11,14.23-.1q31.23-.18,62.45,0H654.6L735,575h2.93l9.26.05h0l22.63.14,33.07.19,68.37.41,69,.42Z"/><polygon class="cls-8" points="304.27 626.94 285 652.89 291.05 721.19 254.74 721.19 261.81 645.88 261.5 645.65 288.99 608.61 261.98 581.59 266.97 576.6 293.25 602.88 313.78 575.21 332.42 589.04 312 616.53 341.46 605.58 343.92 612.19 304.27 626.94"/><path class="cls-9" d="M436.35,501.26a4.17,4.17,0,0,1,0,.5,4.33,4.33,0,0,1,0,.51c-.54,51.9-43,93.82-95.33,93.82s-94.79-41.92-95.32-93.82a2.17,2.17,0,0,1,0-.51,2.09,2.09,0,0,1,0-.5c.5-51.86,43-93.86,95.29-93.86S435.78,449.4,436.35,501.26Z"/><path class="cls-10" d="M245.65,501.26h0a2.09,2.09,0,0,0,0,.5A4.18,4.18,0,0,1,245.65,501.26Z"/><path class="cls-10" d="M245.65,502.27a4.43,4.43,0,0,1,0-.51A2.17,2.17,0,0,0,245.65,502.27Z"/><path class="cls-10" d="M300.13,532.53v2a13.34,13.34,0,0,0-.1-2Z"/><path class="cls-11" d="M300.09,534.55a13.27,13.27,0,0,1-.1,2c-1.9,27.05-22.79,48.35-48.28,48.35s-46.36-21.28-48.29-48.33c0-.68-.08-1.34-.1-2a19.13,19.13,0,0,1,.1-2c1.91-27,22.79-48.35,48.29-48.35s46.38,21.31,48.28,48.35C300,533.21,300.07,533.88,300.09,534.55Z"/><path class="cls-10" d="M300.13,536.57H300c0-.68.08-1.34.1-2C300.12,535.22,300.13,535.89,300.13,536.57Z"/><path class="cls-10" d="M328.35,574.91Z"/><path class="cls-12" d="M425.22,574.91v.93c-.46,28.5-22,51.46-48.41,51.46s-48-23-48.42-51.46v-.93c.47-28.51,22-51.51,48.42-51.51S424.76,546.4,425.22,574.91Z"/><path class="cls-10" d="M328.35,575.84Z"/><path class="cls-13" d="M1213.7,586.83v10.89h-3.84v229.4H.5V773.91H568.24q11.61,0,23.16-.81,14.16-1,28.14-3.21,12.81-2,25.41-5c2.71-.65,5.42-1.33,8.11-2.06q13.32-3.56,26.3-8.25,2.78-1,5.54-2.06c6.61-2.54,13.16-5.29,19.6-8.26a318.3,318.3,0,0,0,71-44.86q6.57-5.5,12.92-11.39c1.64-1.53,3.28-3.09,4.89-4.66,6-5.82,11.82-11.92,17.34-18.29a234.86,234.86,0,0,1,22.69-22.86h0a226.11,226.11,0,0,1,44.28-30.36A219.66,219.66,0,0,1,904.35,600a216.93,216.93,0,0,1,74.49-13.21Z"/><rect class="cls-14" x="0.5" y="803.56" width="1213.2" height="23.56"/><path class="cls-15" d="M539.74,447.21l-5.33,146.42a1.63,1.63,0,0,0,1.58,1.68h9.44a1.62,1.62,0,0,0,1.61-1.63h0l-4.15-146.47Z"/><path class="cls-16" d="M539.35,441.16a1.61,1.61,0,0,1,3,0l20.18,55.59L583,553.16a2.48,2.48,0,0,1-2.33,3.33H499.74a1.61,1.61,0,0,1-1.51-2.15l20.91-57.59Z"/><path class="cls-17" d="M188.65,763.06a21.18,21.18,0,0,1-21.18,21.18h-111a21.19,21.19,0,0,1,0-42.37h81.33l-8.69-9.3a2.81,2.81,0,0,1,.08-4l0,0h0l2.53-2.36a2.8,2.8,0,0,1,4,.07l0,0h0l14.55,15.53h17.19A21.18,21.18,0,0,1,188.65,763.06Z"/><path class="cls-18" d="M564.9,723a17.65,17.65,0,0,1,.39,3.85c0,5.94-2.75,11.49-7.65,16.49H240c-6.27-5.22-10.06-11.93-10.06-19.24,0-16.71,19.68-30.24,44-30.24a61.55,61.55,0,0,1,15.5,2c10.84-20.39,40.41-35,75.21-35a117.21,117.21,0,0,1,30.74,4c7.58-9,21.77-15,38-15,15.72,0,29.47,5.66,37.22,14.13a154,154,0,0,1,31.5-3.13c44,0,79.72,17.21,79.72,38.48C581.78,708.4,575.51,716.56,564.9,723Z"/><path class="cls-19" d="M512.49,583.4l.45,4a1.14,1.14,0,0,1-1,1.26H505.8a1.14,1.14,0,0,1-1.13-1.31l.58-4.06a1.16,1.16,0,0,0-.7-1.23c-9.31-3.67-11.08-9.3-11.38-11.81a1.14,1.14,0,0,1,1-1.28h.63a1.14,1.14,0,0,1,1.06.71c2.32,5.86,6.4,7.82,8.87,8.47a1.14,1.14,0,0,0,1.43-.94l1.86-13a1.14,1.14,0,0,1,1.13-1h.11a1.14,1.14,0,0,1,1.14,1l1.45,13a1.15,1.15,0,0,0,1.26,1h.15c2.45-.62,6.66-2.53,9-8.51a1.14,1.14,0,0,1,1.06-.72h.46a1.15,1.15,0,0,1,1.14,1.29c-.31,2.54-2.12,8.26-11.68,11.93A1.15,1.15,0,0,0,512.49,583.4Z"/><circle class="cls-20" cx="509.03" cy="555.05" r="19.1"/><circle class="cls-21" cx="493.11" cy="564.61" r="9.55"/><circle class="cls-22" cx="529.04" cy="562.33" r="13.65"/><ellipse class="cls-23" cx="195.58" cy="361.22" rx="36.32" ry="40.86"/><path class="cls-24" d="M630.74,600.71a32.61,32.61,0,0,1-.61,6.21,31.82,31.82,0,0,1-23.08,24.53H590.94a31.11,31.11,0,0,1-8.58-3.64,31.78,31.78,0,1,1,48.34-27.13Z"/><path class="cls-25" d="M59.26,592.19C68,571.56,91.6,556.73,119.4,556.73c22.91,0,43,10.07,54.19,25.18a72.75,72.75,0,0,1,23.83-3.9c16.66,0,31.84,5.32,43.19,14.18Z"/><path class="cls-26" d="M594.42,605.25a27.21,27.21,0,0,1-12,22.59,26.6,26.6,0,0,1-7.88,3.64H559.83a23.58,23.58,0,0,1-3.13-1.08A27.24,27.24,0,0,1,567.18,578a27.63,27.63,0,0,1,8.28,1.28,27.3,27.3,0,0,1,17.14,16.19A26.8,26.8,0,0,1,594.42,605.25Z"/><path class="cls-27" d="M558.1,623.4a18.13,18.13,0,0,1-1.4,7c-.16.37-.32.73-.5,1.08H523.68a17.9,17.9,0,0,1-1.9-8.07,18.16,18.16,0,1,1,36.32,0Z"/><path class="cls-28" d="M575.25,626.94a13.32,13.32,0,0,1-.78,4.54H548.79a13.32,13.32,0,0,1-.78-4.54,13.18,13.18,0,0,1,.18-2.18,13.62,13.62,0,0,1,27.06,2.18Z"/><path class="cls-29" d="M611.57,617.86a22.59,22.59,0,0,1-4.52,13.59H570.7a22.55,22.55,0,0,1-4.54-13.62,23.15,23.15,0,0,1,.29-3.65,22.33,22.33,0,0,1,1.7-5.64,22.67,22.67,0,0,1,20.71-13.41,20.87,20.87,0,0,1,3.73.32,22.69,22.69,0,0,1,19,22.38Z"/><path class="cls-30" d="M638.81,622.4a17.93,17.93,0,0,1-2.45,9.08H604.93a18.16,18.16,0,1,1,33.88-9.08Z"/><path class="cls-31" d="M595.28,743.52c-10.09-23.87-37.41-41-69.56-41-26.5,0-49.71,11.65-62.67,29.12a84.14,84.14,0,0,0-27.56-4.51c-19.27,0-36.83,6.15-49.95,16.4Z"/></g><rect class="cls-32" x="239.56" y="486.5" width="327.15" height="321.85"/><ellipse class="cls-33" cx="398.6" cy="655.2" rx="119.76" ry="205.6"/><g class="cls-34"><path d="M261.36,881.78a9.64,9.64,0,0,1-10,9.78,10.16,10.16,0,0,1-9.32-5.73l4.22-1.33a5.91,5.91,0,0,0,4.92,2.82,5.52,5.52,0,0,0,5.72-5.53c0-3.19-2.28-5.28-5.6-5.28a6.81,6.81,0,0,0-6,3.19L243,878.25l2-14.13h14v4.25H248.21l-.86,5.6a6.44,6.44,0,0,1,4.57-1.6A9,9,0,0,1,261.36,881.78Z"/><path d="M284.34,887.07v4.25H264v-.91c11.18-9.05,15.73-13.76,15.73-17.06a5.29,5.29,0,0,0-5.09-5.34,5.71,5.71,0,0,0-5.72,5.8l-3.9-.94a9.25,9.25,0,0,1,9.48-9.12,9.52,9.52,0,0,1,9.51,9.39c0,4.71-4.79,10-10.94,13.94Z"/><path d="M287.58,889.25a2.87,2.87,0,1,1,2.87,2.85A2.89,2.89,0,0,1,287.58,889.25Z"/><path d="M317.43,885.49h-3v5.83h-4.25v-5.83H295.66l10-21.43,4.52,0-8.16,17.16h8.13V872.5h4.25v8.73h3Z"/><path d="M338.65,873.11c0,3.83-1.45,4.89-9.16,18.24h-4.87l5.78-10a7.46,7.46,0,0,1-2.56.46,8.56,8.56,0,0,1-8.31-8.75,9.56,9.56,0,0,1,19.12.05Zm-4.27,0a5.31,5.31,0,0,0-10.61,0,5.3,5.3,0,0,0,10.61,0Z"/></g><g class="cls-34"><path d="M356.86,864.14v.79L346,891.32h-4.48l9.32-23H338.28v-4.16Z"/></g><g class="cls-34"><path d="M356.19,877.73c0-8.19,4.49-14,11.09-14s11.09,5.8,11.09,14-4.49,14-11.09,14S356.19,885.91,356.19,877.73Zm17.91,0c0-5.68-2.73-9.71-6.83-9.71s-6.83,4-6.83,9.71,2.71,9.68,6.83,9.68S374.1,883.4,374.1,877.73Z"/><path d="M401.83,885.49h-3v5.83H394.6v-5.83H380.06l10-21.43,4.52,0-8.16,17.16h8.13V872.5h4.25v8.73h3Z"/><path d="M411.87,863.89v27.43h-4.27v-22l-3.68,1.1V866l6.69-2.12Z"/><path d="M434.92,873.11c0,3.83-1.45,4.89-9.16,18.24h-4.87l5.78-10a7.46,7.46,0,0,1-2.56.46,8.56,8.56,0,0,1-8.31-8.75,9.56,9.56,0,0,1,19.12.05Zm-4.27,0a5.31,5.31,0,0,0-10.61,0,5.3,5.3,0,0,0,10.61,0Z"/><path d="M437.52,883.18c0-4.15,3.2-6.88,5.48-7.2a5.51,5.51,0,0,1-4-5.38c0-3.59,3.25-6.91,7.84-6.91s7.86,3.27,7.86,6.91a5.63,5.63,0,0,1-4,5.38,7.49,7.49,0,0,1,5.43,7.22c0,4.6-3.86,8.57-9.27,8.57S437.52,887.75,437.52,883.18Zm14.25-.25a4.83,4.83,0,0,0-5-4.59,4.89,4.89,0,0,0-5,4.62,5,5,0,0,0,10,0Zm-1.23-12c0-2-1.67-3.25-3.73-3.25s-3.73,1.21-3.73,3.22,1.74,3.2,3.73,3.2S450.54,873,450.54,870.9Z"/><path d="M477.8,882.47a9.47,9.47,0,0,1-9.61,9.21c-5.31,0-9.51-3.68-9.51-9,0-3.2,1.32-4.49,9.16-18.53l4.84,0-6,10.25a7.57,7.57,0,0,1,2.71-.51A8.46,8.46,0,0,1,477.8,882.47Zm-4.23-.14a5.32,5.32,0,1,0-5.31,5.09A5.27,5.27,0,0,0,473.56,882.33Z"/></g><g class="cls-34"><path d="M262.92,926.91h-3v5.83h-4.25v-5.83H241.15l10-21.43,4.52,0-8.16,17.16h8.13v-8.73h4.25v8.73h3Z"/><path d="M265.66,930.67a2.87,2.87,0,1,1,2.87,2.85A2.89,2.89,0,0,1,265.66,930.67Z"/><path d="M293.78,914.53c0,3.83-1.45,4.89-9.16,18.24h-4.87l5.78-10a7.46,7.46,0,0,1-2.56.46,8.56,8.56,0,0,1-8.31-8.75,9.56,9.56,0,0,1,19.12.05Zm-4.27,0a5.31,5.31,0,0,0-10.61,0,5.3,5.3,0,0,0,10.61,0Z"/><path d="M315.67,923.2a9.64,9.64,0,0,1-10,9.78,10.16,10.16,0,0,1-9.32-5.73l4.22-1.33a5.91,5.91,0,0,0,4.92,2.82,5.52,5.52,0,0,0,5.72-5.53c0-3.19-2.28-5.28-5.6-5.28a6.81,6.81,0,0,0-6,3.19l-2.39-1.43,2-14.13h14v4.25H302.52l-.86,5.6a6.44,6.44,0,0,1,4.57-1.6A9,9,0,0,1,315.67,923.2Z"/><path d="M339.12,926.91h-3v5.83h-4.25v-5.83H317.35l10-21.43,4.52,0-8.16,17.16h8.13v-8.73h4.25v8.73h3Z"/><path d="M349.16,905.31v27.43h-4.27v-22l-3.68,1.1v-4.45l6.69-2.12Z"/><path d="M372.21,914.53c0,3.83-1.45,4.89-9.16,18.24h-4.87l5.78-10a7.46,7.46,0,0,1-2.56.46,8.56,8.56,0,0,1-8.31-8.75,9.56,9.56,0,0,1,19.12.05Zm-4.27,0a5.31,5.31,0,0,0-10.61,0,5.3,5.3,0,0,0,10.61,0Z"/><path d="M394.1,923.2a9.64,9.64,0,0,1-10,9.78,10.16,10.16,0,0,1-9.32-5.73l4.22-1.33a5.91,5.91,0,0,0,4.92,2.82,5.52,5.52,0,0,0,5.72-5.53c0-3.19-2.28-5.28-5.6-5.28a6.81,6.81,0,0,0-6,3.19l-2.39-1.43,2-14.13h14v4.25H380.95l-.86,5.6a6.44,6.44,0,0,1,4.57-1.6A9,9,0,0,1,394.1,923.2Z"/><path d="M417.07,928.49v4.25H396.71v-.91c11.18-9.05,15.73-13.76,15.73-17.06a5.29,5.29,0,0,0-5.09-5.34,5.71,5.71,0,0,0-5.72,5.8l-3.9-.94a9.25,9.25,0,0,1,9.48-9.12,9.52,9.52,0,0,1,9.51,9.39c0,4.71-4.79,10-10.94,13.94Z"/><path d="M438.08,924.63c0,4.47-4,8.36-9.16,8.36-4.4,0-8.31-3-9.24-6.73l4.18-1.06a5,5,0,0,0,5,3.58,4.73,4.73,0,0,0,5-4.45c0-3.3-3.34-5.4-8-5.36l.67-2.5c3.15,0,6-1.52,6-4.08a3.47,3.47,0,0,0-3.64-3.42,3.51,3.51,0,0,0-3.46,2.83l-4.37-.91a8,8,0,0,1,7.86-6.1c4.27,0,7.89,3.08,7.89,7.28a5.79,5.79,0,0,1-3.56,5.51A7.11,7.11,0,0,1,438.08,924.63Z"/><path d="M440.7,924.6c0-4.15,3.2-6.88,5.48-7.2a5.51,5.51,0,0,1-4-5.38c0-3.59,3.25-6.91,7.84-6.91s7.86,3.27,7.86,6.91a5.63,5.63,0,0,1-4,5.38,7.49,7.49,0,0,1,5.43,7.22c0,4.6-3.86,8.57-9.27,8.57S440.7,929.17,440.7,924.6Zm14.25-.25a4.83,4.83,0,0,0-5-4.59,4.89,4.89,0,0,0-5,4.62,5,5,0,0,0,10,0Zm-1.23-12c0-2-1.67-3.25-3.73-3.25s-3.73,1.21-3.73,3.22,1.74,3.2,3.73,3.2S453.72,914.38,453.72,912.32Z"/><path d="M481,914.53c0,3.83-1.45,4.89-9.16,18.24h-4.87l5.78-10a7.46,7.46,0,0,1-2.56.46,8.56,8.56,0,0,1-8.31-8.75,9.56,9.56,0,0,1,19.12.05Zm-4.27,0a5.31,5.31,0,0,0-10.61,0,5.3,5.3,0,0,0,10.61,0Z"/></g><g class="cls-34"><path d="M262.09,965.88a8.24,8.24,0,0,1-8.55,8.28H243.37V947h7.42c4.69,0,7.86,3.37,7.86,7,0,2.93-2,4.89-3.05,4.89A6.9,6.9,0,0,1,262.09,965.88Zm-14.47-14.75v6.78l3.37,0a3.41,3.41,0,0,0,3.66-3.37,3.5,3.5,0,0,0-3.61-3.39Zm10.3,14.47c0-2.06-1.75-3.95-4.84-3.95l-5.46,0V970h5.53A4.58,4.58,0,0,0,257.92,965.59Z"/></g><g class="cls-34"><path d="M263.29,960.6a14.05,14.05,0,1,1,14,14A14.1,14.1,0,0,1,263.29,960.6Zm23.79,0a9.75,9.75,0,1,0-9.76,9.71A9.79,9.79,0,0,0,287.09,960.57Z"/></g><g class="cls-34"><path d="M308.84,951.21h-7.28v22.95h-4.28V951.21H290V947h18.85Z"/><path d="M329.26,951.21H322v22.95h-4.28V951.21H310.4V947h18.85Z"/><path d="M349,969.91v4.25H332.64V947h4.27v22.93Z"/><path d="M356.69,951.18v7H367v4.25H356.69v7.52h11.92v4.25H352.43V947h16.19v4.2Z"/></g><g class="cls-34"><path d="M243.37,988.41h9.09c5.26,0,9.56,4,9.56,9s-4.3,8.79-9.56,8.79h-4.82v9.42h-4.27Zm14.38,8.94c0-2.6-2.38-4.71-5.29-4.71h-4.82v9.29l4.82,0C255.38,1002,257.76,999.89,257.76,997.35Z"/><path d="M281.79,1011.34v4.25H265.4V988.41h4.27v22.93Z"/></g><g class="cls-34"><path d="M300.94,1011.46H288.07l-1.85,4.13H281.6l12.78-27.74h.25l12.78,27.74h-4.62Zm-1.65-3.66-4.77-10.62-4.79,10.62Z"/></g><g class="cls-34"><path d="M307.31,1010.82l3.37-2.41a6.81,6.81,0,0,0,6.09,3.34c3.05,0,5.36-1.47,5.36-3.54,0-2.51-3.57-4-6.74-5.4s-6.73-3.07-6.73-7.33c0-4.45,3.86-7.55,8.75-7.55,3.88,0,6.78,1.87,7.89,4.86L322.13,995a5.07,5.07,0,0,0-4.69-2.87c-2.5,0-4.48,1.55-4.48,3.47,0,2.12,2.51,2.88,5.82,4.3,4.3,1.89,7.64,4,7.64,8.25,0,4.82-4.18,7.92-9.7,7.92C312.25,1016,308.86,1014,307.31,1010.82Z"/><path d="M347.09,992.64h-7.28v22.95h-4.28V992.64h-7.28v-4.23h18.85Z"/><path d="M350.47,988.41h4.27v27.18h-4.27Z"/><path d="M358.66,1002a14.2,14.2,0,0,1,14-14.08,13.75,13.75,0,0,1,9.44,4.15l-2.48,3.36a10.1,10.1,0,0,0-7-3.17,9.74,9.74,0,0,0,0,19.47,10.09,10.09,0,0,0,7-3.24l2.46,3.44a13,13,0,0,1-9.37,4.08A14.15,14.15,0,0,1,358.66,1002Z"/></g><g class="cls-34"><path d="M247.64,1034v7.27h10.29v4.25H247.64V1057h-4.27v-27.28h16.19V1034Z"/><path d="M277.88,1057l-7.32-10.52h-3.34V1057H263l0-27.18h8.45a9,9,0,0,1,9.21,8.73,8,8,0,0,1-5.38,7.57l7.91,10.88Zm-6.39-14.06a4.64,4.64,0,0,0,4.7-4.48,4.54,4.54,0,0,0-4.7-4.4h-4.28v8.89Z"/><path d="M286,1029.83h4.27V1057H286Z"/><path d="M293.91,1052.24l3.37-2.41a6.81,6.81,0,0,0,6.09,3.34c3.05,0,5.36-1.47,5.36-3.54,0-2.51-3.57-4-6.74-5.4s-6.73-3.07-6.73-7.33c0-4.45,3.86-7.55,8.75-7.55,3.88,0,6.78,1.87,7.89,4.86l-3.17,2.19a5.07,5.07,0,0,0-4.69-2.87c-2.5,0-4.48,1.55-4.48,3.47,0,2.12,2.51,2.88,5.82,4.3,4.3,1.89,7.64,4,7.64,8.25,0,4.82-4.18,7.92-9.7,7.92C298.85,1057.46,295.46,1055.37,293.91,1052.24Z"/><path d="M338.41,1043.45c0,8.35-5.38,13.56-14,13.56h-7.74v-27.18h7.74C333,1029.81,338.41,1035,338.41,1043.45Zm-4.32,0c0-5.77-3.74-9.37-9.71-9.37h-3.47v18.7h3.52C330.37,1052.76,334.1,1049.17,334.1,1043.44Z"/><path d="M357.25,1057l-7.32-10.52H346.6V1057h-4.27l0-27.18h8.45a9,9,0,0,1,9.21,8.73,8,8,0,0,1-5.38,7.57L362.5,1057Zm-6.39-14.06a4.64,4.64,0,0,0,4.7-4.48,4.54,4.54,0,0,0-4.7-4.4h-4.28v8.89Z"/><path d="M382.47,1052.88H369.6l-1.85,4.13h-4.62l12.78-27.74h.25L388.94,1057h-4.62Zm-1.65-3.66L376,1038.6l-4.79,10.62Z"/><path d="M413.81,1029.76v27.72h-.2l-17.38-18.16V1057H392v-27.69h.22l17.35,18.13v-17.72Z"/><path d="M433.32,1057l-10-13.15V1057H419v-27.18h4.25v13l9.34-13h5l-9.64,13.34L438.53,1057Z"/></g><g class="cls-34"><path d="M242.07,1084.86a14.2,14.2,0,0,1,14-14.08,13.74,13.74,0,0,1,9.44,4.15l-2.48,3.36a10.1,10.1,0,0,0-7-3.17,9.74,9.74,0,0,0,0,19.47,10.09,10.09,0,0,0,7-3.24l2.46,3.44a13,13,0,0,1-9.37,4.08A14.15,14.15,0,0,1,242.07,1084.86Z"/></g><g class="cls-34"><path d="M266.46,1084.87a14.05,14.05,0,1,1,14,14A14.1,14.1,0,0,1,266.46,1084.87Zm23.79,0a9.75,9.75,0,1,0-9.76,9.71A9.79,9.79,0,0,0,290.26,1084.84Z"/><path d="M297.18,1084.86a14.2,14.2,0,0,1,14-14.08,13.74,13.74,0,0,1,9.44,4.15l-2.48,3.36a10.1,10.1,0,0,0-7-3.17,9.74,9.74,0,0,0,0,19.47,10.09,10.09,0,0,0,7-3.24l2.46,3.44a13,13,0,0,1-9.37,4.08A14.15,14.15,0,0,1,297.18,1084.86Z"/><path d="M341.14,1094.3H328.28l-1.85,4.13H321.8l12.78-27.74h.25l12.78,27.74H343Zm-1.65-3.66L334.72,1080l-4.79,10.62Z"/></g><g class="cls-34"><path d="M359.44,1084.86a14.2,14.2,0,0,1,14-14.08,13.74,13.74,0,0,1,9.44,4.15l-2.48,3.36a10.1,10.1,0,0,0-7-3.17,9.74,9.74,0,0,0,0,19.47,10.09,10.09,0,0,0,7-3.24l2.46,3.44a13,13,0,0,1-9.37,4.08A14.15,14.15,0,0,1,359.44,1084.86Z"/></g><g class="cls-34"><path d="M383.83,1084.87a14.05,14.05,0,1,1,14,14A14.1,14.1,0,0,1,383.83,1084.87Zm23.79,0a9.75,9.75,0,1,0-9.76,9.71A9.79,9.79,0,0,0,407.62,1084.84Z"/></g><g class="cls-34"><path d="M432.23,1094.18v4.25H415.84v-27.18h4.27v22.93Z"/></g><g class="cls-34"><path d="M453,1094.3H440.09l-1.85,4.13h-4.62l12.78-27.74h.25l12.78,27.74h-4.62Zm-1.65-3.66L446.53,1080l-4.79,10.62Z"/></g><g class="cls-34"><path d="M243.37,1112.67h9.09c5.26,0,9.56,4,9.56,9s-4.3,8.79-9.56,8.79h-4.82v9.42h-4.27Zm14.38,8.94c0-2.6-2.38-4.71-5.29-4.71h-4.82v9.29l4.82,0C255.38,1126.23,257.76,1124.15,257.76,1121.61Z"/><path d="M281.79,1135.6v4.25H265.4v-27.18h4.27v22.93Z"/></g><g class="cls-34"><path d="M300.94,1135.72H288.07l-1.85,4.13H281.6l12.78-27.74h.25l12.78,27.74h-4.62Zm-1.65-3.66-4.77-10.62-4.79,10.62Z"/></g><g class="cls-34"><path d="M307.31,1135.08l3.37-2.41a6.81,6.81,0,0,0,6.09,3.34c3.05,0,5.36-1.47,5.36-3.54,0-2.51-3.57-4-6.74-5.4s-6.73-3.07-6.73-7.33c0-4.45,3.86-7.55,8.75-7.55,3.88,0,6.78,1.87,7.89,4.86l-3.17,2.19a5.07,5.07,0,0,0-4.69-2.87c-2.5,0-4.48,1.55-4.48,3.47,0,2.12,2.51,2.88,5.82,4.3,4.3,1.89,7.64,4,7.64,8.25,0,4.82-4.18,7.92-9.7,7.92C312.25,1140.3,308.86,1138.21,307.31,1135.08Z"/><path d="M347.09,1116.9h-7.28v22.95h-4.28V1116.9h-7.28v-4.23h18.85Z"/><path d="M350.47,1112.67h4.27v27.18h-4.27Z"/><path d="M358.66,1126.28a14.2,14.2,0,0,1,14-14.08,13.75,13.75,0,0,1,9.44,4.15l-2.48,3.36a10.1,10.1,0,0,0-7-3.17,9.74,9.74,0,0,0,0,19.47,10.09,10.09,0,0,0,7-3.24l2.46,3.44a13,13,0,0,1-9.37,4.08A14.15,14.15,0,0,1,358.66,1126.28Z"/><path d="M399.89,1116.85v7.27h10.29v4.25H399.89v11.52h-4.27V1112.6h16.19v4.25Z"/><path d="M431.59,1135.6v4.25H415.2v-27.18h4.27v22.93Z"/><path d="M439.25,1116.87v7h10.29v4.25H439.25v7.52h11.92v4.25H435v-27.18h16.19v4.2Z"/><path d="M454,1135.08l3.37-2.41a6.81,6.81,0,0,0,6.09,3.34c3.05,0,5.36-1.47,5.36-3.54,0-2.51-3.58-4-6.75-5.4s-6.73-3.07-6.73-7.33c0-4.45,3.86-7.55,8.75-7.55,3.88,0,6.78,1.87,7.89,4.86l-3.17,2.19a5.07,5.07,0,0,0-4.69-2.87c-2.5,0-4.49,1.55-4.49,3.47,0,2.12,2.51,2.88,5.82,4.3,4.3,1.89,7.64,4,7.64,8.25,0,4.82-4.18,7.92-9.7,7.92C459,1140.3,455.58,1138.21,454,1135.08Z"/></g><polygon class="cls-35" points="350.57 439.26 216.53 817.49 216.53 710.87 312.79 439.26 350.57 439.26"/><path class="cls-36" d="M371.53,565.68s-5.12,4.56-2.41,7.82-12.47,34.2-14.45,36.9-5.51,9.31,0,9.1,41.24-10,41.24-10Z"/><path class="cls-37" d="M371.53,565.68s2.92,10.26-2.85,19-12.93,18-9.78,21.5-3.15,13.28-4.2,13.28,25-1.22,25-1.22L379,561.95Z"/><path class="cls-38" d="M442.89,616.61v134a12.3,12.3,0,0,1-3.32,8.62l-7.39,7.46a7.83,7.83,0,0,1-11.06.47q-.28-.26-.54-.54l-4-4.17c-3.75-3.84-9.28-3.38-12.57,1a8.35,8.35,0,0,1-6.71,3.65h0a8.37,8.37,0,0,1-6.69-3.65,8.41,8.41,0,0,0-6.73-3.64,8.11,8.11,0,0,0-5.83,2.6L374,766.58a8.56,8.56,0,0,1-4.06,2.39,7.53,7.53,0,0,1-4.28-.22,8.59,8.59,0,0,1-3.26-2.1l-7.4-7.46a11.36,11.36,0,0,1-2.62-4.37,13.28,13.28,0,0,1-.69-4.25V617.9a12.38,12.38,0,0,1,5.39-.79c5.4.51,9.57-8.82,9.57-8.82s-8.34-.25,1.47-11.28,3.49-31.33,3.49-31.33c4.1-5.93,7.91-10.66,10.36-13.56a12.45,12.45,0,0,0,2.77-8v-7.36c0-6.16,4.07-11.16,9.09-11.16h7c5,0,9.08,5,9.08,11.16v7.36a12.45,12.45,0,0,0,2.78,8C420.57,561.54,442.89,590.32,442.89,616.61Z"/><path class="cls-39" d="M435.05,644.06C430.58,689,428.44,744.23,410,759.94h0a8,8,0,0,1,6.54,2.56l4.06,4.18a7.83,7.83,0,0,0,11.06.6h0q.28-.26.54-.54l7.39-7.45a12.32,12.32,0,0,0,3.32-8.63v-134c0-26.29-22.33-55.06-30.28-64.48a12.55,12.55,0,0,1-2.77-8H384.66S439.52,599.16,435.05,644.06Z"/><path class="cls-40" d="M423,643.2c-1.08,35.84-15.62,89.6-22.34,112.74-2.05,7-3.37,11.26-3.37,11.26h1a8.61,8.61,0,0,0,5.69-3.57h0c2.62-3.55,6.7-4.54,10.13-2.83,6.78-5,13.8-13.72,17.32-29.2,8-35.22,11.47-140-17.65-167.41s-29.11-20-29.11-20S424.35,596.4,423,643.2Z"/><path class="cls-1" d="M434.88,624.93l-1,.26"/><path class="cls-41" d="M442.89,691.58a1.43,1.43,0,0,1-.21.73c-1,1.74-5.39,3.3-12.08,4.5-8.32,1.49-20.19,2.42-33.35,2.42-25.21,0-45.65-3.42-45.65-7.65s20.44-7.65,45.65-7.65a200.78,200.78,0,0,1,33.84,2.52C438.42,687.81,442.89,689.61,442.89,691.58Z"/><rect class="cls-42" x="384.44" y="520.64" width="25.61" height="23.46"/><rect class="cls-43" x="385.51" y="512.31" width="23.46" height="30.63" transform="translate(-172.72 861.29) rotate(-83.37)"/><path class="cls-44" d="M433.83,625.19A109.07,109.07,0,0,1,421.94,627a234.35,234.35,0,0,1-24.69,1.22c-25,0-45.32-3.38-45.64-7.55v71.6h91.28v-71.7c0,1.61-3,3.09-8,4.32Z"/><path class="cls-45" d="M442.89,620.61v71.7h-.21c-1,1.74-5.39,3.3-12.08,4.5h-.13c.22-1.94.43-8.39.62-10.35,1.46-14.16,2.6-28.76,4-42.4a62.61,62.61,0,0,0-1.22-18.86l1-.26C439.93,623.7,442.89,622.22,442.89,620.61Z"/><path class="cls-46" d="M434.88,624.93a397.79,397.79,0,0,1,1.62,62.75c-.07,1.56-.37,6.42-.46,7.94-2.64.63-5.46,1.2-8.46,1.68a115.81,115.81,0,0,1-12.44,1.33c.68-3.21,1.67-8,2.75-13.87,2.72-14.66,4.69-29.19,5.07-41.57A92.61,92.61,0,0,0,422,627a109.07,109.07,0,0,0,11.89-1.85Z"/><path class="cls-47" d="M384.66,552.22s-32,107.54-19.05,166.51c0,0,38.76-28,28-50C373.11,627.15,384.66,552.22,384.66,552.22Z"/><path class="cls-47" d="M387.59,518.11s-5.15,8.69-1.53,13.2-.7-4.22,7.49-5.82,20.27-7.74,11.57-5.34C400.05,521.55,387.59,518.11,387.59,518.11Z"/><ellipse class="cls-48" cx="398.6" cy="515.98" rx="2.52" ry="15.31" transform="translate(-159.95 852.34) rotate(-83.37)"/><ellipse class="cls-49" cx="396.39" cy="540.66" rx="2.51" ry="15.27" transform="translate(-188.03 869.13) rotate(-83.09)"/><path class="cls-50" d="M397.22,767.19a8.37,8.37,0,0,1-6.69-3.65,8.41,8.41,0,0,0-6.72-3.64,8.08,8.08,0,0,0-5.83,2.6l-4.06,4.17a8.56,8.56,0,0,1-4.06,2.39,8.62,8.62,0,0,1-.07-1.14c0-6.17,6.14-11.17,13.73-11.17C390.79,756.75,396.76,761.4,397.22,767.19Z"/><path class="cls-51" d="M397.13,767.19a8.38,8.38,0,0,0,6.7-3.65,8.41,8.41,0,0,1,6.72-3.64,8.08,8.08,0,0,1,5.83,2.6l4.06,4.17a8.56,8.56,0,0,0,4.06,2.39,8.62,8.62,0,0,0,.07-1.14c0-6.17-6.14-11.17-13.73-11.17C403.56,756.75,397.6,761.4,397.13,767.19Z"/><path class="cls-52" d="M365.58,768.84a8.59,8.59,0,0,1-3.26-2.1l-7.39-7.46a11.25,11.25,0,0,1-2.63-4.37,14.85,14.85,0,0,1,10.31,6.49A16.67,16.67,0,0,1,365.58,768.84Z"/><path class="cls-53" d="M428.83,768.92a8.59,8.59,0,0,0,3.26-2.1l7.4-7.46a11.23,11.23,0,0,0,2.62-4.37,14.87,14.87,0,0,0-10.31,6.48A16.79,16.79,0,0,0,428.83,768.92Z"/><path class="cls-54" d="M386.35,714.14s-3.4,5.55-1.65,7.14,7.47-1.32,7.47-1.32l3-4.46s-2.05,10.11-5.7,12.16-16.54,8.13-19.72,12.08c0,0,5.15-11.48,3.34-13.91s7.15-3.25,7.15-3.25,2.33-5.49,4.21-7Z"/><path class="cls-55" d="M395.16,715.5s-10.59,11.08-12,7.3,3.17-8.66,3.17-8.66-8.43,2.61-8.37,6.61-7.81-1.5-7.81-1.5-3.54,9.07,2,9.91-2.43,10.58-2.43,10.58,12.2-5.52,12.28-3.26c.38,11,19.21-9,19.21-9s-16.44,1.3-12.9-1.07S395.16,715.5,395.16,715.5Z"/><polygon class="cls-35" points="466.08 439.26 216.35 1143.9 216.35 932.71 391.22 439.26 466.08 439.26"/><path d="M572,918.69c0,4-11.85,7.22-26.46,7.22S519,922.68,519,918.69c0-3.63,9.77-6.62,22.5-7.14l4,8,4-8C562.19,912.07,572,915.06,572,918.69Z"/><path d="M545.48,869.65a14.7,14.7,0,0,0-14.69,14.71v0h0a15.43,15.43,0,0,0,.26,2.74h0a13.16,13.16,0,0,0,.56,2.07l.06.23h0l.15.36c.09.21.17.41.27.61l.13.32v.09l13.2,26.45,13.23-26.54.15-.34a14.67,14.67,0,0,0-13.39-20.73Zm.07,21.32a5.8,5.8,0,1,1,5.79-5.81h0a5.79,5.79,0,0,1-5.79,5.79h0Z"/><path d="M559.47,1082.68c-.14-.82-.31-1.65-.52-2.46l-.12-.47-.3-1c-.15-.52-.31-1-.49-1.55s-.36-1-.55-1.51c-.11-.3-.23-.59-.35-.88l-.18-.44-.36-.86c-.5-1.14-1-2.23-1.55-3.26l-.4-.76c-.07-.13-.14-.25-.2-.38l-.4-.72a10.17,10.17,0,0,0-.59-1,5.57,5.57,0,0,1-.38-.66c-.12-.22-.26-.42-.38-.63l-.54-.88-.35-.54c-.57-.89-1.06-1.62-1.45-2.18a5.33,5.33,0,0,1-.87-3h.9v-1.27c.6-.15,1-.33,1-.52v-8.86c0-.53-2.59-1-5.79-1s-5.78.43-5.78,1v8.86c0,.19.35.37.94.52v1.17h.9a5.4,5.4,0,0,1-.86,3c-2.49,3.56-9.48,14.43-9.48,24.36v28.33h0v22.31a6,6,0,0,0,.22,1.6,4.13,4.13,0,0,0,1.08,1.65l2.79,2.58a2.18,2.18,0,0,0,1.07.59,2.31,2.31,0,0,0,.46,0H537a2.1,2.1,0,0,0,1.45-.62h0l.29-.36.81-1a2.36,2.36,0,0,1,1.82-1,2.54,2.54,0,0,1,2.11,1.37,2.57,2.57,0,0,0,.22.32h0a1.59,1.59,0,0,0,.2.24h0l.2.19h.07l.19.14h.09l.18.1h.09l.19.07h1l.26-.07h.17l.14-.07.12-.07.12-.08.14-.1.1-.08.15-.14.08-.08.15-.18h0c.07-.1.14-.2.21-.32h0l.15-.22h0l.13-.16.06-.08.13-.13.08-.08.12-.11.1-.08.11-.09.21-.13h.07l.17-.07H549l.18-.06h.81l.23.06h.27l.15.08a2.77,2.77,0,0,1,.78.69l.75.93h0a1.91,1.91,0,0,0,.33.42h0a2.1,2.1,0,0,0,1,.53H554a2.1,2.1,0,0,0,1.45-.62h0l2.77-2.55a4.23,4.23,0,0,0,1.11-1.64l.09-.4a5.67,5.67,0,0,0,.13-1.24v-50.35A24.88,24.88,0,0,0,559.47,1082.68Z"/><polygon points="537.19 1006.21 528.53 966.94 555.71 964.92 570.94 988.08 561.75 1008.18 539.82 1009.9 537.19 1006.21"/><polygon points="534.69 964.92 533.01 975.66 524.41 979.96 532.09 990.4 520.76 996.54 530.42 995.06 528.56 997.31 530.42 1005.87 536.24 995.31 544.89 1009.9 557.42 1007.6 562.18 1001.15 565.72 997.31 558.5 998.69 568.94 988.08 562.49 990.25 563.41 983.34 570.94 974.43 563.11 976.58 563.87 964.92 555.74 970.9 550.82 967.21 543.65 967.53 539.61 970.44 534.69 964.92"/><polygon points="541.53 962.29 534.69 964.92 532.56 977.94 522.83 975.05 522.83 981.9 520.76 983.67 532.56 988.08 520.76 994.92 517.03 999.77 524.98 997.56 532.56 1002.64 545.62 1000.43 547.41 1014.77 552.81 1016.53 555.25 1004.37 570.28 996.46 567.05 992.93 560.49 990.95 566 985.87 552.81 984.99 569.03 970.21 560.05 965.8 547.41 976.83 541.53 962.29"/><polygon points="522.83 975.05 532.56 970.57 541.5 975.05 541.53 962.29 545.96 966.08 552.81 975.05 562.84 971.95 574.07 980.92 560.08 980.92 558.36 989.19 569.03 986.78 560.42 997.82 569.51 1001.27 555.25 1004.37 554.22 1013.88 544.89 1009.9 541.53 998.16 530.42 1005.87 530.42 995.06 520.76 988.08 530.42 986.43 522.83 975.05"/><polygon points="536.11 972.35 545.85 985.07 542.62 977.94 543.65 974.14 541.5 975.05 536.11 972.35"/><polygon points="532.84 979.89 538.88 988.81 538.15 1000.51 541.53 998.16 540.03 995.28 541.53 990.2 532.84 979.89"/><polygon points="560.08 980.92 557.39 983.51 552.81 984.99 552.64 987.41 554.06 985.56 556.83 986.13 559.14 985.41 560.08 980.92"/><polygon points="548 990.2 548.68 994.37 549.09 997.51 549.09 1011.69 547.81 1011.15 548 990.2"/><polygon points="544.89 1009.9 548 990.2 548 995.33 549.09 997.51 547.81 1011.15 544.89 1009.9"/></svg>