<svg id="Laag_1" data-name="Laag 1" xmlns="http://www.w3.org/2000/svg" xmlns:xlink="http://www.w3.org/1999/xlink" viewBox="0 0 403.64 478.71"><defs><style>.cls-1{fill:url(#Naamloos_verloop_103);}.cls-2{fill:url(#Naamloos_verloop_78);}.cls-3{fill:url(#Naamloos_verloop_103-2);}.cls-4{fill:url(#Naamloos_verloop_103-3);}.cls-5{fill:url(#Naamloos_verloop_103-4);}.cls-6{fill:url(#Naamloos_verloop_103-5);}.cls-7{fill:url(#Naamloos_verloop_103-6);}.cls-8{fill:url(#Naamloos_verloop_80);}.cls-9{fill:url(#Naamloos_verloop_103-7);}.cls-10{fill:url(#Naamloos_verloop_78-2);}.cls-11{fill:url(#Naamloos_verloop_103-8);}.cls-12{fill:url(#Naamloos_verloop_116);}.cls-13,.cls-33,.cls-48{fill:#fff;}.cls-13{opacity:0.08;}.cls-14{fill:url(#Naamloos_verloop_451);}.cls-15{fill:url(#Naamloos_verloop_426);}.cls-16{fill:url(#Naamloos_verloop_428);}.cls-17{fill:url(#Naamloos_verloop_451-2);}.cls-18{fill:url(#Naamloos_verloop_426-2);}.cls-19{fill:url(#Naamloos_verloop_428-2);}.cls-20{fill:url(#Naamloos_verloop_426-3);}.cls-21{fill:url(#Naamloos_verloop_426-4);}.cls-22{fill:url(#Naamloos_verloop_428-3);}.cls-23{fill:url(#Naamloos_verloop_103-9);}.cls-24{fill:url(#Naamloos_verloop_75);}.cls-25{fill:url(#Naamloos_verloop_63);}.cls-26{fill:url(#Naamloos_verloop_75-2);}.cls-27{fill:url(#Naamloos_verloop_75-3);}.cls-28{fill:url(#Naamloos_verloop_63-2);}.cls-29{fill:url(#Naamloos_verloop_75-4);}.cls-30{fill:url(#Naamloos_verloop_63-3);}.cls-31{fill:url(#Naamloos_verloop_63-4);}.cls-32{fill:url(#Naamloos_verloop_63-5);}.cls-33{opacity:0.21;}.cls-34{fill:url(#Naamloos_verloop_17);}.cls-35{fill:url(#Naamloos_verloop_17-2);}.cls-36{fill:url(#Naamloos_verloop_75-5);}.cls-37{fill:url(#Naamloos_verloop_75-6);}.cls-38{fill:url(#Naamloos_verloop_451-3);}.cls-39{fill:url(#Naamloos_verloop_426-5);}.cls-40{fill:url(#Naamloos_verloop_428-4);}.cls-41{fill:none;}.cls-42{fill:url(#Naamloos_verloop_431);}.cls-43{fill:url(#Naamloos_verloop_425);}.cls-44{fill:url(#Naamloos_verloop_433);}.cls-45{fill:url(#Naamloos_verloop_431-2);}.cls-46{fill:url(#Naamloos_verloop_441);}.cls-47{fill:url(#Naamloos_verloop_433-2);}.cls-48{opacity:0.17;}.cls-49{fill:url(#Naamloos_verloop_431-3);}.cls-50{fill:url(#Naamloos_verloop_433-3);}.cls-51{fill:url(#Naamloos_verloop_426-6);}.cls-52{fill:url(#Naamloos_verloop_426-7);}.cls-53{fill:url(#Naamloos_verloop_426-8);}.cls-54{fill:url(#Naamloos_verloop_426-9);}.cls-55{fill:url(#Naamloos_verloop_165);}.cls-56{fill:url(#Naamloos_verloop_168);}.cls-57{fill:url(#Naamloos_verloop_165-2);}.cls-58{fill:url(#Naamloos_verloop_165-3);}.cls-59{fill:url(#Naamloos_verloop_168-2);}.cls-60{fill:url(#Naamloos_verloop_165-4);}.cls-61{fill:url(#Naamloos_verloop_168-3);}.cls-62{fill:url(#Naamloos_verloop_168-4);}.cls-63{fill:url(#Naamloos_verloop_168-5);}.cls-64{fill:url(#Naamloos_verloop_167);}.cls-65{fill:url(#Naamloos_verloop_167-2);}.cls-66{fill:url(#Naamloos_verloop_165-5);}.cls-67{fill:url(#Naamloos_verloop_165-6);}.cls-68{fill:url(#Naamloos_verloop_14);}.cls-69{fill:url(#Naamloos_verloop_22);}.cls-70{fill:#c43a80;}.cls-71{fill:url(#Naamloos_verloop_22-2);}.cls-72{fill:url(#Naamloos_verloop_14-2);}.cls-73{fill:url(#Naamloos_verloop_9);}.cls-74{fill:url(#Naamloos_verloop_14-3);}.cls-75{fill:url(#Naamloos_verloop_22-3);}.cls-76{fill:url(#Naamloos_verloop_17-3);}.cls-77{fill:#656565;}.cls-78{fill:url(#Naamloos_verloop_14-4);}.cls-79{fill:url(#Naamloos_verloop_297);}.cls-80{fill:url(#Naamloos_verloop_299);}.cls-81{fill:#c4793a;}.cls-82{fill:url(#Naamloos_verloop_299-2);}.cls-83{fill:url(#Naamloos_verloop_297-2);}.cls-84{fill:url(#Naamloos_verloop_300);}.cls-85{fill:url(#Naamloos_verloop_297-3);}.cls-86{fill:url(#Naamloos_verloop_299-3);}.cls-87{fill:url(#Naamloos_verloop_298);}.cls-88{fill:url(#Naamloos_verloop_297-4);}.cls-89{fill:#603d96;}.cls-90{fill:url(#Naamloos_verloop_22-4);}.cls-91{fill:url(#Naamloos_verloop_22-5);}.cls-92{fill:url(#Naamloos_verloop_25);}.cls-93{fill:url(#Naamloos_verloop_14-5);}.cls-94{fill:url(#Naamloos_verloop_17-4);}.cls-95{fill:url(#Naamloos_verloop_25-2);}.cls-96{fill:url(#Naamloos_verloop_9-2);}.cls-97{fill:url(#Naamloos_verloop_14-6);}.cls-98{fill:url(#Naamloos_verloop_17-5);}.cls-99{fill:url(#Naamloos_verloop_14-7);}.cls-100{fill:url(#Naamloos_verloop_80-2);}</style><linearGradient id="Naamloos_verloop_103" x1="55.25" y1="354.95" x2="137.41" y2="354.95" gradientUnits="userSpaceOnUse"><stop offset="0" stop-color="#2c2362"/><stop offset="1" stop-color="#181336"/><stop offset="1"/></linearGradient><linearGradient id="Naamloos_verloop_78" x1="321.96" y1="247.44" x2="50.83" y2="247.44" gradientUnits="userSpaceOnUse"><stop offset="0" stop-color="#2c2362"/><stop offset="1" stop-color="#3d3a83"/></linearGradient><linearGradient id="Naamloos_verloop_103-2" x1="240.68" y1="361.24" x2="307.2" y2="361.24" xlink:href="#Naamloos_verloop_103"/><linearGradient id="Naamloos_verloop_103-3" x1="183.32" y1="221.02" x2="125.98" y2="221.02" xlink:href="#Naamloos_verloop_103"/><linearGradient id="Naamloos_verloop_103-4" x1="-254.11" y1="167.12" x2="-311.45" y2="167.12" gradientTransform="matrix(-0.97, -0.23, -0.23, 0.97, -10.67, -1.24)" xlink:href="#Naamloos_verloop_103"/><linearGradient id="Naamloos_verloop_103-5" x1="292.85" y1="270.6" x2="215.65" y2="270.6" xlink:href="#Naamloos_verloop_103"/><linearGradient id="Naamloos_verloop_103-6" x1="89.34" y1="349.07" x2="142.5" y2="349.07" xlink:href="#Naamloos_verloop_103"/><linearGradient id="Naamloos_verloop_80" x1="94.43" y1="315.13" x2="301.36" y2="315.13" gradientUnits="userSpaceOnUse"><stop offset="0" stop-color="#3e6ab1"/><stop offset="1" stop-color="#3d3a83"/></linearGradient><linearGradient id="Naamloos_verloop_103-7" x1="257.16" y1="166.38" x2="290.71" y2="166.38" xlink:href="#Naamloos_verloop_103"/><linearGradient id="Naamloos_verloop_78-2" x1="289.02" y1="158.68" x2="124.21" y2="158.68" xlink:href="#Naamloos_verloop_78"/><linearGradient id="Naamloos_verloop_103-8" x1="229.26" y1="151.82" x2="134.99" y2="151.82" xlink:href="#Naamloos_verloop_103"/><linearGradient id="Naamloos_verloop_116" x1="138.81" y1="155.88" x2="255.47" y2="155.88" gradientUnits="userSpaceOnUse"><stop offset="0" stop-color="#3e6ab1"/><stop offset="0.04" stop-color="#3e63aa"/><stop offset="0.18" stop-color="#3d5099"/><stop offset="0.34" stop-color="#3d448c"/><stop offset="0.55" stop-color="#3d3c85"/><stop offset="1" stop-color="#3d3a83"/></linearGradient><linearGradient id="Naamloos_verloop_451" x1="209.99" y1="154.29" x2="150.09" y2="154.29" gradientUnits="userSpaceOnUse"><stop offset="0" stop-color="#c9d2d7"/><stop offset="0.42" stop-color="#eef1f4"/><stop offset="1" stop-color="#c9d2d8"/></linearGradient><linearGradient id="Naamloos_verloop_426" x1="139.11" y1="154.29" x2="209.99" y2="154.29" gradientUnits="userSpaceOnUse"><stop offset="0" stop-color="#798c96"/><stop offset="1" stop-color="#c9d2d8"/></linearGradient><linearGradient id="Naamloos_verloop_428" x1="133.85" y1="157.12" x2="209.06" y2="157.12" gradientUnits="userSpaceOnUse"><stop offset="0" stop-color="#adbac1"/><stop offset="1" stop-color="#c9d2d8"/></linearGradient><linearGradient id="Naamloos_verloop_451-2" x1="139.11" y1="155.24" x2="214.41" y2="155.24" xlink:href="#Naamloos_verloop_451"/><linearGradient id="Naamloos_verloop_426-2" x1="160.79" y1="142" x2="174.55" y2="142" xlink:href="#Naamloos_verloop_426"/><linearGradient id="Naamloos_verloop_428-2" x1="156.17" y1="158.23" x2="168.46" y2="158.23" xlink:href="#Naamloos_verloop_428"/><linearGradient id="Naamloos_verloop_426-3" x1="194.66" y1="149.7" x2="184.14" y2="149.7" xlink:href="#Naamloos_verloop_426"/><linearGradient id="Naamloos_verloop_426-4" x1="179.13" y1="173.41" x2="177.33" y2="173.41" xlink:href="#Naamloos_verloop_426"/><linearGradient id="Naamloos_verloop_428-3" x1="179.13" y1="173.02" x2="173.2" y2="173.02" xlink:href="#Naamloos_verloop_428"/><linearGradient id="Naamloos_verloop_103-9" x1="186.39" y1="276.65" x2="133.93" y2="276.65" xlink:href="#Naamloos_verloop_103"/><linearGradient id="Naamloos_verloop_75" x1="531.63" y1="-2267.01" x2="550.16" y2="-2267.01" gradientTransform="matrix(0.97, 0.25, 0.25, -0.97, 272.85, -2152.69)" gradientUnits="userSpaceOnUse"><stop offset="0" stop-color="#3e6ab1"/><stop offset="1" stop-color="#229abc"/></linearGradient><linearGradient id="Naamloos_verloop_63" x1="532.44" y1="-2268.07" x2="545.38" y2="-2268.07" gradientTransform="matrix(0.97, 0.25, 0.25, -0.97, 272.85, -2152.69)" gradientUnits="userSpaceOnUse"><stop offset="0" stop-color="#00d5ca"/><stop offset="1" stop-color="#229abc"/></linearGradient><linearGradient id="Naamloos_verloop_75-2" x1="534.84" y1="-2260.64" x2="508.15" y2="-2261.08" xlink:href="#Naamloos_verloop_75"/><linearGradient id="Naamloos_verloop_75-3" x1="515.05" y1="-2271.81" x2="544.57" y2="-2247.35" xlink:href="#Naamloos_verloop_75"/><linearGradient id="Naamloos_verloop_63-2" x1="555.15" y1="-2241.81" x2="518.93" y2="-2242.41" gradientTransform="matrix(0.96, 0.27, 0.27, -0.96, 293.97, -2138.16)" xlink:href="#Naamloos_verloop_63"/><linearGradient id="Naamloos_verloop_75-4" x1="500.91" y1="-2248.96" x2="516.7" y2="-2261.72" xlink:href="#Naamloos_verloop_75"/><linearGradient id="Naamloos_verloop_63-3" x1="703.98" y1="-912.43" x2="743.38" y2="-912.43" gradientTransform="matrix(0.18, 0.98, 0.98, -0.18, 996.92, -707.55)" xlink:href="#Naamloos_verloop_63"/><linearGradient id="Naamloos_verloop_63-4" x1="135.35" y1="-470.01" x2="177.89" y2="-470.01" gradientTransform="matrix(-0.25, 0.97, 0.97, 0.25, 683.17, 119.67)" xlink:href="#Naamloos_verloop_63"/><linearGradient id="Naamloos_verloop_63-5" x1="135.35" y1="-485.83" x2="174.75" y2="-485.83" gradientTransform="matrix(-0.25, 0.97, 0.97, 0.25, 683.17, 119.67)" xlink:href="#Naamloos_verloop_63"/><linearGradient id="Naamloos_verloop_17" x1="145.95" y1="-495.42" x2="164.15" y2="-495.42" gradientTransform="matrix(-0.25, 0.97, 0.97, 0.25, 683.17, 119.67)" gradientUnits="userSpaceOnUse"><stop offset="0" stop-color="#d8d8d8"/><stop offset="1" stop-color="#adbac1"/></linearGradient><linearGradient id="Naamloos_verloop_17-2" x1="164.15" y1="-501.04" x2="145.95" y2="-501.04" gradientTransform="matrix(-1, 0, 0, 1, 314.32, 645.36)" xlink:href="#Naamloos_verloop_17"/><linearGradient id="Naamloos_verloop_75-5" x1="-122.72" y1="-1294.11" x2="-140.92" y2="-1294.11" gradientTransform="matrix(0, 2.16, 4.9, 0, 6592.49, 450.45)" xlink:href="#Naamloos_verloop_75"/><linearGradient id="Naamloos_verloop_75-6" x1="-136.78" y1="-1298.22" x2="-126.86" y2="-1290" gradientTransform="matrix(0, 2.16, 4.9, 0, 6592.49, 450.45)" xlink:href="#Naamloos_verloop_75"/><linearGradient id="Naamloos_verloop_451-3" x1="894" y1="-803.02" x2="841.22" y2="-803.02" gradientTransform="translate(-962.74 98.87) rotate(46.52)" xlink:href="#Naamloos_verloop_451"/><linearGradient id="Naamloos_verloop_426-5" x1="893.99" y1="-797.67" x2="860.33" y2="-797.67" gradientTransform="translate(-962.74 98.87) rotate(46.52)" xlink:href="#Naamloos_verloop_426"/><linearGradient id="Naamloos_verloop_428-4" x1="890.61" y1="-798.53" x2="860.33" y2="-798.53" gradientTransform="translate(-962.74 98.87) rotate(46.52)" xlink:href="#Naamloos_verloop_428"/><linearGradient id="Naamloos_verloop_431" x1="841.21" y1="-777.49" x2="894" y2="-777.49" gradientTransform="translate(-962.74 98.87) rotate(46.52)" gradientUnits="userSpaceOnUse"><stop offset="0" stop-color="#f9b220"/><stop offset="1" stop-color="#f17d15"/></linearGradient><linearGradient id="Naamloos_verloop_425" x1="860.2" y1="-869.55" x2="875.01" y2="-869.55" gradientTransform="translate(-604.33 -737.5) rotate(90)" gradientUnits="userSpaceOnUse"><stop offset="0" stop-color="#d8d8d8"/><stop offset="1" stop-color="#c9d2d8"/></linearGradient><linearGradient id="Naamloos_verloop_433" x1="876.46" y1="-872.29" x2="858.75" y2="-872.29" gradientTransform="translate(-605.08 -739.38) rotate(90)" gradientUnits="userSpaceOnUse"><stop offset="0" stop-color="#ec7241"/><stop offset="1" stop-color="#f17d15"/></linearGradient><linearGradient id="Naamloos_verloop_431-2" x1="841.22" y1="-797.8" x2="894" y2="-797.8" xlink:href="#Naamloos_verloop_431"/><linearGradient id="Naamloos_verloop_441" x1="894" y1="-796.5" x2="886.82" y2="-796.5" gradientTransform="translate(-962.74 98.87) rotate(46.52)" gradientUnits="userSpaceOnUse"><stop offset="0" stop-color="#ec7241"/><stop offset="1" stop-color="#f15815"/></linearGradient><linearGradient id="Naamloos_verloop_433-2" x1="890.61" y1="-794.72" x2="877.95" y2="-794.72" gradientTransform="translate(-962.74 98.87) rotate(46.52)" xlink:href="#Naamloos_verloop_433"/><linearGradient id="Naamloos_verloop_431-3" x1="858.75" y1="-879.07" x2="876.46" y2="-879.07" gradientTransform="translate(-606.94 -744.05) rotate(90)" xlink:href="#Naamloos_verloop_431"/><linearGradient id="Naamloos_verloop_433-3" x1="876.46" y1="-865.5" x2="858.75" y2="-865.5" gradientTransform="translate(-603.22 -734.72) rotate(90)" xlink:href="#Naamloos_verloop_433"/><linearGradient id="Naamloos_verloop_426-6" x1="859.66" y1="-732.69" x2="859.66" y2="-739.81" gradientTransform="translate(-962.74 98.87) rotate(46.52)" xlink:href="#Naamloos_verloop_426"/><linearGradient id="Naamloos_verloop_426-7" x1="-1169.85" y1="-732.69" x2="-1169.85" y2="-739.81" gradientTransform="matrix(-0.69, -0.73, -0.73, 0.69, -1165.3, -114.74)" xlink:href="#Naamloos_verloop_426"/><linearGradient id="Naamloos_verloop_426-8" x1="845.46" y1="-732.82" x2="845.46" y2="-740.87" gradientTransform="translate(-962.74 98.87) rotate(46.52)" xlink:href="#Naamloos_verloop_426"/><linearGradient id="Naamloos_verloop_426-9" x1="-1132.41" y1="-732.77" x2="-1132.41" y2="-740.83" gradientTransform="matrix(-0.69, -0.73, -0.73, 0.69, -1129.74, -77.24)" xlink:href="#Naamloos_verloop_426"/><linearGradient id="Naamloos_verloop_165" x1="537.98" y1="-2176.11" x2="556.52" y2="-2176.11" gradientTransform="matrix(0.96, 0.27, 0.27, -0.96, 267.06, -2024.67)" gradientUnits="userSpaceOnUse"><stop offset="0" stop-color="#8489b1"/><stop offset="1" stop-color="#9daabc"/></linearGradient><linearGradient id="Naamloos_verloop_168" x1="538.79" y1="-2177.17" x2="551.73" y2="-2177.17" gradientTransform="matrix(0.96, 0.27, 0.27, -0.96, 267.06, -2024.67)" gradientUnits="userSpaceOnUse"><stop offset="0" stop-color="#adc8d5"/><stop offset="1" stop-color="#9daabc"/></linearGradient><linearGradient id="Naamloos_verloop_165-2" x1="541.19" y1="-2169.74" x2="514.5" y2="-2170.18" xlink:href="#Naamloos_verloop_165"/><linearGradient id="Naamloos_verloop_165-3" x1="521.41" y1="-2180.91" x2="550.92" y2="-2156.45" xlink:href="#Naamloos_verloop_165"/><linearGradient id="Naamloos_verloop_168-2" x1="560" y1="-2150.81" x2="523.78" y2="-2151.41" gradientTransform="matrix(0.96, 0.29, 0.29, -0.96, 287.88, -2009.72)" xlink:href="#Naamloos_verloop_168"/><linearGradient id="Naamloos_verloop_165-4" x1="507.27" y1="-2158.06" x2="523.06" y2="-2170.82" xlink:href="#Naamloos_verloop_165"/><linearGradient id="Naamloos_verloop_168-3" x1="624.22" y1="-868.37" x2="663.62" y2="-868.37" gradientTransform="matrix(0.16, 0.99, 0.99, -0.16, 961.53, -565.07)" xlink:href="#Naamloos_verloop_168"/><linearGradient id="Naamloos_verloop_168-4" x1="44.45" y1="-463.66" x2="86.99" y2="-463.66" gradientTransform="matrix(-0.27, 0.96, 0.96, 0.27, 630.99, 255.58)" xlink:href="#Naamloos_verloop_168"/><linearGradient id="Naamloos_verloop_168-5" x1="44.45" y1="-479.48" x2="83.85" y2="-479.48" gradientTransform="matrix(-0.27, 0.96, 0.96, 0.27, 630.99, 255.58)" xlink:href="#Naamloos_verloop_168"/><linearGradient id="Naamloos_verloop_167" x1="55.05" y1="-489.07" x2="73.25" y2="-489.07" gradientTransform="matrix(-0.27, 0.96, 0.96, 0.27, 630.99, 255.58)" gradientUnits="userSpaceOnUse"><stop offset="0" stop-color="#d8d8d8"/><stop offset="1" stop-color="#bdbec1"/></linearGradient><linearGradient id="Naamloos_verloop_167-2" x1="73.25" y1="-494.69" x2="55.05" y2="-494.69" gradientTransform="matrix(-1, 0, 0, 1, 201.51, 678.43)" xlink:href="#Naamloos_verloop_167"/><linearGradient id="Naamloos_verloop_165-5" x1="-158.45" y1="-1284.25" x2="-176.65" y2="-1284.25" gradientTransform="matrix(0, 2.16, 4.9, 0, 6521.8, 568.97)" xlink:href="#Naamloos_verloop_165"/><linearGradient id="Naamloos_verloop_165-6" x1="-172.51" y1="-1288.36" x2="-162.59" y2="-1280.14" gradientTransform="matrix(0, 2.16, 4.9, 0, 6521.8, 568.97)" xlink:href="#Naamloos_verloop_165"/><linearGradient id="Naamloos_verloop_14" x1="258.29" y1="178.33" x2="284.29" y2="178.33" gradientUnits="userSpaceOnUse"><stop offset="0" stop-color="#c9d2d8"/><stop offset="1" stop-color="#ececec"/></linearGradient><linearGradient id="Naamloos_verloop_22" x1="221.13" y1="187.78" x2="281.34" y2="187.78" gradientUnits="userSpaceOnUse"><stop offset="0" stop-color="#913d95"/><stop offset="1" stop-color="#733f96"/></linearGradient><linearGradient id="Naamloos_verloop_22-2" x1="221.13" y1="197.08" x2="231.86" y2="197.08" xlink:href="#Naamloos_verloop_22"/><linearGradient id="Naamloos_verloop_14-2" x1="213.6" y1="198.23" x2="228.66" y2="198.23" xlink:href="#Naamloos_verloop_14"/><linearGradient id="Naamloos_verloop_9" x1="221.13" y1="187.78" x2="281.49" y2="187.78" gradientUnits="userSpaceOnUse"><stop offset="0" stop-color="#ef6280"/><stop offset="1" stop-color="#c43a80"/></linearGradient><linearGradient id="Naamloos_verloop_14-3" x1="259.47" y1="175.89" x2="278.27" y2="175.89" xlink:href="#Naamloos_verloop_14"/><linearGradient id="Naamloos_verloop_22-3" x1="245.99" y1="194.86" x2="266.33" y2="194.86" xlink:href="#Naamloos_verloop_22"/><linearGradient id="Naamloos_verloop_17-3" x1="227.47" y1="198.23" x2="214.79" y2="198.23" gradientTransform="matrix(1, 0, 0, 1, 0, 0)" xlink:href="#Naamloos_verloop_17"/><linearGradient id="Naamloos_verloop_14-4" x1="216.91" y1="198.39" x2="222.16" y2="198.39" xlink:href="#Naamloos_verloop_14"/><linearGradient id="Naamloos_verloop_297" x1="-95.21" y1="159.04" x2="-69.21" y2="159.04" gradientTransform="matrix(-1, 0, 0, 1, 59.3, 0)" gradientUnits="userSpaceOnUse"><stop offset="0" stop-color="#d1c9d8"/><stop offset="1" stop-color="#ececec"/></linearGradient><linearGradient id="Naamloos_verloop_299" x1="-132.37" y1="166.47" x2="-72.15" y2="166.47" gradientTransform="matrix(-1, 0, 0, 1, 59.3, 0)" gradientUnits="userSpaceOnUse"><stop offset="0" stop-color="#95523d"/><stop offset="1" stop-color="#967b78"/></linearGradient><linearGradient id="Naamloos_verloop_299-2" x1="-132.37" y1="173.78" x2="-121.64" y2="173.78" xlink:href="#Naamloos_verloop_299"/><linearGradient id="Naamloos_verloop_297-2" x1="-139.9" y1="174.68" x2="-124.83" y2="174.68" xlink:href="#Naamloos_verloop_297"/><linearGradient id="Naamloos_verloop_300" x1="-132.37" y1="166.47" x2="-72.01" y2="166.47" gradientTransform="matrix(-1, 0, 0, 1, 59.3, 0)" gradientUnits="userSpaceOnUse"><stop offset="0" stop-color="#efb462"/><stop offset="1" stop-color="#c4793a"/></linearGradient><linearGradient id="Naamloos_verloop_297-3" x1="-94.02" y1="157.12" x2="-75.23" y2="157.12" xlink:href="#Naamloos_verloop_297"/><linearGradient id="Naamloos_verloop_299-3" x1="-107.5" y1="172.03" x2="-87.16" y2="172.03" xlink:href="#Naamloos_verloop_299"/><linearGradient id="Naamloos_verloop_298" x1="-126.03" y1="174.68" x2="-138.7" y2="174.68" gradientTransform="matrix(-1, 0, 0, 1, 59.3, 0)" gradientUnits="userSpaceOnUse"><stop offset="0" stop-color="#d8d8d8"/><stop offset="1" stop-color="#b7adc1"/></linearGradient><linearGradient id="Naamloos_verloop_297-4" x1="-136.59" y1="174.81" x2="-131.34" y2="174.81" xlink:href="#Naamloos_verloop_297"/><linearGradient id="Naamloos_verloop_22-4" x1="-643.6" y1="13.27" x2="-592.94" y2="13.27" gradientTransform="translate(658.52 -200.32) rotate(-38.46)" xlink:href="#Naamloos_verloop_22"/><linearGradient id="Naamloos_verloop_22-5" x1="-647.39" y1="18.62" x2="-635.49" y2="18.62" gradientTransform="translate(658.52 -200.32) rotate(-38.46)" xlink:href="#Naamloos_verloop_22"/><linearGradient id="Naamloos_verloop_25" x1="-632.46" y1="17.2" x2="-622.89" y2="17.2" gradientTransform="translate(658.52 -200.32) rotate(-38.46)" gradientUnits="userSpaceOnUse"><stop offset="0" stop-color="#c53b80"/><stop offset="1" stop-color="#c43a80"/></linearGradient><linearGradient id="Naamloos_verloop_14-5" x1="-388.51" y1="-121.64" x2="-358.85" y2="-121.64" gradientTransform="translate(546.37 336.75)" xlink:href="#Naamloos_verloop_14"/><linearGradient id="Naamloos_verloop_17-4" x1="-361.2" y1="-121.64" x2="-386.16" y2="-121.64" gradientTransform="translate(546.37 336.75)" xlink:href="#Naamloos_verloop_17"/><linearGradient id="Naamloos_verloop_25-2" x1="-620.87" y1="12.02" x2="-589.79" y2="12.02" xlink:href="#Naamloos_verloop_25"/><linearGradient id="Naamloos_verloop_9-2" x1="-630.14" y1="4.61" x2="-587.03" y2="4.61" gradientTransform="translate(658.52 -200.32) rotate(-38.46)" xlink:href="#Naamloos_verloop_9"/><linearGradient id="Naamloos_verloop_14-6" x1="533.28" y1="-1871.11" x2="546.71" y2="-1871.11" gradientTransform="translate(-1690.26 -368.29) rotate(90)" xlink:href="#Naamloos_verloop_14"/><linearGradient id="Naamloos_verloop_17-5" x1="545.65" y1="-1871.11" x2="534.35" y2="-1871.11" gradientTransform="translate(-1690.26 -368.29) rotate(90)" xlink:href="#Naamloos_verloop_17"/><linearGradient id="Naamloos_verloop_14-7" x1="536.23" y1="-1870.97" x2="540.91" y2="-1870.97" gradientTransform="translate(-1620.19 912.59) rotate(51.54)" xlink:href="#Naamloos_verloop_14"/><linearGradient id="Naamloos_verloop_80-2" x1="106.97" y1="195.46" x2="318.61" y2="195.46" xlink:href="#Naamloos_verloop_80"/></defs><path class="cls-1" d="M95.31,349.69l42.1,63.83s-67-11.68-79.94-42.43,34.62-74.71,34.62-74.71Z"/><path class="cls-2" d="M198.27,77.22c21.56-5.81,109.37,48.39,115,74.63,4.17,19.47-10.58,68.59-18.46,92.63a29.85,29.85,0,0,0,2.72,24.67C306.93,284.8,322,316.07,322,356c0,58.1-52.47,43.1-57.16,52.48s-141.49,13.11-146.18,5.62-73.09-55.74-67.46-71.44,49.66-101.91,49.66-101.91-2.73-19.16,1-31.34,24.28-10.83,24.28-23.95c0-4.65-9.74-12.23-13.66-20.6-7.11-15.22-9.52-33.05-2.27-40.68,2.11-2.21,8.24-2.75,14-6.22C149.26,102.92,198.27,77.22,198.27,77.22Z"/><path class="cls-3" d="M301.36,332.92l-60.68,56.36s47.53,2.7,60.68-8.78S301.36,332.92,301.36,332.92Z"/><path class="cls-4" d="M127.89,185.47l55.43,71.27S125.61,222.82,126,202.59,127.89,185.47,127.89,185.47Z"/><path class="cls-5" d="M260.45,197.79l-70.29,56.66s64-19.78,68.23-39.56S260.45,197.79,260.45,197.79Z"/><path class="cls-6" d="M283.84,247.44l-9.9,53.77L215.65,318.8s65.93-68.91,74.53-90.18S283.84,247.44,283.84,247.44Z"/><path class="cls-7" d="M100.41,343.58l42.09,63.83s-35.17,5.88-48.07-24.87,2.75-92.27,2.75-92.27Z"/><path class="cls-8" d="M107,222.84s-4.75,26-8.4,55.5c-4,32.13-6.66,68.4-.48,79.72,11.84,21.72,25.66,49.35,44.41,49.35s141.15-23.69,155-47.37-13.63-112.6-13.63-112.6S223.67,330,187.15,330.61c-26.32.42-54.82-64.81-54.82-64.81L117,241.07Z"/><path class="cls-9" d="M257.16,121.37a70.09,70.09,0,0,1,0,90,41.1,41.1,0,0,0,21-11.81,48.62,48.62,0,0,0,12.53-25.79,55.74,55.74,0,0,0-2.15-17.12C281.8,133.57,261.73,123.52,257.16,121.37Z"/><path class="cls-10" d="M204.67,88.75s86.18,35.16,84.33,75.93-83.33,39.41-90.66,63.94c0,0-87.26-56.68-72.43-86.72S183.83,100,204.67,88.75"/><path class="cls-11" d="M198.61,112.37l30.65,68.4s-23.17,14.66-32,15.38c-19.16,1.55-88.79-26.12-51.39-57.21C204.17,90.47,198.61,112.37,198.61,112.37Z"/><path class="cls-12" d="M212.15,102.07s64,34.82,36.39,66.57c-4.91,5.63-16.9,10.3-28,13.5-1.38.4-2.74,13.32-2.74,13.32s-3.84-11.54-5.05-11.25c-1.68.41-3.29.77-4.77,1.09-3.13.66-1.4,24.38-1.4,24.38s-5.24-23.12-8.73-23.05c-33.28.64-66.8-13-57.51-35.86C155.28,114,212.15,102.07,212.15,102.07Z"/><path class="cls-13" d="M114.58,353.35s98.05,35.75,136.87,0,35.32-39.75,35.32-39.75,11.7,34.65-8.24,47.93S228,396.25,176.89,387.06,114.58,353.35,114.58,353.35Z"/><polygon class="cls-14" points="162.32 180.84 150.09 125.38 188.49 122.52 209.99 155.24 197.02 183.62 166.04 186.06 162.32 180.84"/><polygon class="cls-15" points="158.79 122.52 156.42 137.69 144.28 143.76 155.12 158.51 139.12 167.19 152.77 165.09 150.13 168.27 152.77 180.36 160.97 165.45 173.21 186.06 190.9 182.8 197.63 173.69 202.62 168.27 192.42 170.22 207.17 155.24 198.06 158.29 199.36 148.53 209.99 135.96 198.93 138.99 200.01 122.52 188.52 130.97 181.58 125.76 171.45 126.21 165.75 130.32 158.79 122.52"/><polygon class="cls-16" points="168.46 118.81 158.79 122.52 155.78 140.91 142.04 136.83 142.04 146.51 139.12 149 155.78 155.24 139.12 164.89 133.85 171.75 145.07 168.63 155.78 175.8 174.22 172.68 176.76 192.94 184.39 195.43 187.83 178.24 209.06 167.07 204.5 162.09 195.23 159.28 203.02 152.12 184.39 150.87 207.3 130 194.61 123.76 176.76 139.34 168.46 118.81"/><polygon class="cls-17" points="142.04 136.83 155.78 130.5 168.42 136.83 168.46 118.81 174.7 124.17 184.39 136.83 198.55 132.45 214.41 145.12 194.66 145.12 192.22 156.81 207.3 153.4 195.14 168.99 207.98 173.86 187.83 178.24 186.37 191.68 173.21 186.06 168.46 169.47 152.77 180.36 152.77 165.09 139.12 155.24 152.77 152.91 142.04 136.83"/><polygon class="cls-18" points="160.79 133.01 174.55 150.98 169.99 140.91 171.45 135.54 168.42 136.83 160.79 133.01"/><polygon class="cls-19" points="156.17 143.67 164.71 156.27 163.68 172.79 168.46 169.47 166.33 165.41 168.46 158.23 156.17 143.67"/><polygon class="cls-20" points="194.66 145.12 190.86 148.78 184.39 150.87 184.14 154.29 186.15 151.68 190.07 152.47 193.33 151.47 194.66 145.12"/><polygon class="cls-21" points="177.59 158.23 178.55 164.12 179.13 168.56 179.13 188.59 177.33 187.82 177.59 158.23"/><polygon class="cls-22" points="173.21 186.06 177.59 158.23 177.59 165.48 179.13 168.56 177.33 187.82 173.21 186.06"/><path class="cls-23" d="M133.93,226.06a157.81,157.81,0,0,0,17.22,60.09c15.89,30,35.24,41.08,35.24,41.08Z"/><polygon class="cls-24" points="217.37 184.99 236.25 186.01 230.94 167.66 217.37 184.99"/><polygon class="cls-25" points="218.46 184.01 231.52 185.19 227.08 170.11 218.46 184.01"/><path class="cls-26" d="M196.09,174.19l16.2,12.36a2.76,2.76,0,0,0,3.51-.14l6.14-5.53,6.51-30-15.58-2.75Z"/><polygon class="cls-27" points="200.45 171.04 239.46 185.41 235.71 155.93 208.09 146.2 200.45 171.04"/><path class="cls-28" d="M199.38,163.81l-5.14,7.76L213,181.13a2.36,2.36,0,0,0,2.42-.15l16.27-11.21,4-13.84-22.2,0Z"/><path class="cls-29" d="M190.08,175.88s2.69,1.16,4.47-.53,23.21-14.56,22.78-26.76l-15.33-4Z"/><path id="Union_32" data-name="Union 32" class="cls-30" d="M246.69,146.18l-16,2.94-7.61,4.61-6.48,3.77-10.76,11.29-.22,3.35,10.16-3.63,6.95,2.35-4.83,8.53,19,8.07a3.48,3.48,0,0,0,2,.22l15-2.75c2.56-.48,3-9.53,1.07-20.23S249.26,145.71,246.69,146.18Z"/><path id="Union_32-2" data-name="Union 32" class="cls-31" d="M209.64,137l-25.73-6.66-20,15.18,10.13,23,16,7.39A31.29,31.29,0,0,0,201.24,167c3.76-4.86,3.3-7.6,7.55-11.66,4.43-4.25,7.75-4,8.54-6.75C217.89,146.57,217.1,143.1,209.64,137Z"/><path id="Path_111" data-name="Path 111" class="cls-32" d="M163.91,145.52l10.13,23s6.4-3.65,10.05-17.75-.18-20.4-.18-20.4Z"/><path id="Path_111-2" data-name="Path 111" class="cls-33" d="M163.91,145.52l10.13,23s6.4-3.65,10.05-17.75-.18-20.4-.18-20.4Z"/><path id="Union_35" data-name="Union 35" class="cls-34" d="M170.36,137.79l-8.81-2.28L157,153.13l8.81,2.27c1.14.3,3.09-3.4,4.35-8.27S171.5,138.09,170.36,137.79Z"/><ellipse id="Ellipse_229" data-name="Ellipse 229" class="cls-35" cx="159.27" cy="144.32" rx="9.1" ry="2.14" transform="translate(-20.33 262.38) rotate(-75.5)"/><ellipse id="Ellipse_229-2" data-name="Ellipse 229" class="cls-36" cx="250.14" cy="165.45" rx="10.49" ry="19.67" transform="translate(-31.76 63.1) rotate(-13.53)"/><ellipse id="Ellipse_229-3" data-name="Ellipse 229" class="cls-37" cx="250.14" cy="165.45" rx="9.47" ry="17.76" transform="translate(-31.76 63.1) rotate(-13.53)"/><path class="cls-38" d="M248,182.77,191.79,236.1a7.11,7.11,0,0,1-4.94,2l-6.07-.13a4.52,4.52,0,0,1-4.58-4.89l.13-3.37a4.59,4.59,0,0,0-5.43-4.85,4.87,4.87,0,0,1-4.21-1.37h0a4.83,4.83,0,0,1-1.13-4.26A4.85,4.85,0,0,0,164.4,215a4.67,4.67,0,0,0-3.41-1.41l-3.36-.05a4.88,4.88,0,0,1-2.62-.75,4.33,4.33,0,0,1-1.61-1.88,5.09,5.09,0,0,1-.42-2.2l.19-6.07a6.52,6.52,0,0,1,.79-2.84,7.71,7.71,0,0,1,1.51-2l56.24-53.34c11-10.46,32-12.54,39.11-12.95a7.21,7.21,0,0,0,4.47-2l3.08-2.93c2.59-2.45,6.31-2.73,8.3-.62l2.79,2.93c2,2.11,1.51,5.8-1.07,8.25l-3.09,2.93a7.27,7.27,0,0,0-2.26,4.36C262.25,151.49,259.06,172.31,248,182.77Z"/><path class="cls-39" d="M233.4,190.4c-20.62,16-44.66,37.08-58.6,35.59h0a4.6,4.6,0,0,1,1.53,3.76l-.14,3.36a4.54,4.54,0,0,0,4.59,4.9l6.07.13a7.09,7.09,0,0,0,4.93-2L248,182.77c11-10.46,14.22-31.28,15-38.36a7.27,7.27,0,0,1,2.26-4.36l-10-10.56S254,174.41,233.4,190.4Z"/><path class="cls-40" d="M229,185c-15.47,13.81-43.81,29.1-56.2,35.49-3.77,1.94-6.06,3.06-6.06,3.06h0l.27.26.18.14a5,5,0,0,0,3.76,1h0a4.59,4.59,0,0,1,5.21,3.13c4.78.86,11.25.33,19.15-4.36,18-10.66,63.31-50.9,63.21-74s-3.18-20.18-3.18-20.18S249.12,167,229,185Z"/><path class="cls-41" d="M241.35,182.72l-.53-.34"/><path class="cls-42" d="M216.57,212.6a.82.82,0,0,1-.38.2c-1.12.28-3.54-1-6.7-3.28a115,115,0,0,1-14.28-13c-10-10.57-16.73-20.51-15-22.19s11.34,5.53,21.37,16.11a113.94,113.94,0,0,1,12.4,15.2C216.38,209.22,217.4,211.81,216.57,212.6Z"/><rect class="cls-43" x="258.43" y="122.7" width="13.57" height="14.81" transform="translate(-16.75 218.19) rotate(-43.48)"/><rect class="cls-44" x="260.42" y="119.37" width="13.57" height="17.71" transform="translate(-14.91 219.04) rotate(-43.48)"/><path class="cls-45" d="M240.82,182.38a63.7,63.7,0,0,1-5.5-4.25A137.81,137.81,0,0,1,225,168.26c-9.95-10.5-16.61-20.36-15-22.15L180.3,174.26l-.08.08-.27.25.08.08,25.71,27.12,5.59,5.89,2.3,2.42,2.56,2.7.08.09.3-.29,29.78-28.24c-.67.64-2.47,0-5-1.64Z"/><path class="cls-46" d="M246.35,184.36l-30.08,28.53-.08-.09c-1.12.28-3.54-1-6.7-3.28l0-.05c.9-.69,3.68-3.16,4.58-3.86,6.52-5,13.1-10.36,19.37-15.21a36,36,0,0,0,7.42-8l.53.34C243.88,184.35,245.68,185,246.35,184.36Z"/><path class="cls-47" d="M241.35,182.72a230.3,230.3,0,0,1-25.68,25.65c-.68.59-2.84,2.39-3.51,3-1.32-.86-2.68-1.81-4.08-2.88a67.1,67.1,0,0,1-5.5-4.69c1.61-1,4-2.49,6.91-4.36A166.22,166.22,0,0,0,229,185a53.88,53.88,0,0,0,6.37-6.85,63.7,63.7,0,0,0,5.5,4.25Z"/><path class="cls-48" d="M251.88,132.72S194,162.08,174.43,191c0,0,27.16,5.15,32.09-8.14C215.84,157.69,251.88,132.72,251.88,132.72Z"/><path class="cls-48" d="M266.45,120.41s-5.51,2-5.58,5.29,1.26-2.13,5.48.2,11.87,4.08,7.12,1.92C270.7,126.56,266.45,120.41,266.45,120.41Z"/><ellipse class="cls-49" cx="272.13" cy="123.55" rx="1.46" ry="8.85" transform="translate(-10.35 221.15) rotate(-43.48)"/><ellipse class="cls-50" cx="262.28" cy="132.89" rx="1.46" ry="8.85" transform="translate(-19.48 216.93) rotate(-43.48)"/><path class="cls-51" d="M166.68,223.52a4.83,4.83,0,0,1-1.13-4.26A4.85,4.85,0,0,0,164.4,215a4.67,4.67,0,0,0-3.41-1.41l-3.36-.05a4.88,4.88,0,0,1-2.62-.75,5.11,5.11,0,0,1,.45-.48c2.59-2.45,7.13-1.87,10.15,1.32S168.94,221,166.68,223.52Z"/><path class="cls-52" d="M166.65,223.48a4.81,4.81,0,0,0,4.19,1.36,4.84,4.84,0,0,1,4.2,1.37,4.64,4.64,0,0,1,1.23,3.48l-.13,3.36a4.94,4.94,0,0,0,.61,2.66c.17-.13.35-.28.51-.43,2.58-2.45,2.24-7-.78-10.2S169.28,221.36,166.65,223.48Z"/><path class="cls-53" d="M153.4,210.9a5.09,5.09,0,0,1-.42-2.2l.19-6.07a6.52,6.52,0,0,1,.79-2.84,8.61,8.61,0,0,1,1.39,6.9A9.64,9.64,0,0,1,153.4,210.9Z"/><path class="cls-54" d="M178.53,237.47a5,5,0,0,0,2.18.53l6.07.14a6.59,6.59,0,0,0,2.88-.64,8.6,8.6,0,0,0-6.82-1.75A9.7,9.7,0,0,0,178.53,237.47Z"/><polygon class="cls-55" points="194.62 225.59 213.47 226.99 208.54 208.53 194.62 225.59"/><polygon class="cls-56" points="195.73 224.63 208.76 226.08 204.63 210.91 195.73 224.63"/><path class="cls-57" d="M173.57,214.35,189.51,227A2.74,2.74,0,0,0,193,227l6.26-5.4,7.11-29.85-15.52-3.07Z"/><polygon class="cls-58" points="177.99 211.3 216.7 226.45 213.54 196.91 186.13 186.61 177.99 211.3"/><path class="cls-59" d="M177.06,204l-5.29,7.65,18.54,9.95a2.36,2.36,0,0,0,2.42-.11l16.5-10.87,4.31-13.75-22.2-.42Z"/><path class="cls-60" d="M167.52,215.92s2.67,1.22,4.48-.44,23.5-14.08,23.32-26.29l-15.24-4.28Z"/><path id="Union_32-3" data-name="Union 32" class="cls-61" d="M224.73,187.38,208.66,190l-7.7,4.45-6.56,3.64-11,11.07-.29,3.34,10.24-3.42,6.9,2.48-5,8.44L214,228.45a3.45,3.45,0,0,0,2,.26l15-2.45c2.57-.41,3.24-9.46,1.49-20.2S227.3,187,224.73,187.38Z"/><path id="Union_32-4" data-name="Union 32" class="cls-62" d="M187.87,177.45l-25.59-7.18L142,185l9.67,23.17,15.88,7.72a31.32,31.32,0,0,0,11.34-8.64c3.86-4.79,3.45-7.54,7.78-11.52,4.52-4.15,7.83-3.79,8.68-6.57C195.93,187.18,195.2,183.7,187.87,177.45Z"/><path id="Path_111-3" data-name="Path 111" class="cls-63" d="M142,185l9.67,23.17s6.47-3.51,10.4-17.54.24-20.39.24-20.39Z"/><path id="Path_111-4" data-name="Path 111" class="cls-33" d="M142,185l9.67,23.17s6.47-3.51,10.4-17.54.24-20.39.24-20.39Z"/><path id="Union_35-2" data-name="Union 35" class="cls-64" d="M148.58,177.44,139.82,175,134.9,192.5l8.76,2.46c1.14.32,3.16-3.35,4.52-8.19S149.72,177.76,148.58,177.44Z"/><ellipse id="Ellipse_229-4" data-name="Ellipse 229" class="cls-65" cx="137.36" cy="183.74" rx="9.1" ry="2.14" transform="translate(-76.65 266.37) rotate(-74.33)"/><ellipse id="Ellipse_229-5" data-name="Ellipse 229" class="cls-66" cx="227.78" cy="206.72" rx="10.49" ry="19.67" transform="translate(-38.97 53.55) rotate(-12.36)"/><ellipse id="Ellipse_229-6" data-name="Ellipse 229" class="cls-67" cx="227.78" cy="206.72" rx="9.47" ry="17.76" transform="translate(-38.97 53.55) rotate(-12.36)"/><path class="cls-68" d="M278.38,172.33c6.18,9.78,7.65,23.45,3.76,25.44s-12.88-7.27-17.7-15.59-8.26-20.76-4.65-23.12S273.08,164,278.38,172.33Z"/><path class="cls-69" d="M259.47,159l-8.16,17.57-10.17-2.67-20,6.8v35.09a13.77,13.77,0,0,0,9.32,0l7.31-4.12h0l8.23,4.94,10.17-4.34,11.5.74,13.68-14.76Z"/><polygon class="cls-70" points="227.8 212.25 239.55 203.3 241.83 218.31 259.47 206.76 234.6 199.93 227.8 212.25"/><path class="cls-71" d="M221.13,180.68l3.58-3.1s16.08,21,0,39Z"/><ellipse class="cls-72" cx="221.13" cy="198.23" rx="7.53" ry="17.54"/><polygon class="cls-70" points="248.93 170.68 245.99 187.36 269.64 183.94 265.39 167.58 248.93 170.68"/><path class="cls-73" d="M221.13,180.68s12-11,14.48-9S248,186,248,186l2-14.63h13.9L259.47,159s24.1,4,21.87,39.25L263.92,209l-7-1.79-13.79,9.34-6-13.87-9.36,9.53a34.35,34.35,0,0,0,4.08-15.42c.09-4.57.2-10.4-3.9-13.77A11.42,11.42,0,0,0,221.13,180.68Z"/><path class="cls-74" d="M259.47,159a30.42,30.42,0,0,1,15.14,33.81c.57-.85,6.24-9.79,2.24-20.08A22.1,22.1,0,0,0,259.47,159Z"/><path class="cls-75" d="M246,192.79s12,7.27,16.34,5.24a7.14,7.14,0,0,0,4-6.7s-.67.92-5.34,1.46S246,192.79,246,192.79Z"/><ellipse class="cls-76" cx="221.13" cy="198.23" rx="6.34" ry="14.76"/><path class="cls-77" d="M223.29,189.7a7.19,7.19,0,0,1-1.88,4.38,7.19,7.19,0,0,1-1.88-4.38c0-2.42.84-4.38,1.88-4.38S223.29,187.28,223.29,189.7Z"/><path class="cls-78" d="M221.56,198.47c.79-2.18.8-4.15,0-4.45s-2.08,1.18-2.94,3.33a3.25,3.25,0,0,0-1.48,1.75,2.68,2.68,0,0,0,1.13,3.57c1.2.46,2.64-.4,3.22-1.91A3.24,3.24,0,0,0,221.56,198.47Z"/><ellipse class="cls-77" cx="219.32" cy="199.93" rx="0.98" ry="1.32" transform="matrix(0.36, -0.93, 0.93, 0.36, -45.58, 333.71)"/><path class="cls-79" d="M134.42,154.33c-6.18,7.68-7.66,18.43-3.76,20s12.88-5.71,17.7-12.25,8.26-16.33,4.65-18.18S139.72,147.73,134.42,154.33Z"/><path class="cls-80" d="M153.33,143.83l8.16,13.81,10.17-2.1,20,5.35v27.58a17.27,17.27,0,0,1-9.32,0L175,185.23h0l-8.23,3.88-10.18-3.41-11.49.59-13.69-11.61Z"/><polygon class="cls-81" points="185 185.71 173.24 178.67 170.97 190.47 153.32 181.39 178.19 176.02 185 185.71"/><path class="cls-82" d="M191.67,160.89l-3.59-2.44s-16.07,16.5,0,30.66Z"/><ellipse class="cls-83" cx="191.67" cy="174.68" rx="7.53" ry="13.79"/><polygon class="cls-81" points="163.87 153.03 166.81 166.13 143.16 163.45 147.41 150.59 163.87 153.03"/><path class="cls-84" d="M191.67,160.89s-12-8.67-14.48-7.11-12.41,11.31-12.41,11.31l-2-11.5H148.9l4.43-9.76s-24.11,3.11-21.88,30.85l17.42,8.5,7-1.4,13.79,7.33,5.95-10.89L185,185.7a22.83,22.83,0,0,1-4.09-12.12c-.08-3.59-.19-8.17,3.9-10.82A13.6,13.6,0,0,1,191.67,160.89Z"/><path class="cls-85" d="M153.33,143.83c-2.24.95-9.48,4.31-13.46,11.51a19.4,19.4,0,0,0-1.69,15.07c-.56-.67-6.23-7.7-2.23-15.79C138.79,148.87,145.45,144.75,153.33,143.83Z"/><path class="cls-86" d="M166.81,170.41s-12,5.72-16.34,4.12-4-5.27-4-5.27.67.72,5.33,1.15S166.81,170.41,166.81,170.41Z"/><ellipse class="cls-87" cx="191.67" cy="174.68" rx="6.34" ry="11.6"/><path class="cls-77" d="M189.5,168a5.26,5.26,0,0,0,1.88,3.45,5.26,5.26,0,0,0,1.89-3.45c0-1.9-.85-3.44-1.89-3.44S189.5,166.07,189.5,168Z"/><path class="cls-88" d="M191.24,174.87c-.79-1.71-.8-3.26,0-3.49s2.09.92,2.95,2.61a2.85,2.85,0,0,1,1.48,1.38,1.93,1.93,0,0,1-1.13,2.81,2.84,2.84,0,0,1-3.22-1.51A2,2,0,0,1,191.24,174.87Z"/><ellipse class="cls-77" cx="193.47" cy="176.02" rx="1.3" ry="0.79" transform="translate(-30.62 41.13) rotate(-11.25)"/><path class="cls-89" d="M197.38,192.93s-5.95,6.49-6.91,9.6a10.94,10.94,0,0,1-3.62,5l.26-6.55Z"/><path class="cls-90" d="M173.39,180.42l.85,2.2a2.93,2.93,0,0,1-.56,2.8l-3.79,4.93a3.5,3.5,0,0,0-.46.76L167.75,195a4,4,0,0,1-1.93,1.94l-1.84.85a3.5,3.5,0,0,0-2.13,3.61l2,9.92a2.12,2.12,0,0,0,1.35,1.59l15,5.75a3.56,3.56,0,0,0,3.93-1.41,18.79,18.79,0,0,0,3.78-13.31,3.35,3.35,0,0,1,1.19-2.85c3.14-2.79,10.45-9.38,13.7-13.15,1.1-1.28,1.12-3,0-3.83L195,177.76a2.17,2.17,0,0,1-.78-1.56l-.51-7.69c-.13-2-2.41-2.73-4.33-1.44l-14.51,9.67A3.25,3.25,0,0,0,173.39,180.42Z"/><path class="cls-91" d="M160.77,209.6s1.24-6.39,3.24-6.87-.07,13,12,11.15l-4.07,9.72s-12.3-8.77-11.71-11.39Z"/><path class="cls-92" d="M170.33,193.31s1,5.48,7.67,6,8.86,13,8.86,13-15.49-5.15-16.43-11.36S170.33,193.31,170.33,193.31Z"/><ellipse class="cls-93" cx="172.69" cy="215.11" rx="14.83" ry="12.1" transform="translate(-96.32 154.07) rotate(-38.46)"/><ellipse class="cls-94" cx="172.69" cy="215.11" rx="12.48" ry="10.18" transform="translate(-96.32 154.07) rotate(-38.46)"/><path class="cls-95" d="M201.29,172.3s1.08,1.24-.87,5.55c-2.39,5.3-8.32,14.16-13.88,17.84,0,0,.3-3.43-6.25-1.12S201.29,172.3,201.29,172.3Z"/><path class="cls-96" d="M193.08,162s13.71,7.26,9.19,11.57-10.32,17-13,17.87a34,34,0,0,1-6.51.94,2.8,2.8,0,0,0-2.45,2.22l-.17,1.36s-7.32-.12-9.34,2.45,19.31-17.81,15.88-15.32-9.81,5.16-12.85,4.93l-4.08-5.68s15.1-3.8,20-11.62S193.08,162,193.08,162Z"/><path class="cls-89" d="M170.5,190s-.42-2.14-.72-4.41-1.85-4.07-1.19-4.18c2.44-.42,11,6.57,18.07,1.64,0,0-5.13,8.18-12.22,11.91.22-.16,2.8-2.1,2.8-3.65S174.57,188.64,170.5,190Z"/><path class="cls-89" d="M186,209.2s-3.89-10-12.36-9,1-5.31,1-5.31-.94,1.13-.67,2,1.34,1,1.71,1.05c3.31.61,9.7,4.08,10.16,8.16l.2,3.1Z"/><ellipse class="cls-97" cx="180.85" cy="171.7" rx="15.64" ry="6.72" transform="matrix(0.78, -0.62, 0.62, 0.78, -67.56, 149.73)"/><ellipse class="cls-98" cx="180.85" cy="171.7" rx="13.16" ry="5.65" transform="translate(-67.56 149.73) rotate(-38.46)"/><path class="cls-77" d="M188,168.49a6.4,6.4,0,0,1-4.1,1.11,6.42,6.42,0,0,1,2-3.74c1.69-1.34,3.52-1.84,4.1-1.12S189.69,167.15,188,168.49Z"/><path class="cls-99" d="M180.92,172.14c2-.66,3.34-1.74,3.11-2.46s-2-.8-3.95-.21a3,3,0,0,0-2.05-.06,2.13,2.13,0,1,0,1.26,4A2.93,2.93,0,0,0,180.92,172.14Z"/><ellipse class="cls-77" cx="178.66" cy="171.39" rx="0.88" ry="1.18" transform="translate(-43.47 62.06) rotate(-17.6)"/><path class="cls-100" d="M208.67,76s-5-10.9-98.48,48.16c0,0-13.15,3,15.93,61.28,0,0,39.59,76.37,64.88,67.67s52.17-35.57,52.17-35.57-34.78,53.89-51.38,54.22c-13.73.27-57.23-45.15-71.84-60.83a4.84,4.84,0,0,0-7.91,1.23L107,222.84s45.34,89.82,79.42,92.78S297.3,221.07,310.31,184.35C318.61,160.9,347.88,134.52,208.67,76ZM289,164.68c-1.85,40.77-83.32,39.41-90.65,63.94,0,0-87.26-56.68-72.43-86.72S183.83,100,204.67,88.75C204.67,88.75,290.85,123.91,289,164.68Z"/><path class="cls-13" d="M147,266.36s20.93,41.84,50.13,22.28,84.06-80.95,84.06-80.95-51.07,93.45-87.47,97.79S147,266.36,147,266.36Z"/><path class="cls-13" d="M138.81,183.85s31.51,79.69,52.19,69.29,44.5-37.41,44.5-37.41S192.7,249,187.15,241.07,138.81,183.85,138.81,183.85Z"/></svg>