<?xml version="1.0" encoding="utf-8"?>
<!-- Generator: Adobe Illustrator 20.0.0, SVG Export Plug-In . SVG Version: 6.00 Build 0)  -->
<svg version="1.1" id="Laag_1" xmlns="http://www.w3.org/2000/svg" xmlns:xlink="http://www.w3.org/1999/xlink" x="0px" y="0px"
	 viewBox="0 0 903.3 817" style="enable-background:new 0 0 903.3 817;" xml:space="preserve">
<style type="text/css">
	.st0{clip-path:url(#SVGID_2_);fill:#202427;}
	.st1{clip-path:url(#SVGID_2_);}
	.st2{clip-path:url(#SVGID_4_);fill:url(#SVGID_5_);}
	.st3{clip-path:url(#SVGID_7_);fill:#8299A5;}
	.st4{clip-path:url(#SVGID_9_);fill:url(#SVGID_10_);}
	.st5{clip-path:url(#SVGID_12_);fill:url(#SVGID_13_);}
	.st6{clip-path:url(#SVGID_15_);fill:url(#SVGID_16_);}
	.st7{clip-path:url(#SVGID_18_);fill:url(#SVGID_19_);}
	.st8{opacity:5.999760e-02;clip-path:url(#SVGID_21_);}
	.st9{clip-path:url(#SVGID_23_);fill:#010101;}
	.st10{clip-path:url(#SVGID_25_);fill:url(#SVGID_26_);}
	.st11{clip-path:url(#SVGID_28_);fill:url(#SVGID_29_);}
	.st12{clip-path:url(#SVGID_31_);fill:#808285;}
	.st13{clip-path:url(#SVGID_31_);fill:#B2BCC1;}
	.st14{clip-path:url(#SVGID_33_);fill:url(#SVGID_34_);}
	.st15{clip-path:url(#SVGID_36_);fill:#FFFFFF;}
	.st16{clip-path:url(#SVGID_36_);fill:#B2BCC1;}
	.st17{clip-path:url(#SVGID_38_);fill:url(#SVGID_39_);}
	.st18{clip-path:url(#SVGID_41_);fill:#FFFFFF;}
</style>
<g>
	<defs>
		<rect id="SVGID_1_" width="903.3" height="817"/>
	</defs>
	<clipPath id="SVGID_2_">
		<use xlink:href="#SVGID_1_"  style="overflow:visible;"/>
	</clipPath>
	<polygon class="st0" points="576.9,243 604.7,295.9 587.7,423.4 569.2,423.4 586.9,302.8 548.3,225.9 	"/>
	<g class="st1">
		<defs>
			<polygon id="SVGID_3_" points="308.2,101.4 312.7,118.4 319.1,141.4 334.6,137.7 334.6,117.4 326.9,109.4 335.5,95.4 
				718.4,340.4 736.7,331.2 736.7,323.4 345.7,74.9 			"/>
		</defs>
		<clipPath id="SVGID_4_">
			<use xlink:href="#SVGID_3_"  style="overflow:visible;"/>
		</clipPath>
		
			<linearGradient id="SVGID_5_" gradientUnits="userSpaceOnUse" x1="0" y1="817.0417" x2="1" y2="817.0417" gradientTransform="matrix(160.0384 205.9031 205.9031 -160.0384 -167877.8281 130748.4375)">
			<stop  offset="0" style="stop-color:#383E42"/>
			<stop  offset="0.157" style="stop-color:#383E42"/>
			<stop  offset="0.374" style="stop-color:#202527"/>
			<stop  offset="1" style="stop-color:#202527"/>
		</linearGradient>
		<polygon class="st2" points="575.3,-132.8 865.3,240.4 469.5,548 179.5,174.8 		"/>
	</g>
	<g class="st1">
		<defs>
			<rect id="SVGID_6_" width="903.3" height="817"/>
		</defs>
		<clipPath id="SVGID_7_">
			<use xlink:href="#SVGID_6_"  style="overflow:visible;"/>
		</clipPath>
		<path class="st3" d="M375.7,368.7L375.7,368.7c-1.7-0.7-2.6-2.7-1.8-4.4l17.2-41.5l6.3,2.6l-17.2,41.5
			C379.4,368.6,377.4,369.4,375.7,368.7"/>
	</g>
	<g class="st1">
		<defs>
			<path id="SVGID_8_" d="M336.7,117.3c-11.1,0-20,9-20,20v34.4h54.4v-34.4c0-11.1-9-20-20-20H336.7z"/>
		</defs>
		<clipPath id="SVGID_9_">
			<use xlink:href="#SVGID_8_"  style="overflow:visible;"/>
		</clipPath>
		
			<linearGradient id="SVGID_10_" gradientUnits="userSpaceOnUse" x1="0" y1="817.0817" x2="1" y2="817.0817" gradientTransform="matrix(33.2844 37.8847 37.8847 -33.2844 -30629.4258 27319.5859)">
			<stop  offset="0" style="stop-color:#CCD1D3"/>
			<stop  offset="0.1094" style="stop-color:#CCD1D3"/>
			<stop  offset="0.7206" style="stop-color:#B2BCC2"/>
			<stop  offset="1" style="stop-color:#B2BCC2"/>
		</linearGradient>
		<polygon class="st4" points="347.4,90.3 398.1,148 340.4,198.7 289.7,141 		"/>
	</g>
	<g class="st1">
		<defs>
			<path id="SVGID_11_" d="M298.8,171.7c-5.3,0-9.7,4.3-9.7,9.7v132.7c0,6.4,5.2,11.5,11.5,11.5h96.8V181.4c0-5.3-4.3-9.7-9.7-9.7
				H298.8z"/>
		</defs>
		<clipPath id="SVGID_12_">
			<use xlink:href="#SVGID_11_"  style="overflow:visible;"/>
		</clipPath>
		
			<linearGradient id="SVGID_13_" gradientUnits="userSpaceOnUse" x1="0" y1="816.9953" x2="1" y2="816.9953" gradientTransform="matrix(17.6186 50.6536 50.6536 -17.6186 -41071.5977 14553.418)">
			<stop  offset="0" style="stop-color:#8AA3AD"/>
			<stop  offset="0.1094" style="stop-color:#8AA3AD"/>
			<stop  offset="0.6687" style="stop-color:#6B7D88"/>
			<stop  offset="0.7219" style="stop-color:#687985"/>
			<stop  offset="1" style="stop-color:#687985"/>
		</linearGradient>
		<polygon class="st5" points="385.8,138.1 445.2,309 300.8,359.3 241.4,188.3 		"/>
	</g>
	<g class="st1">
		<defs>
			<rect id="SVGID_14_" x="334.2" y="110.9" width="19" height="9"/>
		</defs>
		<clipPath id="SVGID_15_">
			<use xlink:href="#SVGID_14_"  style="overflow:visible;"/>
		</clipPath>
		
			<linearGradient id="SVGID_16_" gradientUnits="userSpaceOnUse" x1="-9.094947e-13" y1="817" x2="1" y2="817" gradientTransform="matrix(19 0 0 -19 334.154 15638.3564)">
			<stop  offset="0" style="stop-color:#0A8949"/>
			<stop  offset="0.3997" style="stop-color:#056D3D"/>
			<stop  offset="0.4553" style="stop-color:#036A3B"/>
			<stop  offset="1" style="stop-color:#036A3B"/>
		</linearGradient>
		<rect x="334.2" y="110.9" class="st6" width="19" height="9"/>
	</g>
	<g class="st1">
		<defs>
			<path id="SVGID_17_" d="M325,135.9c-2,7.9-2,16.1,0,24h36l0.3-2c1.1-7.3,1-14.8-0.3-22H325z"/>
		</defs>
		<clipPath id="SVGID_18_">
			<use xlink:href="#SVGID_17_"  style="overflow:visible;"/>
		</clipPath>
		
			<linearGradient id="SVGID_19_" gradientUnits="userSpaceOnUse" x1="0" y1="816.9937" x2="1" y2="816.9937" gradientTransform="matrix(21.609 23.7699 23.7699 -21.609 -19087.5879 17790.7773)">
			<stop  offset="0" style="stop-color:#0A8949"/>
			<stop  offset="0.3997" style="stop-color:#056D3D"/>
			<stop  offset="0.4553" style="stop-color:#036A3B"/>
			<stop  offset="1" style="stop-color:#036A3B"/>
		</linearGradient>
		<polygon class="st7" points="344.6,116.2 374.4,149 340.9,179.5 311.1,146.7 		"/>
	</g>
	<g class="st1">
		<defs>
			<rect id="SVGID_20_" width="903.3" height="817"/>
		</defs>
		<clipPath id="SVGID_21_">
			<use xlink:href="#SVGID_20_"  style="overflow:visible;"/>
		</clipPath>
		<g class="st8">
			<g>
				<defs>
					<rect id="SVGID_22_" x="198.4" y="672.3" width="607" height="47"/>
				</defs>
				<clipPath id="SVGID_23_">
					<use xlink:href="#SVGID_22_"  style="overflow:visible;"/>
				</clipPath>
				<path class="st9" d="M805.4,695.8c0,13-135.9,23.5-303.5,23.5s-303.5-10.5-303.5-23.5s135.9-23.5,303.5-23.5
					S805.4,682.8,805.4,695.8"/>
			</g>
		</g>
	</g>
	<g class="st1">
		<defs>
			<path id="SVGID_24_" d="M636,441.1c-12.3,0-22.3,10-22.3,22.3v164.5h135.9h11.7c12.3,0,22.3-10,22.3-22.3v-71.8
				c0-5.1-1.7-10-4.9-13.9l-56.4-70.5c-4.2-5.3-10.6-8.4-17.4-8.4H636z"/>
		</defs>
		<clipPath id="SVGID_25_">
			<use xlink:href="#SVGID_24_"  style="overflow:visible;"/>
		</clipPath>
		
			<linearGradient id="SVGID_26_" gradientUnits="userSpaceOnUse" x1="0" y1="817.0062" x2="1" y2="817.0062" gradientTransform="matrix(8.4494 251.7916 251.7916 -8.4494 -205019.6563 7348.2231)">
			<stop  offset="0" style="stop-color:#0A8949"/>
			<stop  offset="0.3997" style="stop-color:#056D3D"/>
			<stop  offset="0.4553" style="stop-color:#036A3B"/>
			<stop  offset="1" style="stop-color:#036A3B"/>
		</linearGradient>
		<polygon class="st10" points="783.3,435.4 789.8,627.7 613.9,633.6 607.4,441.3 		"/>
	</g>
	<g class="st1">
		<defs>
			<path id="SVGID_27_" d="M234.2,390.1c-7,0-13.6,3.3-17.8,8.9l-39.8,53.1c-2.9,3.9-4.5,8.5-4.5,13.4v89.2
				c0,12.3,10,22.3,22.3,22.3h402.3V412.4c0-12.3-10-22.3-22.3-22.3H234.2z"/>
		</defs>
		<clipPath id="SVGID_28_">
			<use xlink:href="#SVGID_27_"  style="overflow:visible;"/>
		</clipPath>
		
			<linearGradient id="SVGID_29_" gradientUnits="userSpaceOnUse" x1="6.828523e-07" y1="817" x2="1" y2="817" gradientTransform="matrix(424.5675 0 0 -424.5675 172.1387 347355.2188)">
			<stop  offset="0" style="stop-color:#C7C4C4"/>
			<stop  offset="0.1587" style="stop-color:#C7C4C4"/>
			<stop  offset="0.4553" style="stop-color:#B7B6B6"/>
			<stop  offset="1" style="stop-color:#B7B6B6"/>
		</linearGradient>
		<rect x="172.1" y="390.1" class="st11" width="424.6" height="186.8"/>
	</g>
	<g class="st1">
		<defs>
			<rect id="SVGID_30_" width="903.3" height="817"/>
		</defs>
		<clipPath id="SVGID_31_">
			<use xlink:href="#SVGID_30_"  style="overflow:visible;"/>
		</clipPath>
		<path class="st12" d="M189.1,576.9v42.5c0,4.7,3.8,8.5,8.5,8.5h42.5h246.2c4.7,0,8.5,3.8,8.5,8.5c0,4.7,3.8,8.5,8.5,8.5h84.9
			c4.7,0,8.5-3.8,8.5-8.5c0-4.7,3.8-8.5,8.5-8.5h8.5v-50.9H189.1z"/>
		<path class="st12" d="M325,644.9c0,28.1-22.8,50.9-50.9,50.9c-28.1,0-50.9-22.8-50.9-50.9s22.8-50.9,50.9-50.9
			C302.2,593.9,325,616.7,325,644.9"/>
		<path class="st13" d="M296.8,644.9c0,12.6-10.2,22.8-22.8,22.8s-22.8-10.2-22.8-22.8s10.2-22.8,22.8-22.8S296.8,632.3,296.8,644.9
			"/>
		<path class="st12" d="M443.9,644.9c0,28.1-22.8,50.9-50.9,50.9c-28.1,0-50.9-22.8-50.9-50.9s22.8-50.9,50.9-50.9
			C421.1,593.9,443.9,616.7,443.9,644.9"/>
		<path class="st12" d="M749.6,644.9c0,28.1-22.8,50.9-50.9,50.9c-28.1,0-50.9-22.8-50.9-50.9s22.8-50.9,50.9-50.9
			C726.7,593.9,749.6,616.7,749.6,644.9"/>
	</g>
	<g class="st1">
		<defs>
			<path id="SVGID_32_" d="M643,461.7c-5,0-9.1,4.2-9.1,9.4v59.3c0,5.2,4.1,9.4,9.1,9.4h105.4c7.5,0,11.8-8.8,7.3-15l-43.2-59.3
				c-1.7-2.4-4.4-3.7-7.3-3.7H643z"/>
		</defs>
		<clipPath id="SVGID_33_">
			<use xlink:href="#SVGID_32_"  style="overflow:visible;"/>
		</clipPath>
		
			<linearGradient id="SVGID_34_" gradientUnits="userSpaceOnUse" x1="2.469534e-06" y1="817" x2="1" y2="817" gradientTransform="matrix(123.5763 0 0 -123.5763 633.9236 101462.5078)">
			<stop  offset="0" style="stop-color:#DDEDF7"/>
			<stop  offset="0.4248" style="stop-color:#DDEDF7"/>
			<stop  offset="0.7541" style="stop-color:#D3D9D9"/>
			<stop  offset="1" style="stop-color:#D3D9D9"/>
		</linearGradient>
		<rect x="633.9" y="461.7" class="st14" width="126.2" height="78"/>
	</g>
	<g class="st1">
		<defs>
			<rect id="SVGID_35_" width="903.3" height="817"/>
		</defs>
		<clipPath id="SVGID_36_">
			<use xlink:href="#SVGID_35_"  style="overflow:visible;"/>
		</clipPath>
		<line class="st15" x1="633.9" y1="548.4" x2="633.9" y2="613.4"/>
		<line class="st15" x1="764" y1="548.4" x2="764" y2="613.4"/>
		<path class="st15" d="M672.1,559.2h-11.2c-2.9,0-5.2-2.3-5.2-5.2v-0.4c0-2.9,2.3-5.2,5.2-5.2h11.2c2.9,0,5.2,2.3,5.2,5.2v0.4
			C677.3,556.9,674.9,559.2,672.1,559.2"/>
		<path class="st16" d="M415.7,644.9c0,12.6-10.2,22.8-22.8,22.8s-22.8-10.2-22.8-22.8s10.2-22.8,22.8-22.8S415.7,632.3,415.7,644.9
			"/>
		<path class="st16" d="M721.4,644.9c0,12.6-10.2,22.8-22.8,22.8c-12.6,0-22.8-10.2-22.8-22.8s10.2-22.8,22.8-22.8
			C711.2,622.1,721.4,632.3,721.4,644.9"/>
	</g>
	<g class="st1">
		<defs>
			<path id="SVGID_37_" d="M275.6,410c-12,48.1-12,98.4,0,146.5h219.7l1.8-11.9c6.9-44.6,6.2-90.1-1.8-134.6H275.6z"/>
		</defs>
		<clipPath id="SVGID_38_">
			<use xlink:href="#SVGID_37_"  style="overflow:visible;"/>
		</clipPath>
		
			<linearGradient id="SVGID_39_" gradientUnits="userSpaceOnUse" x1="0" y1="816.9936" x2="1" y2="816.9936" gradientTransform="matrix(129.7084 125.9488 125.9488 -129.7084 -102592.25 106379.6406)">
			<stop  offset="0" style="stop-color:#0A8949"/>
			<stop  offset="0.3997" style="stop-color:#056D3D"/>
			<stop  offset="0.4553" style="stop-color:#036A3B"/>
			<stop  offset="1" style="stop-color:#036A3B"/>
		</linearGradient>
		<polygon class="st17" points="380.3,289.8 577.3,481 387.4,676.6 190.4,485.4 		"/>
	</g>
	<g class="st1">
		<defs>
			<rect id="SVGID_40_" width="903.3" height="817"/>
		</defs>
		<clipPath id="SVGID_41_">
			<use xlink:href="#SVGID_40_"  style="overflow:visible;"/>
		</clipPath>
		<path class="st18" d="M337.8,471.5c0-0.1,0-0.1,0.1-0.2s0.1-0.1,0.2-0.2c0.1-0.1,0.2-0.1,0.3-0.2c0.1,0,0.2-0.1,0.3-0.1h4.2
			c0.2,0,0.3,0.1,0.5,0.2c0.1,0.1,0.2,0.2,0.3,0.3l0.4,0.9l8.6,22.2c0.1,0.2,0.1,0.4,0,0.5c-0.1,0.1-0.3,0.2-0.6,0.2h-4.7
			c-0.3,0-0.4,0-0.6-0.1c-0.1-0.1-0.2-0.3-0.3-0.5c-0.2-0.6-0.4-1.1-0.6-1.7c-0.2-0.6-0.4-1.1-0.6-1.7h-8.7
			c-0.2,0.6-0.4,1.1-0.6,1.7c-0.2,0.6-0.4,1.1-0.6,1.7c-0.1,0.4-0.4,0.6-0.8,0.6h-4.8c-0.2,0-0.4-0.1-0.5-0.2
			c-0.1-0.1-0.2-0.3-0.1-0.5L337.8,471.5z M340.8,478.6c-0.2,0.6-0.4,1.2-0.6,1.8c-0.2,0.6-0.4,1.3-0.6,2c-0.2,0.7-0.4,1.3-0.6,1.9
			c-0.2,0.6-0.4,1.2-0.6,1.8h5L340.8,478.6z"/>
		<path class="st18" d="M356.1,471.6c0-0.2,0.1-0.4,0.2-0.5c0.1-0.1,0.3-0.2,0.5-0.2h15.7c0.3,0,0.4,0.1,0.6,0.2
			c0.1,0.1,0.2,0.3,0.2,0.6v4.1c0,0.2-0.1,0.4-0.2,0.5c-0.1,0.2-0.3,0.3-0.6,0.3h-10v5.1h7.4c0.2,0,0.4,0.1,0.5,0.2
			c0.1,0.1,0.2,0.3,0.2,0.6v3.9c0,0.2-0.1,0.4-0.2,0.5s-0.3,0.3-0.5,0.3h-7.4v7.5c0,0.5-0.3,0.7-0.8,0.7h-5
			c-0.4-0.1-0.6-0.3-0.6-0.7V471.6z"/>
		<path class="st18" d="M384,494.9c-0.1-0.2-0.2-0.4-0.3-0.6c-0.1-0.2-0.2-0.4-0.3-0.6l-8.4-22.1c0-0.1,0-0.1,0-0.1c0,0,0-0.1,0-0.1
			c0-0.3,0.2-0.5,0.6-0.5h5.3c0.4,0,0.7,0.2,0.9,0.6l5,14.9c0.4-1.2,0.9-2.5,1.3-3.7c0.4-1.2,0.8-2.5,1.2-3.7
			c0.4-1.2,0.8-2.5,1.2-3.7c0.4-1.2,0.8-2.5,1.3-3.7c0.2-0.4,0.5-0.6,0.9-0.6h5.2c0.3,0,0.4,0,0.5,0.1c0.1,0.1,0.2,0.2,0.2,0.4
			c0,0.1,0,0.1,0,0.2v0l-8.5,22.1c-0.1,0.2-0.1,0.3-0.2,0.5c-0.1,0.2-0.2,0.4-0.3,0.5c-0.1,0.2-0.2,0.3-0.3,0.4
			c-0.1,0.1-0.3,0.2-0.4,0.2h-4.1C384.3,495.3,384.1,495.2,384,494.9"/>
		<path class="st18" d="M405.1,471.5c0-0.1,0-0.1,0.1-0.2s0.1-0.1,0.2-0.2c0.1-0.1,0.2-0.1,0.3-0.2c0.1,0,0.2-0.1,0.3-0.1h4.2
			c0.2,0,0.3,0.1,0.5,0.2c0.1,0.1,0.2,0.2,0.3,0.3l0.4,0.9l8.6,22.2c0.1,0.2,0.1,0.4,0,0.5c-0.1,0.1-0.3,0.2-0.6,0.2h-4.7
			c-0.3,0-0.4,0-0.6-0.1c-0.1-0.1-0.2-0.3-0.3-0.5c-0.2-0.6-0.4-1.1-0.6-1.7c-0.2-0.6-0.4-1.1-0.6-1.7h-8.7
			c-0.2,0.6-0.4,1.1-0.6,1.7c-0.2,0.6-0.4,1.1-0.6,1.7c-0.1,0.4-0.4,0.6-0.8,0.6h-4.8c-0.2,0-0.4-0.1-0.5-0.2
			c-0.1-0.1-0.2-0.3-0.1-0.5L405.1,471.5z M408.1,478.6c-0.2,0.6-0.4,1.2-0.6,1.8c-0.2,0.6-0.4,1.3-0.6,2c-0.2,0.7-0.4,1.3-0.6,1.9
			c-0.2,0.6-0.4,1.2-0.6,1.8h5L408.1,478.6z"/>
		<path class="st18" d="M422.7,471.6c0-0.2,0.1-0.4,0.2-0.5c0.1-0.1,0.3-0.2,0.5-0.2h4.9c0.2,0,0.4,0.1,0.5,0.2
			c0.2,0.1,0.2,0.3,0.2,0.5v17.9h9c0.2,0,0.4,0.1,0.5,0.2c0.1,0.1,0.2,0.3,0.2,0.5v4.3c0,0.2-0.1,0.4-0.2,0.5
			c-0.1,0.2-0.3,0.2-0.5,0.2h-14.7c-0.5,0-0.7-0.2-0.7-0.7V471.6z"/>
	</g>
</g>
</svg>
