<svg id="Laag_1" data-name="Laag 1" xmlns="http://www.w3.org/2000/svg" xmlns:xlink="http://www.w3.org/1999/xlink" viewBox="0 0 403.64 478.71"><defs><style>.cls-1{fill:url(#Naamloos_verloop_103);}.cls-2{fill:url(#Naamloos_verloop_78);}.cls-3{fill:url(#Naamloos_verloop_103-2);}.cls-4{fill:url(#Naamloos_verloop_103-3);}.cls-5{fill:url(#Naamloos_verloop_103-4);}.cls-6{fill:url(#Naamloos_verloop_103-5);}.cls-7{fill:url(#Naamloos_verloop_103-6);}.cls-8{fill:url(#Naamloos_verloop_80);}.cls-9{fill:url(#Naamloos_verloop_103-7);}.cls-10{fill:url(#Naamloos_verloop_78-2);}.cls-11{fill:url(#Naamloos_verloop_103-8);}.cls-12{fill:url(#Naamloos_verloop_116);}.cls-13{fill:#fff;opacity:0.08;}.cls-14{fill:url(#Naamloos_verloop_103-9);}.cls-15{fill:url(#Naamloos_verloop_80-2);}</style><linearGradient id="Naamloos_verloop_103" x1="52.01" y1="364.86" x2="134.17" y2="364.86" gradientUnits="userSpaceOnUse"><stop offset="0" stop-color="#2c2362"/><stop offset="1" stop-color="#181336"/><stop offset="1"/></linearGradient><linearGradient id="Naamloos_verloop_78" x1="318.72" y1="257.36" x2="47.59" y2="257.36" gradientUnits="userSpaceOnUse"><stop offset="0" stop-color="#2c2362"/><stop offset="1" stop-color="#3d3a83"/></linearGradient><linearGradient id="Naamloos_verloop_103-2" x1="237.44" y1="371.16" x2="303.96" y2="371.16" xlink:href="#Naamloos_verloop_103"/><linearGradient id="Naamloos_verloop_103-3" x1="180.08" y1="230.93" x2="122.74" y2="230.93" xlink:href="#Naamloos_verloop_103"/><linearGradient id="Naamloos_verloop_103-4" x1="-1124.12" y1="76.33" x2="-1181.46" y2="76.33" gradientTransform="matrix(-0.97, -0.23, -0.23, 0.97, -881.57, -102.42)" xlink:href="#Naamloos_verloop_103"/><linearGradient id="Naamloos_verloop_103-5" x1="289.61" y1="280.52" x2="212.41" y2="280.52" xlink:href="#Naamloos_verloop_103"/><linearGradient id="Naamloos_verloop_103-6" x1="86.1" y1="358.98" x2="139.27" y2="358.98" xlink:href="#Naamloos_verloop_103"/><linearGradient id="Naamloos_verloop_80" x1="91.19" y1="325.04" x2="298.12" y2="325.04" gradientUnits="userSpaceOnUse"><stop offset="0" stop-color="#3e6ab1"/><stop offset="1" stop-color="#3d3a83"/></linearGradient><linearGradient id="Naamloos_verloop_103-7" x1="253.92" y1="176.3" x2="287.47" y2="176.3" xlink:href="#Naamloos_verloop_103"/><linearGradient id="Naamloos_verloop_78-2" x1="285.79" y1="168.6" x2="120.97" y2="168.6" xlink:href="#Naamloos_verloop_78"/><linearGradient id="Naamloos_verloop_103-8" x1="226.02" y1="161.74" x2="131.75" y2="161.74" xlink:href="#Naamloos_verloop_103"/><linearGradient id="Naamloos_verloop_116" x1="135.57" y1="165.8" x2="252.23" y2="165.8" gradientUnits="userSpaceOnUse"><stop offset="0" stop-color="#3e6ab1"/><stop offset="0.04" stop-color="#3e63aa"/><stop offset="0.18" stop-color="#3d5099"/><stop offset="0.34" stop-color="#3d448c"/><stop offset="0.55" stop-color="#3d3c85"/><stop offset="1" stop-color="#3d3a83"/></linearGradient><linearGradient id="Naamloos_verloop_103-9" x1="183.15" y1="286.56" x2="130.69" y2="286.56" xlink:href="#Naamloos_verloop_103"/><linearGradient id="Naamloos_verloop_80-2" x1="103.73" y1="205.38" x2="315.37" y2="205.38" xlink:href="#Naamloos_verloop_80"/></defs><path class="cls-1" d="M92.07,359.61l42.1,63.83s-67-11.68-79.94-42.43,34.62-74.72,34.62-74.72Z"/><path class="cls-2" d="M195,87.13c21.56-5.8,109.38,48.4,115,74.63,4.17,19.47-10.58,68.59-18.46,92.63a29.87,29.87,0,0,0,2.72,24.68c9.4,15.64,24.43,46.92,24.43,86.86,0,58.09-52.47,43.1-57.16,52.47S120.07,431.52,115.38,424,42.3,368.29,47.92,352.58,97.58,250.67,97.58,250.67s-2.72-19.15,1-31.33,24.28-10.83,24.28-24c0-4.66-9.74-12.24-13.65-20.61-7.12-15.22-9.53-33.05-2.28-40.67,2.11-2.21,8.24-2.76,14-6.23C146,112.84,195,87.13,195,87.13Z"/><path class="cls-3" d="M298.12,342.84,237.44,399.2s47.53,2.7,60.68-8.79S298.12,342.84,298.12,342.84Z"/><path class="cls-4" d="M124.65,195.39l55.43,71.26s-57.71-33.92-57.34-54.15S124.65,195.39,124.65,195.39Z"/><path class="cls-5" d="M257.21,207.71l-70.29,56.66s64-19.78,68.23-39.56S257.21,207.71,257.21,207.71Z"/><path class="cls-6" d="M280.6,257.36l-9.9,53.76-58.29,17.6s65.93-68.92,74.53-90.19S280.6,257.36,280.6,257.36Z"/><path class="cls-7" d="M97.17,353.5l42.1,63.83s-35.18,5.87-48.08-24.88,2.75-92.26,2.75-92.26Z"/><path class="cls-8" d="M103.73,232.76s-4.75,26-8.4,55.5c-4,32.13-6.66,68.4-.48,79.72,11.84,21.71,25.66,49.35,44.42,49.35s141.14-23.69,155-47.38S280.6,257.36,280.6,257.36s-60.17,82.58-96.69,83.16c-26.32.43-54.82-64.8-54.82-64.8L113.72,251Z"/><path class="cls-9" d="M253.92,131.29a70.09,70.09,0,0,1,0,90,41.06,41.06,0,0,0,21-11.82,48.6,48.6,0,0,0,12.53-25.78,55.43,55.43,0,0,0-2.15-17.12C278.57,143.49,258.49,133.43,253.92,131.29Z"/><path class="cls-10" d="M201.43,98.67s86.18,35.15,84.33,75.92S202.43,214,195.1,238.53c0,0-87.26-56.68-72.43-86.71s57.93-41.94,78.76-53.15"/><path class="cls-11" d="M195.37,122.28,226,190.68s-23.17,14.66-32,15.38c-19.16,1.56-88.78-26.12-51.39-57.2C200.93,100.38,195.37,122.28,195.37,122.28Z"/><path class="cls-12" d="M208.91,112s64,34.82,36.39,66.56c-4.9,5.63-16.9,10.31-28,13.51-1.37.4-2.74,13.32-2.74,13.32s-3.84-11.54-5-11.25c-1.68.41-3.29.77-4.77,1.09-3.13.66-1.4,24.38-1.4,24.38s-5.24-23.12-8.72-23.06c-33.29.65-66.81-13-57.52-35.86C152,124,208.91,112,208.91,112Z"/><path class="cls-13" d="M111.34,363.27s98.06,35.75,136.87,0,35.32-39.75,35.32-39.75,11.7,34.64-8.24,47.92S224.72,406.17,173.65,397,111.34,363.27,111.34,363.27Z"/><path class="cls-14" d="M130.69,236a157.81,157.81,0,0,0,17.22,60.09c15.89,29.94,35.24,41.08,35.24,41.08Z"/><path class="cls-15" d="M205.44,86s-5.06-10.9-98.49,48.16c0,0-13.15,3,15.93,61.28,0,0,39.59,76.36,64.88,67.67s52.17-35.57,52.17-35.57-34.78,53.89-51.38,54.21c-13.73.27-57.23-45.14-71.84-60.82a4.84,4.84,0,0,0-7.91,1.23l-5.07,10.65s45.34,89.82,79.43,92.78S294.06,231,307.07,194.27C315.37,170.82,344.65,144.44,205.44,86Zm80.32,88.64c-1.86,40.78-83.33,39.42-90.66,63.94,0,0-87.26-56.68-72.43-86.71s57.93-41.94,78.76-53.15C201.43,98.67,287.61,133.82,285.76,174.59Z"/><path class="cls-13" d="M143.77,276.28s20.93,41.83,50.13,22.27,84.06-81,84.06-81-51.07,93.46-87.47,97.8S143.77,276.28,143.77,276.28Z"/><path class="cls-13" d="M135.57,193.77s31.51,79.68,52.19,69.29,44.5-37.41,44.5-37.41-42.8,33.22-48.35,25.34S135.57,193.77,135.57,193.77Z"/></svg>