<svg id="Laag_1" data-name="Laag 1" xmlns="http://www.w3.org/2000/svg" xmlns:xlink="http://www.w3.org/1999/xlink" viewBox="0 0 403.64 478.71"><defs><style>.cls-1{fill:url(#Naamloos_verloop_103);}.cls-2{fill:url(#Naamloos_verloop_103-2);}.cls-3{fill:url(#Naamloos_verloop_103-3);}.cls-4{fill:url(#Naamloos_verloop_78);}.cls-5{fill:url(#Naamloos_verloop_80);}.cls-6{fill:#fff;opacity:0.08;}.cls-7{fill:url(#Naamloos_verloop_80-2);}.cls-8{fill:url(#Naamloos_verloop_78-2);}.cls-9{fill:url(#Naamloos_verloop_80-3);}.cls-10{fill:url(#Naamloos_verloop_94);}.cls-11{fill:url(#Naamloos_verloop_96);}.cls-12{fill:url(#Naamloos_verloop_103-4);}.cls-13{fill:url(#Naamloos_verloop_103-5);}</style><linearGradient id="Naamloos_verloop_103" x1="331.52" y1="241.3" x2="301.36" y2="241.3" gradientUnits="userSpaceOnUse"><stop offset="0" stop-color="#2c2362"/><stop offset="1" stop-color="#181336"/><stop offset="1"/></linearGradient><linearGradient id="Naamloos_verloop_103-2" x1="137.06" y1="282.43" x2="54.53" y2="282.43" xlink:href="#Naamloos_verloop_103"/><linearGradient id="Naamloos_verloop_103-3" x1="273.47" y1="427.97" x2="273.47" y2="388.42" xlink:href="#Naamloos_verloop_103"/><linearGradient id="Naamloos_verloop_78" x1="43.67" y1="277.67" x2="367.65" y2="277.67" gradientUnits="userSpaceOnUse"><stop offset="0" stop-color="#2c2362"/><stop offset="1" stop-color="#3d3a83"/></linearGradient><linearGradient id="Naamloos_verloop_80" x1="329.77" y1="266.59" x2="59.27" y2="266.59" gradientUnits="userSpaceOnUse"><stop offset="0" stop-color="#3e6ab1"/><stop offset="1" stop-color="#3d3a83"/></linearGradient><linearGradient id="Naamloos_verloop_80-2" x1="275.2" y1="348.55" x2="346.69" y2="348.55" xlink:href="#Naamloos_verloop_80"/><linearGradient id="Naamloos_verloop_78-2" x1="147.61" y1="84.18" x2="269.13" y2="84.18" xlink:href="#Naamloos_verloop_78"/><linearGradient id="Naamloos_verloop_80-3" x1="163.28" y1="83.1" x2="254.49" y2="83.1" xlink:href="#Naamloos_verloop_80"/><linearGradient id="Naamloos_verloop_94" x1="243.05" y1="124.15" x2="191.38" y2="124.15" gradientUnits="userSpaceOnUse"><stop offset="0" stop-color="#f5991a"/><stop offset="1" stop-color="#f17d15"/></linearGradient><linearGradient id="Naamloos_verloop_96" x1="242.43" y1="122.5" x2="190.76" y2="122.5" gradientUnits="userSpaceOnUse"><stop offset="0" stop-color="#f5991a"/><stop offset="1" stop-color="#f9b220"/></linearGradient><linearGradient id="Naamloos_verloop_103-4" x1="324.28" y1="191.77" x2="314.57" y2="191.77" xlink:href="#Naamloos_verloop_103"/><linearGradient id="Naamloos_verloop_103-5" x1="128.05" y1="381.1" x2="55.08" y2="381.1" xlink:href="#Naamloos_verloop_103"/></defs><path class="cls-1" d="M329.77,201.13s6.59,50.58-5.8,73.19-22.61-15.74-22.61-15.74Z"/><path class="cls-2" d="M54.53,235.43S82.33,265.27,75.38,287s23,24.76,7,40.4,54.73-63.33,54.73-63.33Z"/><path class="cls-3" d="M190.14,422.43s94.65,15.05,131.55-4.46,35.11-29.55,35.11-29.55Z"/><path class="cls-4" d="M224.54,118.22c-21.1,10.51-50.85,25.67-86.16,44.79-69.9,37.85-86.54,66.23-86.54,66.23-1.08,25.66,44,33,38.24,61.67C87.61,303.25,21,357.52,51.82,374.79S175.2,451.27,196.17,434s124.58-30.84,134.45-27.14,46.87,7.41,34.54-8.63S382.43,302,322,260.07c0,0,13.56-67.84,9.86-75.24S224.54,118.22,224.54,118.22Z"/><path class="cls-5" d="M220.92,277.67s74.32-17.81,74.32-44.6-67.4-106.29-67.4-106.29l13,38.88L224,126.78l10.45,46.5-13.55-42.73-4.18,46.83V135.55L209.92,156l2.73-18.64L181.4,189.79l19.15-49.39-58.47,53.43,30.44-46.05a244.51,244.51,0,0,0-113,83.69c-.12-.08-.26-.2-.24-.32.14-1.1,13.25,3.13,23.16.38,37.16-10.33,42.67-15.14,42.67-15.14s-59.19,25.46-54.37,32.34,32.34,31.66,37.85,46.11,49.55,112.86,79.83,110.8,46.67-9.52,55.74,0,95.66-77.11,84.65-101.2S220.92,277.67,220.92,277.67Z"/><path class="cls-6" d="M172.52,147.78S98.1,200.5,92.63,211.44s49.24-10.16,46.11,0-37.52,25-22.66,46.12,71.3,120.37,89.58,122.71-58.32-107.86-49.72-130.53,57.84-64.09,57.84-64.09l-42.21,13.28,14.85-36.73-28.14,26.57-25.79,5.47Z"/><path class="cls-7" d="M275.2,402.07s44.35,4.51,63.14-15,0-92.45,0-92.45A143.35,143.35,0,0,1,275.2,402.07Z"/><path class="cls-8" d="M207.51,126.78S170.37,93.57,153,93.57s12.69-12.3,12.69-12.3S150.64,68,162.53,65.53s15.06-12,11.09-17.54,3.75-11.1,20.9,0,41.71,14.26,50.42,3.17,15.06,7.36,6.34,14.37,7.93,13.36,15.06,9.4,0,23.77-14.27,27.73-20,19.9-20,19.9"/><path class="cls-9" d="M173.62,48s46.8,20.11,60.85,14.84S219.84,81,219.84,81s21.66,9.89,32.78,4.36-31.38,24.32-28.08,32.88c0,0-6.28-15.24-2.07-20.27,0,0-7.29,4.7-5.35,13.62s-14-21.24-14-21.24l10.88,26S171.87,92,163.28,92.11c0,0,21.28-.16,31.24,7.3S164.91,80,166.22,73.47s13.35-3.5,13.35-9.41S173.62,48,173.62,48Z"/><path class="cls-6" d="M176.59,51.61s21.3,16.88,29.07,17.69c0,0-7.94,10.8-2.26,21.36s-20-2.47-17.64-9.71S176.59,51.61,176.59,51.61Z"/><path class="cls-10" d="M241.56,121.84a2.17,2.17,0,0,1-.12,4.16c-11.32,2.58-40.95,8.25-49-1.08C184.15,115.35,227.24,117.66,241.56,121.84Z"/><path class="cls-11" d="M240.94,120.83c2.05.44,2,2.66-.12,3-11.32,1.87-40.95,6-49-.78C183.53,116.15,226.62,117.81,240.94,120.83Z"/><path class="cls-12" d="M314.57,172s8.33,24.23,1.87,39.59c0,0,12.36-22.38,6-34.34Z"/><path class="cls-13" d="M55.08,376.64s57.13-3.74,73,9.4c0,0-52.55-11.62-63.66-4Z"/></svg>